<svg xmlns="http://www.w3.org/2000/svg" viewBox="0 0 389.4 205.62"><defs><style>.cls-1{fill:#e94100;}.cls-2{fill:#fff;}</style></defs><title>Recurso 2</title><g id="Capa_2" data-name="Capa 2"><g id="Layer_1" data-name="Layer 1"><path class="cls-1" d="M104.07,182.47c21.6,1.62,41.9,10.42,62.63,16.7s43.68,10,63.64,1.55,34.38-32.73,25.32-52.41C250,136,236.84,128,233,115.05c-5.21-17.45,8.54-35,9-53.18.6-25.91-25.19-44.48-49.74-52.77C154.14-3.76,111.13-3.52,74.62,13.21S9.1,63.91,1.75,103.4C-3.83,133.43,4.09,166,23.16,190c13.26,16.62,18.48,16.46,34.64,5.31C71.73,185.67,87,181.19,104.07,182.47Z"/><path class="cls-2" d="M27.78,167.16l-1-.3a69,69,0,0,1,40.47-43,69,69,0,0,1,58.8,5.23c6.66,4,13,9.29,19.06,14.4,13.12,11,25.5,21.38,41.45,20.47s27.13-12.7,39-25.19c10.44-11,21.22-22.42,35.63-25.64,12.48-2.78,25,1.22,37.08,5.1,7.18,2.3,14.61,4.68,22,5.66A61.26,61.26,0,0,0,372,105.56a61.25,61.25,0,0,0,15.43-52.64l1-.18a62.29,62.29,0,0,1-15.69,53.51,62.31,62.31,0,0,1-52.55,18.66c-7.49-1-15-3.38-22.18-5.7-12.52-4-24.35-7.8-36.57-5.07-14.1,3.14-24.78,14.43-35.11,25.34C214.84,151.57,203,164.06,186.66,165s-29.47-10.07-42.15-20.7c-6.07-5.09-12.34-10.36-18.94-14.31a67.94,67.94,0,0,0-57.92-5.15A67.93,67.93,0,0,0,27.78,167.16Z"/></g></g></svg>