<svg xmlns="http://www.w3.org/2000/svg" width="32" height="32"><path fill="#fff" d="M16 0c8.823 0 16 7.178 16 16s-7.178 16-16 16S0 24.822 0 16 7.178 0 16 0zm0 19.203a3.205 3.205 0 0 1-3.202-3.204c0-.697.226-1.34.605-1.867a3.202 3.202 0 0 1 2.598-1.335c1.069 0 2.015.529 2.597 1.336.377.526.605 1.17.605 1.867A3.208 3.208 0 0 1 16 19.203zm6.994-7.122-3.075.01-.01-3.084 2.683-.009.402-.001v3.085zm2.106 2.052v-3.715A3.52 3.52 0 0 0 21.581 6.9H10.417A3.52 3.52 0 0 0 6.9 10.418v11.165a3.52 3.52 0 0 0 3.517 3.517h11.165a3.52 3.52 0 0 0 3.517-3.517v-7.45zM20.976 16c0-.66-.133-1.291-.37-1.867h2.718v7.45c0 .963-.783 1.743-1.744 1.743H10.417c-.962 0-1.744-.78-1.744-1.743v-7.45h2.716A4.944 4.944 0 0 0 11.023 16 4.983 4.983 0 0 0 16 20.977 4.983 4.983 0 0 0 20.977 16z"/></svg>