<svg xmlns="http://www.w3.org/2000/svg" width="32" height="32"><path fill="#fff" d="M16 0C7.178 0 0 7.178 0 16s7.178 16 16 16 16-7.178 16-16S24.823 0 16 0zm7.138 12.338c.007.159.01.318.01.478 0 4.867-3.703 10.476-10.478 10.476-2.08 0-4.016-.607-5.645-1.653a7.444 7.444 0 0 0 5.452-1.525 3.687 3.687 0 0 1-3.44-2.558 3.704 3.704 0 0 0 1.662-.061 3.683 3.683 0 0 1-2.954-3.611v-.047a3.663 3.663 0 0 0 1.668.461 3.68 3.68 0 0 1-1.637-3.064c0-.676.18-1.309.498-1.853a10.457 10.457 0 0 0 7.59 3.85 3.682 3.682 0 0 1 6.275-3.36 7.347 7.347 0 0 0 2.34-.894 3.698 3.698 0 0 1-1.622 2.038 7.317 7.317 0 0 0 2.115-.58 7.406 7.406 0 0 1-1.835 1.904z"/></svg>