<svg xmlns="http://www.w3.org/2000/svg" xmlns:xlink="http://www.w3.org/1999/xlink" width="20" height="20"><defs><path id="a" d="m6.59 5.005-.168.068a.525.525 0 0 0 0 .973l3.083 1.255c.317.13.673.13.99 0l3.083-1.255a.525.525 0 0 0 0-.973l-.168-.068-2.915 1.186c-.317.13-.673.13-.99 0L6.59 5.005zm0 1.942-.168.069a.525.525 0 0 0 0 .973l3.083 1.255c.317.129.673.129.99 0l3.083-1.255a.525.525 0 0 0 0-.973l-.168-.069-2.915 1.186c-.317.13-.673.13-.99 0L6.59 6.947zM5.177 0h9.646c1.16 0 2.1.93 2.1 2.076v15.848c0 1.147-.94 2.076-2.1 2.076H5.177c-1.16 0-2.1-.93-2.1-2.076V2.076C3.077.929 4.017 0 5.177 0zm1.245 3.13a.525.525 0 0 0 0 .974l3.083 1.254c.317.13.673.13.99 0l3.083-1.254a.525.525 0 0 0 0-.973l-3.083-1.255a1.313 1.313 0 0 0-.99 0L6.422 3.131zm-1.747 7.923v6.33c0 .573.47 1.038 1.05 1.038h8.55c.58 0 1.05-.465 1.05-1.038v-6.33H4.675zm2.396 1.579h5.858c.441 0 .799.353.799.79a.795.795 0 0 1-.799.789H7.071a.794.794 0 0 1-.799-.79c0-.436.358-.79.799-.79zm0 2.631h5.858c.441 0 .799.354.799.79 0 .436-.358.79-.799.79H7.071a.794.794 0 0 1-.799-.79c0-.436.358-.79.799-.79z"/></defs><use xlink:href="#a"/></svg>