<svg width="150" height="150" xmlns="http://www.w3.org/2000/svg"><path style="fill:#fff" d="M0 75a74.766 74.766 0 0 1 9.663-36.837c2.568-3.375 7.097-.72 4.616 3.924A68.993 68.993 0 0 0 5.942 75c0 38.135 30.923 69.058 69.058 69.058 38.135 0 69.058-30.923 69.058-69.058 0-38.135-30.923-69.058-69.058-69.058-12.548 0-24.317 3.346-34.471 9.202-5.164 2.885-7.183-2.48-4.039-4.529C47.77 3.895 60.923 0 75 0c41.423 0 75 33.577 75 75s-33.577 75-75 75S0 116.423 0 75Zm29.31-51.835v10.128c0 .667-.52 1.19-1.155 1.19a1.19 1.19 0 0 1-.548-.145l-5.516-2.786c-2.252-1.016-3.754-3.018-3.783-5.282 0-1.712-.26-3.686-2.974-6.036A6770.072 6770.072 0 0 1 .434 7.233c-.03-.03-.03-.03-.087-.058A1.237 1.237 0 0 1 0 6.333c0-.638.52-1.16 1.155-1.16.202 0 .404.057.578.145l23.766 12.188c.057.029.144.087.202.116l.086.058c2.108 1.16 3.523 3.163 3.523 5.485ZM62.857 57l-3.222 1.327a.728.728 0 0 0 0 1.346l14.672 6.042a1.82 1.82 0 0 0 1.386 0l14.672-6.042a.728.728 0 0 0 0-1.346L87.143 57l-11.45 4.715a1.82 1.82 0 0 1-1.386 0L62.857 57Zm0 7-3.222 1.327a.728.728 0 0 0 0 1.346l14.672 6.042a1.82 1.82 0 0 0 1.386 0l14.672-6.042a.728.728 0 0 0 0-1.346L87.143 64l-11.45 4.715a1.82 1.82 0 0 1-1.386 0L62.857 64Zm-5.032-25.034h34.35a7.48 7.48 0 0 1 7.48 7.48v57.108a7.48 7.48 0 0 1-7.48 7.48h-34.35a7.48 7.48 0 0 1-7.48-7.48V46.446a7.48 7.48 0 0 1 7.48-7.48Zm1.81 12.36a.728.728 0 0 0 0 1.347l14.672 6.042a1.82 1.82 0 0 0 1.386 0l14.672-6.042a.728.728 0 0 0 0-1.346l-14.672-6.042a1.82 1.82 0 0 0-1.386 0l-14.672 6.042Zm-3.6 27.467v22.812a3.74 3.74 0 0 0 3.74 3.74h30.45a3.74 3.74 0 0 0 3.74-3.74V78.793h-37.93Zm8.534 5.69h20.862a2.845 2.845 0 1 1 0 5.69H64.569a2.845 2.845 0 1 1 0-5.69Zm0 9.483h20.862a2.845 2.845 0 1 1 0 5.69H64.569a2.845 2.845 0 1 1 0-5.69Z"/></svg>