<svg xmlns="http://www.w3.org/2000/svg" viewBox="0 0 78.08 71.78"><defs><style>.cls-1{fill:#e8ebec}.cls-2{fill:#fff}.cls-3{fill:#97d3db}.cls-4{fill:#8dc74a}</style></defs><g id="Capa_2" data-name="Capa 2"><g id="layer_1" data-name="layer 1"><circle class="cls-1" cx="64.08" cy="49.11" r="14"/><circle class="cls-1" cx="12" cy="57.04" r="12"/><circle class="cls-1" cx="40.08" cy="20" r="20"/><path class="cls-2" d="M44.19 33.47 28.64 17.92 13.08 33.47a22 22 0 0 0 0 31.11 22 22 0 0 0 31.11 0 22 22 0 0 0 0-31.11Z"/><path class="cls-3" d="m44.19 33.47-10-10a22 22 0 0 1 0 31.11 22 22 0 0 1-25.27 4.17 21.8 21.8 0 0 0 4.16 5.83 22 22 0 0 0 31.11 0 22 22 0 0 0 0-31.11Z"/><path class="cls-4" d="M28.64 71.78a22.75 22.75 0 0 1-16.09-38.84l15.56-15.55a.74.74 0 0 1 1.06 0l15.55 15.55a22.75 22.75 0 0 1-16.08 38.84Zm0-52.8-15 15a21.25 21.25 0 1 0 30.05 0Z"/><path class="cls-4" d="M15.63 37.67a.74.74 0 0 1-.53-.22.75.75 0 0 1 0-1.06l7.35-7.34a.74.74 0 0 1 1.06 0 .75.75 0 0 1 0 1.06l-7.35 7.34a.71.71 0 0 1-.53.22ZM25.53 27.78a.75.75 0 0 1-.53-.22.74.74 0 0 1 0-1.06l2-2a.74.74 0 0 1 1.06 0 .75.75 0 0 1 0 1.06l-2 2a.79.79 0 0 1-.53.22Z"/><path class="cls-2" d="M65.64 71h-16a5 5 0 0 1-5-5V50.52a5 5 0 0 1 .84-2.78l1.3-1.94a5 5 0 0 0 0-5.55l-1.31-2a5 5 0 0 1-.84-2.78V23.1a5 5 0 0 1 1.46-3.54L52.64 13h10l6.54 6.53a5 5 0 0 1 1.46 3.54v12.44a5 5 0 0 1-.84 2.78l-1.31 2a5 5 0 0 0 0 5.55l1.3 1.94a5 5 0 0 1 .84 2.78V66a5 5 0 0 1-4.99 5Z"/><path class="cls-3" d="M69.8 38.29a5 5 0 0 0 .84-2.78V23.1a5 5 0 0 0-1.46-3.54L62.64 13h-4l6.54 6.53a5 5 0 0 1 1.46 3.54v12.44a5 5 0 0 1-.84 2.78l-1.31 2a5 5 0 0 0 0 5.55l1.29 1.94a4.92 4.92 0 0 1 .85 2.78V66a5 5 0 0 1-5 5h4a5 5 0 0 0 5-5V50.52a5 5 0 0 0-.84-2.78L68.5 45.8a5 5 0 0 1 0-5.55Z"/><path class="cls-2" d="M69.8 38.29a5 5 0 0 0 .84-2.78V23.29a13.84 13.84 0 0 0-4.64 1c-2.92 1.14-6.4 1.51-8.84 0s-5.93-1.14-8.83 0a14.8 14.8 0 0 1-3.69.93v10.29a5 5 0 0 0 .84 2.78l1.31 2a5 5 0 0 1 0 5.55l-1.3 1.94a5 5 0 0 0-.84 2.78V66a5 5 0 0 0 5 5h16a5 5 0 0 0 5-5V50.52a5 5 0 0 0-.84-2.78L68.5 45.8a5 5 0 0 1 0-5.55Z"/><path class="cls-3" d="M69.8 38.29a5 5 0 0 0 .84-2.78V23.29a13.84 13.84 0 0 0-4.64 1l-.36.12v11.1a5 5 0 0 1-.84 2.78l-1.31 2a5 5 0 0 0 0 5.55l1.29 1.94a4.92 4.92 0 0 1 .85 2.78v1.72A12.79 12.79 0 0 1 52.85 65h-8.21v1a5 5 0 0 0 5 5h16a5 5 0 0 0 5-5V50.52a5 5 0 0 0-.84-2.78l-1.3-1.94a5 5 0 0 1 0-5.55Z"/><path class="cls-4" d="M65.64 71.78h-16A5.76 5.76 0 0 1 43.89 66V50.52a5.79 5.79 0 0 1 1-3.2l1.3-1.94a4.23 4.23 0 0 0 0-4.72l-1.3-2a5.68 5.68 0 0 1-1-3.19V23.1a5.79 5.79 0 0 1 1.68-4.1l6.54-6.53a.71.71 0 0 1 .53-.22h10a.71.71 0 0 1 .53.22L69.71 19a5.79 5.79 0 0 1 1.68 4.07v12.44a5.68 5.68 0 0 1-1 3.19l-1.3 2a4.23 4.23 0 0 0 0 4.72l1.3 1.94a5.79 5.79 0 0 1 1 3.2V66a5.76 5.76 0 0 1-5.75 5.78ZM53 13.78l-6.32 6.31a4.29 4.29 0 0 0-1.24 3v12.42a4.3 4.3 0 0 0 .71 2.36l1.31 2a5.74 5.74 0 0 1 0 6.39l-1.3 1.94a4.23 4.23 0 0 0-.72 2.36V66a4.26 4.26 0 0 0 4.25 4.25h16a4.26 4.26 0 0 0 4.2-4.25V50.52a4.23 4.23 0 0 0-.72-2.36l-1.3-1.94a5.74 5.74 0 0 1 0-6.39l1.31-2a4.3 4.3 0 0 0 .71-2.36V23.1a4.29 4.29 0 0 0-1.24-3l-6.32-6.31Z"/><path class="cls-3" d="M53.64 7h8a1 1 0 0 1 1 1v5h-10V8a1 1 0 0 1 1-1Z"/><path class="cls-2" d="M53.64 7h6v1a2 2 0 0 1-2 2h-5V8a1 1 0 0 1 1-1Z"/><path class="cls-4" d="M62.64 13.78h-10a.76.76 0 0 1-.75-.75V8a1.75 1.75 0 0 1 1.75-1.75h8A1.75 1.75 0 0 1 63.39 8v5a.76.76 0 0 1-.75.78Zm-9.25-1.5h8.5V8a.25.25 0 0 0-.25-.25h-8a.25.25 0 0 0-.25.25Z"/><circle class="cls-2" cx="37.64" cy="17.03" r="2"/><path class="cls-4" d="M37.64 19.78A2.75 2.75 0 1 1 40.39 17a2.75 2.75 0 0 1-2.75 2.78Zm0-4A1.25 1.25 0 1 0 38.89 17a1.25 1.25 0 0 0-1.25-1.22Z"/><circle class="cls-2" cx="44.64" cy="9.03" r="2"/><path class="cls-4" d="M44.64 11.78A2.75 2.75 0 1 1 47.39 9a2.75 2.75 0 0 1-2.75 2.78Zm0-4A1.25 1.25 0 1 0 45.89 9a1.25 1.25 0 0 0-1.25-1.22Z"/><circle class="cls-2" cx="11.63" cy="9.03" r="2"/><path class="cls-4" d="M11.63 11.78A2.75 2.75 0 1 1 14.38 9a2.76 2.76 0 0 1-2.75 2.78Zm0-4A1.25 1.25 0 1 0 12.88 9a1.25 1.25 0 0 0-1.25-1.22Z"/><circle class="cls-2" cx="26.64" cy="12.03" r="2"/><path class="cls-4" d="M26.64 14.78A2.75 2.75 0 1 1 29.39 12a2.75 2.75 0 0 1-2.75 2.78Zm0-4A1.25 1.25 0 1 0 27.89 12a1.25 1.25 0 0 0-1.25-1.22Z"/><circle class="cls-2" cx="8.63" cy="28.03" r="2"/><path class="cls-4" d="M8.63 30.78A2.75 2.75 0 1 1 11.38 28a2.76 2.76 0 0 1-2.75 2.78Zm0-4A1.25 1.25 0 1 0 9.88 28a1.25 1.25 0 0 0-1.25-1.22Z"/><circle class="cls-2" cx="15.63" cy="19.03" r="2"/><path class="cls-4" d="M15.63 21.78A2.75 2.75 0 1 1 18.38 19a2.76 2.76 0 0 1-2.75 2.78Zm0-4A1.25 1.25 0 1 0 16.88 19a1.26 1.26 0 0 0-1.25-1.22ZM65.64 71.78h-16A5.76 5.76 0 0 1 43.89 66V50.52a5.79 5.79 0 0 1 1-3.2l1.3-1.94a4.23 4.23 0 0 0 0-4.72l-1.3-2a5.68 5.68 0 0 1-1-3.19V25.22a.75.75 0 0 1 .67-.75 13.93 13.93 0 0 0 3.5-.88c3.61-1.42 7.16-1.39 9.5.06 1.94 1.2 5 1.18 8.16-.06a14.59 14.59 0 0 1 4.9-1.05.73.73 0 0 1 .54.22.72.72 0 0 1 .23.53v12.22a5.68 5.68 0 0 1-1 3.19l-1.3 2a4.23 4.23 0 0 0 0 4.72l1.3 1.94a5.79 5.79 0 0 1 1 3.2V66a5.76 5.76 0 0 1-5.75 5.78ZM45.39 25.87v9.64a4.3 4.3 0 0 0 .71 2.36l1.31 2a5.74 5.74 0 0 1 0 6.39l-1.3 1.94a4.23 4.23 0 0 0-.72 2.36V66a4.26 4.26 0 0 0 4.25 4.25h16A4.26 4.26 0 0 0 69.89 66V50.52a4.23 4.23 0 0 0-.72-2.36l-1.3-1.94a5.74 5.74 0 0 1 0-6.39l1.31-2a4.3 4.3 0 0 0 .71-2.36V24.09a14.08 14.08 0 0 0-3.62.89c-1.73.68-6.13 2-9.5-.06-1.94-1.2-5-1.18-8.17.06a15.23 15.23 0 0 1-3.21.89ZM69.8 38.29Z"/></g></g></svg>