<svg xmlns="http://www.w3.org/2000/svg" xmlns:xlink="http://www.w3.org/1999/xlink" viewBox="0 0 2144.98 1770.42"><defs><linearGradient id="linear-gradient" x1="1319.94" y1="853.48" x2="1760.94" y2="412.48" gradientUnits="userSpaceOnUse"><stop offset="0" stop-color="#b0d08c"/><stop offset=".22" stop-color="#a7ce7c"/><stop offset=".96" stop-color="#8dc74a"/></linearGradient><linearGradient id="linear-gradient-2" x1="1320.3" y1="853.84" x2="1761.29" y2="412.84" xlink:href="#linear-gradient"/><linearGradient id="linear-gradient-3" x1="594.94" y1="740.48" x2="996.74" y2="338.68" xlink:href="#linear-gradient"/><linearGradient id="linear-gradient-4" x1="595.3" y1="740.84" x2="997.09" y2="339.04" xlink:href="#linear-gradient"/><linearGradient id="linear-gradient-5" x1="966.94" y1="485.48" x2="1368.74" y2="83.68" gradientTransform="rotate(180 879.92 693.21)" xlink:href="#linear-gradient"/><linearGradient id="linear-gradient-6" x1="967.3" y1="485.84" x2="1369.1" y2="84.04" gradientTransform="rotate(180 879.92 693.21)" xlink:href="#linear-gradient"/><linearGradient id="linear-gradient-7" x1="1546.65" y1="1034.19" x2="1158.32" y2="1422.52" xlink:href="#linear-gradient"/><linearGradient id="linear-gradient-8" x1="1546.29" y1="1033.84" x2="1157.97" y2="1422.16" xlink:href="#linear-gradient"/><style>.cls-1{opacity:.35}.cls-2,.cls-4{fill:#fff}.cls-3{opacity:.45}.cls-4{fill-rule:evenodd}</style></defs><g id="Capa_2" data-name="Capa 2"><g id="Layer_1" data-name="Layer 1"><g class="cls-1"><path class="cls-2" d="m1655.98 303.96-535 535h-1.23l535-535h1.23zM1646.23 303.96l-535.01 535H1110l535.01-535h1.22zM1636.47 303.96l-534.99 535h-1.22l535-535h1.21zM1626.73 303.96l-535 535h-1.23l535-535h1.23zM1616.97 303.96l-535 535h-1.21l535-535h1.21zM1607.22 303.96l-535 535h-1.21l535-535h1.21zM1597.48 303.96l-535 535h-1.23l535-535h1.23zM1587.72 303.96l-535 535h-1.22l535.01-535h1.21zM1577.97 303.96l-534.99 535h-1.22l534.99-535h1.22zM1568.23 303.96l-535 535H1032l535-535h1.23z"/></g><g class="cls-1"><path class="cls-2" d="m1621.98 170.96-535 535h-1.23l535-535h1.23zM1612.23 170.96l-535.01 535H1076l535.01-535h1.22zM1602.47 170.96l-534.99 535h-1.22l535-535h1.21zM1592.73 170.96l-535 535h-1.23l535-535h1.23zM1582.97 170.96l-535 535h-1.21l535-535h1.21zM1573.22 170.96l-535 535h-1.21l535-535h1.21zM1563.48 170.96l-535 535h-1.23l535-535h1.23zM1553.72 170.96l-535 535h-1.22l535.01-535h1.21zM1543.97 170.96l-534.99 535h-1.22l534.99-535h1.22zM1534.23 170.96l-535 535H998l535-535h1.23z"/></g><g class="cls-1"><path class="cls-2" d="m1090.98 1042.96-535 535h-1.23l535-535h1.23zM1081.23 1042.96l-535.01 535H545l535.01-535h1.22zM1071.47 1042.96l-534.99 535h-1.22l535-535h1.21zM1061.73 1042.96l-535 535h-1.23l535-535h1.23zM1051.97 1042.96l-535 535h-1.21l535-535h1.21zM1042.22 1042.96l-535 535h-1.21l535-535h1.21zM1032.48 1042.96l-535 535h-1.23l535-535h1.23zM1022.72 1042.96l-535 535h-1.22l535.01-535h1.21zM1012.97 1042.96l-534.99 535h-1.22l534.99-535h1.22zM1003.23 1042.96l-535 535H467l535-535h1.23z"/></g><g class="cls-1"><path class="cls-2" d="m1056.98 909.96-535 535h-1.23l535-535h1.23zM1047.23 909.96l-535.01 535H511l535.01-535h1.22zM1037.47 909.96l-534.99 535h-1.22l535-535h1.21zM1027.73 909.96l-535 535h-1.23l535-535h1.23zM1017.97 909.96l-535 535h-1.21l535-535h1.21zM1008.22 909.96l-535 535h-1.21l535-535h1.21zM998.48 909.96l-535 535h-1.23l535-535h1.23zM988.72 909.96l-535 535h-1.22l535.01-535h1.21zM978.97 909.96l-534.99 535h-1.22l534.99-535h1.22zM969.23 909.96l-535 535H433l535-535h1.23z"/></g><g class="cls-3"><path class="cls-4" d="M1300.11 1095.78a2.78 2.78 0 1 0 0-3.94 2.77 2.77 0 0 0 0 3.94ZM1313.13 1082.78a2.78 2.78 0 1 0 0-3.93 2.79 2.79 0 0 0 0 3.93ZM1326.16 1069.78a2.78 2.78 0 1 0 0-3.93 2.78 2.78 0 0 0 0 3.93ZM1339.18 1056.78a2.78 2.78 0 1 0 0-3.93 2.79 2.79 0 0 0 0 3.93ZM1352.21 1043.79a2.79 2.79 0 1 0 0-3.94 2.79 2.79 0 0 0 0 3.94ZM1365.23 1030.79a2.78 2.78 0 1 0 0-3.94 2.79 2.79 0 0 0 0 3.94ZM1378.26 1017.79a2.78 2.78 0 1 0 0-3.94 2.77 2.77 0 0 0 0 3.94ZM1391.28 1004.79a2.78 2.78 0 1 0 0-3.94 2.78 2.78 0 0 0 0 3.94ZM1404.31 991.79a2.78 2.78 0 1 0 0-3.94 2.77 2.77 0 0 0 0 3.94ZM1417.33 978.79a2.78 2.78 0 1 0 0-3.93 2.79 2.79 0 0 0 0 3.93ZM1430.36 965.79a2.78 2.78 0 1 0 0-3.93 2.78 2.78 0 0 0 0 3.93ZM1443.38 952.79a2.78 2.78 0 1 0 0-3.93 2.79 2.79 0 0 0 0 3.93ZM1456.41 939.79a2.78 2.78 0 1 0 0-3.93 2.79 2.79 0 0 0 0 3.93ZM1469.44 926.8a2.78 2.78 0 1 0 0-3.94 2.78 2.78 0 0 0 0 3.94ZM1482.46 913.8a2.78 2.78 0 1 0 0-3.94 2.78 2.78 0 0 0 0 3.94ZM1495.49 900.8a2.78 2.78 0 1 0 0-3.94 2.77 2.77 0 0 0 0 3.94ZM1065.65 1329.76a2.78 2.78 0 1 0 0-3.94 2.78 2.78 0 0 0 0 3.94ZM1078.68 1316.76a2.78 2.78 0 1 0 0-3.94 2.77 2.77 0 0 0 0 3.94ZM1091.7 1303.76a2.78 2.78 0 1 0 0-3.94 2.78 2.78 0 0 0 0 3.94ZM1104.73 1290.76a2.78 2.78 0 1 0 0-3.93 2.78 2.78 0 0 0 0 3.93ZM1117.75 1277.76a2.78 2.78 0 1 0 0-3.93 2.79 2.79 0 0 0 0 3.93ZM1130.78 1264.76a2.78 2.78 0 1 0 0-3.93 2.78 2.78 0 0 0 0 3.93ZM1143.8 1251.77a2.79 2.79 0 1 0 0-3.94 2.8 2.8 0 0 0 0 3.94ZM1156.83 1238.77a2.78 2.78 0 1 0 0-3.94 2.79 2.79 0 0 0 0 3.94ZM1169.86 1225.77a2.78 2.78 0 1 0 0-3.94 2.77 2.77 0 0 0 0 3.94ZM1182.88 1212.77a2.78 2.78 0 1 0 0-3.94 2.78 2.78 0 0 0 0 3.94ZM1195.91 1199.77a2.78 2.78 0 1 0 0-3.94 2.77 2.77 0 0 0 0 3.94ZM1208.93 1186.77a2.78 2.78 0 1 0 0-3.93 2.79 2.79 0 0 0 0 3.93ZM1222 1173.77a2.78 2.78 0 1 0 0-3.93 2.78 2.78 0 0 0 0 3.93ZM1235 1160.77a2.78 2.78 0 1 0 0-3.93 2.79 2.79 0 0 0 0 3.93ZM1248 1147.77a2.78 2.78 0 1 0 0-3.93 2.78 2.78 0 0 0 0 3.93ZM1261 1134.78a2.79 2.79 0 1 0 0-3.94 2.79 2.79 0 0 0 0 3.94ZM1274.06 1121.78a2.78 2.78 0 1 0 0-3.94 2.77 2.77 0 0 0 0 3.94ZM1287.08 1108.78a2.78 2.78 0 1 0 0-3.94 2.78 2.78 0 0 0 0 3.94ZM844.23 1550.74a2.78 2.78 0 1 0 0-3.94 2.78 2.78 0 0 0 0 3.94ZM857.25 1537.74a2.78 2.78 0 1 0 0-3.94 2.78 2.78 0 0 0 0 3.94ZM870.28 1524.74a2.78 2.78 0 1 0 0-3.94 2.77 2.77 0 0 0 0 3.94ZM883.3 1511.74a2.78 2.78 0 1 0 0-3.94 2.78 2.78 0 0 0 0 3.94ZM896.33 1498.74a2.78 2.78 0 1 0 0-3.93 2.78 2.78 0 0 0 0 3.93ZM909.35 1485.74a2.78 2.78 0 1 0 0-3.93 2.79 2.79 0 0 0 0 3.93ZM922.38 1472.74a2.78 2.78 0 1 0 0-3.93 2.78 2.78 0 0 0 0 3.93ZM935.4 1459.75a2.79 2.79 0 1 0 0-3.94 2.8 2.8 0 0 0 0 3.94ZM948.43 1446.75a2.78 2.78 0 1 0 0-3.94 2.78 2.78 0 0 0 0 3.94ZM961.45 1433.75a2.78 2.78 0 1 0 0-3.94 2.78 2.78 0 0 0 0 3.94ZM974.48 1420.75a2.78 2.78 0 1 0 0-3.94 2.77 2.77 0 0 0 0 3.94ZM987.5 1407.75a2.78 2.78 0 1 0 0-3.94 2.78 2.78 0 0 0 0 3.94ZM1000.53 1394.75a2.78 2.78 0 1 0 0-3.93 2.78 2.78 0 0 0 0 3.93ZM1013.55 1381.75a2.78 2.78 0 1 0 0-3.93 2.79 2.79 0 0 0 0 3.93ZM1026.58 1368.75a2.78 2.78 0 1 0 0-3.93 2.78 2.78 0 0 0 0 3.93ZM1039.6 1355.75a2.78 2.78 0 1 0 0-3.93 2.79 2.79 0 0 0 0 3.93ZM1052.63 1342.76a2.78 2.78 0 1 0 0-3.94 2.78 2.78 0 0 0 0 3.94ZM1313.23 1108.9a2.78 2.78 0 1 0 0-3.93 2.78 2.78 0 0 0 0 3.93ZM1326.24 1095.89a2.78 2.78 0 1 0 0-3.93 2.78 2.78 0 0 0 0 3.93ZM1339.25 1082.88a2.79 2.79 0 1 0 0-3.94 2.78 2.78 0 0 0 0 3.94ZM1352.27 1069.87a2.78 2.78 0 1 0 0-3.94 2.79 2.79 0 0 0 0 3.94ZM1365.28 1056.86a2.78 2.78 0 1 0 0-3.94 2.79 2.79 0 0 0 0 3.94ZM1378.29 1043.84a2.78 2.78 0 1 0 0-3.93 2.78 2.78 0 0 0 0 3.93ZM1391.3 1030.83a2.78 2.78 0 1 0 0-3.93 2.78 2.78 0 0 0 0 3.93ZM1404.31 1017.82a2.79 2.79 0 1 0 0-3.94 2.78 2.78 0 0 0 0 3.94ZM1417.33 1004.81a2.78 2.78 0 1 0 0-3.94 2.79 2.79 0 0 0 0 3.94ZM1430.34 991.8a2.78 2.78 0 1 0 0-3.94 2.79 2.79 0 0 0 0 3.94ZM1443.35 978.78a2.78 2.78 0 1 0 0-3.93 2.78 2.78 0 0 0 0 3.93ZM1456.36 965.77a2.78 2.78 0 1 0 0-3.93 2.78 2.78 0 0 0 0 3.93ZM1469.37 952.76a2.79 2.79 0 1 0 0-3.94 2.78 2.78 0 0 0 0 3.94ZM1482.39 939.75a2.78 2.78 0 1 0 0-3.94 2.79 2.79 0 0 0 0 3.94ZM1495.4 926.74a2.78 2.78 0 1 0 0-3.94 2.79 2.79 0 0 0 0 3.94ZM1508.41 913.72a2.78 2.78 0 1 0 0-3.93 2.78 2.78 0 0 0 0 3.93ZM1521.42 900.71a2.78 2.78 0 1 0 0-3.93 2.78 2.78 0 0 0 0 3.93ZM1079 1343.12a2.79 2.79 0 1 0 0-3.94 2.78 2.78 0 0 0 0 3.94ZM1092 1330.11a2.78 2.78 0 1 0 0-3.94 2.79 2.79 0 0 0 0 3.94ZM1105 1317.1a2.78 2.78 0 1 0 0-3.94 2.79 2.79 0 0 0 0 3.94ZM1118.05 1304.08a2.78 2.78 0 1 0 0-3.93 2.78 2.78 0 0 0 0 3.93ZM1131.06 1291.07a2.78 2.78 0 1 0 0-3.93 2.78 2.78 0 0 0 0 3.93ZM1144.07 1278.06a2.79 2.79 0 1 0 0-3.94 2.78 2.78 0 0 0 0 3.94ZM1157.09 1265.05a2.78 2.78 0 1 0 0-3.94 2.79 2.79 0 0 0 0 3.94ZM1170.1 1252a2.78 2.78 0 1 0 0-3.94 2.79 2.79 0 0 0 0 3.94ZM1183.11 1239a2.78 2.78 0 1 0 0-3.93 2.78 2.78 0 0 0 0 3.93ZM1196.12 1226a2.78 2.78 0 1 0 0-3.93 2.78 2.78 0 0 0 0 3.93ZM1209.13 1213a2.79 2.79 0 1 0 0-3.94 2.78 2.78 0 0 0 0 3.94ZM1222.15 1200a2.78 2.78 0 1 0 0-3.94 2.79 2.79 0 0 0 0 3.94ZM1235.16 1187a2.78 2.78 0 1 0 0-3.94 2.79 2.79 0 0 0 0 3.94ZM1248.17 1174a2.78 2.78 0 1 0 0-3.93 2.78 2.78 0 0 0 0 3.93ZM1261.18 1161a2.78 2.78 0 1 0 0-3.93 2.78 2.78 0 0 0 0 3.93ZM1274.19 1147.94a2.79 2.79 0 1 0 0-3.94 2.78 2.78 0 0 0 0 3.94ZM1287.21 1134.93a2.78 2.78 0 1 0 0-3.94 2.79 2.79 0 0 0 0 3.94ZM1300.22 1121.92a2.78 2.78 0 1 0 0-3.94 2.79 2.79 0 0 0 0 3.94ZM844.8 1577.33a2.78 2.78 0 1 0 0-3.93 2.77 2.77 0 0 0 0 3.93ZM857.81 1564.32a2.78 2.78 0 1 0 0-3.93 2.78 2.78 0 0 0 0 3.93ZM870.82 1551.31a2.78 2.78 0 1 0 0-3.93 2.78 2.78 0 0 0 0 3.93ZM883.83 1538.3a2.79 2.79 0 1 0 0-3.94 2.78 2.78 0 0 0 0 3.94ZM896.85 1525.29a2.78 2.78 0 1 0 0-3.94 2.79 2.79 0 0 0 0 3.94ZM909.86 1512.27a2.78 2.78 0 1 0 0-3.93 2.78 2.78 0 0 0 0 3.93ZM922.87 1499.26a2.78 2.78 0 1 0 0-3.93 2.78 2.78 0 0 0 0 3.93ZM935.88 1486.25a2.78 2.78 0 1 0 0-3.93 2.78 2.78 0 0 0 0 3.93ZM948.89 1473.24a2.79 2.79 0 1 0 0-3.94 2.78 2.78 0 0 0 0 3.94ZM961.91 1460.23a2.78 2.78 0 1 0 0-3.94 2.79 2.79 0 0 0 0 3.94ZM974.92 1447.22a2.78 2.78 0 1 0 0-3.94 2.79 2.79 0 0 0 0 3.94ZM987.93 1434.2a2.78 2.78 0 1 0 0-3.93 2.78 2.78 0 0 0 0 3.93ZM1000.94 1421.19a2.78 2.78 0 1 0 0-3.93 2.78 2.78 0 0 0 0 3.93ZM1014 1408.18a2.79 2.79 0 1 0 0-3.94 2.78 2.78 0 0 0 0 3.94ZM1027 1395.17a2.78 2.78 0 1 0 0-3.94 2.79 2.79 0 0 0 0 3.94ZM1040 1382.15a2.78 2.78 0 1 0 0-3.93 2.78 2.78 0 0 0 0 3.93ZM1053 1369.14a2.78 2.78 0 1 0 0-3.93 2.78 2.78 0 0 0 0 3.93ZM1066 1356.13a2.78 2.78 0 1 0 0-3.93 2.78 2.78 0 0 0 0 3.93ZM1326.47 1122.14a2.78 2.78 0 1 0 0-3.93 2.78 2.78 0 0 0 0 3.93ZM1339.48 1109.13a2.78 2.78 0 1 0 0-3.93 2.78 2.78 0 0 0 0 3.93ZM1352.5 1096.12a2.78 2.78 0 1 0 3.93-3.94 2.78 2.78 0 1 0-3.93 3.94ZM1365.51 1083.11a2.78 2.78 0 1 0 0-3.94 2.79 2.79 0 0 0 0 3.94ZM1378.52 1070.1a2.78 2.78 0 1 0 0-3.94 2.79 2.79 0 0 0 0 3.94ZM1391.53 1057.08a2.78 2.78 0 1 0 0-3.93 2.78 2.78 0 0 0 0 3.93ZM1404.54 1044.07a2.78 2.78 0 1 0 0-3.93 2.78 2.78 0 0 0 0 3.93ZM1417.55 1031.06a2.79 2.79 0 1 0 0-3.94 2.78 2.78 0 0 0 0 3.94ZM1430.57 1018.05a2.78 2.78 0 1 0 0-3.94 2.79 2.79 0 0 0 0 3.94ZM1443.58 1005a2.78 2.78 0 1 0 0-3.94 2.79 2.79 0 0 0 0 3.94ZM1456.59 992a2.78 2.78 0 1 0 0-3.93 2.78 2.78 0 0 0 0 3.93ZM1469.6 979a2.78 2.78 0 1 0 0-3.93 2.78 2.78 0 0 0 0 3.93ZM1482.62 966a2.78 2.78 0 1 0 3.93-3.94 2.78 2.78 0 1 0-3.93 3.94ZM1495.63 953a2.78 2.78 0 1 0 0-3.94 2.79 2.79 0 0 0 0 3.94ZM1508.64 940a2.78 2.78 0 1 0 0-3.94 2.79 2.79 0 0 0 0 3.94ZM1521.65 927a2.78 2.78 0 1 0 0-3.93 2.78 2.78 0 0 0 0 3.93ZM1534.66 914a2.78 2.78 0 1 0 0-3.93 2.78 2.78 0 0 0 0 3.93ZM1547.67 900.94a2.79 2.79 0 1 0 0-3.94 2.78 2.78 0 0 0 0 3.94ZM1092.26 1356.36a2.78 2.78 0 1 0 0-3.94 2.77 2.77 0 0 0 0 3.94ZM1105.27 1343.35a2.78 2.78 0 1 0 0-3.94 2.79 2.79 0 0 0 0 3.94ZM1118.28 1330.34a2.78 2.78 0 1 0 0-3.94 2.79 2.79 0 0 0 0 3.94ZM1131.29 1317.32a2.78 2.78 0 1 0 0-3.93 2.78 2.78 0 0 0 0 3.93ZM1144.3 1304.31a2.78 2.78 0 1 0 0-3.93 2.78 2.78 0 0 0 0 3.93ZM1157.32 1291.3a2.78 2.78 0 1 0 0-3.94 2.77 2.77 0 0 0 0 3.94ZM1170.33 1278.29a2.78 2.78 0 1 0 0-3.94 2.79 2.79 0 0 0 0 3.94ZM1183.34 1265.28a2.78 2.78 0 1 0 0-3.94 2.79 2.79 0 0 0 0 3.94ZM1196.35 1252.26a2.78 2.78 0 1 0 0-3.93 2.78 2.78 0 0 0 0 3.93ZM1209.36 1239.25a2.78 2.78 0 1 0 0-3.93 2.78 2.78 0 0 0 0 3.93ZM1222.38 1226.24a2.78 2.78 0 1 0 3.93-3.94 2.78 2.78 0 1 0-3.93 3.94ZM1235.39 1213.23a2.78 2.78 0 1 0 0-3.94 2.79 2.79 0 0 0 0 3.94ZM1248.4 1200.22a2.78 2.78 0 1 0 0-3.94 2.79 2.79 0 0 0 0 3.94ZM1261.41 1187.2a2.78 2.78 0 1 0 0-3.93 2.78 2.78 0 0 0 0 3.93ZM1274.42 1174.19a2.78 2.78 0 1 0 0-3.93 2.78 2.78 0 0 0 0 3.93ZM1287.44 1161.18a2.78 2.78 0 1 0 3.93-3.94 2.78 2.78 0 1 0-3.93 3.94ZM1300.45 1148.17a2.78 2.78 0 1 0 0-3.94 2.79 2.79 0 0 0 0 3.94ZM1313.46 1135.16a2.78 2.78 0 1 0 0-3.94 2.79 2.79 0 0 0 0 3.94ZM871.05 1577.56a2.78 2.78 0 1 0 0-3.93 2.78 2.78 0 0 0 0 3.93ZM884.06 1564.55a2.78 2.78 0 1 0 0-3.93 2.78 2.78 0 0 0 0 3.93ZM897.08 1551.54a2.78 2.78 0 1 0 0-3.94 2.77 2.77 0 0 0 0 3.94ZM910.09 1538.53a2.78 2.78 0 1 0 0-3.94 2.79 2.79 0 0 0 0 3.94ZM923.1 1525.52a2.78 2.78 0 1 0 0-3.94 2.79 2.79 0 0 0 0 3.94ZM936.11 1512.5a2.78 2.78 0 1 0 0-3.93 2.78 2.78 0 0 0 0 3.93ZM949.12 1499.49a2.78 2.78 0 1 0 0-3.93 2.78 2.78 0 0 0 0 3.93ZM962.14 1486.48a2.78 2.78 0 1 0 0-3.94 2.77 2.77 0 0 0 0 3.94ZM975.15 1473.47a2.78 2.78 0 1 0 0-3.94 2.79 2.79 0 0 0 0 3.94ZM988.16 1460.46a2.78 2.78 0 1 0 0-3.94 2.79 2.79 0 0 0 0 3.94ZM1001.17 1447.44a2.78 2.78 0 1 0 0-3.93 2.78 2.78 0 0 0 0 3.93ZM1014.18 1434.43a2.78 2.78 0 1 0 0-3.93 2.78 2.78 0 0 0 0 3.93ZM1027.2 1421.42a2.78 2.78 0 1 0 0-3.94 2.77 2.77 0 0 0 0 3.94ZM1040.21 1408.41a2.78 2.78 0 1 0 0-3.94 2.79 2.79 0 0 0 0 3.94ZM1053.22 1395.4a2.78 2.78 0 1 0 0-3.94 2.79 2.79 0 0 0 0 3.94ZM1066.23 1382.38a2.78 2.78 0 1 0 0-3.93 2.78 2.78 0 0 0 0 3.93ZM1079.24 1369.37a2.78 2.78 0 1 0 0-3.93 2.78 2.78 0 0 0 0 3.93Z"/></g><g class="cls-3"><path class="cls-4" d="M811.73 784.56a2.78 2.78 0 1 0 0 3.94 2.78 2.78 0 0 0 0-3.94ZM798.7 797.56a2.78 2.78 0 1 0 0 3.93 2.78 2.78 0 0 0 0-3.93ZM785.68 810.56a2.78 2.78 0 1 0 0 3.93 2.79 2.79 0 0 0 0-3.93ZM772.65 823.56a2.78 2.78 0 1 0 0 3.93 2.78 2.78 0 0 0 0-3.93ZM759.63 836.55a2.79 2.79 0 1 0 0 3.94 2.79 2.79 0 0 0 0-3.94ZM746.6 849.55a2.78 2.78 0 1 0 0 3.94 2.78 2.78 0 0 0 0-3.94ZM733.58 862.55a2.78 2.78 0 1 0 0 3.94 2.78 2.78 0 0 0 0-3.94ZM720.55 875.55a2.78 2.78 0 1 0 0 3.94 2.77 2.77 0 0 0 0-3.94ZM707.53 888.55a2.78 2.78 0 1 0 0 3.94 2.78 2.78 0 0 0 0-3.94ZM694.5 901.55a2.78 2.78 0 1 0 0 3.93 2.78 2.78 0 0 0 0-3.93ZM681.48 914.55a2.78 2.78 0 1 0 0 3.93 2.79 2.79 0 0 0 0-3.93ZM668.45 927.55a2.78 2.78 0 1 0 0 3.93 2.78 2.78 0 0 0 0-3.93ZM655.43 940.54a2.79 2.79 0 1 0 0 3.94 2.8 2.8 0 0 0 0-3.94ZM642.4 953.54a2.78 2.78 0 1 0 0 3.94 2.78 2.78 0 0 0 0-3.94ZM629.38 966.54a2.78 2.78 0 1 0 0 3.94 2.78 2.78 0 0 0 0-3.94ZM616.35 979.54a2.78 2.78 0 1 0 0 3.94 2.77 2.77 0 0 0 0-3.94ZM1046.18 550.58a2.78 2.78 0 1 0 0 3.94 2.77 2.77 0 0 0 0-3.94ZM1033.16 563.58a2.78 2.78 0 1 0 0 3.94 2.78 2.78 0 0 0 0-3.94ZM1020.13 576.58a2.78 2.78 0 1 0 0 3.94 2.77 2.77 0 0 0 0-3.94ZM1007.11 589.58a2.78 2.78 0 1 0 0 3.93 2.79 2.79 0 0 0 0-3.93ZM994.08 602.58a2.78 2.78 0 1 0 0 3.93 2.78 2.78 0 0 0 0-3.93ZM981.06 615.58a2.78 2.78 0 1 0 0 3.93 2.79 2.79 0 0 0 0-3.93ZM968 628.57a2.79 2.79 0 1 0 0 3.94 2.79 2.79 0 0 0 0-3.94ZM955 641.57a2.78 2.78 0 1 0 0 3.94 2.79 2.79 0 0 0 0-3.94ZM942 654.57a2.78 2.78 0 1 0 0 3.94 2.77 2.77 0 0 0 0-3.94ZM929 667.57a2.78 2.78 0 1 0 0 3.94 2.78 2.78 0 0 0 0-3.94ZM915.93 680.57a2.78 2.78 0 1 0 0 3.94 2.77 2.77 0 0 0 0-3.94ZM902.91 693.57a2.78 2.78 0 1 0 0 3.93 2.79 2.79 0 0 0 0-3.93ZM889.88 706.57a2.78 2.78 0 1 0 0 3.93 2.78 2.78 0 0 0 0-3.93ZM876.86 719.57a2.78 2.78 0 1 0 0 3.93 2.79 2.79 0 0 0 0-3.93ZM863.83 732.56a2.79 2.79 0 1 0 0 3.94 2.8 2.8 0 0 0 0-3.94ZM850.8 745.56a2.78 2.78 0 1 0 0 3.94 2.78 2.78 0 0 0 0-3.94ZM837.78 758.56a2.78 2.78 0 1 0 0 3.94 2.78 2.78 0 0 0 0-3.94ZM824.75 771.56a2.78 2.78 0 1 0 0 3.94 2.77 2.77 0 0 0 0-3.94ZM1267.61 329.6a2.78 2.78 0 1 0 0 3.94 2.78 2.78 0 0 0 0-3.94ZM1254.59 342.6a2.78 2.78 0 1 0 0 3.94 2.78 2.78 0 0 0 0-3.94ZM1241.56 355.6a2.78 2.78 0 1 0 0 3.94 2.77 2.77 0 0 0 0-3.94ZM1228.54 368.6a2.78 2.78 0 1 0 0 3.94 2.78 2.78 0 0 0 0-3.94ZM1215.51 381.6a2.78 2.78 0 1 0 0 3.93 2.78 2.78 0 0 0 0-3.93ZM1202.49 394.6a2.78 2.78 0 1 0 0 3.93 2.79 2.79 0 0 0 0-3.93ZM1189.46 407.6a2.78 2.78 0 1 0 0 3.93 2.78 2.78 0 0 0 0-3.93ZM1176.44 420.59a2.79 2.79 0 1 0 0 3.94 2.8 2.8 0 0 0 0-3.94ZM1163.41 433.59a2.78 2.78 0 1 0 0 3.94 2.78 2.78 0 0 0 0-3.94ZM1150.39 446.59a2.78 2.78 0 1 0 0 3.94 2.78 2.78 0 0 0 0-3.94ZM1137.36 459.59a2.78 2.78 0 1 0 0 3.94 2.78 2.78 0 0 0 0-3.94ZM1124.33 472.59a2.78 2.78 0 1 0 0 3.94 2.77 2.77 0 0 0 0-3.94ZM1111.31 485.59a2.78 2.78 0 1 0 0 3.93 2.79 2.79 0 0 0 0-3.93ZM1098.28 498.59a2.78 2.78 0 1 0 0 3.93 2.78 2.78 0 0 0 0-3.93ZM1085.26 511.59a2.78 2.78 0 1 0 0 3.93 2.79 2.79 0 0 0 0-3.93ZM1072.23 524.58a2.79 2.79 0 1 0 0 3.94 2.79 2.79 0 0 0 0-3.94ZM1059.21 537.58a2.78 2.78 0 1 0 0 3.94 2.79 2.79 0 0 0 0-3.94ZM798.61 771.44a2.78 2.78 0 1 0 0 3.93 2.78 2.78 0 0 0 0-3.93ZM785.59 784.45a2.78 2.78 0 1 0 0 3.93 2.77 2.77 0 0 0 0-3.93ZM772.58 797.46a2.78 2.78 0 1 0 0 3.94 2.77 2.77 0 0 0 0-3.94ZM759.57 810.47a2.78 2.78 0 1 0 0 3.94 2.79 2.79 0 0 0 0-3.94ZM746.56 823.48a2.79 2.79 0 1 0 0 3.94 2.8 2.8 0 0 0 0-3.94ZM733.55 836.5a2.78 2.78 0 1 0 0 3.93 2.78 2.78 0 0 0 0-3.93ZM720.53 849.51a2.78 2.78 0 1 0 0 3.93 2.77 2.77 0 0 0 0-3.93ZM707.52 862.52a2.78 2.78 0 1 0 0 3.94 2.77 2.77 0 0 0 0-3.94ZM694.51 875.53a2.78 2.78 0 1 0 0 3.94 2.8 2.8 0 0 0 0-3.94ZM681.5 888.54a2.79 2.79 0 1 0 0 3.94 2.8 2.8 0 0 0 0-3.94ZM668.49 901.56a2.78 2.78 0 1 0 0 3.93 2.78 2.78 0 0 0 0-3.93ZM655.47 914.57a2.78 2.78 0 1 0 0 3.93 2.77 2.77 0 0 0 0-3.93ZM642.46 927.58a2.78 2.78 0 1 0 0 3.94 2.77 2.77 0 0 0 0-3.94ZM629.45 940.59a2.78 2.78 0 1 0 0 3.94 2.79 2.79 0 0 0 0-3.94ZM616.44 953.6a2.79 2.79 0 1 0 0 3.94 2.8 2.8 0 0 0 0-3.94ZM603.43 966.62a2.78 2.78 0 1 0 0 3.93 2.78 2.78 0 0 0 0-3.93ZM590.41 979.63a2.78 2.78 0 1 0 0 3.93 2.77 2.77 0 0 0 0-3.93ZM1032.82 537.22a2.78 2.78 0 1 0 0 3.94 2.77 2.77 0 0 0 0-3.94ZM1019.81 550.23a2.78 2.78 0 1 0 0 3.94 2.8 2.8 0 0 0 0-3.94ZM1006.8 563.24a2.79 2.79 0 1 0 0 3.94 2.8 2.8 0 0 0 0-3.94ZM993.79 576.26a2.78 2.78 0 1 0 0 3.93 2.78 2.78 0 0 0 0-3.93ZM980.77 589.27a2.78 2.78 0 1 0 0 3.93 2.77 2.77 0 0 0 0-3.93ZM967.76 602.28a2.78 2.78 0 1 0 0 3.94 2.77 2.77 0 0 0 0-3.94ZM954.75 615.29a2.78 2.78 0 1 0 0 3.94 2.8 2.8 0 0 0 0-3.94ZM941.74 628.3a2.79 2.79 0 1 0 0 3.94 2.8 2.8 0 0 0 0-3.94ZM928.73 641.32a2.78 2.78 0 1 0 0 3.93 2.78 2.78 0 0 0 0-3.93ZM915.71 654.33a2.78 2.78 0 1 0 0 3.93 2.77 2.77 0 0 0 0-3.93ZM902.7 667.34a2.78 2.78 0 1 0 0 3.94 2.77 2.77 0 0 0 0-3.94ZM889.69 680.35a2.79 2.79 0 1 0 0 3.94 2.8 2.8 0 0 0 0-3.94ZM876.68 693.36a2.79 2.79 0 1 0 0 3.94 2.8 2.8 0 0 0 0-3.94ZM863.67 706.38a2.78 2.78 0 1 0 0 3.93 2.78 2.78 0 0 0 0-3.93ZM850.65 719.39a2.78 2.78 0 1 0 0 3.93 2.77 2.77 0 0 0 0-3.93ZM837.64 732.4a2.78 2.78 0 1 0 0 3.94 2.77 2.77 0 0 0 0-3.94ZM824.63 745.41a2.78 2.78 0 1 0 0 3.94 2.8 2.8 0 0 0 0-3.94ZM811.62 758.42a2.79 2.79 0 1 0 0 3.94 2.8 2.8 0 0 0 0-3.94ZM1267 303a2.79 2.79 0 1 0 0 3.94 2.8 2.8 0 0 0 0-3.94ZM1254 316a2.78 2.78 0 1 0 0 3.93 2.78 2.78 0 0 0 0-3.93ZM1241 329a2.78 2.78 0 1 0 0 3.93 2.77 2.77 0 0 0 0-3.93ZM1228 342a2.78 2.78 0 1 0 0 3.94 2.77 2.77 0 0 0 0-3.94ZM1215 355.05a2.79 2.79 0 1 0 0 3.94 2.8 2.8 0 0 0 0-3.94ZM1202 368.06a2.79 2.79 0 1 0 0 3.94 2.8 2.8 0 0 0 0-3.94ZM1189 381.08a2.78 2.78 0 1 0 0 3.93 2.78 2.78 0 0 0 0-3.93ZM1176 394.09a2.78 2.78 0 1 0 0 3.93 2.77 2.77 0 0 0 0-3.93ZM1162.94 407.1a2.78 2.78 0 1 0 0 3.94 2.77 2.77 0 0 0 0-3.94ZM1149.93 420.11a2.79 2.79 0 1 0 0 3.94 2.8 2.8 0 0 0 0-3.94ZM1136.92 433.12a2.79 2.79 0 1 0 0 3.94 2.8 2.8 0 0 0 0-3.94ZM1123.91 446.14a2.78 2.78 0 1 0 0 3.93 2.78 2.78 0 0 0 0-3.93ZM1110.89 459.15a2.78 2.78 0 1 0 0 3.93 2.77 2.77 0 0 0 0-3.93ZM1097.88 472.16a2.78 2.78 0 1 0 0 3.94 2.77 2.77 0 0 0 0-3.94ZM1084.87 485.17a2.79 2.79 0 1 0 0 3.94 2.8 2.8 0 0 0 0-3.94ZM1071.86 498.18a2.79 2.79 0 1 0 0 3.94 2.8 2.8 0 0 0 0-3.94ZM1058.85 511.2a2.78 2.78 0 1 0 0 3.93 2.78 2.78 0 0 0 0-3.93ZM1045.83 524.21a2.78 2.78 0 1 0 0 3.93 2.77 2.77 0 0 0 0-3.93ZM785.37 758.2a2.78 2.78 0 1 0 0 3.93 2.78 2.78 0 0 0 0-3.93ZM772.35 771.21a2.78 2.78 0 1 0 0 3.93 2.77 2.77 0 0 0 0-3.93ZM759.34 784.22a2.78 2.78 0 1 0 0 3.94 2.77 2.77 0 0 0 0-3.94ZM746.33 797.23a2.79 2.79 0 1 0 0 3.94 2.8 2.8 0 0 0 0-3.94ZM733.32 810.24a2.79 2.79 0 1 0 0 3.94 2.8 2.8 0 0 0 0-3.94ZM720.31 823.26a2.78 2.78 0 1 0 0 3.93 2.78 2.78 0 0 0 0-3.93ZM707.29 836.27a2.78 2.78 0 1 0 0 3.93 2.77 2.77 0 0 0 0-3.93ZM694.28 849.28a2.78 2.78 0 1 0 0 3.94 2.77 2.77 0 0 0 0-3.94ZM681.27 862.29a2.79 2.79 0 1 0 0 3.94 2.8 2.8 0 0 0 0-3.94ZM668.26 875.3a2.79 2.79 0 1 0 0 3.94 2.8 2.8 0 0 0 0-3.94ZM655.25 888.32a2.78 2.78 0 1 0 0 3.93 2.78 2.78 0 0 0 0-3.93ZM642.23 901.33a2.78 2.78 0 1 0 0 3.93 2.77 2.77 0 0 0 0-3.93ZM629.22 914.34a2.78 2.78 0 1 0 0 3.94 2.77 2.77 0 0 0 0-3.94ZM616.21 927.35a2.79 2.79 0 1 0 0 3.94 2.8 2.8 0 0 0 0-3.94ZM603.2 940.36a2.79 2.79 0 1 0 0 3.94 2.8 2.8 0 0 0 0-3.94ZM590.19 953.38a2.78 2.78 0 1 0 0 3.93 2.78 2.78 0 0 0 0-3.93ZM577.17 966.39a2.78 2.78 0 1 0 0 3.93 2.77 2.77 0 0 0 0-3.93ZM564.16 979.4a2.78 2.78 0 1 0 0 3.94 2.77 2.77 0 0 0 0-3.94ZM1019.58 524a2.78 2.78 0 1 0 0 3.94 2.77 2.77 0 0 0 0-3.94ZM1006.57 537a2.79 2.79 0 1 0 0 3.94 2.8 2.8 0 0 0 0-3.94ZM993.56 550a2.79 2.79 0 1 0 0 3.94 2.8 2.8 0 0 0 0-3.94ZM980.55 563a2.78 2.78 0 1 0 0 3.93 2.78 2.78 0 0 0 0-3.93ZM967.53 576a2.78 2.78 0 1 0 0 3.93 2.77 2.77 0 0 0 0-3.93ZM954.52 589a2.78 2.78 0 1 0 0 3.94 2.77 2.77 0 0 0 0-3.94ZM941.51 602.05a2.79 2.79 0 1 0 0 3.94 2.8 2.8 0 0 0 0-3.94ZM928.5 615.06a2.79 2.79 0 1 0 0 3.94 2.8 2.8 0 0 0 0-3.94ZM915.49 628.08a2.78 2.78 0 1 0 0 3.93 2.78 2.78 0 0 0 0-3.93ZM902.47 641.09a2.78 2.78 0 1 0 0 3.93 2.77 2.77 0 0 0 0-3.93ZM889.46 654.1a2.78 2.78 0 1 0 0 3.94 2.77 2.77 0 0 0 0-3.94ZM876.45 667.11a2.79 2.79 0 1 0 0 3.94 2.8 2.8 0 0 0 0-3.94ZM863.44 680.12a2.79 2.79 0 1 0 0 3.94 2.8 2.8 0 0 0 0-3.94ZM850.43 693.14a2.78 2.78 0 1 0 0 3.93 2.78 2.78 0 0 0 0-3.93ZM837.41 706.15a2.78 2.78 0 1 0 0 3.93 2.77 2.77 0 0 0 0-3.93ZM824.4 719.16a2.78 2.78 0 1 0 0 3.94 2.77 2.77 0 0 0 0-3.94ZM811.39 732.17a2.79 2.79 0 1 0 0 3.94 2.8 2.8 0 0 0 0-3.94ZM798.38 745.18a2.79 2.79 0 1 0 0 3.94 2.8 2.8 0 0 0 0-3.94ZM1240.79 302.78a2.78 2.78 0 1 0 0 3.93 2.78 2.78 0 0 0 0-3.93ZM1227.77 315.79a2.78 2.78 0 1 0 0 3.93 2.77 2.77 0 0 0 0-3.93ZM1214.76 328.8a2.78 2.78 0 1 0 0 3.94 2.77 2.77 0 0 0 0-3.94ZM1201.75 341.81a2.79 2.79 0 1 0 0 3.94 2.8 2.8 0 0 0 0-3.94ZM1188.74 354.82a2.79 2.79 0 1 0 0 3.94 2.8 2.8 0 0 0 0-3.94ZM1175.73 367.84a2.78 2.78 0 1 0 0 3.93 2.78 2.78 0 0 0 0-3.93ZM1162.71 380.85a2.78 2.78 0 1 0 0 3.93 2.77 2.77 0 0 0 0-3.93ZM1149.7 393.86a2.78 2.78 0 1 0 0 3.94 2.77 2.77 0 0 0 0-3.94ZM1136.69 406.87a2.79 2.79 0 1 0 0 3.94 2.8 2.8 0 0 0 0-3.94ZM1123.68 419.88a2.79 2.79 0 1 0 0 3.94 2.8 2.8 0 0 0 0-3.94ZM1110.67 432.9a2.78 2.78 0 1 0 0 3.93 2.78 2.78 0 0 0 0-3.93ZM1097.65 445.91a2.78 2.78 0 1 0 0 3.93 2.77 2.77 0 0 0 0-3.93ZM1084.64 458.92a2.78 2.78 0 1 0 0 3.94 2.77 2.77 0 0 0 0-3.94ZM1071.63 471.93a2.79 2.79 0 1 0 0 3.94 2.8 2.8 0 0 0 0-3.94ZM1058.62 484.94a2.79 2.79 0 1 0 0 3.94 2.8 2.8 0 0 0 0-3.94ZM1045.61 498a2.78 2.78 0 1 0 0 3.93 2.78 2.78 0 0 0 0-3.93ZM1032.59 511a2.78 2.78 0 1 0 0 3.93 2.77 2.77 0 0 0 0-3.93Z"/></g><path d="M1348.44 825a1.51 1.51 0 0 1 0-2.12l718.42-718.42a1.5 1.5 0 0 1 2.12 2.12L1350.56 825a1.49 1.49 0 0 1-2.12 0Z" style="fill:url(#linear-gradient)"/><path d="M1314.5 859.63a18.5 18.5 0 1 1 26.16 0 18.52 18.52 0 0 1-26.16 0Zm24-24a15.5 15.5 0 1 0 0 21.92 15.51 15.51 0 0 0 .04-21.96Z" style="fill:url(#linear-gradient-2)"/><path d="M614.44 721a1.51 1.51 0 0 1 0-2.12L1332.86.44a1.5 1.5 0 1 1 2.14 2.12L616.56 721a1.49 1.49 0 0 1-2.12 0Z" style="fill:url(#linear-gradient-3)"/><path d="M580.5 755.63a18.5 18.5 0 1 1 26.16 0 18.52 18.52 0 0 1-26.16 0Zm24-24a15.5 15.5 0 1 0 0 21.92 15.51 15.51 0 0 0 .04-21.96Z" style="fill:url(#linear-gradient-4)"/><path d="M773.4 920.44a1.51 1.51 0 0 1 0 2.12L55 1641a1.5 1.5 0 1 1-2.12-2.12l718.4-718.44a1.51 1.51 0 0 1 2.12 0Z" style="fill:url(#linear-gradient-5)"/><path d="M807.34 885.79a18.5 18.5 0 1 1-26.16 0 18.54 18.54 0 0 1 26.16 0Zm-24 24a15.5 15.5 0 1 0 0-21.92 15.51 15.51 0 0 0-.04 21.96Z" style="fill:url(#linear-gradient-6)"/><path d="M1531.4 1049.44a1.51 1.51 0 0 1 0 2.12L813 1770a1.5 1.5 0 1 1-2.12-2.12l718.42-718.42a1.51 1.51 0 0 1 2.1-.02Z" style="fill:url(#linear-gradient-7)"/><path d="M1565.34 1014.79a18.5 18.5 0 1 1-26.16 0 18.54 18.54 0 0 1 26.16 0Zm-24 24a15.5 15.5 0 1 0 0-21.92 15.51 15.51 0 0 0-.04 21.96Z" style="fill:url(#linear-gradient-8)"/><g class="cls-1"><path class="cls-2" d="m623.98 609.96-535 535h-1.23l535-535h1.23zM614.23 609.96l-535.01 535H78l535.01-535h1.22zM604.47 609.96l-534.99 535h-1.22l535-535h1.21zM594.73 609.96l-535 535H58.5l535-535h1.23zM584.97 609.96l-535 535h-1.21l535-535h1.21zM575.22 609.96l-535 535h-1.21l535-535h1.21zM565.48 609.96l-535 535h-1.23l535-535h1.23zM555.72 609.96l-535 535H19.5l535.01-535h1.21zM545.97 609.96l-534.99 535H9.76l534.99-535h1.22zM536.23 609.96l-535 535H0l535-535h1.23z"/></g><g class="cls-1"><path class="cls-2" d="m2144.98 303.96-535 535h-1.23l535-535h1.23zM2135.23 303.96l-535.01 535H1599l535.01-535h1.22zM2125.47 303.96l-534.99 535h-1.22l535-535h1.21zM2115.73 303.96l-535 535h-1.23l535-535h1.23zM2105.97 303.96l-535 535h-1.21l535-535h1.21zM2096.22 303.96l-535 535h-1.21l535-535h1.21zM2086.48 303.96l-535 535h-1.23l535-535h1.23zM2076.72 303.96l-535 535h-1.22l535.01-535h1.21zM2066.97 303.96l-534.99 535h-1.22l534.99-535h1.22zM2057.23 303.96l-535 535H1521l535-535h1.23z"/></g></g></g></svg>