<svg xmlns="http://www.w3.org/2000/svg" viewBox="0 0 272.16 272.14"><defs><style>.cls-1{fill:#f3da8f}.cls-2{fill:#db974a}.cls-4{fill:#ca68a0}.cls-5{fill:#edeef0}.cls-8{fill:#feee00}.cls-9{fill:#444242}</style></defs><g id="Capa_2" data-name="Capa 2"><g id="Layer_1" data-name="Layer 1"><path class="cls-1" d="m134.43 217.72 51.18-.29 5 18.15s-87.11 51.16-92.87-9.65Z"/><path class="cls-1" d="M185.61 217.43s3-13.48 12.85-18.85-.19 8.47-.19 8.47 8.36-8.83 16.91-4.16-5.4 5.78-5.4 5.78 13.38 3 13.71 8-10.25.24-10.25.24a25.16 25.16 0 0 1 9.52 10.45c3.07 6.83-8.23.8-8.23.8s7.54 4.75 5.41 11-11.06-5.53-11.06-5.53-6.61 7.7-18.29 2Z"/><path class="cls-2" d="M198.27 207.05s4.48 8.69 3.51 15.12a17.5 17.5 0 0 1-5.8 10.26s7.66-3.61 9-10.89-6.71-14.49-6.71-14.49Z"/><path d="M188.83 188.9s-.31-15.92 14-18.21 20.71 13.12 20.71 13.12Z" style="fill:#f3e3ee"/><path class="cls-4" d="m198.45 180.24-6.82-11.07a5 5 0 0 0-4.59-2.38l-12 .71v3.95l13.25-1 7.72 11.7Z"/><path class="cls-5" d="m191.13 205.07 11.35 41 26.13-3.7-2.2-42.29-35.28 4.99z"/><path class="cls-4" d="m187.68 196.26 12.74 46.05 29.34-4.15-2.47-47.5-39.61 5.6z"/><path style="fill:#ba007c" d="m227.29 190.66-39.61 5.6.84 3.07 39.07-2.92-.3-5.75z"/><path style="fill:#f7f7f8" d="m187.5 193.75.22-6.28 36.44-6.1 2.6 6.83-39.26 5.55z"/><path class="cls-5" d="m185.7 198.49.25-7.05 40.93-6.86 2.92 7.68-44.1 6.23z"/><path class="cls-1" d="M185.61 217.43s1.25-6.76 5.22-11.44 12.4-5.7 11.07-.54-12.28 18.09-12.28 18.09Z"/><path class="cls-8" d="M72.86 153.74s-36.92-8.61-48.09 22c0 0 2.18 52.16-1.06 96.43h148s-9.81-51.55-31.23-73c.02-.08-9.62-43.69-67.62-45.43Z"/><path class="cls-1" d="m47.75 139 7 15.42s29.12 26.33 39.84 5.73l-3.33-15.45Z"/><path class="cls-2" d="m94.61 158.8-3.33-14.14L47.75 139l6.07 13.34c13.73 6.74 28.03 9 40.79 6.46Z"/><path class="cls-1" d="m119 69 1 22.75S147.37 97 135.21 124s-70.06 51.48-109.21.9c0 0-29.85-.28-23.12-16.75s23.68-6.31 23.68-6.31-10.07-28 12.18-48.05S116.75 38.16 119 69Z"/><path class="cls-9" d="m67.27 87.09.43.13c5 1.53 7.39-6.27 2.37-7.79l-.44-.14c-5-1.52-7.39 6.28-2.36 7.8ZM103.78 86.81c5 1.53 7.39-6.27 2.36-7.8s-7.39 6.28-2.36 7.8Z"/><path class="cls-2" d="M94.62 85S93.8 97.11 107 98l-4.47 6a18.76 18.76 0 0 0 9.87-8s-15.49.26-17.78-11ZM8.19 112.79s.43-9.22 7.26-8.76 9.32 14.15 9.32 14.15-3.46-7-8.87-9.41-7.71 4.02-7.71 4.02Z"/><path class="cls-9" d="M125.08 108.89c-2-2.8-5.1-2.38-11.47 0-6 2.26-20-5.15-27.56-.79s2.71 31.27 21 30.17 21.17-24.96 18.03-29.38Z"/><path d="M96.07 120.83a17.92 17.92 0 0 0-10.37 2.07c3.54 8 11.22 16 21.35 15.37a18.47 18.47 0 0 0 7-1.77c-2.89-7.5-8.96-14.85-17.98-15.67Z" style="fill:#c64832"/><path class="cls-9" d="M32.46 113.55s8.46-16 2.68-42.86c0 0 56.38 7.15 72.36-19.37 0 0 8.49 6.12 11.72 22.43 0 0 13.62-13.11 5-28.54C117.13 32.64 105 34 105 34s-3.7-9.07-19.3-14.95C54.16 7.16 12.62 24.79 12 67c0 0-2.39-8.76-6.45-5.1s4.07 8.5 4.07 8.5-12 2.56-9.27 5.19S9.5 74 9.5 74s-5.95 13 3.67 24.9c0 0 7.5-.59 13.38 2.9Z"/><path class="cls-8" d="m135.84 91.76 5.41-6.73 2.08 3.37-7.49 3.36zM141.25 99.25l9.04-4.73 1.25 6.1-10.29-1.37zM142.58 115.47l8.7.22-3.01 5.84-5.69-6.06z"/><path d="M38.47 177.79s16.85-9.65 48.94 23.71l3.41-3.6s-28.98-33.22-52.35-20.11Z" style="fill:#ead700"/><path class="cls-2" d="M126.21 120.91s3.42-13.18 23 .11 34 6.61 41.63 15.15-7.22 27.52-37.64 15.82c-27.83-10.72-29.87-22.86-26.99-31.08Z"/><path d="M186.18 134.24c1 1.33.26 3.38 1 4.89 1 2 4 1.85 5.83 3.17a4 4 0 0 1-.92 7c-1.66.64-3.58.12-5.28.65-2.33.72-3.65 3.16-5.67 4.54a7.1 7.1 0 0 1-7.59.12c-1.92-1.22-3.14-3.31-5-4.64-2.45-1.74-5.68-1.93-8.67-1.63s-6 1-9 .85-6.19-1.46-7.58-4.13c-.64-1.22-.85-2.62-1.43-3.87a7.16 7.16 0 0 0-5.27-4c-1.5-.24-3 0-4.57-.07a4.66 4.66 0 0 1-3.91-2c-.66-1.21-.41-2.73-.88-4a6.38 6.38 0 0 0-3.32-3.14 16 16 0 0 1-4-2.39c-1.12-1.08-1.76-2.88-1-4.23s2.78-1.69 4.43-1.53 3.37.54 4.88-.12c2.15-1 2.94-3.65 4.83-5a5.08 5.08 0 0 1 7.14 1.45c1 1.67.93 3.86 2.23 5.29 1.7 1.89 4.71 1.47 7.2.93s5.52-.91 7.17 1 1.12 5.64 3.45 6.83c1.95 1 4.12-.67 6.22-1.27a6.61 6.61 0 0 1 6.83 2.24c1 1.33 1.66 3.15 3.22 3.77s3.3-.3 4.85-1 3.75-1.04 4.81.29Z" style="fill:#8db336"/><path d="M162.78 146.32c-10.66-3.33-21.26-7.13-31.07-12.54-4.8-2.65-18.57-10.53-11.43-17.71a7.27 7.27 0 0 1 6.52-1.62 22.89 22.89 0 0 1 6.42 2.7 234.76 234.76 0 0 0 55.35 21.3c3.06.75 6.57 1.78 7.82 4.68a6.14 6.14 0 0 1-1.52 6.53 9.84 9.84 0 0 1-6.45 2.59 26.2 26.2 0 0 1-7-.85c-6.32-1.4-12.5-3.17-18.64-5.08Z" style="fill:#af5115"/><path d="M184.65 137.82c1 1.32.27 3.38 1 4.88 1 2 4 1.86 5.82 3.17a4 4 0 0 1-.91 7c-1.66.63-3.58.12-5.28.64-2.33.73-3.65 3.17-5.67 4.54a7.06 7.06 0 0 1-7.59.12c-1.92-1.22-3.14-3.31-5-4.63-2.45-1.75-5.68-1.94-8.68-1.64s-6 1-9 .86-6.18-1.46-7.57-4.13c-.64-1.22-.85-2.63-1.44-3.87a7.15 7.15 0 0 0-5.26-4c-1.51-.24-3 0-4.57-.07a4.64 4.64 0 0 1-3.91-2c-.66-1.21-.41-2.72-.89-4a6.45 6.45 0 0 0-3.31-3.15 15.69 15.69 0 0 1-4-2.38c-1.13-1.09-1.76-2.89-1-4.23s2.78-1.69 4.42-1.54 3.38.55 4.89-.12c2.15-.95 2.94-3.64 4.83-5a5.09 5.09 0 0 1 7.14 1.46c1 1.67.93 3.86 2.22 5.29 1.71 1.88 4.72 1.47 7.21.92s5.51-.9 7.17 1 1.11 5.65 3.45 6.83c1.95 1 4.12-.67 6.22-1.26a6.59 6.59 0 0 1 6.83 2.24c1 1.33 1.66 3.15 3.22 3.77s3.3-.3 4.85-1 3.76-1.04 4.81.3Z" style="fill:#b3c52d"/><path class="cls-2" d="M122.18 130.37s3.43-13.18 23.06.11 34 6.61 41.62 15.16-7.22 27.52-37.64 15.82c-27.88-10.72-29.91-22.86-27.04-31.09Z"/><path d="M188.6 149c-3.56 8.62-18.43 16.54-41.94 7.51-11.82-4.55-19.33-9.33-23.91-14 2.88 6.11 10.35 12.78 26.47 19 26.89 10.29 41.57-3.33 39.38-12.51Z" style="fill:#cf7500"/><path d="M143.24 132.23s-5.9-4.84-11.5-4.89-7.56 5.67-7.56 5.67.95-3.08 8-3 11.06 2.22 11.06 2.22Z" style="fill:#e7b866"/><path class="cls-8" d="M133.07 133.29c3.1-4.77 8.78-12.47 15.16-12.32 4 .1-.44 4.67-.68 5a34.4 34.4 0 0 0-2.78 4 20.63 20.63 0 0 0-2.91 6.58 3 3 0 0 0 3.61 3.38 7.58 7.58 0 0 0 4-2.95 46.16 46.16 0 0 1 8.71-8c2.06-1.47 5.37-.71 4.26 2.19-.38 1-.71 2.08-1 3.12a62.33 62.33 0 0 0-1.78 8.86c-.23 2 1.43 5.38 4 4.39 4.1-1.58 5.55-8.33 7.21-11.94l.58-1.24q1.83-5.26 7.74-.43a23.9 23.9 0 0 1 .49 4.39 46.48 46.48 0 0 1-1.34 11.56c-.21 1.09 1.5 1.31 1.71.23 1.21-6 2.38-12.83.12-18.75-1.22-3.21-5.66-3.46-7.85-1.16s-3.08 4.82-4.31 7.49q-1.26 2.78-2.54 5.55c-3.33.34-4.55-.6-3.68-2.8.18-1 .38-2 .6-3 .37-1.73 5.44-11.29.47-11.89s-9.67 4.92-12.75 8.06c-1 1-1.86 2.08-2.75 3.15q-4.82-.27-2.65-3.09a32.72 32.72 0 0 1 2.28-4c1.2-1.91 4.46-4.31 4.65-6.73.33-4-4.19-4-7-3-5.34 1.8-10 7.86-12.91 12.35-.6.92.74 2 1.35 1.07Z"/><path class="cls-1" d="M66.05 229.67s19 20.72 46.3 7.38c23.49-11.46 33.81-63.89 33.81-63.89l-14.38-11.65S87.79 192 66.05 229.67Z"/><path class="cls-1" d="M131.78 161.51s-3.86-9.23 0-18.93 14.57-17.05 19.92-15.58-7.92 12-8.29 15.54a29.51 29.51 0 0 1 13.38-8.79c8.92-2.95 12.23.74 8.67 3.36s-9.76 8-12 11.53c0 0 2.33-1.87 9.47-4.5s12.23-3.4 12.48.17-15.31 10.69-16.83 12.52c0 0 11.72-1.27 16.81-3.57s2.41 5.3-3.13 8.39a62.27 62.27 0 0 1-12.14 4.87s-3 7.43-14 6.64Z"/><path d="M259.55 21.82C246 3.79 229 0 217.15 0a48.94 48.94 0 0 0-13.65 1.79c-1.88.26-18.81 3.18-32.17 23.94-12.83 19.92-4.64 45.07-2.92 49.78l-11.56 17.62 17.53-1.8a57.92 57.92 0 0 0 41.68 17 70.08 70.08 0 0 0 18.66-2.64c17.17-4.76 29.52-15.9 34.78-31.39 5.76-16.91 2.04-36.54-9.95-52.48Zm7.11 51.54c-4.94 14.52-16.56 25-32.74 29.47a67.41 67.41 0 0 1-17.86 2.53c-25.44 0-39.78-16.41-39.92-16.58l-.51-.59-12.8 1.31 9-13.64-.29-.72c-.11-.27-10.71-27.48 2.37-47.79s30-22.58 30.15-22.6l.28-.07A46.6 46.6 0 0 1 217.15 3c11.17 0 27.17 3.58 40 20.63 11.39 15.14 14.95 33.73 9.51 49.73Z" style="fill:#fff"/></g></g></svg>