<svg xmlns="http://www.w3.org/2000/svg" xmlns:xlink="http://www.w3.org/1999/xlink" viewBox="0 0 344.78 366.61"><defs><radialGradient id="radial-gradient-10" cx="96.26" cy="166.37" r="5.14" gradientTransform="rotate(13.35 45.813 230.11)" xlink:href="#radial-gradient"/><radialGradient id="radial-gradient-13" cx="123.06" cy="179.29" r="2.98" xlink:href="#radial-gradient-9"/><radialGradient id="radial-gradient-25" cx="189.87" cy="-47.22" r="12.64" gradientTransform="rotate(-13.98 506.687 -139.67)" xlink:href="#radial-gradient"/><radialGradient id="radial-gradient-3" cx="-1085.29" cy="52.02" r="13.34" gradientTransform="matrix(-1 .08 .08 1 -975.84 93.68)" gradientUnits="userSpaceOnUse"><stop offset="0" stop-color="#f46052"/><stop offset=".4" stop-color="#e65045"/><stop offset="1" stop-color="#cc312d"/></radialGradient><radialGradient id="radial-gradient-4" cx="100.88" cy="40.92" r="6.67" gradientTransform="matrix(1 -.08 .08 1 .32 11.21)" gradientUnits="userSpaceOnUse"><stop offset="0" stop-color="#f8a400"/><stop offset=".96" stop-color="#ff8906"/></radialGradient><radialGradient id="radial-gradient-5" cx="80.71" cy="133.99" r="18.9" gradientUnits="userSpaceOnUse"><stop offset=".02" stop-color="#d72439"/><stop offset=".38" stop-color="#d42439"/><stop offset=".68" stop-color="#c92439"/><stop offset=".97" stop-color="#b7253a"/><stop offset="1" stop-color="#b5253a"/></radialGradient><radialGradient id="radial-gradient-6" cx="76.81" cy="116.03" r="8.96" xlink:href="#radial-gradient-5"/><radialGradient id="radial-gradient-24" cx="231.43" cy="96.48" r="12.63" gradientTransform="rotate(19.57 386.728 23.674)" xlink:href="#radial-gradient"/><radialGradient id="radial-gradient-7" cx="313.54" cy="143.76" r="3" gradientUnits="userSpaceOnUse"><stop offset="0" stop-color="#f5b369"/><stop offset="1" stop-color="#ef3425"/></radialGradient><radialGradient id="radial-gradient-23" cx="260.9" cy="76.31" r="12.64" gradientTransform="matrix(1 .09 -.09 1 -15.86 -65.12)" xlink:href="#radial-gradient"/><radialGradient id="radial-gradient-8" cx="100.37" cy="174.98" r="5.14" gradientTransform="rotate(3.64 -22.657 228.797)" xlink:href="#radial-gradient"/><radialGradient id="radial-gradient-9" cx="105.77" cy="183.74" r="2.84" gradientUnits="userSpaceOnUse"><stop offset="0" stop-color="#5ec559"/><stop offset="1" stop-color="#4ebf48"/></radialGradient><radialGradient id="radial-gradient-2" cx="217.49" cy="177.32" r="11.45" gradientTransform="matrix(.99 -.11 .11 .99 72.36 39.3)" xlink:href="#radial-gradient"/><radialGradient id="radial-gradient-11" cx="101.7" cy="175.18" r="2.84" gradientTransform="matrix(.99 .17 -.17 .99 40.97 -8.87)" xlink:href="#radial-gradient-9"/><radialGradient id="radial-gradient-12" cx="131.35" cy="221.15" r="5.14" gradientTransform="rotate(-18.16 -6.865 232.675)" xlink:href="#radial-gradient"/><radialGradient id="radial-gradient" cx="218.41" cy="159.65" r="11.45" gradientTransform="rotate(39.69 246.41 312.754)" gradientUnits="userSpaceOnUse"><stop offset=".3" stop-color="#f3eeee"/><stop offset=".55" stop-color="#f0eaea"/><stop offset=".81" stop-color="#e8dede"/><stop offset="1" stop-color="#ded0d0"/></radialGradient><radialGradient id="radial-gradient-14" cx="157.17" cy="241.19" r="6.3" gradientTransform="matrix(1 .09 -.09 1 -15.86 -65.12)" xlink:href="#radial-gradient"/><radialGradient id="radial-gradient-15" cx="181.27" cy="278.58" r="6.3" gradientTransform="rotate(19.57 386.728 23.674)" xlink:href="#radial-gradient"/><radialGradient id="radial-gradient-16" cx="42.03" cy="83.35" r="6.3" gradientTransform="rotate(-13.98 506.687 -139.67)" xlink:href="#radial-gradient"/><radialGradient id="radial-gradient-17" cx="15.63" cy="115.43" r="10.92" gradientTransform="rotate(3.64 -22.657 228.797)" xlink:href="#radial-gradient"/><radialGradient id="radial-gradient-18" cx="27.5" cy="119.89" r="6.03" xlink:href="#radial-gradient-9"/><radialGradient id="radial-gradient-19" cx="-16.89" cy="114.99" r="10.92" gradientTransform="rotate(13.35 45.813 230.11)" xlink:href="#radial-gradient"/><radialGradient id="radial-gradient-20" cx="-5.45" cy="117.66" r="6.03" gradientTransform="matrix(.99 .17 -.17 .99 40.97 -8.87)" xlink:href="#radial-gradient-9"/><radialGradient id="radial-gradient-21" cx="74.13" cy="120.98" r="10.92" gradientTransform="rotate(-18.16 -6.865 232.675)" xlink:href="#radial-gradient"/><radialGradient id="radial-gradient-22" cx="39.95" cy="102.67" r="6.34" xlink:href="#radial-gradient-9"/><linearGradient id="linear-gradient-5" x1="219.28" y1="96.48" x2="230.78" y2="96.48" gradientTransform="rotate(19.57 386.728 23.674)" xlink:href="#linear-gradient"/><linearGradient id="linear-gradient" x1="151.11" y1="241.19" x2="156.85" y2="241.19" gradientTransform="matrix(1 .09 -.09 1 -15.86 -65.12)" gradientUnits="userSpaceOnUse"><stop offset="0" stop-color="#e51c54"/><stop offset=".08" stop-color="#e82157"/><stop offset=".67" stop-color="#f93d6d"/><stop offset="1" stop-color="#ff4875"/></linearGradient><linearGradient id="linear-gradient-4" x1="248.76" y1="76.31" x2="260.26" y2="76.31" xlink:href="#linear-gradient"/><linearGradient id="linear-gradient-2" x1="175.21" y1="278.58" x2="180.95" y2="278.58" gradientTransform="rotate(19.57 386.728 23.674)" xlink:href="#linear-gradient"/><linearGradient id="linear-gradient-6" x1="177.73" y1="-47.22" x2="189.23" y2="-47.22" gradientTransform="rotate(-13.98 506.687 -139.67)" xlink:href="#linear-gradient"/><linearGradient id="linear-gradient-3" x1="35.97" y1="83.35" x2="41.71" y2="83.35" gradientTransform="rotate(-13.98 506.687 -139.67)" xlink:href="#linear-gradient"/><clipPath id="clip-path-5"><circle class="cls-1" cx="253.88" cy="173.83" r="40.2" transform="rotate(-75.18 253.9 173.829)"/></clipPath><clipPath id="clip-path-4"><circle class="cls-1" cx="270.42" cy="83.35" r="40.09" transform="rotate(-80.84 270.422 83.356)"/></clipPath><clipPath id="clip-path-3"><circle class="cls-1" cx="311.67" cy="141.03" r="21.69" transform="rotate(-80.72 311.662 141.03)"/></clipPath><clipPath id="clip-path-2"><circle class="cls-1" cx="167.3" cy="37.74" r="26.33" transform="rotate(-80.74 167.312 37.741)"/></clipPath><clipPath id="clip-path"><path class="cls-1" d="M215.7 63.92c2.78 1.22 3 5.87.66 7.65s-5.71 2.76-13.26.69A3 3 0 0 1 202 67c2.55-2.08 6.37-6.29 13.7-3.08Z"/></clipPath><style>.cls-1{fill:none}.cls-34{opacity:.32}.cls-104,.cls-46,.cls-7,.cls-95{mix-blend-mode:multiply}.cls-6{fill:#01ccec}.cls-7{fill:#d9d9d2}.cls-9{fill:#b1b9c6}.cls-104,.cls-45,.cls-46,.cls-95{opacity:.55}.cls-13{fill:#0f75bd}.cls-14{fill:#fba489}.cls-15{fill:#f1856a}.cls-16{fill:#391829}.cls-17{fill:#382040}.cls-19{fill:#f8918b}.cls-21{fill:#bc6eac}.cls-25{fill:#101418}.cls-27{fill:#fff}.cls-30{fill:#f81a23}.cls-31{fill:#daebfd}.cls-32{fill:#6a7490}.cls-34,.cls-45{fill:#f0ebe5;mix-blend-mode:screen}.cls-45{fill:#ffbab3}.cls-46{fill:#b36652}.cls-47{fill:#a6eed6}.cls-48{fill:#fac0aa}.cls-49{fill:#c08e78}.cls-50{fill:#b4f2ff}.cls-51{fill:#e39a6d}.cls-62{fill:#f9cac0}.cls-63{fill:#c40e25}.cls-65{fill:#ae172d}.cls-74{fill:#cacaca}.cls-77{fill:#989898}.cls-78{fill:#5ec559}.cls-79{fill:#7bcae9}.cls-82{fill:#5e646b}.cls-88{fill:#cee9ff}.cls-94{fill:#559dd0}.cls-95{fill:#3b4b80}.cls-104{fill:#c9c8c2}</style></defs><g style="isolation:isolate"><g id="Capa_2" data-name="Capa 2"><g id="Layer_1" data-name="Layer 1"><path d="M239.27 124.45c.7 3.06-1.72 6.22-5.41 7.06s-7.24-.95-7.94-4 1.72-6.22 5.41-7.06 7.24.94 7.94 4Z" style="fill:#d42941"/><path d="M234.29 127.37c-3.33.76-6.54-.76-7.4-3.42a4.82 4.82 0 0 0-.59 3.51c.66 2.89 4 4.59 7.51 3.79s5.77-3.79 5.11-6.68c0-.12-.07-.25-.11-.37a7 7 0 0 1-4.52 3.17Z" style="mix-blend-mode:multiply;opacity:.32;fill:#86003c"/><path d="M330.19 185.75c-2.25 2.71-8.05 1.6-12.95-2.47s-7.07-9.56-4.82-12.27 8.05-1.61 13 2.47 7.02 9.52 4.77 12.27Z" style="fill:url(#radial-gradient)"/><path class="cls-6" d="m325.38 173.48-.16-.13a12.18 12.18 0 0 1-1.19 4.59 10 10 0 0 1-7.09 4.95h-.14l.44.38c4.9 4.07 10.7 5.18 12.95 2.47s.09-8.19-4.81-12.26Z"/><path class="cls-7" d="M318.22 176.79c-2-2.08-3.09-4.4-2.87-6.74a3.76 3.76 0 0 0-2.52 1.24c-2.06 2.48.09 7.64 4.78 11.54s10.17 5 12.23 2.58a3.47 3.47 0 0 0 .74-1.9c-5.04-.51-8.74-3.01-12.36-6.72Z"/><path d="M319.44 192.39c.39 3.5-4.44 6.9-10.78 7.6s-11.78-1.57-12.17-5.07 4.44-6.9 10.78-7.6 11.79 1.58 12.17 5.07Z" style="fill:url(#radial-gradient-2)"/><path class="cls-6" d="M307.27 187.32h-.2a12 12 0 0 1 2.47 4.05 10 10 0 0 1-1.37 8.54l-.08.1h.57c6.34-.7 11.17-4.1 10.78-7.6s-5.83-5.78-12.17-5.09Z"/><path class="cls-7" d="M304.68 194.77c-2.9 0-5.31-.83-6.84-2.62a3.77 3.77 0 0 0-.86 2.68c.35 3.19 5.55 5.24 11.62 4.58s10.7-3.81 10.35-7a3.49 3.49 0 0 0-.85-1.85c-3.88 3.25-8.24 4.19-13.42 4.21Z"/><path class="cls-9" d="M203.14 188.05v-4.75h-1.91v4.75h-4.75v1.91h4.75v4.76h1.91v-4.76h4.76v-1.91h-4.76zM83.08 172.4v-4.76h-1.91v4.76h-4.76v1.91h4.76v4.75h1.91v-4.75h4.75v-1.91h-4.75zM200.04 4.75V0h-1.91v4.75h-4.75v1.92h4.75v4.75h1.91V6.67h4.76V4.75h-4.76zM144.95 65.72v-2.88h-1.16v2.88h-2.87v1.16h2.87v2.87h1.16v-2.87h2.87v-1.16h-2.87zM12.94 190.2v-4.75h-1.91v4.75H6.28v1.92h4.75v4.75h1.91v-4.75h4.76v-1.92h-4.76zM322.22 105.29v-4.76h-1.91v4.76h-4.75v1.91h4.75v4.75h1.91v-4.75h4.76v-1.91h-4.76zM261.75 225.66v-4.75h-1.91v4.75h-4.75v1.91h4.75v4.76h1.91v-4.76h4.76v-1.91h-4.76zM44.24 24.66V19.9h-1.91v4.76h-4.75v1.91h4.75v4.75h1.91v-4.75H49v-1.91h-4.76zM340.02 163.34v-4.76h-1.91v4.76h-4.75v1.91h4.75V170h1.91v-4.75h4.76v-1.91h-4.76zM11.14 76.64v-6.83H8.4v6.83H1.57v2.75H8.4v6.82h2.74v-6.82h6.83v-2.75h-6.83zM130.77 14.66V7.83h-2.74v6.83h-6.83v2.74h6.83v6.83h2.74V17.4h6.83v-2.74h-6.83zM106.44 90.22v-5.63h-2.26v5.63h-5.63v2.26h5.63v5.63h2.26v-5.63h5.63v-2.26h-5.63zM267.26 27.12v-6.83h-2.75v6.83h-6.82v2.74h6.82v6.83h2.75v-6.83h6.82v-2.74h-6.82zM74.19 257.41v-6.82h-2.75v6.82h-6.82v2.75h6.82v6.82h2.75v-6.82h6.83v-2.75h-6.83z"/><ellipse cx="223.46" cy="111.35" rx="7.22" ry="5.47" transform="rotate(-28.3 223.483 111.353)" style="fill:#3b4b78"/><path d="M227.22 107.16c.55 1-.17 2.48-1.62 3.26s-3.06.58-3.61-.44.17-2.48 1.62-3.26 3.06-.58 3.61.44Z" style="fill:#9ea6b6"/><path d="M226 112.51c-3.51 1.89-7.51 1.26-8.94-1.4a2.39 2.39 0 0 1-.13-.28 4.76 4.76 0 0 0 .16 4c1.43 2.66 5.43 3.28 8.94 1.39s5.07-5.32 3.89-8a8.26 8.26 0 0 1-3.92 4.29Z" style="opacity:.55;fill:#3b4b78;mix-blend-mode:multiply"/><path class="cls-13" d="M212.48 366.61a95.52 95.52 0 0 0-5.36-23.61h-81.46a97.85 97.85 0 0 0-5.19 23.62Z"/><path class="cls-14" d="M200.51 204.76a108.37 108.37 0 0 0-12.62-1.56 8 8 0 0 1-7.64-8v-18.47h-27.73v18.47a8 8 0 0 1-7.46 8 107.7 107.7 0 0 0-11 1.25l-.43 37.65H201Z"/><path class="cls-15" d="M152.52 193.06a29.62 29.62 0 0 0 27.73 0v-22h-27.73Z"/><path class="cls-14" d="M142.85 148.77c0 6.63-5 12-11.18 12s-11.1-10.72-11.1-17.35 4.86-7.64 11.1-6.65 11.18 5.37 11.18 12ZM189.92 148.77c0 6.63 5 12 11.18 12s11.1-10.72 11.1-17.35-4.85-7.64-11.1-6.65c-6.1.96-11.18 5.37-11.18 12Z"/><path class="cls-14" d="M201.43 115.39c-4.27-12.39-35-12.82-35-12.82s-30.78.43-35 12.82-3.85 38 2.56 50.44 18.38 22.65 32.49 22.65 26.07-10.26 32.48-22.65 6.75-38.04 2.47-50.44Z"/><path class="cls-16" d="M150.9 143c0 2.81-1.8 5.1-4 5.1s-4-2.29-4-5.1 1.8-5.11 4-5.11 4 2.31 4 5.11ZM189.92 143c0 2.81-1.8 5.1-4 5.1s-4-2.29-4-5.1 1.8-5.11 4-5.11 4 2.31 4 5.11Z"/><path class="cls-17" d="M140.84 107a14.92 14.92 0 0 1 6.21.4 6.21 6.21 0 0 1 4.22 4.26c.58 2.67-1.19 5.23-2.87 7.39l-7.24 9.32a30.72 30.72 0 0 0-4.49 7 25.52 25.52 0 0 0-1.52 6.87 74 74 0 0 0-.41 9.53 1.8 1.8 0 0 1-.15 1 1.9 1.9 0 0 1-.88.69L130.6 155c-1.33-5.89-2.9-24.42-3.55-26.54a59.13 59.13 0 0 1-2.29-11.33 7.73 7.73 0 0 1 0-2.54c.44-1.91 2.14-3.26 3.86-4.22a31.22 31.22 0 0 1 12.22-3.37ZM185 93.11a.83.83 0 0 0-.49.27c-.62.86.29 3.63.47 4.53.22 1.18 2.54 8.89.85 9.46a6.21 6.21 0 0 0-4.22 4.26c-.58 2.67 1.2 5.23 2.88 7.39l7.24 9.32a30.72 30.72 0 0 1 4.49 7 25.13 25.13 0 0 1 1.51 6.87 70.54 70.54 0 0 1 .41 9.53 2 2 0 0 0 .15 1 2 2 0 0 0 .89.69l3.11 1.56s.06-.27.05-.25c1.5-7 1.92-14.31 2.78-21.43.42-3.55.3-7.07 1.41-10.48 1.75-5.35 3.18-11 2.39-16.63a13.45 13.45 0 0 0-2.12-5.93 13 13 0 0 0-6.58-4.63 38.84 38.84 0 0 0-8-1.56c-1.31-.16-5.68-1.37-7.22-.97Z"/><path class="cls-17" d="M188.65 88.48c-4.2-4.73-8.64-9.63-14.56-11.83-6.87-2.56-14.52-1.07-21.63.72-4 1-8 2.13-11.25 4.59-3.49 2.65-5.75 6.57-8.73 9.79s-7.38 5.83-11.58 4.6a30.65 30.65 0 0 0 .19 10.16c1.69 7.38 8 13.08 15.19 15.58s15 2.23 22.45 1 14.8-3.43 20.62-8.11c5-4 8.55-9.69 11-15.64.87-2.11 1.64-4.43 1-6.63a11.43 11.43 0 0 0-2.7-4.23Z"/><path d="M166.38 156.29c-2.19 0-4-1-4.59-2.25a2.2 2.2 0 0 0-.29.92c0 1.75 2.19 3.18 4.88 3.18s4.89-1.43 4.89-3.18a2.2 2.2 0 0 0-.27-.96c-.64 1.33-2.42 2.29-4.62 2.29Z" style="fill:#e4776d"/><path class="cls-19" d="M149 156.09a5.61 5.61 0 1 1-5.61-5.56 5.58 5.58 0 0 1 5.61 5.56ZM195 156.09a5.61 5.61 0 1 1-5.6-5.56 5.57 5.57 0 0 1 5.6 5.56Z"/><path d="M125.73 342.94c2.16.41 21 4.64 40 4.88 20 .24 40.14-3.52 41.36-3.67-.46-8.37-.77-31.48-.19-42.33 1.17-21.71 18.82-88.52 18.82-88.52-17.67-7.54-26.89-9.41-37.71-10.09-1.89 4.4-10.84 7.74-21.64 7.74s-19.74-3.34-21.63-7.74c-10.82.68-21.33 3.51-39 11 0 0 18.94 65.85 20.1 87.56.57 10.41.31 32.09-.11 41.17Z" style="fill:#ae509b"/><path class="cls-17" d="M141.14 137a1.06 1.06 0 0 1-1.08-1.63 11.87 11.87 0 0 1 13.43-4 1 1 0 1 1-.67 2 9.66 9.66 0 0 0-11 3.17 1.09 1.09 0 0 1-.68.46ZM191.66 136.93a1 1 0 0 1-.65-.42 9.59 9.59 0 0 0-11.06-3.1 1 1 0 0 1-.68-2 11.84 11.84 0 0 1 13.45 3.87 1.05 1.05 0 0 1-.25 1.46 1.08 1.08 0 0 1-.81.19Z"/><path class="cls-21" d="M94.34 320.41c6-.06 17.22-8.88 17.43-10 .46-2.36 4.48-51.54 5.11-54.53 3.55-16.7-1.4-43.84-4.14-43.81-6.23.07-20.72 7.64-22.93 24.11-2.31 17.17-11.14 59-12.65 68.71-.27 1.71 2.52-.66 2.5 1.07 0 2.35 0 5.23.15 8.48 2.4 5.91 8.57 6.02 14.53 5.97ZM232.32 301.62l14.75-.25c-.86-9.52-1.63-27.14-2.59-42.59-.55-8.88-4.16-31.34-8.66-36.79-5.25-6.36-10.65-9.82-14.66-9.87-2.73 0-9.7 30.66-7.48 50.77.34 3 .56 38.26 5.2 49 .69 1.61 7.49 6.17 13.44 8.56Z"/><path d="M166.66 167.41a18.48 18.48 0 0 1 7.4 1.42 1.29 1.29 0 0 1-1.1 2.33 18 18 0 0 0-12.91 0 1.29 1.29 0 0 1-.91-2.42 21.43 21.43 0 0 1 7.52-1.33Z" style="fill:#db675c"/><path class="cls-14" d="M300.94 226.59a6.61 6.61 0 0 1-4.23 4.08c-3 1-3.24-.55-2.73-3.91.3-2 1.89-4.66 1.34-6.78-.7-2.69-3.68-1.85-5.3 1.9a27.22 27.22 0 0 0-2.31 7.71c-.56 5 0 8.85-1 13.87a9.58 9.58 0 0 1-1.72 3.95l-1.59 2.18a43.39 43.39 0 0 0 5 12c2.88-4.58 5.47-8.69 7.5-11.68.71-.2 1.08-1.61 1.72-2.1 1.85-1.42 3.57-1.76 5.79-2.3a15.37 15.37 0 0 0 6.39-3.33c-4.62-3.45-7-9.41-8.86-15.59Z"/><path class="cls-21" d="M300.39 254.9s-13.39-14.22-19.27-16.57c-9.38 10.88-42.84 43.62-52.8 53.49-1.87 1.86-6.74 7.23-8.08 9.54-5.73 9.88.15 18.44 8.73 22.38 2.73 1.25 10.46.47 14.79-3.24 18.02-15.42 51.44-59.6 56.63-65.6Z"/><path transform="rotate(-86.61 304.033 247.749)" style="fill:#aeaeae" d="M298.93 245.59h10.27v4.32h-10.27z"/><path transform="rotate(-86.61 304.129 246.096)" style="fill:#595959" d="M300.68 243.94h6.95v4.32h-6.95z"/><path class="cls-25" d="M295.81 245.05c1.31.91 7.83 1.65 8.39 1.71.56 0 7.12 0 8.52-.71s6-17.7 1.82-30.63a20.24 20.24 0 0 0-8.35-2.29 20.35 20.35 0 0 0-8.56 1.28c-5.63 12.35-3.18 29.69-1.82 30.64Z"/><path d="M297.42 242.47c1.08.75 6.49 1.37 6.95 1.42.47 0 5.91 0 7.08-.59s5-14.68 1.5-25.4a16.83 16.83 0 0 0-6.92-1.9 17 17 0 0 0-7.11 1.06c-4.69 10.25-2.64 24.62-1.5 25.41Z" style="fill:#77dcf0"/><path class="cls-27" transform="rotate(-86.6 304.909 235.42)" d="M298.87 228.99h12.04v12.87h-12.04z"/><path transform="rotate(-86.6 304.909 235.42)" style="fill:#ffdb40" d="M299.84 230.02h10.1v10.8h-10.1z"/><path d="M307.47 225.59a2.22 2.22 0 1 1 2.09 2.35 2.23 2.23 0 0 1-2.09-2.35Z" style="fill:#3763aa"/><path class="cls-30" d="M299.06 225.09a2.21 2.21 0 1 1 2.08 2.35 2.21 2.21 0 0 1-2.08-2.35Z"/><path class="cls-25" d="m303.82 232.93-1.46-.1a.2.2 0 0 1-.17-.15l-.13-.47a.19.19 0 0 1 .2-.24l1.77.11a.2.2 0 0 1 .17.27l-.19.46a.21.21 0 0 1-.19.12ZM307.56 233.18l-1.45-.1a.19.19 0 0 1-.18-.15l-.12-.47a.19.19 0 0 1 .2-.24l1.77.11a.2.2 0 0 1 .16.27l-.18.46a.23.23 0 0 1-.2.12ZM303.63 235.79l-1.46-.1a.23.23 0 0 1-.18-.15l-.12-.47a.2.2 0 0 1 .2-.25l1.77.12a.2.2 0 0 1 .17.27l-.19.45a.21.21 0 0 1-.19.13ZM302.21 233l-.1 1.46a.18.18 0 0 1-.14.17l-.48.13a.19.19 0 0 1-.24-.2l.12-1.77a.2.2 0 0 1 .27-.17l.45.19a.18.18 0 0 1 .12.19ZM306 233.27l-.1 1.46a.2.2 0 0 1-.15.17l-.47.12a.2.2 0 0 1-.25-.2l.13-1.76a.19.19 0 0 1 .26-.17l.46.19a.18.18 0 0 1 .12.19ZM307.58 233.37l-.09 1.46a.18.18 0 0 0 .12.19l.45.19a.2.2 0 0 0 .27-.17l.11-1.77a.19.19 0 0 0-.24-.2l-.47.13a.2.2 0 0 0-.15.17ZM305.84 236.16l-.1 1.45a.2.2 0 0 1-.15.18l-.47.12a.2.2 0 0 1-.25-.2l.13-1.77a.19.19 0 0 1 .26-.16l.46.18a.19.19 0 0 1 .12.2ZM307.38 236.26l-.09 1.46a.18.18 0 0 0 .12.19l.45.18a.19.19 0 0 0 .27-.16l.11-1.77a.19.19 0 0 0-.24-.2l-.47.12a.21.21 0 0 0-.15.18ZM303.79 236l-.1 1.46a.21.21 0 0 0 .12.19l.46.18a.2.2 0 0 0 .27-.16l.11-1.77a.19.19 0 0 0-.24-.2l-.48.12a.2.2 0 0 0-.14.18ZM302 237.67l1.45.09a.2.2 0 0 1 .18.15l.12.47a.2.2 0 0 1-.2.25l-1.76-.12a.2.2 0 0 1-.17-.27l.18-.45a.2.2 0 0 1 .2-.12ZM305.78 237.92l1.46.09a.2.2 0 0 1 .17.15l.13.47a.2.2 0 0 1-.2.25l-1.77-.12a.2.2 0 0 1-.17-.27l.19-.45a.18.18 0 0 1 .19-.12ZM307.32 235.17l-1.22-.09a.18.18 0 0 0-.16.08l-.16.24a.12.12 0 0 0 0 .14l.13.27a.18.18 0 0 0 .14.09l1.23.08a.17.17 0 0 0 .15-.07l.16-.25a.12.12 0 0 0 0-.14l-.13-.26a.16.16 0 0 0-.14-.09Z"/><path class="cls-25" transform="rotate(-86.16 304.697 238.446)" d="M304.42 238.19h.5v.5h-.5z"/><path class="cls-14" d="M316.53 215.23c-1.33.35-4.23 1.21-5.06 2.38-1.43 2 .83 4.38 2.76 4.32 1.54 0 3.89-.92 4.64-2.47.91-1.85-.56-4.7-2.34-4.23ZM319.08 222a8.78 8.78 0 0 0-5.16 1.89 2.62 2.62 0 0 0 1.19 4.56 7.82 7.82 0 0 0 5.57-1.78c1.32-1.37.56-4.67-1.6-4.67ZM319.27 229.69c-1.57 0-3.28-.47-4.66.39a2.65 2.65 0 0 0 0 4.52c1.12.61 4.61.51 5.65-.23 1.65-1.18 1.23-4.68-.99-4.68ZM318 237.08c-1.22 0-3.55-.64-4.6.22-1.58 1.28-.37 3.48 1 4 1 .42 3.19.53 4.07-.42.99-1.08 1.31-3.8-.47-3.8Z"/><path class="cls-30" d="M213.36 311a3.81 3.81 0 0 0-1.71.68 4 4 0 0 0-1.12.71c-.62.75-.46 2 .65 2a4.11 4.11 0 0 0 2-.69c.63-.36 1.47-.73 1.42-1.54a1.14 1.14 0 0 0-1.24-1.16Z"/><path class="cls-14" d="M215.26 333.91a4.28 4.28 0 0 0-.16-.84c-.79-1.6-9.55 1.39-9.1.69.21-.33 3.51-.41 7-1.55a20.3 20.3 0 0 0 6-3.35c1-.78 2.57-2.64 1.5-3.73s-2.38-.63-3.44-.22-5.16 2.59-5.05 2.55c.41-.16-5.25 1.63-5.25 1.63.06-.33 2-.95 2.55-1.15.86-.32 1.67-.65 2.51-1a52.24 52.24 0 0 0 4.73-2.38 18.12 18.12 0 0 0 4.19-3.54c2.56-2.87.19-6.21-2.65-4.3-2.44 1.64-2.51 2-6.17 4.52a57.44 57.44 0 0 1-5.5 3.16 38 38 0 0 1 3.79-2.46 21 21 0 0 0 6.27-5.94c.61-1 1.27-2.51.57-3.58a2.14 2.14 0 0 0-2-.86c-1.62.07-2.73 1.68-3.9 2.65-1.5 1.23-2.73 2.28-4.27 3.45a14.8 14.8 0 0 1-6.63 2.9 7 7 0 0 1-5.88-1.51c-2.44-2.09-1.19-3.06 2-4.35 1.84-.75 5-.77 6.51-2.34 2-2-1.86-4.23-4.35-3.56-3.12.83-5.71 1-7.81 2-4.59 2.09-7.6 4.52-12.42 6.24a9.65 9.65 0 0 1-4.28.54l-2.68-.24a43.24 43.24 0 0 0-7.79 10.43c5.42.12 10.27.23 13.87.44.55.51 2 .1 2.69.4 2.17.86 3.34 2.16 4.94 3.79a17.48 17.48 0 0 0 10.75 5.52 41.08 41.08 0 0 0 9.42.27c3.92-.35 9.97-1.36 10.04-4.28Z"/><path class="cls-21" d="M85.57 321.48a24.63 24.63 0 0 0 5.51 1.7c22.38 5.08 74.7 9.72 84.39 11.42 0 0 5.32-18.82 4.34-25-14.15-2.47-63.1-16.3-76.68-19.79a29.91 29.91 0 0 0-7.87-.54c-18.8.2-24.55 24.91-9.69 32.21Z"/><circle class="cls-31" cx="55.91" cy="69.01" r="22.97"/><path class="cls-32" d="M60.68 60c-.31-1.72-4.4-2.9-4.4-2.9l-4.08.61-4.07-.61S44 58.32 43.73 60s0 19.85 0 19.85.23 2.66 8.47 2.66 8.48-2.66 8.48-2.66.32-18.08 0-19.85Z"/><path d="M52.31 61.69a31 31 0 0 0 8.41-1.32v-.33c-.31-1.72-4.4-2.9-4.4-2.9l-4.08.61-4.07-.61S44 58.32 43.73 60v.27a30.68 30.68 0 0 0 8.58 1.42Z" style="fill:#8f97ac"/><path class="cls-34" d="m51.35 57.62-2.07-.31a45 45 0 0 0-3 3.62 27.73 27.73 0 0 0 4.68.68c-.04-.61.31-3.29.39-3.99ZM52.67 57.73l2.06-.3a40 40 0 0 1 3 3.62 29.92 29.92 0 0 1-4.68.68c.04-.6-.3-3.29-.38-4Z"/><path class="cls-32" d="m52.2 55-4.07-.28v2.68a14.14 14.14 0 0 0 8.15 0v-2.73Z"/><path class="cls-34" d="m51.7 54.92-2.57-.18v2.86a16.45 16.45 0 0 0 2.57.34Z"/><path class="cls-30" d="M52.2 52.92a22.39 22.39 0 0 1-5-1v3.44a13.24 13.24 0 0 0 10 0V51.9a22.45 22.45 0 0 1-5 1.02Z"/><path d="M55.71 52.36c-.69.16-1.44.28-2.07.38v3.49a13 13 0 0 0 2.07-.37Z" style="fill:#d998d8;mix-blend-mode:screen;opacity:.32"/><path d="M51.35 52.82a27.31 27.31 0 0 1-2.94-.53v3.49a13.11 13.11 0 0 0 2.94.5Z" style="fill:#ac7f98;mix-blend-mode:multiply;opacity:.32"/><path class="cls-30" d="M51.87 50.93s-3.29 0-4.64 1c0 0 1 1.24 4.64 1.24 4.35 0 5.31-1.24 5.31-1.24-1.35-1.04-5.31-1-5.31-1Z"/><path d="M51.87 53c-3.61 0-4.61-1.11-4.64-1.08s1 1.34 4.64 1.34c4.35 0 5.31-1.34 5.31-1.34S56.17 53 51.87 53Z" style="fill:#c6e8f5"/><path class="cls-30" d="M52.2 74.6a41.82 41.82 0 0 0 8.57-.86c0-3.52.07-7.79 0-10.65a42.94 42.94 0 0 1-17.2 0v10.65a41.65 41.65 0 0 0 8.63.86Z"/><path d="M52.21 67.33a37.26 37.26 0 0 1-7.48-.74v4.9a38.48 38.48 0 0 0 14.92 0V66.6a37 37 0 0 1-7.44.73Z" style="fill:#fef7f3"/><path d="M52.21 71.59a39.2 39.2 0 0 1-7-.62h-.07v-3.56h.11a38.76 38.76 0 0 0 7 .62 39.44 39.44 0 0 0 7-.61h.1V71h-.15a38.84 38.84 0 0 1-6.99.59Zm-6.92-.78a38.91 38.91 0 0 0 6.92.6 38.54 38.54 0 0 0 6.88-.6v-3.18a38.54 38.54 0 0 1-6.88.6 38 38 0 0 1-6.92-.61Z" style="fill:#7b9090"/><path d="M58.38 74.81c-2.51.45-6.55 1-8.79-.61-3.68-2.68-5.37-7.39-5.54-7.9 0 5.57.13 13.28.13 13.28s.22 2.52 8 2.52 8-2.52 8-2.52 0-2.21.08-5.12c-.69.16-1.37.26-1.88.35Z" style="fill:#d5c8b8;opacity:.55;mix-blend-mode:multiply"/><path d="M46.23 81.73a17.12 17.12 0 0 0 4.62.7V61.64a29.13 29.13 0 0 1-4.62-.64Z" style="fill:#d7cbbb;mix-blend-mode:multiply;opacity:.32"/><path d="M52.31 61.47c-3.24 0-8.61-1.25-8.62-1.16a24.31 24.31 0 0 0 17 .06c.02-.08-5.23 1.1-8.38 1.1Z" style="fill:#f6f3ef"/><g style="mix-blend-mode:screen;opacity:.55"><path d="M57.79 81.73a17.28 17.28 0 0 1-4.63.7V61.64a29.26 29.26 0 0 0 4.63-.64Z" style="fill:#fdfcfc;mix-blend-mode:multiply;opacity:.32"/></g><path class="cls-30" d="M71 82.09c0 1.38-1.48 2.5-3.31 2.5s-3.3-1.12-3.3-2.5 1.48-2.51 3.3-2.51S71 80.7 71 82.09Z"/><ellipse class="cls-45" cx="68.75" cy="81.21" rx="1.36" ry=".96"/><path class="cls-46" d="M68.47 83.11c-1.83 0-3.31-1.12-3.31-2.51v-.14a2.2 2.2 0 0 0-.79 1.63c0 1.38 1.48 2.5 3.3 2.5s3.2-1 3.3-2.36a3.78 3.78 0 0 1-2.5.88Z"/><path class="cls-30" d="M64.14 85.1c0 1.38-1.48 2.51-3.31 2.51s-3.3-1.13-3.3-2.51 1.48-2.51 3.3-2.51 3.31 1.13 3.31 2.51Z"/><ellipse class="cls-45" cx="61.9" cy="84.14" rx="1.36" ry=".96"/><path class="cls-46" d="M61.63 86.12c-1.83 0-3.31-1.12-3.31-2.5a.76.76 0 0 1 0-.15 2.2 2.2 0 0 0-.79 1.63c0 1.38 1.48 2.51 3.3 2.51s3.2-1 3.3-2.37a3.8 3.8 0 0 1-2.5.88Z"/><circle class="cls-47" cx="23.98" cy="154.6" r="22.68" transform="rotate(-22.5 23.991 154.609)"/><path class="cls-48" d="M39.47 156.18a3.77 3.77 0 0 0-1.12-2.67 3.76 3.76 0 0 0 .71-2.18 3.82 3.82 0 0 0-1.91-3.27V148a3.84 3.84 0 0 0-2.42-3.53A4 4 0 0 0 31 142h-.23a3.32 3.32 0 0 0-3.29-2.59 3.27 3.27 0 0 0-3.35 3.15V165a4.74 4.74 0 0 0 5 4.32 5.23 5.23 0 0 0 3.85-1.63 4 4 0 0 0 .86.09 4 4 0 0 0 4-3.86 4.05 4.05 0 0 0-.07-.7 3.81 3.81 0 0 0 1.7-3.22 3.76 3.76 0 0 0-.54-1.93 3.7 3.7 0 0 0 .54-1.89Z"/><path class="cls-49" d="M26.82 164.75A2.34 2.34 0 0 1 27 163a1 1 0 0 0 .49.2h.13a4.36 4.36 0 0 0 2.33-1.28l-.39-.4c-.34.33-1.37 1.18-2 1.12a.5.5 0 0 1-.28-.14.83.83 0 0 0 .09-.16c2.14-3.24 2.05-3.72.51-5.25l-.17-.17-.4.4.18.17c1.28 1.28 1.45 1.44-.59 4.54a3.4 3.4 0 0 0-.63 2.66 1.14 1.14 0 0 0-.37 0 1.49 1.49 0 0 0-1 .55l.45.34a.91.91 0 0 1 .57-.32.89.89 0 0 1 .68.33 5 5 0 0 0 2.31 1.74l.18-.54a3.92 3.92 0 0 1-2.27-2.04ZM32.31 152.29a2.79 2.79 0 0 0 .7 2.81 1.46 1.46 0 0 1-1.39.52c-.37-.15-.54-.68-.49-1.47a2.19 2.19 0 0 0-.55-1.69 3.6 3.6 0 0 0-2.26-1v.57a3 3 0 0 1 1.87.77 1.67 1.67 0 0 1 .4 1.27c-.09 1.42.48 1.88.83 2a1.28 1.28 0 0 0 .48.09 2.41 2.41 0 0 0 1.56-.76l.61.42a4.52 4.52 0 0 1 .56.38c.4.34.87.84.8 1.36s-.6 1-1.53 1.41c-.13.06-.24.13-.35.19a2.19 2.19 0 0 0-1.44-1.32 1.82 1.82 0 0 0-1.43.53l.41.39a1.22 1.22 0 0 1 .93-.36c.38.06.75.45 1.08 1.1a1.53 1.53 0 0 0-.53 1c-.12 1.15 1.22 2.19 1.27 2.24l.35-.45c-.32-.25-1.13-1-1.06-1.73 0-.4.38-.74 1-1 1.14-.53 1.77-1.15 1.86-1.84a2.17 2.17 0 0 0-1-1.87 7 7 0 0 0-.61-.43c-.9-.57-1.91-1.22-1.5-3ZM35.57 152.11c-.27-.44-.14-1.21.38-2.21a2.46 2.46 0 0 0 .19-2.27 3 3 0 0 0-2-1.33l-.1.55a2.51 2.51 0 0 1 1.6 1 1.58 1.58 0 0 1 0 1.25 1.73 1.73 0 0 0-1.42-.46c-.91.17-1.34 1.27-1.35 1.32l.52.2s.34-.85.94-1a1.3 1.3 0 0 1 1.08.46c-.6 1.18-.72 2.1-.35 2.71a1.87 1.87 0 0 0 1.59.75v-.57a1.29 1.29 0 0 1-1.08-.4ZM37.18 155.74l-.37.42a2.45 2.45 0 0 1 .82 1.61 2 2 0 0 1-.82 1.5l.37.43a2.56 2.56 0 0 0 1-1.94 3 3 0 0 0-1-2.02ZM25.66 146.57l.34-.45c-.25-.19-.66-.49-.62-.81s.27-.65 1.62-1.24c1-.43 1.5-.95 1.53-1.53 0-.86-1-1.45-1.11-1.51l-.27.49c.22.12.83.56.81 1s-.42.7-1.18 1c-1.25.54-1.89 1.1-2 1.69s.56 1.12.88 1.36Z"/><path class="cls-49" d="M31 146.91c-.1.26-.58.7-2.67.61-1.57-.06-2.47.17-2.84.74s.07 1.68.56 2.63c.68 1.29 1 2.11.25 2.53l.27.49c1.33-.7.58-2.13 0-3.28-.42-.81-.85-1.64-.58-2.07.15-.24.66-.51 2.12-.48-.2.7-.16 1.18.15 1.44a.88.88 0 0 0 .57.18 3 3 0 0 0 1.25-.39l-.28-.49c-.36.21-1 .42-1.18.27s-.12-.41.07-1c1.66 0 2.6-.3 2.86-1a1.39 1.39 0 0 0-.1-1 1.15 1.15 0 0 0 .7-.35 2.06 2.06 0 0 0 .3-1.6l-.55.11a1.57 1.57 0 0 1-.17 1.12.76.76 0 0 1-.58.2 7.11 7.11 0 0 0-1.22-1.31l-.35.43c.64.55 1.63 1.64 1.42 2.22ZM26.65 159l.05-.56a1.62 1.62 0 0 0-1.38.56c-.31.47-.21 1.19.31 2.11l.49-.27c-.39-.71-.51-1.25-.33-1.54a1.07 1.07 0 0 1 .86-.3Z"/><path class="cls-49" d="M27.86 145.46a1.28 1.28 0 0 0-.44 1.14h.56c0-.16 0-.52.18-.62s.42 0 .77.16l.27-.49a1.3 1.3 0 0 0-1.34-.19ZM27.66 155.82c1.07.13 1.72 0 2-.54.34-.64-.23-1.54-.45-1.8l-.43.37c.18.21.55.85.38 1.17s-.64.33-1.41.24a2.34 2.34 0 0 0-2.19.53 1.52 1.52 0 0 0-.21 1.39l.53-.18a1 1 0 0 1 .11-.85c.24-.32.82-.43 1.67-.33ZM33.69 165a2.05 2.05 0 0 1-.78 0 1.4 1.4 0 0 0 .25-1.07c-.19-1.11-1.66-1.89-1.73-1.92l-.26.5c.36.19 1.32.82 1.44 1.52a1 1 0 0 1-.29.8 3.72 3.72 0 0 1-.78-.43l-.14-.12-.16.08c-1.39.68-2-.14-2-.17l-.46.33a2.07 2.07 0 0 0 2.59.42 3.61 3.61 0 0 0 2 .65 2.26 2.26 0 0 0 .51-.05 3.52 3.52 0 0 0 2.33-2l-.5-.27a3 3 0 0 1-2.02 1.73Z"/><path class="cls-48" d="M8.49 156.18a3.73 3.73 0 0 1 1.13-2.67 3.69 3.69 0 0 1-.71-2.18 3.8 3.8 0 0 1 1.91-3.27s0-.07 0-.11a3.85 3.85 0 0 1 2.42-3.53A4.05 4.05 0 0 1 17 142h.24a3.31 3.31 0 0 1 3.29-2.59 3.27 3.27 0 0 1 3.34 3.15V165a4.72 4.72 0 0 1-5 4.32 5.24 5.24 0 0 1-3.86-1.63 4.06 4.06 0 0 1-4.9-3.77 3.26 3.26 0 0 1 .07-.7A3.82 3.82 0 0 1 8.49 160a3.68 3.68 0 0 1 .51-1.9 3.62 3.62 0 0 1-.51-1.92Z"/><path class="cls-49" d="M21.15 164.75A2.44 2.44 0 0 0 21 163a1.11 1.11 0 0 1-.49.2h-.14a4.4 4.4 0 0 1-2.37-1.31l.4-.4c.34.33 1.37 1.18 2 1.12a.47.47 0 0 0 .27-.14c0-.05 0-.1-.09-.16-2.13-3.24-2-3.72-.51-5.25l.17-.17.4.4-.17.17c-1.29 1.28-1.45 1.44.58 4.54a3.46 3.46 0 0 1 .64 2.66 1.14 1.14 0 0 1 .37 0 1.46 1.46 0 0 1 1 .55l-.45.34a.76.76 0 0 0-1.25 0 5 5 0 0 1-2.31 1.74l-.18-.54a3.93 3.93 0 0 0 2.28-2ZM15.65 152.29a2.77 2.77 0 0 1-.7 2.81 1.48 1.48 0 0 0 1.4.52c.36-.15.53-.68.48-1.47a2.23 2.23 0 0 1 .55-1.69 3.64 3.64 0 0 1 2.27-1v.57a3 3 0 0 0-1.87.77 1.63 1.63 0 0 0-.4 1.27c.08 1.42-.49 1.88-.83 2a1.28 1.28 0 0 1-.48.09 2.43 2.43 0 0 1-1.57-.76l-.61.42a5.43 5.43 0 0 0-.56.38c-.4.34-.86.84-.79 1.36s.59 1 1.53 1.41c.13.06.23.13.34.19a2.23 2.23 0 0 1 1.45-1.32 1.82 1.82 0 0 1 1.43.53l-.42.39a1.17 1.17 0 0 0-.92-.36c-.39.06-.76.45-1.08 1.1a1.52 1.52 0 0 1 .52 1c.13 1.15-1.21 2.19-1.27 2.24l-.34-.45c.32-.25 1.13-1 1-1.73 0-.4-.38-.74-1-1-1.14-.53-1.76-1.15-1.85-1.84a2.16 2.16 0 0 1 1-1.87 7.29 7.29 0 0 1 .62-.43c.89-.57 1.9-1.22 1.49-3ZM12.4 152.11c.27-.44.14-1.21-.38-2.21a2.44 2.44 0 0 1-.2-2.27 3 3 0 0 1 2-1.33l.09.55a2.54 2.54 0 0 0-1.6 1 1.63 1.63 0 0 0 0 1.25 1.71 1.71 0 0 1 1.41-.46c.91.17 1.34 1.27 1.36 1.32l-.53.2s-.34-.85-.93-1a1.28 1.28 0 0 0-1.08.46c.6 1.18.72 2.1.34 2.71a1.84 1.84 0 0 1-1.58.75v-.57a1.29 1.29 0 0 0 1.1-.4ZM10.79 155.74l.36.42a2.45 2.45 0 0 0-.82 1.61 2 2 0 0 0 .82 1.5l-.37.43a2.55 2.55 0 0 1-1-1.94 2.91 2.91 0 0 1 1.01-2.02ZM22.3 146.57l-.33-.45c.24-.19.65-.49.61-.81s-.27-.65-1.62-1.24c-1-.43-1.5-.95-1.52-1.53 0-.86 1-1.45 1.11-1.51l.27.49c-.22.12-.84.56-.82 1s.43.7 1.19 1c1.24.54 1.88 1.1 1.95 1.69s-.52 1.12-.84 1.36Z"/><path class="cls-49" d="M17 146.91c.1.26.59.7 2.68.61 1.56-.06 2.47.17 2.83.74s-.06 1.68-.56 2.63c-.67 1.29-1 2.11-.25 2.53l-.26.49c-1.33-.7-.59-2.13 0-3.28.42-.81.86-1.64.59-2.07-.16-.24-.66-.51-2.12-.48.19.7.15 1.18-.15 1.44a.91.91 0 0 1-.58.18 3 3 0 0 1-1.25-.39l.28-.49c.37.21 1 .42 1.18.27s.13-.41-.06-1c-1.66 0-2.61-.3-2.86-1a1.3 1.3 0 0 1 .1-1 1.17 1.17 0 0 1-.71-.35 2 2 0 0 1-.29-1.6l.55.11a1.52 1.52 0 0 0 .17 1.12.72.72 0 0 0 .57.2 7.49 7.49 0 0 1 1.22-1.31l.36.43c-.7.55-1.69 1.64-1.44 2.22ZM21.32 159l-.05-.56a1.62 1.62 0 0 1 1.38.56c.31.47.2 1.19-.31 2.11l-.5-.27c.4-.71.52-1.25.33-1.54s-.68-.3-.85-.3Z"/><path class="cls-49" d="M20.11 145.46a1.34 1.34 0 0 1 .44 1.14h-.56c0-.16 0-.52-.19-.62s-.42 0-.77.16l-.27-.49a1.32 1.32 0 0 1 1.35-.19ZM20.3 155.82c-1.06.13-1.71 0-2-.54-.35-.64.22-1.54.45-1.8l.43.37c-.19.21-.56.85-.39 1.17s.65.33 1.42.24a2.34 2.34 0 0 1 2.19.53 1.59 1.59 0 0 1 .21 1.39l-.51-.18a1 1 0 0 0-.11-.85c-.25-.32-.84-.43-1.69-.33ZM14.28 165a2 2 0 0 0 .77 0 1.49 1.49 0 0 1-.25-1c.19-1.11 1.67-1.89 1.73-1.92l.26.5c-.36.19-1.31.82-1.43 1.52a1 1 0 0 0 .28.8 3.42 3.42 0 0 0 .78-.43l.14-.12.16.08c1.4.68 2-.14 2-.17l.46.33a2.06 2.06 0 0 1-2.59.42 3.54 3.54 0 0 1-1.94.65 2.21 2.21 0 0 1-.51-.05 3.49 3.49 0 0 1-2.33-2l.49-.27a3 3 0 0 0 1.98 1.66Z"/><circle class="cls-50" cx="209.11" cy="67.75" r="17.06" transform="rotate(-22.75 209.096 67.744)"/><path class="cls-51" d="M221.31 65.67s.78 15.08-24.86 5.9c0 0 5.9-16.95 24.86-5.9Z"/><path d="M198.64 70.87c1.2.31 2.35.79 3.55 1.07 2.79.64 5.71 1.48 8.58 1.13 3-.37 5.4-.59 7.48-3.11a9.55 9.55 0 0 0 2.55-4.57c-15.83-8.92-22.37 1.88-24 5.24a7.64 7.64 0 0 1 1.84.24Z" style="fill:#ed8d61"/><g style="clip-path:url(#clip-path)"><path d="M215.7 63.92c2.78 1.22 3 5.87.66 7.65s-5.71 2.76-13.26.69A3 3 0 0 1 202 67c2.55-2.08 6.37-6.29 13.7-3.08Z" style="fill:#efefec"/><path d="M209.1 63.21a5.37 5.37 0 1 1-5.19 5.55 5.39 5.39 0 0 1 5.19-5.55Z" style="fill:#273561"/><path d="M209.12 63.73a4.86 4.86 0 1 1-4.7 5 4.85 4.85 0 0 1 4.7-5Z" style="fill:#4581b1"/><path d="M209.18 65.68a2.91 2.91 0 1 1-2.81 3 2.89 2.89 0 0 1 2.81-3Z" style="fill:#151515"/><path class="cls-27" d="M212 65.83a1.25 1.25 0 1 0 1.24 1.25 1.25 1.25 0 0 0-1.24-1.25Z"/></g><path class="cls-14" d="M221.31 65.67c-5.26-3.06-8.51-4.44-12-4.23-7.41.45-11.21 6.77-12.4 9.19-.27.58-.4.94-.4.94 25.58 9.18 24.8-5.9 24.8-5.9ZM218 70c-2.17 2.44-4.17 2.74-7.2 3.11-2.87.35-5.79-.49-8.58-1.13-1.2-.28-2.35-.76-3.55-1.07l-.44-.1c3.74-4.06 7.24-6.62 11.08-6.91a16.29 16.29 0 0 1 9.7 2.61 1.06 1.06 0 0 1 .38 1.4A10.39 10.39 0 0 1 218 70Z"/><path class="cls-51" d="M204.18 63.06c3.78-1.7 9.17-1.87 16.62 2.33-7.45-4.2-12.8-4.03-16.62-2.33ZM200.93 65.16ZM201.25 64.89a12.22 12.22 0 0 1 1.88-1.29 13 13 0 0 0-1.88 1.29Z"/><circle class="cls-50" cx="108.52" cy="52.75" r="27.29" transform="rotate(-80.7 108.523 52.748)"/><path d="M119.44 61.4c-.94 3.25-2.56 6.69-5.69 8a7.55 7.55 0 0 1-6.46-.59 10.86 10.86 0 0 1-4.33-5 9.54 9.54 0 0 1-.68-6.75 11.49 11.49 0 0 0 .74-2.47c.13-1.83-1.3-3.34-2.32-4.87a12.44 12.44 0 0 1-2-5.22 5.81 5.81 0 0 1 .21-2.87c.77-2 3.11-2.93 5.21-2.74a13.26 13.26 0 0 1 5.78 2.41c4.69 3 9.43 7 10.31 12.44a17.74 17.74 0 0 1-.77 7.66Z" style="fill:url(#radial-gradient-3)"/><path d="M120.24 53.73a11.8 11.8 0 0 0-1.19-3.52A13.46 13.46 0 0 1 105.86 59a16.11 16.11 0 0 1-3.86-.49 10.25 10.25 0 0 0 1 5.27 10.86 10.86 0 0 0 4.33 5 7.55 7.55 0 0 0 6.46.59c3.13-1.27 4.75-4.71 5.69-8a17.74 17.74 0 0 0 .76-7.64Z" style="fill:#e06052;opacity:.55;mix-blend-mode:multiply"/><path d="M102.26 49.37a5.63 5.63 0 0 0 1.42-1.92c1.28-2 3.7-3 5.93-3.8.93-.35 2-1 1.9-2a2.09 2.09 0 0 0-1-1.3 14.29 14.29 0 0 0-7.51-2.59 7.1 7.1 0 0 0-2.25.19A5.51 5.51 0 0 0 97 42.21a7.51 7.51 0 0 0 1.35 5.64 4.54 4.54 0 0 0 1.68 1.55 2.31 2.31 0 0 0 2.23-.03Z" style="fill:url(#radial-gradient-4)"/><g style="clip-path:url(#clip-path-2)"><circle class="cls-47" cx="167.3" cy="37.74" r="26.33" transform="rotate(-80.74 167.312 37.741)"/><path class="cls-14" d="M150.87 35.23c-1-2.24-8.25-11.79-10.81-14.43l11.78-6.45c1.46 2.65 9 16.23 13 18.38a70 70 0 0 1 6.64 4.48c3.12 3 3.36 5.45 7.74 7.3a27.42 27.42 0 0 1 5.32 1.28s2.34.26 3.11.44.28 2.07-.58 2.24c0 0 .63 1.21-1.18 1.46 0 0 .23 1.52-2 1 0 0 .06 2-2.92 1 0 0 .7 2-3.68.42 0 0-3.46 1.47-4.52 1.74-2.05.54-4.49-.21-6.34-2.59s-4.52-3.54-7.49-4.33-7.26.73-8.71-3 1.06-7.96.64-8.94Z"/><path class="cls-15" d="M168.61 51.74c-1.51-1-2.29-2.72-3.81-3.71a22.08 22.08 0 0 0-5.63-2.1 32.9 32.9 0 0 1-5.1-2.32c-2.31-1.16-1.78-7-2.17-8.67a2.1 2.1 0 0 0-.09-.33c-.53-1.45-2.93-5-3.57-6.35-1.32-2.77-3.94-7.32-5-9.2l-3.17 1.74a128.2 128.2 0 0 1 10.08 13.09 6.43 6.43 0 0 1 .79 1.62s0-.07.07-.09-.06.1-.07.09c-.6 3.58-1.57 6.33-.7 8.63 1.45 3.78 5.74 2.27 8.71 3s5.63 2 7.49 4.33 4.29 3.13 6.34 2.59c.8-.21 3.73-1.59 4.52-1.74-2.41-.73-6.52.85-8.69-.58ZM181.51 46.43s2-.49 5.6 1.93a.18.18 0 0 1 0 .07H187a.68.68 0 0 0-.3-.12.55.55 0 0 0-.18 0c-3.4-2.11-5-1.64-5-1.64a.13.13 0 0 1-.13-.13.12.12 0 0 1 .12-.11ZM180.91 47.65s2.29-.41 5 2.18a.2.2 0 0 1 0 .08h-.13a.78.78 0 0 0-.41-.22h-.05c-2.68-2.18-4.43-1.78-4.47-1.78a.13.13 0 0 1-.14-.13.14.14 0 0 1 .2-.13ZM179.77 48.81a5 5 0 0 1 4.23 2.07.15.15 0 0 1 0 .11h-.13a.76.76 0 0 0-.5-.35 4.68 4.68 0 0 0-3.63-1.54.13.13 0 0 1-.13-.14.15.15 0 0 1 .16-.15ZM177.54 50.21a4.53 4.53 0 0 1 3.54 1.66.17.17 0 0 1 0 .12L181 52a.78.78 0 0 0-.39-.25 4.63 4.63 0 0 0-3-1.24.13.13 0 0 1-.13-.13.13.13 0 0 1 .06-.17Z"/><path class="cls-62" d="M185.48 45.91s-.39.87.19 1.09 1.75.82 1.87.19a3.59 3.59 0 0 0 .12-.94s.39-.06-2.18-.34ZM185.31 47.65s-.65.78.13 1.28 1.39.23 1.54-.52ZM184.26 49s-.73.61 0 1.18 1.41.39 1.55-.28c-.04-.06-1.55-.9-1.55-.9ZM182.36 49.88s-.71.55-.07 1.09 1.3.41 1.43-.2c.01-.03-1.36-.89-1.36-.89ZM179.51 51a.59.59 0 0 0 0 1c.78.59 1.37 0 1.34-.18a3.8 3.8 0 0 0-.79-.52c-.31-.15-.55-.3-.55-.3Z"/></g><circle class="cls-50" cx="78.71" cy="128.76" r="33.36"/><path class="cls-63" d="M69.62 136a9.82 9.82 0 0 0 1.61-1l.55-.39-2.65-3.06a12.07 12.07 0 0 1-1.42 1 13.76 13.76 0 0 1-4.71 1.69c-2.18.44-4.91.62-7.93 1.07.11.41.22.81.37 1.21a12.12 12.12 0 0 0 .83 1.74c2.54-.18 5-.22 7.27-.52a17.58 17.58 0 0 0 6.08-1.74ZM68.15 104.4c-1.12.8-2 1.55-2.9 2l-2.61 1.68-.09.05a1.62 1.62 0 1 0 1.78 2.7l2.72-1.8c.88-.54 1.86-1.36 3-2.23a42.74 42.74 0 0 0 3.69-3.23 34.13 34.13 0 0 0 2.8-3.16 16.35 16.35 0 0 0-3.29-.75c-.54.61-1.09 1.19-1.64 1.73a41.6 41.6 0 0 1-3.46 3.01ZM59 117.32a28.06 28.06 0 0 0 6 .84c1 0 2 .1 2.94.1h2.87c.87 0 1.82 0 2.77.07s1.94.2 2.92.25a.72.72 0 0 0 .71-.47.7.7 0 0 0-.42-.91c-.92-.34-1.85-.65-2.79-.91s-2-.35-3-.46c-2-.15-4-.21-5.85-.26a25.33 25.33 0 0 1-5.51-.7 11.1 11.1 0 0 1-1.15-.39c-.27.78-.54 1.56-.78 2.34.44.18.87.38 1.29.5ZM55.91 123.39c.33.17.66.32 1 .51a42.37 42.37 0 0 0 4.17 2.16 16.39 16.39 0 0 0 4.48 1.33 8.84 8.84 0 0 0 2.23.14h1.08c.53 0 .67-.1 1-.14a9 9 0 0 0 3.52-1.52 7.74 7.74 0 0 0 2-2.12 7 7 0 0 0 .74-1.75c.09-.42.13-.64.13-.64a.7.7 0 1 0-1.32-.49 12.64 12.64 0 0 1-1.34 1.39 9.74 9.74 0 0 1-1.79 1.15 10.57 10.57 0 0 1-2.53.89c-.25 0-.7.15-.8.14h-.83a6.57 6.57 0 0 1-1.76-.06 18.52 18.52 0 0 1-3.87-.86c-1.45-.45-2.74-1.08-4.24-1.7l-1.35-.57a.74.74 0 0 1 0 .14Z"/><path class="cls-63" d="M65.52 125.64a1 1 0 0 0-1.06-.93l-2.15.14a8.71 8.71 0 0 1-2.38 0 22.68 22.68 0 0 1-3-.4l-1.21-.25c-.15.58-.28 1.18-.41 1.78l1.23.26a27.76 27.76 0 0 0 3.34.51 10.16 10.16 0 0 0 2.53.08l2.15-.09a1 1 0 0 0 .96-1.1ZM61.9 116c0 1.75-.87 7.4-.87 7.4 0 .68 1.25-3.41 1.93-3.2a1.55 1.55 0 0 0 1.93-1v-.07s.26-.88.61-2.67a22.21 22.21 0 0 0 .16-8.19 11.38 11.38 0 0 0-.84-2.88 7.73 7.73 0 0 0-.58-1.24 23 23 0 0 0-2.93 4.07l.21.85a30.14 30.14 0 0 1 .38 6.93ZM70.7 104.3a1.55 1.55 0 0 0 .24 1.57c.39-.19.79-.36 1.19-.54s5-4 5.13-4.18l.38-.31a19.29 19.29 0 0 0-4.42-1.13c-.4.53-.79 1.06-1.14 1.59q-.73 1.47-1.38 3Z"/><path class="cls-63" d="M71.26 151.48c-.09-1.22-.07-2.12-.24-3.55A73.26 73.26 0 0 0 68 135.77a76.71 76.71 0 0 1-2.4-8.68 19.36 19.36 0 0 1-.5-5.46c1-6.45 1.16-11.53.9-11.92a3 3 0 0 0-.93-.64l-2.36 10.17a3.11 3.11 0 0 0-1 .44c-.33.33-.22.88-.38 1.56a24.78 24.78 0 0 0-.06 6.51 58.1 58.1 0 0 0 2.15 9.42 69.32 69.32 0 0 1 2.75 11.35c0 .29.06.67.08 1.09a43.92 43.92 0 0 0 5 4.21c0-.82.04-1.61.01-2.34ZM76.91 110.93c.27.14 2.27 2.61 2.43 2.34 0 0-1.88-9-2.8-12.81a17 17 0 0 0-3.36-.76c.45 2.08 3.73 11.23 3.73 11.23Z"/><path class="cls-63" d="M70.13 100a14.62 14.62 0 0 0-3.94 2.32 79.39 79.39 0 0 1 9.64 10.93 5.21 5.21 0 0 1 3.32-2.19h.3a40.59 40.59 0 0 0-2.87-6.15 54.38 54.38 0 0 0-5.7-5.09 3.81 3.81 0 0 0-.75.18ZM80 147.93c-1.8-.27-4.24.48-5.65-.76 0 2.29.19 4.91.14 5.71s-.06 1-.18 2.83a22.53 22.53 0 0 0 5.32 2.08c.24-2.81.38-4.51.38-4.51a30.86 30.86 0 0 0-.01-5.35Z"/><path d="M97.61 138.12a15.31 15.31 0 0 0-1.06-6.12 11.52 11.52 0 0 0-1.07-1.83 10.75 10.75 0 0 1-1.7-6.34 9.63 9.63 0 0 0 0-1.2 4.36 4.36 0 0 0-.41-1.64 3.33 3.33 0 0 0-2.27-1.64 11 11 0 0 1-3.24-2 3.57 3.57 0 0 0-.86-2.08 4.35 4.35 0 0 0-1.55-1 12.15 12.15 0 0 0-8.41-.57 32.46 32.46 0 0 0-5 1.84c-1.78.92-2.44 2.25-3.72 3.71-1 1.17-2.21 2.14-3.31 3.23-2 1.93-.9 7.36-1 10.14a5.65 5.65 0 0 0 1.37 4.18c.44.44 1 .75 1.41 1.21 1.51 1.64.84 4.34 1.59 6.46a7.06 7.06 0 0 0 3.76 3.76c1.63.79 3.39 1.22 5.06 1.92 2.37 1 4.5 2.53 6.87 3.53s5.18 1.42 7.43.16a8.11 8.11 0 0 0 2.32-2.09c3.01-3.67 3.85-8.75 3.79-13.63Z" style="fill:url(#radial-gradient-5)"/><path class="cls-65" d="M87.53 116.27a2.89 2.89 0 0 0-.58-.94 4.35 4.35 0 0 0-1.55-1 12.15 12.15 0 0 0-8.41-.57 9.67 9.67 0 0 0-3.84 2.4c2.89 2.1 6 5.68 10.14 3.58a12.76 12.76 0 0 1 3.17-1 9.67 9.67 0 0 1 1.07-2.47Z"/><path class="cls-65" d="M86.69 119.18c0 2-2.28 4-4.19 4s-5-2.13-5-4.11 3-3.5 4.91-3.5 4.28 1.64 4.28 3.61Z"/><path class="cls-63" d="M96.21 112.16a15.2 15.2 0 0 1-2.48.32 30.59 30.59 0 0 0-7.5 1.65c-.72.29-7.31 2.47-6.07 5.72a2.56 2.56 0 0 0 3.4 1.17c1.75-.65 3.66-5.14 5.18-5.5s3.39-.19 5.25-.35a19 19 0 0 0 3-.42c-.25-.86-.5-1.75-.78-2.59ZM102.35 130.66c-.07-.82-.19-1.64-.34-2.45l-1.77-.16c-1-.12-2.1 0-3.07 0a13.91 13.91 0 0 0-2.8.21c-.86.14-1.66.2-2.36.37l-1.79.58-1.56.52h-.1a1.69 1.69 0 1 0 1.26 3.13l.3-.12 1.26-.51 1.45-.59c.58-.19 1.28-.29 2-.47a12 12 0 0 1 2.44-.37 27.22 27.22 0 0 1 2.83-.16ZM102.11 137.75c.13-.94.22-1.88.28-2.82l-1.36-.24-3.23-.4c-2-.31-3.76-.27-5-.37l-1.91-.09h-.11a1.77 1.77 0 1 0 .05 3.54h1.94c1.14 0 2.71-.14 4.74 0l3.25.21Z"/><path d="M88.28 113.4S83.07 103 78 105s-8.46 5.14-7 15.93l2.29 2A36 36 0 0 1 78 120.4s-3.32-7.13 2.85-7c.71 0 2.92.36 3.78 1.38Z" style="fill:url(#radial-gradient-6)"/><g style="clip-path:url(#clip-path-3)"><circle class="cls-50" cx="311.67" cy="141.03" r="21.69" transform="rotate(-80.72 311.662 141.03)"/><path d="M324.35 142.82a12.44 12.44 0 0 0-5-.41s-.16-.41-.17-.45a2.17 2.17 0 0 0-.31-.53 2.31 2.31 0 0 0-.54-.58c0-.08-.12-.12-.16-.2a2.83 2.83 0 0 1-.37-.33 8.07 8.07 0 0 0 2.6-4.39c.5-.26.94-.69 1.47-1 .77-.37 1.23-.1 2-.1 1.68 0 1.76-1.69 2.95-2.42-1.12.72-2.08 1.65-3.43 1.64a4 4 0 0 0-2.77.78c0-.15.05-.31.08-.47a6.83 6.83 0 0 1 1.46-3.13 4 4 0 0 0 .63-3.28 5.54 5.54 0 0 1-1.31 3.36 5.76 5.76 0 0 0-1.33 3.14 9 9 0 0 1-1 3 7.38 7.38 0 0 1-1.95 2.18 11.35 11.35 0 0 0-1.95-1.25c0-1.8-.68-3.61.41-5.13s2.21-4.13 1.53-6.09a24.85 24.85 0 0 1-.58 2.57 22.26 22.26 0 0 1-1.51 2.8c-.54.95-1.29 1.29-1.37 2.47a9.23 9.23 0 0 0 .4 2.67.86.86 0 0 0 .11.24 5 5 0 0 0-1.47-.32 6.86 6.86 0 0 0-1.21.06c-.18-.3-.29-.66-.49-1-.36-.53-.82-1-1.15-1.52a21.64 21.64 0 0 1-1.73-3.3c-.46-1.24.59-2.52 1-3.71a4.72 4.72 0 0 0-.06-3.67 8 8 0 0 1-.32 3.27c-.39.94-1.16 1.7-1.47 2.66-.6 1.87 1.67 3.25 1.38 5.06-1.92-.1-3.17-2.67-3.93-4.11-1-1.88-2.15-3.66-4.57-3.05a4.71 4.71 0 0 1 3.1 2.2c.56 1.13.55 2.64 1.45 3.54a20.26 20.26 0 0 0 3.56 2.3c.7.44 1.05 1.3 1.66 1.78a4.8 4.8 0 0 0-2.09 2 18.53 18.53 0 0 1-2.44-.57 5.8 5.8 0 0 1-3.15-1.42c-1.53-1.47-1.48-3.67-2.64-5.3.16.95.4 2 .63 2.89s1.19 2 .34 2.48c-.68.36-2.05 0-2.82.08a3.4 3.4 0 0 0-2.39.81c.6 0 1.16.08 1.74.07s1.19-.33 1.86-.4a12.6 12.6 0 0 1 1.6-.08c.7 0 .79.22 1.29.64a5.35 5.35 0 0 0 3.22.89 4.68 4.68 0 0 1 2.19 1.46 5.72 5.72 0 0 0-.12 1.19 7.73 7.73 0 0 0 .05.84c-.66.93-2.39 1.22-3.43 1.47-1.19.29-2.64.86-3.8.36s-2-1.82-3.22-2.25c-.61-.22-1.09.05-1.69.06a6.33 6.33 0 0 1-1.8-.49 9.23 9.23 0 0 0 1.74 1.31c.6.3 1.25.25 1.85.53 1.24.57 1.4 1.69 3 1.71.72 0 1.33-.08.72.72-.42.57-1.3.77-1.85 1.2a13.31 13.31 0 0 0-1.75 2.08c-.54.66-1.34 1.14-1.86 1.78a4.67 4.67 0 0 0 3.05-2.08c.91-1.12 2.21-1.49 3.22-2.42.5-.46.6-.93 1.29-1.22s1.52-.38 2.25-.65 2.15-.62 2.42-1.34a5.69 5.69 0 0 0 3.52 4.14c-.43.41-.83.92-1 1.05a3 3 0 0 1-1.61 1.05 1.81 1.81 0 0 0-1.35.72c-.82 1-1.38 2.09-2.21 3a4.5 4.5 0 0 1-1.29 1.21c-.5.24-1.2 0-1.6.42.92.7 3.16 0 3.88-.8.57-.61 1.75-3.28 2.4-3.37.07 1.35-.47 2.7-.39 4.09.05 1 0 3.09 1.11 3.53.15-.7-.63-1.65-.63-2.49a11.28 11.28 0 0 1 .38-3.13 6.59 6.59 0 0 1 1.63-2.66 15.08 15.08 0 0 0 1.51-2.34 7.74 7.74 0 0 0 3.1.29c1.63.36 2.27 3 2.63 4.56.12.51 1.53 8.47 2.24 12.81l1.88-.49.79-.24c-.53-3.14-1.5-7.76-1.64-8.23-1.31-4.55-2.34-7.56-2.45-8.33v-1.63a4.64 4.64 0 0 0 1.35-4.42c.71 0 1.45.09 2.15.09 1.47 0 1.05.76 1.63 1.75s1.61.71 2.14 1.57a6 6 0 0 1 .66 2.65c.26-.69.79-2.31.32-3.16s-2.39-1.25-2.24-2.16a29.39 29.39 0 0 0 3.61.47 4.71 4.71 0 0 0 3.19-1.05c-2.24.87-4.66.18-6.76-.53Z" style="fill:#ef3425"/><path d="M318.37 143.17c-1.44-3-4.44-4.91-7.65-3.77-1.58.57-2.32 3-2 4.55.36 1.7 2.07 3 3.6 3.66a5.19 5.19 0 0 0 5.15-.52 4.16 4.16 0 0 0 .9-3.92Z" style="fill:#ff8e54"/><path d="M318.37 143.17c-1.44-3-4.44-4.91-7.65-3.77-1.58.57-2.32 3-2 4.55.36 1.7 2.07 3 3.6 3.66a5.19 5.19 0 0 0 5.15-.52 4.16 4.16 0 0 0 .9-3.92Z" style="fill:#ffc28f"/><path d="M317.75 143.22c-1.25-2.59-3.86-4.26-6.65-3.27-1.38.49-2 2.61-1.73 4a5.12 5.12 0 0 0 3.13 3.18 4.5 4.5 0 0 0 4.47-.45 3.63 3.63 0 0 0 .78-3.46Z" style="fill:#c7542d"/><path d="M315.8 142.36a3.6 3.6 0 0 0-4.05-1.32c-1.79.78-1.44 3-.4 4.24s3.14 2.06 4.48.77a2.56 2.56 0 0 0-.03-3.69Z" style="fill:url(#radial-gradient-7)"/></g><circle class="cls-31" cx="59.33" cy="210.78" r="34.16" transform="rotate(-45 59.33 210.785)"/><rect x="42.35" y="189.8" width="33.14" height="44.31" rx=".95" style="fill:#00badb"/><path class="cls-27" d="M45.2 193.66h27.45v37.52H45.2z"/><path class="cls-30" d="M46.7 194.58h24.46v7.21H46.7z"/><path class="cls-74" d="M47.68 218.88h21.89v1.13H47.68zM47.68 220.99h21.89v1.13H47.68zM47.68 223.11h21.89v1.13H47.68zM47.68 225.23h21.89v1.13H47.68zM47.68 227.34h17.25v1.13H47.68z"/><path class="cls-17" d="M61.7 187.38h-.58a2.18 2.18 0 0 0-2.12-2.2h-.1a2.19 2.19 0 0 0-2.18 2.18h-.57a3.75 3.75 0 0 0-3.74 3.74h13a3.74 3.74 0 0 0-3.71-3.72Zm-2.78.88a.75.75 0 0 1 0-1.5.75.75 0 1 1 0 1.5Z"/><path class="cls-27" d="M52.25 197.42h-1.54v-1.54h-1.55v1.54h-1.54v1.54h1.54v1.54h1.55v-1.54h1.54v-1.54z"/><path d="M68.19 205.19s-3.49 5.36 0 5.33 0-5.33 0-5.33Z" style="fill:#f81a14"/><path d="M69.54 209a.66.66 0 0 1-.65.69.69.69 0 1 1 .65-.69Z" style="fill:#fee6e5"/><path class="cls-77" d="M70.1 216.68a5.27 5.27 0 0 1-1.43-.8l.23.63H47.79v-10.8l.51.3-.68-1.67-.68 1.66.51-.3v11.14H68.9l-.23.63a5.27 5.27 0 0 1 1.43-.79Z"/><path class="cls-78" d="M50.4 209.67h1.34v6.84H50.4z"/><path class="cls-79" d="M53.48 207.86h1.34v8.66h-1.34z"/><path class="cls-30" d="M56.56 206.61h1.34v9.9h-1.34z"/><path class="cls-79" d="M59.63 208.71h1.34v7.8h-1.34z"/><path class="cls-78" d="M62.71 211.95h1.34v4.56h-1.34z"/><g style="clip-path:url(#clip-path-4)"><circle class="cls-31" cx="270.42" cy="83.35" r="40.09" transform="rotate(-80.84 270.422 83.356)"/><path class="cls-14" d="M290.32 74.24c-1.24-3.78 2.93-24.66 3.94-28.86l-45.9 1.27c1 4.18 5.66 23.81 4.42 27.59-1.9 5.83-9.34 20.85-9.28 30 .06 8.76 5.23 18.62 8 25.93h40.08c2.78-7.31 8-17.17 8-25.93.08-9.15-7.35-24.17-9.26-30Z"/><path class="cls-15" d="M254.55 65.2c-.26-1.56-4.06-16.87-4.26-18.55h-1.93c1 4.18 5.66 23.81 4.42 27.59-1.9 5.83-9.34 20.85-9.28 30 .06 8.76 5.23 18.62 7.84 22.32h4.2c-3.92-6.71-5.45-10.13-6.74-14.69-1.91-6.75-1.94-11.36-.64-18.48.57-3.12 2.42-4.06 3.7-7 1.46-3.36 3.06-7.73 4.23-11.28.38-1.14 0-3.19-.49-5a46.29 46.29 0 0 1-1.05-4.91ZM290.32 74.24c-1.24-3.78 2.93-24.66 3.94-28.86h-1.94c-.2 1.69-3.5 18.26-3.77 19.82a46.29 46.29 0 0 1-1.05 4.8c-.51 1.82-.87 3.87-.49 5 1.17 3.55 2.77 7.92 4.23 11.28 1.28 3 3.13 3.9 3.7 7 1.3 7.12 1.27 11.73-.64 18.48-1.29 4.56-2.82 8-6.74 14.69h4.2c2.61-3.7 7.78-13.56 7.84-22.32.06-9.04-7.38-24.06-9.28-29.89Z"/><path class="cls-13" d="M299.6 104.2a27.91 27.91 0 0 0-.77-6h.1a80.79 80.79 0 0 0-3.5-10.74c-7 3-12.83 5.55-24 5.55-9.92 0-15.83-2.48-23.58-6.11a82.73 82.73 0 0 0-3.71 11.3h.09a27.91 27.91 0 0 0-.77 6c.06 8.76 5.23 18.62 8 25.93h40.08c2.83-7.31 8-17.13 8.06-25.93Z"/><path d="M271.55 111.33c-1.73 0-5.36-2.79-7-3.31 1.38.86 5.57 5.11 6.16 5.3l.47 16.81h.8l.48-16.81c.58-.19 4.73-4.23 6.51-5.2-2.37.47-5.56 3.21-7.42 3.21Z" style="fill:#004f83"/><path class="cls-15" d="M272.31 79.71c0 1-.34 1.79-.76 1.79s-.75-.8-.75-1.79.33-1.8.75-1.8.76.81.76 1.8Z"/><path class="cls-30" d="M290.26 68.75c.13-3 3.39-20.84 4-23.37l-16.45-4.19a22.19 22.19 0 0 0-11.88.24l-17.57 5.22c.6 2.52 4.27 19.29 4.4 22.23l1.37.21a94.92 94.92 0 0 0 35.48-.09Z"/><circle class="cls-82" cx="282.18" cy="84.65" r="4.25"/><path d="M285 84.65a2.84 2.84 0 1 1-2.84-2.84 2.84 2.84 0 0 1 2.84 2.84Z" style="fill:#868b90"/><path class="cls-82" d="M268.72 88.76a21.94 21.94 0 0 1-16.53-7.18.7.7 0 0 1 1-1c12 12.76 28.13 3.81 28.81 3.42a.7.7 0 0 1 1 .26.69.69 0 0 1-.26 1 31.62 31.62 0 0 1-14.02 3.5Z"/><path class="cls-82" d="M256.89 83.35h-15.66a1.51 1.51 0 0 1-1.47-1.54v-8.33a1.51 1.51 0 0 1 1.47-1.54h15.66a1.51 1.51 0 0 1 1.48 1.54v8.33a1.51 1.51 0 0 1-1.48 1.54Z"/><path style="fill:#0fc4bd" d="M241.89 73.74h14.35v7.81h-14.35z"/><path style="fill:#eeeeef" d="M242.22 74.19h13.68v6.91h-13.68z"/><path class="cls-77" d="M253.55 80.22a1.87 1.87 0 0 1-.6-.34l.09.27h-8.94v-4.58l.22.13-.32-.7-.29.71.22-.13v4.72H253l-.09.27a2.08 2.08 0 0 1 .64-.35Z"/><path class="cls-30" d="m244.87 79.54-.34-.11a4.41 4.41 0 0 1 .92-1.64.8.8 0 0 1 .76-.28c.4.09.65.54.79.9.06.16.19.42.36.42.23 0 .57-.43.75-.94l.1-.31c.18-.61.46-1.54 1.16-1.61.89-.1 1 .92 1.15 1.66a3.29 3.29 0 0 0 .16.76c.1.2.2.32.28.33s.32-.16.45-.3a1.29 1.29 0 0 1 1.28-.45l-.06.34a.94.94 0 0 0-1 .35c-.23.24-.47.44-.75.4s-.38-.19-.54-.52a2.9 2.9 0 0 1-.19-.86c-.12-.83-.22-1.43-.77-1.37s-.71.85-.87 1.37c0 .12-.07.23-.1.33-.14.4-.55 1.17-1.08 1.17-.29 0-.52-.22-.69-.65s-.34-.64-.54-.68a.5.5 0 0 0-.44.19 4 4 0 0 0-.79 1.5Z"/></g><g style="clip-path:url(#clip-path-5)"><circle class="cls-47" cx="253.88" cy="173.83" r="40.2" transform="rotate(-75.18 253.9 173.829)"/><path class="cls-14" d="M250.14 215.32c-5.83-22.87 2.89-57.94 2.89-59.82s-18.51-6.22-21.46-7.61-3.83-20-3.83-20l-14.06 5.45v82Z"/><path class="cls-15" d="M249.85 215.32c-.87-3.12-1.51-12.06-1.57-13.12-.27-5 .34-10.07.16-15.06-1.76.3-4.6-4.49-4.6-4.49-.26 6.11-5.94 12.81-6.17 16.62a64.13 64.13 0 0 1-.79 9.18 13.78 13.78 0 0 1-1.57 4.37l-1.43 2.5ZM225.41 158.63a42.63 42.63 0 0 0 7-1.54c2.36-.83 4.69-.94 9.33-.8a17.49 17.49 0 0 0-9-.56c-.92.18-1.84.36-2.77.51-2.58.43-5 .85-7.22 2.33a25.32 25.32 0 0 0-2.84 2.23c1.72-.64 3.61-1.8 5.5-2.17Z"/><path class="cls-14" d="M259.57 215.32c.36-2.76 1-8.26 1.3-14.26.15-3.16-.47-6.54-.33-9.62.26-5.76.46-10.78.5-12.87.12-6.23 1.56-14.06-.2-19-2.33-6.51-12.46-6.51-12.46-6.51-1.24 1.85-1.22 6.65-1.56 10.22s-1.72 6.06-2.76 12.4c-.67 4.11-.24 11.58-.48 17.91 0 1.33.72 15.16 1.68 21.71Z"/><path class="cls-15" d="M243.68 181.42c-.06 3.76 0 8.21-.1 12.19 0 .35 0 1.56.12 3.26.7-1.23.37-3.33.75-4.64 1.03-3.55.55-6.75-.77-10.81ZM261.7 166.26a42.45 42.45 0 0 1-1.14 4.7c-.77 2.39-1.63 3.88-2.08 6.28-.34 1.77.68 3.51.68 6.53a17.14 17.14 0 0 0 1.43 6.54c.23-5.28.42-9.79.45-11.74.07-3.84.65-8.3.66-12.31Z"/><path d="m289.28 166.41-6.56 4.77 1.87 2.09 5.55-6.09c-.3-.24-.58-.5-.86-.77Z" style="fill:#bbe3ff;mix-blend-mode:multiply"/><path class="cls-88" d="m273.95 183.05 12.9-11.53-2.14-2.38-12.9 11.52 2.14 2.39z"/><path class="cls-27" d="M283.38 168.64c-.11.1-.09.32.07.49l3.26 3.64c.15.17.37.23.49.12l.33-.3c.12-.1.09-.33-.06-.5l-3.26-3.63c-.16-.17-.38-.23-.49-.12Z"/><path style="fill:#a677c5" d="m261.49 192.14 8.71-7.54-.35-.38-8.44 7.84.08.08z"/><path class="cls-88" transform="rotate(-41.85 289.698 166.826)" d="M289.27 165.42h.84v2.8h-.84z"/><path style="fill:#64bcba" d="m270.12 185.1 3.32-2.62-1.12-1.25-2.97 3.02.77.85z"/><path d="m286.43 168.49-1.33 1-.89-1c-.16-.17-.38-.23-.49-.12l-.34.3c-.11.1-.09.32.07.49l.56.63-1 .89 2.05 2.47 1.08-1 .57.62c.15.17.37.23.49.12l.33-.3c.12-.1.09-.33-.06-.5l-.9-1 1.08-1.19Z" style="fill:#bbdef2;mix-blend-mode:multiply"/><path style="fill:#b1e2f4;mix-blend-mode:multiply" d="m273.71 182.76 12.89-11.53-.91-.82-12.74 11.5.76.85z"/><path d="M284.21 168.46c-.16-.17-.38-.23-.49-.12l-.34.3c-.11.1-.09.32.07.49l.56.63 2.13 2.39.57.62c.15.17.37.23.49.12l.33-.3c.12-.1.09-.33-.06-.5l-.9-1-1.47-1.65Z" style="fill:#ecf7ff"/></g><circle class="cls-47" cx="112.07" cy="182.92" r="19.02"/><path class="cls-13" d="M108.37 173.62c0 1.72-1.84 3.12-4.11 3.12s-4.11-1.4-4.11-3.12 1.84-3.11 4.11-3.12 4.11 1.4 4.11 3.12Z"/><path class="cls-94" d="M107.28 172.42c0 .66-.76 1.2-1.69 1.2s-1.7-.54-1.7-1.2.76-1.19 1.7-1.19 1.69.53 1.69 1.19Z"/><path class="cls-95" d="M105.25 174.89c-2.27 0-4.11-1.39-4.11-3.11a1.09 1.09 0 0 1 0-.18 2.7 2.7 0 0 0-1 2c0 1.72 1.84 3.12 4.11 3.12s4-1.31 4.1-3a4.71 4.71 0 0 1-3.1 1.17Z"/><ellipse class="cls-13" cx="114.2" cy="174.31" rx="4.11" ry="3.12"/><path class="cls-94" d="M117.22 173.22c0 .66-.76 1.2-1.69 1.2s-1.7-.54-1.7-1.2.76-1.2 1.7-1.2 1.69.54 1.69 1.2Z"/><path class="cls-95" d="M115.18 175.58c-2.27 0-4.11-1.4-4.12-3.12a.88.88 0 0 1 0-.17 2.69 2.69 0 0 0-1 2c0 1.72 1.84 3.11 4.11 3.11s4-1.3 4.1-2.94a4.71 4.71 0 0 1-3.09 1.12Z"/><path d="M108.58 184.07c-.1 1.57-2.5 2.7-5.35 2.52s-5.09-1.61-5-3.18 2.49-2.71 5.35-2.53 5.1 1.61 5 3.19Z" style="fill:url(#radial-gradient-8)"/><path d="M103.59 180.88h-.09a5.35 5.35 0 0 1 .78 2 4.48 4.48 0 0 1-1.27 3.67h.26c2.85.18 5.25-1 5.35-2.52s-2.18-2.96-5.03-3.15Z" style="fill:url(#radial-gradient-9)"/><path class="cls-7" d="M101.87 184a3.83 3.83 0 0 1-2.82-1.68 1.68 1.68 0 0 0-.59 1.11c-.09 1.44 2.05 2.75 4.78 2.93s5-.86 5.12-2.3a1.57 1.57 0 0 0-.23-.88 8.82 8.82 0 0 1-6.26.82Z"/><path d="M114.39 181.74c-.37 1.54-2.92 2.25-5.7 1.59s-4.74-2.45-4.38-4 2.92-2.25 5.7-1.59 4.74 2.46 4.38 4Z" style="fill:url(#radial-gradient-10)"/><path d="M110 177.76h-.09a5.56 5.56 0 0 1 .44 2.09 4.47 4.47 0 0 1-1.87 3.4l.25.07c2.78.66 5.33-.05 5.7-1.59s-1.64-3.31-4.43-3.97Z" style="fill:url(#radial-gradient-11)"/><path class="cls-7" d="M107.79 180.52a3.87 3.87 0 0 1-2.49-2.14 1.7 1.7 0 0 0-.77 1c-.33 1.4 1.56 3.06 4.22 3.69s5.1 0 5.43-1.4a1.51 1.51 0 0 0-.08-.91 8.83 8.83 0 0 1-6.31-.24Z"/><path d="M126 177.86c.49 1.5-1.31 3.44-4 4.33s-5.32.4-5.81-1.1 1.31-3.44 4-4.33 5.29-.4 5.81 1.1Z" style="fill:url(#radial-gradient-12)"/><path d="M120.16 176.76h-.09a5.38 5.38 0 0 1 1.46 1.55 4.48 4.48 0 0 1 .19 3.88v.05l.25-.08c2.72-.89 4.52-2.83 4-4.33s-3.1-1.96-5.81-1.07Z" style="fill:url(#radial-gradient-13)"/><path class="cls-7" d="M119.7 180.27a3.88 3.88 0 0 1-3.24-.52 1.7 1.7 0 0 0-.13 1.26c.45 1.37 2.92 1.79 5.53.93s4.34-2.65 3.89-4a1.52 1.52 0 0 0-.54-.73 8.8 8.8 0 0 1-5.51 3.06Z"/><path d="m122.76 191.43-7.72-.69a1.89 1.89 0 0 1-1.71-2.05 1.9 1.9 0 0 1 2-1.71l7.72.7a1.88 1.88 0 0 1 1.71 2 1.89 1.89 0 0 1-2 1.75Z" style="fill:url(#radial-gradient-14)"/><path d="m119.21 187.29-3.83-.35a1.9 1.9 0 0 0-2 1.71 1.88 1.88 0 0 0 1.71 2l3.83.35Z" style="fill:url(#linear-gradient)"/><path class="cls-104" d="m123.15 190-4.15-.38-4.09-.36a2.11 2.11 0 0 1-1.41-.71v.07a1.84 1.84 0 0 0 1.66 2l3.73.33 3.79.34a1.83 1.83 0 0 0 2-1.66v-.07a2.11 2.11 0 0 1-1.53.44Z"/><path d="m110.79 198.14-7.3-2.6a1.88 1.88 0 0 1-1.15-2.4 1.89 1.89 0 0 1 2.41-1.14l7.31 2.59a1.89 1.89 0 0 1 1.14 2.41 1.88 1.88 0 0 1-2.41 1.14Z" style="fill:url(#radial-gradient-15)"/><path d="m108.39 193.25-3.63-1.25a1.89 1.89 0 0 0-2.41 1.14 1.88 1.88 0 0 0 1.15 2.4l3.63 1.29Z" style="fill:url(#linear-gradient-2)"/><path class="cls-104" d="m111.52 196.87-3.92-1.4-3.88-1.37a2.1 2.1 0 0 1-1.18-1 1.83 1.83 0 0 0 1.12 2.34l3.53 1.25 3.57 1.27a1.83 1.83 0 0 0 2.34-1.11 2.14 2.14 0 0 1-1.58.02Z"/><path d="m113.89 189.92-7.53 1.87a1.88 1.88 0 0 1-2.28-1.37 1.88 1.88 0 0 1 1.38-2.28l7.52-1.87a1.87 1.87 0 0 1 2.28 1.37 1.87 1.87 0 0 1-1.37 2.28Z" style="fill:url(#radial-gradient-16)"/><path d="m109.18 187.17-3.73.93a1.88 1.88 0 0 0-1.38 2.28 1.88 1.88 0 0 0 2.28 1.37l3.74-.93Z" style="fill:url(#linear-gradient-3)"/><path class="cls-104" d="m113.8 188.46-4 1-4 1a2.08 2.08 0 0 1-1.56-.21v.07a1.82 1.82 0 0 0 2.22 1.33l3.63-.9 3.69-.92a1.84 1.84 0 0 0 1.34-2.22v-.07a2.08 2.08 0 0 1-1.32.92Z"/><path class="cls-13" d="M88.93 26.19c0 3.14-3.36 5.69-7.5 5.69s-7.5-2.54-7.5-5.68 3.35-5.69 7.5-5.69 7.5 2.54 7.5 5.68Z"/><path class="cls-94" d="M86.93 24c0 1.21-1.38 2.18-3.08 2.18s-3.09-1-3.1-2.18 1.39-2.18 3.09-2.18 3.09.98 3.09 2.18Z"/><path class="cls-95" d="M83.23 28.51c-4.15 0-7.5-2.54-7.51-5.68v-.32A4.94 4.94 0 0 0 74 26.2c0 3.14 3.36 5.68 7.5 5.68s7.26-2.38 7.48-5.37a8.64 8.64 0 0 1-5.75 2Z"/><path class="cls-13" d="M75 35.77c0 3.14-3.35 5.68-7.49 5.68S60 38.91 60 35.77s3.36-5.68 7.5-5.68 7.5 2.54 7.5 5.68Z"/><path class="cls-94" d="M73 33.79C73 35 71.65 36 69.94 36s-3.09-1-3.09-2.18 1.38-2.19 3.09-2.19 3.06.95 3.06 2.16Z"/><path class="cls-95" d="M69.3 38.09c-4.14 0-7.5-2.54-7.5-5.68v-.32a4.94 4.94 0 0 0-1.8 3.68c0 3.14 3.36 5.69 7.51 5.68 4 0 7.25-2.37 7.47-5.36a8.6 8.6 0 0 1-5.68 2Z"/><path d="M33.45 120.57c-.21 3.35-5.3 5.75-11.37 5.37s-10.81-3.42-10.6-6.77 5.3-5.75 11.37-5.37 10.82 3.42 10.6 6.77Z" style="fill:url(#radial-gradient-17)"/><path d="M22.85 113.8h-.19a11.49 11.49 0 0 1 1.66 4.2 9.51 9.51 0 0 1-2.69 7.79l-.1.09h.55c6.07.38 11.16-2 11.37-5.37s-4.53-6.32-10.6-6.71Z" style="fill:url(#radial-gradient-18)"/><path class="cls-7" d="M19.19 120.37c-2.72-.46-4.85-1.65-6-3.58a3.59 3.59 0 0 0-1.19 2.37c-.2 3.06 4.36 5.84 10.16 6.21s10.63-1.81 10.84-4.87a3.29 3.29 0 0 0-.49-1.87c-4.2 2.37-8.45 2.57-13.32 1.74Z"/><path d="M21.52 107.87c-.78 3.26-6.2 4.77-12.12 3.37s-10.08-5.19-9.31-8.46 6.2-4.78 12.12-3.37 10.08 5.19 9.31 8.46Z" style="fill:url(#radial-gradient-19)"/><path d="M12.21 99.41h-.19a11.62 11.62 0 0 1 .98 4.39 9.51 9.51 0 0 1-4 7.2l-.11.07.53.14c5.92 1.4 11.34-.11 12.12-3.37s-3.42-7.02-9.33-8.43Z" style="fill:url(#radial-gradient-20)"/><path class="cls-7" d="M7.49 105.27c-2.6-.92-4.5-2.45-5.3-4.54a3.61 3.61 0 0 0-1.63 2.12c-.71 3 3.31 6.5 9 7.84s10.83 0 11.54-3a3.23 3.23 0 0 0-.17-1.93c-4.56 1.71-8.78 1.15-13.44-.49Z"/><path d="M46.13 99.63c1 3.19-2.79 7.31-8.57 9.21s-11.31.84-12.35-2.35 2.78-7.31 8.56-9.2 11.31-.85 12.36 2.34Z" style="fill:url(#radial-gradient-21)"/><path d="m33.77 97.29-.18.06a11.57 11.57 0 0 1 3.11 3.29 9.53 9.53 0 0 1 .39 8.24L37 109l.53-.15c5.78-1.9 9.61-6 8.57-9.21s-6.55-4.25-12.33-2.35Z" style="fill:url(#radial-gradient-22)"/><path class="cls-7" d="M32.81 104.74c-2.7.58-5.11.27-6.89-1.1a3.57 3.57 0 0 0-.28 2.67c.95 2.91 6.21 3.8 11.74 2s9.24-5.65 8.29-8.56a3.29 3.29 0 0 0-1.15-1.56c-2.99 3.81-6.88 5.52-11.71 6.55Z"/><path d="m244.56 38.76-15.48-1.4a3.77 3.77 0 0 1-3.43-4.1v-.07a3.79 3.79 0 0 1 4.1-3.43l15.49 1.4a3.76 3.76 0 0 1 3.42 4.1v.07a3.79 3.79 0 0 1-4.1 3.43Z" style="fill:url(#radial-gradient-23)"/><path d="m237.45 30.46-7.69-.7a3.79 3.79 0 0 0-4.1 3.43v.07a3.77 3.77 0 0 0 3.43 4.1l7.69.7Z" style="fill:url(#linear-gradient-4)"/><path class="cls-104" d="m245.35 35.93-8.35-.75-8.21-.74A4.22 4.22 0 0 1 226 33a.13.13 0 0 1 0 .06v.07a3.68 3.68 0 0 0 3.33 4l7.48.67 7.58.68a3.66 3.66 0 0 0 4-3.33V35a4.22 4.22 0 0 1-3.04.93Z"/><path d="m222.08 46.45-14.66-5.21a3.78 3.78 0 0 1-2.29-4.82v-.07a3.78 3.78 0 0 1 4.83-2.3l14.65 5.21a3.77 3.77 0 0 1 2.3 4.82v.08a3.78 3.78 0 0 1-4.83 2.29Z" style="fill:url(#radial-gradient-24)"/><path d="M217.25 36.64 210 34.05a3.78 3.78 0 0 0-4.83 2.3v.07a3.78 3.78 0 0 0 2.29 4.82l7.28 2.59Z" style="fill:url(#linear-gradient-5)"/><path class="cls-104" d="m223.54 43.9-7.88-2.79-7.77-2.77a4.14 4.14 0 0 1-2.37-2.07v.13a3.67 3.67 0 0 0 2.23 4.69l7.08 2.52 7.17 2.55a3.67 3.67 0 0 0 4.69-2.23v-.13a4.21 4.21 0 0 1-3.15.1Z"/><path d="M230.07 28.42 215 32.18a3.78 3.78 0 0 1-4.58-2.76v-.07a3.78 3.78 0 0 1 2.75-4.58L228.23 21a3.76 3.76 0 0 1 4.57 2.75v.07a3.77 3.77 0 0 1-2.73 4.6Z" style="fill:url(#radial-gradient-25)"/><path d="m220.63 22.91-7.5 1.86a3.78 3.78 0 0 0-2.75 4.58v.07a3.78 3.78 0 0 0 4.62 2.76l7.49-1.87Z" style="fill:url(#linear-gradient-6)"/><path class="cls-104" d="m229.88 25.49-8.11 2-8 2a4.23 4.23 0 0 1-3.13-.41s0 0 0 .06v.07a3.68 3.68 0 0 0 4.46 2.68l7.29-1.82 7.39-1.84a3.67 3.67 0 0 0 2.67-4.45v-.07a.14.14 0 0 1 0-.06 4.18 4.18 0 0 1-2.57 1.84Z"/></g></g></g></svg>