<svg xmlns="http://www.w3.org/2000/svg" viewBox="0 0 789.03 945.18"><defs><style>.cls-1{fill:#ff6a68}.cls-2{fill:#fcbba7}.cls-3{fill:#69505c}.cls-6{fill:#f6efea}.cls-7{fill:#f19184}.cls-8{fill:#3d2f39}</style></defs><g id="Capa_2" data-name="Capa 2"><g id="illustration"><path class="cls-1" d="M623.29 19.94c-68.38-28.62-142.7-41.26-220 67.53C339.12 170 461 268.36 472 295.86s51.72 125 11.84 261.17S573.26 823.77 664 774.27s114.13-236.49 111.38-290.12-41.25-184.24-41.25-214.49 21.17-102.14 9.25-167.22-89.84-88.92-120.09-82.5Z"/><path class="cls-2" d="M636.47 827.19c-1.2-2.94-2.53-5.86-4-8.73l-.88-1.7a156.37 156.37 0 0 1-12.75-111.85l6.45-24.8c-104.64-48.64-215.95-52.66-272-50.87a373.76 373.76 0 0 1 12 36c12.1 43 8.43 140.79 5.61 189.85a216.78 216.78 0 0 0-6.51 20.84c115.92 54.21 266.7-45.15 272.08-48.74Z"/><path class="cls-3" d="M668.87 897.92v.08l-5.63 47.2H350.77c3-17.69 6-34.28 9.18-49.6 1.33-7 2.82-13.54 4.42-19.68 116 54.24 266.73-45.12 272.1-48.71.6 1.48 1.18 3 1.7 4.45v.05c13.91 15.42 24.37 32.5 28.65 48.38a55 55 0 0 1 2.05 17.83ZM625.26 680.11 647.15 596l12.13-46.61c18.68-71.75-35.48-141.8-109.62-141.8h-55.4a113.35 113.35 0 0 0-89.88 44.32c-30.22 39.34-69.16 93.43-70.28 112.43a71.89 71.89 0 0 0 .16 11.06c1.58 16.94 9.39 29.38 19 53.81 56.05-1.76 167.36 2.26 272 50.9Z"/><path d="M413.94 598.22a38.81 38.81 0 0 1 7-2.88c1.2-.37 2.41-.68 3.63-1s2.45-.49 3.68-.73a64.09 64.09 0 0 1 15-.64c1.25.12 2.51.21 3.77.36s2.5.42 3.75.63a52.47 52.47 0 0 1 7.36 1.94c1.2.42 2.4.85 3.57 1.33s2.32 1.06 3.44 1.65l1.68.88c.55.32 1.08.68 1.61 1 1.06.69 2.09 1.44 3.1 2.18l.17.13a1.83 1.83 0 0 1-1.84 3.14l-3.18-1.45-1.59-.72-1.65-.58c-1.11-.38-2.19-.8-3.31-1.15l-3.38-.91a75.64 75.64 0 0 0-13.9-2.1 95.09 95.09 0 0 0-14.12.18c-2.35.21-4.7.48-7 .86s-4.67.82-6.86 1.37a1.82 1.82 0 0 1-1.32-3.35Z" style="fill:#4f3743"/><path d="M563.25 650.62a152.78 152.78 0 0 0 .13 30.06c4.74 52 28.75 114.17 28.75 114.17l-1.88 6.95-2.09 7.71s.6 1.23 3.05 7.34c-20.47 48.89-42.78 37-62.64 38.2a19.66 19.66 0 0 0-4.43.78 30 30 0 0 0-10 5.45c-11.1 8.74-18.16 22.57-22.81 13.93-9.17-22.91-31.17-111.83-15.58-178.75a211.3 211.3 0 0 1-6.27-21c-34.93-144.29 106-249.81 106-249.81s-56.61-28.37-81.06-11.26c-54.39 65.39-68.14 197.7-69.51 205s-6 16-11.46 28.41a133.52 133.52 0 0 0-2.27 23.49c-1.19 48.2 11.21 122.9 5 121.35-5.74-1.44-25.23-21.11-33.87-32.68-2.4-3.21-4-5.8-4.17-7.2-.25-1.73-1.73-4-3.89-6.5-5.87-6.91-16.76-16.17-21.78-24.2-6.88-11-25.21-31.17-7.79-103.59 20.17-114.59 62.33-154 88-186.39s65.39-69.67 114.29-65.4 75.16 25.06 75.77 42.17a81.11 81.11 0 0 1 6.81 6.36c19.27 20.28 17.92 42.13 9.08 61.47-9 19.66-60 104.3-72.86 159.87a122.76 122.76 0 0 0-2.52 14.07Z" style="fill:#fff"/><path class="cls-6" d="M622.68 408.92s-7.64 27.2-6.26 46.9c0 0 3.52-26 13.07-40.54a81.11 81.11 0 0 0-6.81-6.36ZM469.44 675.49a211.3 211.3 0 0 0 6.27 21s9.16-89.84 33-144.38c-20.62 39.46-34.05 97.89-39.27 123.38ZM411.1 671.36a133.52 133.52 0 0 1 2.27-23.49s-1.37-74.25 3.21-106.33c-13.12 47.23-10.74 98.46-5.48 129.82ZM380.37 672.62c-5.65-3.39-4.49 49.24-6.18 73.71 2.16 2.54 3.64 4.77 3.89 6.5.2 1.4 1.77 4 4.17 7.2 1.17-23.58 3.65-84.09-1.88-87.41ZM565.71 636.62c-7.94 22.78-28.47 85.34-35.31 142 9.09-34.43 21.54-76 33-98a152.78 152.78 0 0 1-.13-30.06 122.76 122.76 0 0 1 2.44-13.94ZM569 742.06c-11.46 37.36 19.18 67.45 19.18 67.45l2.09-7.71c-24.76-26.5-18.63-66.8-21.27-59.74ZM514.1 861.28a30 30 0 0 1 10-5.45c-1.64-6.47-16.2-63.4-21.39-68.16-4.93-4.56 9.57 38.83 11.39 73.61Z"/><path class="cls-2" d="M575.4 376.16v49.43c-20.94 13.75-64.63 15.58-84.8 0v-46.82a166.77 166.77 0 0 0 25.4 3.47 190.46 190.46 0 0 0 59.4-6.08Z"/><path class="cls-7" d="M575.4 376.16v11.07c-15.37 5.69-43.3 13.21-84.8 13.88v-22.34a166.77 166.77 0 0 0 25.4 3.47 190.46 190.46 0 0 0 59.4-6.08Z"/><path class="cls-2" d="M673.17 245.16C688.33 334.51 600.32 387 516 382.23c-62.24-3.49-142.72-47.05-136-122.23 2.65-29.43 16-34.5 21.86-61.78a42.78 42.78 0 0 0 .94-9.38 180.48 180.48 0 0 1 4.49-42.54 337.36 337.36 0 0 1 177.38-75.84c2.12 17.09 12.46 73.3 58.18 93.6 15.64 12.94 12.65 32.86 23.83 26.38a5.58 5.58 0 0 0 .84-.59 1.34 1.34 0 0 0 .57-.34c63.72-63.77 45.09 74.49 5.08 55.65Z"/><path class="cls-8" d="M592.86 185.25a10.62 10.62 0 0 0-16.79 8.63v14.87a10.65 10.65 0 0 0 10.62 10.62 10.48 10.48 0 0 0 5.41-1.49 10.63 10.63 0 0 0 5.21-9.13v-14.87a10.63 10.63 0 0 0-4.45-8.63ZM470.28 185.25a10.62 10.62 0 0 0-16.79 8.63v14.87a10.62 10.62 0 0 0 21.24 0v-14.87a10.63 10.63 0 0 0-4.45-8.63Z"/><path class="cls-1" d="M471.71 144.41a26 26 0 0 0-6.95.37 38 38 0 0 0-6.48 1.87 46.2 46.2 0 0 0-6 2.87 35.92 35.92 0 0 0-5.48 3.8 3.44 3.44 0 0 0 3.66 5.76l.24-.1 5.21-2.42c1.76-.79 3.53-1.54 5.3-2.22s3.55-1.27 5.32-1.81 3.52-.91 5.3-1.26l.26-.05a3.44 3.44 0 0 0-.41-6.81ZM604.07 153.05a37.4 37.4 0 0 0-5.48-3.8 44.87 44.87 0 0 0-6-2.86 36.86 36.86 0 0 0-6.48-1.87 26.39 26.39 0 0 0-6.95-.38 3.45 3.45 0 0 0-.4 6.82h.25c1.78.35 3.53.76 5.3 1.26s3.55 1.11 5.32 1.8 3.54 1.44 5.3 2.22l5.21 2.42.24.11a3.45 3.45 0 0 0 3.66-5.77Z"/><path class="cls-7" d="M531.92 214.9c0 3.22-4.92 7.35-11 7.35s-11-4.13-11-7.35 4.93-2.2 11-2.2 11-1.03 11 2.2ZM615.21 247.14h-24.27a5.79 5.79 0 0 1-5.76-5.77 5.79 5.79 0 0 1 5.76-5.77h24.27a5.78 5.78 0 0 1 5.77 5.77 5.8 5.8 0 0 1-5.77 5.77ZM445.6 247.14h-24.28a5.79 5.79 0 0 1-5.76-5.77 5.79 5.79 0 0 1 5.76-5.77h24.28a5.78 5.78 0 0 1 4.64 2.36 5.71 5.71 0 0 1 1.12 3.41 5.78 5.78 0 0 1-5.76 5.77ZM689.59 202.61A1.21 1.21 0 0 0 688 202a34.63 34.63 0 0 0-6.63 4.06 36.36 36.36 0 0 0-5.62 5.41l-.61.77-.3.39a4.26 4.26 0 0 0-.41.58 3 3 0 0 0 1.39 4.11 2.91 2.91 0 0 0 1.16.25h.48a3.22 3.22 0 0 1 .7 0 2.93 2.93 0 0 1 .68.12 3.6 3.6 0 0 1 .66.2 6 6 0 0 1 2.32 1.67 7.13 7.13 0 0 1 .89 1.23 7.77 7.77 0 0 1 .5 1.11l.31.64a1.12 1.12 0 0 0 .86.61 1.11 1.11 0 0 0 1.24-1 5.3 5.3 0 0 0-.31-2.5 8.57 8.57 0 0 0-1-2 8.3 8.3 0 0 0-3.42-3 6.39 6.39 0 0 0-1.1-.42 5.82 5.82 0 0 0-1.15-.27h-.33l.22-.28a43.52 43.52 0 0 1 4.92-5.16 52 52 0 0 1 5.66-4.43 1.21 1.21 0 0 0 .48-1.48ZM517.55 287.74c1.06 0 2.21.07 3.3.05a26.56 26.56 0 0 0 3.24-.23 17.89 17.89 0 0 0 3.1-.71 19.39 19.39 0 0 0 2.94-1.28l.1-.05a1 1 0 0 1 1.33.46 1 1 0 0 1-.18 1.14 10.75 10.75 0 0 1-3.16 2.26 13.07 13.07 0 0 1-3.7 1.12 15.2 15.2 0 0 1-3.81.09 12.59 12.59 0 0 1-3.69-.93 1 1 0 0 1-.52-1.32 1 1 0 0 1 1-.6ZM496.1 268c1 .37 2 .78 3 1.14s2.06.63 3.11.85 2.09.5 3.16.62 2.13.33 3.21.36a60.9 60.9 0 0 0 6.48 0c1.08-.11 2.16-.12 3.23-.3s2.15-.28 3.21-.51 2.13-.41 3.18-.68 2.11-.53 3.14-.86 2.06-.69 3.08-1.07 2-.84 3-1.25l2.93-1.41 2.82-1.63 2.73-1.78c.84-.68 1.71-1.34 2.59-2a1.84 1.84 0 0 1 2.67 2.45l-.1.16a30.7 30.7 0 0 1-10.75 10.13c-1.07.64-2.19 1.17-3.31 1.74s-2.28 1-3.44 1.45-2.38.73-3.57 1.1-2.43.59-3.65.82a41.79 41.79 0 0 1-14.92 0 29 29 0 0 1-13.55-6.14l-.1-.08a1.85 1.85 0 0 1 1.85-3.11Z"/><path class="cls-2" d="M782.21 685.76c-6.51 13.38-13.27 26.9-20.24 40.38C732.88 782.4 700.15 838 666.58 880.4c-2.81 12.6-22.94 21.1-33 16.58-11.88-5.32-15.59-8-15.59-8s-36 5.47-38.85 1.63c-2.75-3.65 28.42-25.73 38.16-28.22-2.48-1.77-5.58-4.24-5.42-5.48.14-1 8.31-.12 16.66 1.42 28.35-78.68 56.39-155.46 79.27-198.23-27.15-26.81-53-52.68-75.8-76.4a11.26 11.26 0 0 1-.85-1c-13.95-18.37-11.73-105 21.4-109a4.76 4.76 0 0 1 .62.35 50 50 0 0 1 10.76 9c15.81 17.55 43.92 49.34 76.5 88.91 10.94 13.29 22.39 27.46 34 42.26a67.73 67.73 0 0 1 7.77 71.54ZM351.57 720.81a70.31 70.31 0 0 1-26.65 12.89c-26.31 6.41-53.59 12.53-80.9 17.89-54.21 10.64-108.54 18.29-155.62 19.29a66.92 66.92 0 0 1-8.62 7.68 85.98 85.98 0 0 1-6.93 4.69 104.72 104.72 0 0 1-17.92 8.63c-3.1 1.14-6.24 2.18-9.42 3.07s-6.32 1.56-9.52 2.13a3.31 3.31 0 0 1-3.83-2.33 3.21 3.21 0 0 1 2.38-3.92 111.16 111.16 0 0 0 14.17-4.29 1.21 1.21 0 0 0 .8-1.27 1.48 1.48 0 0 0-1.85-1.15c-2.8.72-7.32 1.63-11.14 2.38s-6.93 1.31-6.93 1.31c-1.07.22-2.15.42-3.23.61-2.12.38-4.24.7-6.38 1-1.08.12-2.15.24-3.24.33s-2 .13-3.2.16a3.32 3.32 0 0 1-3.39-2.8 3.21 3.21 0 0 1 2.54-3.56h.2l2.88-.58 3-.67c2-.44 4-.94 6-1.42q6-1.49 12-3.12c1-.29 2-.56 3-.82l2.35-.67a1.93 1.93 0 0 0 .88-.86 2.45 2.45 0 0 0-2.76-3.45C34.55 773 20 776 12.17 776.79c-1.06.12-2.15.23-3.24.31s-2 .14-3.2.15a3.32 3.32 0 0 1-3.37-2.8 3.22 3.22 0 0 1 2.52-3.56h.2l2.92-.65 3-.67c2-.45 4-.94 6-1.42q6-1.49 12-3.11l3-.79 3-.84c1.25-.33 2.51-.68 3.76-1a2.71 2.71 0 0 0 1.86-2 1.58 1.58 0 0 0-1.89-1.81c-4.11.83-16.08 3.19-21.6 3.81-1.06.14-2.13.3-3.2.42a60.28 60.28 0 0 1-6.46.45A3.32 3.32 0 0 1 4 760.46a3.22 3.22 0 0 1 2.51-3.56h.2l2.88-.62 3-.67c2-.45 4-.94 6-1.42q6-1.49 12-3.08c4-1.05 8-2.2 12-3.3 1-.28 3.37-1.09 5.26-1.74a2.82 2.82 0 0 0 1.2-4.55c-1.63-1.82-4.2-2.78-8.4-3-1.42-.08-10.27.12-13.4.12h-.06a3.25 3.25 0 0 1-1.16-6.3 59.67 59.67 0 0 1 9.53-2.61 88.1 88.1 0 0 1 9.72-1.37 148.27 148.27 0 0 1 19.72-.52 79.93 79.93 0 0 1 10.1 1l1.32.24 3.58-1.21c87.94-31.06 174.07-61.06 220.79-67.92 12.11-25.53 24-50.31 35.45-73.54 2.09 7.9 5.5 15.61 9.65 25.2-.43 2.28-.85 4.58-1.26 6.93-16.76 69.62-.46 90.94 6.94 102.27Z"/><path d="M53.33 622.25a1.3 1.3 0 0 0-1.2-1.38h-24a1.3 1.3 0 0 0-1.13 1.38v.89h26.33Z" style="fill:#e34240"/><path class="cls-3" d="M48.14 610.18c0-3.54-2.49-6.4-5.55-6.4h-4.9c-3.06 0-5.55 2.86-5.55 6.4v10.69h16Z"/><path d="M69 694.18c1.12-3.56 9-7.45 9.54-12.95S60.9 642.07 60.9 642.07H19.38S1.13 675.73 1.7 681.23s8.42 9.39 9.54 12.95S.57 710.36.57 718.78c-2.52 71.65 4 112.84 6.4 125.53a15 15 0 0 0 3.44 7.12l9 10.18a4.34 4.34 0 0 0 3.23 1.52h35a4.34 4.34 0 0 0 3.23-1.52l9-10.18a15 15 0 0 0 3.44-7.12c2.45-12.69 8.92-53.88 6.4-125.53 0-8.42-11.79-21.04-10.71-24.6Z" style="fill:#57c8cc"/><path class="cls-1" d="M61.56 642.07a2.49 2.49 0 0 0 2.29-2.64v-12a4 4 0 0 0-3.68-4.24H20.11a4 4 0 0 0-3.68 4.24v12a2.49 2.49 0 0 0 2.29 2.64h42.84Z"/></g></g></svg>