<svg xmlns="http://www.w3.org/2000/svg" viewBox="0 0 568.15 568.12"><defs><style>.cls-4{fill:#fff}.cls-5{fill:#998675}.cls-11{fill:#fef9ea}.cls-16{fill:#ccc}.cls-18{fill:#534741}.cls-21{fill:#9ab76c}.cls-22{fill:#738951}.cls-24,.cls-40{fill:#b3b3b3}.cls-25{fill:#fbb03b}.cls-27{fill:#ecfad5}.cls-34{fill:#947455}.cls-36{fill:#9e856a}.cls-40{opacity:.3}</style></defs><g id="Capa_2" data-name="Capa 2"><g id="Layer_1" data-name="Layer 1"><path d="M307.9 194.65a92.08 92.08 0 0 1 35.15 18.1L465.12 65.16a283 283 0 0 0-104.45-54.7Z" style="fill:#b9d678"/><path d="M289.72.05A283.54 283.54 0 0 0 65.18 103l147.59 122.08a92.64 92.64 0 0 1 95.13-30.43l52.77-184.19A283.84 283.84 0 0 0 289.72.05Z" style="fill:#f2a977"/><path d="M343.05 212.75a92.54 92.54 0 1 1-130.28 12.33L65.18 103c-100 120.9-83 300 37.85 400A284.06 284.06 0 0 0 503 465.1c100-120.89 83-300-37.85-399.94Z" style="fill:#9adbd0"/><circle class="cls-4" cx="280.63" cy="280.88" r="177.48" transform="rotate(-45 280.637 280.886)"/><path class="cls-5" d="M106.22 386.91a10.84 10.84 0 0 1 3.45 6.89 1.85 1.85 0 0 0 2.28 1.44 2.14 2.14 0 0 0 1.29-2.53 14.24 14.24 0 0 0-4.41-8.71c-1.82-1.67-4.45 1.23-2.61 2.91Z"/><path d="M112.29 480.92c-8 0-14.61-1.55-19.71-4.59a24.23 24.23 0 0 1-10.27-12.18c-8.62-21.79 8.7-57.37 16.62-64.8 3.86-3.61 8.85-5.78 13.36-5.78s9.5 2.17 13.36 5.78c7.92 7.43 25.24 43 16.62 64.8A24.21 24.21 0 0 1 132 476.33c-5.1 3.04-11.73 4.59-19.71 4.59Z" style="fill:#90b36b"/><path d="M123.05 403.93c10.09 9.46 37.19 71.35-10.76 71.35s-20.84-61.89-10.76-71.35a16.38 16.38 0 0 1 10.76-4.72 16.38 16.38 0 0 1 10.76 4.72Z" style="fill:#f6f8ad"/><path d="M117.36 436.1c4.21 4.29 10.58 23.7-5.07 23.7s-9.27-19.41-5.07-23.7a6.7 6.7 0 0 1 10.14 0Z" style="fill:#a67c52"/><path d="M112.29 456.91c-4.57 0-5.89-1.87-6.48-3.29-2-4.83 1.39-13.37 3.48-15.49a3.82 3.82 0 0 1 6 0c2.08 2.12 5.5 10.66 3.47 15.49-.58 1.38-1.9 3.29-6.47 3.29Z" style="fill:#b2865f"/><path class="cls-4" d="M110.85 449.83c0 1.67-.59 3-1.31 3s-1.3-1.36-1.3-3 .59-3 1.3-3 1.31 1.32 1.31 3Z"/><path d="M320.46 523.3c.54-3.8.32-3.84.23-7.67-.17 0-.56-.35-.74-.35-2 0-3-1.3-3-3.39s1-3.38 3-3.38c.18 0 .19-.38.36-.35.09-5.07.52-5.07.52-10.14s.11-5.07.11-10.14 3.15-6.58-.45-10.15-5.12-.1-10.22-.1-5.12.49-10.23.49-5.07-.7-10.08.32c0 2.09-1.77 2.91-3.79 2.91a3.59 3.59 0 0 1-3.63-3.64c-4.16-1-4.29.15-8.57.15s-4.28-.25-8.55-.25-4.29-.58-8.57-.58-6.32-3-8.89.46c-3.43 4.56.54 5.95.54 11.65s-1 5.76 0 11.38a4.1 4.1 0 0 1 4.05 3.81 4.17 4.17 0 0 1-4.13 3.81c-1 4.53-.22 4.61-.22 9.25s-3.29 6.13.15 9.24c3.8 3.44 5.09-.39 10.21-.39s5.13.62 10.26.62 5.13-.71 10.26-.71 5.13 1.19 10.26 1.19 5.12-.9 10.25-1.11c-.15-.4-.65-.4-.65-.86 0-2.09 2.07-3.2 4.08-3.2s3.65 1.11 3.65 3.2a7.27 7.27 0 0 1-.25 1.77c6 .21 6.11.38 12.11-.35a4 4 0 0 1 1.93-3.49Z" style="fill:#fad986"/><path class="cls-11" d="M270.34 514a3.67 3.67 0 0 1-3.77 3.77 4 4 0 0 1-4.16-3.77 4.24 4.24 0 0 1 4.16-4 3.91 3.91 0 0 1 3.77 4ZM283.71 510c0 2.2-1.77 3.42-3.89 3.42S276 512.24 276 510a3.66 3.66 0 0 1 3.84-3.68 3.7 3.7 0 0 1 3.87 3.68ZM298.69 489.56c0 2.2-1.92 4.44-4 4.44s-3.43-2.24-3.43-4.44 1.31-3.73 3.43-3.73a3.87 3.87 0 0 1 4 3.73ZM304.64 507.84a4.7 4.7 0 0 1-4.29 4.41c-2.12 0-3.53-2.21-3.53-4.41a3.21 3.21 0 0 1 3.53-3.42c2.12 0 4.29 1.22 4.29 3.42ZM313.89 492.31a4.27 4.27 0 0 1-8.53 0c0-2.21 2.14-3.78 4.26-3.78s4.27 1.57 4.27 3.78ZM262.59 489.56a3.64 3.64 0 0 1-3.7 3.8 3.56 3.56 0 0 1-3.59-3.8 3.7 3.7 0 0 1 3.59-4 3.79 3.79 0 0 1 3.7 4Z"/><path d="M258.85 493c-.54 3.8-.17 3.8-.08 7.63.17 0 .14-.12.32-.12a4.09 4.09 0 0 1 4 3.86c0 2.09-2 3.45-4 3.45-.18 0 .24.33.07.3-.09 5.07-.17 5.06-.17 10.13s-.57 5.07-.57 10.14-3.47 6.58.13 10.15 5.11-.16 10.22-.16 5.12.58 10.23.58 5.31 1.06 10.32 0c0-2.08 1.53-4.59 3.54-4.59s3.57 2.37 3.57 4.46c4.16 1 4.36-.47 8.64-.47s4.28-.56 8.55-.56h8.57c4.28 0 6.06 4.19 8.63.76 3.42-4.56-.75-5.75-.75-11.46s1.78-5.81.79-11.42a3.77 3.77 0 0 1-3.72-3.77 3.84 3.84 0 0 1 3.83-3.73c1-4.53.22-4.68.22-9.32s3.15-6.34-.29-9.45c-3.8-3.44-5.28.37-10.41.37s-5.12-.74-10.25-.74-5.13.83-10.26.83-5.13-.38-10.26-.38-5.13 0-10.26.26c.15.41-.43.67-.43 1.13 0 2.09-1 3.36-3 3.36a3.18 3.18 0 0 1-3.41-3.36c0-.46-.15-.74 0-1.15-6-.2-6.11-1.09-12.1-.36 0 1.44-.52 2.97-1.67 3.63Z" style="fill:#fce4a9"/><path class="cls-11" d="M294.77 502c0-2.29 1.74-3.5 4-3.5s3.66 1.21 3.66 3.5-1.37 4.73-3.66 4.73-4-2.4-4-4.73Z"/><path class="cls-11" d="M296 506.19c0-2.2 1.12-3.47 3.24-3.47s4.19 1.27 4.19 3.47a4.34 4.34 0 0 1-4.19 4.12c-2.14 0-3.24-1.92-3.24-4.12ZM280.26 526.67c0-2.2 2-3.43 4.13-3.43s3.74 1.23 3.74 3.43a3.55 3.55 0 0 1-3.74 3.65 3.89 3.89 0 0 1-4.13-3.65ZM274.35 508.39c0-2.2 2.22-3.88 4.34-3.88a4 4 0 0 1 4.08 3.88 4.19 4.19 0 0 1-4.08 4.06 4.43 4.43 0 0 1-4.34-4.06ZM265.36 523.92c0-2.2 1.94-3.41 4.06-3.41s3.92 1.21 3.92 3.41-1.8 4.54-3.92 4.54-4.06-2.34-4.06-4.54ZM316.8 526.67a3 3 0 0 1 3.35-3.37c2.12 0 4.47 1.17 4.47 3.37s-2.35 3.66-4.47 3.66-3.35-1.46-3.35-3.66Z"/><path d="M347.31 547c.54-3.8.29-3.84.2-7.68-.17 0-.55.4-.73.4-2 0-3.31-2-3.31-4.13s1.3-4.39 3.31-4.39c.18 0 .8.63 1 .66.09-5.07-.62-5.08-.62-10.14s.06-5.08.06-10.15 3.61-6.46 0-10-5-.39-10.11-.39-5.11.17-10.22.17-5.2-.82-10.21.2c0 2.09-1.65 3.08-3.66 3.08s-3.72-.79-3.72-2.87c-4.15-1-4.2-.76-8.48-.76s-4.28.67-8.56.67-4.28.16-8.56.16-6.47-4.15-9-.73c-3.43 4.56.77 6.06.77 11.77s-1.72 5.87-.73 11.48c2 0 4.11 1.62 4.11 3.71s-1.07 3.91-3.08 3.91c-1 4.53-.33 4.51-.33 9.15s-3.25 5.66.19 8.77c3.8 3.44 4.67-.15 9.8-.15s5.13.37 10.26.37 5.13.5 10.25.5 5.13-.86 10.27-.86 5.1.15 10.23 0c-.15-.41.16-.15.16-.61 0-2.09 1.27-3.91 3.28-3.91a4.21 4.21 0 0 1 4.02 3.77 7.15 7.15 0 0 1-.67 1.65c6 .21 6.18 1.09 12.18.36 0-1.46.72-3.43 1.9-4.01Z" style="fill:#f9ce64"/><path class="cls-11" d="M297.17 537.67c0 2.2-1.65 4.26-3.78 4.26s-3.52-2.06-3.52-4.26a3.19 3.19 0 0 1 3.52-3.4c2.13 0 3.78 1.2 3.78 3.4ZM311 533.68a4.31 4.31 0 0 1-8.61 0c0-2.2 2.17-3.43 4.29-3.43s4.32 1.23 4.32 3.43ZM323.35 515.26a3.92 3.92 0 1 1-7.82 0 3.91 3.91 0 0 1 7.82 0ZM330.51 531.48c0 2.21-1.22 4.16-3.34 4.16s-4.48-1.95-4.48-4.16 2.36-3.43 4.48-3.43a3.07 3.07 0 0 1 3.34 3.43ZM340 516a3.5 3.5 0 0 1-3.59 3.73c-2.13 0-4.3-1.53-4.3-3.73a4.53 4.53 0 0 1 4.3-4.22c2.16-.05 3.59 1.97 3.59 4.22ZM289 513.2c0 2.2-1.21 3.83-3.33 3.83a4 4 0 0 1-4.06-3.83c0-2.2 1.94-3.53 4.06-3.53S289 511 289 513.2Z"/><path d="M60.16 259.19a37.31 37.31 0 0 1-.32 5.16 37.55 37.55 0 0 1-1 5.07c-.46 1.64-.56 3.48-1.3 5.08a26.94 26.94 0 0 1-2.76 4.5c-1 1.38-2.57 2.29-3.93 3.42a19 19 0 0 1-4.13 3.14 22.23 22.23 0 0 1-5 1.21 25.66 25.66 0 0 1-5.13 1 23.62 23.62 0 0 1-4.87-.94 19 19 0 0 1-8.74-4.14 22.3 22.3 0 0 1-3.39-3.48c-1.05-1.28-2.47-2.3-3.27-3.73a34.89 34.89 0 0 1-1.78-4.64 40.67 40.67 0 0 1-1.26-4.84 42 42 0 0 1-.86-4.82c-.25-1.83-1-3.44-1-4.86a13.74 13.74 0 0 1 1.32-5.45 15.23 15.23 0 0 1 3.4-4.34 19.25 19.25 0 0 1 4.31-3.41c1.53-.86 3-2.23 4.89-2.81 1.69-.53 3.7-.1 5.64-.37a41 41 0 0 1 5.53-.31c1.72 0 3.44-.79 5-.54a27.89 27.89 0 0 1 4.86 1.27 24.73 24.73 0 0 1 4.31 2.64 21.48 21.48 0 0 1 3.78 3.13 19.76 19.76 0 0 1 2.95 3.87 18.84 18.84 0 0 1 2.21 4.36 16.69 16.69 0 0 1 .54 4.83Z" style="fill:#675c53"/><path d="M92.25 271.74a24.62 24.62 0 0 1-.66 4.36c-.26 1.36.08 3-.42 4.49s-1.66 2.5-2.32 3.88-.74 3-1.57 4.24a29.57 29.57 0 0 1-3 3.35 24 24 0 0 1-3.17 3.21c-1.18.87-2.89.88-4.27 1.49a19.57 19.57 0 0 1-4.07 1.68 22.53 22.53 0 0 1-4.42.33c-1.57 0-3.11.36-4.5.08s-2.72-1.42-4-2a21.08 21.08 0 0 1-4.07-1.79 23.17 23.17 0 0 1-3.35-3 27.16 27.16 0 0 1-2.57-3.64 32.17 32.17 0 0 1-2.48-3.73 36.27 36.27 0 0 1-1.39-4.25 33.86 33.86 0 0 1-1.2-4.3 24.33 24.33 0 0 1-.47-4.43 10.49 10.49 0 0 1 .86-4.39 13.59 13.59 0 0 1 2.55-3.71 19.64 19.64 0 0 1 3.68-2.56c1.2-.78 2.28-2 3.71-2.56s3-.48 4.45-.87 2.76-1.34 4.29-1.52a38.14 38.14 0 0 1 4.53 0 38.37 38.37 0 0 1 4.54-.05c1.52.18 2.88 1.16 4.29 1.52a30.25 30.25 0 0 1 4.18 1.49 25.45 25.45 0 0 1 4.18 1.65 18.89 18.89 0 0 1 3.52 2.83c1.08 1.14 1.44 2.66 2 4a9.86 9.86 0 0 1 1.15 4.2Z" style="fill:#a49384"/><path class="cls-16" d="M68.34 286.08a31.92 31.92 0 0 1-5-.68 26.67 26.67 0 0 1-4.78-1.53 21.29 21.29 0 0 1-4.42-2.23 16.34 16.34 0 0 1-3.19-2.58 12 12 0 0 1-2.44-3.3 10.2 10.2 0 0 1-1.16-4c0-1.4.79-2.63 1.36-3.93a12 12 0 0 1 1.88-3.72 17.13 17.13 0 0 1 3.17-2.83 23.23 23.23 0 0 1 4.69-2 27.32 27.32 0 0 1 4.89-1.21 30.75 30.75 0 0 1 5-.35 29.94 29.94 0 0 1 5 .72c1.7.28 3.49.06 5 .61a22.77 22.77 0 0 1 4.55 2.28 16.5 16.5 0 0 1 3 3 12.67 12.67 0 0 1 2.57 3.3 10.12 10.12 0 0 1 .64 4.12 10 10 0 0 1-.84 4.05 12.39 12.39 0 0 1-1.94 3.79 18.88 18.88 0 0 1-3.52 2.4 22.58 22.58 0 0 1-4.61 2c-1.53.56-3 1.56-4.74 1.84a31.61 31.61 0 0 1-5.11.25Z"/><path d="M87.45 271.74a9 9 0 0 1-1.39 4.81 13.76 13.76 0 0 1-3.67 3.36A20.65 20.65 0 0 1 78 282a25.29 25.29 0 0 1-4.74 1.23 28.47 28.47 0 0 1-4.88.55 29.43 29.43 0 0 1-4.93-.26 25.93 25.93 0 0 1-4.8-1.22 19.78 19.78 0 0 1-4.34-2.39 13.6 13.6 0 0 1-3.71-3.35c-.93-1.43-.81-3.19-.81-4.84a8 8 0 0 1 1.21-4.56 12.88 12.88 0 0 1 3.32-3.59 19.79 19.79 0 0 1 4.36-2.32 25.72 25.72 0 0 1 4.74-1.25 29.68 29.68 0 0 1 4.92-.09 29.51 29.51 0 0 1 4.91.11 25.39 25.39 0 0 1 4.84 1.08 19.4 19.4 0 0 1 4.34 2.4 13.15 13.15 0 0 1 3.47 3.52 8.83 8.83 0 0 1 1.55 4.72Z" style="fill:#f7f5f5"/><ellipse class="cls-18" cx="31.69" cy="284.1" rx="2.4" ry="1.72"/><path class="cls-18" d="M42 283.91c0 .95-1.07 1.72-2.4 1.72s-2.4-.77-2.4-1.72 1.08-1.73 2.4-1.73 2.4.82 2.4 1.73ZM38.13 279.81c0 .95-1.08 1.72-2.4 1.72s-2.4-.77-2.4-1.72 1.07-1.73 2.4-1.73 2.4.78 2.4 1.73Z"/><path class="cls-16" d="M510 238.36a.81.81 0 0 0 0-1.62.81.81 0 0 0 0 1.62Z"/><path d="M539.41 230.83c0 20.1-14.83 36.4-33.13 36.4s-33.14-16.3-33.14-36.4c0-15.08 18.6-29.59 22.47-59.1 1-7.68-5.21-24.92 10.67-1.95 20.62 29.82 33.13 40.95 33.13 61.05Z" style="fill:#f7d581"/><path class="cls-4" d="M510.58 191a17 17 0 0 1 5.9 7.85c.6 1.63 3.22.92 2.62-.72a20.3 20.3 0 0 0-7.15-9.47c-1.41-1-2.76 1.31-1.37 2.34Z"/><path class="cls-5" d="M509.9 232.38a.56.56 0 0 1-.56-.51 3.3 3.3 0 0 1 .36-1.82 1.76 1.76 0 0 1 1.37-1 .56.56 0 0 1 .59.51.54.54 0 0 1-.51.59c-.24 0-.42.29-.48.41a2.16 2.16 0 0 0-.22 1.19.57.57 0 0 1-.51.6Z"/><path d="M509.9 231.82c3.37 1 4.87 6 3.35 11.09s-5.47 8.48-8.84 7.49-4.88-6-3.36-11.09 5.48-8.48 8.85-7.49Z" style="fill:#65774a"/><path class="cls-21" d="M493.78 218c.45 4.53 1.46 8.13 2.26 8l-1.85-18.5c-.8.09-.86 5.94-.41 10.5Z"/><path class="cls-22" d="M496.66 217.68c-.45-4.53-1.67-10.25-2.47-10.17L496 226c.84-.07 1.12-3.8.66-8.32Z"/><path class="cls-21" d="M492.23 222.32c1.28 2.36 2.78 4 3.35 3.72l-5.25-9.66c-.57.31.67 3.62 1.9 5.94Z"/><path class="cls-22" d="M494.29 221.21c-1.29-2.36-3.39-5.13-4-4.83l5.25 9.66c.61-.31.03-2.47-1.25-4.83Z"/><path class="cls-21" d="M495.74 215.22c-1 5.74-.75 10.59.63 10.84l4.23-23.47c-1.38-.25-3.82 6.89-4.86 12.63Z"/><path class="cls-22" d="M500.74 216.12c1-5.73 1.25-13.28-.14-13.53l-4.23 23.47c1.38.25 3.34-4.2 4.37-9.94Z"/><path class="cls-21" d="M510.68 223.64c-.54 3.34-.65 6.11-.24 6.17l2.2-13.68c-.41-.07-1.42 4.16-1.96 7.51Z"/><path class="cls-22" d="M512.14 223.88c.54-3.35.9-7.69.5-7.75l-2.2 13.68c.4.07 1.17-2.59 1.7-5.93Z"/><path class="cls-21" d="M514.8 225.28c-2.1 1.78-3.44 3.65-3 4.17l8.57-7.31c-.43-.52-3.47 1.35-5.57 3.14Z"/><path class="cls-22" d="M516.41 227.16c2.09-1.79 4.42-4.5 4-5l-8.57 7.31c.41.53 2.47-.47 4.57-2.31Z"/><path class="cls-21" d="M512.77 221.86c-1.84 3.94-2.57 7.49-1.62 7.93l7.54-16.1c-.95-.45-4.07 4.23-5.92 8.17Z"/><path class="cls-22" d="M516.21 223.47c1.84-3.94 3.43-9.34 2.48-9.78l-7.54 16.1c.95.45 3.21-2.39 5.06-6.32Z"/><path class="cls-21" d="M518.74 239.88c-1.79-.71-3.33-1.07-3.43-.81l7.33 2.88c.1-.25-2.11-1.37-3.9-2.07Z"/><path class="cls-22" d="M518.37 240.81c1.79.7 4.17 1.4 4.27 1.14l-7.33-2.88c-.1.25 1.27 1.03 3.06 1.74Z"/><path class="cls-21" d="M524.73 236.42c.5-2.33.36-4.33-.3-4.47l-2 9.51c.64.15 1.81-2.72 2.3-5.04Z"/><path class="cls-22" d="M522.34 235.91c-.5 2.32-.59 5.41.07 5.55l2-9.51c-.64-.14-1.57 1.63-2.07 3.96Z"/><path class="cls-21" d="M522.28 236.74c-.2-1.92-.59-3.45-.86-3.42l.83 7.83c.27-.03.24-2.5.03-4.41Z"/><path class="cls-22" d="M521.29 236.84c.2 1.92.69 4.34 1 4.31l-.83-7.83c-.32.03-.37 1.61-.17 3.52Z"/><path class="cls-5" d="M524.92 252.66a.55.55 0 0 1-.55-.51c-1.15-15.14-13.87-26.56-28.29-25.46a.56.56 0 0 1-.6-.51.55.55 0 0 1 .51-.59c15.07-1.14 28.29 10.73 29.48 26.47a.56.56 0 0 1-.51.6Z"/><path d="M496.72 226.63c3.08 1.7 3.47 6.87.88 11.55s-7.18 7.09-10.26 5.39-3.47-6.87-.88-11.55 7.19-7.09 10.26-5.39Z" style="fill:#444f32"/><path class="cls-4" d="M491.22 241.35c0 .57-.66 1.09-1.57 1.16s-1.69-.34-1.74-.91.67-1.09 1.58-1.16 1.69.34 1.73.91ZM507.42 248.3c0 .57-.66 1.09-1.58 1.16s-1.69-.34-1.73-.91.66-1.09 1.58-1.16 1.69.34 1.73.91ZM246.63 63.71a9.82 9.82 0 0 0-3-6.9 9.3 9.3 0 0 0 .3-2.3c0-6.43-6.93-11.63-15.47-11.63a20.11 20.11 0 0 0-2.93.21 18.76 18.76 0 0 0-9.82-2.64 19.19 19.19 0 0 0-8.67 2 19.61 19.61 0 0 0-6.8-1.18c-5.83 0-10.9 2.42-13.54 6-4.37 2-7.29 5.7-7.29 9.87a9.18 9.18 0 0 0 1.2 4.5 9.24 9.24 0 0 0-1.2 4.5v.7c-3.76 2.13-6.2 5.51-6.2 9.32 0 5.94 5.93 10.84 13.58 11.55 2.67 3.49 7.68 5.85 13.42 5.85a19.89 19.89 0 0 0 6.38-1 19.83 19.83 0 0 0 6.37 1 17.79 17.79 0 0 0 12-4.26c7.15-.76 12.73-5.19 13.26-10.68 4.35-2.05 7.24-5.69 7.24-9.84v-.55a9.16 9.16 0 0 0 1.17-4.52Z"/><path class="cls-24" d="M213 94a20.18 20.18 0 0 1-6.37-1 20.24 20.24 0 0 1-6.38 1c-5.58 0-10.79-2.25-13.65-5.88-7.87-.79-13.78-5.91-13.78-12 0-3.78 2.25-7.25 6.18-9.56v-.46a9.52 9.52 0 0 1 1.14-4.5 9.49 9.49 0 0 1-1.14-4.5c0-4.18 2.78-8 7.44-10.22 2.82-3.76 8.11-6.1 13.82-6.1A20.11 20.11 0 0 1 207 42a19.62 19.62 0 0 1 8.69-2 19.29 19.29 0 0 1 9.91 2.63 20.86 20.86 0 0 1 2.84-.2c8.77 0 15.9 5.42 15.9 12.07a9.39 9.39 0 0 1-.25 2.17 10.13 10.13 0 0 1 3 7 9.53 9.53 0 0 1-1.2 4.62v.44c0 4.13-2.71 7.91-7.27 10.14-.67 5.49-6.28 10-13.47 10.8A18.25 18.25 0 0 1 213 94Zm-6.37-1.93.14.05a19.28 19.28 0 0 0 6.23 1A17.35 17.35 0 0 0 224.65 89l.1-.1h.15c6.95-.74 12.37-5.06 12.87-10.29v-.24l.22-.11c4.38-2.07 7-5.61 7-9.46v-.64L245 68a8.72 8.72 0 0 0 1.16-4.31 9.39 9.39 0 0 0-2.9-6.6l-.18-.18.07-.24a8.48 8.48 0 0 0 .29-2.18c0-6.18-6.75-11.2-15-11.2a19.8 19.8 0 0 0-2.87.21h-.16l-.13-.08a18.39 18.39 0 0 0-9.59-2.58 18.65 18.65 0 0 0-8.47 1.95l-.17.08-.18-.06a19.06 19.06 0 0 0-6.65-1.16c-5.49 0-10.54 2.24-13.19 5.83l-.06.09h-.1c-4.41 2.07-7 5.61-7 9.48a8.72 8.72 0 0 0 1.13 4.38l.12.21-.12.21a8.75 8.75 0 0 0-1.14 4.29V67.09l-.24.13c-3.81 2.14-6 5.4-6 8.94 0 5.65 5.67 10.42 13.19 11.11h.19l.11.15c2.68 3.51 7.69 5.69 13.08 5.69a19.34 19.34 0 0 0 6.24-1Z"/><ellipse class="cls-25" cx="213.63" cy="62.17" rx="15.02" ry="10.47"/><path class="cls-24" d="M212 74.07c-8.91 0-16.17-5.12-16.17-11.41s7.28-11.42 16.17-11.42 16.18 5.12 16.18 11.42-7.24 11.41-16.18 11.41Zm0-21.92c-8.41 0-15.26 4.71-15.26 10.51s6.85 10.5 15.26 10.5 15.27-4.71 15.27-10.5-6.83-10.51-15.27-10.51Z"/><path d="M200.26 62.15a6.39 6.39 0 0 0 2.11 4.16c1 .9 2.52-.59 1.49-1.49a4.23 4.23 0 0 1-1.48-2.67 1.09 1.09 0 0 0-1.06-1.06 1.07 1.07 0 0 0-1.06 1.06Z" style="fill:#fdfff4"/><path class="cls-27" d="M384.22 68.4c-2.82 1.72-6.05 1.56-7.22-.35s-1-6.8 1.82-8.52 9.59-2.37 10.75-.46-2.57 7.61-5.35 9.33Z"/><path class="cls-24" d="M379.31 69.14a4.39 4.39 0 0 1-3.92-1.87c-1.3-2.13-1.29-7.71 2.11-9.78 3.13-1.91 10.68-2.76 12.16-.33s-2.75 8.74-5.88 10.65a8.78 8.78 0 0 1-4.47 1.33Zm5.87-12.45a15.34 15.34 0 0 0-7.18 1.66c-2.74 1.67-2.87 6.59-1.77 8.39s4.24 1.89 7 .21c3.05-1.86 6.52-7.66 5.55-9.27-.4-.68-1.84-.99-3.6-.99Z"/><path class="cls-24" d="M375.82 67.51a.51.51 0 0 1-.26-.94A18.9 18.9 0 0 0 380 63c1-1.22 1.19-2 1-2.29a.51.51 0 1 1 .87-.53c.35.58.44 1.65-1.11 3.47a19.9 19.9 0 0 1-4.68 3.81.48.48 0 0 1-.26.05Z"/><path d="M372.44 90.77c-3.5.93-6.85-.24-7.48-2.62s1.06-7.46 4.57-8.39 10.83.48 11.45 2.86-4.98 7.22-8.54 8.15Z" style="fill:#e2f7c1"/><path class="cls-24" d="M369.47 90.37a8.4 8.4 0 0 1-2.78-.45 4.67 4.67 0 0 1-3.19-3.09 8.72 8.72 0 0 1 .82-5.44 7.19 7.19 0 0 1 4.45-4.2c3.89-1 12.1.43 12.9 3.44S376.06 89 372.16 90a10.48 10.48 0 0 1-2.69.37ZM371.75 78a11.21 11.21 0 0 0-2.7.3 6.33 6.33 0 0 0-3.73 3.6 7.73 7.73 0 0 0-.75 4.68 3.62 3.62 0 0 0 2.49 2.34 8.37 8.37 0 0 0 4.82.06c3.79-1 9.25-6 8.72-8-.42-1.64-5.06-2.98-8.85-2.98Z"/><path class="cls-24" d="M364 87.24a.57.57 0 0 1-.54-.41.56.56 0 0 1 .39-.68c5-1.32 7.82-3.55 7.57-4.5a.56.56 0 0 1 .39-.68.55.55 0 0 1 .68.4c.59 2.23-3.75 4.63-8.35 5.85Z"/><path class="cls-27" d="M365.46 69.67c2.09 2.56 2.38 5.78.65 7.19s-6.6 1.93-8.69-.63-3.67-9.16-1.94-10.58 7.89 1.46 9.98 4.02Z"/><path class="cls-24" d="M360.82 79.94h-.08a6.54 6.54 0 0 1-5.16-2.11 15.92 15.92 0 0 1-2.67-6.32c-.27-1.32-.75-4.52.67-5.68 2.2-1.8 9 1.51 11.36 4.35 2.4 2.95 2.68 6.71.62 8.39a7.94 7.94 0 0 1-4.74 1.37Zm-5.5-13.62a1.74 1.74 0 0 0-1.1.29c-.67.55-.8 2.39-.32 4.69a14.9 14.9 0 0 0 2.46 5.89 5.75 5.75 0 0 0 4.39 1.74 7 7 0 0 0 4.17-1.14c1.63-1.33 1.28-4.46-.77-7-1.87-2.26-6.48-4.47-8.83-4.47Z"/><path class="cls-24" d="M365.24 78.69a.53.53 0 0 1-.4-.19 19 19 0 0 0-4.16-3.9c-1.35-.86-2.14-.9-2.41-.68a.51.51 0 0 1-.71-.08.5.5 0 0 1 .07-.71c.52-.43 1.57-.67 3.59.62a20.19 20.19 0 0 1 4.41 4.11.51.51 0 0 1-.39.83Z"/><path d="M360 92c2.33 1.2 3.57 3.45 2.76 5s-4.19 3.5-6.52 2.3-5.58-5.5-4.77-7.08 6.18-1.44 8.53-.22Z" style="fill:#cff297"/><path class="cls-24" d="M357.33 101.51a4.2 4.2 0 0 1-1.95-.46 12.48 12.48 0 0 1-3.94-3.75c-.62-.87-2-3-1.32-4.34 1-2 7.05-1.77 9.65-.43s4.07 4 3.11 5.9a7 7 0 0 1-5.55 3.08Zm-2.76-9.21c-1.8 0-3.39.34-3.74 1s.19 2 1.26 3.51a11.77 11.77 0 0 0 3.66 3.5c2.27 1.17 5.65-.79 6.41-2.28s-.47-3.65-2.76-4.82a11.47 11.47 0 0 0-4.83-.91Z"/><path class="cls-24" d="M362.52 98.65a.41.41 0 0 1-.18-.05 15.4 15.4 0 0 0-4.27-1.51c-1.26-.2-1.85 0-2 .27a.41.41 0 0 1-.54.17.4.4 0 0 1-.18-.54c.25-.48.93-1 2.81-.69a15.61 15.61 0 0 1 4.51 1.59.4.4 0 0 1 .18.54.41.41 0 0 1-.33.22Z"/><path class="cls-24" d="M366.75 109.17a.63.63 0 0 1-.57-.37c-8.08-17.07-3.28-36.34 10.7-42.95a.64.64 0 1 1 .54 1.15c-13.34 6.31-17.87 24.82-10.1 41.26a.62.62 0 0 1-.3.84.54.54 0 0 1-.27.07Z"/><path d="M432.52 84.55c-2.11 11.75-13 21.18-21.17 19.71s-14.72-14-12.61-25.78 11.37-14 19.51-12.57c10.26 1.85 16.39 6.89 14.27 18.64Z" style="fill:#f48f7a"/><path d="M418.25 64.3a29.65 29.65 0 0 1 3.18-9.47c1.55-2.66 3.28-3.9 4.85-3.43.39.52 0 1-.44.94-1-.19-2.33.9-3.55 3a28.14 28.14 0 0 0-3 8.9c-.08.43-.69.63-1.04.06Z" style="fill:#728f4a"/><path d="M413.87 68.26a11.49 11.49 0 0 1-4.5-9.57c.15-2.14.55-2.09 1-2 .71.08 1.16 2.51 3.9 5.35.28.28 1 .79 1.47.55 1.17-.55-1.38-6.84-.53-7.22.33-.15 2.44 8.41 4.35 8.33.31 0 1.28-.12 2.68-2.76a13.15 13.15 0 0 1 1.92-3.1c-1 2.35-2.83 4.8-.76 6.81a1.63 1.63 0 0 0 2.14 0 26.12 26.12 0 0 0 5.52-4.47c.06 0-2.24 7.85-7.47 8.83-.59.12-5.59 2.15-9.72-.75Z" style="fill:#6b8740"/><path class="cls-4" d="M405 84.71c-.21 1.19-.74 2.09-1.18 2s-.63-1.11-.42-2.29.75-2.09 1.19-2 .63 1.11.41 2.29ZM403.76 76.11c-.22 1.19-.75 2.09-1.19 2s-.63-1.11-.41-2.3.74-2.09 1.18-2 .66 1.11.42 2.3ZM409.74 72.82c-.21 1.19-.74 2.08-1.18 2s-.63-1.11-.42-2.3.75-2.09 1.19-2 .67 1.11.41 2.3ZM417.77 77.12c-.21 1.19-.75 2.08-1.19 2s-.63-1.1-.41-2.29.74-2.09 1.19-2 .64 1.1.41 2.29ZM425.34 76.26c-.21 1.19-.75 2.09-1.19 2s-.62-1.11-.41-2.3.75-2.09 1.19-2 .62 1.11.41 2.3ZM424.72 84.32c-.22 1.19-.75 2.09-1.19 2s-.63-1.11-.42-2.3.75-2.08 1.19-2 .63 1.11.42 2.3ZM430.69 83.18c-.21 1.18-.74 2.08-1.19 2s-.62-1.1-.41-2.29.75-2.09 1.19-2 .62 1.11.41 2.29ZM412.12 81.05c-.21 1.19-.74 2.09-1.18 2s-.63-1.11-.42-2.3.75-2.08 1.19-2 .63 1.11.41 2.3ZM412 90.85c-.21 1.19-.74 2.09-1.18 2s-.63-1.11-.42-2.3.75-2.09 1.19-2 .64 1.11.41 2.3ZM406.7 94.33c-.22 1.19-.75 2.09-1.19 2s-.63-1.11-.41-2.29.74-2.09 1.19-2 .62 1.11.41 2.29ZM412.07 99.74c-.22 1.19-.75 2.09-1.19 2s-.63-1.11-.42-2.3.75-2.08 1.19-2 .63 1.11.42 2.3ZM419.8 97.86c-.21 1.19-.75 2.09-1.19 2s-.62-1.11-.41-2.29.75-2.09 1.19-2 .61 1.11.41 2.29ZM418.05 89.28c-.21 1.19-.75 2.09-1.19 2s-.63-1.11-.41-2.3.74-2.08 1.19-2 .62 1.11.41 2.3ZM426.24 93.41c-.22 1.19-.75 2.08-1.19 2s-.63-1.11-.41-2.3.74-2.09 1.18-2 .63 1.11.42 2.3Z"/><path d="M486.5 397.6c2.88 15.82-3.94 21-13.19 22.64s-17.44-.73-20.31-16.56 1.19-44.69 10.44-46.37 20.19 24.47 23.06 40.29Z" style="fill:#d3b28d"/><path class="cls-34" d="M459.53 381.35a1.36 1.36 0 0 0 0-2.72 1.36 1.36 0 0 0 0 2.72ZM465.73 390a1.36 1.36 0 0 0 0-2.72 1.36 1.36 0 0 0 0 2.72ZM457.78 392a1.37 1.37 0 0 0 0-2.73 1.37 1.37 0 0 0 0 2.73ZM469.5 376.85a1.36 1.36 0 0 0 0-2.72 1.36 1.36 0 0 0 0 2.72ZM465.55 367.41a1.36 1.36 0 0 0 0-2.72 1.36 1.36 0 0 0 0 2.72ZM478.35 392.18a1.36 1.36 0 0 0 0-2.72 1.36 1.36 0 0 0 0 2.72ZM471.14 406.89a1.37 1.37 0 0 0 0-2.73 1.37 1.37 0 0 0 0 2.73ZM458.1 405.59a1.36 1.36 0 0 0 0-2.72 1.36 1.36 0 0 0 0 2.72ZM464.84 399a1.37 1.37 0 0 0 0-2.73 1.37 1.37 0 0 0 0 2.73ZM463.12 412.87a1.36 1.36 0 0 0 0-2.72 1.36 1.36 0 0 0 0 2.72ZM477.1 410.61a1.37 1.37 0 0 0 0-2.73 1.37 1.37 0 0 0 0 2.73ZM480.57 400.78a1.36 1.36 0 0 0 0-2.72 1.36 1.36 0 0 0 0 2.72ZM476.23 382.83a1.36 1.36 0 0 0 0-2.72 1.36 1.36 0 0 0 0 2.72ZM471.76 416a1.37 1.37 0 0 0 0-2.73 1.37 1.37 0 0 0 0 2.73Z"/><path d="M484.56 424.68c-15.8 3-21-3.73-22.78-13s.57-17.45 16.36-20.48 44.7.74 46.47 10-24.26 20.45-40.05 23.48Z" style="fill:#ddc3a6"/><path class="cls-36" d="M474.66 399.19a92.16 92.16 0 0 1 42.66 1.94.34.34 0 0 0 .18-.65 92.89 92.89 0 0 0-43-2c-.44.08-.25.74.18.66ZM468.31 406.78a65.07 65.07 0 0 1 16.75-3.78c.44 0 .44-.72 0-.68a66 66 0 0 0-16.93 3.78c-.41.15-.23.81.18.66ZM489.82 406.93a128.46 128.46 0 0 1 22.82-4.56c.43-.05.43-.73 0-.69a131.21 131.21 0 0 0-23 4.59.34.34 0 0 0 .18.66ZM485.33 413a120.54 120.54 0 0 0 22.77-7.36c.4-.18.06-.76-.34-.59a118.89 118.89 0 0 1-22.62 7.29c-.42.1-.24.75.19.66ZM477.38 421.44a95.27 95.27 0 0 0 37.55-12.85.31.31 0 0 0-.31-.53 94.44 94.44 0 0 1-37.24 12.77c-.38 0-.39.66 0 .61ZM474.27 413.3a43.8 43.8 0 0 0 8.06-1.93c.41-.14.23-.8-.18-.66a43.82 43.82 0 0 1-8.06 1.94c-.43.06-.25.71.18.65ZM470.45 419.77a14.71 14.71 0 0 0 5.89-1.5c.4-.19.05-.78-.34-.58a14.09 14.09 0 0 1-5.55 1.4c-.44 0-.44.7 0 .68Z"/><path d="M123.64 128.39a7.92 7.92 0 0 1 .23-2.37l.07-.29c0-.1 0-.19.08-.29l.09-.28a2.31 2.31 0 0 1 .1-.28l.1-.29.12-.27.11-.28.13-.27.13-.27.15-.26c.09-.17.18-.35.29-.52s.21-.34.33-.5l.17-.24.09-.13.09-.11a9.27 9.27 0 0 1 1.67-1.7 13.69 13.69 0 0 0-1.49 1.83c-.22.32-.44.65-.63 1-.1.16-.19.34-.28.51s-.1.17-.14.26l-.13.26-.13.27-.11.27-.12.26-.1.28c0 .09-.08.18-.11.27l-.1.28-.09.28-.08.28a11.23 11.23 0 0 0-.44 2.3Z" style="opacity:.3;fill:#fff"/><path d="M137 73.62c-15.08 0-27.31 15.32-27.31 34.22 0 15.29 8 28.24 19 32.62a1.78 1.78 0 0 0 2.11-2.55 31.69 31.69 0 0 1-2.73-13.6c0-10.4 4-18.84 8.88-18.84s8.88 8.44 8.88 18.84a31.68 31.68 0 0 1-2.74 13.6 1.78 1.78 0 0 0 2.11 2.55c11.05-4.38 19.05-17.33 19.05-32.62.09-18.9-12.13-34.22-27.25-34.22Z" style="fill:#7e7d7d"/><path d="M137.1 78.48c-15.09 0-27.31 14.21-27.31 31.74 0 14.18 8 26.19 19 30.25a1.7 1.7 0 0 0 2.21-2.37 27.56 27.56 0 0 1-2.74-12.61c0-9.65 4-17.47 8.89-17.47s8.88 7.82 8.88 17.47a27.56 27.56 0 0 1-2.74 12.61 1.7 1.7 0 0 0 2.11 2.37c11.05-4.06 19.05-16.07 19.05-30.25-.05-17.53-12.27-31.74-27.35-31.74Z" style="fill:#f9e9e5"/><path class="cls-24" d="M129.44 141.26a2.48 2.48 0 0 1-.84-.15c-11.65-4.3-19.49-16.71-19.49-30.89 0-17.87 12.56-32.41 28-32.41s28 14.54 28 32.41c0 14.18-7.84 26.59-19.49 30.89a2.38 2.38 0 0 1-2.63-.68 2.32 2.32 0 0 1-.31-2.64 26.9 26.9 0 0 0 2.65-12.3c0-9.1-3.75-16.79-8.2-16.79s-8.21 7.69-8.21 16.79a26.9 26.9 0 0 0 2.65 12.3 2.33 2.33 0 0 1-.3 2.64 2.37 2.37 0 0 1-1.83.83Zm7.66-62.1c-14.69 0-26.64 13.93-26.64 31.06 0 13.62 7.48 25.52 18.61 29.62a1 1 0 0 0 1.15-.29 1 1 0 0 0 .13-1.13 28.25 28.25 0 0 1-2.81-12.93c0-10.17 4.2-18.14 9.56-18.14s9.55 8 9.55 18.14a28.25 28.25 0 0 1-2.81 12.93 1 1 0 0 0 .13 1.13 1 1 0 0 0 1.15.29c11.13-4.1 18.61-16 18.61-29.62 0-17.13-11.95-31.06-26.63-31.06Z"/><path class="cls-40" d="m111.73 117.94-1.19-.63.14-.28.3-.58.17-.31c.11-.19.21-.38.33-.56.37-.6.73-1.14 1.1-1.64a24 24 0 0 1 2.61-3 28.61 28.61 0 0 1 6.39-4.54 33 33 0 0 1 7.33-2.77 36.84 36.84 0 0 1 7.74-1.08 34.69 34.69 0 0 1 7.81.61 32.66 32.66 0 0 1 7.45 2.41 30.83 30.83 0 0 1 6.63 4.17 28 28 0 0 1 2.82 2.73l.64.74c.21.25.42.51.62.77s.26.35.39.54l.18.25.37.53.18.28-1.11.76a25.87 25.87 0 0 0-5.1-5.35 29.43 29.43 0 0 0-6.35-3.82 32.68 32.68 0 0 0-14.46-2.75 36.6 36.6 0 0 0-7.37 1 33.12 33.12 0 0 0-7 2.55 27 27 0 0 0-6.1 4.15 21.91 21.91 0 0 0-2.52 2.69c-.35.44-.71.93-1.08 1.5-.12.17-.22.33-.32.5l-.18.29-.29.52Z"/><path class="cls-40" d="m110.09 110-.74-1.13 1.1-.73c.13-.09.26-.18.4-.26l.75-.46.79-.46c1-.59 2.09-1.15 3.15-1.66a54.58 54.58 0 0 1 6.63-2.66 48.35 48.35 0 0 1 14.07-2.54 68 68 0 0 1 14.19 1.29 51.75 51.75 0 0 1 6.9 1.87l.3.1.55.2 3.3 1.44.79.4c.18.09.37.2.56.32l1 .58-.67 1.17a34.73 34.73 0 0 0-6.34-2.69 52.37 52.37 0 0 0-6.72-1.67c-2.3-.41-4.61-.72-6.89-.9l-5.21-.24h-1.73a43.2 43.2 0 0 0-6.85.69l-.59.11-1.11.21-1.69.39-1.68.44-1.06.31-.6.18a58.92 58.92 0 0 0-6.48 2.45 49.57 49.57 0 0 0-6.12 3.25Z"/><path class="cls-40" d="M115.38 129.4a10.89 10.89 0 0 1 .07-2.2 19.29 19.29 0 0 1 .34-2.11 25.38 25.38 0 0 1 5.74-11.36 22.23 22.23 0 0 1 6.8-5.26 20.29 20.29 0 0 1 8.39-2 19.54 19.54 0 0 1 2.16.06c.7.05 1.42.14 2.14.26a25.31 25.31 0 0 1 4.18 1 23.65 23.65 0 0 1 7.46 4.22 25 25 0 0 1 5.51 6.53 25.61 25.61 0 0 1 1.82 3.87c.27.71.48 1.38.66 2s.35 1.39.47 2.08l-1.32.26a23.84 23.84 0 0 0-3-7.42 23.47 23.47 0 0 0-5.24-6 22.89 22.89 0 0 0-7-3.83 24.59 24.59 0 0 0-3.87-1c-.67-.1-1.34-.18-2-.23s-1.32-.06-2 0a18.52 18.52 0 0 0-7.62 1.83 20.61 20.61 0 0 0-6.31 4.77 23.83 23.83 0 0 0-4.3 6.71 22.8 22.8 0 0 0-1.29 3.81c-.16.64-.28 1.3-.38 2a11.05 11.05 0 0 0-.14 2Z"/><path class="cls-40" d="M156.08 132.13a29.26 29.26 0 0 0-1.55-4.69 19.69 19.69 0 0 0-1.09-2.16l-.65-1a3.74 3.74 0 0 0-.26-.36l-.45-.61a20 20 0 0 0-3.42-3.4 35.9 35.9 0 0 0-4.14-2.72l.59-1.21a23.39 23.39 0 0 1 4.6 2.53c.27.19.53.4.79.6l.25.19.65.57.34.3c.35.34.65.65.95 1l1.34 1.66c.11.16.23.32.33.49l.51.8.14.25 1 2 .09.22.11.32a20.92 20.92 0 0 1 1.24 5.1ZM121.62 135h-1.34a15.6 15.6 0 0 1 .44-4.65l.13-.54.12-.39.84-2.37.22-.52c0-.12.11-.24.16-.35l.34-.69.19-.35.22-.4a9 9 0 0 1 .46-.79l.17-.27c.15-.24.3-.47.46-.7l.68-.93a19.11 19.11 0 0 1 3.23-3.3l.91 1a27.94 27.94 0 0 0-2.73 3.35c-.36.53-.78 1.16-1.14 1.81-.17.27-.31.53-.45.8l-.18.32a2.44 2.44 0 0 0-.14.28l-.33.68-.15.3-1.16 3-.15.52a21 21 0 0 0-.8 4.19ZM137.14 100.93a32.86 32.86 0 0 1-5.61-.49 30.46 30.46 0 0 1-5.93-1.72 28.43 28.43 0 0 1-5.43-2.92 25 25 0 0 1-2.44-1.89c-.39-.33-.77-.69-1.13-1s-.72-.74-1.06-1.12l1-.92a25.73 25.73 0 0 0 4.53 3.64 28.46 28.46 0 0 0 5.2 2.62 29.15 29.15 0 0 0 5.6 1.54 31 31 0 0 0 5.8.43 50.46 50.46 0 0 0 5.87-.39 44.92 44.92 0 0 0 5.77-1.11 30.58 30.58 0 0 0 5.46-2 18.51 18.51 0 0 0 2.47-1.46 13.26 13.26 0 0 0 1.1-.89 9.22 9.22 0 0 0 1-1l1.06.83a12 12 0 0 1-2.25 2.25 19.52 19.52 0 0 1-2.67 1.67 28.91 28.91 0 0 1-5.72 2.28 46.08 46.08 0 0 1-12.09 1.69Z"/><path class="cls-40" d="M139.92 94.75h-1.78a33.89 33.89 0 0 1-5-.65 28.27 28.27 0 0 1-4.83-1.53 21 21 0 0 1-4.4-2.54l-.24-.19a7.92 7.92 0 0 1-.77-.64l-.44-.39c-.12-.11-.22-.22-.32-.32l-.14-.19a13.68 13.68 0 0 1-1.62-2l1.1-.79a14.67 14.67 0 0 0 3.37 3.19 20.79 20.79 0 0 0 4.15 2.2 27.45 27.45 0 0 0 4.52 1.36 36.5 36.5 0 0 0 4.71.59h4.76a38.09 38.09 0 0 0 4.75-.61 30.67 30.67 0 0 0 4.57-1.28 20.62 20.62 0 0 0 4.23-2.11l.76 1.11a17.33 17.33 0 0 1-2.13 1.38c-.12.08-.27.15-.41.23l-.34.17-.37.19-1.15.52a29.19 29.19 0 0 1-4.8 1.5 37.66 37.66 0 0 1-8.18.8Z"/><path class="cls-40" d="M139.32 89h-1.2a22.66 22.66 0 0 1-3.8-.55A15.84 15.84 0 0 1 130.7 87a13.27 13.27 0 0 1-5.43-5.41l1.15-.69a14.62 14.62 0 0 0 2.26 2.62 12.77 12.77 0 0 0 2.84 1.92 14.83 14.83 0 0 0 3.23 1.16 22.08 22.08 0 0 0 3.46.47 27.21 27.21 0 0 0 3.52-.07 17.59 17.59 0 0 0 3.41-.63 12.38 12.38 0 0 0 3.1-1.41 10.34 10.34 0 0 0 2.52-2.3l1.09.8a10.89 10.89 0 0 1-2.71 2.82 12.88 12.88 0 0 1-3.47 1.76 17 17 0 0 1-3.76.79 23.62 23.62 0 0 1-2.59.17Z"/><path class="cls-25" d="M139.4 103.26c0 2.2-1.25 4-2.78 4s-2.79-1.78-2.79-4 1.25-4 2.79-4 2.78 1.81 2.78 4Z"/><path class="cls-24" d="M137 106.06a2.26 2.26 0 1 1 1.73-2.2 2 2 0 0 1-1.73 2.2Zm0-3c-.14 0-.39.33-.39.84s.25.85.39.85.39-.33.39-.85-.22-.9-.39-.9Z"/><path class="cls-4" d="M310.15 29c2.56-.24 4.26-2.76 5.42-5.15s2.31-5.07 4.65-6.14 5.94 1.06 5.18 3.62c-.31 1-1.2 1.83-1.13 2.9.13 2.15 3.16 2 5.15 2.51 2.87.79 4.32 5 2.54 7.43-2 2.71-6.81 2.37-10.13 2.09S315 37 315 40.47"/><path d="M312.64 28.93c5 6.12 5.24 16.13-.12 19.77-6.16 4.2-1 13.58-5.24 19.87-8.46 12.57-23.86 17-34.41 9.92s-15.18-25.64-3.76-35.61c12.31-10.75 15-4.26 19.73-6.49 7.37-3.5 18.91-13.48 23.8-7.46Z" style="fill:#ef7700"/><path class="cls-4" d="M276.94 56.45a10.58 10.58 0 0 1 5.24-7.6 1.29 1.29 0 0 0-1.3-2.22 13 13 0 0 0-6.42 9.14c-.28 1.62 2.2 2.31 2.48.68Z"/></g></g></svg>