<svg xmlns="http://www.w3.org/2000/svg" viewBox="0 0 74.94 79.12"><defs><style>.cls-1{fill:#e8ebec}.cls-2{fill:#97d3db}.cls-3{fill:#fff}.cls-4{fill:#8dc74a}</style></defs><g id="Capa_2" data-name="Capa 2"><g id="layer_1" data-name="layer 1"><circle class="cls-1" cx="60.94" cy="14" r="14"/><circle class="cls-1" cx="62.18" cy="65" r="12"/><circle class="cls-1" cx="20" cy="59.12" r="20"/><rect class="cls-2" x="7.89" y="6.93" width="48" height="64" rx="3"/><path class="cls-3" d="M10.89 6.94h37v54a3 3 0 0 1-3 3h-37v-54a3 3 0 0 1 3-3Z"/><rect class="cls-2" x="23.89" y="47.44" width="48" height="7" rx="1"/><path class="cls-3" d="M24.89 47.44h27v1.5a2 2 0 0 1-2 2h-26v-2.5a1 1 0 0 1 1-1Z"/><path class="cls-4" d="M70.89 55.19h-46a1.75 1.75 0 0 1-1.75-1.75v-5a1.75 1.75 0 0 1 1.75-1.75h46a1.75 1.75 0 0 1 1.75 1.75v5a1.76 1.76 0 0 1-1.75 1.75Zm-46-7a.25.25 0 0 0-.25.25v5a.25.25 0 0 0 .25.25h46a.25.25 0 0 0 .25-.25v-5a.25.25 0 0 0-.25-.25Z"/><path class="cls-2" d="M61.39 40.94h5.5v20h-5.5zM55.89 36.94h5.5v28h-5.5zM28.89 40.94h5.5v20h-5.5zM34.39 36.94h5.5v28h-5.5z"/><path class="cls-3" d="M61.39 40.94h2.75v15a1 1 0 0 1-1 1h-1.75v-16ZM55.89 36.94h2.75v21a1 1 0 0 1-1 1h-1.75v-22ZM28.89 40.94h2.75v15a1 1 0 0 1-1 1h-1.75v-16ZM34.39 36.94h2.75v21a1 1 0 0 1-1 1h-1.75v-22Z"/><path class="cls-4" d="M66.89 61.69h-5.5a.76.76 0 0 1-.75-.75v-20a.75.75 0 0 1 .75-.75h5.5a.75.75 0 0 1 .75.75v20a.76.76 0 0 1-.75.75Zm-4.75-1.5h4v-18.5h-4Z"/><path class="cls-4" d="M61.39 65.69h-5.5a.76.76 0 0 1-.75-.75v-28a.75.75 0 0 1 .75-.75h5.5a.75.75 0 0 1 .75.75v28a.76.76 0 0 1-.75.75Zm-4.75-1.5h4v-26.5h-4ZM34.39 61.69h-5.5a.75.75 0 0 1-.75-.75v-20a.74.74 0 0 1 .75-.75h5.5a.75.75 0 0 1 .75.75v20a.76.76 0 0 1-.75.75Zm-4.75-1.5h4v-18.5h-4Z"/><path class="cls-4" d="M39.89 65.69h-5.5a.75.75 0 0 1-.75-.75v-28a.74.74 0 0 1 .75-.75h5.5a.75.75 0 0 1 .75.75v28a.76.76 0 0 1-.75.75Zm-4.75-1.5h4v-26.5h-4Z"/><path class="cls-4" d="M52.89 71.69h-42a3.75 3.75 0 0 1-3.75-3.75v-58a3.75 3.75 0 0 1 3.75-3.75h42a3.76 3.76 0 0 1 3.75 3.75v58a3.76 3.76 0 0 1-3.75 3.75Zm-42-64a2.25 2.25 0 0 0-2.25 2.25v58a2.25 2.25 0 0 0 2.25 2.25h42a2.26 2.26 0 0 0 2.25-2.25v-58a2.26 2.26 0 0 0-2.25-2.25Z"/><path class="cls-2" d="M19.89 6.93h24v5a3 3 0 0 1-3 3h-18a3 3 0 0 1-3-3v-5Z"/><path class="cls-3" d="M19.89 6.93h19v2a2 2 0 0 1-2 2h-17v-4Z"/><path class="cls-4" d="M40.89 15.68h-18a3.75 3.75 0 0 1-3.75-3.75v-5a.75.75 0 0 1 .75-.75h24a.76.76 0 0 1 .75.75v5a3.76 3.76 0 0 1-3.75 3.75Zm-20.25-8v4.25a2.25 2.25 0 0 0 2.25 2.25h18a2.25 2.25 0 0 0 2.25-2.25V7.68ZM49.89 22.69h-10.5a.75.75 0 0 1 0-1.5h10.5a.75.75 0 0 1 0 1.5ZM35.39 22.69h-11.5a.75.75 0 0 1 0-1.5h11.5a.75.75 0 0 1 0 1.5ZM40.89 26.69h-8a.75.75 0 0 1 0-1.5h8a.75.75 0 0 1 0 1.5ZM23.89 26.69a.75.75 0 0 1 0-1.5h5a.75.75 0 0 1 0 1.5ZM49.39 33.69h-11a.75.75 0 0 1 0-1.5h11a.75.75 0 0 1 0 1.5ZM34.39 33.69h-10.5a.75.75 0 0 1 0-1.5h10.5a.75.75 0 0 1 0 1.5ZM30.39 37.69h-6.5a.75.75 0 0 1 0-1.5h6.5a.75.75 0 0 1 0 1.5ZM69.89 67.69h-4a.75.75 0 1 1 0-1.5h4a.75.75 0 0 1 0 1.5Z"/><path class="cls-4" d="M67.89 69.69a.75.75 0 0 1-.75-.75v-4a.75.75 0 0 1 1.5 0v4a.76.76 0 0 1-.75.75Z"/><path class="cls-3" d="M18.89 23.94a3 3 0 1 1-3-3 3 3 0 0 1 3 3ZM18.89 34.94a3 3 0 1 1-3-3 3 3 0 0 1 3 3Z"/><path class="cls-2" d="M14.89 25.94a2.77 2.77 0 0 0 .14.86 3 3 0 0 0 .86.14 3 3 0 0 0 2.86-3.86 3.09 3.09 0 0 0-.86-.14 3 3 0 0 0-3 3ZM18.89 34.94a3 3 0 0 0-.14-.86 3.09 3.09 0 0 0-.86-.14 3 3 0 0 0-3 3 2.72 2.72 0 0 0 .14.86 3 3 0 0 0 3.86-2.86Z"/><path class="cls-4" d="M15.89 27.69a3.75 3.75 0 1 1 3.75-3.75 3.75 3.75 0 0 1-3.75 3.75Zm0-6a2.25 2.25 0 1 0 2.25 2.25 2.25 2.25 0 0 0-2.25-2.25ZM15.89 38.69a3.75 3.75 0 1 1 3.75-3.75 3.75 3.75 0 0 1-3.75 3.75Zm0-6a2.25 2.25 0 1 0 2.25 2.25 2.25 2.25 0 0 0-2.25-2.25Z"/><path class="cls-3" d="M18.89 45.94a3 3 0 1 1-3-3 3 3 0 0 1 3 3ZM18.89 56.94a3 3 0 1 1-3-3 3 3 0 0 1 3 3Z"/><path class="cls-2" d="M14.89 47.94a2.72 2.72 0 0 0 .14.86 3 3 0 0 0 3.86-2.86 3 3 0 0 0-.14-.86 3.09 3.09 0 0 0-.86-.14 3 3 0 0 0-3 3ZM18.89 56.94a3.09 3.09 0 0 0-.14-.86 3.09 3.09 0 0 0-.86-.14 3 3 0 0 0-3 3 2.72 2.72 0 0 0 .14.86 3 3 0 0 0 3.86-2.86Z"/><path class="cls-4" d="M15.89 49.69a3.75 3.75 0 1 1 3.75-3.75 3.75 3.75 0 0 1-3.75 3.75Zm0-6a2.25 2.25 0 1 0 2.25 2.25 2.25 2.25 0 0 0-2.25-2.25ZM15.89 60.69a3.75 3.75 0 1 1 3.75-3.75 3.75 3.75 0 0 1-3.75 3.75Zm0-6a2.25 2.25 0 1 0 2.25 2.25 2.25 2.25 0 0 0-2.25-2.25ZM71.89 36.44h-4a.75.75 0 0 1 0-1.5h4a.75.75 0 0 1 0 1.5Z"/><path class="cls-4" d="M69.89 38.44a.75.75 0 0 1-.75-.75v-4a.75.75 0 0 1 1.5 0v4a.76.76 0 0 1-.75.75Z"/><circle class="cls-4" cx="69.89" cy="29.69" r=".75"/><circle class="cls-4" cx="69.89" cy="26.69" r=".75"/><circle class="cls-4" cx="69.89" cy="21.69" r=".75"/><circle class="cls-4" cx="69.89" cy="15.69" r=".75"/><path class="cls-4" d="M64.89 9.68h-4a.75.75 0 0 1 0-1.5h4a.75.75 0 0 1 0 1.5Z"/><path class="cls-4" d="M62.89 11.68a.74.74 0 0 1-.75-.75v-4a.75.75 0 1 1 1.5 0v4a.75.75 0 0 1-.75.75Z"/><circle class="cls-4" cx="62.89" cy="14.93" r=".75"/><circle class="cls-4" cx="62.89" cy="17.94" r=".75"/><circle class="cls-4" cx="62.89" cy="22.94" r=".75"/><circle class="cls-4" cx="62.89" cy="28.94" r=".75"/></g></g></svg>