<svg xmlns="http://www.w3.org/2000/svg" viewBox="0 0 77.75 78.25"><defs><style>.cls-1{fill:#e8ebec}.cls-2{fill:#fff}.cls-3{fill:#97d3db}.cls-4{fill:#8dc74a}</style></defs><g id="Capa_2" data-name="Capa 2"><g id="layer_1" data-name="layer 1"><circle class="cls-1" cx="63.75" cy="51" r="14"/><circle class="cls-1" cx="59.13" cy="12" r="12"/><circle class="cls-1" cx="20" cy="58.25" r="20"/><rect class="cls-2" x="20.5" y="7" width="44" height="64" rx="4"/><path class="cls-3" d="M28.5 11h36v56a4 4 0 0 1-4 4h-34V13a2 2 0 0 1 2-2Z"/><path class="cls-4" d="M60.5 71.75h-36A4.75 4.75 0 0 1 19.75 67V11a4.75 4.75 0 0 1 4.75-4.75h36A4.75 4.75 0 0 1 65.25 11v56a4.75 4.75 0 0 1-4.75 4.75Zm-36-64A3.26 3.26 0 0 0 21.25 11v56a3.26 3.26 0 0 0 3.25 3.25h36A3.26 3.26 0 0 0 63.75 67V11a3.26 3.26 0 0 0-3.25-3.25Z"/><rect class="cls-2" x="20.5" y="15" width="44" height="48" rx="2"/><path class="cls-3" d="M30.5 63h32a2 2 0 0 0 2-2V39h-10a24 24 0 0 0-24 24Z"/><path class="cls-4" d="M62.5 63.75h-40A2.75 2.75 0 0 1 19.75 61V17a2.75 2.75 0 0 1 2.75-2.75h40A2.75 2.75 0 0 1 65.25 17v44a2.75 2.75 0 0 1-2.75 2.75Zm-40-48A1.25 1.25 0 0 0 21.25 17v44a1.25 1.25 0 0 0 1.25 1.25h40A1.25 1.25 0 0 0 63.75 61V17a1.25 1.25 0 0 0-1.25-1.25Z"/><rect class="cls-2" x="8.5" y="21" width="36" height="36" rx="6"/><path class="cls-3" d="M32.5 25h12v26a6 6 0 0 1-6 6h-20V39a14 14 0 0 1 14-14Z"/><path class="cls-4" d="M38.5 57.75h-24A6.76 6.76 0 0 1 7.75 51V27a6.76 6.76 0 0 1 6.75-6.75h24A6.76 6.76 0 0 1 45.25 27v24a6.76 6.76 0 0 1-6.75 6.75Zm-24-36A5.25 5.25 0 0 0 9.25 27v24a5.26 5.26 0 0 0 5.25 5.25h24A5.26 5.26 0 0 0 43.75 51V27a5.26 5.26 0 0 0-5.25-5.25Z"/><rect class="cls-2" x="50.5" y="35" width="8" height="8" rx="2.5"/><rect class="cls-2" x="50.5" y="49" width="8" height="8" rx="2.5"/><rect class="cls-2" x="50.5" y="21" width="8" height="8" rx="2.5"/><path class="cls-3" d="M55.5 38h3v2.5A2.5 2.5 0 0 1 56 43h-2.5v-3a2 2 0 0 1 2-2ZM55.5 52h3v2.5A2.5 2.5 0 0 1 56 57h-2.5v-3a2 2 0 0 1 2-2ZM55.5 24h3v2.5A2.5 2.5 0 0 1 56 29h-2.5v-3a2 2 0 0 1 2-2Z"/><path class="cls-4" d="M56 43.75h-3a3.26 3.26 0 0 1-3.25-3.25v-3A3.26 3.26 0 0 1 53 34.25h3a3.26 3.26 0 0 1 3.25 3.25v3A3.26 3.26 0 0 1 56 43.75Zm-3-8a1.75 1.75 0 0 0-1.75 1.75v3A1.76 1.76 0 0 0 53 42.25h3a1.76 1.76 0 0 0 1.75-1.75v-3A1.75 1.75 0 0 0 56 35.75ZM56 57.75h-3a3.26 3.26 0 0 1-3.25-3.25v-3A3.26 3.26 0 0 1 53 48.25h3a3.26 3.26 0 0 1 3.25 3.25v3A3.26 3.26 0 0 1 56 57.75Zm-3-8a1.75 1.75 0 0 0-1.75 1.75v3A1.76 1.76 0 0 0 53 56.25h3a1.76 1.76 0 0 0 1.75-1.75v-3A1.75 1.75 0 0 0 56 49.75ZM56 29.75h-3a3.26 3.26 0 0 1-3.25-3.25v-3A3.26 3.26 0 0 1 53 20.25h3a3.26 3.26 0 0 1 3.25 3.25v3A3.26 3.26 0 0 1 56 29.75Zm-3-8a1.75 1.75 0 0 0-1.75 1.75v3A1.76 1.76 0 0 0 53 28.25h3a1.76 1.76 0 0 0 1.75-1.75v-3A1.75 1.75 0 0 0 56 21.75ZM48.07 11.75h-10a.75.75 0 0 1 0-1.5h10a.75.75 0 0 1 0 1.5ZM45.07 67.75h-4a.75.75 0 1 1 0-1.5h4a.75.75 0 0 1 0 1.5ZM55.07 67.75h-4a.75.75 0 1 1 0-1.5h4a.75.75 0 0 1 0 1.5ZM35.07 67.75h-4a.75.75 0 1 1 0-1.5h4a.75.75 0 0 1 0 1.5Z"/><circle class="cls-4" cx="52.07" cy="11" r="1"/><path class="cls-4" d="M16.5 14.75h-4a.75.75 0 0 1 0-1.5h4a.75.75 0 0 1 0 1.5Z"/><path class="cls-4" d="M14.5 16.75a.76.76 0 0 1-.75-.75v-4a.75.75 0 0 1 1.5 0v4a.76.76 0 0 1-.75.75ZM12.5 62.75h-4a.75.75 0 0 1 0-1.5h4a.75.75 0 0 1 0 1.5Z"/><path class="cls-4" d="M10.5 64.75a.74.74 0 0 1-.75-.75v-4a.75.75 0 0 1 1.5 0v4a.75.75 0 0 1-.75.75ZM16.5 69.75h-4a.75.75 0 0 1 0-1.5h4a.75.75 0 0 1 0 1.5Z"/><path class="cls-4" d="M14.5 71.75a.75.75 0 0 1-.75-.75v-4a.75.75 0 0 1 1.5 0v4a.75.75 0 0 1-.75.75Z"/><path class="cls-2" d="M12.5 36.5h28v5h-28z"/><path class="cls-4" d="M40.5 42.25h-28a.75.75 0 0 1-.75-.75v-5a.74.74 0 0 1 .75-.75h28a.75.75 0 0 1 .75.75v5a.76.76 0 0 1-.75.75Zm-27.25-1.5h26.5v-3.5h-26.5Z"/><rect class="cls-2" x="16.5" y="30" width="5" height="18" rx="1"/><rect class="cls-2" x="31.5" y="30" width="5" height="18" rx="1"/><path class="cls-4" d="M20.5 48.75h-3A1.76 1.76 0 0 1 15.75 47V31a1.75 1.75 0 0 1 1.75-1.75h3A1.75 1.75 0 0 1 22.25 31v16a1.76 1.76 0 0 1-1.75 1.75Zm-3-18a.25.25 0 0 0-.25.25v16a.25.25 0 0 0 .25.25h3a.25.25 0 0 0 .25-.25V31a.25.25 0 0 0-.25-.25ZM35.5 48.75h-3A1.76 1.76 0 0 1 30.75 47V31a1.75 1.75 0 0 1 1.75-1.75h3A1.75 1.75 0 0 1 37.25 31v16a1.76 1.76 0 0 1-1.75 1.75Zm-3-18a.25.25 0 0 0-.25.25v16a.25.25 0 0 0 .25.25h3a.25.25 0 0 0 .25-.25V31a.25.25 0 0 0-.25-.25ZM72.5 57.29h-4a.75.75 0 0 1 0-1.5h4a.75.75 0 0 1 0 1.5Z"/><path class="cls-4" d="M70.5 59.29a.75.75 0 0 1-.75-.75v-4a.75.75 0 1 1 1.5 0v4a.75.75 0 0 1-.75.75Z"/><circle class="cls-4" cx="70.5" cy="50.54" r=".75"/><circle class="cls-4" cx="70.5" cy="47.54" r=".75"/><circle class="cls-4" cx="70.5" cy="42.54" r=".75"/><circle class="cls-4" cx="70.5" cy="36.54" r=".75"/></g></g></svg>