<svg xmlns="http://www.w3.org/2000/svg" viewBox="0 0 74.4 74.54"><defs><style>.cls-1{fill:#e8ebec}.cls-2{fill:#fff}.cls-3{fill:#97d3db}.cls-4{fill:#8dc74a}</style></defs><g id="Capa_2" data-name="Capa 2"><g id="layer_1" data-name="layer 1"><circle cx="60.4" cy="45.01" r="14" class="cls-1"/><circle cx="22.44" cy="12" r="12" class="cls-1"/><circle cx="20" cy="54.54" r="20" class="cls-1"/><circle cx="33.92" cy="39" r="32" class="cls-2"/><path d="M54.4 14.41a32 32 0 0 1-49 39.17 32 32 0 1 0 49-39.17Z" class="cls-3"/><path d="M33.92 71.75A32.75 32.75 0 1 1 66.67 39a32.79 32.79 0 0 1-32.75 32.75Zm0-64A31.25 31.25 0 1 0 65.17 39 31.29 31.29 0 0 0 33.92 7.75Z" class="cls-4"/><path d="m33.92 46.69 18 10V12.54a32 32 0 0 0-36 0v44.15Z" class="cls-3"/><path d="m34.89 42.69 10.16 5.65a1 1 0 0 0 1.49-.88V9.59a32 32 0 0 0-30.62 2.95v39.62l17-9.47a2 2 0 0 1 1.97 0Z" class="cls-2"/><path d="M51.92 57.44a.81.81 0 0 1-.37-.09l-17.63-9.8-17.64 9.8a.75.75 0 0 1-1.11-.66V12.54a.74.74 0 0 1 .33-.62 32.76 32.76 0 0 1 36.84 0 .74.74 0 0 1 .33.62v44.15a.76.76 0 0 1-.37.65.75.75 0 0 1-.38.1Zm-18-11.5a.68.68 0 0 1 .36.1l16.89 9.38V12.94a31.26 31.26 0 0 0-34.5 0v42.48L33.55 46a.71.71 0 0 1 .37-.06Z" class="cls-4"/><path d="m33.92 17.5 3.41 6.91 7.63 1.11-5.52 5.38 1.3 7.59-6.82-3.58-6.82 3.58 1.3-7.59-5.52-5.38 7.63-1.11 3.41-6.91z" class="cls-2"/><path d="M39.44 30.9 45 25.52l-4.88-.71-4.1 4a2 2 0 0 0-.57 1.77l1 5.63 4.37 2.3Z" class="cls-3"/><path d="M40.74 39.25a.73.73 0 0 1-.35-.09l-6.47-3.41-6.48 3.41a.75.75 0 0 1-.79-.06.74.74 0 0 1-.29-.73l1.23-7.21-5.24-5.11a.76.76 0 0 1-.19-.76.77.77 0 0 1 .61-.52L30 23.72l3.24-6.56a.78.78 0 0 1 1.34 0l3.24 6.56 7.24 1.05a.76.76 0 0 1 .6.52.72.72 0 0 1-.19.76l-5.24 5.11 1.24 7.21a.75.75 0 0 1-.3.73.71.71 0 0 1-.43.15Zm-6.82-5.09a.85.85 0 0 1 .35.08l5.48 2.88-1-6.1a.74.74 0 0 1 .22-.66L43.35 26l-6.13-.89a.76.76 0 0 1-.56-.41l-2.74-5.55-2.74 5.55a.76.76 0 0 1-.56.41l-6.13.89 4.43 4.32a.74.74 0 0 1 .22.66l-1.05 6.1 5.48-2.88a.85.85 0 0 1 .35-.04ZM62.54 43.46h-1.39a.75.75 0 0 1 0-1.5h1.39a.75.75 0 0 1 0 1.5ZM57.92 43.46h-1.38a.75.75 0 0 1 0-1.5h1.38a.75.75 0 0 1 0 1.5ZM59.54 46.46a.75.75 0 0 1-.75-.75v-1.39a.75.75 0 0 1 1.5 0v1.39a.76.76 0 0 1-.75.75ZM59.54 41.84a.75.75 0 0 1-.75-.75v-1.38a.75.75 0 0 1 1.5 0v1.38a.76.76 0 0 1-.75.75ZM42 58.64h-1.41a.75.75 0 0 1 0-1.5H42a.75.75 0 0 1 0 1.5ZM37.35 58.64H36a.75.75 0 0 1 0-1.5h1.38a.75.75 0 1 1 0 1.5ZM39 61.64a.76.76 0 0 1-.75-.75v-1.38a.75.75 0 1 1 1.5 0v1.38a.76.76 0 0 1-.75.75ZM39 57a.75.75 0 0 1-.75-.75v-1.36a.75.75 0 0 1 1.5 0v1.38A.75.75 0 0 1 39 57ZM28.75 64h-1.39a.75.75 0 0 1 0-1.5h1.39a.75.75 0 0 1 0 1.5ZM24.13 64h-1.38a.75.75 0 0 1 0-1.5h1.38a.75.75 0 0 1 0 1.5ZM25.75 67a.75.75 0 0 1-.75-.8v-1.39a.75.75 0 0 1 1.5 0v1.39a.76.76 0 0 1-.75.8ZM25.75 62.33a.74.74 0 0 1-.75-.75V60.2a.75.75 0 0 1 1.5 0v1.38a.75.75 0 0 1-.75.75ZM9.73 27.73a.67.67 0 0 1-.33-.08.75.75 0 0 1-.34-1c.38-.76.8-1.52 1.25-2.24a.75.75 0 0 1 1.27.79c-.42.68-.82 1.4-1.18 2.12a.74.74 0 0 1-.67.41ZM8.93 50a.76.76 0 0 1-.7-.47 27.87 27.87 0 0 1-.76-18.93.75.75 0 0 1 .94-.49.76.76 0 0 1 .49.89 26.37 26.37 0 0 0 .72 18 .74.74 0 0 1-.41 1 .71.71 0 0 1-.28 0Z" class="cls-4"/></g></g></svg>