<svg xmlns="http://www.w3.org/2000/svg" viewBox="0 0 80.25 75.25"><defs><style>.cls-1{fill:#e8ebec}.cls-2{fill:#fff}.cls-3{fill:#97d3db}.cls-4{fill:#8dc74a}</style></defs><g id="Capa_2" data-name="Capa 2"><g id="layer_1" data-name="layer 1"><circle cx="14" cy="43.24" r="14" class="cls-1"/><circle cx="52.25" cy="12" r="12" class="cls-1"/><circle cx="60.25" cy="55.25" r="20" class="cls-1"/><circle cx="42" cy="38.99" r="32" class="cls-2"/><path d="M74 39a32 32 0 0 0-48.17-27.62A32.32 32.32 0 0 1 34 10.33a32 32 0 0 1 16.17 59.61A32 32 0 0 0 74 39Z" class="cls-3"/><path d="M42 71.74A32.75 32.75 0 1 1 74.75 39 32.79 32.79 0 0 1 42 71.74Zm0-64A31.25 31.25 0 1 0 73.25 39 31.29 31.29 0 0 0 42 7.74Z" class="cls-4"/><path d="M59.91 39.17c.81 0 2.59-1.23 2.59-4.07a4 4 0 0 0-3.67-4.1H44.71a24.09 24.09 0 0 0 .78-8.51c-.46-5.14-2.92-8.6-5.83-8.71s-4 .52-4 .52 1.42 6.43.45 9.6c-2.25 7.39-9.61 13.36-9.61 13.36v23.48h28.52a4.56 4.56 0 0 0 4.15-4.52 4.43 4.43 0 0 0-.58-2.2A4.53 4.53 0 0 0 61 46.45a4.51 4.51 0 0 0 1.85-3.64c-.01-2.33-1.61-3.63-2.94-3.64Z" class="cls-2"/><path d="M62.84 42.81c0-2.33-1.6-3.63-2.93-3.64.81 0 2.59-1.23 2.59-4.07a4 4 0 0 0-3.67-4.1H44.71a24.09 24.09 0 0 0 .78-8.51c-.46-5.14-2.92-8.6-5.83-8.71s-4 .52-4 .52c4.46-.54 5.71 4.38 5.71 9.55a23.33 23.33 0 0 1-2 8.75 1 1 0 0 0 .91 1.4h12.54a4 4 0 0 1 3.68 4.1c0 2.84-1.78 4.07-2.59 4.07 1.33 0 2.93 1.31 2.93 3.64A4.49 4.49 0 0 1 55 49.45a4.49 4.49 0 0 1 1.25 3.11A4.55 4.55 0 0 1 52.59 57a4.54 4.54 0 0 1 .58 2.2 4.62 4.62 0 0 1-.28 1.54h2.13a4.56 4.56 0 0 0 4.15-4.52 4.43 4.43 0 0 0-.58-2.2A4.53 4.53 0 0 0 61 46.45a4.51 4.51 0 0 0 1.84-3.64Z" class="cls-3"/><path d="M54.74 61.49H26.53a.75.75 0 0 1-.75-.75V37.25a.72.72 0 0 1 .28-.58c.07-.06 7.21-5.92 9.37-13 .9-3-.46-9.16-.47-9.22a.76.76 0 0 1 .34-.81c.13-.07 1.33-.75 4.39-.62 3.37.13 6.06 4 6.55 9.39a25 25 0 0 1-.57 7.83h13.16a4.78 4.78 0 0 1 4.42 4.86 5.42 5.42 0 0 1-1.49 3.9 4.49 4.49 0 0 1 1.83 3.78A5.31 5.31 0 0 1 62 46.55a5.22 5.22 0 0 1 .95 3 5.3 5.3 0 0 1-3.36 4.9 5.18 5.18 0 0 1 .3 1.74 5.29 5.29 0 0 1-4.83 5.27ZM27.28 60h27.64a3.81 3.81 0 0 0 3.5-3.78 3.85 3.85 0 0 0-.48-1.84.74.74 0 0 1 0-.68.78.78 0 0 1 .53-.42 3.82 3.82 0 0 0 3-3.7 3.77 3.77 0 0 0-1-2.59.74.74 0 0 1-.2-.58.76.76 0 0 1 .3-.54 3.72 3.72 0 0 0 1.55-3c0-2-1.3-2.89-2.18-2.89a.74.74 0 0 1-.75-.75.76.76 0 0 1 .75-.75c.37 0 1.84-.87 1.84-3.32a3.29 3.29 0 0 0-2.92-3.36H44.71a.74.74 0 0 1-.6-.3.72.72 0 0 1-.12-.65 23.59 23.59 0 0 0 .75-8.24c-.42-4.63-2.52-7.93-5.11-8a10.43 10.43 0 0 0-3.07.25c.33 1.75 1.14 6.6.3 9.35-2.07 6.69-8.18 12.19-9.58 13.39Z" class="cls-4"/><path d="M26.53 37.25H10.05C10 37.83 10 38.41 10 39a31.86 31.86 0 0 0 8.54 21.75h8Z" class="cls-2"/><path d="M26.53 37.25H10.05C10 37.83 10 38.41 10 39v1.26h12.5a1 1 0 0 1 1 1v19.48h3Z" class="cls-3"/><path d="M26.53 61.49h-8a.72.72 0 0 1-.55-.24A32.61 32.61 0 0 1 9.25 39c0-.6 0-1.19.05-1.78a.75.75 0 0 1 .75-.71h16.48a.74.74 0 0 1 .75.75v23.48a.74.74 0 0 1-.75.75ZM18.87 60h6.91V38h-15v1a31.12 31.12 0 0 0 8.09 21Z" class="cls-4"/><path d="M10.26 35a31 31 0 0 0-.26 4 31.9 31.9 0 0 0 10.53 23.72V35Z" class="cls-2"/><path d="M10.26 35c-.13 1-.19 2-.23 3h6.5a1 1 0 0 1 1 1v20.6a32.73 32.73 0 0 0 3 3.12V35Z" class="cls-3"/><path d="M20.53 63.47a.73.73 0 0 1-.5-.19A32.83 32.83 0 0 1 9.25 39a34.17 34.17 0 0 1 .26-4.09.76.76 0 0 1 .75-.65h10.27a.74.74 0 0 1 .75.75v27.71a.75.75 0 0 1-.44.69.81.81 0 0 1-.31.06Zm-9.6-27.72a30 30 0 0 0-.18 3.25 31.33 31.33 0 0 0 9 22V35.75Z" class="cls-4"/><circle cx="69" cy="11.99" r="2" class="cls-2"/><path d="M69 14.74A2.75 2.75 0 1 1 71.75 12 2.75 2.75 0 0 1 69 14.74Zm0-4A1.25 1.25 0 1 0 70.25 12 1.25 1.25 0 0 0 69 10.74Z" class="cls-4"/><circle cx="18" cy="8.99" r="2" class="cls-2"/><path d="M18 11.74A2.75 2.75 0 1 1 20.75 9 2.75 2.75 0 0 1 18 11.74Zm0-4A1.25 1.25 0 1 0 19.25 9 1.25 1.25 0 0 0 18 7.74Z" class="cls-4"/><circle cx="12" cy="15.99" r="2" class="cls-2"/><path d="M12 18.74A2.75 2.75 0 1 1 14.75 16 2.75 2.75 0 0 1 12 18.74Zm0-4A1.25 1.25 0 1 0 13.25 16 1.25 1.25 0 0 0 12 14.74Z" class="cls-4"/><circle cx="72" cy="62.99" r="2" class="cls-2"/><path d="M72 65.74A2.75 2.75 0 1 1 74.75 63 2.75 2.75 0 0 1 72 65.74Zm0-4A1.25 1.25 0 1 0 73.25 63 1.25 1.25 0 0 0 72 61.74Z" class="cls-4"/><circle cx="64" cy="68.99" r="2" class="cls-2"/><path d="M64 71.74A2.75 2.75 0 1 1 66.75 69 2.75 2.75 0 0 1 64 71.74Zm0-4A1.25 1.25 0 1 0 65.25 69 1.25 1.25 0 0 0 64 67.74Z" class="cls-4"/><circle cx="13" cy="63.99" r="2" class="cls-2"/><path d="M13 66.74A2.75 2.75 0 1 1 15.75 64 2.75 2.75 0 0 1 13 66.74Zm0-4A1.25 1.25 0 1 0 14.25 64 1.25 1.25 0 0 0 13 62.74Z" class="cls-4"/></g></g></svg>