<svg xmlns="http://www.w3.org/2000/svg" viewBox="0 0 81.44 77.31"><defs><style>.cls-1{fill:#e8ebec}.cls-2{fill:#97d3db}.cls-3{fill:#fff}.cls-4{fill:#8dc74a}</style></defs><g id="Capa_2" data-name="Capa 2"><g id="layer_1" data-name="layer 1"><circle cx="67.44" cy="46.48" r="14" class="cls-1"/><circle cx="33.19" cy="12" r="12" class="cls-1"/><circle cx="20" cy="57.31" r="20" class="cls-1"/><rect width="64" height="64" x="7.78" y="7.62" class="cls-2" rx="20"/><rect width="55" height="54" x="7.78" y="17.62" class="cls-3" rx="20"/><path d="M51.78 72.37h-24A20.78 20.78 0 0 1 7 51.62v-24A20.78 20.78 0 0 1 27.78 6.86h24a20.77 20.77 0 0 1 20.75 20.75v24a20.77 20.77 0 0 1-20.75 20.76Zm-24-64A19.28 19.28 0 0 0 8.53 27.61v24a19.28 19.28 0 0 0 19.25 19.26h24A19.27 19.27 0 0 0 71 51.62v-24A19.27 19.27 0 0 0 51.78 8.36Z" class="cls-4"/><path d="m57.65 49.36-6.72-1.16a5.47 5.47 0 0 1-1.32-.41H30a5.47 5.47 0 0 1-1.32.41l-6.73 1.16a8.58 8.58 0 0 0-7.13 8.46v9a20 20 0 0 0 13 4.82h24a19.93 19.93 0 0 0 13-4.82v-9a8.58 8.58 0 0 0-7.17-8.46Z" class="cls-3"/><path d="M64.78 57.82a8.58 8.58 0 0 0-7.13-8.46l-6.72-1.16a5.47 5.47 0 0 1-1.32-.41H30a5.47 5.47 0 0 1-1.32.41l-6.73 1.16a8.58 8.58 0 0 0-7.13 8.46v1.29c5.29-5 15.45-6.23 31.07-6.23 16.06 0 14.71 5.35 14.46 16.81a19.78 19.78 0 0 0 4.47-2.89Z" class="cls-2"/><path d="M51.78 72.37h-24a20.75 20.75 0 0 1-13.48-5 .77.77 0 0 1-.3-.57v-9a9.32 9.32 0 0 1 7.76-9.2l6.72-1.16a5 5 0 0 0 1.14-.35A.82.82 0 0 1 30 47h19.61a.82.82 0 0 1 .31.07 5 5 0 0 0 1.14.35l6.72 1.16a9.32 9.32 0 0 1 7.75 9.2v9a.76.76 0 0 1-.26.57 20.76 20.76 0 0 1-13.49 5.02Zm-36.25-5.92a19.26 19.26 0 0 0 12.25 4.42h24A19.22 19.22 0 0 0 64 66.45v-8.63a7.83 7.83 0 0 0-6.5-7.73l-6.7-1.16a6.24 6.24 0 0 1-1.34-.39H30.11a6.32 6.32 0 0 1-1.35.39L22 50.09a7.84 7.84 0 0 0-6.51 7.73Z" class="cls-4"/><path d="m33.79 41-.7 3.06A5.56 5.56 0 0 1 30 47.79l5.51 2.64a10 10 0 0 0 8.64 0l5.5-2.64a5.53 5.53 0 0 1-3.13-3.72L45.78 41Z" class="cls-3"/><path d="M42.71 46.26A6.91 6.91 0 0 0 45.09 50l4.52-2.17a5.53 5.53 0 0 1-3.13-3.72l-.7-3.11-3.94 1.44Z" class="cls-2"/><path d="M39.79 52.17a10.78 10.78 0 0 1-4.64-1.06l-5.52-2.64a.74.74 0 0 1-.42-.69.73.73 0 0 1 .44-.67 4.78 4.78 0 0 0 2.71-3.23l.7-3a.75.75 0 0 1 .73-.58h12a.75.75 0 0 1 .73.58l.7 3.06a4.79 4.79 0 0 0 2.71 3.21.75.75 0 0 1 0 1.36l-5.51 2.64a10.85 10.85 0 0 1-4.63 1.02Zm-8.25-4.45 4.26 2a9.19 9.19 0 0 0 8 0l4.25-2a6.29 6.29 0 0 1-2.28-3.47l-.57-2.49H34.39l-.57 2.47a6.32 6.32 0 0 1-2.28 3.49Z" class="cls-4"/><path d="M51.5 28.81c0 8-5.24 14.46-11.72 14.46S28.06 36.8 28.06 28.81s5.25-12.19 11.72-12.19S51.5 20.83 51.5 28.81Z" class="cls-3"/><path d="M51.5 28.81c0-8-5.24-12.19-11.72-12.19A11.24 11.24 0 0 0 30 21.51a12.22 12.22 0 0 1 6.75-1.89c6.48 0 11.72 4.21 11.72 12.19a16.4 16.4 0 0 1-3 9.59c3.63-2.48 6.03-7.19 6.03-12.59Z" class="cls-2"/><path d="M39.78 44c-6.87 0-12.47-6.82-12.47-15.21 0-7.74 5-12.94 12.47-12.94s12.47 5.2 12.47 12.94C52.25 37.2 46.66 44 39.78 44Zm0-26.65c-6.66 0-11 4.49-11 11.44 0 7.56 4.93 13.71 11 13.71s11-6.15 11-13.71c-.03-6.93-4.33-11.42-11-11.42ZM55 72.1a.74.74 0 0 1-.75-.75v-11.9a.75.75 0 0 1 1.5 0v11.9a.75.75 0 0 1-.75.75ZM24.55 72.1a.75.75 0 0 1-.75-.75v-11.9a.75.75 0 0 1 1.5 0v11.9a.75.75 0 0 1-.75.75Z" class="cls-4"/><path d="m49.61 47.79-4.19 7.54a10 10 0 0 0-1.25 4.53l-.39 11.76h-8l-.38-11.76a10 10 0 0 0-1.26-4.53L30 47.79l5.51 2.64a10 10 0 0 0 8.64 0Z" class="cls-3"/><path d="M44.47 57.78a10 10 0 0 1 1-2.45l4.19-7.54-5.5 2.64a10 10 0 0 1-8.64 0L30 47.79l4.18 7.54a9 9 0 0 1 .4.83h1.21a23 23 0 0 1 8.68 1.62Z" class="cls-2"/><path d="M43.78 72.37h-8a.77.77 0 0 1-.75-.73l-.38-11.76a9.3 9.3 0 0 0-1.16-4.18l-4.19-7.54a.76.76 0 0 1 .11-.88.74.74 0 0 1 .87-.16l5.52 2.64a9.19 9.19 0 0 0 8 0l5.51-2.63a.74.74 0 0 1 .87.16.76.76 0 0 1 .11.88l-4.21 7.53a9.3 9.3 0 0 0-1.16 4.19l-.39 11.75a.75.75 0 0 1-.75.73Zm-7.27-1.5h6.55l.36-11A10.82 10.82 0 0 1 44.77 55l3-5.48-3.38 1.62a10.71 10.71 0 0 1-9.28 0l-3.4-1.63 3 5.49a10.82 10.82 0 0 1 1.35 4.87Z" class="cls-4"/><path d="M37.41 25.77s4.91-4.61 13.77-.15c-1.22-5.91-5.85-9-11.4-9s-10.17 3.09-11.39 9c1.19-.57 5.5-2.3 9.02.15Z" class="cls-3"/><path d="M44.19 23.69a16.42 16.42 0 0 1 7 1.93c-1.22-5.91-5.85-9-11.4-9a12.79 12.79 0 0 0-5.14 1 10.89 10.89 0 0 1 9.54 6.07Z" class="cls-2"/><path d="M37.41 26.52a.73.73 0 0 1-.42-.14c-3.18-2.2-7.14-.63-8.28-.09a.76.76 0 0 1-.78-.09.74.74 0 0 1-.27-.74c1.22-5.92 5.87-9.59 12.12-9.59s10.91 3.67 12.13 9.59a.75.75 0 0 1-.28.75.77.77 0 0 1-.79.08c-8.29-4.17-12.87 0-12.91 0a.75.75 0 0 1-.52.23Zm-4.25-2.78a8.18 8.18 0 0 1 4.21 1.11c1.38-1 5.75-3.46 12.67-.59-1.49-4.35-5.22-6.89-10.26-6.89S31 20 29.5 24.37a11.85 11.85 0 0 1 3.66-.63ZM20.93 42.15h-1.38a.75.75 0 0 1 0-1.5h1.38a.75.75 0 0 1 0 1.5ZM25.55 42.15h-1.39a.75.75 0 0 1 0-1.5h1.39a.75.75 0 1 1 0 1.5ZM22.55 45.15a.74.74 0 0 1-.75-.75V43a.75.75 0 0 1 1.5 0v1.4a.75.75 0 0 1-.75.75ZM22.55 40.54a.75.75 0 0 1-.75-.75V38.4a.75.75 0 0 1 1.5 0v1.39a.76.76 0 0 1-.75.75ZM59.06 38.15h-1.39a.75.75 0 0 1 0-1.5h1.39a.75.75 0 0 1 0 1.5ZM63.67 38.15h-1.38a.75.75 0 0 1 0-1.5h1.38a.75.75 0 0 1 0 1.5ZM60.67 41.15a.75.75 0 0 1-.75-.75V39a.75.75 0 1 1 1.5 0v1.4a.74.74 0 0 1-.75.75ZM60.67 36.54a.76.76 0 0 1-.75-.75V34.4a.75.75 0 1 1 1.5 0v1.39a.75.75 0 0 1-.75.75ZM14.62 28.69h-1.38a.75.75 0 1 1 0-1.5h1.38a.75.75 0 1 1 0 1.5ZM19.24 28.69h-1.38a.75.75 0 0 1 0-1.5h1.38a.75.75 0 0 1 0 1.5ZM16.24 31.69a.75.75 0 0 1-.75-.75v-1.38a.75.75 0 0 1 1.5 0v1.38a.75.75 0 0 1-.75.75ZM16.24 27.08a.76.76 0 0 1-.75-.75v-1.39a.75.75 0 0 1 1.5 0v1.39a.76.76 0 0 1-.75.75Z" class="cls-4"/></g></g></svg>