<svg xmlns="http://www.w3.org/2000/svg" viewBox="0 0 1100.59 712.6"><defs><style>.cls-1,.cls-5{fill:#ffe0e0}.cls-1,.cls-10,.cls-11,.cls-12,.cls-13,.cls-16,.cls-2,.cls-3,.cls-4,.cls-9{fill-rule:evenodd}.cls-2{fill:#ffc9c9}.cls-3{fill:#fff}.cls-4,.cls-7{fill:#3f95a1}.cls-13{fill:#b1c745}.cls-9{fill:#214e54}.cls-10{fill:#689437}.cls-11{fill:#ff9c9c}.cls-12{fill:#8cc74a}.cls-16{fill:#7d8c31}</style></defs><g id="Capa_2" data-name="Capa 2"><g id="Layer_1" data-name="Layer 1"><path d="m514 300 174.55-10.8-.62 6.85 45.52.73-67.18 26.07s-63.93 129.22-9.94 134.91L660 584.25l-4.69 68.32-119.06 7.36L514 300Zm241.13-14.91L1058 266.36l1.8 29.64a13.22 13.22 0 0 0 1.15 26.39h.48l18.79 303.95-325.06 20.06Z" class="cls-1"/><path d="M559.93 360h1.31c16.65 1.11 29.83 15.36 29.83 32.78 0 18.15-14.29 32.86-31.93 32.86-16 0-29.29-12.16-31.57-28 0-.18-.05-.36-.08-.54v-.27c0-.19 0-.39-.07-.58v-1.01c0-.24 0-.49-.05-.74v-3.36c0-.28 0-.56.05-.83 0-.28 0-.56.07-.84l.09-.82.12-.82c0-.27.08-.54.13-.81q.06-.41.15-.81c.05-.27.11-.53.16-.8.06-.26.13-.52.19-.79l.21-.78c.07-.26.15-.52.22-.78s.16-.51.25-.76.17-.51.25-.76l.28-.75.3-.75c.1-.24.2-.49.31-.73q.15-.36.33-.72c.11-.24.22-.48.34-.71l.36-.71c.12-.23.25-.46.38-.69l.39-.68c.13-.23.27-.45.41-.68l.42-.66c.14-.22.29-.43.44-.65l.45-.64c.15-.21.31-.41.47-.62s.32-.41.48-.62l.49-.6.51-.59.52-.58.54-.56c.18-.19.36-.37.55-.55l.56-.54.57-.52.59-.51.59-.5.61-.48.62-.46.63-.45.65-.44.65-.42.66-.4.64-.33.68-.37.69-.35.71-.34.71-.32.72-.3.73-.29.73-.27.75-.25.75-.23.77-.21.76-.19.78-.18.78-.15.79-.14.8-.11c.27 0 .53-.07.8-.09l.81-.08.81-.05h2.4Zm-32.67 33.69v-.85c-.01.31-.01.59 0 .87Z" class="cls-2"/><path d="m514 300 37.33-2.31a33.44 33.44 0 0 1 .47 5.61c0 18.15-14.3 32.86-31.93 32.86a31.52 31.52 0 0 1-3.65-.21ZM958.56 221c-.42-3.16-1.87-6.56-6.19-6.23-7.92.62-5.25 10.6-13.9 15.55s-14.94 15.7-16.29 24.78a36.52 36.52 0 0 0-1.35 9.06 40.67 40.67 0 0 0 2.52 14.84v.06c.12.32.25.65.38 1 .53 1.33 1.12 2.65 1.78 3.95v.07c.15.3.31.59.46.88l.06.11c.15.28.31.57.48.86v.08q1.08 1.91 2.34 3.73l.07.11.55.77.13.17c.17.24.35.49.53.72l.12.16c.19.26.39.51.59.76l.08.11c.7.87 1.42 1.72 2.17 2.56l.15.17.6.64.2.22.57.59.21.22.6.6.21.19.67.64.14.14c.55.51 1.11 1 1.69 1.51l.21.18c.21.19.43.37.65.55l.28.23.6.49.31.24.61.47.3.23.69.51.22.16.91.65 1 .66.25.16.72.47.33.21.65.41.38.22.65.39.36.21.69.39.34.19.79.43.25.14 1.06.54.21.1.85.42.4.19.7.32.4.18.71.31.42.18.73.3.39.16.79.31.36.14 1.15.42 1.27.44 1.28.41 1.28.38c26.06 7.48 52.94-2.9 60.05-24.7a36 36 0 0 0 1.37-4.89c4.49-19.18-3.16-32.88-14.28-41.7-12-9.53-4.62-18.06-10.18-20.19-2.56-1-4.85-.14-6.74 1.44a15.07 15.07 0 0 0-1.28-1c-9.83-6.95-2.79-16.58-8.34-17.57s-4.19 9-15.58 11.5c-3.2.7-5.61 2.85-7.78 5.7Z" class="cls-3"/><path d="m1073.64 519.85 3.07 49.65a33.49 33.49 0 0 1-3.07-49.65Z" class="cls-2"/><path d="M1063.15 493c17.59 0 31.93-14.76 31.93-32.85s-14.34-32.86-31.93-32.86-31.93 14.76-31.93 32.86 14.35 32.85 31.93 32.85Z" class="cls-3"/><path d="m1059.64 293.37.16 2.6a13.32 13.32 0 0 0-4.36 1.15c1.31-2 2.31-3.66 4.2-3.75Zm1.79 29 5 81.33a59.89 59.89 0 0 1-26.51-1.61l-1.28-.38-1.28-.41-1.28-.44-1.14-.42-.36-.14-.79-.31-.39-.16-.73-.3-.42-.18-.71-.31-.4-.18-.7-.33-.4-.19-.85-.41-.21-.1-1.06-.55-.26-.13-.78-.43-.34-.19-.69-.39-.36-.21-.66-.39-.37-.22-.65-.41-.33-.21-.72-.47-.26-.16-1-.66c-.31-.21-.61-.43-.91-.65l-.22-.16-.7-.51-.3-.23-.6-.47-.31-.24-.6-.49-.28-.23-.65-.55-.21-.18c-.58-.49-1.14-1-1.69-1.52l-.15-.13-.67-.64-.2-.2-.6-.59-.21-.22-.57-.59-.21-.22-.59-.64-.15-.17a57.62 57.62 0 0 1-2.17-2.56l-.08-.11c-.2-.25-.4-.5-.59-.76l-.12-.16-.54-.72-.12-.18c-.19-.25-.37-.51-.55-.77l-.07-.1q-1.26-1.83-2.34-3.73v-.08c-.16-.29-.32-.58-.47-.87l-.06-.1c-.16-.29-.31-.59-.46-.88v-.07c-.66-1.3-1.26-2.62-1.78-4l-.37-1v-.05a40.7 40.7 0 0 1-2.53-14.88 36.52 36.52 0 0 1 1.35-9.06c1.35-9.08 7.63-19.83 16.29-24.78s6-14.93 13.9-15.55c4.32-.33 5.77 3.06 6.19 6.23 2.16-2.81 4.58-4.92 7.87-5.64a16.77 16.77 0 0 0 4-1.4 13.23 13.23 0 0 0 12 18.82Z" class="cls-2"/><path d="M547.81 595.89C572 562.13 682.53 430.72 861 563.54c17 12.67 30.88 18.11 42.37 18v-.76a9 9 0 0 1 16.9-4.29 45.85 45.85 0 0 0 12-11.58c15.71-21.11 24.59-59.67 34-100.56 5.52-24 11.22-48.75 18.6-71.29 13.56-41.44 32.77-75.3 66.84-82.79a8.42 8.42 0 0 1-.1-1.33 9 9 0 0 1 18-.16 103.63 103.63 0 0 1 27.88 5.4l-.17.53a102.41 102.41 0 0 0-27.71-5.36 9 9 0 0 1-17.78 1.49c-33.83 7.43-52.94 41.16-66.43 82.34-7.37 22.52-13.07 47.28-18.59 71.25-9.43 40.94-18.32 79.56-34.1 100.76A46.82 46.82 0 0 1 920.52 577a9 9 0 1 1-17.06 5.11c-11.61.17-25.6-5.31-42.77-18.08-178-132.48-288.3-1.5-312.41 32.19a9.28 9.28 0 1 1-.47-.29Z" class="cls-4"/><path d="m-.007 72.61 368.486-9.2 12.093 484.46-368.485 9.198z" class="cls-5"/><path d="m379.25 494.55 1.33 53.31-368.48 9.2-1.73-69.31 38.25.71c48.14 16.07 109.27 22.83 181.58 3.34Z" class="cls-2"/><path d="m22.64 89.48 331.78-8.28 8.45 428.73-344.45 8.6 4.22-429.05z" class="cls-3"/><path d="M54.16 194.59h49.2v49.2h-49.2z" style="fill:#b1c745" transform="rotate(-89.78 78.756 219.186)"/><path d="m122.1 43.11 23-.57A17.86 17.86 0 0 1 162.42 25l41.47-1a17.86 17.86 0 0 1 18.21 16.62l23-.58a6.45 6.45 0 0 1 6.58 6.26l1 40a6.44 6.44 0 0 1-6.26 6.58l-123 3.12a6.44 6.44 0 0 1-6.58-6.26l-1-40a6.45 6.45 0 0 1 6.26-6.63Z" class="cls-3"/><path d="m51.225 321.235.189-49.2 49.2.19-.19 49.2zM41.939 390.14l.189-49.2 49.2.19-.19 49.199z" class="cls-5"/><path d="m47 346.4 50.58.2-.2 52-52-.2.2-52Zm.63-156.4 50.58.19-.2 52-52-.2.2-52Zm47.8 3L49 192.78l-.18 46.43 46.43.18.18-46.39Zm-48.11 75.2 50.58.2q-.09 26-.2 52l-52-.2.2-52Zm47.81 3L48.7 271l-.18 46.43 46.43.19.18-46.43Zm-.31 78.19-46.43-.18-.18 46.43 46.43.18Z" class="cls-4"/><path d="m52.6 214.78 9.53-7.29 9 12.11 44.51-33.76 4.48 5.88-50.46 45.51-17.06-22.45z" class="cls-4"/><path d="m139.674 195.63 79.275-1.979.303 12.116-79.276 1.98z" class="cls-7"/><path d="m233.642 193.296 29.36-.733.303 12.116-29.36.733z" class="cls-5"/><path d="m140.104 212.514 50.095-1.25.302 12.116-50.094 1.25zM141.688 275.645l53.403-1.333.303 12.116-53.403 1.333zM208.475 273.979l56.522-1.411.302 12.106-56.522 1.41z" class="cls-7"/><path d="m142.104 292.53 165.529-4.132.302 12.106-165.528 4.132z" class="cls-5"/><path d="m132.795 346.754 53.404-1.333.302 12.116-53.403 1.334zM199.597 345.078l103.128-2.574.303 12.116-103.128 2.575zM133.227 363.629l83.314-2.08.303 12.116-83.314 2.08z" class="cls-7"/><path d="M245.68 360.24h46.26v12.12h-46.26z" style="fill:#e6e6e6" transform="rotate(-1.43 268.713 366.398)"/><path d="m284.63 112.03-146.85 4.27v22.02l146.85-4.26v-22.03zM84.55 117.84l44.05-1.28v22.03l-44.05 1.28v-22.03zM707.33 202.7s-14.89-15-3.24-54.71 90.6-57.15 130.24-5.46c39.83 51.93 24.21 117.47 9.17 146.4H840c2.77-11.15 3.23-28.91 3.23-28.91a178.9 178.9 0 0 1-7.93 28.91H705.52l1.68-23-4.81 23H693Z" class="cls-4"/><path d="M857.35 194.87c6.88 37.76-3.62 74.38-13.85 94.06H840c2.77-11.15 3.23-28.91 3.23-28.91a178.9 178.9 0 0 1-7.93 28.91H705.52l1.68-23-4.81 23H693l14.35-86.23 103.18 6.06c3.33-19.39 24.47-32.76 46.82-13.89Z" class="cls-9"/><path d="m410 349.14 32.83-20.47s54.54 77 36.92 243.68c0 0 3.67 34.51-37.44 36S410 349.14 410 349.14Z" class="cls-10"/><path d="M483.23 503.7a608.21 608.21 0 0 1-3.48 68.65s3.67 34.51-37.44 36c-17.19.61-25.65-44.58-29.68-97.39 6-2.78 13.17-3.62 21.6-1.74 30.64 6.84 43.57 1.07 49-5.52Z" class="cls-11"/><path d="M266.18 550.72c1.91-28.43 3.9-83.38-6.73-108.47L198 543.79s-27.79-7-33.07-46.91a675.61 675.61 0 0 1-5.29-78.13l6.17-75.33-31-41.86 10.63-8.14L189.9 320l10.37 70.81 13.51-6.76s12.66-50.63 35.83-66.67 55.22-19.68 55.22-19.68l.88-30-37.3-11.7-15.71-67s-30.55 1.33-37.6-37.3 22.49-67.65 22.49-67.65l59.9 1.57 13.8 23.79S340 93.93 369.36 98.68l11.22 449.18Z" class="cls-3"/><path d="m374.55 300.32 68.29 28.35c20.7 62.76 24.84 164.93 5.23 250.38H268.91c21.39-109.18-28.74-185.6-27.11-230.93.92-25.33 22.78-39.44 70.7-47.8 0 0 29.24 15.78 62.05 0Z" class="cls-12"/><path d="m374.55 300.32 15.52 6.44v.57c0 11.36-20.85 20.56-46.56 20.56S297 318.69 297 307.33a9.77 9.77 0 0 1 .93-4.1q6.84-1.56 14.59-2.91s29.22 15.78 62.03 0ZM274 512.15c-3.11-74.19-33.44-128.6-32.17-164 .48-13.09 6.54-23.18 18.91-31 9.61 2.82 18.36 10.13 22.61 25.9 12.23 45.41-9.35 169.1-9.35 169.1Z" class="cls-10"/><circle cx="266.28" cy="142.26" r="47.69" class="cls-7" transform="rotate(-13.23 266.251 142.255)"/><path d="M295.28 180.12a47.69 47.69 0 0 1-67.9-65.43 47.69 47.69 0 0 1 67.9 65.43Z" class="cls-9"/><path d="M406.85 203.11s13.59-18.36 6.25-49.57-47-66-101.3-38.1c-51 26.19-84.57 133 12.95 148.69 97.1 15.64 82.1-61.02 82.1-61.02Z" class="cls-4"/><path d="M263.51 186.31c-5.77 34.48 8.72 69.35 61.24 77.82 3.94.63 7.67 1.1 11.25 1.44.51-11.6-3-26.53-13.71-45.8 0 0-5-28.43-34.85-33.85 15.72-3.11 30.44 5.48 30.44 5.48-13.42-17-27.8-8.9-32.16-5.77a67.47 67.47 0 0 0-20.34.36Z" class="cls-9"/><path d="M408.16 174.83s8.56 62.09-3.44 105.89c0 0-80.91 16.77-91.53-42 0 0-22.14 14.73-29.45-9.38s11.58-40.77 22.43-23.9c0 0 53.14-2 74.21-40.61 0 .03 15.56 15.72 27.78 10Z" class="cls-2"/><path d="M408.16 174.83s.09.66.24 1.87c-5.65 1.75-15.44 3.23-23.94-3.33 0 0-27.53 34.28-78.29 32.1 0 0 53.14-2 74.21-40.61 0 0 15.56 15.69 27.78 9.97ZM309.22 240.86c-6.72 3-20.1 6.23-25.48-11.49a33.18 33.18 0 0 1-.74-17.9c9.61-8.89 16.65 3 16.65 3-7.64 16.9 6.77 15.94 6.77 15.94Z" class="cls-11"/><path d="M309.22 240.86c2.22 22.67 4.19 45.06 3.28 72.33 0 0 28.64 15.78 62.05 0 0 0 1.11-12.44 1.73-30.31-23.92-.66-55.33-8.23-62.65-42-.16-.69-.3-1.4-.44-2.13H312.62l-.13.07h-.51l-.08.05h-.08l-.17.09h-.06l-.2.1-.13.07-.26.12-.1.05-.27.13h-.06l-.31.15h-.09l-.36.16Z" class="cls-2"/><path d="M375.2 307.75c.36-7 .78-16.13 1.08-24.87-23.92-.66-55.33-8.23-62.65-42-.16-.69-.3-1.4-.44-2.13 0 0 3.81 57.25 62.01 69Z" class="cls-11"/><path d="M307.91 208a92.66 92.66 0 0 0 18.64-2.57s-9.73 8.78-18.64 2.57Z" class="cls-9"/><path d="M448.07 579.05v132.17H228.45s-5.72-88.85 40.46-132.17Z" class="cls-4"/><path d="M448.07 579.05v7.29l-124.43 6.16c-8.48 12.82-25 46.16-31.46 117.35l-.55-.05C298 639.18 314.37 605.69 323 592.53l-68.2 3.37a96.69 96.69 0 0 1 14.15-16.85Z" class="cls-9"/><path d="M448.07 579.05v132.17h-89.29l10.08-50.62c51.32-7.54 66.27-66.13 65.51-81.55Z" class="cls-9"/><path d="M187.51 506.09s30.23-189.2 78.74-186.56-18.85 178.92-25.1 202.06-61.44 40.27-53.64-15.5Z" class="cls-12"/><path d="M187.51 506.09s3.24-20.23 9.28-47.35a61 61 0 0 1 44.09 58.58 59.32 59.32 0 0 1-.3 6c-8.4 22.22-60.67 37.15-53.07-17.23Z" class="cls-10"/><path d="M208.62 543.43c18.59-5.5 26.44-26.43 16.89-76.36s-25.7-127.76-25.7-127.76-2.38-15.05-9.91-19.27-32.49-13.59-40.2-22c0 0-8.44 2-7.71 6.61.4 2.5 6.64 8.17 12.23 12.8a173 173 0 0 1-17.16-3.93c-2.93-4.57-8.64-12.22-16.18-16.3 0 0-5.85.12-8.47 4.87a11 11 0 0 0-11.33 5.1l36.5 24.44s19.83 1.48 31.66 9.4l.47 1.25c-6.86 30.72-14.21 216.88 38.91 201.15Z" class="cls-2"/><path d="M208.62 543.43c18.11-5.36 26-25.38 17.58-72.62.45 22.85-4.9 48.19-15.74 58.14-8 7.38-19.11 6.28-33.08-10.6 6.73 18.57 16.72 29.38 31.24 25.08ZM448.07 587.93c7.53-2.15 21.85-5.24 28.74 1.43 0 0-8 58-17.15 65.13a103.94 103.94 0 0 1-11.59 7.56Z" class="cls-11"/><path d="m742.55 300.32-68.29 28.35s-59.79 106.8-17.92 129.07c-.21 40.38 3.8 82.56 12.69 121.31h179.16c-21.39-109.18 28.74-185.6 27.11-230.93-.92-25.33-22.78-39.44-70.7-47.8 0 0-29.25 15.78-62.05 0Z" class="cls-13"/><path d="M842.88 521.93c.67-79.21 33.75-136.85 32.42-173.81-.47-12.92-6.39-22.91-18.42-30.72a37.27 37.27 0 0 0-9.29 2.61c-14.88 6.39-32.35 51.49-25.42 117.15-9.22 9.72-27.41 21.46-61.81 22.52 0 0 45.32 13.72 63.28-10.79a346.24 346.24 0 0 0 19.24 73.04Z" class="cls-10"/><path d="m742.55 300.32-11 4.56c-2.16 2.17-3.35 4.52-3.35 6.95 0 9.83 19.4 17.26 43.32 16.61s43.33-9.15 43.33-19c0-3-1.82-5.78-5-8.18q-2.58-.5-5.26-1s-29.24 15.84-62.04.06Z" class="cls-3"/><path d="M707.6 180.55s-3.47 62.59 12.07 105.25c0 0 82 10.13 87.79-49.28 0 0 23.27 12.87 28.59-11.76s-14.86-39.69-24.3-22c-29.31-32.76-92.9-26.4-104.15-22.21Z" class="cls-2"/><path d="M707.6 180.55s-.31 5.59-.33 14.56c7-.47 15.78-3.09 24.16-11.21 0 0 11 20 37.45 21.11 0 0-12.88-3.24-20.36-13.42 0 0 17.72 19.68 63.23 11.18-29.31-32.77-92.9-26.41-104.15-22.22ZM811.6 238.29c6.94 2.42 20.54 4.57 24.45-13.53a33 33 0 0 0-.72-17.89C825 198.78 819 211.23 819 211.23c9 16.22-5.44 16.43-5.44 16.43Z" class="cls-11"/><path d="M807.46 236.52c-2.22 22.67-3.86 43-2.86 70.24.55 15.06-61.86 20.93-62.05 6.43 0 0-1.11-12.44-1.72-30.31 25-.69 56.71-8.91 63.08-44.13Z" class="cls-2"/><path d="M741.8 302.83c-.29-4.43-.6-10.09-.85-16.59 20.5-1.14 50.08-7.28 61.79-32-2.99 19.53-14.3 42.89-60.94 48.59Z" class="cls-11"/><path d="M669 579.05v132.17h219.65s5.72-88.85-40.46-132.17Z" class="cls-4"/><path d="M669 579.05v2.4L861.7 595a95.56 95.56 0 0 0-13.51-15.9Z" class="cls-9"/><path d="M669 579.05v132.17h89.29l-10.05-50.62c-51.32-7.54-66.27-66.13-65.51-81.55Z" class="cls-9"/><path d="M929.59 506.09s-30.23-189.2-78.74-186.56S869.69 498.45 876 521.59s61.39 40.27 53.59-15.5Z" class="cls-13"/><path d="M929.59 506.09s-.39-2.39-1.13-6.61c-5.36-6.81-14.49-12-25.92-13.68-13.15-2-26.35 1-35.89 7.24 4.54 13.71 8.08 24 9.3 28.55 2.9 10.71 16.26 20.12 29 21.63 9.93-2.48 18.51-7.68 23.66-14.62 1.8-5.6 2.31-13 .98-22.51Z" class="cls-10"/><path d="M902.54 492.43c21.83 6.18 35.29 23.71 30.07 39.15s-27.15 22.94-49 16.77-35.29-23.71-30.06-39.15 27.17-22.95 48.99-16.77Z" class="cls-3"/><path d="M918 526.69c-.51-19.37-18.69-32.37-69.39-36.07s-130.06-8.25-130.06-8.25l-48.78-4.74-37.45.55s-4.41 9.55 1.1 10.65c3.45.69 22.51 1.24 36.24 1.55l-.26 29.84 44.19-8c27.88 14.57 205.83 69.85 204.41 14.47Z" class="cls-2"/><path d="M918 526.69c-.44-16.78-14.15-28.78-50.76-34.09 24.1 13.93 47.66 34.66 28.64 56.29 13.83-3.03 22.43-9.89 22.12-22.2ZM647.26 489.54c.28 5.83 1.36 21.89 5.15 29.4l17 1.28.26-29.88c-7.34-.2-16.01-.47-22.41-.8Z" class="cls-11"/><path d="M741 181.42c9.43 11.56 30.39 28 70.71 21.35l-19.92-53.62-69.39-8.44-20.19 31.94 2.93 22.76s17.35-3.27 25.84-16.29c5 10.19 16.38 23.1 42.26 24.42.04 0-22.18-2.32-32.24-22.12ZM147.52 222.13S154 230.88 149 243l3.86-.67s8.14-10.33 3.63-22.08Z" class="cls-4"/><path d="M151.55 294.13c15.16 0 27.52-12.72 27.52-28.32s-12.36-28.32-27.52-28.32S124 250.21 124 265.81s12.39 28.32 27.55 28.32Z" class="cls-10"/><path d="M151.55 237.49a26.83 26.83 0 0 1 15.39 4.84 28.85 28.85 0 0 1 3.87 14.49c0 15.64-12.32 28.32-27.52 28.32a26.92 26.92 0 0 1-15.4-4.84 28.88 28.88 0 0 1-3.89-14.49c0-15.64 12.35-28.32 27.55-28.32ZM158.23 235.88s6.14-14 25.92-9.88c0 0-2.54 24.05-25.92 9.88Z" class="cls-13"/><path d="M107.62 709.83h22.13c-2.46-12.44 5.15-22.16 17.91-22.16 10.34 0 21.08 6.38 27.4 15.41a14.73 14.73 0 0 1 13.19-7.56 19.17 19.17 0 0 1 18.11 14.31h423.7a18.92 18.92 0 0 1 35.92 0H924v2.77H107.62v-2.77Zm894.05 2.77h-49.93v-2.77h17.78c1.77-7.4 8-13.17 14.42-13.17s10.89 5.77 10.42 13.17h7.31Z" class="cls-9"/><path d="M39.79 709.83h37.26v2.78H39.79z" style="fill:#333"/><path d="M510.8 9.67 673.15.49a13 13 0 0 1 13.69 12.23l5.16 91.37a13 13 0 0 1-12.22 13.7l-9.44.53-37.74 2.13-26.78 1.55-88.39 5a13 13 0 0 1-13.69-12.23l-5.17-91.37A13 13 0 0 1 510.8 9.67Z" class="cls-1"/><path d="M501.21 9.2 663.56 0a13.3 13.3 0 0 1 14 12.49l5.16 91.37a13.3 13.3 0 0 1-12.49 14l-9.32.53L646.1 135a4.62 4.62 0 0 1-3.22 1.55 4.7 4.7 0 0 1-3.39-1.17l-16.56-14.8L507.87 127a13.29 13.29 0 0 1-14-12.49l-5.17-91.37a13.29 13.29 0 0 1 12.49-14ZM663.59.58 501.24 9.75a12.74 12.74 0 0 0-12 13.4l5.16 91.37a12.74 12.74 0 0 0 13.4 12L623.13 120l16.73 14.95a4.14 4.14 0 0 0 5.83-.33l14.95-16.74 9.55-.54a12.74 12.74 0 0 0 12-13.4L677 12.54a12.72 12.72 0 0 0-13.4-12Z" class="cls-9"/><ellipse cx="1068.66" cy="464.38" rx="31.93" ry="32.86" style="fill:#689437"/><path d="M1068.66 431.52c.7 0 1.4 0 2.09.07a27 27 0 1 1-33.67 37.64 33.66 33.66 0 0 1-.35-4.85c0-18.15 14.27-32.86 31.93-32.86Z" class="cls-12"/><path d="M189.17 613.54c3.77-2.18 14.62-6.2 21.88-6.51s-3.1-9.19 3.24-9.84 5.68 7.6 13.22 10.26 14.05 10.25 16.43 17.22c8.06 16.53-.49 38.26-19.85 49.42-20.08 11.58-44.62 7.66-53.81-9.32-8.74-16.15-4.65-29.36 3.47-38.64s1.05-14.92 5.13-17.41 8.42 2 10.29 4.81c.46-.28-3.78 2.18 0 .01Z" class="cls-16"/><path d="M224.09 674.1c16.73-9.65 25.39-27.19 22.23-42.45-3.41-5.26-8.76-11.25-16.15-13.14s-12-7.07-16-11.5c-3.46-3.86-6.54-7.18-10.89-7.33-9.35-.34-9.72-8.42-14-6.84s2.71 8.17-4 15.07c-3.1 3.16-3.11 6.51-3.09 10.47 0 4.68.11 10.23-4.75 17.38-4.22 6.18-9.23 11.64-10.83 18.35a29.53 29.53 0 0 0 3.67 10.67c9.64 16.73 33.72 20.9 53.81 9.32Z" class="cls-13"/><path d="m212.68 662.1-1.7-5.1-23.03-6.03.14-.46 22.71 5.95-6.35-19.12-16.36-3.08.11-.47 16.08 3.03-6.11-18.39-9.86-2.36.13-.46 9.55 2.28-4.75-14.32.43-.18 4.77 14.36 8.03-10.25.34.29-8.2 10.47 6.12 18.44 11.25-11.55.31.33-11.4 11.7 6.37 19.18 19.84-21.54.33.32-20 21.71 1.68 5.07-.43.18z" class="cls-16"/><path d="m948.51 577.64 43.81.37v.55l-43.8-.37v-.55Zm2.28 9.55 12.11-.07v.55l-12.12.07ZM510 345.09l60.6-1.26v.55l-60.6 1.27v-.56Zm.9 14.68 35.47-1.26v.55l-35.47 1.26Z" class="cls-9"/><path d="M1056.52 437.62c-2-1.17-5.08.34-6.83 3.37s-1.53 6.43.49 7.6 5.08-.35 6.83-3.38 1.53-6.42-.49-7.59Z" class="cls-3"/><ellipse cx="514.03" cy="299.99" rx="31.93" ry="32.86" style="fill:#7d8c31"/><path d="M514 267.13c.7 0 1.4 0 2.09.07a27 27 0 1 1-33.67 37.64 33.66 33.66 0 0 1-.35-4.85c.03-18.15 14.32-32.86 31.93-32.86Z" class="cls-13"/><path d="M501.89 273.23c-2-1.17-5.08.34-6.83 3.37s-1.53 6.43.49 7.6 5.08-.35 6.83-3.37 1.53-6.43-.49-7.6ZM428.66 317.1s41 77.36 25.63 195.07c0 0 29.44-118.71-25.63-195.07ZM748.07 323.92c7.89 3.19 19 5 31.4 4.67 23.92-.65 43.32-9.15 43.32-19 0-3.62-2.14-6.92-6.53-8.47 2.77 2.27 4.33 4.86 4.33 7.64 0 9.83-19.4 18.32-43.33 19-11.26.32-21.49-1.17-29.19-3.84Z" class="cls-3"/><path d="M849 320c-.06 0-19.71 6.64-15.74 36 3.88 28.77 30.54 126.58 32.14 132.42 3.06-1 31.07-9.43 52.7 10.83l-.38.4c-22.63-21.2-52.34-10.64-52.42-10.61l-.28.09-.08-.28c-.08-.3-28.23-103.12-32.23-132.77-4-29.86 16-36.63 16.11-36.65Z" class="cls-9"/><path d="M703.89 148.67A86.64 86.64 0 0 1 833.13 141c-40-49.8-117.51-32.3-129 7Z" class="cls-4"/><path d="M251 322.49c17.53-7.4 27.42-3.41 32.08 7.62 14.7 34.8-23.42 140.36-36.82 177.45-1.7 4.72-3 8.33-3.75 10.54l-.52-.18c.74-2.21 2-5.82 3.75-10.55 13.38-37 51.44-142.44 36.83-177-4.57-10.77-14.23-14.62-31.4-7.37Z" class="cls-3"/><path d="M995.63 225.45c-5.11-1.82-19.31-4.32-28.28-3.08s1.76-12-6.17-11.34-5.25 10.59-13.91 15.54-14.93 15.7-16.28 24.79c-6.18 22.07 9.16 46.8 35.39 56.15 27.21 9.7 56.42-.6 63.89-23.47 7.1-21.76-.87-37-12.91-46.59s-4.62-18.06-10.18-20.2-9.87 4.4-11.54 8.19c-.64-.24 5.11 1.84-.01.01Z" class="cls-4"/><path d="M966.37 307.52c-22.67-8.09-37.22-27.66-36.75-47.08 3-7.21 8.22-15.74 16.86-19.71 8.8-4 13.16-11.37 17-17.69 3.38-5.51 6.41-10.26 11.71-11.42 11.39-2.5 10-12.5 15.58-11.5s-1.49 10.62 8.33 17.56c4.51 3.19 5.27 7.28 6.13 12.15 1 5.74 2.15 12.57 9.72 20.24 6.55 6.64 13.92 12.2 17.38 20.08a37 37 0 0 1-2.11 13.9c-8.04 22.66-36.64 33.17-63.85 23.47Z" class="cls-13"/><path d="m977.68 290.25.94-6.63 26.88-12.55-.27-.54-26.51 12.38 3.5-24.86 19.37-7.43-.23-.56-19.04 7.32 3.37-23.92 11.56-5.09-.26-.55-11.2 4.94 2.63-18.62-.58-.12-2.63 18.66-12.13-10.76-.37.43 12.41 11-3.39 23.98-16.37-11.64-.31.47 16.6 11.8-3.52 24.93-29.15-21.96-.32.46 29.38 22.14-.93 6.6.57.12z" class="cls-16"/><path d="M140.16 244.21c1.91.51 1.47 3.41-1 6.48s-6 5.15-7.91 4.65-1.47-3.41 1-6.48 6-5.16 7.91-4.65Z" class="cls-3"/><path d="M1064.92 214.86c5.52 0 7.95 4.47 5.43 10s-9 10-14.54 10-8-4.47-5.43-10 9.03-10 14.54-10Z" class="cls-13"/><path d="M571.58 53a6.75 6.75 0 1 1-6.16 7.3 6.76 6.76 0 0 1 6.16-7.3ZM609.42 49.72a6.75 6.75 0 1 1-6.16 7.3 6.74 6.74 0 0 1 6.16-7.3ZM590.5 51.33a6.76 6.76 0 1 1-6.16 7.31 6.75 6.75 0 0 1 6.16-7.31Z" class="cls-4"/><path d="M151.66 29.32a17.65 17.65 0 0 1 7.92-2.1l41.47-1a17.86 17.86 0 0 1 18.21 16.62l23-.57a6.44 6.44 0 0 1 6.58 6.26l1 40a6.45 6.45 0 0 1-6 6.57 6.42 6.42 0 0 0 2.33-5.1l-1-40a6.45 6.45 0 0 0-6.59-6.27l-22.95.58a17.86 17.86 0 0 0-18.21-16.62l-41.47 1a17.45 17.45 0 0 0-4.29.63Z" class="cls-1"/><path d="M126.68 98.46a6.73 6.73 0 0 1-6.68-6.73l.17-40a6.73 6.73 0 0 1 6.75-6.73l22.7.09a18.13 18.13 0 0 1 18.12-17l41.49.18a18.14 18.14 0 0 1 18 17.15l22.71.09a6.73 6.73 0 0 1 6.66 6.73l-.17 40h-.55l.17-40a6.16 6.16 0 0 0-1.79-4.34 6.08 6.08 0 0 0-4.33-1.82L226.68 46v-.27a17.6 17.6 0 0 0-17.44-16.88l-41.49-.18a17.57 17.57 0 0 0-17.58 16.74v.26l-23.22-.1a6.18 6.18 0 0 0-6.18 6.12l-.17 40a6.16 6.16 0 0 0 1.79 4.34 6.08 6.08 0 0 0 4.33 1.82v.56Z" style="fill:#333;fill-rule:evenodd"/><path d="M543.29 611.11h-2.78v-5.55h2.78v5.55Zm370.65 25.47-2.78.17v-.94h2.78v.77Zm0-50.72h-2.78v-5.55h2.78v5.55Zm0 41.62h-2.78v-5.55h2.78v5.55Zm0-13.87h-2.78v-5.55h2.78v5.55Zm0-13.88h-2.78v-5.55h2.78v5.55Zm-370.65 53h-2.78v-5.55h2.78v5.55Zm0-13.88h-2.78v-5.55h2.78v5.55Zm0-13.87h-2.78v-5.55h2.78Z" class="cls-4"/><path d="M114.41 629c-5.51 0-7.94 4.47-5.42 10s9 10 14.54 10 7.94-4.48 5.43-10-9.03-10-14.55-10Z" class="cls-13"/></g></g></svg>