<svg xmlns="http://www.w3.org/2000/svg" viewBox="0 0 1059.3 851.68"><defs><style>.cls-1{fill:#b6db8b}.cls-2{fill:#d5eabc}.cls-3{fill:#f7f6f1}.cls-4{fill:#ddc0b3}.cls-5{fill:#eef7e4}.cls-6{fill:#d2ac9b}.cls-7{fill:#d1ab99}.cls-9{fill:#cda592}.cls-12{fill:#b37559}.cls-14{fill:#aed77e}.cls-15{fill:#e4cec4}.cls-16{fill:#d7b6a6}.cls-17{fill:#8cd8e2}.cls-18{fill:#abe3ea}.cls-19{fill:#bf8b72}.cls-20{fill:#ab6646}.cls-21{fill:#dbbdaf}.cls-22{fill:#56c6d5}.cls-24{fill:#53c5d4}.cls-25{fill:#9cce62}.cls-28{fill:#6dceda}.cls-29{fill:#e7d3c9}</style></defs><g id="Capa_2" data-name="Capa 2"><g id="Ñëîé_2" data-name="Ñëîé 2"><path d="M470.89 644.42c-19.38-16.08-50.4 21-92.25-11.84-8.59-6.74 17.32-40.55 10.42-50.34-3.24-4.58-39.59 15.61-42.79 10.73-37.55-57.16-31.92-113.43-64.67-141.35-11.46-9.78 15.12-24.89 6.29-32.58-3-2.63-26 18.52-30 17.25-23.16-7.42-70.66-19.46-86.35-33.67-11.49-10.4-21.32-31.74-30-52.24-1.88-4.46 26.16-18.46 24.39-22.73-5.88-14.14-30 11.16-35 5-13.62-17-83-69.82-58.2-98.77 18.53-21.61 133.2 32 154.9 51.12 2.49 2.2-6.32 38.28-2.07 38.72 3.74.4 21.3-36.45 25.54-36.1 32.85 2.74 78.58 5.29 98.45 22 25.38 21.36 36.1 82.16 49.28 97.14 20.55 23.35 89.21 49.59 126.08 94.14 2.27 2.73-40.38 16.5-38.38 19.38 3.51 5 51.38-.69 54 4.8 1.86 4-87.16 11-85.89 15.28 1.69 5.63 93.43 8.58 93.93 14.7 3.81 46.71-38.27 51.65-54.56 59.74s-23.12 29.62-23.12 29.62Z" class="cls-1"/><path d="M429.39 584.72c1.84-1.67 3.72-3.26 5.64-4.82 44.3 66 79.3 128.75 98.1 170.73 2.43 5.43-6.25 8.89-8.68 3.47-20.7-46.18-54.17-106.96-95.06-169.38Z" class="cls-2"/><path d="M136 292.13c1.51-4.08 120.53 27 290.51 275.16-1.89 1.49-3.75 3-5.57 4.62-61-91.15-176-241.16-283.92-277.87a1.46 1.46 0 0 1-1.02-1.91Z" class="cls-3"/><path d="M526.66 743c-1.32-20.5 38.54-21 37-64.29-.32-8.88-35.51-10-38.69-19.35-1.49-4.4 29.68-16.94 28-21.46-19.93-53.12-60.25-78.55-63-113.59-1-12.27-24-3.29-24.82-12.81-.29-3.27 25-6.86 26.08-10 6.32-18.43 21.37-54.59 19.51-71.8-1.36-12.61-10.83-29.8-20.33-45.81-2.06-3.48-25.06 7-27 3.68-6.59-11 22.05-13.2 20.34-19.49-4.72-17.34-6.27-88.33-37.67-87.58-23.46.57-43.4 100.52-41.19 124 .26 2.7 28.64 15.73 26.87 18.64-1.55 2.55-34.7-5.35-36.53-2.49C381 442.83 360.46 473 362 494.13c1.93 27 37.34 65.08 40.93 81.11 5.6 25-10.26 81.81 1.57 128 .73 2.84 30.66-17 31.61-14.22 1.66 4.79-25.44 32.05-23 36.5 1.76 3.22 49.75-49.3 52-46.31 2.94 4-39.71 63.35-35.86 66.82 29.35 26.46 53.11 2.46 66.44-3.65s30.97.62 30.97.62Z" class="cls-3"/><path d="M527.88 745.13a2.42 2.42 0 0 1-2.08.17c-.17-.06-17-6.29-29.18-.69a78.89 78.89 0 0 0-7.73 4.38c-14.28 8.72-35.83 21.88-61.36-1.14-3-2.7-.49-8 17.92-37.56 5.19-8.34 11.75-18.89 15.1-25.28-5.28 4.66-13.7 13-20.38 19.58-20.81 20.58-24.63 23.88-27.27 23.49a2.7 2.7 0 0 1-2-1.39c-1.83-3.36 1.8-8.51 11.86-21.3 3.11-4 7.39-9.4 9.56-12.91-3.12 1.49-7.64 4-11 5.86-12.14 6.71-15.45 8.31-17.62 7.38a2.81 2.81 0 0 1-1.6-1.86c-7-27.58-4.36-59.26-2.2-84.72 1.52-17.94 2.84-33.44.62-43.37-1.34-5.95-8-16-15-26.74-11.63-17.74-24.81-37.84-26-54.73-1.46-20.46 16.25-48 30.47-70.13l3.08-4.79c1.62-2.54 5.79-2.21 21.55.14 3.78.56 8.44 1.26 11.77 1.58-3-2-7.64-4.65-10.82-6.46-10.68-6.1-13-7.62-13.21-9.87-1.89-20.13 12.44-98.06 32.23-120.33 3.68-4.14 7.49-6.29 11.33-6.38 26.92-.65 33.39 45.22 37.26 72.62 1 7.1 1.86 13.24 2.83 16.76 1.27 4.69-4.36 7.05-10.33 9.56-4.44 1.86-10 4.18-10.81 6.78a2.53 2.53 0 0 0 .26 2c1.85.11 7.17-1.39 10.78-2.41 9.55-2.71 14.63-4 16.54-.74 9.91 16.71 19.27 33.94 20.66 46.78 1.58 14.61-8.25 41.5-15.42 61.13-1.57 4.3-3.05 8.36-4.21 11.73-.86 2.53-4.46 3.69-14.51 6.35-3.76 1-9.23 2.44-11.21 3.47.78 1.41 3.46 1.86 8.75 2.26 6.4.49 15.16 1.16 15.83 9.77 1.37 17.58 12.91 33.08 26.27 51 12.61 17 26.91 36.16 36.56 61.89 1.52 4.05-3.9 7.37-15.23 13.9-4.44 2.55-11 6.33-12.48 8.15 1.88 3.19 10.94 5.69 18.3 7.73 10.76 3 20.05 5.54 20.28 11.81 1 26.79-13.1 37.9-24.42 46.83-7.26 5.73-13 10.26-12.53 17.38a2.44 2.44 0 0 1-1 2.12 1.14 1.14 0 0 1-.21.2Zm-37.2-2.91c1.37-.79 2.68-1.49 3.9-2.05 10.76-4.93 23.84-2.17 29.77-.46 1.09-7.67 7.51-12.73 14.25-18.06 11-8.68 23.46-18.51 22.57-42.83-.09-2.69-10.09-5.45-16.7-7.28-10.22-2.82-19.87-5.49-21.86-11.38-1.32-3.9 3.95-7.1 14.91-13.43 4.38-2.5 11.51-6.62 12.89-8.5-9.41-24.81-23.41-43.57-35.71-60.15-13.81-18.55-25.74-34.58-27.22-53.56-.29-3.82-3.58-4.69-11.34-5.28-5.74-.44-12.9-1-13.48-7.5-.31-3.6 4.4-5 15.07-7.82 3.95-1.05 9.81-2.6 11.28-3.59 1.15-3.34 2.59-7.28 4.11-11.45 7-19.18 16.6-45.45 15.15-58.92-1.28-11.8-10.2-28.26-19.73-44.35-1.87-.19-7.72 1.46-11.29 2.47-8.78 2.49-14.08 4-16 .75a7.76 7.76 0 0 1-1-6.57c1.55-4.72 7.65-7.29 13.56-9.77 2.55-1.07 6.77-2.84 7.46-3.92-1-3.83-1.85-9.74-2.91-17.2-3.63-25.8-9.72-69-32.31-68.43-2.42.06-5 1.66-7.79 4.75-18.48 20.79-32.53 96.11-31.06 116.05 1.39 1.29 6.8 4.37 10.81 6.66 10.89 6.21 15.4 9 16.09 11.68a3.06 3.06 0 0 1-.33 2.37c-1.45 2.39-4.81 2.14-19.85-.1-5.89-.88-14.63-2.18-17.06-1.8l-2.74 4.26c-13.84 21.52-31.06 48.3-29.71 67.15 1.11 15.62 14.48 36 25.22 52.39 7.58 11.56 14.12 21.54 15.65 28.35 2.39 10.66 1 26.51-.52 44.85-2.07 24.47-4.65 54.78 1.58 81.09 2.84-1.17 8.57-4.34 12.61-6.57 12.23-6.76 15.58-8.39 17.79-7.54a2.8 2.8 0 0 1 1.65 1.7c1.14 3.3-2.33 8.15-11.79 20.18-2.29 2.91-5.18 6.58-7.46 9.77 5-4.61 12-11.48 17.61-17.06 21-20.78 25.51-24.67 28.22-24.46a2.77 2.77 0 0 1 2 1.1c2.08 2.81-.36 7.73-17.39 35.11-7.34 11.79-17.26 27.75-18.17 31.92 22.55 19.8 41.25 8.39 54.92 0 1.51-.88 2.96-1.79 4.35-2.57Z" class="cls-2"/><path d="m567 837.12-2.75-5c-1.78-3.31-4.39-8.14-7.54-14.35-6.36-12.4-15-30.31-24.56-52.15s-20-47.59-30.23-75.55S481.73 632 473 601.44s-16.15-61.44-21.45-90.75c-2.62-14.66-4.78-28.91-6.27-42.49s-2.42-26.48-2.71-38.42a313.91 313.91 0 0 1 .8-32.57 214.68 214.68 0 0 1 3.39-24.93c.65-3.44 1.43-6.46 2.07-9.1s1.35-4.84 1.87-6.64l1.81-5.46a1.37 1.37 0 0 1 2.6.84c0 .06-.62 1.93-1.73 5.43-.49 1.77-1.12 3.95-1.77 6.53s-1.33 5.58-1.93 9a210.94 210.94 0 0 0-3.08 24.6 308.27 308.27 0 0 0-.44 32.22c.41 11.82 1.47 24.6 3.1 38.06s3.92 27.6 6.68 42.14c5.58 29.08 13.31 59.76 22.33 90s19.26 60.21 29.74 87.92 21.15 53.24 30.88 74.83 18.5 39.27 24.91 51.46c3.2 6.12 5.82 10.84 7.59 14l2.8 5a4.1 4.1 0 1 1-7.15 4Z" class="cls-2"/><path d="M545.57 840.82h2.15c1.59-17.71 14.61-199.66-114-257.22-3.3 89.32 55.28 217.4 111.85 257.22Z" class="cls-3"/><path d="M504.22 798.92c13.2 18.4 26.49 32.47 39.56 41.9h5.11a397.29 397.29 0 0 0-6.37-105.38c-6.73-33.24-17.81-62.29-32.91-86.34-18.92-30.13-44.26-52.45-75.31-66.34a1.37 1.37 0 0 0-1.14 0 1 1 0 0 0-.58.81c-1.59 42.59 10.92 97 34.3 149.26 10.93 24.44 23.84 47.29 37.34 66.09Zm-69.37-213.71c68.19 31.42 94.94 99.08 105.37 150.52a395.47 395.47 0 0 1 6.38 104.56c-26.62-18.64-55.48-58.84-77.54-108.13-22.99-51.4-35.42-104.84-34.21-146.95Z" class="cls-1"/><path d="M734.92 840.82c45-53.16 158.37-222.33 109.79-353.28C724.39 592.4 707.74 792.7 705.47 840.82Z" class="cls-2"/><path d="M845.82 487.25a1.09 1.09 0 0 0-.85-.65 1.33 1.33 0 0 0-1.1.28c-31.44 27.4-58.36 63.62-80 107.67-17.3 35.2-31.3 75.45-41.61 119.64a734.33 734.33 0 0 0-17.93 126.63h2.32a733 733 0 0 1 17.89-126.28c16-68.76 49.81-163.43 119.64-225.13 27.17 75.45-.4 162-28.44 221.57-27.28 57.93-62.15 106.15-82.24 129.84h2.82c20.33-24.19 54.66-72 81.59-129.16 18.38-39 30.56-76.45 36.2-111.23 6.79-41.96 4-80.04-8.29-113.18Z" class="cls-1"/><path d="M729.65 580.52c-9.4 94.48-42.71 225.38-51.89 260.3h32.51c24.46-52.54 123-292.41 7.59-531.31 0 0 22.71 161.1 11.79 271.01Z" class="cls-1"/><path d="M677.76 840.82c9.18-34.92 42.49-165.82 51.89-260.3 10.92-109.91-11.79-271-11.79-271-68.29 140.83-91.47 434.17-76.62 531.31Z" class="cls-2"/><path d="M642.41 840.82c-7.51-48.68-5.15-143.92 6.2-241.45 8.14-70 27.82-199.37 68.61-285.92 1.5 11.3 6 46.49 9.47 90.42 3.93 49.25 7.43 119.86 1.8 176.58-9.35 94-42.83 225.7-51.93 260.37h2.38c9.26-35.33 42.54-166.45 51.87-260.23C736.45 523.76 733 453 729 403.73c-4.26-53.43-9.94-93.94-10-94.34a1.08 1.08 0 0 0-1-.84 1.24 1.24 0 0 0-1.24.61c-16.5 34-31.23 78.64-43.8 132.62-11 47.09-20.18 101.53-26.69 157.42-11.33 97.47-13.71 192.7-6.23 241.62Z" class="cls-1"/><path d="M585.3 840.82C600.47 766 613 517.76 535.94 353c-81.1 196.31 4.12 466.19 11.19 487.83Z" class="cls-2"/><path d="M545.92 840.82h2.42c-3.1-9.48-24.72-77.58-37.12-166.6C499 586.78 493.53 460.86 536 355.82c73.61 160 64.66 404.31 48.11 485h2.36c7.83-38.64 14.17-117.67 10.12-205.68-3.59-78.53-16.88-191.28-59.59-282.5a1.18 1.18 0 0 0-1.11-.61 1.17 1.17 0 0 0-1.08.66c-19.32 46.76-30.73 101.62-33.91 163-2.54 49.12.14 102.52 8 158.73 12.22 87.7 33.37 155.14 37.02 166.4Z" class="cls-1"/><path d="M644.18 840.82c41.78-168.5 1.12-328.93-53.4-411.38-76.69 191.38-17 383.18-7.48 411.38Z" class="cls-4"/><path d="M729.28 425.24a1.32 1.32 0 0 1-.48-.13.81.81 0 0 1-.35-1.23l21.44-28.6a1.24 1.24 0 0 1 1.49-.3.81.81 0 0 1 .34 1.23l-21.44 28.6a1.16 1.16 0 0 1-1 .43ZM729.15 585.73a1.25 1.25 0 0 1-.46-.12.81.81 0 0 1-.39-1.22l42.72-61a1.21 1.21 0 0 1 1.48-.33.81.81 0 0 1 .39 1.22l-42.72 61a1.18 1.18 0 0 1-1.02.45ZM707.35 716.06a1 1 0 0 1-1-.67.9.9 0 0 1 .78-1.09l47.23-10.37a1.12 1.12 0 0 1 1.32.64.9.9 0 0 1-.78 1.09L707.7 716a1.42 1.42 0 0 1-.35.06ZM612.18 648.64c4.69 87.23 6.42 167.44 4.29 192.18h2.16c2.11-25.12.39-105.23-4.29-192.28-6-110.85-14.38-192.84-22.52-219.33a1.1 1.1 0 0 0-1.31-.64.9.9 0 0 0-.78 1.09c8.1 26.34 16.49 108.24 22.45 218.98Z" class="cls-3"/><path d="M602.26 503.56a1.2 1.2 0 0 1-.52-.15l-30.42-16.89a.81.81 0 0 1-.29-1.24 1.24 1.24 0 0 1 1.5-.25L603 501.92a.81.81 0 0 1 .29 1.24 1.19 1.19 0 0 1-1.03.4ZM610.9 610.6a1 1 0 0 1-.33-.06l-57.07-19.1a.83.83 0 0 1-.58-1.16 1.17 1.17 0 0 1 1.41-.49l57.07 19.09a.84.84 0 0 1 .6 1.12 1.11 1.11 0 0 1-1.1.6ZM615.77 704.15h-.06l-61.13-6.58a.94.94 0 0 1-.92-1 1.08 1.08 0 0 1 1.22-.77l61.12 6.57a.94.94 0 0 1 .92 1 1.06 1.06 0 0 1-1.15.78ZM573.72 809.42a1 1 0 0 1-1-.76 1 1 0 0 1 .91-1l44.65-5.81a1.07 1.07 0 0 1 1.23.75.94.94 0 0 1-.91 1l-44.6 5.81Z" class="cls-3"/><path d="M529.35 777.65a1.09 1.09 0 0 1-1-.75c-4.27-16.57-20.54-54.84-41.45-97.49-22.14-45.15-42.36-80.76-54.09-95.27a.86.86 0 0 1 .32-1.33 1.32 1.32 0 0 1 1.62.25c11.81 14.61 32.11 50.35 54.3 95.61 21 42.74 37.28 81.14 41.57 97.82a1 1 0 0 1-.89 1.14 1.3 1.3 0 0 1-.38.02ZM626.78 183.22c-4.6-13.75 23.46-19.89 36.38-15.08-6.99 19.07-30.16 33.65-36.38 15.08Z" class="cls-1"/><path d="M627 185.8a.38.38 0 0 1 .18-.5l35.07-17.12a.37.37 0 0 1 .51.17.38.38 0 0 1-.17.51L627.47 186a.38.38 0 0 1-.51-.17Z" class="cls-3"/><path d="M655.72 171.76a.36.36 0 0 1 0-.27.39.39 0 0 1 .48-.25l4.52 1.38a.39.39 0 0 1 .25.48.38.38 0 0 1-.47.25L656 172a.38.38 0 0 1-.28-.24ZM652.05 173.55a.36.36 0 0 1 0-.29l2.44-6.49a.39.39 0 0 1 .49-.23.38.38 0 0 1 .22.49l-2.44 6.5a.39.39 0 0 1-.49.22.38.38 0 0 1-.22-.2ZM647.43 175.82a.43.43 0 0 1 0-.35.39.39 0 0 1 .53-.13l7.88 4.7a.38.38 0 0 1-.39.65l-7.88-4.7a.44.44 0 0 1-.14-.17ZM641.66 178.62a.38.38 0 0 1 0-.24l2.25-10.62a.38.38 0 0 1 .45-.29.37.37 0 0 1 .29.45l-2.25 10.62a.38.38 0 0 1-.72.08ZM636.74 181a.38.38 0 0 1 .62-.42l7.9 8.09a.38.38 0 0 1 0 .54.39.39 0 0 1-.54 0l-7.9-8.09a.28.28 0 0 1-.08-.12ZM631.45 183.6a.47.47 0 0 1 0-.17l.61-11.66a.4.4 0 0 1 .41-.36.38.38 0 0 1 .36.4l-.62 11.66a.38.38 0 0 1-.4.36.39.39 0 0 1-.36-.23ZM534 150.82c13 5.42 25.32-25.72 23.19-40.23-20.97 7.41-40.82 32.9-23.19 40.23Z" class="cls-3"/><path d="M531.78 149.76c6.41-6.45 16.6-25.54 25.4-39.17-20.96 7.41-40.54 33.04-25.4 39.17Z" class="cls-1"/><path d="m549.534 121.867 7.363-2.664.27.743-7.364 2.664zM541.964 133.698l11.998-2.423.156.774-11.997 2.423z" class="cls-1"/><path d="M528.82 152.57a.39.39 0 0 1 .09-.45c6-5.42 12.76-16.86 18.72-27 3.32-5.63 6.46-10.94 9.11-14.61a.39.39 0 0 1 .55-.08.38.38 0 0 1 .08.54c-2.62 3.64-5.75 8.94-9.07 14.55-6 10.15-12.77 21.64-18.86 27.14a.39.39 0 0 1-.56 0 .33.33 0 0 1-.06-.09Z" class="cls-1"/><path d="m534.545 145.235 12.382-.454.03.79-12.383.453z" class="cls-1"/><path d="M527.63 145.66a9.91 9.91 0 0 1-.82-4.4c.14-5.11 3.61-11.52 9.53-17.56a56.56 56.56 0 0 1 20.71-13.48l.45-.16.07.48c.79 5.38-.35 13.2-3.05 20.91-2.84 8.09-6.88 14.62-11.1 17.9-3.23 2.52-6.45 3.13-9.58 1.83a11.05 11.05 0 0 1-6.21-5.52Zm29.22-34.53a56 56 0 0 0-20 13.12c-5.78 5.9-9.17 12.11-9.31 17-.11 4.23 2.09 7.31 6.55 9.16l-.15.37.15-.37c2.85 1.19 5.81.61 8.8-1.72 8.9-6.85 15.28-26.69 13.96-37.56Z" class="cls-1"/><path d="M552 118.22a.28.28 0 0 1 0-.13l-.46-5.22a.39.39 0 0 1 .78-.07l.46 5.22a.39.39 0 0 1-.35.43.4.4 0 0 1-.43-.23ZM545.9 127.64l-3.21-9.18a.4.4 0 0 1 .24-.5.41.41 0 0 1 .51.24l3.19 9.15a.4.4 0 0 1-.24.5.39.39 0 0 1-.49-.21ZM531.14 130.32a.4.4 0 0 1 .13-.48.4.4 0 0 1 .55.08l6.93 9.49a.39.39 0 1 1-.63.46l-6.94-9.48a.43.43 0 0 0-.04-.07Z" class="cls-3"/><path d="M227.55 217c-15.81 17.39-46.69-17.46-50.12-39.55 32.57-5.2 71.47 16.03 50.12 39.55Z" class="cls-4"/><path d="M231.05 214.69a.63.63 0 0 1-.85.14l-52-36.08a.61.61 0 1 1 .7-1l52 36.07a.61.61 0 0 1 .15.86Z" class="cls-3"/><path d="M188.44 185.1a.59.59 0 0 1-.37.24.62.62 0 0 1-.73-.47l-1.61-7.5a.61.61 0 1 1 1.2-.26l1.62 7.5a.6.6 0 0 1-.11.49ZM193.88 188.88a.56.56 0 0 1-.4.24l-11.12 1.68a.62.62 0 1 1-.18-1.22l11.11-1.68a.62.62 0 0 1 .59 1ZM200.75 193.61a.67.67 0 0 1-.52.25.62.62 0 0 1-.6-.64l.41-14.86a.62.62 0 0 1 .64-.6.61.61 0 0 1 .6.63l-.41 14.87a.7.7 0 0 1-.12.35ZM209.27 199.56a.6.6 0 0 1-.32.22L192.14 205a.62.62 0 1 1-.36-1.18l16.81-5.21a.61.61 0 0 1 .68.95ZM216.56 204.63a.61.61 0 0 1-.67.22.63.63 0 0 1-.42-.77l5.19-17.57a.62.62 0 0 1 .77-.42.63.63 0 0 1 .42.77l-5.19 17.57a.93.93 0 0 1-.1.2ZM224.39 210.07a.56.56 0 0 1-.22.18l-17 8.35a.61.61 0 0 1-.82-.28.62.62 0 0 1 .28-.83l17-8.35a.61.61 0 0 1 .82.29.59.59 0 0 1-.06.64Z" class="cls-3"/><path d="M826.55 435.62C811 418 848.93 391.09 871.26 390.06c1.65 32.88-23.65 69.32-44.71 45.56Z" class="cls-2"/><path d="M828.44 439.35a.61.61 0 0 1 0-.85l41.46-47.78a.62.62 0 0 1 .93.81l-41.46 47.78a.63.63 0 0 1-.87.06Z" class="cls-3"/><path d="M862.45 400.18a.64.64 0 0 1-.2-.39.62.62 0 0 1 .55-.68l7.62-.8a.63.63 0 0 1 .68.55.61.61 0 0 1-.55.68l-7.62.8a.63.63 0 0 1-.48-.16ZM858.1 405.18a.61.61 0 0 1-.19-.43l-.47-11.23a.62.62 0 0 1 1.23 0l.47 11.23a.62.62 0 0 1-1 .48ZM852.67 411.5a.61.61 0 0 1-.2-.54.62.62 0 0 1 .7-.53l14.73 2a.62.62 0 1 1-.17 1.22l-14.73-2a.56.56 0 0 1-.33-.15ZM845.83 419.32a.58.58 0 0 1-.19-.33l-3.37-17.27a.62.62 0 0 1 .48-.73.63.63 0 0 1 .73.49l3.37 17.27a.62.62 0 0 1-.49.73.6.6 0 0 1-.53-.16ZM840 426a.61.61 0 0 1 .65-1l16.92 7.05a.62.62 0 0 1-.47 1.14l-16.92-7.05a.57.57 0 0 1-.18-.14ZM833.76 433.23a.51.51 0 0 1-.16-.24l-6.48-17.78a.62.62 0 0 1 1.16-.42l6.48 17.78a.62.62 0 0 1-1 .66ZM101.5 761.85c14.81-32.64-63.2-66.32-100.18-62.09C18.39 753.54 81.49 806 101.5 761.85Z" class="cls-3"/><path d="M98.63 767.37c-15.83-16.78-63.44-44.19-97.31-67.61 17.07 53.78 80.53 105.53 97.31 67.61Z" class="cls-1"/><path d="m23.17 701.152 1.901-.62 6.166 18.9-1.901.62zM55.964 712.238l1.98-.34 5.282 30.76-1.98.34z" class="cls-1"/><path d="M105.53 775.11a1 1 0 0 1-1.14-.28c-13.27-15.66-41.75-33.72-66.88-49.65-14-8.89-27.25-17.28-36.33-24.3a1 1 0 1 1 1.23-1.58c9 7 22.2 15.33 36.17 24.19 25.25 16 53.87 34.16 67.34 50a1 1 0 0 1-.12 1.41.92.92 0 0 1-.27.21Z" class="cls-1"/><path d="m87.34 728.534 2-.01.153 31.46-2 .01z" class="cls-1"/><path d="M87.9 777.56a25.34 25.34 0 0 1-11.22 1.74c-13-.77-28.93-10.1-43.79-25.61S6.3 718.76.37 700.06L0 698.91l1.21-.14c13.72-1.57 33.46 2 52.8 9.42 20.32 7.85 36.55 18.64 44.54 29.6 6.11 8.4 7.41 16.64 3.86 24.47C99 769.88 94 775 87.9 777.56ZM2.65 700.63c6 18.06 17.46 36.83 31.69 51.68 14.5 15.14 30 24.25 42.46 25 10.72.64 18.73-4.7 23.79-15.86l.91.41-.91-.41c3.23-7.14 2-14.69-3.66-22.47C80.17 716 30.2 698.16 2.65 700.63Z" class="cls-1"/><path d="M20.25 713.51a.88.88 0 0 1-.33.07l-13.27.75a1 1 0 1 1-.11-2l13.27-.74a1 1 0 0 1 .44 1.92ZM43.66 729.76h-.09l-23.46 7.37a1 1 0 0 1-.6-1.9L43 727.88a1 1 0 0 1 .68 1.88ZM49.26 767.41a1 1 0 0 1-1.21-.36 1 1 0 0 1 .26-1.39l24.62-16.82a1 1 0 1 1 1.13 1.65l-24.62 16.82a.81.81 0 0 1-.18.1Z" class="cls-3"/><path d="M633.21 808.83a.81.81 0 0 1-.15-.51c1.5-17.24 9.9-33.64 25-48.75 13.56-13.59 32.11-25.8 55.14-36.29a360.07 360.07 0 0 1 141.22-30.52.73.73 0 1 1 0 1.46c-45.46-.05-99.34 11.59-140.61 30.38-48.31 22-76.45 51.78-79.25 83.84a.73.73 0 0 1-.78.67.79.79 0 0 1-.57-.28Z" class="cls-4"/><path d="M854.37 693.49c0 2.48 16.19 10.79 34.51 13.39 8.75 1.2 17.62 1.46 43.47.87-4.45-6.26-12.83-13.45-23.54-18.27-29.5-13.17-54.45 1.89-54.44 4.01ZM813.9 696.23c2.22.76 13.14-4.68 20.69-9.78 18.24-12.3 22.9-27 31.64-36.41-7.17-1.28-20.22.34-32.06 6.25-28.62 14.27-22.96 39.04-20.27 39.94ZM754 705.6c5 5.46 3.89.71 18.44-15.29 14.35-15.79 34.69-38.27 28.38-48.49-7.94 7.63-22.36 9.63-36.77 21.31C746 677.84 745.43 696.05 754 705.6ZM682.31 728.87c3.4 2.31 8.26 4.26 12 4.23 1.69 0 2.16-.22 2.19-4.4 0-9.09.11-13.25 4.1-29.44 2.76-11.83 8-32.32 15.63-41.79-11.66 1.53-32.83 15.22-41.44 33.53-7.85 16.62-3.28 30.55 7.52 37.87ZM635.12 771.26c.79 1.33 6 9.93 7.48 9.59 3.22-.68 20-39.74 3.53-64.9a35.59 35.59 0 0 0-17-13.38 31.67 31.67 0 0 0-9.81-2.08c-.32 40 6.29 55.39 15.8 70.77ZM791.53 699.74c-.59.43-.86 1.77-.67 3.78.76 8.08 8.13 19.6 21.17 26a48.91 48.91 0 0 0 34 3.18 56.46 56.46 0 0 0 12.92-5.49c-.55-.32-2.06-1.1-3.45-1.74-6.37-3-5.15-2.07-16.57-8 0 0-.8-.44-8-4.54-17.93-10.35-37.62-14.5-39.4-13.19ZM746.94 725.18c-7.41-3.9-18.39-7.91-20.08-7-.67.36-1.31 1.65-1.67 3.66a16 16 0 0 0-.21 3.51c.11 7.31 4.86 16.86 14 23.43 14.95 10.73 34 10.25 39.74 9-5.47-7.6-11.71-16.21-18.37-22.81a52.29 52.29 0 0 0-13.41-9.79ZM690.21 753.09c-9.77-5.52-20.16-3.85-21-2.53s.94 5.56 1.71 7.09a85.32 85.32 0 0 0 8.56 14c5.54 7.76 11.88 12.94 30.53 33.06a92.79 92.79 0 0 0-.57-19.22c-2.22-13.85-6.99-25.35-19.23-32.4Z" class="cls-4"/><path d="M397.25 841.69a.91.91 0 0 0 .39-.49c5.9-19.35 4-40.81-5.76-63.76-8.76-20.67-23.54-42-43.94-63.46-18.53-19.48-41.5-38.62-66.42-55.37-24.06-16.17-49.44-29.8-73.4-39.42a.85.85 0 0 0-1.11.47.86.86 0 0 0 .47 1.11c49.33 19.8 102.67 56 139.23 94.38 42.77 45 60.28 89.55 49.3 125.55a.85.85 0 0 0 .57 1.06.82.82 0 0 0 .67-.07Z" class="cls-1"/><path d="M207.8 620c-1.09 2.68-22.27 4.62-43.27-.57-10-2.51-19.75-6.1-47.53-18 7.56-4.85 19.8-9 33.52-9.53 37.74-1.45 58.22 25.78 57.28 28.1ZM250.5 640.62c-2.75-.14-12.21-10.8-18.17-19.64-14.4-21.31-13.05-39.24-18.4-53.31 8.33 1.74 21.78 9.2 32 20.79 24.83 27.98 7.88 52.36 4.57 52.16ZM311.4 677c-7.78 3.75-4.52-.93-13.31-24.64-8.66-23.39-20.9-56.66-9.59-65 5.28 11.75 20 20.22 30.56 39.19 13.12 23.81 5.77 43.8-7.66 50.45ZM378.94 733.52c-4.69 1-10.81 1-14.81-.63-1.84-.74-2.24-1.19-.46-5.74 4-9.86 5.67-14.42 8.42-33.71 2.17-14 5.47-38.54 1.31-52.15 11.93 6.74 28.9 30.82 30.24 54.46 1.26 21.44-9.79 34.55-24.7 37.77ZM411.6 800.12c-1.43 1.09-10.8 8.16-12.3 7.13-3.2-2.15-4.34-51.85 24.53-71.93a41.57 41.57 0 0 1 24.25-7.1 37 37 0 0 1 11.55 2c-17.11 43.57-31 57.36-48.03 69.9ZM273.22 654.21c.46.72.16 2.29-.92 4.39-4.36 8.43-17.38 17.71-34.32 18.93a57.09 57.09 0 0 1-38.21-11.38 66.1 66.1 0 0 1-11.62-11.6c.74-.11 2.71-.29 4.5-.38 8.23-.48 6.49 0 21.49-1.47 0 0 1.05-.12 10.63-1.44 23.95-3.35 47.1.74 48.45 2.95ZM310.46 701.28c9.75-1 23.41-.54 24.85 1.18.57.67.7 2.35.21 4.7a19.14 19.14 0 0 1-1.31 3.89c-3.31 7.88-12.63 16.16-25.38 19.31-20.9 5.11-41.38-3.76-47-7.61 9.25-5.86 19.79-12.47 29.89-16.72a61.43 61.43 0 0 1 18.74-4.75ZM359.79 756.34c13-1.72 23.54 4.63 23.91 6.43s-3.45 5.63-4.95 7a99.6 99.6 0 0 1-15.42 11.48c-9.39 6-18.53 8.86-47.54 22.52a107.6 107.6 0 0 1 9-20.59c8.45-14.18 18.65-24.54 35-26.84Z" class="cls-1"/><path d="M281.8 61.79h301.57v206.54H281.8z" class="cls-3"/><path d="M584.3 269.25H280.87V60.86H584.3Zm-301.58-1.85h299.72V62.71H282.72Z" class="cls-1"/><path d="M358.93 81.27h162.43V97.1H358.93zM343.96 102.17h192.38V118H343.96z" class="cls-5"/><path d="M314.59 228.49H565.7v24.7H314.59z" class="cls-2"/><circle cx="349.8" cy="172.48" r="38.54" class="cls-5" transform="rotate(-21.95 349.805 172.492)"/><path d="M349.86 212.41A39.93 39.93 0 1 1 386.17 156a40 40 0 0 1-19.9 52.84 39.55 39.55 0 0 1-16.41 3.57Zm-.12-77.07a37.15 37.15 0 1 0 33.89 21.81 36.86 36.86 0 0 0-33.89-21.81Z" class="cls-6"/><path d="M339.19 194.94a5 5 0 0 1-2-.43 4.92 4.92 0 0 1-2.46-6.5l35.89-79.85a4.91 4.91 0 1 1 9 4L343.67 192a4.92 4.92 0 0 1-4.48 2.94Z" class="cls-7"/><path d="M383.29 125.2c-.77 4.48-25.84 60.45-29.2 63.15-4.37 3.5-22.11-2.72-22.77-8.43-.6-5.21 25.29-64 29.5-66.47 5.6-3.28 24.35.75 22.47 11.75Z" style="fill:#d9baac"/><path d="M376.1 131.5a1.65 1.65 0 0 1-1.57-1.18c-.87-3-6.78-8.73-12.36-8.73h-.23a1.64 1.64 0 0 1-.1-3.28c7.13-.21 14.51 6.58 15.84 11.08a1.65 1.65 0 0 1-1.11 2 1.91 1.91 0 0 1-.47.11ZM371.71 140.1a1.64 1.64 0 0 1-1.57-1.17c-.88-3-6.95-8.88-12.59-8.73a1.64 1.64 0 0 1-.1-3.27c7.13-.21 14.51 6.57 15.84 11.07a1.65 1.65 0 0 1-1.11 2 1.89 1.89 0 0 1-.47.1ZM367.37 148.86a1.64 1.64 0 0 1-1.57-1.18c-.87-3-6.78-8.73-12.36-8.73h-.23a1.64 1.64 0 0 1-.1-3.28h.32c7 0 14.21 6.64 15.51 11.08a1.63 1.63 0 0 1-1.11 2 1.83 1.83 0 0 1-.46.11ZM363.83 158.24a1.65 1.65 0 0 1-1.58-1.17c-.87-3-6.78-8.73-12.35-8.73h-.24a1.64 1.64 0 0 1-.1-3.28h.33c7 0 14.2 6.64 15.51 11.07a1.65 1.65 0 0 1-1.11 2 1.88 1.88 0 0 1-.46.11ZM358.85 168.89a1.64 1.64 0 0 1-1.57-1.17c-.88-3-7-8.89-12.59-8.73a1.64 1.64 0 1 1-.1-3.27c7.13-.22 14.51 6.57 15.84 11.07a1.66 1.66 0 0 1-1.11 2 1.89 1.89 0 0 1-.47.1ZM353.16 179.86a1.63 1.63 0 0 1-1.57-1.17c-.89-3-7-8.89-12.6-8.73a1.64 1.64 0 1 1-.09-3.27c7.12-.22 14.51 6.57 15.83 11.07a1.65 1.65 0 0 1-1.11 2 1.82 1.82 0 0 1-.46.1Z" class="cls-9"/><path d="m334 129.86 7.29 12.41-12.58 35.27a3.1 3.1 0 0 0-.05 2l5.62 18.43a3.1 3.1 0 0 0 2.41 2.15l9.29 1.71a3.11 3.11 0 0 0 3.3-1.59l26.88-50.09-10.46-1-13.36-32.78-4.41 18.86Z" class="cls-3"/><path d="m315.806 151.618 1.411-2.039 64.448 44.626-1.411 2.04z" class="cls-6"/><path d="M432.58 134.27h124.86v6.77H432.58zM432.58 148.03h124.86v6.77H432.58zM432.58 165.24h124.86v6.77H432.58zM432.58 179h124.86v6.77H432.58zM432.58 196.21h124.86v6.77H432.58zM432.58 209.97h124.86v6.77H432.58z" class="cls-2"/><path d="M405.73 134.27h15.48v15.48h-15.48zM405.73 165.24h15.48v15.48h-15.48zM405.73 196.21h15.48v15.48h-15.48z" class="cls-5"/><path d="M545.46.91h332.82v227.94H545.46z" class="cls-3"/><path d="M879.2 229.76H544.55V0H879.2Zm-332.82-1.82h331V1.82h-331Z" class="cls-1"/><path d="M570.35 22.17h116.8v7.47h-116.8zM570.35 37.36h116.8v7.47h-116.8zM570.35 52.55h116.8v7.47h-116.8zM570.35 67.74h116.8v7.47h-116.8zM570.35 105.37h116.8v7.47h-116.8zM570.35 120.56h116.8v7.47h-116.8zM570.35 135.75h116.8v7.47h-116.8zM712.26 22.17h50.78v7.47h-50.78zM712.26 37.36h42.28v7.47h-42.28zM712.26 52.55h36.46v7.47h-36.46zM712.26 67.74h36.46v7.47h-36.46zM712.26 82.93h36.46v7.47h-36.46zM712.26 98.12h42.28v7.47h-42.28zM712.26 113.31h50.78v7.47h-50.78zM712.26 128.5h143.19v7.47H712.26zM712.26 143.69h143.19v7.47H712.26zM712.26 158.88h143.19v7.47H712.26zM712.26 174.07h143.19v7.47H712.26zM712.26 189.26h143.19v7.47H712.26zM712.26 204.45h143.19v7.47H712.26zM819.59 110.52a41.67 41.67 0 1 1 41.69-41.68 41.5 41.5 0 0 1-41.69 41.68Z" class="cls-5"/><path d="M819.59 111.89a43 43 0 1 1 43.06-43 43.07 43.07 0 0 1-43.06 43Zm0-83.36a40.37 40.37 0 1 0 25.75 9.32 40.35 40.35 0 0 0-25.75-9.32Z" class="cls-6"/><ellipse cx="820.17" cy="68.21" rx="26.74" ry="25.06" style="fill:#b77b60" transform="rotate(-12.09 820.192 68.189)"/><path d="M835.83 39.48c1.58.7.17 5.33 1.41 6.49s6.81.53 8.17 3.17c1.74 3.38-2.5 4.72-2.19 6.86.45 3.07 6.35 8 5.85 11-.29 1.72-4.45 3.5-5.1 5.14-.73 1.85 3.13 4.39.39 7.81-1 1.29-5.69-.36-6.73.93-1.6 2 .37 6.39-1.29 8.3-2.82 3.24-10-1.33-14.05.29-3 1.2-6.18 8.09-10 7.5s-4.28-4.42-5.55-5.52c-1.81-1.57-8.08 1.35-9.95-.15-1.44-1.14-.08-5.73-1.35-7-.84-.86-4.1-.24-4.79-1.2-2.8-3.83.13-14.36 2-18.77A31.33 31.33 0 0 1 801 54.22c2.81-1.93 9.84-3.09 13-4.38 5.6-2.26 16.41-12.77 21.83-10.36Z" style="fill:#26e36f"/><ellipse cx="815.49" cy="65.38" class="cls-7" rx="26.74" ry="25.06" transform="rotate(-12.09 815.333 65.383)"/><path d="m795.083 102.564 47.398-68.707 2.255 1.556-47.398 68.707z" class="cls-6"/><path d="M1053.47 152.2v215.5H757.99V152.2z" class="cls-3"/><path d="M757.31 368.34V151.57h296.83v216.77Zm1.34-215.5v214.23h294.15V152.84Z" class="cls-1"/><circle cx="974.76" cy="239.38" r="55.26" class="cls-5" transform="rotate(-24.8 974.567 239.377)"/><path d="M974.85 296a56.61 56.61 0 1 1 23.29-5 56.75 56.75 0 0 1-23.29 5Zm-.16-110.54a53.85 53.85 0 1 0 49.14 31.66 54.14 54.14 0 0 0-49.14-31.66Z" class="cls-6"/><path d="M957.66 269c-4.31-1.76-7.12-4.86-6.28-6.91s5-2.29 9.33-.53 7.12 4.86 6.28 6.91-4.99 2.32-9.33.53Z" class="cls-12"/><path d="M969.78 269.1c-3.74-2.78-5.69-6.48-4.37-8.26s5.43-1 9.17 1.81 5.68 6.47 4.36 8.25-5.43.98-9.16-1.8ZM937.64 252.46c-2.64-3.83-3.31-8-1.48-9.22s5.45.82 8.1 4.65 3.31 8 1.48 9.22-5.45-.82-8.1-4.65Z" class="cls-12"/><path d="M943.86 246.33c-4-2.33-6.41-5.78-5.3-7.7s5.28-1.59 9.31.74 6.41 5.77 5.3 7.69-5.28 1.6-9.31-.73ZM989.27 256.67c-4-2.33-6.4-5.77-5.29-7.69s5.28-1.6 9.31.73 6.4 5.77 5.29 7.7-5.28 1.59-9.31-.74ZM1008.8 246.29c1.61-4.37 4.6-7.29 6.68-6.53s2.47 4.93.87 9.3-4.6 7.3-6.68 6.53-2.47-4.93-.87-9.3Z" class="cls-12"/><ellipse cx="1003.51" cy="247.68" class="cls-12" rx="8.43" ry="4.02" transform="rotate(-56.18 1003.523 247.676)"/><path d="M974.7 248.75c3.06-3.52 6.9-5.18 8.57-3.72s.55 5.48-2.5 9-6.89 5.18-8.57 3.72-.55-5.49 2.5-9ZM988.84 270.53c-4.34 1.68-8.51 1.37-9.31-.7s2.07-5.11 6.41-6.79 8.51-1.38 9.31.69-2.06 5.12-6.41 6.8Z" class="cls-12"/><path d="M1004.87 262.8c-3.29 3.3-7.23 4.69-8.8 3.12s-.17-5.51 3.12-8.8 7.23-4.69 8.8-3.12.18 5.51-3.12 8.8ZM982.85 263.78c-4.59.79-8.62-.35-9-2.53s3-4.6 7.63-5.39 8.61.35 9 2.54-3.04 4.6-7.63 5.38ZM963.68 260.77c-4.59.79-8.61-.35-9-2.54s3-4.6 7.63-5.38 8.61.35 9 2.53-3.04 4.62-7.63 5.39Z" class="cls-12"/><path d="M958.7 250.57c-4-2.32-6.4-5.77-5.29-7.69s5.28-1.6 9.31.73 6.4 5.78 5.29 7.7-5.28 1.59-9.31-.74Z" class="cls-12"/><path d="M965.63 244.58c-2-4.2-2-8.38 0-9.34s5.25 1.67 7.26 5.88 2 8.38 0 9.33-5.25-1.67-7.26-5.87ZM987.65 233.46c-2-4.2-2-8.38 0-9.34s5.25 1.67 7.26 5.88 2 8.38 0 9.33-5.25-1.67-7.26-5.87Z" class="cls-12"/><ellipse cx="1000.47" cy="233.62" class="cls-12" rx="4.02" ry="8.43" transform="rotate(-21.25 1000.574 233.615)"/><path d="M954.45 240.9c-4.51-1.16-7.72-3.84-7.16-6s4.65-3 9.16-1.8 7.72 3.85 7.16 6-4.61 2.96-9.16 1.8ZM993.93 247.84c-4.59.78-8.61-.35-9-2.54s3-4.6 7.63-5.39 8.61.35 9 2.54-3.04 4.6-7.63 5.39Z" class="cls-12"/><path d="M983 243.74c-4.42 1.45-8.57.91-9.26-1.2s2.35-5 6.77-6.44 8.58-.9 9.26 1.21-2.35 4.99-6.77 6.43ZM984.12 226.33c-4.1 2.19-8.28 2.38-9.33.42s1.44-5.33 5.55-7.52 8.29-2.37 9.33-.41-1.44 5.32-5.55 7.51Z" class="cls-12"/><path d="M979.12 236.49c-4.2 2-8.39 2-9.34 0s1.67-5.25 5.87-7.26 8.39-2 9.34 0-1.67 5.26-5.87 7.26Z" class="cls-12"/><path d="M968.61 233.47c-4.2 2-8.38 2-9.34 0s1.68-5.25 5.88-7.26 8.38-2 9.34 0-1.68 5.25-5.88 7.26ZM954.77 257.05c-1.94 4.23-5.15 6.91-7.17 6s-2.08-5.11-.13-9.34 5.15-6.91 7.17-6 2.08 5.11.13 9.34Z" class="cls-12"/><path d="M978.56 274.56h-4.69a45.66 45.66 0 0 1-45.6-45.6 1.26 1.26 0 0 1 1.26-1.26h93.37a1.26 1.26 0 0 1 1.26 1.26 45.66 45.66 0 0 1-45.6 45.6Zm-47.75-44.34A43.14 43.14 0 0 0 973.87 272h4.69a43.14 43.14 0 0 0 43.06-41.82Z" style="fill:#f8f3f0"/><path d="m927.164 209.473 2.02-2.918 92.418 63.992-2.021 2.919z" class="cls-6"/><path d="M782.25 189.53h132.89v7.61H782.25zM782.25 205.01h124.23v7.61H782.25zM782.25 220.49h118.3v7.61h-118.3zM782.25 235.96h118.3v7.61h-118.3zM782.25 251.44h118.3v7.61h-118.3zM782.25 266.92h124.23v7.61H782.25zM780.45 170.76h251.76v7.54H780.45zM778.24 292.32h145.88v7.61H778.24zM778.24 307.8h145.88v7.61H778.24zM778.24 323.28h145.88v7.61H778.24zM778.24 338.75h145.88v7.61H778.24z" class="cls-5"/><path d="M191.89 845.32h744a4.5 4.5 0 0 0 4.5-4.5 4.49 4.49 0 0 0-4.5-4.5h-744a4.49 4.49 0 0 0-4.5 4.5 4.5 4.5 0 0 0 4.5 4.5Z" class="cls-1"/><g id="arm"><path id="arm-2" d="M196.12 443.66c2.61 14.28 7.25 46.29 11.1 50.8 8 2.76 21 14.85 29.89 14.17 3.52-.27 1.79 9-2.46 9.91-13.18 2.92-35.38 18.85-52.9 8C156.48 511 136.5 445.91 176 423.66c7.28 0 17.87 7.7 20.12 20Z" class="cls-14" data-name="arm"/><path d="M231.82 506.48c1.91-4.28 11-10.41 13-10.7a35.75 35.75 0 0 1 11.13.77c.37.1.11 1.46-.46 2.67-.19.41 3.86-.52 4.43 1.45 1.67 5.69-8.95 15.69-11.16 16.83s-12.24 2.57-15.05.59c-3.66-2.58-2.85-9.47-1.89-11.61Z" class="cls-15"/><path d="M244.84 495.78c3.28-.22 7.16-1.47 9.1-1s3.26-.15 3.75.66-.95 3.57-3.93 3.93c-1.45.18-11.57 0-11.57 0Z" class="cls-15"/><path d="M244.22 515.64c-2.39 0-4.21-.57-5.13-1.63a2.67 2.67 0 0 1-.64-2.2 1.15 1.15 0 0 1 .52-.75c1.18-.8 4.9-1.14 8.12-.4a8.68 8.68 0 0 1 4.06 3.31.6.6 0 0 1-1.14.39 8.28 8.28 0 0 0-3.19-2.53c-3.29-.76-6.65-.24-7.19.23a1.41 1.41 0 0 0 .37 1.16c.69.8 2.28 1.25 4.37 1.22a.62.62 0 0 1 .61.6.6.6 0 0 1-.6.6Zm5.78-1.32Z" class="cls-16"/><path d="M241.27 511.61a.63.63 0 0 1-.19 0c-1.23-.42-3.17-1.63-2.64-3.48a1.73 1.73 0 0 1 .89-1c2.32-1.26 9.58-1.3 10.74-.95a7.59 7.59 0 0 1 4.58 3.89.6.6 0 1 1-1.06.55 6.44 6.44 0 0 0-3.87-3.29 27 27 0 0 0-5.41 0c-3.64.28-4.65.93-4.72 1.13-.35 1.22 1.85 2 1.88 2a.6.6 0 0 1-.2 1.16ZM242.82 504.15a.59.59 0 0 1-.58-.46.6.6 0 0 1 .45-.72c1.28-.29 2.11-.45 2.77-.56a1.67 1.67 0 0 1-.12-.74c.1-1.32 1.76-2.54 2.37-2.78h.07a22.32 22.32 0 0 1 9.08-1.68.59.59 0 0 1 .58.61.6.6 0 0 1-.6.59 21.38 21.38 0 0 0-8.62 1.6h-.07c-.44.17-1.55 1.09-1.6 1.75 0 .09 0 .31.42.57l1.55.9-1.78.21a32.2 32.2 0 0 0-3.77.7Z" class="cls-16"/><path d="M241.65 507.5a.53.53 0 0 1-.24-.06 2.29 2.29 0 0 1-1.4-2.24c.06-.63.51-1.75 2.84-2.27a.6.6 0 0 1 .71.46.61.61 0 0 1-.46.72c-1.15.25-1.85.69-1.9 1.21a1.17 1.17 0 0 0 .69 1 .59.59 0 0 1 .31.79.61.61 0 0 1-.55.39ZM257.42 506.74a.59.59 0 0 1-.59-.53 4.8 4.8 0 0 0-2-2.85c-1.16-.53-5.26-.16-7 0l-1.12.09a.6.6 0 1 1-.06-1.2l1.07-.09c3-.27 6.28-.51 7.62.11a5.93 5.93 0 0 1 2.7 3.8.6.6 0 0 1-.52.66Z" class="cls-16"/></g><g id="tablet"><path d="m256.18 471.64-49.47 59.21a1.26 1.26 0 0 0 1.1 2.06l23.48-2.53a2.09 2.09 0 0 0 1.37-.71l48.54-55.91a1.26 1.26 0 0 0-.9-2.08l-22.42-.79a2.09 2.09 0 0 0-1.7.75Z" class="cls-17"/><path d="M209.26 532.29a.56.56 0 0 1-.38-.14.6.6 0 0 1-.08-.84l47.62-57.4a3.46 3.46 0 0 1 2.79-1.27l20.46.56a.6.6 0 1 1 0 1.2l-20.46-.56a2.29 2.29 0 0 0-1.84.83l-47.62 57.4a.55.55 0 0 1-.49.22Z" class="cls-18"/></g><g id="hand"><path d="M245.05 499.46c-2.9-3.72.38-4.79 3.77-2.78-3.3-4.3 10.34-.53 11.12 4 1 5.85-8.95 15.69-11.16 16.83-.24.12-3.52.78-3.73-.66-.25-1.75 2.52-5.73 1.61-6.5-4.6-3.89-4.73-7.14-2.32-6.79-2.23-1.88-1.84-5.07.71-4.1Z" class="cls-15"/><path d="M250.57 514.75a.6.6 0 0 1-.59-.51 10.69 10.69 0 0 1 0-1.5c0-1.19 0-3.2-.44-3.83-.92-1.27-3.74-4.12-5.39-4.8a.6.6 0 1 1 .46-1.11c2.08.86 5.1 4.11 5.9 5.2.64.88.68 2.58.67 4.55a9.72 9.72 0 0 0 0 1.31.61.61 0 0 1-.51.68ZM254.12 510.94a.6.6 0 0 1-.6-.6 9.79 9.79 0 0 0-.89-4.27 39.31 39.31 0 0 0-7.87-6.09.6.6 0 0 1 .58-1.05c2.9 1.63 7.4 5.23 8.27 6.44a10.77 10.77 0 0 1 1.11 5 .6.6 0 0 1-.6.57ZM257.42 506.74a.59.59 0 0 1-.59-.53 10.3 10.3 0 0 0-1.55-3.92 28.48 28.48 0 0 0-6.75-5.08.6.6 0 0 1-.24-.81.59.59 0 0 1 .81-.25 30.17 30.17 0 0 1 7.09 5.36 11.22 11.22 0 0 1 1.83 4.56.6.6 0 0 1-.52.66Z" class="cls-16"/></g><g id="foot"><path d="M139 835.43c1.41 0 2.43-1.63 1.42-3.78-3-6.42-9.53-8.27-12-18.41-1.24-5-11.08-3.77-11.31 0-.52 8.61-1.52 15.21-2 19.33-.17 1.69.22 2.86 1.92 2.86Z" class="cls-19"/><path d="M141 837.32h-25.54a1.35 1.35 0 1 1 0-2.7H141a1.35 1.35 0 0 1 0 2.7Z" class="cls-20"/><path d="M121.28 826a.71.71 0 0 1-.54-.24.75.75 0 0 1 0-1.06c2.36-2.23 9.59-2.74 14.07-1a.75.75 0 0 1 .43 1 .76.76 0 0 1-1 .43c-3.89-1.53-10.54-1.16-12.48.68a.75.75 0 0 1-.48.19ZM121.28 821a.75.75 0 0 1-.47-1.33c2.2-1.77 7.45-2 10.34-1a.75.75 0 0 1-.49 1.42c-2.71-.92-7.29-.53-8.91.77a.7.7 0 0 1-.47.14Z" class="cls-21"/></g><g id="foot-2" data-name="foot"><path d="M246.59 814.49c1 7.89-4.2 20.66-.39 20.66h46.87a2.49 2.49 0 0 0 .06-4.4c-6.54-3.77-31.1-8.77-35.7-20.5-2.58-.11-11.17 1.69-10.84 4.24Z" class="cls-19"/><path d="M263.54 825.89h-.17a.76.76 0 0 1-.56-.91c.41-1.68 2.86-4.44 5.52-5.6a.75.75 0 0 1 .6 1.38c-2.39 1-4.39 3.44-4.66 4.57a.75.75 0 0 1-.73.56ZM269.67 828.93a.91.91 0 0 1-.23 0 .75.75 0 0 1-.44-.93 11.48 11.48 0 0 1 5.51-5.64.75.75 0 0 1 .59 1.37 10.16 10.16 0 0 0-4.68 4.73.74.74 0 0 1-.75.47Z" class="cls-21"/><path d="M294.45 837.32h-49.19a1.35 1.35 0 1 1 0-2.7h49.19a1.35 1.35 0 1 1 0 2.7Z" class="cls-20"/></g><g id="legs"><path d="M111.93 524.5c19.38-7.76 69 1.36 74.39 4.9 10.72 7 17.93 45.39 18.4 53.17C214.57 609.89 227 669.11 228 683c1.1 16.12 31.92 126.15 31.42 129.23-.38 2.34-13.05 4.33-14.14 2.9-20.78-27.29-54.24-43.35-67.11-87.74-2.72-9.4.34-34 .23-41.74-.16-10.26-24-37.59-29.48-58.19-.48 26-5.44 55.6-10.28 68.63-9.79 26.32-8.91 110.29-9.14 116.89-.08 2.35-14 3-14 .86 0-3.85-51.11-64.25-39-96.69C80.89 705 96 687 96.22 683c1-14.58-26.54-72.61-22-108.55 3.21-24.81 32.01-47.67 37.71-49.95Z" class="cls-22"/><path d="M148.39 630.7h-.15a1.05 1.05 0 0 1-.89-1.19c.53-3.55 1-7.12 1.47-10.57 1.54-11.49 3-22.34 5.8-30.57a1 1 0 1 1 2 .67c-2.73 8-4.17 18.79-5.7 30.17-.46 3.46-.94 7-1.47 10.61a1.05 1.05 0 0 1-1.06.88Z" style="fill:#61cad7"/></g><path id="hair" d="M165.15 357.38c-2.83-1.94-2.53-6.12-5.25-7.8-3.24-2-6.75 1.59-10.28 1.5-.69 0-5.77-1.82-8.47-1.2-3.72.85-4.27 7-6.45 8.85-1.49 1.24-8.75 1.36-11.4 4-2.17 2.21-.28 5.24-1.2 9.74-.18.92-4.64 5.55-4.64 8.55 0 2.81 4.41 6.26 4.49 7.65.26 4.36-3.88 7.7-.74 11.1a17.93 17.93 0 0 0 6.79 3.73c2.17.57 3.37 4.2 6.6 4.87 2.36.49 4.7-1.84 7.64-1 6.42 1.84 10.77.59 14.41.25 3-.28 6.36 2.29 8.25 1.43 2.69-1.24 2.56-4.69 4.77-5.26 4.41-1.14 7.12 1.25 9.65-2 2-2.64.16-7.13 0-9.18-.27-3.81 4.44-8.08 4.43-10.57 0-5.72-6.41-7.91-7-9.86-.95-3.32 1.21-9.92-2.9-13.14-1.85-1.48-8.06-1.23-8.7-1.66Z" class="cls-24"/><g id="body"><path d="M107.11 427.56c6.28-3 23.12-4.52 28.65-14.27 2.35-4.16 3.59-14 2.79-30.08 2.29.31 27.69-5.59 24 6.18-4.2 13.58-2.73 20.5.11 25 4.89 7.77 4.25 7 14.09 11.33 10.18 4.52 14.85 64.57-10.24 68.42-81.28 12.54-68.71-62.14-59.4-66.58Z" class="cls-15"/><path d="M168.22 468.21a.6.6 0 0 1-.56-.39 30.2 30.2 0 0 0-10.53-14 .59.59 0 0 1-.13-.82.61.61 0 0 1 .84-.15 31.44 31.44 0 0 1 11 14.57.61.61 0 0 1-.36.77Z" class="cls-16"/><path d="M113.49 425.42c-1.11-1.38 4.6-2.33 5.41-1.84 6.57 4 11.95 23.13 12.95 32.73 25.63-5.46 38.42 14 41.25 22.49 0-10 2.62-17.45 12.65-21.92-.93-10.69-6.76-24.91-15.83-35.51-.73-2.51 8.13 2.7 9.15 3.83 7.06 7.85 13 29.3 12.77 30.31 22 5.5 24.72 38.48-.85 47-1 10.38-3.05 24.83-2.45 31.43-.65 11.58-76.9 9.67-82.48-2.8-.4-6.77 3.2-14.4 1.19-30.57-1-7.66-4.93-12.84-5.56-24.35 7.86 11.28 26.8 2.21 23.56-19.67-1.73-11.77-4.82-22.49-11.76-31.13Z" class="cls-14"/><path d="M186.78 504.35c-2.81 0-5.91-.77-7.53-2.57a1 1 0 1 1 1.56-1.4c1.93 2.14 7.67 2.31 9.67 1.18a1 1 0 1 1 1 1.83 10.27 10.27 0 0 1-4.7.96ZM161 506.52h-.93a1.05 1.05 0 0 1 .18-2.1c4.38.38 9.93-2.59 11.39-4.7a1 1 0 1 1 1.73 1.19c-1.85 2.68-7.58 5.61-12.37 5.61Z" class="cls-25"/></g><g id="face"><path d="M136.75 374.74c2.3.14 3.31 3.27 4 3.34 7.59.8 14.92-12 23.77-15.9 1.64.4 4.49 4.35 5.78 5.56 1.95 1.71 2.82 21.67-.89 27.91-2.09 3.49-4 8.19-7.36 8.57-11.35 1.25-20.88-16.76-21.36-18.16-3.32.55-6.05-11.45-3.94-11.32Z" class="cls-15"/><path d="M159.31 405.27c-5.8 0-10.5-2.18-14.78-6.84-2.53-2.76-4.15-8.53-4.41-11.84a3 3 0 0 1-2-1.42.6.6 0 0 1 1-.62 1.89 1.89 0 0 0 1.57.91.61.61 0 0 1 .58.57c.12 3.09 1.75 9 4.13 11.58 4.1 4.48 8.61 6.53 14.17 6.46a.59.59 0 0 1 .6.59.6.6 0 0 1-.59.61ZM139 380.51a.6.6 0 0 1-.58-.45c-.15-.56-.77-1.46-1.29-1.51a.6.6 0 0 1-.55-.65.6.6 0 0 1 .65-.54c1.32.11 2.16 1.69 2.35 2.4a.6.6 0 0 1-.43.73Z" class="cls-16"/></g><g id="arm-3" data-name="arm"><path d="M220.6 501.21c-1.69-1.47-15.37-3.23-18.07-2.31-2.29.77-3.86 3-5.86 5.82a48.74 48.74 0 0 1-6 7.36.38.38 0 0 0-.52 0c-3 2.14-5.18 9.38-1.48 11.74a.53.53 0 0 0 .8-.53 12.4 12.4 0 0 0 2.11-1.7 4.85 4.85 0 0 1 .69-.6c.26.1.66.29 1.11.5 1.72.81 4.26 2 6.37 2h.45c1.66-.15 4.16-2.44 6.06-4.89a2.28 2.28 0 0 0 1.19 1.1 1 1 0 0 0 1.06-.15 16.28 16.28 0 0 0 4.3-7.17c.29-2-1.27-5.41-2.55-8.14h.26c4.81.19 10 .2 10.45-2.18a.85.85 0 0 0-.37-.85Z" class="cls-15"/><path d="M187.66 514.75a7.94 7.94 0 0 1 0-1.69h-1.48c-18.1 0-39.07-12.81-50.19-15.19-8.52-1.83-15.23-19.69-8.55-30.43 4.52-7.27-2.73-49.12-14.66-43-37.27 19.09-19.75 94.19-6.7 103.79 22.25 16.4 66.8 4.52 82.66-5.27-.42-2.74-.82-5.47-1.08-8.21Z" style="fill:#b5db89"/><path d="M199.7 523.46c-2.11 0-4.65-1.2-6.37-2-.45-.21-.85-.4-1.11-.5a4.85 4.85 0 0 0-.69.6 11.57 11.57 0 0 1-2.29 1.82.6.6 0 1 1-.61-1 10.42 10.42 0 0 0 2.07-1.64c.63-.61 1.18-1.14 1.88-.88.31.11.73.31 1.26.56 1.62.76 4.33 2 6.2 1.88 1.25-.12 4-2.56 5.89-5.35a.59.59 0 0 1 1.08.27 1.68 1.68 0 0 0 .75 1.34 15.49 15.49 0 0 0 3.81-6.35c.25-1.71-1.4-5.23-2.49-7.56q-.2-.41-.36-.78a.62.62 0 0 1 0-.56.59.59 0 0 1 .48-.29h1.28c6.64.27 8.69-.35 9.14-1-1.86-1-14.28-2.8-16.74-2-1.92.65-3.39 2.74-5.26 5.38a47.82 47.82 0 0 1-6.66 8 .6.6 0 1 1-.82-.88 46.45 46.45 0 0 0 6.5-7.79c2-2.82 3.57-5.05 5.86-5.82 2.7-.92 16.38.84 18.07 2.31a.85.85 0 0 1 .32.81c-.47 2.38-5.64 2.37-10.45 2.18h-.26c1.28 2.73 2.84 6.1 2.55 8.14a16.28 16.28 0 0 1-4.3 7.17 1 1 0 0 1-1.06.15 2.28 2.28 0 0 1-1.19-1.1c-1.9 2.45-4.4 4.74-6.06 4.89Z" class="cls-16"/><path d="M203 504.21a.6.6 0 0 1-.59-.5.59.59 0 0 1 .49-.69 11.54 11.54 0 0 0 1.5-.44c1.77-.6 4.43-1.5 5.39.76a.59.59 0 0 1-.31.78.61.61 0 0 1-.79-.31c-.49-1.15-1.93-.76-3.9-.1a12.17 12.17 0 0 1-1.69.49ZM203.66 507.94a.59.59 0 0 1-.5-.26.59.59 0 0 1 .16-.83c1.71-1.14 5.48-2 6.84-1.62a1 1 0 0 1 .73.59.6.6 0 0 1-.33.78.61.61 0 0 1-.73-.22c-.64-.27-4.19.36-5.84 1.46a.58.58 0 0 1-.33.1ZM204.47 511.64a.6.6 0 0 1-.4-1.05c1.45-1.27 5.38-2.61 7.12-2.16a1.29 1.29 0 0 1 1 .81.58.58 0 0 1-.35.76.6.6 0 0 1-.77-.34c-.52-.5-4.62.44-6.2 1.83a.62.62 0 0 1-.4.15ZM206.42 517.84a.52.52 0 0 1-.24-.05.59.59 0 0 1-.31-.79c1.65-3.77 2.2-4.15 2.4-4.3a.6.6 0 0 1 .69 1 15.81 15.81 0 0 0-2 3.79.6.6 0 0 1-.54.35Z" class="cls-16"/></g><g id="arm-4" data-name="arm"><path d="M1031 571.65c-4-6.76-19.19-64.79-22-72.41-10.29-28.1-23.78-73.29-6.59-78 23.08-6.29 49.79 41.08 54.29 62.06 6.37 29.69-11 67.56-18.46 82.18a13.77 13.77 0 0 1-7.24 6.17Z" class="cls-15"/><path d="M1051.31 604.65c-4.62-1.24-10.33-16.22-10.88-15.78-1.31 1 8.62 17.62 4.94 18.2-6.93 1.1-10.07-15.53-13.11-19.13a35 35 0 0 0-2.81-2.92c-3.14.52-1.35 3.75-2.06 5.93-.48 1.45-3.25 2.91-3.93 1.93s.94-1.47-.4-5.52c-.32-.94-2.77-6.13-1.38-11.2h.07c1.06-4.06 6.42-13.32 6.42-13.32l11.69-4.69c.32 1.57 10.17 8.31 11.69 10.42 4.39 6 10.79 21.56 6.11 24.5-2 1.25-5.2-10.86-7.74-9-.76.56 5.91 8.28 6.18 12.91.23 4.02-2.6 8.26-4.79 7.67Z" class="cls-15"/><path d="M1053.75 601.43a.62.62 0 0 1-.52-.27 158.69 158.69 0 0 1-8.68-14 .63.63 0 1 1 1.15-.53 160.93 160.93 0 0 0 8.57 13.8.63.63 0 0 1-.16.88.61.61 0 0 1-.36.12Z" class="cls-16"/><path d="M1036.36 590.81a.64.64 0 0 1-.2-1.24c4-1.29 12.35-7.38 13.75-8.85a.63.63 0 0 1 .9 0 .64.64 0 0 1 0 .9c-1.49 1.58-10 7.81-14.28 9.19a.63.63 0 0 1-.17 0ZM1029.45 585.66a.62.62 0 0 1-.57-.36.63.63 0 0 1 .29-.85c4.69-2.28 6.1-10.55 6.06-13.14a.64.64 0 0 1 .62-.65.63.63 0 0 1 .63.63c0 1.8-1 11.51-6.76 14.3a.58.58 0 0 1-.27.07Z" class="cls-16"/><path d="M996.23 474.57C983.44 461.31 972 457.51 972 457.51s-6-55.6 6.77-56.3c46.87-2.59 65.11 46.88 65.25 49.56.5 9.02-42.09 23.13-47.79 23.8Z" class="cls-18"/></g><g id="foot-3" data-name="foot"><path d="M1036.76 807.66s4.73 22.23 1.48 22.34l-55.71 2c-10-5.36 29.37-16.6 40.37-28.07 3.51-.29 13.86 3.73 13.86 3.73Z" class="cls-19"/><path d="M1014.12 821.16a.8.8 0 0 1-.79-.78 9.58 9.58 0 0 0-3.72-7.19.79.79 0 0 1 .94-1.28 11.26 11.26 0 0 1 4.37 8.44.79.79 0 0 1-.78.81ZM1006 823.64a.79.79 0 0 1-.79-.72 11 11 0 0 0-2.59-6.23.78.78 0 0 1 0-1.12.79.79 0 0 1 1.12 0 12.77 12.77 0 0 1 3 7.16.79.79 0 0 1-.72.86Z" class="cls-21"/><path d="M980.77 834.59a1.43 1.43 0 0 1 0-2.85l58.67-2.1a1.43 1.43 0 1 1 .1 2.86l-58.67 2.09Z" class="cls-20"/></g><g id="foot-4" data-name="foot"><path d="M939.66 812.1s4.73 22.23 1.48 22.34l-55.71 2c-10-5.36 29.37-16.61 40.36-28.08 3.52-.28 13.87 3.74 13.87 3.74Z" class="cls-19"/><path d="M917 825.6a.8.8 0 0 1-.79-.78 9.55 9.55 0 0 0-3.72-7.18.81.81 0 0 1-.18-1.11.8.8 0 0 1 1.11-.18 11.2 11.2 0 0 1 4.37 8.44.79.79 0 0 1-.77.81ZM908.87 828.08a.79.79 0 0 1-.78-.72 11.15 11.15 0 0 0-2.59-6.23.79.79 0 1 1 1.16-1.08 12.72 12.72 0 0 1 3 7.16.8.8 0 0 1-.72.87Z" class="cls-21"/><path d="M883.67 839a1.43 1.43 0 0 1 0-2.86l58.67-2.09a1.43 1.43 0 0 1 .1 2.85l-58.72 2.1Z" class="cls-20"/></g><g id="legs-2" data-name="legs"><path d="M1016.49 537.87A231 231 0 0 1 1029 592c3.18 32.28-24.78 82.2-18.43 94.31 3.81 7.28 23 22.68 26.65 33.64 14 41.93.61 91.28-.47 92.18-2.4 2-17.83.17-18.88-2.83-10.66-30.51-51.63-93.68-60.08-111.56-6.25-13.21-31-129.2-31-129.2s84.96-43.54 89.7-30.67Z" class="cls-25"/><path d="M950.44 537.22c17 10.07 38.47 25.17 40.07 34.25.48 2.68 7.13 16.32-13.73 50.87-9.17 15.19-18.08 64-16.33 71.9.84 3.77 9.41 28.41 9.52 42.84.32 44.11-25.91 75.8-27.29 77.43-1.92 2.27-23.66.69-24.12-1.9-1.54-8.74-5.89-96.76-10.31-117.63-13.74-65-5.4-139.83-5.4-139.83Z" class="cls-25"/><path d="M969 731.82a1.08 1.08 0 0 1-1.08-1c-.13-1.28-.25-2.4-.36-3.41-.88-8.36-.88-8.36-4.19-17.73l-.48-1.35c-.4-1.12-.88-2.21-1.38-3.37-1.32-3-2.69-6.2-2.52-9.77a58.16 58.16 0 0 1 1.78-10.35c.49-2 1-4.17 1.32-6.26 1.09-6.76 2.84-13.52 4.53-20.07.66-2.56 1.35-5.2 2-7.79.71-2.93 1.27-6 1.86-9.19 1.25-6.75 2.53-13.73 5.32-19.68 1.64-3.49 5.42-7 9.42-10.68 6.2-5.73 13.23-12.22 13.23-19.72a1.08 1.08 0 1 1 2.16 0c0 8.44-7.4 15.28-13.92 21.3-3.84 3.56-7.48 6.91-8.93 10-2.67 5.7-3.93 12.55-5.15 19.16-.58 3.11-1.17 6.32-1.89 9.31-.64 2.6-1.32 5.26-2 7.82-1.67 6.5-3.41 13.21-4.48 19.87-.35 2.17-.86 4.33-1.36 6.42a56.1 56.1 0 0 0-1.72 10c-.15 3.06 1.06 5.85 2.34 8.8.5 1.14 1 2.32 1.43 3.51l.48 1.35c3.41 9.61 3.41 9.61 4.31 18.22.11 1 .22 2.13.36 3.41a1.07 1.07 0 0 1-1 1.19Z" style="fill:#8dc74a"/></g><g id="body-2" data-name="body"><path d="M1028.56 569.47c-10.69 11-84.07 26.19-115 20.11-64.87-12.75-60.37-167.72 54.08-191 14.84 6.16 47.42 9 55.06 30.34 7.55 21 10.75 50.16 5.85 82.44-5.36 35.36 5.59 52.39.01 58.11Z" class="cls-18"/><path d="M918.7 458.38a1.1 1.1 0 0 1-1-1.51c.63-1.65 1.26-3.42 1.93-5.3 4.3-12.09 9.66-27.13 22.2-31.92a1.11 1.11 0 0 1 .79 2.08c-11.58 4.42-16.75 18.93-20.9 30.58-.67 1.89-1.3 3.68-1.94 5.35a1.11 1.11 0 0 1-1.08.72ZM983.65 480.4a1.14 1.14 0 0 1-.56-.14 1.12 1.12 0 0 1-.41-1.52 57.47 57.47 0 0 0 6.24-18.87 1.11 1.11 0 0 1 2.2.3c-.15 1.11-1.62 11.14-6.51 19.68a1.12 1.12 0 0 1-.96.55ZM1029.82 462h-.16a1.11 1.11 0 0 1-.94-1.25c1-6.81-2.11-21.09-5.38-31.48a1.11 1.11 0 0 1 2.12-.67c2.58 8.19 6.63 24.25 5.46 32.46a1.11 1.11 0 0 1-1.1.94Z" class="cls-17"/></g><g id="arm-5" data-name="arm"><path d="M827.08 577.1c-.6-1.8 15.87-11.88 14.39-12.9s-14.09 10.78-16 7.55 11.46-11.22 13.56-15.5a35.4 35.4 0 0 0 1.56-3.79c-1.76-2.7-4.05.07-6.33.5-5 .95-6.26-2.47-5.63-3.5s2 .57 4.95-2.62c1.47-1.61 6.8-4.41 12.06-5.18v.07c4.18-.67 14.94.53 14.94.53l9.11 8.93c-1.33.94-4.57 11.63-5.9 13.9-3.82 6.52-15.31 18.75-21.59 14.45-2-1.34 10.32-6.89 7.53-8.47-.82-.47-7.05 5.7-11.35 7.58-2.03.88-9.8 2.86-11.3-1.55Z" class="cls-15"/><path d="M831.08 578.85a.62.62 0 0 1-.62-.54.63.63 0 0 1 .54-.72c1.92-.27 12.83-9 15-11.17a.63.63 0 0 1 .9 0 .62.62 0 0 1 0 .89c-1.53 1.54-13.19 11.18-15.75 11.54Z" class="cls-16"/><path d="M919.46 460c-3.2 9.05-8.52 22-11.79 27.68-5.49 9.58-40.19 50.31-48.7 55.66-4.25 2.67 1.24 10.51 7.78 9.85 54.63-5.56 80.62-17.89 97.15-35.8 6.46-7 14.46-21.24 17.31-37.44-9.14-1.25-56.32-14.9-61.75-19.95Z" class="cls-15"/></g><g id="head"><path d="M987.77 365c-3.7 22.2 4.13 35.23 3.8 41.58-.18 3.51-20.81 10.8-36.07 0-3.72-2.64 7.34-17.51-1.85-46.47-4.5-14.2 31.27 4.94 34.12 4.89Z" class="cls-15"/><path d="M982.14 367.67c3.49-14-20.29-28-36.76-23-6.44 14.51-8.36 33.64-5.64 39.59 2.36 5.17 10.28 7.26 17.34 6.24 19.05-2.74 24.82-21.84 25.06-22.83Z" class="cls-15"/><path d="M991.22 346.74c4.15-12.16-15.23-25.38-15.39-14.72-23.44-18.55-30.39-10.1-25.67 1.54-6.16.13-10.52 2.9-10.73 6.81-.27 5.06 15.51 10.81 25 11.65 0 2-4.46 14.59-2.74 16.23.45.43 3.75 1 4.86-5.19 3.62-6.82 7.15 1.5 3.18 7.29.65 8.77 5 14.1 13.72 15.46 4.79.74 4-6.13 7.14-14.22 3.57-9.24 6.88-19.01.63-24.85Z" class="cls-24"/></g><g id="doctor"><path d="M531.09 828.88c4.1 8.15 3.22 14.58 1.56 16.67-1.44 1.82-61.91-1.6-61.69-4.33.44-5.7 19.15-8.2 35.25-9.82Z" class="cls-28"/><path d="M519.43 814.78c-.27 1.66-2 8.75-3 10.11-1.44 2-26.61 7.62-23.31 9.66 3.46 2.15 36-1.58 37.57-4.91.24-.53 1.42-11.09 2.38-12.94.72-1.39-13.34-3.7-13.64-1.92Z" class="cls-29"/><path d="M683.74 827.33c2.2 5.66 7.06 15.74 3.07 18.13s-30.22 3.29-29.63.71c.51-2.24 8.64-14.67 13.49-17.79s11.47-5.15 13.07-1.05Z" class="cls-28"/><path d="M683.74 827.33c0 4.08 3 12.78-.47 14.15s-18.4 3.57-19.47 1.43 4.93-11.52 6.87-14.53c.21-.32-1.12-9.35-1.12-9.35l13.73-1.6Z" class="cls-29"/><path d="M687.56 846.42c5-12.67-29.86-14.86-30.79 2.22 0 .42.52 2.22 1.11 2.46 4.9 2 28.46-1.6 29.68-4.68Z" class="cls-28"/><path d="M678.88 664.8c1-1.81 23.58-75 22.8-109.7-.43-19-17.19-32.37-33.45-56.76l-56 34.7c8 19.79 18.73 47.87 22.21 63.23 1 4.57 1.17 54.59 8.16 73.47 5 13.4 11.94 39.22 13.37 49.52 3 21.92 11.68 78.07 13 110.47.14 3.44 12.65 4.34 13.08.86C686.5 794.73 699 728.24 697.8 706c-.69-13.2-5.54-26.37-18.92-41.2Z" class="cls-29"/><path d="M467.37 450.16c-1.32 1.94-18-1.18-25.91 5.37-3.17 2.61-14.66 17.67-15 22.63s13.31-4.59 16.26-5.62 20.59-5.62 19.68-2-13.52 5.47-11.07 12c.36 1 4.16-.37 8.6-1.18 2.65-.48 5.78-.08 8.59-1.27 6-2.55 11.17-15.73 10.74-18.76s9-14.17 6.66-23.52-15.92 8.44-18.55 12.35Z" class="cls-15"/><path d="M646.42 397.8c-15.62-34.75-10.82-69.68-11.83-78.8-3-27-40-58.39-40-58.39-7.49 3.09-24.7 14.64-32.15 23.73-6.73 8.21-23.91 89.56-30 99.31-7.94 12.75-71.23 60.9-71.23 60.9s17.22 38.36 29.29 38.36c7.23 0 25.11-23.55 39.12-38.36C525.9 453.87 477.69 562 484 571.39c31.82 47.52 253.78 27.24 253.78 3.4-.03-23.04-60.78-109.08-91.36-176.99Z" class="cls-3"/><path d="M788.1 287c-4.08-.24-12.56-2-14.84-5-3.73-4.88 4.64-13.67.36-18.62-1.49-1.72-2.19 2.21-4.43 5.76-2.81 4.42-5.58 4.28-7.44 7.87a86.48 86.48 0 0 0-4.06 9.67c-.44.91-3.8 8.89-8 19.61h10.2c1.37-3.57 2.5-5.7 3.31-5.6 4.92.62 11 2.79 22.08 1.57 10.42-1.15 18-11.12 21.22-15.43s-15.3.3-18.4.17Z" class="cls-4"/><path d="M668.41 647.57c9-24.11 35.89-122.15 24.61-169.11-3.88-16.14-31.84-58.58-46.27-73.95h-68.56S539.46 520.13 530.67 638c-.66 8.8-4.57 33.85-5.91 51-2.66 34-2.49 90.44-7.75 121.19.92 8.56 21.07 10.66 22 5.9 7.61-39.37 43.33-93.82 44.72-128.37.31-7.7-3-25.41-6.71-37 15.17-37.48 28.13-96 34.56-130 4.48 33.54 9.89 93.73 14.14 133.28 1.28 11.92 2.29 34.23 5.39 46.25 5.25 20.31 20.35 44 34.18 118.38-.21 9.54 19.64 3.87 22-1.76 0-4.22 10.79-98.1 3.74-134.14-1.42-7.29-9.77-22.73-22.62-35.16Z" class="cls-22"/><path d="M634.88 264.3c7.67 3.46 17.43 16.3 20.85 24.83 2.26 5.65-15.28 60.15-4.66 107.39 4.57 20.35-73.23 11.27-72.88 8 3-28 6.81-131.47 16.4-143.9 5.99-7.78 19.91-5.49 40.29 3.68Z" style="fill:#c7e4a6"/><path d="M577.45 156.58c13.74-9.85 28.58-8.11 34.69-6 2.81 1 22.16 8.79 29.16 21 6.46 11.34 39.07 68.06 24 92.6-2.92 4.73-11.77 14.78-26.31 11.41-4.58-1.05-29.18-40.59-32-37.87-8.48 8.12-10.57 32.66-20.85 23.44-11.74-10.53-1.58-28.72-3-31.78-1.66-3.63-15.82-4.26-16.08-13.76-.4-14.32 14.13-10.47 12.77-21.42-1.04-8.01-20.92-24.34-2.38-37.62Z" class="cls-22"/><path d="M624 207.09c1.15 17.93 7.86 51.55 10.9 57.21 4.26 8-18.81 15.55-28.48 13s-12.51-7.68-12.8-11.09 9.06-23.62 10.17-53.45c.69-19.19 19.73-12.98 20.21-5.67Z" class="cls-4"/><path d="M590.88 168.57c-16 26.38-3.34 69.69 6.9 70.12 8.36.35 34-12.33 32.51-33.23 7.58-.09 10.65-8.48 8.67-12.33-3.53-6.86-9.1.11-9.1.11s-4.64-3.21-1.7-15.62c-32.16 5.85-37.28-9.05-37.28-9.05Z" class="cls-15"/><path d="M671.13 167.66c-4.68-6.2.57-13.53-6.39-18.39-7.94-5.54-17.55 2.89-22.33 0-8.38-5.07-6.32-16.53-31.18-13.87-11.5 1.23-19.31 10.89-20.92 21.65-1.21 8.09 23.84-3.54 30.53 8.58 3.8 6.88-6.33 21.57-1.27 33.93 3 7.24 8.17 4 8.93 11.64.5 5-6 11.07-4 20.26 1.13 5.44 8.9 10.33 17.5 8.83 6.17-1.08 9.33-6.08 14.1 2.3 5.81 10.21 4.07 23.52 17.89 23.58 12 .06 9.45-20.16 11.48-22.84 4.07-5.37 15.81-4.13 17.14-13.57 2-14.12-8.69-14.62-11.52-25.29-1.76-6.6 4.59-13.61-.7-24.14-4.92-9.7-13.95-5.63-19.26-12.67Z" class="cls-22"/><path d="M633.86 261.8c6.86 1.5 24.5 11.79 29.45 16.38 5.53 5.13 32.46 48.81 38 52.62 5.06 3.47 56.61-52.33 56.61-52.33l17.21 46.34s-59.65 52-73.29 47.12c-10.37-3.71-37.69-32.06-40.61-30.23-3.74 2.34 37.61 91.1 60.09 136.76 12.12 24.63 39.79 83.6 33.5 93-17.08 25.48-79 37.56-86.42 35.86-13.92-31.93-49.31-247.21-46.33-274.17s11.79-71.35 11.79-71.35Z" class="cls-3"/><path d="M530.67 443.09a.79.79 0 0 1-.3 0 .81.81 0 0 1-.45-1c10.71-26.69 17.54-79.51 17.54-104.15a.8.8 0 0 1 1.6 0c0 24.77-6.88 77.88-17.65 104.74a.81.81 0 0 1-.74.41ZM577.76 360.53a.81.81 0 0 1-.8-.82l.57-18L565.91 313a.82.82 0 0 1 .26-.94l13.3-10-15.81-17.26a.8.8 0 0 1 .05-1.13.79.79 0 0 1 1.13.05l16.41 17.89a.8.8 0 0 1-.11 1.17L567.63 313l11.44 28.29a.92.92 0 0 1 .06.33l-.57 18.16a.8.8 0 0 1-.8.75ZM625.22 357.91a.8.8 0 0 1-.8-.8v-15.54a.81.81 0 0 1 .18-.51l26-31.59-16.8-9a.8.8 0 0 1-.42-.62.79.79 0 0 1 .27-.69l25.11-22a.79.79 0 0 1 1.12.07.8.8 0 0 1-.07 1.13l-24.24 21.23 16.64 8.89a.82.82 0 0 1 .41.55.81.81 0 0 1-.17.67L626 341.86v15.25a.8.8 0 0 1-.78.8ZM668.14 470.91a1.2 1.2 0 0 1-.35 0c-3.57-.89-11.1-15.3-12.57-18.18a.77.77 0 0 1 0-.63.75.75 0 0 1 .43-.46l39.81-17.18a.81.81 0 0 1 1 .26l12.92 17.17a.75.75 0 0 1 .14.66.8.8 0 0 1-.42.54c-6.18 3-36.1 17.82-40.96 17.82ZM657 452.73c3.56 6.83 9.12 16.08 11.15 16.59s21.64-8.5 39.27-17.28l-12-15.9Z" class="cls-2"/><path d="M671.92 508.84a2.56 2.56 0 0 1-1.61-.39c-3.5-2.92-14-44.49-15.16-49.22a.8.8 0 0 1 1.56-.39c4.41 17.67 12.29 46.43 14.63 48.38 1.94 1.5 21.73-6.75 39.95-15.69l-9.74-32.27a.8.8 0 0 1 1.53-.46l9.92 32.91a.79.79 0 0 1-.41 1c-8.19 3.99-33.45 16.13-40.67 16.13ZM701.94 332a2.1 2.1 0 0 1-1.13-.34c-5.68-3.31-35-47.87-38.34-52.94a1 1 0 1 1 1.67-1.09c9 13.67 33.21 49.7 37.68 52.3.55.19 4.63-.07 29.56-25.12 13.15-13.21 25.69-26.88 25.81-27a1 1 0 0 1 1.48 1.35c-.13.14-12.91 14.08-26.22 27.43-22.13 22.19-28.26 25.41-30.51 25.41ZM690.3 417.08a1 1 0 0 1-.89-.54c-11.24-21.81-30.53-78.9-30.73-79.47l-1.5-4.45 3.19 3.45c.31.34 31.22 33.78 41.45 35.7a1 1 0 0 1-.37 2c-8.94-1.67-31.06-24.18-39.37-32.92 4.76 13.84 19.76 56.67 29.11 74.81a1 1 0 0 1-.43 1.35 1 1 0 0 1-.46.07ZM461.23 445.55a1 1 0 0 1-.61-1.8c.66-.5 65.71-50.52 74.85-64.22s23-89.53 23.18-90.29a1 1 0 0 1 1.16-.81 1 1 0 0 1 .81 1.17c-.58 3.13-14.15 77-23.49 91s-72.6 62.63-75.29 64.7a1 1 0 0 1-.61.25Z" class="cls-2"/></g></g></g></svg>