<svg xmlns="http://www.w3.org/2000/svg" viewBox="0 0 440.13 571.72"><defs><style>.cls-10{fill:#f4f7f2}.cls-14{fill:#f1f4ee}.cls-15{fill:#b6e281}</style></defs><g id="Capa_2" data-name="Capa 2"><g id="Capa_1-2" data-name="Capa 1"><g id="Capa_1-2-2" data-name="Capa 1-2"><path d="m84.17 177.37-1.83 2.14c-1.12 1.23-1.32 3.2-3.11 3.89-7.5 9.12-13.16 19.32-17.88 30.09-1.43 2.14-1.46 4.88-3 7-13 33.27-17 67.76-14.43 103.26 3.15 43.89 18.07 83.5 42.34 119.86a9.59 9.59 0 0 0 3.63 4.76c7.07 8.68 14.59 17 22.43 25 4.61 3.71 8.13 8.6 13 12.1l8.19 6.85a12.79 12.79 0 0 0 3.77 3c.32.06.62.13.93.22 1 .73 2.41.84 2.95 2.17 4.47 3.62 8.88 7.33 14.09 9.91 1.59 2 4.19 2.37 6.12 3.82 33.36 20 69.49 33.12 106.77 43.34 18.62 5.11 37.73 7.88 56.79 10.79 1.47.22 2.92.62 4.38.94 6.23 1.63 12.75 1.62 18.91 3 .06 1.13-.48 1.36-.91 1.35-7.94-.18-15.93.69-23.82-.18-7.43-.83-14.86-.78-22.29-1.1a441.74 441.74 0 0 1-104.55-19.46c-31.29-9.75-61.28-22.32-87.8-41.75-14.41-10.55-29-21.16-40.61-35a11.14 11.14 0 0 0-2.66-2.86c-17-19.54-31.45-40.78-41.43-64.84-.69-1.7-.76-3.66-2.12-5.08-10.53-25.7-16.68-52.47-20-80-4.28-36-2.09-71.46 9.43-106a158.27 158.27 0 0 1 47.85-71.22c1.82-1.09 3.21-2.71 4.84-4a15.75 15.75 0 0 1 5-4 40 40 0 0 0 4.08-3l1-.94c1.47-1.3 3.55-1.65 4.91-3.11 15.54-10.13 32.42-17.33 50-23 4.35-1.32 8.85-2.1 13.05-3.92a222.75 222.75 0 0 1 36-7.18c10.25-1.13 20.55-1.65 30.81-2.68 28.41-1.83 56 2.68 83.26 10.38 27.64 7.82 54.69 17.63 82.55 24.69a407.28 407.28 0 0 0 60.32 10.8 1.16 1.16 0 0 1 .24 1.62 1.36 1.36 0 0 1-.24.24c-33.7 3.15-67-.26-100.38-5.08-21.05-3-42.2-5.41-63.33-7.9a383.41 383.41 0 0 0-39.78-2.68 262 262 0 0 0-75.44 9.77c-4.33 1.32-8.82 2.14-12.93 4.13-16 6.16-31.08 13.86-44.26 25-1.73 1.46-3.37 3-5 4.54-2.84 3.95-6.7 6.8-9.84 10.32Zm169.13-103 9.87 8.25c.82 1.16.77 1.9-.9 1.83a35 35 0 0 0-10.1-3.89 115.81 115.81 0 0 1-32-18 24.86 24.86 0 0 0-3.87-3.07l-.92-.13c-2.55-.67-3.79-2.76-5.14-4.73l-1.15-1.14a3.47 3.47 0 0 1-1.85-2c-3.38-5-7.19-9.71-9.87-15.16a70.69 70.69 0 0 1-4-10 119.2 119.2 0 0 1-3-18.19c-.32-2.75.08-4.15 3.42-4.48C229.62.18 265.56-1.63 301.47 2c22 2.2 43.68 7 63.31 18.2a15.06 15.06 0 0 1 1.6 1.15c1.33 1.55 3.35 2 5 3 4.62 2.19 8.13 5.81 11.88 9.12a18.84 18.84 0 0 1 5.05 4.94l3.23 4.83a49.41 49.41 0 0 0 3.77 6.17c8.27 15.39 10.21 32 9.35 49.11a43.49 43.49 0 0 1-2.33 12.67c-.93 2.56-1.93 3.66-4.51 1.49-11.53-9.72-23.13-19.33-34.71-29-1.57-1.48-2.89-3.25-5-4.08-17.87-14.56-37.66-26.2-57.87-37.1-2.14-1.82-5.11-2.3-8.12-5.38 11.34-.07 21.23 2.44 31.19 4.3 8.69 1.85 17.29 4 25.33 7.9a7.28 7.28 0 0 0 2.41.29 5.51 5.51 0 0 0 2.44.44c1.39.45 2.68 1.18 4.11 1.55a29.29 29.29 0 0 0 3 1.13c1.11.63 2.37.93 3.44 1.6.47.44-.14-.17.34.29l-.21-.22a21 21 0 0 0-4.52-2.08c-2.88-1.09-4.73-3.31-6.38-5.76a141.86 141.86 0 0 0-45.88-22.16c-4.89-1.89-10.18-2.19-15.14-3.83a132.33 132.33 0 0 0-37.19-2.63c-12.27.87-24.6.64-36.85 2.44-4.72.69-5.26 2.09-3.29 5.83 1.45 2.77 2.76 5.62 4.14 8.43 1.27.63 1.49 2 2.11 3.07a78.17 78.17 0 0 0 13.24 16.69 7 7 0 0 1 2.76 3.28l.84 1a3.35 3.35 0 0 1 3.07 3.14l1.85 1.9c3.45 1.6 4.66 5.37 7.4 7.65l.08.09a19.13 19.13 0 0 1 2.89 2.91Z" style="fill:#8cc64a"/><path d="M436.1 558.57a209.41 209.41 0 0 1-57.56-28.3c-16.91-11.85-31.74-25.71-43.88-42.57-6-8.34-9.5-17.47-12.28-27.09-2-7-3.94-14.1-6.11-21.09-4.1-13.15-13.27-22.46-23.1-31.37-13.6-12.3-26.81-24.93-36.64-40.69-6-9.6-12.79-18.7-19-28.18a17.58 17.58 0 0 0-9.9-7.81c-7.23-2.22-12.9-6.67-17.58-12.59-5.86-7.42-6.4-15.77-4.8-24.58.17-1 .3-2.13 1.59-2.13 1 0 1.12 1 1.47 1.76 7.26 15.9 18.92 26.16 36.61 29.07 6.36 1 9.67 6.42 8 12.63a14.75 14.75 0 0 0 1.78 11.91c5.4 9.32 13.49 15.49 23 20a96.58 96.58 0 0 0 11.57 4.69 38.44 38.44 0 0 1 18.49 12.22 26.41 26.41 0 0 0 12.07 8.44c3.46 1.17 6.77 2.79 10.16 4.18 14.2 5.84 20.41 17.09 22.23 31.75 1.56 12.55 4.58 24.85 7.77 37.09 4.82 18.53 15.57 33.6 27.33 48.26 14.43 18 32.86 31 51.82 43.45-.31 2.43-1.89 1.02-3.04.95ZM234.65 238.43c-6.83-1.53-10.88-5.86-14-11.08-14.19-23.78-7.19-49.3 10.4-61.2 23.19-15.7 53.73-8.28 67.27 19.39.86 1.75.82 4.58 4.24 3.32 14.18-5.25 27.86-1.61 41.56 2.33 9.89 2.85 19.53 6.58 29.94 7.58a44.06 44.06 0 0 0 30.61-8.16 105 105 0 0 0 15.08-13c1.56.41 1.47 1.21 1.36 1.78-4.28 22.25-19.18 42.28-47.68 44.08-19.52 1.24-38-3.14-56.12-9.93a32 32 0 0 0-16.06-2.2c-7.53 1-8.81 0-11-7.5-1.67-5.77-3.25-11.51-6.74-16.54-6.93-10-16.61-13.47-28.28-11.83s-19.42 8.49-23.74 19.07c-5.36 13.16-4.77 26.34 1.35 39.21.57 1.2 1.17 2.38 1.74 3.58a5.76 5.76 0 0 1 .07 1.1Zm33.7 33.1a128.58 128.58 0 0 0-28.35-3.35c-17.7-.32-34 5.08-50.36 11-17.32 6.33-34.24 13.95-52.48 17.5-5.55 1.08-11.23 1.17-16.85 1.69-11.15 1-19.06-7.24-21.22-17.06-2-9.14-1.08-18.18 0-27.24.57-4.94 1.64-9.82 2.5-14.79 1.76.8 1.68 2.47 2.07 3.84 7.86 27.36 22.94 36.51 51 31 18-3.57 35.05-10.41 52.6-15.52 14.67-4.28 29.28-6.4 43.91 0 6.35 2.87 12.31 6.3 17.18 12.93Zm87.06 70.03c.75-3.58 2.35-5.87 3.73-8.26 6.27-10.86 11.67-22.08 14.44-34.4a12.43 12.43 0 0 0 .42-1.44c1.1-12.64 1.63-13.94-10.57-15.62-16.95-2.34-34-4.43-50.23-10.51-10.65-4-21.06-8.43-28.88-17.19-3.53-3.95-6-8.4-6-13.88 0-1.12-.34-2.5 1-3.08 1.11-.48 1.84.5 2.52 1.18 20.2 20.31 46.42 25.36 73.22 29.22 10.24 1.47 20.57 1.58 30.81 2.75a28 28 0 0 1 6.34 1.32c4.24 1.52 6.51 4.22 5.46 9.18-4.37 20.6-14.88 37.57-30.36 51.59-3.51 3.16-7.01 6.39-11.9 9.14ZM254 508.53c-6.46-2.27-11.25-5.89-16.31-8.95q-28.81-17.4-57.46-35.06a49.44 49.44 0 0 1-8-6c-4.81-4.55-4.54-8.87.75-12.83 6.91-5.17 14.93-8 23.1-10.34a306.48 306.48 0 0 1 68.8-11c.78 0 1.56.07 3.34.16-3.68 2.55-7.12 3.1-10.36 4a207.93 207.93 0 0 0-54.12 22.7c-5.17 3.13-5.2 3.12-.9 7.17l45.79 43.12c1.94 1.81 4.11 3.5 5.37 7.03Z" style="fill:#52c4d2"/><path d="M301.17 569.57c1.94-1.27 4.05-1.08 6.25-.94 9.53.61 18.95 2.6 28.65 1.26 3.54-.49 7.37.87 12.31.23-7.12-1.49-13.44-.92-19.1-3.62l22.08 2.72a1.64 1.64 0 0 1-.09 2.18c-16.11.51-32.18-.65-48.26-1.19a7.05 7.05 0 0 1-1.84-.64Z" style="fill:#a2d662"/><path d="M323.31 41.37c-7.89-.25-15.48-2.46-23.25-3.52a17.89 17.89 0 0 0-5.93-.15c1.56 2.38 5 2.06 6.11 4.75a26.39 26.39 0 0 1-10-5.73c11.27-.14 22.35.85 33.07 4.65Z" style="fill:#b0e767"/><path d="M209.11 91.65c-10.14 2.4-20.48 2.48-30.81 2.68a133.88 133.88 0 0 1 30.81-2.68Z" style="fill:#b8f867"/><path d="M84.17 177.37a32.66 32.66 0 0 1 9.89-10.27c.24.76 1.18 1.85.44 2.25-3.94 2.14-5.66 7.02-10.33 8.02Z" style="fill:#e7ede0"/><path d="M125.28 485.45c-5.58-2.68-9.16-7.5-13-12.1 5.25 3.08 8.97 7.76 13 12.1Z" style="fill:#b0da80"/><path d="m351.26 571.37.09-2.18c5 .4 10.06-.14 15 1.24-2.56 1.32-5.5-.37-8 1Z" style="fill:#9dcc68"/><path d="m353 50.56-2-1c1.9-.16 2.37-1.37 2.2-3 3.06.69 4.29 3.92 7 5a1.2 1.2 0 0 1 .13 1.7l-.13.14-3-1.1a12.19 12.19 0 0 0-4.2-1.74Z" style="fill:#e2e4e1"/><path d="M250.34 71.3c-3-2-5.12-4.92-7.4-7.65.3-.13.61-.25.9-.41.88-.47 2.16-.09 2.08.49-.47 3.75 5.92 3.37 4.42 7.57Z" class="cls-10"/><path d="M292.25 20.51c5.24.52 10.43 1.22 15.14 3.83-5.22-.65-10.39-1.24-15.14-3.83Z" style="fill:#d8e9c4"/><path d="M143.35 137.62c3.73-3.2 8.34-3.64 12.93-4.13a39.53 39.53 0 0 1-12.93 4.13Z" style="fill:#b4e080"/><path d="M142.27 101.51c-3.89 2.84-8.4 3.61-13.05 3.92a35 35 0 0 1 13.05-3.92Z" style="fill:#b0dd7c"/><path d="M210.24 54.66c2.22 1 3.69 2.86 5.14 4.73-2.86 1.36-5.38-.95-5.14-4.73Z" class="cls-14"/><path d="M252.17 80.56c4-.39 7.28 1.16 10.09 3.89a34.79 34.79 0 0 1-10.09-3.89Z" class="cls-15"/><path d="M193.37 26.37a29.09 29.09 0 0 1 4 10 15.15 15.15 0 0 1-4-10Z" style="fill:#d1e5b7"/><path d="M161.33 511.43c-2.49-.55-5-1-6.12-3.82 2.23.97 4.62 1.68 6.12 3.82Z" style="fill:#aee074"/><path d="M395.29 49.42c-2.08-1.55-3.7-3.39-3.77-6.17a9.86 9.86 0 0 1 3.77 6.17Z" style="fill:#b6fa62"/><path d="m388.29 38.42-5.05-4.94c2.87.44 4.42 2.21 5.05 4.94Z" style="fill:#eaf1e3"/><path d="M58.36 220.52c.41-2.58.94-5.1 3-7-.36 2.62-.6 5.27-3 7Z" style="fill:#cfdebe"/><path d="M358.27 571.48c2.47-2 5.38-.56 8-1-2.39 2.28-5.27.65-8 1Z" style="fill:#a3d862"/><path d="M435.17 139.37v-1.86a4.36 4.36 0 0 1 3.7.5c-.7 1.99-2.29 1.36-3.7 1.36Z" style="fill:#afd28a"/><path d="M64.17 139.37c-1 2-2.31 3.79-4.84 4a8.31 8.31 0 0 1 4.84-4Z" style="fill:#b8fc66"/><path d="M358.1 79.62c2.71.08 4.09 1.78 5 4.08a11.34 11.34 0 0 1-5-4.08Z" style="fill:#aff559"/><path d="M79.17 183.44a6.4 6.4 0 0 1 3.11-3.89c.89 2.82-.56 3.82-3.11 3.89Z" style="fill:#e5e9e2"/><path d="M241.09 61.75 238 58.61c3.33-1.24 4.34-.13 3.09 3.14Z" class="cls-10"/><path d="M89.9 448.37c-2.64-.49-3.69-2.21-3.63-4.76a14.86 14.86 0 0 1 3.63 4.76Z" style="fill:#aff758"/><path d="M371.36 24.37c-2.19-.14-4.06-.81-5-3a7.78 7.78 0 0 1 5 3Z" style="fill:#aef856"/><path d="M79.17 128.37c-1 2.06-2.82 2.78-4.91 3.11 1.11-1.9 2.91-2.65 4.91-3.11Z" style="fill:#bdde95"/><path d="M216.3 59.52c2.09 0 3.17 1.3 3.87 3.07a5.67 5.67 0 0 1-3.87-3.07Z" style="fill:#b0fa56"/><path d="M73.27 132.43c-.84 1.7-2 3-4.08 3a5.77 5.77 0 0 1 4.08-3Z" style="fill:#b0de78"/><path d="M237.17 57.65a7.29 7.29 0 0 1-2.76-3.28c3.1-.75 2.34 1.77 2.76 3.28Z" class="cls-10"/><path d="M137.24 495.31c-2.15.13-3.17-1.18-3.77-3a6.21 6.21 0 0 1 3.77 3Z" style="fill:#b5fd5b"/><path d="M22 400.56c2 1.15 2.36 3 2.12 5.08a9 9 0 0 1-2.12-5.08Z" style="fill:#a5d26e"/><path d="m262.28 84.45.9-1.84c1.19.33 2.14 1.1 1.39 2.28-.63.98-1.63.34-2.29-.44Z" class="cls-15"/><path d="M253.3 74.37a5.43 5.43 0 0 1-2.88-3 2.92 2.92 0 0 1 2.88 3Z" class="cls-10"/><path d="M65.58 470.48a2.65 2.65 0 0 1 2.67 2.63 1.85 1.85 0 0 1 0 .23 4.48 4.48 0 0 1-2.67-2.86Z" style="fill:#aef756"/><path d="M436.1 558.57c1-.25 2.3.14 3.06-1 .65.24 1.31.86.77 1.33-1.26 1.1-2.62.6-3.83-.33Z" style="fill:#78d1dc"/><path d="M207.24 51.55a2.18 2.18 0 0 1 1.85 2c-2.4.99-2.78.11-1.85-2Z" class="cls-14"/><path d="M221.17 37.65a4.52 4.52 0 0 1-2.11-3.07c2.34-.1 2.24 1.47 2.11 3.07Z" style="fill:#e9eee4"/><path d="M141.17 497.7a4 4 0 0 1-2.95-2.17c1.52-.08 3.06-.1 2.95 2.17Z" style="fill:#dee6d4"/><path d="M364.17 54.46a3.57 3.57 0 0 1 3.75 2.91c-1.92-.47-3.63-.55-3.66-3Z" style="fill:#c0c9b6"/><path d="M360.27 53.42v-1.84c1.59.56 3.15 1.17 3.9 2.88l.07-.07c-1.55.69-2.72-.3-3.97-.97Z" style="fill:#f2f2f2"/><path d="M353 50.56c1.74-.22 3.32 0 4.22 1.76a7.45 7.45 0 0 1-4.22-1.76Z" style="fill:#e0e5dc"/></g></g></g></svg>