<svg xmlns="http://www.w3.org/2000/svg" viewBox="0 0 73.5 73.32"><defs><style>.cls-1{fill:#e8ebec}.cls-2{fill:#fff}.cls-3{fill:#97d3db}.cls-4{fill:#8dc74a}</style></defs><g id="Capa_2" data-name="Capa 2"><g id="layer_1" data-name="layer 1"><circle cx="28.29" cy="14" r="14" class="cls-1"/><circle cx="12" cy="41.25" r="12" class="cls-1"/><circle cx="53.5" cy="41.56" r="20" class="cls-1"/><path d="M31.31 58.57h16a2 2 0 0 1 2 2v4h-20v-4a2 2 0 0 1 2-2Zm-7 6h30a2 2 0 0 1 2 2v6h-34v-6a2 2 0 0 1 2-2Z" class="cls-2"/><path d="M54.31 64.57h-3a4 4 0 0 1-4 4h-17a4 4 0 0 0-4 4h30v-6a2 2 0 0 0-2-2Zm-7-6h-1a3 3 0 0 1-3 3h-8a3 3 0 0 0-3 3h17v-4a2 2 0 0 0-2-2Z" class="cls-3"/><path d="M56.31 73.32h-34a.74.74 0 0 1-.75-.75v-6a2.75 2.75 0 0 1 2.75-2.75h30a2.76 2.76 0 0 1 2.75 2.75v6a.75.75 0 0 1-.75.75Zm-33.25-1.5h32.5v-5.25a1.25 1.25 0 0 0-1.25-1.25h-30a1.25 1.25 0 0 0-1.25 1.25Z" class="cls-4"/><path d="M49.31 65.32h-20a.74.74 0 0 1-.75-.75v-4a2.75 2.75 0 0 1 2.75-2.75h16a2.76 2.76 0 0 1 2.75 2.75v4a.75.75 0 0 1-.75.75Zm-19.25-1.5h18.5v-3.25a1.25 1.25 0 0 0-1.25-1.25h-16a1.25 1.25 0 0 0-1.25 1.25Zm17.36-18.5H31.2a.73.73 0 0 1-.3-.06C7.37 35 6.56 14.8 6.56 14.59a.74.74 0 0 1 .21-.54.76.76 0 0 1 .54-.23h64a.76.76 0 0 1 .53.23.79.79 0 0 1 .22.54c0 .21-.81 20.42-24.34 30.67a.8.8 0 0 1-.3.06Zm-16.07-1.5h15.91C67.21 35.06 70.09 19 70.49 15.32H8.12c.41 3.68 3.32 19.76 23.23 28.5Z" class="cls-4"/><path d="M20.31 8.57s1.85 27.75 15 42v8h8v-8c13.14-14.25 15-42 15-42Z" class="cls-2"/><path d="M51.15 8.57s-1.91 25.86-10.44 40.3a3 3 0 0 0-.43 1.53v2.17a1 1 0 0 1-1 1h-4v5h8v-8c13.14-14.25 15-42 15-42Z" class="cls-3"/><path d="M43.31 59.32h-8a.74.74 0 0 1-.75-.75v-7.7c-13-14.34-14.93-41.11-15-42.25a.74.74 0 0 1 .2-.56.76.76 0 0 1 .55-.24h38a.75.75 0 0 1 .54.24.74.74 0 0 1 .21.56c-.08 1.14-2 27.91-15 42.25v7.7a.75.75 0 0 1-.75.75Zm-7.25-1.5h6.5v-7.25a.7.7 0 0 1 .2-.5C54.33 37.51 57.06 14 57.49 9.32H21.12c.44 4.64 3.17 28.2 14.74 40.75a.7.7 0 0 1 .2.5Z" class="cls-4"/><path d="m39.31 17.57 2.92 5.93 6.54.95-4.73 4.61 1.12 6.51-5.85-3.07-5.85 3.07 1.12-6.51-4.74-4.61 6.54-.95 2.93-5.93z" class="cls-2"/><path d="m48.77 24.45-4.9-.71-2.22 2.16.97 5.67-5.09-2.68-3.22 1.7-.85 4.98 5.85-3.07 5.85 3.07-1.12-6.51 4.73-4.61z" class="cls-3"/><path d="M45.16 36.32a.72.72 0 0 1-.35-.08l-5.5-2.89-5.5 2.89a.75.75 0 0 1-1.09-.79l1.05-6.13L29.32 25a.76.76 0 0 1-.19-.77.75.75 0 0 1 .61-.51l6.15-.9 2.75-5.57a.78.78 0 0 1 1.34 0l2.75 5.57 6.15.9a.75.75 0 0 1 .41 1.28l-4.44 4.33 1 6.13a.77.77 0 0 1-.3.73.72.72 0 0 1-.39.13ZM31.46 25l3.64 3.55a.77.77 0 0 1 .22.67l-.86 5L39 31.84a.73.73 0 0 1 .7 0l4.5 2.36-.86-5a.77.77 0 0 1 .22-.67l3.6-3.53-5-.73a.74.74 0 0 1-.56-.41l-2.25-4.56-2.25 4.56a.74.74 0 0 1-.57.41Zm10.69-11.68h-2.5a.75.75 0 0 1 0-1.5h2.5a.75.75 0 0 1 0 1.5Zm-6.5 0h-8.77a.75.75 0 0 1 0-1.5h8.77a.75.75 0 0 1 0 1.5Z" class="cls-4"/><path d="M62.31 64.57a4.51 4.51 0 0 1 4.5 4.5 4.5 4.5 0 0 1 4.5-4.5 4.49 4.49 0 0 1-4.5-4.5 4.5 4.5 0 0 1-4.5 4.5Z" class="cls-2"/><path d="M66.81 69.82a.74.74 0 0 1-.75-.75 3.76 3.76 0 0 0-3.75-3.75.75.75 0 1 1 0-1.5 3.76 3.76 0 0 0 3.75-3.75.75.75 0 0 1 .75-.75.76.76 0 0 1 .75.75 3.75 3.75 0 0 0 3.75 3.75.75.75 0 1 1 0 1.5 3.76 3.76 0 0 0-3.75 3.75.75.75 0 0 1-.75.75ZM65 64.57a5.53 5.53 0 0 1 1.8 1.8 5.34 5.34 0 0 1 1.8-1.8 5.23 5.23 0 0 1-1.8-1.79 5.4 5.4 0 0 1-1.8 1.79Z" class="cls-4"/><path d="M49.81 51.57a4.51 4.51 0 0 1 4.5 4.5 4.5 4.5 0 0 1 4.5-4.5 4.49 4.49 0 0 1-4.5-4.5 4.5 4.5 0 0 1-4.5 4.5Z" class="cls-2"/><path d="M54.31 56.82a.74.74 0 0 1-.75-.75 3.76 3.76 0 0 0-3.75-3.75.75.75 0 0 1 0-1.5 3.76 3.76 0 0 0 3.75-3.75.75.75 0 0 1 .75-.75.76.76 0 0 1 .75.75 3.75 3.75 0 0 0 3.75 3.75.75.75 0 0 1 0 1.5 3.76 3.76 0 0 0-3.75 3.75.75.75 0 0 1-.75.75Zm-1.8-5.25a5.43 5.43 0 0 1 1.8 1.8 5.31 5.31 0 0 1 1.79-1.8 5.23 5.23 0 0 1-1.79-1.8 5.34 5.34 0 0 1-1.8 1.8Z" class="cls-4"/><path d="M7.31 45.57a4.5 4.5 0 0 1 4.5 4.5 4.49 4.49 0 0 1 4.5-4.5 4.49 4.49 0 0 1-4.5-4.5 4.5 4.5 0 0 1-4.5 4.5Z" class="cls-2"/><path d="M11.81 50.82a.74.74 0 0 1-.75-.75 3.76 3.76 0 0 0-3.75-3.75.75.75 0 0 1 0-1.5 3.76 3.76 0 0 0 3.75-3.75.75.75 0 0 1 .75-.75.76.76 0 0 1 .75.75 3.75 3.75 0 0 0 3.75 3.75.75.75 0 0 1 0 1.5 3.75 3.75 0 0 0-3.75 3.75.75.75 0 0 1-.75.75ZM10 45.57a5.43 5.43 0 0 1 1.8 1.8 5.26 5.26 0 0 1 1.8-1.8 5.17 5.17 0 0 1-1.8-1.8 5.34 5.34 0 0 1-1.8 1.8Z" class="cls-4"/><path d="M16.8 56.57a4.5 4.5 0 0 1 4.5 4.5 4.5 4.5 0 0 1 4.5-4.5 4.49 4.49 0 0 1-4.5-4.5 4.49 4.49 0 0 1-4.5 4.5Z" class="cls-2"/><path d="M21.3 61.82a.75.75 0 0 1-.75-.75 3.76 3.76 0 0 0-3.75-3.75.75.75 0 0 1 0-1.5 3.75 3.75 0 0 0 3.75-3.75.76.76 0 0 1 .75-.75.75.75 0 0 1 .75.75 3.75 3.75 0 0 0 3.75 3.75.75.75 0 1 1 0 1.5 3.76 3.76 0 0 0-3.75 3.75.74.74 0 0 1-.75.75Zm-1.8-5.25a5.34 5.34 0 0 1 1.8 1.8 5.43 5.43 0 0 1 1.8-1.8 5.26 5.26 0 0 1-1.8-1.8 5.17 5.17 0 0 1-1.8 1.8Z" class="cls-4"/><path d="M59.81 42.57a4.5 4.5 0 0 1 4.5 4.5 4.49 4.49 0 0 1 4.5-4.5 4.49 4.49 0 0 1-4.5-4.5 4.5 4.5 0 0 1-4.5 4.5Z" class="cls-2"/><path d="M64.31 47.82a.74.74 0 0 1-.75-.75 3.76 3.76 0 0 0-3.75-3.75.75.75 0 0 1 0-1.5 3.76 3.76 0 0 0 3.75-3.75.75.75 0 0 1 .75-.75.76.76 0 0 1 .75.75 3.75 3.75 0 0 0 3.75 3.75.75.75 0 0 1 0 1.5 3.75 3.75 0 0 0-3.75 3.75.75.75 0 0 1-.75.75Zm-1.8-5.25a5.43 5.43 0 0 1 1.8 1.8 5.26 5.26 0 0 1 1.8-1.8 5.17 5.17 0 0 1-1.8-1.8 5.34 5.34 0 0 1-1.8 1.8Z" class="cls-4"/></g></g></svg>