<svg xmlns="http://www.w3.org/2000/svg" viewBox="0 0 998.03 912.02"><defs><style>.cls-1{fill:#e98870}.cls-2{fill:#f7a87e}.cls-4{fill:#b8b3a4}.cls-5{fill:#d4ccbc}.cls-6{fill:#fff}.cls-7{fill:#244054}.cls-8{fill:#2a485e}.cls-9{fill:#4b281d}.cls-14{fill:none}.cls-16{fill:#f38e77;opacity:.47}.cls-18{fill:#dbdbdc}.cls-20{fill:#d75555}.cls-21{fill:#ee7965}.cls-22{fill:#ce5152}.cls-23{fill:#e9ae36}.cls-24{fill:#9a73a3}.cls-25{fill:#c5bbbf}.cls-26{fill:#6f9d40}.cls-28{fill:#98c73d}.cls-29{fill:#6c2e31}.cls-30{fill:#5c1a29}.cls-37{fill:#fbb34a}</style></defs><g id="Capa_2" data-name="Capa 2"><g id="Layer_6" data-name="Layer 6"><path d="M264.37 561.34a27.3 27.3 0 0 1 2.27-9.6c1.67-3.57 4.32-6.58 6.6-9.8 4.29-6.06 7.34-13.19 7.53-20.61a26.54 26.54 0 0 0-1.37-9c-5.37-2.95-11.31-5.18-16.92-3.18l-20.62 16.57s-4.5 41.62-4.7 42.22c-.14.44 21 8.18 32.27 12.29a21.13 21.13 0 0 1-1.52-2.13c-3.03-4.92-3.91-10.96-3.54-16.76Z" class="cls-1"/><path d="M307.36 544.59a18.22 18.22 0 0 1-3.18-4.3 26 26 0 0 1-1.2-4.57c-2.34-9.78-11.57-16.11-20.16-21.35a85.45 85.45 0 0 0-3.42-2 26.54 26.54 0 0 1 1.37 9c-.19 7.42-3.24 14.55-7.53 20.61-2.28 3.22-4.93 6.23-6.6 9.8a27.3 27.3 0 0 0-2.27 9.6c-.41 5.8.51 11.84 3.54 16.8a21.13 21.13 0 0 0 1.52 2.13l6.95 2.52 3 3.83a15 15 0 0 0 2.76.35 15 15 0 0 1-2.76-.35l16.3 20.87A39.67 39.67 0 0 0 315 594.41a23.21 23.21 0 0 0 4.13-7.18 25.06 25.06 0 0 0 1.08-7.61 52.57 52.57 0 0 0-12.85-35.03Z" class="cls-2"/><path d="M243.1 500s-64.51-35.8-76.31-19.57 57.1 45.26 57.1 45.26Z" style="fill:#f59678"/><path d="M329.19 471.26a18 18 0 0 1-2.48 1.14 1.6 1.6 0 0 1-1.48-2.8l1.4-1a58 58 0 0 0 17.2-18.4l-2.09-1.77c-5.78 7-12.31 13.5-20.3 17.79a17.86 17.86 0 0 1-2.47 1.14 1.59 1.59 0 0 1-1.48-2.79c.46-.33.93-.64 1.39-.95a57.91 57.91 0 0 0 17.83-19.46l-2.45-2.09c-5.58 6.66-11.88 12.74-19.49 16.83a22 22 0 0 1-2.08 1 1.59 1.59 0 0 1-1.52-2.76c.36-.27.71-.54 1-.84a77.79 77.79 0 0 0 16-19.31l-1.95-1.66s-12.56 14.67-22.47 22.73a98.76 98.76 0 0 1-22.21 13.07l7.64 12.32s19.76 7.54 31.65.7c22.39-12.87 30.17-27.84 30.17-27.84l-2.26-1.91c-5.62 6.67-11.92 12.76-19.55 16.86Z" class="cls-4"/><path d="M286.58 471s-41.45-.59-81.6 17.09c-30.65 13.51-54.36 35.64-63.85 45.35a5.18 5.18 0 0 0 1.11 8.09 5.17 5.17 0 0 0 6.32-.88c7.9-8.15 31.77-31.1 59.73-41.67 34.33-13 81.65-15.81 81.65-15.81Z" class="cls-4"/><path d="M286.58 468.62s-41.45-.59-81.6 17.1c-30.65 13.5-54.36 35.64-63.85 45.35a5.17 5.17 0 0 0 1.11 8.08 5.16 5.16 0 0 0 6.32-.88c7.9-8.15 31.77-31.1 59.73-41.67 34.33-13 81.65-15.8 81.65-15.8Z" class="cls-5"/><path d="M329.19 468.76a19.25 19.25 0 0 1-2.48 1.14 1.6 1.6 0 0 1-1.48-2.8l1.4-1a58 58 0 0 0 17.2-18.4l-2.09-1.7c-5.78 7-12.31 13.51-20.3 17.8a19.12 19.12 0 0 1-2.47 1.14 1.6 1.6 0 0 1-1.48-2.8l1.39-.95a57.88 57.88 0 0 0 17.83-19.45l-2.45-2.09c-5.58 6.66-11.88 12.73-19.49 16.82a19.8 19.8 0 0 1-2.08 1 1.59 1.59 0 0 1-1.52-2.76c.36-.26.71-.54 1-.83a77.83 77.83 0 0 0 16-19.32l-1.95-1.66s-12.64 14.64-22.55 22.7a98.51 98.51 0 0 1-22.21 13.06l7.72 12.34s19.76 7.54 31.65.7c22.39-12.92 30.17-27.89 30.17-27.89l-2.26-1.92c-5.62 6.68-11.92 12.77-19.55 16.87Z" class="cls-5"/><path d="M295.55 609.81a34.31 34.31 0 0 0-17.81-17.52c-5.3-2.24-11.06-3.09-16.74-3.93l-41.36-6.06c-2.89-.43-5.9-.9-8.25-2.63-1.33-1-2.36-2.3-3.69-3.27-3.92-2.89-9.51-2.17-13.81-4.47-3.79-2-6-6.19-6.8-10.42s-.19-8.57.44-12.82c1-6.75 2.17-13.56 4.9-19.82 4.33-10 12.36-18 21.4-24S233 494.61 243 490.41c4.21-1.76 8.82-3.56 13.22-2.33s7.59 7.07 4.61 10.52a5.9 5.9 0 0 1 6.92 8.83c5.58.67 8.45 7.6 7.19 13.06s-5.23 9.82-8.65 14.28c-5.24 6.83-9.57 15-9 23.6a23 23 0 0 0 7.79 15.7c-.48-.05 1-1 1.48-.89 8.48 1.51 17 4.6 23.05 10.74s9.51 18.08 5.94 25.89Z" class="cls-2"/><path d="M196 550.06a102.88 102.88 0 0 1-33.25-19.58 22.14 22.14 0 0 1-5.12-5.85c-3.47-6.43-.62-14.52 3.68-20.43a47.38 47.38 0 0 1 40.34-19.1 6.81 6.81 0 0 1 4.27 1.31 5.32 5.32 0 0 1 1.51 3.86c.1 4.55-3.1 8.46-6.37 11.64a86.58 86.58 0 0 1-18 13.46c7.67 1.87 15.65 4.11 23.32 6-4.07 10.3-7.33 18.05-10.38 28.69Z" class="cls-2"/><path d="m346.98 563.67-37.17-27.51-44.28 62.99 27.62 28.47 53.83-63.95z" class="cls-6"/><path d="M527.18 722.91S519 483.1 507.33 401.28c-14.13 27.45-24.16 57.18-25.74 87.93a256.88 256.88 0 0 0 1.33 37.79c3.11 32.44 9.1 64.73 8.5 97.31a242.25 242.25 0 0 1-25.6 103.73c20.37 2.79 41.08 1.68 61.36-5.13Z" class="cls-7"/><path d="M482.92 527a256.88 256.88 0 0 1-1.33-37.81c1.58-30.75 11.61-60.48 25.74-87.93-2.5-17.55-5.18-27.84-8-26.93-15.81 5.14-33.89 157.37-23.54 253.7 0 0-91.26-42.55-140.43-73.66 0 0-24.86 35.52-53.63 61.34 0 0 88.24 99.29 184.06 112.33a242.25 242.25 0 0 0 25.6-103.73c.61-32.56-5.39-64.85-8.47-97.31Z" class="cls-8"/><path d="M630 350.6c-18.76 14.21-39.8 26.52-63.07 30.06s-49.12-3.07-64-21.27c-6.14-7.48-10.16-16.45-15.69-24.38s-13.31-15.18-22.9-16.38c-6.23-.79-12.45 1.06-18.63 2.17-12.88 2.34-28.5.27-35.17-11-9.46-16 5.72-37.29-1-54.6-3.42-8.81-12-14.86-15.35-23.69a30 30 0 0 1-1.37-14.44c2.61-21 22.38-38.47 43.55-38.48 3.24 0 6.69.31 9.52-1.27 3.36-1.87 4.86-5.89 5.57-9.68 2.4-12.78-1.31-25.81-2.59-38.75-3.15-31.64 8.93-64.11 30.71-87.28s52.64-37.09 84.31-39.92c34.12-3 68.2-2.7 101.05 7s63.51 34.54 69.86 68.19c2.37 12.56 2 27.14 11.42 35.74 10.79 9.81 27.54 6 42.12 6 11.1 0 22.43 2.85 31.37 9.43s15.21 17.19 15.11 28.3c-.13 14.67-10.79 29.08-6.11 43 2.7 8.05 9.91 13.55 15.81 19.67 9.36 9.71 16.14 22.6 15.81 36.08s-9.07 27.11-22.11 30.55c-5.71 1.5-11.79 1.06-17.54 2.44-11.59 2.8-20.21 12.63-26 23.07s-9.51 21.95-15.89 32c-11.88 18.75-32.28 31.1-53.87 36.25s-44.3 3.65-66-.89c-6.82-1.43-13.74-3.22-19.46-7.21s-9.96-13.77-9.46-20.71Z" class="cls-9"/><path d="M645.3 748.4h187.57l-31.41-139.25S844.33 415.36 816 384c-23.78-26.27-73.15-47.85-132.2-54.15-20.16 44.67-67.6 180.24-38.5 418.55Z" class="cls-8"/><path d="M673.83 238.83v-14.71h-97.2v110.75c31.52-2.87 77.58-37.58 97.2-96.04Z" class="cls-1"/><path d="M690.52 182.9c-11.78 83.22-76.26 131.23-112.37 128-19.4-1.72-36.87-12.43-50.14-26.7a96.64 96.64 0 0 1-12.94-16.87c-6.6-11.27-9.9-24.14-12.68-36.91a575.84 575.84 0 0 1-12.78-144.8c1-26.95 39.8-36.87 66-43.3 21.17-5.2 43.53-7.06 64.77-2.16s41.32 17.07 53 35.51c5.47 8.66 9 18.44 11.43 28.39 6.28 25.55 9.4 52.77 5.71 78.84Z" class="cls-2"/><path d="M537.77 132.7c2.47 0 5.05.22 7.14 1.54s3.41 4.14 2.28 6.33-3.88 2.71-6.28 3l-34.08 4.48a8.2 8.2 0 0 1-4.74-.32c-2.64-1.34-2.53-5.16-.59-7 2.58-2.44 7.86-3.72 11.17-4.75a79.79 79.79 0 0 1 25.1-3.28Zm44.83 0c-2.46 0-5.05.22-7.13 1.54s-3.42 4.14-2.28 6.33 3.88 2.71 6.28 3l34.07 4.48a8.19 8.19 0 0 0 4.74-.32c2.64-1.34 2.54-5.16.59-7-2.58-2.43-7.87-3.73-11.17-4.73a79.79 79.79 0 0 0-25.1-3.3Z" class="cls-9"/><ellipse cx="526.91" cy="175.87" class="cls-9" rx="9.53" ry="11.72"/><ellipse cx="594.59" cy="175.87" class="cls-9" rx="9.53" ry="11.72"/><path d="M595.44 260c3.88-15.64 1.82-34.14 1.82-34.14l-.6.28c-3.71 7-13 21.28-26.74 21.28a31.26 31.26 0 0 1-24-11.09c-1.41-.08-2.83-.17-4.23-.31 0 0 5.33 29 19.92 40.62A56.37 56.37 0 0 1 595.44 260Z" style="fill:#c3535e"/><path d="M569.92 247.43c13.75 0 23-14.31 26.74-21.28a104 104 0 0 1-50.72 10.19 31.26 31.26 0 0 0 23.98 11.09Z" class="cls-6"/><path d="M561.63 276.65a19.87 19.87 0 0 0 15.2 4.57c10.61-1.29 16-10.59 18.61-21.21a56.37 56.37 0 0 0-33.81 16.64Z" style="fill:#f28487"/><path d="M576.93 336.77c-38.91 9.72-67.35 25.6-77.57 37.58-15.79 18.49-10.18 135.3-10.18 135.3l14.72 84.28V748.4h40c-14.31-214.99 15.91-353.25 33.03-411.63Z" class="cls-8"/><path d="M683.66 329.86a10.91 10.91 0 0 1-9.83-10.86v-80.2c-19.62 58.46-65.68 93.18-97.2 96v2.91a651.33 651.33 0 0 0-6.87 25.63c2 6.06 4.3 13 6.87 20.08v6h2.21c8.54 22.72 19 45.26 27.11 45.26s40.47-33 47.32-39.53c15.46-18.66 20.56-40.75 20.56-40.75 3.66-10.05 7.07-18.24 9.92-24.58Z" class="cls-2"/><path d="M668.31 370.51c-21.08 27-52 64.22-62.36 64.22-11.3 0-27.42-44.31-36.19-71.32-17 68.77-38.32 197.79-25.88 385H645.3c-22.94-187.94 1.7-311.96 23.01-377.9Z" style="fill:#bababa"/><path d="M606 434.73c-2 0-4.11-1.39-6.32-3.78l-50.41 47.45v.37l8.33 14-5.49 4.13 5.38 24.42-5.38 7.28c5.88 51.9 10.9 104.85 27.7 154.3A297.05 297.05 0 0 0 611 748.4h34.3c-14-114.61-10.29-205.45-.43-273.84-10.7-19.23-19.75-37.72-24.9-48.58-5.97 5.39-10.92 8.75-13.97 8.75Z" style="fill:#aaaaab"/><path d="M266.16 577.91a19.52 19.52 0 0 0 10.74 6.85l-3.23-4.13Z" class="cls-14"/><path d="M544.63 201.61v.12a14.17 14.17 0 0 0 28.33 0v-.12Z" style="fill:#f17d6f"/><circle cx="617.4" cy="204.15" r="17.94" class="cls-16" transform="rotate(-22.5 617.402 204.156)"/><circle cx="520.6" cy="211.02" r="17.94" class="cls-16" transform="rotate(-45 520.594 211.013)"/><path d="M573.3 374.43c2.37 1.65 5.29 2.29 7.89 3.56 3.19 1.55 5.94 4.06 9.38 4.92 4.44-7.12 9.88-12.05 17.69-15.12a39.77 39.77 0 0 1 24.74-1.36 17.69 17.69 0 0 1 6.62 3.07 8.47 8.47 0 0 1 3.36 6.27 9 9 0 0 1-2.75 6.18 26.62 26.62 0 0 1-5.6 4.08l-8.19 4.97c-2.55 1.54-5.16 3.14-6.91 5.55a19.21 19.21 0 0 0-2.64 6.08c-2.23 7.92-2.72 17.08 2.08 23.78 0 0-11.38 11.38-19.23 7.12Z" class="cls-1"/><path d="M606 459.5v-44.95s6.9-25.16 14.37-30 20.09-2.73 22.2-9.4-15.88-12.68-29.65-7.78S591 391.14 591 391.14c-4.94-4.67-8.37-8.55-13.32-13.23-6.68-6.38-13.68-12.91-22.21-16.5-3.63-1.54-8-2.48-11.42-.59-3.21 1.74-4.85 5.55-5 9.2s1 7.22 2.09 10.7a13.39 13.39 0 0 0-15.86 12.63c-4.58 2.34-6.32 8.23-5.64 13.33a5.44 5.44 0 0 1 0 2.2 5.19 5.19 0 0 1-1.71 2.19 21.77 21.77 0 0 0-5.83 7.83 12 12 0 0 0 0 9.56c1.73 3.57 2.09 9.67 3.69 13.3a85 85 0 0 0 5 10.07c10.85 17.74 33.37 25.85 43.9 43.78Z" class="cls-2"/><path d="m549.1 478.55.13.22v-.37Zm56.9-43.82c3.1 0 8-3.36 14-8.75-2.92-6.16-4.59-9.87-4.59-9.87L599.63 431c2.21 2.34 4.37 3.73 6.37 3.73Z" class="cls-14"/><path d="m814.84 538.22-46.55-64.84s-33.81 77.8-65.82 71.59c-16.63-3.23-39.47-37.86-57.6-70.41C635 543 631.31 633.8 645.3 748.4h187.57l-31.41-139.25s6.94-31.38 13.38-70.93Z" class="cls-7"/><path d="M476.23 129.3c4 2.75 9.27 3.35 14.1 2.52s9.32-2.95 13.62-5.3a133.3 133.3 0 0 0 35.5-28.13c2.75-3.07 5.42-6.4 6.47-10.38 11.46 14 28.44 22.32 46.36 25 10.66 1.6 21.67.86 32.07 3.7 4 1.09 8.07 2.87 10.51 6.23 4.61 6.37 1.63 15.29 3.13 23 2.48 12.72 16.5 20 21.34 32 3.95 9.83 1.11 21.07 3.11 31.47a34.13 34.13 0 0 0 44.72 25.79c7.41-51 7.47-103.46-9.14-152.23-1.64-4.81-4-10.21-8.92-11.61-24.26-6.92-36.67-39.2-60.75-46.68-12.6-3.92-26-4.65-39.15-4.95-10.51-.25-21.08-.24-31.44 1.49-19.16 3.21-36.93 12.24-52.92 23.28-13.32 9.2-26 20.35-32.77 35.06s-9.23 40.64 4.16 49.74Z" class="cls-9"/><path d="m610.35 453.02 16.06 26.24-60.57 49.33-13.76-31.7 58.27-43.87z" class="cls-6"/><path d="M753.11 453.06s-37.42 120.18-39.87 156c-12.25 1-86.83-129.75-86.83-129.75L559 527.07S644.74 748.4 731.15 748.4s98.73-334.4 93.46-333.92-71.5 38.58-71.5 38.58Z" class="cls-8"/><path d="M511 62.75a116.92 116.92 0 0 0 52.12-15.89c2.05-1.21 4.18-2.52 6.55-2.68 4.8-.31 8.86 4.1 13.67 4.12 4.61 0 8.34-3.93 12.89-4.7 6.1-1 11.46 3.77 16.06 7.91a140.07 140.07 0 0 0 97 35.52 116.84 116.84 0 0 0 26.51-3.82c-.3-2.15-.61-4.27-1-6.34C732 62 724.4 48.78 714 37.88c-15.46 2.48-31.29 2.4-47 1.67-17.28-.81-34.75-2.44-51-8.39-3.83-1.4-7.64-3.06-11.69-3.38-5.24-.42-10.36 1.41-15.51 2.42s-11 1.06-15-2.32c-1.35-1.14-2.43-2.62-3.94-3.52-3.69-2.18-8.31-.27-12.3 1.28a69.26 69.26 0 0 1-28.23 4.67c-8.78-.39-18.26-3.13-23.91-9.49a122.85 122.85 0 0 0-25.82 20.79 115 115 0 0 0-10.9 13.45c1.25.64 2.52 1.25 3.81 1.8 12.04 5.14 25.43 6.67 38.49 5.89Z" style="fill:#542f23"/></g><g id="Layer_5" data-name="Layer 5"><path d="M141.93 748.72h214.72v-11.99l-214.72-9.05v21.04z" class="cls-18"/><path d="M162.19 748.55H6.44V482.64h137.75a18 18 0 0 1 18 18v247.91Z" class="cls-18"/><path d="M0 748.55h998.03v163.47H0z" style="fill:#bcb6ba" transform="rotate(180 499.015 830.285)"/><path d="M689 670c12.41-8.52 10.75-19.54 8.42-25.73l-8.91 6.12a10.94 10.94 0 0 1-17 11.69l-9.73 6.69C666.34 673 676 678.94 689 670Z" class="cls-20"/><path d="M697.42 644.28c2.33 6.19 4 17.21-8.42 25.73-13 8.93-22.66 3-27.24-1.23l-4.27 2.93A26.33 26.33 0 0 0 700.77 642Z" class="cls-21"/><path d="M684.14 662.28a10.94 10.94 0 0 0 4.37-11.88l-17 11.69a10.93 10.93 0 0 0 12.63.19Z" class="cls-22"/><path d="M672.25 666.84s1.14 3.58-.6 3.26.6-3.26.6-3.26Zm-3.25-1.06s-1.07 3.59-2.33 2.35 2.33-2.35 2.33-2.35Zm15.24-.95s3 2.31 1.34 3-1.34-3-1.34-3ZM678 667.2s1.55 3.41-.21 3.3.21-3.3.21-3.3Zm14.6-15.82s3.48-1.37 3.28.38-3.28-.38-3.28-.38Zm-1.34 6.02s3.74-.18 3 1.41-3-1.41-3-1.41Z" class="cls-23"/><path d="M523.72 636.79c-6.1-4.81-17.67-.31-25.85 10.06s-9.87 22.68-3.77 27.49 17.67.3 25.85-10.07 9.87-22.67 3.77-27.48ZM498.25 674c-4.15-3.28-1.68-13.33 5.53-22.47s16.41-13.88 20.56-10.61 1.67 13.33-5.54 22.47-16.41 13.86-20.55 10.61Z" class="cls-24"/><path d="M525.1 637.92c-5.32-4.2-16.27.8-24.45 11.17s-10.49 22.18-5.17 26.38 16.27-.8 24.45-11.17 10.5-22.18 5.17-26.38ZM498.25 674c-4.15-3.28-1.68-13.33 5.53-22.47s16.41-13.88 20.56-10.61 1.67 13.33-5.54 22.47-16.41 13.86-20.55 10.61Z" class="cls-25"/><path d="M461.31 723.68c-8.06-2.43-13.39-11.67-11.46-19.87a11.4 11.4 0 0 0 .54-3.1c-.07-1.76-1.19-3.28-2.18-4.73-2.33-3.45-4.21-7.37-4.38-11.53s1.66-8.57 5.28-10.63 9-1 10.78 2.79c-.76-2.2-1.92-4.26-2.67-6.47a9.26 9.26 0 0 1 0-6.83 10.12 10.12 0 0 1 4.6-4.21c2.07-1.12 4.42-2 6.74-1.64 2.61.42 4.73 2.34 6.4 4.38a18.26 18.26 0 0 1-2.79-8.4c-.07-3 1.29-6.14 4-7.5s6.51-.17 7.36 2.68a26.6 26.6 0 0 1 .76-8.77c.9-2.8 3-5.41 5.85-6.13 3.48-.86 7.17 1.37 9 4.45s2.19 6.82 2.2 10.41a83.83 83.83 0 0 1-2.34 18.79 10.06 10.06 0 0 1 18.25-2.18 44.78 44.78 0 0 1 3.31-7.17 4.09 4.09 0 0 1 1.64-1.82c1.38-.64 3 .32 4 1.39a16.94 16.94 0 0 1 3.23 19.09c-5.71 11.55-7.89 25.45-17.61 33.9-5.58 4.85-12.24 8.25-18.83 11.61-4 2-8.25 4.16-12.78 4.18-4.8 0-9.37-2.3-14.17-2.36-2.5-.01-2.28.41-4.73-.33Z" class="cls-26"/><path d="M500.48 674.27c-1.08-1.55-2.71-3-4.59-2.84-2.4.23-3.76 3.09-3.44 5.49a28.92 28.92 0 0 0-2.09-12.84 8.86 8.86 0 0 0-3.39-4.55 1.82 1.82 0 0 0-1.31-.3c-.66.18-1 .92-1.19 1.58a24.82 24.82 0 0 0-1.06 6.51 2 2 0 0 1-.47 1.54c-.46.37-1.13.22-1.71.25a3.44 3.44 0 0 0-2.82 2.26 7.4 7.4 0 0 0-.27 3.77 19.27 19.27 0 0 0 3.06 8.11 10.33 10.33 0 0 0-4.24-2.14 3.87 3.87 0 0 0-4.12 1.74c-.7 1.37-.2 3 .31 4.48l1.69 4.83a3.22 3.22 0 0 1 .26 1.69c-.31 1.43-2.23 1.69-3.31 2.68-1.45 1.32-1.05 3.84.29 5.26s3.32 2 5.2 2.58l6.59 1.94c2.81.82 5.87 1.64 8.61.6 1.87-.71 3.46-2.26 5.46-2.39s3.72 1.08 5.6.82 3.3-1.93 4-3.7a10.15 10.15 0 0 0-.26-8c-1.47-3.12-4.68-5.45-4.25-9.09a14.37 14.37 0 0 0-2.55-10.28Z" style="fill:#65913a"/><path d="M510.38 665.38c-9.65 5.94-16.73 1.44-20.28-2l6.93-4.27a8.24 8.24 0 0 0 13.24-8.15l7.56-4.65c1.54 4.4 2.65 12.85-7.45 19.07Z" class="cls-20"/><path d="M490.1 663.33c3.55 3.49 10.63 8 20.28 2 10.1-6.22 9-14.67 7.45-19.12l3.32-2a19.82 19.82 0 0 1-33.66 20.72Z" class="cls-21"/><path d="M506.54 659.68a8.25 8.25 0 0 1-9.51-.62l13.24-8.15a8.26 8.26 0 0 1-3.73 8.77Z" class="cls-22"/><path d="M513.3 652.89s2.12 1.87 2.42.58-2.42-.58-2.42-.58Zm.28-2.59s2.8.35 2.32-.89-2.32.89-2.32.89Zm-5.31 10.23s.68 2.73 1.67 1.84-1.67-1.84-1.67-1.84Zm3.51-3.53s1.87 2.11 2.34.86-2.34-.86-2.34-.86Zm-15.32 5.17s-2 2-.74 2.38.74-2.38.74-2.38Zm4.54.92s-1.27 2.52.06 2.49-.06-2.49-.06-2.49Z" class="cls-23"/><path d="M569.89 676a7 7 0 0 0-6.45 1.31 20.51 20.51 0 0 0-4.39 5.23 33.65 33.65 0 0 0-2.22-5.5 2.69 2.69 0 0 0-1.15-1.33c-1.51-.66-3 1.57-4.59 1.28a139.91 139.91 0 0 0 .67-19.31c-.12-3.81-.47-7.8-2.54-11s-6.43-5.24-9.83-3.52a7.74 7.74 0 0 0-3.82 5.67 17.39 17.39 0 0 0 .52 7c-1-3-5.31-3.58-7.86-1.78s-3.63 5-4.2 8.11a40.76 40.76 0 0 0 .24 15.87c-3-2.57-7.15-4.66-10.9-3.32-3.46 1.24-5.4 5.11-5.51 8.79s1.26 7.21 2.59 10.63c-2.23 1.59-4.36 3.92-4.16 6.66.18 2.43 2.23 4.39 4.51 5.27a23.63 23.63 0 0 0 7.22 1.05 76.41 76.41 0 0 1 13.62 2c4.28 1 8.52 2.47 12.92 2.74a41.16 41.16 0 0 0 11.78-1.33c4.42-1 9.09-2.53 11.83-6.15 1.77-2.33 2.51-5.25 3.21-8.09 1.54-6.28 6.48-16.28-1.49-20.28Z" class="cls-28"/><path d="M602.57 649.73c-2.48.14-4.7 2.62-4.16 5-.67-1.94-1.45-4-3.21-5.11s-4.7-.17-4.73 1.88a41.78 41.78 0 0 0-.67-12.5c-.69-3.29-2-6.79-4.94-8.45a2.09 2.09 0 0 0-1.2-.34c-.95.11-1.4 1.22-1.56 2.16a15.78 15.78 0 0 0 .49 7.35 8.57 8.57 0 0 0-3.56-2.8 2.21 2.21 0 0 0-1.7-.17 2.38 2.38 0 0 0-1.09 2 20.26 20.26 0 0 0 1.53 11.06c-1-1.79-2.55-3.6-4.59-3.63a4.16 4.16 0 0 0-3.81 3.14 6.76 6.76 0 0 0 .92 5.09 9.6 9.6 0 0 0-4.63-4.77 4.51 4.51 0 0 0-3.47-.39 3.94 3.94 0 0 0-2.26 3.34 11.56 11.56 0 0 0 .59 4.19c-1.82.1-3.87.3-5 1.71-1.56 1.91-.54 4.82 1 6.76s3.54 3.67 4.06 6.07c.66 3-1.26 6.27-.24 9.19a9.78 9.78 0 0 0 3.26 3.9l9.76 8.15a2.61 2.61 0 0 0 1.2.69 2.54 2.54 0 0 0 1.48-.35c6.77-3.2 12.13-8.85 18.79-12.28 1.86-1 3.9-1.8 5.2-3.45 1.47-1.86 1.77-4.48 3.35-6.25.72-.81 1.67-1.39 2.32-2.26 1.83-2.43 3-7.5 3.17-10.57.23-4-1.74-8.36-6.3-8.36Z" class="cls-29"/><path d="M543.1 678.9c6 7.64 14.55 11 19 7.41s3.24-12.6-2.78-20.23-14.54-11-19-7.41-3.24 12.6 2.78 20.23Zm.85-.67c-5.3-6.72-7.13-14.12-4.07-16.53s9.83 1.08 15.13 7.81 7.13 14.13 4.08 16.54-9.84-1.05-15.09-7.82Z" class="cls-24"/><path d="M543.12 678.92c6 7.63 14.08 11.31 18 8.22s2.21-11.78-3.81-19.42-14.08-11.31-18-8.22-2.21 11.79 3.81 19.42Zm.83-.69c-5.3-6.72-7.13-14.12-4.07-16.53s9.83 1.08 15.13 7.81 7.13 14.13 4.08 16.54-9.84-1.05-15.09-7.82Z" class="cls-25"/><path d="M595.6 661.46a2.7 2.7 0 0 0-1.61-1.09c-1.1-.2-2.1.58-2.94 1.31a8.53 8.53 0 0 0-1.58-2.62 2.87 2.87 0 0 0-2.8-.85c0-3.06.85-6.07.84-9.12 0-1.91-.61-4.15-2.4-4.81a.54.54 0 0 0-.48 0c-.16.1-.18.32-.19.5-.11 2.34-.13 4.67-.06 7a1.11 1.11 0 0 1-.16.76c-.41.49-1.18 0-1.82 0-1 0-1.42 1.45-1.16 2.46s.86 2 .58 3l-3.45-.45a2.69 2.69 0 0 0-1.8.18c-.94.58-.84 2-.54 3s.64 2.33-.08 3.16a7.88 7.88 0 0 1-1.63 1.06 3.77 3.77 0 0 0-1.18 3.51c.15 1.28.64 2.5.84 3.78.25 1.56 0 3.18.28 4.75.49 3.2 3.23 6.07 6.47 6.22a20.17 20.17 0 0 1 2.06.05 8.69 8.69 0 0 1 3.25 1.61 9.14 9.14 0 0 0 3.15 1.46 4 4 0 0 0 3.32-.66 6.18 6.18 0 0 0 1.38-1.85l2.55-4.54a17.31 17.31 0 0 0 1.82-4 10.22 10.22 0 0 0 0-4.73c-.36-1.56-1.61-3.06-1.82-4.56-.26-1.68.41-2.93-.84-4.53Z" class="cls-30"/><path d="M564.64 698.61a1.67 1.67 0 0 0 1.75-.79 5.1 5.1 0 0 0 .6-2 14.53 14.53 0 0 0 .12-5.87c-.5-1.91-2-3.7-4-3.88s-4 1.87-3.26 3.71a14.22 14.22 0 0 0-2-5.56c-.84-1.33-2.18-2.62-3.73-2.44a3.35 3.35 0 0 0-2.45 2 9.87 9.87 0 0 0-.74 3.15c-3.2-3.56-4.09-8.79-7.46-12.2a10.73 10.73 0 0 1-1.94-2.16 6.08 6.08 0 0 1-.2-4.37 17.31 17.31 0 0 1 1.87-4.59c.61-1.06 1.37-2.24 1-3.42a2.59 2.59 0 0 0-2.34-1.68 5.48 5.48 0 0 0-2.93.77 25.83 25.83 0 0 0-5.51 4.39 32.63 32.63 0 0 0-.14-9 7.21 7.21 0 0 0-1.15-3.3c-1.51-2-4.67-2.07-6.74-.69a9.72 9.72 0 0 0-3.68 6.28c-.12.59-.26 1.27-.79 1.56a1.84 1.84 0 0 1-1 .17c-1.64 0-3.47-.27-4.76.74-1.84 1.44-1.39 4.33-.51 6.48a.76.76 0 0 1 .07.65c-.14.28-.52.29-.83.26-2.64-.26-5.38-.55-7.9.27a2.59 2.59 0 0 0-1.53 1 2.83 2.83 0 0 0-.25 1.68 16.35 16.35 0 0 0 1.51 5.61 2.61 2.61 0 0 0-.56 2.87 10.45 10.45 0 0 0-6.66-.88 6 6 0 0 0-3 1.43 3.16 3.16 0 0 0-.95 3.08 16.23 16.23 0 0 0-7.55-10.04 2.23 2.23 0 0 0-1.79-.41c-.67.23-1 1-1.21 1.65a31.69 31.69 0 0 0-2 7.56 10.9 10.9 0 0 0 1.72 7.46 2.85 2.85 0 0 0-3.58 1.34 5.55 5.55 0 0 0-.24 4.13c.38 1.36 1 2.64 1.4 4a2.52 2.52 0 0 1 .12 1.33c-.26 1.08-1.53 1.51-2.36 2.25a4.43 4.43 0 0 0-1.27 3.52 13.22 13.22 0 0 0 .92 3.74 17.32 17.32 0 0 0 9.6.84c3-.73 6-1.83 9.1-2.19 6.22-.72 12.36 1.55 18.53 2.62a49.17 49.17 0 0 0 33.27-6.19 26.1 26.1 0 0 1 3.81-2.08 26.46 26.46 0 0 1 3.43-1c2.96-.73 5.48-.51 8.19-1.8Z" class="cls-29"/><path d="M519.61 699.9c.84-2 1.31-4.3.26-6.15-.31-.55-.76-1.14-.58-1.74a2 2 0 0 1 .6-.79 22.29 22.29 0 0 0 6.76-13c.31-2.25.18-4.8-1.38-6.45a1.56 1.56 0 0 0-.8-.51 1.64 1.64 0 0 0-1.47.74c-1.47 1.9-1.69 4.45-1.77 6.85a3 3 0 0 1-.76 2.35c-.9.69-2.17.15-3.21-.3s-2.52-.64-3 .36a2.55 2.55 0 0 0-.17 1.23c0 1.11.08 2.23.11 3.34a3.53 3.53 0 0 1-.3 1.94c-.83 1.39-3 1-4.28 0s-2.31-2.46-3.89-2.83a1.65 1.65 0 0 0-1.18.1 2.2 2.2 0 0 0-.87 1.42 40.93 40.93 0 0 0-1.36 7.11 3.64 3.64 0 0 1-.51 1.87 3 3 0 0 1-3 .82 8.45 8.45 0 0 0-3.26-.29c-1.76.41-2.74 2.4-2.72 4.21a17.91 17.91 0 0 0 1.37 5.22 7.43 7.43 0 0 1 .24 5.28 3.26 3.26 0 0 0-.5 1.58c.09.83 1 1.32 1.79 1.51a7.55 7.55 0 0 0 5.2-.6c1.82-.93 3.73-2.66 5.58-1.81 1.43.65 2.75 2.42 4.25.63 1-1.24.39-2.59 1.74-3.8 2.85-2.61 5.5-4.54 7.11-8.29Z" class="cls-30"/><path d="M666.25 697.06a47 47 0 0 0 13.18-41.22c-.3-1.66-1-3.64-2.72-3.81a3.63 3.63 0 0 0-2.2.69c-5 3-8 8.62-12.33 12.55a2.56 2.56 0 0 1-1.36.77c-1.13.11-1.87-1.11-2.38-2.13-2.65-5.36-8.12-10.24-14-9.06-5.44 1.15-8.54 6.71-12.87 10.15a1.7 1.7 0 0 1-1.41.53c-.59-.16-.86-.84-1-1.44-1.46-5.94-.69-12.26-2.19-18.2s-6.69-11.84-12.71-10.76c-4.58.83-7.65 5.51-8.17 10.13s.95 9.21 2.4 13.63a9.71 9.71 0 0 0-15.58 10.68 22.8 22.8 0 0 0-6.09-7.53 10.74 10.74 0 0 0-9.21-2c-4.06 1.24-6.61 5.48-7.14 9.69s.55 8.44 1.63 12.54a15.76 15.76 0 0 0-17.56 23c29.58 3 58.49 3.47 88-.11 8.51-1 17.19-2.41 24.7-6.56.5-.21-.96-2.1-.99-1.54Z" class="cls-26"/><path d="M672.43 654.64c-6.1-4.81-17.67-.3-25.85 10.07s-9.87 22.67-3.77 27.48 17.67.31 25.85-10.06 9.87-22.68 3.77-27.49ZM647 691.83c-4.15-3.27-1.67-13.33 5.53-22.46s16.41-13.88 20.56-10.61 1.68 13.33-5.53 22.46-16.46 13.89-20.56 10.61Z" class="cls-24"/><path d="M673.81 655.77c-5.32-4.2-16.27.8-24.45 11.17s-10.49 22.18-5.17 26.38 16.27-.8 24.45-11.17 10.5-22.15 5.17-26.38ZM647 691.83c-4.15-3.27-1.67-13.33 5.53-22.46s16.41-13.88 20.56-10.61 1.68 13.33-5.53 22.46-16.46 13.89-20.56 10.61Z" class="cls-25"/><path d="M492.35 665c-6.1-4.82-17.67-.31-25.85 10.06s-9.87 22.67-3.77 27.48 17.67.31 25.85-10.06 9.87-22.72 3.77-27.48Zm-25.48 37.18c-4.14-3.27-1.67-13.33 5.54-22.46s16.41-13.88 20.56-10.61 1.67 13.33-5.54 22.46-16.43 13.84-20.56 10.56Z" class="cls-24"/><path d="M493.73 666.07c-5.32-4.2-16.27.81-24.45 11.17s-10.49 22.18-5.17 26.38 16.27-.8 24.45-11.17 10.5-22.18 5.17-26.38Zm-26.86 36.06c-4.14-3.27-1.67-13.33 5.54-22.46s16.41-13.88 20.56-10.61 1.67 13.33-5.54 22.46-16.43 13.89-20.56 10.61Z" class="cls-25"/><path d="M588 723.79c-3.41-3.48-6.93-7.14-8.43-11.78s-.26-10.55 4-12.84c1.9-1 4.13-1.22 6.14-2a2.84 2.84 0 0 0 1.61-1.26 3.17 3.17 0 0 0-.25-2.45c-1.42-3.63-3.14-7.18-4-11s-.9-8 1-11.41a6.24 6.24 0 0 1 4-3.34 6.86 6.86 0 0 1 4.32 1c6.16 3.23 10.27 9.72 16.72 12.34a3.13 3.13 0 0 0 1.77.31c1.53-.31 1.9-2.37 1.58-3.89-.46-2.16-1.59-4.11-2.16-6.24s-.42-4.7 1.24-6.13c3.18-2.74 8.65.75 12.11-1.61 2.8-1.9 2.3-6.06 1.74-9.4-.61-3.65-.88-7.49.35-11s4.29-6.56 8-6.8c4.63-.31 8.55 3.85 9.82 8.32s.59 9.21.32 13.84 0 9.63 2.75 13.36 8.81 5.3 12.09 2c2.4-2.39 2.66-6.48 5.39-8.48 2.51-1.84 6.23-1 8.58 1s3.64 5 4.78 7.91c.61 1.55 1.37 3.28 2.94 3.85 1.33.48 2.8 0 4.09-.64a31.9 31.9 0 0 1 6.52-2.63 7.37 7.37 0 0 1 6.62 1.44c1.68 1.62 2.08 4.15 2.1 6.49a29.45 29.45 0 0 1-6.39 18.5c-3.07 3.82-9.93 3.29-14.76 4.13-32.15 5.67-62.91 10.12-94.59 18.41Z" class="cls-28"/><path d="M574 688.29c-12.41-8.52-10.75-19.54-8.42-25.73l8.91 6.12a10.94 10.94 0 0 0 17 11.69l9.73 6.69c-4.56 4.27-14.22 10.16-27.22 1.23Z" class="cls-20"/><path d="M565.58 662.56c-2.33 6.19-4 17.21 8.42 25.73 13 8.93 22.66 3 27.24-1.23l4.27 2.93a26.33 26.33 0 0 1-43.28-29.73Z" class="cls-21"/><path d="M578.86 680.56a11 11 0 0 1-4.37-11.88l17 11.69a10.93 10.93 0 0 1-12.63.19Z" class="cls-22"/><path d="M590.75 685.13s-1.13 3.57.6 3.25-.6-3.25-.6-3.25Zm3.3-1.07s1.08 3.59 2.33 2.35-2.33-2.35-2.33-2.35Zm-15.29-.94s-3 2.3-1.34 3 1.34-3 1.34-3Zm6.24 2.36s-1.55 3.41.21 3.3-.21-3.3-.21-3.3Zm-14.6-15.82s-3.48-1.37-3.28.38 3.28-.38 3.28-.38Zm1.34 6.02s-3.74-.18-3 1.41 3-1.41 3-1.41Z" class="cls-23"/><path d="M598.23 685.68a2.29 2.29 0 0 1 .22-1 1.84 1.84 0 0 1 1.56-.77 6.77 6.77 0 0 1 4.8 2.23 36.87 36.87 0 0 0 3.92 3.79c1.49 1 3.53 1.57 5.12.69s2-3.55.47-4.49l5.64 2.2c.95.37 2.09.73 2.93.14a2.33 2.33 0 0 0 .54-2.71 20.59 20.59 0 0 0-1.48-2.57c-1.54-2.93-.62-6.49.32-9.66a4 4 0 0 1 1.32-2.32c1.09-.75 2.63-.24 3.59.66a28.49 28.49 0 0 1 2.37 3.15 1.43 1.43 0 0 0 .65.52c.76.24 1.35-.68 1.57-1.44.68-2.38.77-4.88 1.21-7.31s1.32-4.92 3.2-6.52a1.45 1.45 0 0 1 1.44-.45 1.33 1.33 0 0 1 .62.68c2 3.88-3.1 8.15-2.38 12.43.63 3.74 5.15 5.38 7.17 8.59a14.6 14.6 0 0 0 1.39 2.23 5.18 5.18 0 0 0 5.22 1.08 19.58 19.58 0 0 0 4.91-2.68 2.41 2.41 0 0 1 1.89-.55 2.24 2.24 0 0 1 1.11 1c1.27 1.89 2 4.19 3.75 5.65 3.13 2.62 7.78 1.37 11.77.49a3.31 3.31 0 0 1 1.92 0 2.92 2.92 0 0 1 1.19 1c3.49 4.55 2.87 11.85 7.54 15.18 1.39 1 3.31 1.77 3.51 3.46a3 3 0 0 1-2.56 3 9.35 9.35 0 0 1-4.24-.48 50.46 50.46 0 0 0-15.95-2c-4.67.28-9.23 1.49-13.84 2.24-15 2.45-31.11-.22-43.62-8.87-1.52-1.05-3-2.19-4.59-3.1-2.91-1.66-3.6-1.29-4-4.81a58.81 58.81 0 0 1-.2-8.68Z" style="fill:#8ab537"/><path d="M609.63 700.81c8.18 10.37 19.75 14.88 25.85 10.07s4.41-17.12-3.77-27.49-19.71-14.87-25.85-10.06-4.41 17.11 3.77 27.48Zm1.15-.9c-7.21-9.14-9.68-19.19-5.53-22.47s13.35 1.48 20.55 10.61 9.69 19.19 5.54 22.47S618 709 610.78 699.91Z" class="cls-24"/><path d="M609.65 700.84c8.18 10.37 19.12 15.37 24.45 11.17s3-16-5.17-26.38-19.13-15.37-24.45-11.17-3.01 16.01 5.17 26.38Zm1.13-.93c-7.21-9.14-9.68-19.19-5.53-22.47s13.35 1.48 20.55 10.61 9.69 19.19 5.54 22.47S618 709 610.78 699.91Z" class="cls-25"/><path d="M707 743.19a5.37 5.37 0 0 1-5.37 5.37H443.72a5.37 5.37 0 0 1-5.37-5.37v-8.9H707Z" style="fill:#ce5863"/><path d="M438.35 700.97h268.63v33.32H438.35z" style="fill:#dd5f6a"/><path d="M438.35 699.14a5.38 5.38 0 0 1 5.37-5.38h257.89a5.38 5.38 0 0 1 5.37 5.38V701H438.35Z" style="fill:#df6d6f"/><path d="m331.96 653.22 13.12 95.5h53.89l13.12-95.5h-80.13z" style="fill:#e4e5e5"/><path d="M405.91 679.7c-.58.36-67.77 0-67.77 0l8.31 54.35a8.49 8.49 0 0 0 8.4 7.26h34.71A8.48 8.48 0 0 0 398 734Z" style="fill:#f9a61e"/><circle cx="354.23" cy="690.96" r="1.29" class="cls-37"/><path d="M356.65 698.78a1.31 1.31 0 1 0 1.3-1.3 1.3 1.3 0 0 0-1.3 1.3ZM371 707a1.42 1.42 0 1 0 1.42-1.41A1.42 1.42 0 0 0 371 707Z" class="cls-37"/><circle cx="356.93" cy="716.51" r="2.85" class="cls-37"/><path d="M368.3 725.83a1.35 1.35 0 1 0 1.35-1.36 1.36 1.36 0 0 0-1.35 1.36Zm6.45-34.98a1.31 1.31 0 1 0 1.31-1.31 1.31 1.31 0 0 0-1.31 1.31Z" class="cls-37"/><circle cx="390.23" cy="697.95" r="1.75" class="cls-37"/><path d="M391.49 728.67a1.5 1.5 0 1 0 1.49-1.49 1.49 1.49 0 0 0-1.49 1.49Zm-12.7-9.36a2.8 2.8 0 1 0 2.79-2.8 2.79 2.79 0 0 0-2.79 2.8Zm-4.95-18.5a1.11 1.11 0 1 0 1.16-1.11 1.11 1.11 0 0 0-1.16 1.11Zm-9.55-14.54a1.13 1.13 0 1 0 1.13-1.13 1.14 1.14 0 0 0-1.13 1.13Z" class="cls-37"/><circle cx="356.95" cy="705.51" r="1" class="cls-37"/><path d="M351.34 714.08a1.84 1.84 0 1 0 1.84-1.84 1.85 1.85 0 0 0-1.84 1.84Z" class="cls-37"/><path d="M405.91 656.48h-17.36l-7.44 89.05h12.4l12.4-89.05z" style="opacity:.33;fill:#fff"/><path d="M0 482.64h155.74v265.91H18a18 18 0 0 1-18-18V482.64Z" style="fill:#edeced" transform="rotate(180 77.87 615.595)"/><path d="M24.22 629A24.22 24.22 0 0 1 0 653.22v-48.45A24.22 24.22 0 0 1 24.22 629Z" class="cls-6"/><path d="M335.58 447.17c-12.41-8.52-10.75-19.54-8.42-25.73l8.91 6.12a10.94 10.94 0 0 0 17 11.69l9.73 6.68c-4.56 4.27-14.23 10.17-27.22 1.24Z" class="cls-20"/><path d="M327.16 421.44c-2.33 6.19-4 17.21 8.42 25.73 13 8.93 22.66 3 27.24-1.24l4.27 2.94a26.33 26.33 0 0 1-43.28-29.73Z" class="cls-21"/><path d="M340.44 439.44a10.94 10.94 0 0 1-4.37-11.88l17 11.69a10.93 10.93 0 0 1-12.63.19Z" class="cls-22"/><path d="M352.33 444s-1.14 3.58.6 3.26-.6-3.26-.6-3.26Zm3.3-1.06s1.07 3.59 2.33 2.35-2.33-2.35-2.33-2.35Zm-15.29-.94s-2.95 2.31-1.34 3 1.34-3 1.34-3Zm6.2 2.36s-1.55 3.41.21 3.3-.21-3.3-.21-3.3ZM332 428.54s-3.48-1.37-3.28.38 3.28-.38 3.28-.38Zm1.32 6.02s-3.74-.18-3 1.41 3-1.41 3-1.41Z" class="cls-23"/></g></g></svg>