<svg xmlns="http://www.w3.org/2000/svg" viewBox="0 0 75.27 74.61"><defs><style>.cls-1{fill:#e8ebec}.cls-2{fill:#fff}.cls-3{fill:#97d3db}.cls-4{fill:#8dc74a}</style></defs><g id="Capa_2" data-name="Capa 2"><g id="layer_1" data-name="layer 1"><circle cx="14" cy="60.61" r="14" class="cls-1"/><circle cx="60.8" cy="59.62" r="12" class="cls-1"/><circle cx="55.27" cy="20" r="20" class="cls-1"/><circle cx="36.24" cy="38.63" r="32" class="cls-2"/><path d="M47.14 8.53a32 32 0 0 1-35.8 50.19 32 32 0 1 0 35.8-50.19Z" class="cls-3"/><path d="M36.24 71.38A32.75 32.75 0 1 1 69 38.63a32.79 32.79 0 0 1-32.76 32.75Zm0-64a31.25 31.25 0 1 0 31.25 31.25A31.28 31.28 0 0 0 36.24 7.38Z" class="cls-4"/><path d="M41.88 61.87s-13.75 6.62-21.67-6.21c0 0-7.46.44-6.45-6.91 0 0-4.87-4.78-1.06-9.29 0 0-4.31-2.81.55-7.13 0 0-3.05-4.52 2.25-5.86 0 0 2.13-5.47 8-1.82 0 0 3.38-4.4 7.42 1 0 0 7.13-.47 6.37 6.5 0 0 5.64 3.84-.55 8.16 0 0 3.91 3.61-2.67 8.2s7.81 13.36 7.81 13.36Z" class="cls-2"/><path d="M34.11 48.47c6.58-4.59 2.67-8.2 2.67-8.2 6.19-4.32.55-8.16.55-8.16.76-7-6.37-6.5-6.37-6.5-4-5.36-7.42-1-7.42-1A4.75 4.75 0 0 1 27.06 28s5.07-.91 5.07 4.89c0 0 5.74 2 0 8.46 0 0 4.28 3.29-2.3 7.88-4.36 3 .75 8.2 4.5 11.16 1.92 1.5 7.55 1.51 7.55 1.51s-14.35-8.85-7.77-13.43Z" class="cls-3"/><path d="M33.8 64.29c-4.52 0-10-1.6-14-7.88a7.7 7.7 0 0 1-5.37-2.11A6.43 6.43 0 0 1 13 49c-1.73-1.87-3.82-5.8-1.3-9.44a4.61 4.61 0 0 1-1.47-2.93 5.73 5.73 0 0 1 2.11-4.46 5 5 0 0 1-.45-3.86A4.35 4.35 0 0 1 15 25.84a5.9 5.9 0 0 1 3.22-2.94 6.43 6.43 0 0 1 5.21.8 5 5 0 0 1 3.4-1.5c1.58 0 3.09.9 4.5 2.66a7.59 7.59 0 0 1 5.28 2 6.19 6.19 0 0 1 1.52 4.92 5.88 5.88 0 0 1 2.3 4.22c0 1.56-.85 3-2.57 4.41a4.73 4.73 0 0 1 .81 3c-.13 2-1.52 3.91-4.13 5.72a2.76 2.76 0 0 0-1.4 2.39c.1 3.46 6.63 8.22 9.13 9.76a.75.75 0 0 1-.06 1.31 21.68 21.68 0 0 1-8.41 1.7Zm-13.59-9.38a.74.74 0 0 1 .63.35c6.18 10 15.93 7.7 19.43 6.45-2.62-1.79-8.52-6.24-8.63-10.2a4.18 4.18 0 0 1 2-3.66c2.19-1.52 3.4-3.11 3.5-4.6a3.29 3.29 0 0 0-.91-2.43.76.76 0 0 1-.24-.6.79.79 0 0 1 .32-.57c1.72-1.2 2.59-2.43 2.58-3.66 0-1.84-2-3.24-2-3.26a.73.73 0 0 1-.32-.7 5 5 0 0 0-1.07-4.14c-1.59-1.69-4.5-1.53-4.5-1.53a.72.72 0 0 1-.65-.29c-1.17-1.57-2.35-2.36-3.54-2.37a3.83 3.83 0 0 0-2.66 1.41.76.76 0 0 1-1 .18c-1.72-1.06-3.22-1.39-4.47-1a4.62 4.62 0 0 0-2.48 2.42.76.76 0 0 1-.51.46 3.17 3.17 0 0 0-2.42 1.66c-.52 1.34.59 3 .61 3.06a.76.76 0 0 1-.13 1c-1.44 1.27-2.13 2.49-2.06 3.62a3.41 3.41 0 0 0 1.43 2.32.77.77 0 0 1 .16 1.17c-3.32 3.91.83 8.09 1 8.27a.74.74 0 0 1 .22.63 5.22 5.22 0 0 0 1 4.43c1.65 1.79 4.61 1.63 4.64 1.63Z" class="cls-4"/><path d="M41.86 62.62c-.66 0-10.41-.13-15.82-7.44-4.09-5.53-4.52-13.59-1.29-24a.75.75 0 1 1 1.43.44c-3.08 9.89-2.72 17.51 1.07 22.63 5 6.76 14.43 6.83 14.62 6.83a.75.75 0 1 1 0 1.5Z" class="cls-4"/><path d="M23.63 40.36a.73.73 0 0 1-.35-.09c-4.16-2.18-5.5-7.68-5.56-7.91a.75.75 0 0 1 .56-.9.74.74 0 0 1 .9.55c0 .05 1.21 4.9 4.61 6.83 1-.08 5.48-.59 7.78-3.18a.74.74 0 0 1 1-.07.76.76 0 0 1 .07 1.06c-3 3.4-8.78 3.7-9 3.71Zm.47 9.79h-.15c-4.89-1-7.59-6.19-7.7-6.41a.75.75 0 0 1 .33-1 .76.76 0 0 1 1 .33s2.42 4.62 6.5 5.59c.87-.23 5.13-1.5 6.39-4.46a.76.76 0 0 1 1-.39.74.74 0 0 1 .39 1c-1.7 4-7.36 5.31-7.59 5.37Z" class="cls-4"/><path d="M58.7 42.62a7.82 7.82 0 0 1 1.67 6.72 11.07 11.07 0 0 1-3.68 6A9.88 9.88 0 0 1 50.42 58a8 8 0 0 1-6-3 8 8 0 0 1-2.1-6.36A9.85 9.85 0 0 1 46 42.92 10.8 10.8 0 0 1 52.33 40a7.72 7.72 0 0 1 6.37 2.62Z" class="cls-2"/><path d="M58.72 42.61a7.3 7.3 0 0 0-3.42-2.18c2.22 3.49 1.24 8.7-2.55 12a9 9 0 0 1-8.86 1.88c.16.22.28.55.46.75a8 8 0 0 0 6.07 2.87 9.7 9.7 0 0 0 6.23-2.62 10.75 10.75 0 0 0 3.54-6 7.71 7.71 0 0 0-1.47-6.7Z" class="cls-3"/><path d="M50.4 58.71a8.67 8.67 0 0 1-6.52-3.27 8.73 8.73 0 0 1-2.28-7c.32-2.09 1.63-4.15 3.92-6.12a11.43 11.43 0 0 1 6.76-3.07 8.35 8.35 0 0 1 8.83 10.2 11.81 11.81 0 0 1-3.93 6.41 10.62 10.62 0 0 1-6.76 2.81Zm2.41-17.93h-.44a10 10 0 0 0-5.87 2.7c-2 1.73-3.15 3.49-3.41 5.22A7.23 7.23 0 0 0 45 54.46a7.18 7.18 0 0 0 5.38 2.75 9.16 9.16 0 0 0 5.78-2.44 10.31 10.31 0 0 0 3.44-5.58 7.11 7.11 0 0 0-1.5-6.08 6.94 6.94 0 0 0-5.29-2.33Z" class="cls-4"/><path d="M55.5 27.09a7.49 7.49 0 0 1 5.33 4 10.77 10.77 0 0 1 1.17 6.8c-.85 5.23-5.14 8.26-9.52 7.51s-7.29-5-6.44-10.26a10.7 10.7 0 0 1 3-6.12 7.47 7.47 0 0 1 6.46-1.93Z" class="cls-2"/><path d="M59.69 29.6a10.44 10.44 0 0 1 .22 4.26c-.86 5.24-5 8.1-9.37 7.35a7.54 7.54 0 0 1-4.44-2.32 8 8 0 0 0 6.4 6.57c4.38.75 8.52-2.36 9.37-7.6a10 10 0 0 0-2.18-8.26Z" class="cls-3"/><path d="M53.84 46.26a9.08 9.08 0 0 1-1.46-.12c-4.91-.85-7.94-5.63-7.05-11.12a11.42 11.42 0 0 1 3.25-6.55 8.15 8.15 0 0 1 12.92 2.29A11.54 11.54 0 0 1 62.77 38a10 10 0 0 1-4 6.65 8.55 8.55 0 0 1-4.93 1.61Zm.38-18.53a6.73 6.73 0 0 0-4.62 1.84 10 10 0 0 0-2.79 5.69c-.76 4.66 1.75 8.7 5.83 9.4a7 7 0 0 0 5.3-1.22 8.52 8.52 0 0 0 3.35-5.68 10 10 0 0 0-1.12-6.29 6.72 6.72 0 0 0-4.79-3.64 6.57 6.57 0 0 0-1.16-.1Z" class="cls-4"/><path d="M42.91 30.57s-3.19-2.7-3.45-5.22.91-3.74 2.5-3.91 3 .78 3.25 3.3-2.3 5.83-2.3 5.83Z" class="cls-2"/><path d="M42.39 21.44a4.48 4.48 0 0 1 .82 2.3c.19 1.86-1.16 4.16-1.87 5.23a15.89 15.89 0 0 0 1.57 1.6s2.56-3.31 2.3-5.83c-.21-2.29-1.42-3.27-2.82-3.3Z" class="cls-3"/><path d="M42.91 31.32a.7.7 0 0 1-.48-.18c-.14-.12-3.43-2.92-3.72-5.71-.33-3.21 1.42-4.55 3.17-4.73a3.41 3.41 0 0 1 2.56.7A4.66 4.66 0 0 1 46 24.66c.29 2.79-2.34 6.22-2.46 6.37a.78.78 0 0 1-.51.29Zm-.6-9.15h-.27c-1.38.14-2 1.24-1.83 3.08.15 1.47 1.6 3.19 2.58 4.17.76-1.16 1.83-3.16 1.67-4.62a3.26 3.26 0 0 0-1-2.25 1.86 1.86 0 0 0-1.15-.38Z" class="cls-4"/><path d="M47.17 18.12s3.81-1.72 6.2-.88 3 2.43 2.45 3.94-2 2.36-4.37 1.52-4.28-4.58-4.28-4.58Z" class="cls-2"/><path d="M53.9 17.47a2.79 2.79 0 0 1-.08 1.71c-.53 1.51-2 2.36-4.37 1.52a4.12 4.12 0 0 1-1-.5 7.09 7.09 0 0 0 3 2.5c2.38.84 3.84 0 4.37-1.52s.01-2.83-1.92-3.71Z" class="cls-3"/><path d="M53.19 23.78a5.94 5.94 0 0 1-2-.37c-2.64-.94-4.62-4.79-4.7-4.95a.81.81 0 0 1 0-.59.82.82 0 0 1 .4-.44c.17-.07 4.11-1.83 6.76-.89 3 1.07 3.49 3.23 2.91 4.89a3.42 3.42 0 0 1-1.74 2 3.64 3.64 0 0 1-1.63.35Zm-4.95-5.28c.73 1.19 2.07 3 3.46 3.49a3.27 3.27 0 0 0 2.45.09 1.9 1.9 0 0 0 1-1.15c.46-1.3-.25-2.36-2-3-1.43-.47-3.6.07-4.91.57Z" class="cls-4"/><path d="M31 12s-.15 4.17-2 5.94-3.5 1.59-4.61.45-1.24-2.83.58-4.59S31 12 31 12Z" class="cls-2"/><path d="M28 15.9c-1.71 1.66-3.3 1.59-4.41.62a2.65 2.65 0 0 0 .8 1.83c1.11 1.14 2.79 1.31 4.61-.45s2-5.9 2-5.9-.52 0-1.26.09A7.51 7.51 0 0 1 28 15.9Z" class="cls-3"/><path d="M26.35 20a3.46 3.46 0 0 1-2.48-1.1 3.39 3.39 0 0 1-1-2.45 4.7 4.7 0 0 1 1.62-3.2c2-2 6.34-2 6.53-2a.75.75 0 0 1 .75.78c0 .18-.18 4.49-2.2 6.45A4.64 4.64 0 0 1 26.35 20Zm3.83-7.22c-1.39.12-3.61.52-4.67 1.54a3.26 3.26 0 0 0-1.17 2.16 1.94 1.94 0 0 0 .6 1.38c1 1 2.23.82 3.56-.47 1.06-1.06 1.5-3.26 1.68-4.64Z" class="cls-4"/><path d="M35.75 18s.58-4.14 2.57-5.7 3.65-1.23 4.64 0 .94 2.94-1.06 4.5-6.15 1.2-6.15 1.2Z" class="cls-2"/><path d="M43 12.32a3.64 3.64 0 0 0-.38-.4 3.59 3.59 0 0 1-1.68 2.9c-1.23 1-3.31 1.19-4.71 1.21a15 15 0 0 0-.44 2s4.16.4 6.15-1.17S44 13.57 43 12.32Z" class="cls-3"/><path d="M36.92 18.79c-.7 0-1.19-.05-1.24-.05a.75.75 0 0 1-.52-.28.79.79 0 0 1-.16-.57c0-.18.65-4.46 2.85-6.19 2.53-2 4.61-1.23 5.7.15a3.42 3.42 0 0 1 .77 2.54 4.69 4.69 0 0 1-2 3c-1.45 1.2-3.91 1.4-5.4 1.4Zm-.28-1.5c1.39 0 3.64-.14 4.8-1.06a3.26 3.26 0 0 0 1.39-2 2 2 0 0 0-.46-1.43c-.86-1.08-2.13-1-3.59.1-1.16.89-1.84 3.03-2.14 4.39Z" class="cls-4"/><circle cx="9.24" cy="11.63" r="2" class="cls-2"/><path d="M9.24 14.38A2.75 2.75 0 1 1 12 11.63a2.76 2.76 0 0 1-2.76 2.75Zm0-4a1.25 1.25 0 1 0 1.25 1.25 1.25 1.25 0 0 0-1.25-1.25Z" class="cls-4"/><circle cx="60.24" cy="8.63" r="2" class="cls-2"/><path d="M60.24 11.38A2.75 2.75 0 1 1 63 8.63a2.75 2.75 0 0 1-2.76 2.75Zm0-4a1.25 1.25 0 1 0 1.25 1.25 1.25 1.25 0 0 0-1.25-1.25Z" class="cls-4"/><circle cx="66.24" cy="15.63" r="2" class="cls-2"/><path d="M66.24 18.38A2.75 2.75 0 1 1 69 15.63a2.75 2.75 0 0 1-2.76 2.75Zm0-4a1.25 1.25 0 1 0 1.25 1.25 1.25 1.25 0 0 0-1.25-1.25Z" class="cls-4"/><circle cx="6.24" cy="62.63" r="2" class="cls-2"/><path d="M6.24 65.38A2.75 2.75 0 1 1 9 62.63a2.75 2.75 0 0 1-2.76 2.75Zm0-4a1.25 1.25 0 1 0 1.25 1.25 1.25 1.25 0 0 0-1.25-1.25Z" class="cls-4"/><circle cx="14.24" cy="68.63" r="2" class="cls-2"/><path d="M14.24 71.38A2.75 2.75 0 1 1 17 68.63a2.76 2.76 0 0 1-2.76 2.75Zm0-4a1.25 1.25 0 1 0 1.25 1.25 1.25 1.25 0 0 0-1.25-1.25Z" class="cls-4"/><circle cx="65.24" cy="63.63" r="2" class="cls-2"/><path d="M65.24 66.38A2.75 2.75 0 1 1 68 63.63a2.75 2.75 0 0 1-2.76 2.75Zm0-4a1.25 1.25 0 1 0 1.25 1.25 1.25 1.25 0 0 0-1.25-1.25Z" class="cls-4"/></g></g></svg>