<svg xmlns="http://www.w3.org/2000/svg" viewBox="0 0 73.15 71.25"><defs><style>.cls-1{fill:#e8ebec}.cls-2{fill:#fff}.cls-3{fill:#97d3db}.cls-4{fill:#8dc74a}</style></defs><g id="Capa_2" data-name="Capa 2"><g id="layer_1" data-name="layer 1"><circle cx="15.54" cy="14" r="14" class="cls-1"/><circle cx="60.54" cy="28.15" r="12" class="cls-1"/><circle cx="20" cy="51.25" r="20" class="cls-1"/><path d="M9.4 49.25h50a1 1 0 0 1 1 1v3a4 4 0 0 1-4 4h-44a4 4 0 0 1-4-4v-3a1 1 0 0 1 1-1Zm44.5 0h-41a2.5 2.5 0 0 1-2.5-2.5 2.5 2.5 0 0 1 2.5-2.5h41a2.5 2.5 0 0 1 2.5 2.5 2.5 2.5 0 0 1-2.5 2.5Z" class="cls-2"/><rect width="46" height="7" x="11.4" y="37.25" class="cls-2" rx="3.5"/><path d="M53.9 29.25h-41a2.5 2.5 0 0 1-2.5-2.5 2.5 2.5 0 0 1 2.5-2.5h41a2.5 2.5 0 0 1 2.5 2.5 2.5 2.5 0 0 1-2.5 2.5Zm.5-5h-38a4 4 0 0 1-4-4 4 4 0 0 1 4-4h38a4 4 0 0 1 4 4 4 4 0 0 1-4 4Zm0 13h-38a4 4 0 0 1-4-4 4 4 0 0 1 4-4h38a4 4 0 0 1 4 4 4 4 0 0 1-4 4Zm5-21h-50a1 1 0 0 1-1-1 13 13 0 0 1 13-13h26a13 13 0 0 1 13 13 1 1 0 0 1-1 1Z" class="cls-2"/><path d="M59.4 49.25h-30a1 1 0 0 1 1 1v3a4 4 0 0 1-4 4h30a4 4 0 0 0 4-4v-3a1 1 0 0 0-1-1Zm-27.5-5a2.5 2.5 0 1 1 0 5h22a2.5 2.5 0 1 0 0-5h-22Zm4-7a3.5 3.5 0 0 1 3.5 3.5 3.5 3.5 0 0 1-3.5 3.5h18a3.5 3.5 0 0 0 3.5-3.5 3.5 3.5 0 0 0-3.5-3.5h-18Zm15.5-10.5a2.5 2.5 0 0 1-2.5 2.5h5a2.5 2.5 0 0 0 2.5-2.5 2.5 2.5 0 0 0-2.5-2.5h-5a2.5 2.5 0 0 1 2.5 2.5Zm-8-10.5a4 4 0 0 1 4 4 4 4 0 0 1-4 4h11a4 4 0 0 0 4-4 4 4 0 0 0-4-4h-11Zm-2 13a4 4 0 0 1 4 4 4 4 0 0 1-4 4h13a4 4 0 0 0 4-4 4 4 0 0 0-4-4h-13Zm8-14a1 1 0 0 1-1 1h11a1 1 0 0 0 1-1 13 13 0 0 0-13-13h-11a13 13 0 0 1 13 13Z" class="cls-3"/><path d="M56.4 58h-44a4.75 4.75 0 0 1-4.75-4.75v-3A1.76 1.76 0 0 1 9.4 48.5h50a1.75 1.75 0 0 1 1.75 1.75v3A4.75 4.75 0 0 1 56.4 58Zm-47-8a.25.25 0 0 0-.25.25v3a3.26 3.26 0 0 0 3.25 3.25h44a3.26 3.26 0 0 0 3.25-3.25v-3a.25.25 0 0 0-.25-.25Z" class="cls-4"/><path d="M53.9 50h-41a3.25 3.25 0 1 1 0-6.5h41a3.25 3.25 0 1 1 0 6.5Zm-41-5a1.75 1.75 0 1 0 0 3.5h41a1.75 1.75 0 1 0 0-3.5Z" class="cls-4"/><path d="M53.9 45h-39a4.25 4.25 0 1 1 0-8.5h39a4.25 4.25 0 1 1 0 8.5Zm-39-7a2.75 2.75 0 1 0 0 5.5h39a2.75 2.75 0 1 0 0-5.5Zm39-8h-41a3.25 3.25 0 1 1 0-6.5h41a3.25 3.25 0 1 1 0 6.5Zm-41-5a1.75 1.75 0 1 0 0 3.5h41a1.75 1.75 0 1 0 0-3.5Z" class="cls-4"/><path d="M54.4 25h-38a4.75 4.75 0 1 1 0-9.5h38a4.75 4.75 0 1 1 0 9.5Zm-38-8a3.25 3.25 0 0 0 0 6.5h38a3.25 3.25 0 1 0 0-6.5Zm38 21h-38a4.75 4.75 0 1 1 0-9.5h38a4.75 4.75 0 1 1 0 9.5Zm-38-8a3.25 3.25 0 1 0 0 6.5h38a3.25 3.25 0 1 0 0-6.5Z" class="cls-4"/><path d="M59.4 17h-50a1.76 1.76 0 0 1-1.75-1.75A13.77 13.77 0 0 1 21.4 1.5h26a13.77 13.77 0 0 1 13.75 13.75A1.75 1.75 0 0 1 59.4 17Zm-38-14A12.26 12.26 0 0 0 9.15 15.25a.25.25 0 0 0 .25.25h50a.25.25 0 0 0 .25-.25A12.26 12.26 0 0 0 47.4 3Z" class="cls-4"/><path d="m23.69 24.25 8.37 10 18.63-10h-27zm-6 13 7.12 8.84 15.84-8.84H17.69z" class="cls-2"/><path d="m38.69 24.25-6.63 10 18.63-10h-12zm-8 13-5.88 8.84 15.84-8.84h-9.96z" class="cls-3"/><path d="M32.06 35a.72.72 0 0 1-.57-.27l-8.38-10a.77.77 0 0 1-.1-.8.75.75 0 0 1 .68-.43h27a.76.76 0 0 1 .73.57.75.75 0 0 1-.38.84l-18.62 10a.77.77 0 0 1-.36.09Zm-6.77-10 7 8.3L47.71 25Zm-.48 21.84a.74.74 0 0 1-.58-.28l-7.13-8.84a.75.75 0 0 1-.09-.79.76.76 0 0 1 .68-.43h23a.75.75 0 0 1 .73.56.77.77 0 0 1-.36.85l-15.88 8.83a.71.71 0 0 1-.37.1ZM19.26 38 25 45.13 37.77 38ZM44 21.75a5 5 0 0 1-3-.89c-1.17-.84-3-.81-5.29.1C32.87 22 30.55 22 29 20.86c-1.17-.84-2.95-.81-5.29.1C20.87 22 18.55 22 17 20.86a.75.75 0 1 1 .88-1.21c1.46 1.06 3.68.53 5.29-.09 2.85-1.11 5.1-1.08 6.71.09s3.68.53 5.29-.09c2.85-1.11 5.1-1.08 6.71.09 1.46 1.06 3.68.53 5.29-.09 2.85-1.11 5.11-1.08 6.71.09a.75.75 0 1 1-.88 1.21c-1.17-.84-3-.81-5.29.1a10.59 10.59 0 0 1-3.71.79Z" class="cls-4"/><circle cx="22.94" cy="9.84" r="1" class="cls-4"/><circle cx="16" cy="7.65" r="1" class="cls-4"/><circle cx="18.69" cy="13.09" r="1" class="cls-4"/><circle cx="28.75" cy="6.65" r="1" class="cls-4"/><circle cx="33.75" cy="11.53" r="1" class="cls-4"/><circle cx="39.4" cy="8.25" r="1" class="cls-4"/><circle cx="45.15" cy="13.09" r="1" class="cls-4"/><circle cx="49.28" cy="6.25" r="1" class="cls-4"/><circle cx="52.22" cy="10.84" r="1" class="cls-4"/><path d="M13.4 54.28a.74.74 0 0 1-.53-.22.75.75 0 0 1 0-1.06l4.28-4.28a.75.75 0 0 1 1.06 1.06l-4.28 4.28a.74.74 0 0 1-.53.22Zm7 0a.74.74 0 0 1-.53-.22.75.75 0 0 1 0-1.06l4.28-4.28a.75.75 0 0 1 1.06 1.06l-4.28 4.28a.74.74 0 0 1-.53.22Zm7 0a.74.74 0 0 1-.53-.22.75.75 0 0 1 0-1.06l4.28-4.28a.75.75 0 0 1 1.06 1.06l-4.28 4.28a.73.73 0 0 1-.53.22Zm7 0a.74.74 0 0 1-.53-.22.75.75 0 0 1 0-1.06l4.28-4.28a.75.75 0 0 1 1.06 1.06l-4.28 4.28a.73.73 0 0 1-.53.22ZM17.39 66a.76.76 0 0 1-.75-.75v-4a.75.75 0 0 1 1.5 0v4a.75.75 0 0 1-.75.75Z" class="cls-4"/><path d="M19.39 64h-4a.75.75 0 0 1 0-1.5h4a.75.75 0 0 1 0 1.5Z" class="cls-4"/><circle cx="23.39" cy="63.25" r=".75" class="cls-4"/><circle cx="26.39" cy="63.25" r=".75" class="cls-4"/><circle cx="31.39" cy="63.25" r=".75" class="cls-4"/><circle cx="37.4" cy="63.25" r=".75" class="cls-4"/><path d="M67.4 30h-4a.75.75 0 0 1 0-1.5h4a.75.75 0 0 1 0 1.5Z" class="cls-4"/><path d="M65.4 32a.76.76 0 0 1-.75-.75v-4a.75.75 0 0 1 1.5 0v4a.75.75 0 0 1-.75.75Z" class="cls-4"/><circle cx="65.4" cy="23.25" r=".75" class="cls-4"/><circle cx="65.4" cy="20.25" r=".75" class="cls-4"/><circle cx="65.4" cy="15.25" r=".75" class="cls-4"/><circle cx="65.4" cy="9.25" r=".75" class="cls-4"/><circle cx="56.4" cy="50.25" r="16" class="cls-2"/><path d="M56.4 34.25a16 16 0 0 0-5.5 1 16 16 0 0 1 0 30 16 16 0 1 0 5.5-31Z" class="cls-3"/><path d="M56.4 67a16.75 16.75 0 1 1 16.75-16.75A16.77 16.77 0 0 1 56.4 67Zm0-32a15.25 15.25 0 1 0 15.25 15.25A15.27 15.27 0 0 0 56.4 35Z" class="cls-4"/><path d="M56.4 39.25a10.9 10.9 0 0 1 5.8 1.67L47.07 56.05a11 11 0 0 1 9.33-16.8Zm0 22a11 11 0 0 1-5.8-1.66l15.14-15.14a11 11 0 0 1-9.34 16.8Z" class="cls-2"/><path d="M47.07 56.8H47a.74.74 0 0 1-.55-.34A11.74 11.74 0 0 1 62.6 40.28a.77.77 0 0 1 .35.55.75.75 0 0 1-.22.62L47.6 56.58a.75.75 0 0 1-.53.22ZM56.4 40a10.23 10.23 0 0 0-9.16 14.82L61 41.09A10.08 10.08 0 0 0 56.4 40Zm0 22a11.74 11.74 0 0 1-6.19-1.78.75.75 0 0 1-.13-1.17l15.13-15.13a.73.73 0 0 1 .62-.21.76.76 0 0 1 .55.34 11.75 11.75 0 0 1-10 18Zm-4.56-2.58a10.24 10.24 0 0 0 13.73-13.74Z" class="cls-4"/></g></g></svg>