<svg xmlns="http://www.w3.org/2000/svg" viewBox="0 0 80 78.47"><defs><style>.cls-1{fill:#e8ebec}.cls-2{fill:#97d3db}.cls-3{fill:#fff}.cls-4{fill:#8dc74a}</style></defs><g id="Capa_2" data-name="Capa 2"><g id="layer_1" data-name="layer 1"><circle cx="49.65" cy="64.47" r="14" class="cls-1"/><circle cx="12" cy="31.46" r="12" class="cls-1"/><circle cx="60" cy="20" r="20" class="cls-1"/><rect width="64" height="64" x="9.31" y="6.42" class="cls-2" rx="20"/><rect width="55" height="54" x="9.31" y="16.42" class="cls-3" rx="20"/><path d="M53.31 71.17h-24A20.77 20.77 0 0 1 8.56 50.42v-24A20.78 20.78 0 0 1 29.31 5.67h24a20.78 20.78 0 0 1 20.75 20.75v24a20.77 20.77 0 0 1-20.75 20.75Zm-24-64a19.28 19.28 0 0 0-19.25 19.25v24a19.27 19.27 0 0 0 19.25 19.25h24a19.26 19.26 0 0 0 19.25-19.25v-24A19.27 19.27 0 0 0 53.31 7.17Z" class="cls-4"/><path d="M22.22 35.26c0 11.6 6.56 21 19 21s19-9.4 19-21-6.56-20.84-19-20.84-19 9.24-19 20.84Z" class="cls-3"/><path d="M39.22 19.42c12.44 0 19 9.24 19 20.84a27.57 27.57 0 0 1-.9 7 24.58 24.58 0 0 0 2.9-12c0-11.6-6.56-20.84-19-20.84-9.82 0-16 5.77-18.12 13.9 3.05-5.39 8.46-8.9 16.12-8.9Z" class="cls-2"/><path d="M41.22 57c-12 0-19.75-8.54-19.75-21.75s7.75-21.59 19.75-21.59S61 22.15 61 35.26 53.22 57 41.22 57Zm0-41.84C30.13 15.17 23 23.06 23 35.26s7.16 20.25 18.25 20.25S59.5 47.56 59.5 35.26s-7.19-20.09-18.28-20.09Z" class="cls-4"/><path d="m56.92 50.61-5-.87a5.48 5.48 0 0 1-1.27-.38H31.78a5.26 5.26 0 0 1-1.26.38l-5 .87a10 10 0 0 0-8.3 9.85v5.87a19.87 19.87 0 0 0 12.09 4.09h24a19.92 19.92 0 0 0 11.91-4v-6a10 10 0 0 0-8.3-9.81Z" class="cls-3"/><path d="M65.22 60.46a10 10 0 0 0-8.3-9.85l-5-.87a5.48 5.48 0 0 1-1.27-.38H31.78a5.26 5.26 0 0 1-1.26.38l-5 .87a10 10 0 0 0-8 7.25c6.61-2.66 16.84-4.09 29.66-4.09 13 0 14 4.19 14 15a20.61 20.61 0 0 0 4-2.31Z" class="cls-2"/><path d="M53.31 71.17h-24a20.46 20.46 0 0 1-12.54-4.25.73.73 0 0 1-.3-.59v-5.87a10.72 10.72 0 0 1 8.92-10.59l5-.87a4.16 4.16 0 0 0 1.09-.33.8.8 0 0 1 .3-.06h18.87a.81.81 0 0 1 .31.06 4.16 4.16 0 0 0 1.09.33l5 .87A10.72 10.72 0 0 1 66 60.46v6a.75.75 0 0 1-.3.6 20.63 20.63 0 0 1-12.39 4.11ZM18 66a19 19 0 0 0 11.34 3.72h24a19.14 19.14 0 0 0 11.16-3.58v-5.68a9.24 9.24 0 0 0-7.68-9.12l-5-.86a6.35 6.35 0 0 1-1.29-.37H31.94a6.44 6.44 0 0 1-1.3.37l-5 .86A9.24 9.24 0 0 0 18 60.46Zm47.25.52Z" class="cls-4"/><path d="m35.46 43.11-.67 2.67a5.34 5.34 0 0 1-3 3.58l9.44 11.26 9.43-11.26a5.35 5.35 0 0 1-3-3.58L47 43.11Z" class="cls-3"/><path d="m47.41 53.23 3.24-3.87a5.35 5.35 0 0 1-3-3.58L47 43.11h-4.44l1.55 6.08a6.14 6.14 0 0 0 3.3 4.04Z" class="cls-2"/><path d="M41.22 61.37a.74.74 0 0 1-.57-.27l-9.44-11.26a.76.76 0 0 1-.16-.65.77.77 0 0 1 .43-.52 4.58 4.58 0 0 0 2.59-3.07l.67-2.67a.75.75 0 0 1 .72-.57H47a.75.75 0 0 1 .73.57l.67 2.67a4.58 4.58 0 0 0 2.6 3.07.8.8 0 0 1 .43.52.76.76 0 0 1-.16.65L41.8 61.1a.75.75 0 0 1-.58.27ZM33 49.58l8.27 9.87 8.27-9.87A6.11 6.11 0 0 1 46.92 46l-.53-2.1H36.05l-.53 2.1A6.11 6.11 0 0 1 33 49.58Z" class="cls-4"/><path d="M52.84 31c0 8.08-5.2 15.63-11.62 15.63S29.59 39 29.59 31s11.63-3.9 11.63-3.9 11.62-4.22 11.62 3.9Z" class="cls-3"/><path d="M45.05 26.17c2.1.41 3.79 1.71 3.79 4.79 0 7.22-4.16 14-9.62 15.37a8.37 8.37 0 0 0 2 .26c6.42 0 11.62-7.59 11.62-15.59 0-5-4.4-5.33-7.79-4.83Z" class="cls-2"/><path d="M41.22 47.34c-6.59 0-12.38-7.65-12.38-16.38a5.24 5.24 0 0 1 2.09-4.59c3.19-2.24 9-.5 10.29-.07 1.3-.43 7.1-2.17 10.29.07A5.24 5.24 0 0 1 53.59 31c0 8.69-5.78 16.34-12.37 16.34Zm-6-20.6a6 6 0 0 0-3.42.86 3.79 3.79 0 0 0-1.46 3.4c0 7.93 5.09 14.88 10.88 14.88s10.87-7 10.87-14.88a3.78 3.78 0 0 0-1.44-3.36c-2.9-2-9.11.18-9.17.2a.77.77 0 0 1-.52 0 20 20 0 0 0-5.75-1.1Zm20 44.34a.76.76 0 0 1-.75-.75v-8a.75.75 0 0 1 1.5 0v8a.76.76 0 0 1-.75.75Zm-28-.02a.74.74 0 0 1-.75-.75v-7.94a.75.75 0 0 1 1.5 0v7.94a.75.75 0 0 1-.75.75Z" class="cls-4"/><path d="m31.79 49.35-2.36 6.51 11.8 4.76-9.44-11.27z" class="cls-2"/><path d="m31.79 49.35-2.36 6.51 5.53 2.23-3.17-8.74z" class="cls-3"/><path d="M41.22 61.37a1 1 0 0 1-.28 0l-11.79-4.82a.75.75 0 0 1-.42-.95l2.35-6.5a.75.75 0 0 1 1.28-.22l9.44 11.26a.75.75 0 0 1 0 .92.74.74 0 0 1-.58.31Zm-10.84-5.94 8.34 3.37-6.67-8Z" class="cls-4"/><path d="m50.75 49.35 2.36 6.51-11.8 4.76 9.44-11.27z" class="cls-2"/><path d="m50.75 49.35-1.23 7.96-8.21 3.31 9.44-11.27z" class="cls-3"/><path d="M41.31 61.37a.75.75 0 0 1-.57-1.23l9.44-11.26a.73.73 0 0 1 .7-.26.74.74 0 0 1 .58.48l2.35 6.5a.75.75 0 0 1-.42.95l-11.8 4.77a.87.87 0 0 1-.28.05Zm9.18-10.53-6.67 8 8.34-3.37Z" class="cls-4"/><path d="M41.31 71.06a.75.75 0 0 1-.75-.75v-9.69a.75.75 0 0 1 1.5 0v9.69a.74.74 0 0 1-.75.75ZM14.78 47.34H13.4a.75.75 0 1 1 0-1.5h1.38a.75.75 0 1 1 0 1.5Zm4.62 0H18a.75.75 0 0 1 0-1.5h1.4a.75.75 0 1 1 0 1.5Zm-3 3a.74.74 0 0 1-.75-.75v-1.38a.75.75 0 1 1 1.5 0v1.38a.75.75 0 0 1-.75.75Zm0-4.61a.75.75 0 0 1-.75-.75v-1.39a.75.75 0 1 1 1.5 0V45a.76.76 0 0 1-.75.73Zm3-27.56H18a.75.75 0 0 1 0-1.5h1.4a.75.75 0 0 1 0 1.5Zm4.6 0h-1.37a.75.75 0 1 1 0-1.5H24a.75.75 0 1 1 0 1.5Zm-3 3a.75.75 0 0 1-.75-.75V19a.75.75 0 0 1 1.5 0v1.38a.74.74 0 0 1-.75.79Zm0-4.61a.76.76 0 0 1-.75-.75v-1.39a.75.75 0 1 1 1.5 0v1.39a.75.75 0 0 1-.75.75Zm44.49 19h-1.38a.75.75 0 0 1 0-1.5h1.38a.75.75 0 0 1 0 1.5Zm4.62 0h-1.39a.75.75 0 0 1 0-1.5h1.39a.75.75 0 0 1 0 1.5Zm-3 3a.74.74 0 0 1-.75-.75v-1.38a.75.75 0 1 1 1.5 0v1.38a.75.75 0 0 1-.75.75Zm0-4.56a.75.75 0 0 1-.75-.75v-1.44a.75.75 0 0 1 1.5 0v1.39a.76.76 0 0 1-.75.8Z" class="cls-4"/></g></g></svg>