<svg xmlns="http://www.w3.org/2000/svg" viewBox="0 0 74.23 66.27"><defs><style>.cls-1{fill:#e8ebec}.cls-2{fill:#fff}.cls-3{fill:#97d3db}.cls-4{fill:#8dc74a}</style></defs><g id="Capa_2" data-name="Capa 2"><g id="layer_1" data-name="layer 1"><circle cx="60.23" cy="50.31" r="14" class="cls-1"/><circle cx="56.21" cy="12" r="12" class="cls-1"/><circle cx="20" cy="41.77" r="20" class="cls-1"/><circle cx="41.39" cy="33.52" r="32" class="cls-2"/><path d="M62.68 9.64A32 32 0 0 1 12.09 46.4 32 32 0 1 0 62.68 9.64Z" class="cls-3"/><path d="M46.45 55A20.12 20.12 0 0 0 61 51.7a3 3 0 0 0 1.35-2.19A36.06 36.06 0 0 0 55 23.75 23.59 23.59 0 0 1 50.76 12c-.55-6.12-8-5.5-11.16-5.5-3.45 0-11 1.54-11 8.33 0 4.42.66 4.58 8.66 4.08 3.34-.21 5.31-1.33 6.47-2.57a20.46 20.46 0 0 1 .62 14 17.1 17.1 0 0 0-.45 9.42s-9.14-11.83-24.35-1.29a26 26 0 0 0-10.08-2.74 31.86 31.86 0 0 0 7.67 18.65 34 34 0 0 0 29.31.62Z" class="cls-2"/><path d="M55 23.75A23.59 23.59 0 0 1 50.76 12c-.38-4.22-4-5.24-7.32-5.46A6.15 6.15 0 0 1 43.76 8 23.59 23.59 0 0 0 48 19.75a36.11 36.11 0 0 1 7.32 25.76A3 3 0 0 1 54 47.7 20.06 20.06 0 0 1 39.45 51a33.52 33.52 0 0 1-23.73 1.6c.46.61.92 1.21 1.42 1.78a34 34 0 0 0 29.31.62A20.12 20.12 0 0 0 61 51.7a3 3 0 0 0 1.35-2.19A36.06 36.06 0 0 0 55 23.75Z" class="cls-3"/><path d="M41.39 66.27a32.75 32.75 0 1 1 32.75-32.75 32.79 32.79 0 0 1-32.75 32.75Zm0-64a31.25 31.25 0 1 0 31.25 31.25A31.29 31.29 0 0 0 41.39 2.27Z" class="cls-4"/><path d="M67.52 44.35a.86.86 0 0 1-.27-.05.75.75 0 0 1-.43-1 27.09 27.09 0 0 0 1.82-9.81v-.79a.75.75 0 1 1 1.5 0v.83a28.7 28.7 0 0 1-1.92 10.35.75.75 0 0 1-.7.47ZM69.07 30a.74.74 0 0 1-.74-.64c-.1-.66-.23-1.33-.38-2a.75.75 0 0 1 1.46-.34c.16.68.29 1.39.4 2.09a.75.75 0 0 1-.63.85ZM46.45 55.76h-.11a17.85 17.85 0 0 1-5-1.46.75.75 0 1 1 .73-1.3 17.09 17.09 0 0 0 4.5 1.3.76.76 0 0 1-.12 1.5Zm-1.13-11.39a.75.75 0 0 1-.65-.37 16.31 16.31 0 0 1-1.51-4.12.75.75 0 0 1 1.47-.34A14.85 14.85 0 0 0 46 43.25a.75.75 0 0 1-.28 1 .69.69 0 0 1-.4.12Zm-28.88-2.74a.74.74 0 0 1-.57-.27.76.76 0 0 1 .13-1.06c1.06-.9 2.13-1.73 3.18-2.46a.75.75 0 0 1 .82 1.24 36.67 36.67 0 0 0-3.06 2.37.78.78 0 0 1-.5.18Z" class="cls-4"/><path d="M32.68 58.78A35.19 35.19 0 0 1 16.76 55a.7.7 0 0 1-.19-.16 32.4 32.4 0 0 1-7.84-19.06.72.72 0 0 1 .21-.58.7.7 0 0 1 .58-.2 26.82 26.82 0 0 1 10 2.61c11.63-7.84 19.89-2.94 23.28 0a17.68 17.68 0 0 1 .85-7.52 19.78 19.78 0 0 0-.21-12.46 10.83 10.83 0 0 1-6.12 2c-5.05.32-7.22.33-8.44-.81-.95-.89-1-2.35-1-4 0-7.45 9.2-9.08 12.75-9.08h.78c3.34 0 9.56-.14 10.13 6.19a23.12 23.12 0 0 0 4.06 11.35 36.63 36.63 0 0 1 7.48 26.32 3.78 3.78 0 0 1-1.68 2.72 20.84 20.84 0 0 1-14.84 3.46 33.41 33.41 0 0 1-13.88 3Zm-15.06-5c1.3.7 14.16 7.16 28.52.53a.78.78 0 0 1 .43-.06 19.36 19.36 0 0 0 14-3.18 2.3 2.3 0 0 0 1-1.65A35.09 35.09 0 0 0 54.4 24.2 24.19 24.19 0 0 1 50 12c-.4-4.54-4.47-4.86-8.6-4.8h-.8c-3.13 0-11.25 1.36-11.25 7.58 0 1.56.09 2.49.55 2.93.8.75 3.42.65 7.32.41a8.7 8.7 0 0 0 5.94-2.31v-.05a.76.76 0 0 1 .87-.14.78.78 0 0 1 .36.38 21 21 0 0 1 .63 14.52 16.41 16.41 0 0 0-.43 9 .77.77 0 0 1-.41.86.74.74 0 0 1-.91-.2c-.27-.43-8.86-11.1-23.27-1.1a.77.77 0 0 1-.79 0 25.3 25.3 0 0 0-8.91-2.58 30.86 30.86 0 0 0 7.32 17.29Z" class="cls-4"/><path d="M31.35 48.66a29 29 0 0 1-12.1-2.6.75.75 0 0 1 .62-1.37 29 29 0 0 0 20.62 1 .75.75 0 1 1 .51 1.38 28.56 28.56 0 0 1-9.65 1.59ZM56.91 16.5h-1.39a.75.75 0 0 1 0-1.5h1.39a.75.75 0 0 1 0 1.5Zm4.61 0h-1.38a.75.75 0 0 1 0-1.5h1.38a.75.75 0 1 1 0 1.5Zm-3 3a.76.76 0 0 1-.75-.75v-1.38a.75.75 0 1 1 1.5 0v1.38a.75.75 0 0 1-.75.75Zm0-4.62a.75.75 0 0 1-.75-.75v-1.38a.75.75 0 0 1 1.5 0v1.38a.74.74 0 0 1-.75.75ZM30 28h-1.35a.75.75 0 0 1 0-1.5H30a.75.75 0 0 1 0 1.5Zm4.65 0h-1.39a.75.75 0 0 1 0-1.5h1.39a.75.75 0 0 1 0 1.5Zm-3 3a.74.74 0 0 1-.75-.75v-1.38a.75.75 0 1 1 1.5 0v1.38a.75.75 0 0 1-.75.75Zm0-4.61a.75.75 0 0 1-.75-.75v-1.39a.75.75 0 0 1 1.5 0v1.39a.76.76 0 0 1-.75.75ZM18.38 23.5H17a.75.75 0 0 1 0-1.5h1.38a.75.75 0 0 1 0 1.5Zm4.62 0h-1.38a.75.75 0 0 1 0-1.5H23a.75.75 0 0 1 0 1.5Zm-3 3a.76.76 0 0 1-.75-.75v-1.38a.75.75 0 0 1 1.5 0v1.38a.76.76 0 0 1-.75.75Zm0-4.62a.75.75 0 0 1-.75-.75v-1.38a.75.75 0 0 1 1.5 0v1.38a.75.75 0 0 1-.75.75Z" class="cls-4"/></g></g></svg>