<svg xmlns="http://www.w3.org/2000/svg" xmlns:xlink="http://www.w3.org/1999/xlink" viewBox="0 0 3508.55 2144.51"><defs><linearGradient xlink:href="#Безымянный_градиент_26" id="Безымянный_градиент_26-8" x1="1841.02" x2="2097.4" y1="184.15" y2="-111.98" gradientTransform="scale(1 -1) rotate(67 3839.72 -189.77)"/><linearGradient xlink:href="#Безымянный_градиент_26" id="Безымянный_градиент_26-2" x1="5008.37" x2="5122.39" y1="2093.28" y2="1961.58"/><linearGradient id="Безымянный_градиент_14" x1="4881.95" x2="5040.83" y1="784.41" y2="329.84" gradientTransform="matrix(-.84 .55 .55 .84 4305.61 -1420.01)" gradientUnits="userSpaceOnUse"><stop offset="0"/><stop offset=".51" stop-color="#fff"/><stop offset="1" stop-color="#fff"/></linearGradient><linearGradient xlink:href="#Безымянный_градиент_3" id="Безымянный_градиент_3-5" x1="2431.13" x2="2600.64" y1="855.49" y2="855.49" gradientTransform="matrix(-1 0 0 1 4443.21 0)"/><linearGradient xlink:href="#Безымянный_градиент_3" id="Безымянный_градиент_3-4" x1="2640.17" x2="2874.6" y1="1286.97" y2="1274.95" gradientTransform="matrix(-1 0 0 1 4443.21 0)"/><linearGradient xlink:href="#Безымянный_градиент_14" id="Безымянный_градиент_5" x1="5008.37" x2="5122.39" y1="2093.28" y2="1961.58" gradientTransform="scale(-1 1) rotate(-37.7 652.439 9331.183)"/><linearGradient xlink:href="#Безымянный_градиент_3" id="Безымянный_градиент_3-3" x1="2586.17" x2="1810.75" y1="1287.06" y2="1241.98" gradientTransform="matrix(-1 0 0 1 4443.21 0)"/><linearGradient xlink:href="#Безымянный_градиент_3" id="Безымянный_градиент_3-2" x1="2144.86" x2="2295.13" y1="992.26" y2="1004.28" gradientTransform="matrix(-1 0 0 1 4443.21 0)"/><linearGradient xlink:href="#Безымянный_градиент_14" id="Безымянный_градиент_5-2" x1="4841.59" x2="5075.47" y1="2072.16" y2="2072.16" gradientTransform="scale(-1 1) rotate(-37.7 652.439 9331.183)"/><linearGradient id="Безымянный_градиент_7" x1="2214.83" x2="2716.76" y1="317.23" y2="317.23" gradientUnits="userSpaceOnUse"><stop offset="0" stop-color="#fff0e2"/><stop offset="1" stop-color="#97d3db"/></linearGradient><linearGradient xlink:href="#Безымянный_градиент_8" id="Безымянный_градиент_8-5" x1="728.81" x2="1004.81" y1="-19" y2="184.37"/><linearGradient xlink:href="#Безымянный_градиент_14" id="Безымянный_градиент_5-3" x1="4724.41" x2="4967.23" y1="2155.2" y2="2155.2" gradientTransform="scale(-1 1) rotate(-37.7 652.439 9331.183)"/><linearGradient xlink:href="#Безымянный_градиент_9" id="Безымянный_градиент_9-3" x1="1130.39" x2="1093.85" y1="2096.7" y2="2096.8"/><linearGradient xlink:href="#Безымянный_градиент_9" id="Безымянный_градиент_9-2" x1="1306.97" x2="1183.67" y1="2096.58" y2="2096.92"/><linearGradient xlink:href="#Безымянный_градиент_14" id="Безымянный_градиент_5-4" x1="5096.55" x2="5689.93" y1="1348.45" y2="1348.45" gradientTransform="matrix(-1 .09 .09 1 5750.42 -311.86)"/><linearGradient id="Безымянный_градиент_9" x1="1482.76" x2="1359.47" y1="2096.58" y2="2096.92" gradientUnits="userSpaceOnUse"><stop offset="0" stop-color="#8dc74a"/><stop offset="1" stop-color="#8dc74a"/></linearGradient><linearGradient xlink:href="#Безымянный_градиент_8" id="Безымянный_градиент_8-4" x1="112.41" x2="625.27" y1="1242.37" y2="1242.37" gradientTransform="matrix(1 0 .54 1 -52.48 0)"/><linearGradient xlink:href="#Безымянный_градиент_14" id="Безымянный_градиент_5-5" x1="5205.81" x2="5299.68" y1="1580.56" y2="1568.83" gradientTransform="matrix(-1 .09 .09 1 5750.42 -311.86)"/><linearGradient xlink:href="#Безымянный_градиент_8" id="Безымянный_градиент_8-3" x1="727.68" x2="1406.87" y1="1082.82" y2="1329.49"/><linearGradient xlink:href="#Безымянный_градиент_8" id="Безымянный_градиент_8-2" x1="648.12" x2="2329.86" y1="745.88" y2="745.88"/><linearGradient xlink:href="#Безымянный_градиент_14" id="Безымянный_градиент_14-2" x1="5231.56" x2="5413.37" y1="447.59" y2="-72.59" gradientTransform="matrix(-.99 .16 .16 .99 5725.47 -436.16)"/><linearGradient id="Безымянный_градиент_8" x1="784.03" x2="2257.82" y1="1413.1" y2="1413.1" gradientTransform="matrix(1 0 .27 1 -232.53 0)" gradientUnits="userSpaceOnUse"><stop offset=".01" stop-color="#e6f3d7"/><stop offset="1" stop-color="#d0e8b5"/></linearGradient><linearGradient id="Безымянный_градиент_3" x1="648.4" x2="2329.68" y1="1334.03" y2="1334.03" gradientTransform="matrix(1 0 .27 1 -232.53 0)" gradientUnits="userSpaceOnUse"><stop offset="0" stop-color="#fff"/><stop offset="1" stop-color="#ecf5e0"/></linearGradient><linearGradient xlink:href="#Безымянный_градиент_14" id="Безымянный_градиент_5-6" x1="5233.94" x2="5378.45" y1="1437.71" y2="1405.27" gradientTransform="matrix(-1 .09 .09 1 5750.42 -311.86)"/><linearGradient id="Безымянный_градиент_10" x1="2025.32" x2="1201" y1="2314.45" y2="546.24" gradientTransform="matrix(1 0 .27 1 -232.53 0)" gradientUnits="userSpaceOnUse"><stop offset="0" stop-color="#b1d984"/><stop offset="1" stop-color="#b0d882"/></linearGradient><linearGradient xlink:href="#Безымянный_градиент_11" id="Безымянный_градиент_11-2" x1="2104.03" x2="1219.24" y1="2389.62" y2="491.69"/><linearGradient id="Безымянный_градиент_2" x1="3889.76" x2="3751.53" y1="-1906.16" y2="-2112.14" gradientTransform="scale(-1 1) rotate(79.6 51.617 -2853.643)" gradientUnits="userSpaceOnUse"><stop offset="0"/><stop offset=".42" stop-color="#fff"/><stop offset="1" stop-color="#fff"/></linearGradient><linearGradient id="Безымянный_градиент_11" x1="3558.4" x2="1635.63" y1="1362.76" y2="1368.06" gradientTransform="matrix(1 0 .27 1 -232.53 0)" gradientUnits="userSpaceOnUse"><stop offset="0" stop-color="#98cd5c"/><stop offset="1" stop-color="#a3d26c"/></linearGradient><linearGradient xlink:href="#Безымянный_градиент_19" id="Безымянный_градиент_19-6" x1="2483.3" x2="2390.07" y1="829.06" y2="690.12" gradientTransform="scale(-1 1) rotate(-49.5 212.662 6848.898)"/><linearGradient xlink:href="#Безымянный_градиент_2" id="Безымянный_градиент_2-2" x1="5518.63" x2="5386.3" y1="-112.5" y2="-309.7" gradientTransform="matrix(-.89 .47 .47 .89 5165.93 -1310.56)"/><linearGradient xlink:href="#Безымянный_градиент_20" id="Безымянный_градиент_20-16" x1="3004.03" x2="3095.28" y1="1317.16" y2="1227.89" gradientTransform="matrix(1 -.08 .08 1 -263.42 334.85)"/><linearGradient xlink:href="#Безымянный_градиент_20" id="Безымянный_градиент_20-15" x1="2959" x2="3064.53" y1="1350.77" y2="1320.33" gradientTransform="matrix(1 -.08 .08 1 -263.42 334.85)"/><linearGradient xlink:href="#Безымянный_градиент_2" id="Безымянный_градиент_2-3" x1="1173.75" x2="1041.85" y1="-1338.47" y2="-1535.02" gradientTransform="rotate(-59.62 2871.154 687.672)"/><linearGradient xlink:href="#Безымянный_градиент_20" id="Безымянный_градиент_20-14" x1="2928.21" x2="3074.83" y1="1434.59" y2="1418.3" gradientTransform="matrix(1 -.08 .08 1 -263.42 334.85)"/><linearGradient xlink:href="#Безымянный_градиент_20" id="Безымянный_градиент_20-13" x1="2232.64" x2="2128.59" y1="1140.37" y2="985.32" gradientTransform="scale(-1 1) rotate(-58 184.741 5849.732)"/><linearGradient xlink:href="#Безымянный_градиент_14" id="Безымянный_градиент_14-3" x1="2634.1" x2="2896.09" y1="840.2" y2="50.64" gradientTransform="rotate(9.9 2902.437 571.054)"/><linearGradient xlink:href="#Безымянный_градиент_20" id="Безымянный_градиент_20-12" x1="2220.45" x2="2116.59" y1="1367.89" y2="1213.11" gradientTransform="scale(-1 1) rotate(-49.5 176.37 6883.156)"/><linearGradient xlink:href="#Безымянный_градиент_19" id="Безымянный_градиент_19-5" x1="3249.62" x2="3151.35" y1="1033.47" y2="887.03" gradientTransform="matrix(.95 .3 -.3 .95 139.35 -750.05)"/><linearGradient xlink:href="#Безымянный_градиент_14" id="Безымянный_градиент_14-4" x1="2637" x2="2898.99" y1="841.16" y2="51.61" gradientTransform="rotate(89 2689.219 682.409)"/><linearGradient xlink:href="#Безымянный_градиент_19" id="Безымянный_градиент_19-4" x1="3399.46" x2="3298.62" y1="605.57" y2="455.3" gradientTransform="rotate(69.62 2762.3 562.604)"/><linearGradient xlink:href="#Безымянный_градиент_20" id="Безымянный_градиент_20-11" x1="2965.1" x2="3012.11" y1="1294.12" y2="1160.62" gradientTransform="matrix(1 -.08 .08 1 -263.42 334.85)"/><linearGradient xlink:href="#Безымянный_градиент_14" id="Безымянный_градиент_14-5" x1="668.03" x2="799.64" y1="148.5" y2="-228.05" gradientTransform="scale(-1 1) rotate(-73.7 -.782 3197.862)"/><linearGradient xlink:href="#Безымянный_градиент_20" id="Безымянный_градиент_20-10" x1="2972.53" x2="2926.77" y1="1335.36" y2="1220.98" gradientTransform="matrix(1 -.08 .08 1 -263.42 334.85)"/><linearGradient xlink:href="#Безымянный_градиент_20" id="Безымянный_градиент_20-9" x1="2936.55" x2="2809.77" y1="1400.11" y2="1305.03" gradientTransform="matrix(1 -.08 .08 1 -263.42 334.85)"/><linearGradient xlink:href="#Безымянный_градиент_14" id="Безымянный_градиент_14-6" x1="2698.26" x2="3010.49" y1="1131.94" y2="884.31"/><linearGradient xlink:href="#Безымянный_градиент_26" id="Безымянный_градиент_26-14" x1="2813.6" x2="2914.82" y1="1505.73" y2="1483.01" gradientTransform="matrix(1 -.08 .08 1 -263.42 334.85)"/><linearGradient xlink:href="#Безымянный_градиент_26" id="Безымянный_градиент_26-13" x1="2793.02" x2="2858.92" y1="1613.05" y2="1604.81" gradientTransform="matrix(1 -.08 .08 1 -263.42 334.85)"/><linearGradient id="Безымянный_градиент_13" x1="4127.65" x2="3876.5" y1="894.38" y2="689.75" gradientTransform="rotate(88.33 2912.192 742.463)" gradientUnits="userSpaceOnUse"><stop offset="0"/><stop offset=".51" stop-color="#fff"/><stop offset=".78" stop-color="#fff"/><stop offset="1" stop-color="#fff"/></linearGradient><linearGradient xlink:href="#Безымянный_градиент_26" id="Безымянный_градиент_26-12" x1="2715.02" x2="3137.51" y1="1439.67" y2="1439.67" gradientTransform="matrix(1 -.08 .08 1 -263.42 334.85)"/><linearGradient xlink:href="#Безымянный_градиент_26" id="Безымянный_градиент_26-11" x1="1867.92" x2="2011.72" y1="83.89" y2="83.89" gradientTransform="scale(1 -1) rotate(67 3839.72 -189.77)"/><linearGradient xlink:href="#Безымянный_градиент_14" id="Безымянный_градиент_5-7" x1="1841.02" x2="2097.4" y1="184.15" y2="-111.98" gradientTransform="scale(1 -1) rotate(67 3839.72 -189.77)"/><linearGradient xlink:href="#Безымянный_градиент_26" id="Безымянный_градиент_26-10" x1="1937.25" x2="2079.79" y1="18.94" y2="18.94" gradientTransform="scale(1 -1) rotate(67 3839.72 -189.77)"/><linearGradient xlink:href="#Безымянный_градиент_26" id="Безымянный_градиент_26-9" x1="2035.74" x2="2121.79" y1="27.54" y2="-71.85" gradientTransform="scale(1 -1) rotate(67 3839.72 -189.77)"/><linearGradient xlink:href="#Безымянный_градиент_14" id="Безымянный_градиент_14-7" x1="4515.29" x2="4630.21" y1="1171.45" y2="842.64" gradientTransform="matrix(-.89 -.45 -.45 .89 5388.7 1685.72)"/><linearGradient id="Безымянный_градиент_4" x1="2604.5" x2="2796.05" y1="855.28" y2="855.28" gradientTransform="matrix(-1 0 0 1 4443.21 0)" gradientUnits="userSpaceOnUse"><stop offset="0" stop-color="#ecf5e0"/><stop offset="1" stop-color="#fff"/></linearGradient><linearGradient xlink:href="#Безымянный_градиент_28" id="Безымянный_градиент_28-2" x1="4127.65" x2="3876.5" y1="894.38" y2="689.75" gradientTransform="rotate(88.33 2912.192 742.463)"/><linearGradient xlink:href="#Безымянный_градиент_14" id="Безымянный_градиент_5-8" x1="2035.74" x2="2121.79" y1="27.54" y2="-71.85" gradientTransform="scale(1 -1) rotate(67 3839.72 -189.77)"/><linearGradient xlink:href="#Безымянный_градиент_23" id="Безымянный_градиент_23-15" x1="1106.04" x2="1298.55" y1="1017.4" y2="1017.4" gradientTransform="matrix(-.99 .15 .15 .99 3802.23 -85.29)"/><linearGradient xlink:href="#Безымянный_градиент_23" id="Безымянный_градиент_23-14" x1="1092.11" x2="1231.61" y1="947.78" y2="947.78" gradientTransform="matrix(-.99 .15 .15 .99 3802.23 -85.29)"/><linearGradient xlink:href="#Безымянный_градиент_14" id="Безымянный_градиент_5-9" x1="1937.25" x2="2079.79" y1="18.94" y2="18.94" gradientTransform="scale(1 -1) rotate(67 3839.72 -189.77)"/><linearGradient xlink:href="#Безымянный_градиент_23" id="Безымянный_градиент_23-13" x1="1084.64" x2="1289.39" y1="1008.39" y2="1008.39" gradientTransform="matrix(-.99 .15 .15 .99 3802.23 -85.29)"/><linearGradient xlink:href="#Безымянный_градиент_24" id="Безымянный_градиент_24-7" x1="2698.26" x2="3010.49" y1="1131.94" y2="884.31"/><linearGradient xlink:href="#Безымянный_градиент_14" id="Безымянный_градиент_5-10" x1="1867.92" x2="2011.72" y1="83.89" y2="83.89" gradientTransform="scale(1 -1) rotate(67 3839.72 -189.77)"/><linearGradient xlink:href="#Безымянный_градиент_23" id="Безымянный_градиент_23-12" x1="665.82" x2="960.13" y1="1637.33" y2="1637.33" gradientTransform="matrix(-.95 -.31 -.31 .95 4155.04 295.89)"/><linearGradient xlink:href="#Безымянный_градиент_23" id="Безымянный_градиент_23-11" x1="642.75" x2="855.59" y1="1526.74" y2="1526.74" gradientTransform="matrix(-.95 -.31 -.31 .95 4155.04 295.89)"/><linearGradient xlink:href="#Безымянный_градиент_14" id="Безымянный_градиент_5-11" x1="2715.02" x2="3137.51" y1="1439.67" y2="1439.67" gradientTransform="matrix(1 -.08 .08 1 -263.42 334.85)"/><linearGradient xlink:href="#Безымянный_градиент_23" id="Безымянный_градиент_23-10" x1="628.98" x2="949.55" y1="1622.66" y2="1622.66" gradientTransform="matrix(-.95 -.31 -.31 .95 4155.04 295.89)"/><linearGradient xlink:href="#Безымянный_градиент_24" id="Безымянный_градиент_24-6" x1="668.03" x2="799.64" y1="148.5" y2="-228.05" gradientTransform="scale(-1 1) rotate(-73.7 -.782 3197.862)"/><linearGradient xlink:href="#Безымянный_градиент_14" id="Безымянный_градиент_5-12" x1="2793.02" x2="2858.92" y1="1613.05" y2="1604.81" gradientTransform="matrix(1 -.08 .08 1 -263.42 334.85)"/><linearGradient xlink:href="#Безымянный_градиент_24" id="Безымянный_градиент_24-5" x1="2637" x2="2898.99" y1="841.16" y2="51.61" gradientTransform="rotate(89 2689.219 682.409)"/><linearGradient xlink:href="#Безымянный_градиент_24" id="Безымянный_градиент_24-4" x1="2634.1" x2="2896.09" y1="840.2" y2="50.64" gradientTransform="rotate(9.9 2902.437 571.054)"/><linearGradient xlink:href="#Безымянный_градиент_14" id="Безымянный_градиент_5-13" x1="2813.6" x2="2914.82" y1="1505.73" y2="1483.01" gradientTransform="matrix(1 -.08 .08 1 -263.42 334.85)"/><linearGradient xlink:href="#Безымянный_градиент_19" id="Безымянный_градиент_19-3" x1="1173.75" x2="1041.85" y1="-1338.47" y2="-1535.02" gradientTransform="rotate(-59.62 2871.154 687.672)"/><linearGradient xlink:href="#Безымянный_градиент_20" id="Безымянный_градиент_20-8" x1="5503.39" x2="5630.36" y1="1189.82" y2="1065.6"/><linearGradient xlink:href="#Безымянный_градиент_2" id="Безымянный_градиент_2-4" x1="3399.46" x2="3298.62" y1="605.57" y2="455.3" gradientTransform="rotate(69.62 2762.3 562.604)"/><linearGradient xlink:href="#Безымянный_градиент_20" id="Безымянный_градиент_20-7" x1="5438.94" x2="5587.9" y1="1231.69" y2="1188.72"/><linearGradient xlink:href="#Безымянный_градиент_20" id="Безымянный_градиент_20-6" x1="5395.87" x2="5603.28" y1="1343" y2="1319.96"/><linearGradient xlink:href="#Безымянный_градиент_2" id="Безымянный_градиент_2-5" x1="3249.62" x2="3151.35" y1="1033.47" y2="887.03" gradientTransform="matrix(.95 .3 -.3 .95 139.35 -750.05)"/><linearGradient xlink:href="#Безымянный_градиент_20" id="Безымянный_градиент_20-5" x1="1170.54" x2="1023.21" y1="-1067.44" y2="-1286.99" gradientTransform="rotate(-68.3 2867.734 727.852)"/><linearGradient xlink:href="#Безымянный_градиент_20" id="Безымянный_градиент_20-4" x1="804.93" x2="658.02" y1="-599.24" y2="-818.16" gradientTransform="rotate(-59.13 2867.82 711.373)"/><linearGradient xlink:href="#Безымянный_градиент_2" id="Безымянный_градиент_2-6" x1="2483.3" x2="2390.07" y1="829.06" y2="690.12" gradientTransform="scale(-1 1) rotate(-49.5 212.662 6848.898)"/><linearGradient xlink:href="#Безымянный_градиент_19" id="Безымянный_градиент_19-2" x1="5518.63" x2="5386.3" y1="-112.5" y2="-309.7" gradientTransform="matrix(-.89 .47 .47 .89 5165.93 -1310.56)"/><linearGradient id="Безымянный_градиент_19" x1="3889.76" x2="3751.53" y1="-1906.16" y2="-2112.14" gradientTransform="scale(-1 1) rotate(79.6 51.617 -2853.643)" gradientUnits="userSpaceOnUse"><stop offset="0" stop-color="#97d3db"/><stop offset=".42" stop-color="#97d3db"/><stop offset="1" stop-color="#97d3db"/></linearGradient><linearGradient xlink:href="#Безымянный_градиент_13" id="Безымянный_градиент_13-2" x1="685.52" x2="294.7" y1="1595.75" y2="1277.3" gradientTransform="rotate(12.86 2277.773 893.142)"/><linearGradient xlink:href="#Безымянный_градиент_20" id="Безымянный_градиент_20-3" x1="5450.2" x2="5513.3" y1="1153.54" y2="974.36"/><linearGradient xlink:href="#Безымянный_градиент_20" id="Безымянный_градиент_20-2" x1="5455.01" x2="5392.99" y1="1209.95" y2="1054.91"/><linearGradient xlink:href="#Безымянный_градиент_14" id="Безымянный_градиент_5-14" x1="4703.81" x2="5075.68" y1="2306.45" y2="1876.93" gradientTransform="scale(-1 1) rotate(-37.7 652.439 9331.183)"/><linearGradient id="Безымянный_градиент_20" x1="5405.46" x2="5229.17" y1="1297.25" y2="1165.04" gradientTransform="matrix(-1 .09 .09 1 5750.42 -311.86)" gradientUnits="userSpaceOnUse"><stop offset="0" stop-color="#b5db89"/><stop offset="1" stop-color="#97d3db"/></linearGradient><linearGradient xlink:href="#Безымянный_градиент_26" id="Безымянный_градиент_26-7" x1="5233.94" x2="5378.45" y1="1437.71" y2="1405.27" gradientTransform="matrix(-1 .09 .09 1 5750.42 -311.86)"/><linearGradient id="Безымянный_градиент_24" x1="4881.95" x2="5040.83" y1="784.41" y2="329.84" gradientTransform="matrix(-.84 .55 .55 .84 4305.61 -1420.01)" gradientUnits="userSpaceOnUse"><stop offset="0" stop-color="#b5db89"/><stop offset=".51" stop-color="#c4e2a1"/><stop offset="1" stop-color="#c4e2a1"/></linearGradient><linearGradient id="Безымянный_градиент_23" x1="4810.49" x2="5017.48" y1="1226.55" y2="634.32" gradientTransform="matrix(-.91 .41 .41 .91 4598.6 -1074.46)" gradientUnits="userSpaceOnUse"><stop offset="0" stop-color="#c4e2a1"/><stop offset="1" stop-color="#deefcb"/></linearGradient><linearGradient xlink:href="#Безымянный_градиент_23" id="Безымянный_градиент_23-2" x1="4956.98" x2="5015.22" y1="965.57" y2="798.95"/><linearGradient xlink:href="#Безымянный_градиент_23" id="Безымянный_градиент_23-3" x1="4859.45" x2="4921.92" y1="1077.63" y2="898.9"/><linearGradient xlink:href="#Безымянный_градиент_26" id="Безымянный_градиент_26-6" x1="5205.81" x2="5299.68" y1="1580.56" y2="1568.83" gradientTransform="matrix(-1 .09 .09 1 5750.42 -311.86)"/><linearGradient xlink:href="#Безымянный_градиент_26" id="Безымянный_градиент_26-5" x1="5096.55" x2="5689.93" y1="1348.45" y2="1348.45" gradientTransform="matrix(-1 .09 .09 1 5750.42 -311.86)"/><linearGradient xlink:href="#Безымянный_градиент_24" id="Безымянный_градиент_24-2" x1="5231.56" x2="5413.37" y1="447.59" y2="-72.59" gradientTransform="matrix(-.99 .16 .16 .99 5725.47 -436.16)"/><linearGradient xlink:href="#Безымянный_градиент_23" id="Безымянный_градиент_23-4" x1="5202.46" x2="5435.85" y1="958.12" y2="290.35" gradientTransform="matrix(-1 0 0 1 5850.29 0)"/><linearGradient xlink:href="#Безымянный_градиент_23" id="Безымянный_градиент_23-5" x1="5383.43" x2="5443.19" y1="665.83" y2="494.84" gradientTransform="matrix(-1 0 0 1 5850.29 0)"/><linearGradient xlink:href="#Безымянный_градиент_23" id="Безымянный_градиент_23-6" x1="5255.54" x2="5318.06" y1="786.98" y2="608.09" gradientTransform="matrix(-1 0 0 1 5850.29 0)"/><linearGradient xlink:href="#Безымянный_градиент_26" id="Безымянный_градиент_26-4" x1="4724.41" x2="4967.23" y1="2155.2" y2="2155.2"/><linearGradient xlink:href="#Безымянный_градиент_26" id="Безымянный_градиент_26-3" x1="4841.59" x2="5075.47" y1="2072.16" y2="2072.16"/><linearGradient xlink:href="#Безымянный_градиент_24" id="Безымянный_градиент_24-3" x1="4515.29" x2="4630.21" y1="1171.45" y2="842.64" gradientTransform="matrix(-.89 -.45 -.45 .89 5388.7 1685.72)"/><linearGradient xlink:href="#Безымянный_градиент_23" id="Безымянный_градиент_23-7" x1="4391.47" x2="4541.18" y1="1515.25" y2="1086.92" gradientTransform="scale(-1 1) rotate(-35.6 675.095 9242.848)"/><linearGradient xlink:href="#Безымянный_градиент_23" id="Безымянный_градиент_23-8" x1="4497.42" x2="4539.54" y1="1326.49" y2="1205.99" gradientTransform="scale(-1 1) rotate(-35.6 675.095 9242.848)"/><linearGradient xlink:href="#Безымянный_градиент_23" id="Безымянный_градиент_23-9" x1="4426.88" x2="4472.06" y1="1407.54" y2="1278.27" gradientTransform="scale(-1 1) rotate(-35.6 675.095 9242.848)"/><linearGradient id="Безымянный_градиент_26" x1="4703.81" x2="5075.68" y1="2306.45" y2="1876.93" gradientTransform="scale(-1 1) rotate(-37.7 652.439 9331.183)" gradientUnits="userSpaceOnUse"><stop offset="0" stop-color="#b5db89"/><stop offset=".51" stop-color="#c4e2a1"/><stop offset=".63" stop-color="#b8deb0"/><stop offset="1" stop-color="#97d3db"/></linearGradient><linearGradient id="Безымянный_градиент_28" x1="685.52" x2="294.7" y1="1595.75" y2="1277.3" gradientTransform="rotate(12.86 2277.773 893.142)" gradientUnits="userSpaceOnUse"><stop offset="0" stop-color="#b5db89"/><stop offset=".51" stop-color="#c4e2a1"/><stop offset=".78" stop-color="#97d3db"/><stop offset="1" stop-color="#97d3db"/></linearGradient><linearGradient xlink:href="#Безымянный_градиент_3" id="Безымянный_градиент_3-6" x1="3320.09" x2="2844.54" y1="1166.83" y2="1199.12" gradientTransform="matrix(-1 0 0 1 4443.21 0)"/><filter id="luminosity-noclip-48" width="371.22" height="293.86" x="2727.15" y="1660.82" color-interpolation-filters="sRGB" filterUnits="userSpaceOnUse"><feFlood flood-color="#fff" result="bg"/><feBlend in="SourceGraphic" in2="bg"/></filter><filter id="luminosity-noclip-49" width="337.07" height="235.17" x="2739.45" y="1708.05" color-interpolation-filters="sRGB" filterUnits="userSpaceOnUse"><feFlood flood-color="#fff" result="bg"/><feBlend in="SourceGraphic" in2="bg"/></filter><filter id="luminosity-noclip-35" width="279.97" height="180.86" x="167.65" y="748.46" color-interpolation-filters="sRGB" filterUnits="userSpaceOnUse"><feFlood flood-color="#fff" result="bg"/><feBlend in="SourceGraphic" in2="bg"/></filter><filter id="luminosity-noclip" width="531.96" height="32766" x="230.72" y="-8971.8" color-interpolation-filters="sRGB" filterUnits="userSpaceOnUse"><feFlood flood-color="#fff" result="bg"/><feBlend in="SourceGraphic" in2="bg"/></filter><filter id="luminosity-noclip-36" width="391.7" height="201.32" x="171.65" y="878.33" color-interpolation-filters="sRGB" filterUnits="userSpaceOnUse"><feFlood flood-color="#fff" result="bg"/><feBlend in="SourceGraphic" in2="bg"/></filter><filter id="luminosity-noclip-37" width="376.77" height="143.96" x="217.51" y="1029.61" color-interpolation-filters="sRGB" filterUnits="userSpaceOnUse"><feFlood flood-color="#fff" result="bg"/><feBlend in="SourceGraphic" in2="bg"/></filter><filter id="luminosity-noclip-32" width="305.32" height="460.72" x="691.98" y="329.97" color-interpolation-filters="sRGB" filterUnits="userSpaceOnUse"><feFlood flood-color="#fff" result="bg"/><feBlend in="SourceGraphic" in2="bg"/></filter><filter id="luminosity-noclip-38" width="676.14" height="897.83" x="161.76" y="1066.57" color-interpolation-filters="sRGB" filterUnits="userSpaceOnUse"><feFlood flood-color="#fff" result="bg"/><feBlend in="SourceGraphic" in2="bg"/></filter><filter id="luminosity-noclip-39" width="122.26" height="163.33" x="640.49" y="1647.17" color-interpolation-filters="sRGB" filterUnits="userSpaceOnUse"><feFlood flood-color="#fff" result="bg"/><feBlend in="SourceGraphic" in2="bg"/></filter><filter id="luminosity-noclip-31" width="504.17" height="604.96" x="249.03" y="317.23" color-interpolation-filters="sRGB" filterUnits="userSpaceOnUse"><feFlood flood-color="#fff" result="bg"/><feBlend in="SourceGraphic" in2="bg"/></filter><filter id="luminosity-noclip-40" width="140.06" height="153.2" x="535.81" y="1502.57" color-interpolation-filters="sRGB" filterUnits="userSpaceOnUse"><feFlood flood-color="#fff" result="bg"/><feBlend in="SourceGraphic" in2="bg"/></filter><filter id="luminosity-noclip-30" width="531.96" height="426.19" x="230.72" y="1580.87" color-interpolation-filters="sRGB" filterUnits="userSpaceOnUse"><feFlood flood-color="#fff" result="bg"/><feBlend in="SourceGraphic" in2="bg"/></filter><filter id="luminosity-noclip-29" width="275.41" height="32766" x="272.18" y="-8971.8" color-interpolation-filters="sRGB" filterUnits="userSpaceOnUse"><feFlood flood-color="#fff" result="bg"/><feBlend in="SourceGraphic" in2="bg"/></filter><filter id="luminosity-noclip-41" width="161.95" height="132.49" x="0" y="938.29" color-interpolation-filters="sRGB" filterUnits="userSpaceOnUse"><feFlood flood-color="#fff" result="bg"/><feBlend in="SourceGraphic" in2="bg"/></filter><filter id="luminosity-noclip-42" width="102.12" height="177.71" x="195.01" y="946.72" color-interpolation-filters="sRGB" filterUnits="userSpaceOnUse"><feFlood flood-color="#fff" result="bg"/><feBlend in="SourceGraphic" in2="bg"/></filter><filter id="luminosity-noclip-28" width="431.33" height="32766" x="162.44" y="-8971.8" color-interpolation-filters="sRGB" filterUnits="userSpaceOnUse"><feFlood flood-color="#fff" result="bg"/><feBlend in="SourceGraphic" in2="bg"/></filter><filter id="luminosity-noclip-27" width="124.4" height="32766" x="2913.78" y="-8971.8" color-interpolation-filters="sRGB" filterUnits="userSpaceOnUse"><feFlood flood-color="#fff" result="bg"/><feBlend in="SourceGraphic" in2="bg"/></filter><filter id="luminosity-noclip-26" width="75.45" height="32766" x="2850.6" y="-8971.8" color-interpolation-filters="sRGB" filterUnits="userSpaceOnUse"><feFlood flood-color="#fff" result="bg"/><feBlend in="SourceGraphic" in2="bg"/></filter><filter id="luminosity-noclip-43" width="177.66" height="78.68" x="53.53" y="1097.73" color-interpolation-filters="sRGB" filterUnits="userSpaceOnUse"><feFlood flood-color="#fff" result="bg"/><feBlend in="SourceGraphic" in2="bg"/></filter><filter id="luminosity-noclip-25" width="102.03" height="32766" x="2954.75" y="-8971.8" color-interpolation-filters="sRGB" filterUnits="userSpaceOnUse"><feFlood flood-color="#fff" result="bg"/><feBlend in="SourceGraphic" in2="bg"/></filter><filter id="luminosity-noclip-44" width="800.48" height="800.48" x="2259.58" y="263.35" color-interpolation-filters="sRGB" filterUnits="userSpaceOnUse"><feFlood flood-color="#fff" result="bg"/><feBlend in="SourceGraphic" in2="bg"/></filter><filter id="luminosity-noclip-45" width="220.22" height="220.22" x="2548.04" y="563.04" color-interpolation-filters="sRGB" filterUnits="userSpaceOnUse"><feFlood flood-color="#fff" result="bg"/><feBlend in="SourceGraphic" in2="bg"/></filter><filter id="luminosity-noclip-24" width="111.02" height="32766" x="2655.59" y="-8971.8" color-interpolation-filters="sRGB" filterUnits="userSpaceOnUse"><feFlood flood-color="#fff" result="bg"/><feBlend in="SourceGraphic" in2="bg"/></filter><filter id="luminosity-noclip-46" width="437.57" height="332.11" x="2686.48" y="1415.23" color-interpolation-filters="sRGB" filterUnits="userSpaceOnUse"><feFlood flood-color="#fff" result="bg"/><feBlend in="SourceGraphic" in2="bg"/></filter><filter id="luminosity-noclip-23" width="98.95" height="32766" x="2612.81" y="-8971.8" color-interpolation-filters="sRGB" filterUnits="userSpaceOnUse"><feFlood flood-color="#fff" result="bg"/><feBlend in="SourceGraphic" in2="bg"/></filter><filter id="luminosity-noclip-22" width="360.88" height="32766" x="2593.94" y="-8971.8" color-interpolation-filters="sRGB" filterUnits="userSpaceOnUse"><feFlood flood-color="#fff" result="bg"/><feBlend in="SourceGraphic" in2="bg"/></filter><filter id="luminosity-noclip-47" width="207.87" height="294.31" x="2659.62" y="937.11" color-interpolation-filters="sRGB" filterUnits="userSpaceOnUse"><feFlood flood-color="#fff" result="bg"/><feBlend in="SourceGraphic" in2="bg"/></filter><filter id="luminosity-noclip-21" width="147.64" height="32766" x="2778.61" y="-8971.8" color-interpolation-filters="sRGB" filterUnits="userSpaceOnUse"><feFlood flood-color="#fff" result="bg"/><feBlend in="SourceGraphic" in2="bg"/></filter><filter id="luminosity-noclip-20" width="175.11" height="32766" x="2852.25" y="-8971.8" color-interpolation-filters="sRGB" filterUnits="userSpaceOnUse"><feFlood flood-color="#fff" result="bg"/><feBlend in="SourceGraphic" in2="bg"/></filter><filter id="luminosity-noclip-33" width="431.33" height="559.54" x="162.44" y="717.55" color-interpolation-filters="sRGB" filterUnits="userSpaceOnUse"><feFlood flood-color="#fff" result="bg"/><feBlend in="SourceGraphic" in2="bg"/></filter><filter id="luminosity-noclip-34" width="275.41" height="554.05" x="272.18" y="724.39" color-interpolation-filters="sRGB" filterUnits="userSpaceOnUse"><feFlood flood-color="#fff" result="bg"/><feBlend in="SourceGraphic" in2="bg"/></filter><filter id="luminosity-noclip-19" width="153.34" height="32766" x="2941.89" y="-8971.8" color-interpolation-filters="sRGB" filterUnits="userSpaceOnUse"><feFlood flood-color="#fff" result="bg"/><feBlend in="SourceGraphic" in2="bg"/></filter><filter id="luminosity-noclip-50" width="153.34" height="157.18" x="2941.89" y="1660.61" color-interpolation-filters="sRGB" filterUnits="userSpaceOnUse"><feFlood flood-color="#fff" result="bg"/><feBlend in="SourceGraphic" in2="bg"/></filter><filter id="luminosity-noclip-51" width="175.11" height="222.64" x="2852.25" y="1681.57" color-interpolation-filters="sRGB" filterUnits="userSpaceOnUse"><feFlood flood-color="#fff" result="bg"/><feBlend in="SourceGraphic" in2="bg"/></filter><filter id="luminosity-noclip-18" width="305.32" height="32766" x="691.98" y="-8971.8" color-interpolation-filters="sRGB" filterUnits="userSpaceOnUse"><feFlood flood-color="#fff" result="bg"/><feBlend in="SourceGraphic" in2="bg"/></filter><filter id="luminosity-noclip-52" width="147.64" height="217.98" x="2778.61" y="1723.71" color-interpolation-filters="sRGB" filterUnits="userSpaceOnUse"><feFlood flood-color="#fff" result="bg"/><feBlend in="SourceGraphic" in2="bg"/></filter><filter id="luminosity-noclip-53" width="360.88" height="746.16" x="2593.94" y="1148.13" color-interpolation-filters="sRGB" filterUnits="userSpaceOnUse"><feFlood flood-color="#fff" result="bg"/><feBlend in="SourceGraphic" in2="bg"/></filter><filter id="luminosity-noclip-17" width="337.07" height="32766" x="2739.45" y="-8971.8" color-interpolation-filters="sRGB" filterUnits="userSpaceOnUse"><feFlood flood-color="#fff" result="bg"/><feBlend in="SourceGraphic" in2="bg"/></filter><filter id="luminosity-noclip-54" width="98.95" height="111.21" x="2612.81" y="1644.99" color-interpolation-filters="sRGB" filterUnits="userSpaceOnUse"><feFlood flood-color="#fff" result="bg"/><feBlend in="SourceGraphic" in2="bg"/></filter><filter id="luminosity-noclip-55" width="111.02" height="100.85" x="2655.59" y="1527.99" color-interpolation-filters="sRGB" filterUnits="userSpaceOnUse"><feFlood flood-color="#fff" result="bg"/><feBlend in="SourceGraphic" in2="bg"/></filter><filter id="luminosity-noclip-16" width="371.22" height="32766" x="2727.15" y="-8971.8" color-interpolation-filters="sRGB" filterUnits="userSpaceOnUse"><feFlood flood-color="#fff" result="bg"/><feBlend in="SourceGraphic" in2="bg"/></filter><filter id="luminosity-noclip-15" width="207.87" height="32766" x="2659.62" y="-8971.8" color-interpolation-filters="sRGB" filterUnits="userSpaceOnUse"><feFlood flood-color="#fff" result="bg"/><feBlend in="SourceGraphic" in2="bg"/></filter><filter id="luminosity-noclip-56" width="102.03" height="111.41" x="2954.75" y="1039.47" color-interpolation-filters="sRGB" filterUnits="userSpaceOnUse"><feFlood flood-color="#fff" result="bg"/><feBlend in="SourceGraphic" in2="bg"/></filter><filter id="luminosity-noclip-14" width="437.57" height="32766" x="2686.48" y="-8971.8" color-interpolation-filters="sRGB" filterUnits="userSpaceOnUse"><feFlood flood-color="#fff" result="bg"/><feBlend in="SourceGraphic" in2="bg"/></filter><filter id="luminosity-noclip-57" width="75.45" height="129.7" x="2850.6" y="1069.38" color-interpolation-filters="sRGB" filterUnits="userSpaceOnUse"><feFlood flood-color="#fff" result="bg"/><feBlend in="SourceGraphic" in2="bg"/></filter><filter id="luminosity-noclip-13" width="220.22" height="32766" x="2548.04" y="-8971.8" color-interpolation-filters="sRGB" filterUnits="userSpaceOnUse"><feFlood flood-color="#fff" result="bg"/><feBlend in="SourceGraphic" in2="bg"/></filter><filter id="luminosity-noclip-12" width="800.48" height="32766" x="2259.58" y="-8971.8" color-interpolation-filters="sRGB" filterUnits="userSpaceOnUse"><feFlood flood-color="#fff" result="bg"/><feBlend in="SourceGraphic" in2="bg"/></filter><filter id="luminosity-noclip-11" width="177.66" height="32766" x="53.53" y="-8971.8" color-interpolation-filters="sRGB" filterUnits="userSpaceOnUse"><feFlood flood-color="#fff" result="bg"/><feBlend in="SourceGraphic" in2="bg"/></filter><filter id="luminosity-noclip-58" width="124.4" height="59.2" x="2913.78" y="1162.53" color-interpolation-filters="sRGB" filterUnits="userSpaceOnUse"><feFlood flood-color="#fff" result="bg"/><feBlend in="SourceGraphic" in2="bg"/></filter><filter id="luminosity-noclip-10" width="102.12" height="32766" x="195.01" y="-8971.8" color-interpolation-filters="sRGB" filterUnits="userSpaceOnUse"><feFlood flood-color="#fff" result="bg"/><feBlend in="SourceGraphic" in2="bg"/></filter><filter id="luminosity-noclip-9" width="161.95" height="32766" x="0" y="-8971.8" color-interpolation-filters="sRGB" filterUnits="userSpaceOnUse"><feFlood flood-color="#fff" result="bg"/><feBlend in="SourceGraphic" in2="bg"/></filter><filter id="luminosity-noclip-8" width="140.06" height="32766" x="535.81" y="-8971.8" color-interpolation-filters="sRGB" filterUnits="userSpaceOnUse"><feFlood flood-color="#fff" result="bg"/><feBlend in="SourceGraphic" in2="bg"/></filter><filter id="luminosity-noclip-7" width="504.17" height="32766" x="249.03" y="-8971.8" color-interpolation-filters="sRGB" filterUnits="userSpaceOnUse"><feFlood flood-color="#fff" result="bg"/><feBlend in="SourceGraphic" in2="bg"/></filter><filter id="luminosity-noclip-2" width="279.97" height="32766" x="167.65" y="-8971.8" color-interpolation-filters="sRGB" filterUnits="userSpaceOnUse"><feFlood flood-color="#fff" result="bg"/><feBlend in="SourceGraphic" in2="bg"/></filter><filter id="luminosity-noclip-6" width="122.26" height="32766" x="640.49" y="-8971.8" color-interpolation-filters="sRGB" filterUnits="userSpaceOnUse"><feFlood flood-color="#fff" result="bg"/><feBlend in="SourceGraphic" in2="bg"/></filter><filter id="luminosity-noclip-5" width="676.14" height="32766" x="161.76" y="-8971.8" color-interpolation-filters="sRGB" filterUnits="userSpaceOnUse"><feFlood flood-color="#fff" result="bg"/><feBlend in="SourceGraphic" in2="bg"/></filter><filter id="luminosity-noclip-3" width="391.7" height="32766" x="171.65" y="-8971.8" color-interpolation-filters="sRGB" filterUnits="userSpaceOnUse"><feFlood flood-color="#fff" result="bg"/><feBlend in="SourceGraphic" in2="bg"/></filter><filter id="luminosity-noclip-4" width="376.77" height="32766" x="217.51" y="-8971.8" color-interpolation-filters="sRGB" filterUnits="userSpaceOnUse"><feFlood flood-color="#fff" result="bg"/><feBlend in="SourceGraphic" in2="bg"/></filter><mask id="mask-13" width="220.22" height="32766" x="2548.04" y="-8971.8" maskUnits="userSpaceOnUse"/><mask id="mask-48" width="371.22" height="293.86" x="2727.15" y="1660.82" maskUnits="userSpaceOnUse"><g style="mask:url(#mask-16);filter:url(#luminosity-noclip-48)"><path d="M2740.55 1942.21s-64.82-182.58 90.69-251.13 245.53-6.63 260.58 47.86 19.69 161-166.19 201.4c-143.33 31.13-185.08 1.87-185.08 1.87Z" style="fill:url(#Безымянный_градиент_13);mix-blend-mode:multiply"/></g></mask><mask id="mask-31" width="504.17" height="604.96" x="249.03" y="317.23" maskUnits="userSpaceOnUse"><g style="mask:url(#mask-7);filter:url(#luminosity-noclip-31)"><path d="M725.9 779.49a144.39 144.39 0 0 1-.61-42.1c3.56-27.34 10.79-75.25 22.05-116.41 16.89-61.71-2.23-118-63.8-86s-70.18-35.46-79.83-63.82-33.39-53.8-79.71-30.86-57.93-15.89-77.7-55.91-114.25-109.83-157.09-31.88 95.4 155.26 19.6 173.73-84.1 121.87 1.7 130.88 83.35 55.72 57.77 77-23.11 70.81 59.6 68.93 321.3 119.16 321.3 119.16Z" style="fill:url(#Безымянный_градиент_14-2);mix-blend-mode:multiply"/></g></mask><mask id="mask-49" width="337.07" height="235.17" x="2739.45" y="1708.05" maskUnits="userSpaceOnUse"><g style="mask:url(#mask-17);filter:url(#luminosity-noclip-49)"><path d="m2741.65 1943.21-2.2-2c2-2.21 203.48-221.33 336.81-233.16l.26 3c-132.19 11.7-332.86 229.95-334.87 232.16Z" style="fill:url(#Безымянный_градиент_5-7);mix-blend-mode:multiply"/></g></mask><mask id="mask-27" width="124.4" height="32766" x="2913.78" y="-8971.8" maskUnits="userSpaceOnUse"/><mask id="mask-36" width="391.7" height="201.32" x="171.65" y="878.33" maskUnits="userSpaceOnUse"><g style="mask:url(#mask-3);filter:url(#luminosity-noclip-36)"><path d="m409.31 1079.66-237.66-72.06 1.28-4.21 234.77 71.18 152.18-196.24 3.47 2.69-154.04 198.64z" style="fill:url(#Безымянный_градиент_5-2);mix-blend-mode:multiply"/></g></mask><mask id="mask-50" width="153.34" height="157.18" x="2941.89" y="1660.61" maskUnits="userSpaceOnUse"><g style="mask:url(#mask-19);filter:url(#luminosity-noclip-50)"><path d="m3094.29 1817.79-152.4-51.02 17.07-106.16 2.93.47-16.66 103.67 150 50.22-.94 2.82z" style="fill:url(#Безымянный_градиент_5-8);mix-blend-mode:multiply"/></g></mask><mask id="mask-18" width="305.32" height="32766" x="691.98" y="-8971.8" maskUnits="userSpaceOnUse"/><mask id="mask-26" width="75.45" height="32766" x="2850.6" y="-8971.8" maskUnits="userSpaceOnUse"/><mask id="mask-51" width="175.11" height="222.64" x="2852.25" y="1681.57" maskUnits="userSpaceOnUse"><g style="mask:url(#mask-20);filter:url(#luminosity-noclip-51)"><path d="m3026.26 1904.21-174.01-69.15.01-1.02.83-152.47 2.98.02-.83 151.45 172.12 68.4-1.1 2.77z" style="fill:url(#Безымянный_градиент_5-9);mix-blend-mode:multiply"/></g></mask><mask id="mask-39" width="122.26" height="163.33" x="640.49" y="1647.17" maskUnits="userSpaceOnUse"><g style="mask:url(#mask-6);filter:url(#luminosity-noclip-39)"><path d="M642 1810.5s176.52-94.68 102.7-150.71c-70.7-53.68-112.89 76.62-102.7 150.71Z" style="fill:url(#Безымянный_градиент_5-5);mix-blend-mode:multiply"/></g></mask><mask id="mask-25" width="102.03" height="32766" x="2954.75" y="-8971.8" maskUnits="userSpaceOnUse"/><mask id="mask-52" width="147.64" height="217.98" x="2778.61" y="1723.71" maskUnits="userSpaceOnUse"><g style="mask:url(#mask-21);filter:url(#luminosity-noclip-52)"><path d="m2925.01 1941.69-126.66-58-.11-.82-19.63-158.79 2.96-.37 19.53 157.97 125.15 57.31-1.24 2.7z" style="fill:url(#Безымянный_градиент_5-10);mix-blend-mode:multiply"/></g></mask><mask id="mask-17" width="337.07" height="32766" x="2739.45" y="-8971.8" maskUnits="userSpaceOnUse"/><mask id="mask-32" width="305.32" height="460.72" x="691.98" y="329.97" maskUnits="userSpaceOnUse"><g style="mask:url(#mask-18);filter:url(#luminosity-noclip-32)"><path d="M881.51 706.39A116.67 116.67 0 0 1 900 683.53c14-13.59 39.12-37.07 63.28-55.63 36.22-27.83 51.48-64.27 5.43-66.71s-20.37-41.55-12.7-59.9 6.8-39.69-27.32-42.17-22.78-27.09-15.13-55-9.91-95.69-66.76-67.43-20 114.13-67.37 99.83-97.7 38.71-57.49 71 18.13 56.68-4.53 59.94-43.5 30.74 0 56.19 112.52 167 112.52 167Z" style="fill:url(#Безымянный_градиент_14-7);mix-blend-mode:multiply"/></g></mask><mask id="mask-53" width="360.88" height="746.16" x="2593.94" y="1148.13" maskUnits="userSpaceOnUse"><g style="mask:url(#mask-22);filter:url(#luminosity-noclip-53)"><path d="m2595.79 1894.29-1.85-2.28c.43-.35 43.87-35.94 87.06-93.32 39.81-52.89 87.55-135.64 88.9-229.54 1.42-98.25 42.31-196.44 76.37-261.51 41.1-78.52 86.2-137.21 106.37-159.51l2.18 2c-46.39 51.28-179.38 238.34-182 419.09-1.37 94.72-49.44 178.08-89.54 231.33-43.38 57.61-87.05 93.39-87.49 93.74Z" style="fill:url(#Безымянный_градиент_5-11);mix-blend-mode:multiply"/></g></mask><mask id="mask-43" width="177.66" height="78.68" x="53.53" y="1097.73" maskUnits="userSpaceOnUse"><g style="mask:url(#mask-11);filter:url(#luminosity-noclip-43)"><path d="M231.19 1129.28s-152.75 93-175.32 17.73c-21.62-72.12 112.22-53.37 175.32-17.73Z" style="fill:url(#Безымянный_градиент_2-3);mix-blend-mode:multiply"/></g></mask><mask id="mask-35" width="279.97" height="180.86" x="167.65" y="748.46" maskUnits="userSpaceOnUse"><g style="mask:url(#mask-2);filter:url(#luminosity-noclip-35)"><path d="M327.5 929.32 167.65 857.7l1.79-4.01 156.48 70.1 118.05-175.33 3.65 2.45L327.5 929.32z" style="fill:url(#Безымянный_градиент_5);mix-blend-mode:multiply"/></g></mask><mask id="mask-54" width="98.95" height="111.21" x="2612.81" y="1644.99" maskUnits="userSpaceOnUse"><g style="mask:url(#mask-23);filter:url(#luminosity-noclip-54)"><path d="M2711.76 1756.2s-134.4-46.62-89.94-97.32c42.6-48.59 87.93 41.61 89.94 97.32Z" style="fill:url(#Безымянный_градиент_5-12);mix-blend-mode:multiply"/></g></mask><mask id="mask-16" width="371.22" height="32766" x="2727.15" y="-8971.8" maskUnits="userSpaceOnUse"/><mask id="mask-40" width="140.06" height="153.2" x="535.81" y="1502.57" maskUnits="userSpaceOnUse"><g style="mask:url(#mask-8);filter:url(#luminosity-noclip-40)"><path d="M535.81 1655.77s189.89-69.94 127.46-135.84c-59.81-63.14-124.27 60.72-127.46 135.84Z" style="fill:url(#Безымянный_градиент_5-6);mix-blend-mode:multiply"/></g></mask><mask id="mask-55" width="111.02" height="100.85" x="2655.59" y="1527.99" maskUnits="userSpaceOnUse"><g style="mask:url(#mask-24);filter:url(#luminosity-noclip-55)"><path d="M2766.61 1628.84s-140.65-26.73-105.33-83.2c33.84-54.11 93.9 28.45 105.33 83.2Z" style="fill:url(#Безымянный_градиент_5-13);mix-blend-mode:multiply"/></g></mask><mask id="mask-44" width="800.48" height="800.48" x="2259.58" y="263.35" maskUnits="userSpaceOnUse"><g style="mask:url(#mask-12);filter:url(#luminosity-noclip-44)"><path d="m3041.75 657.46-68.93-12a314.24 314.24 0 0 0-24.45-96.91l59.63-41.96a22.11 22.11 0 0 0 5.38-30.8l-57.07-81.22a22.11 22.11 0 0 0-30.8-5.38L2863.27 433a314 314 0 0 0-81.52-50.52l13.25-76.14a22.11 22.11 0 0 0-18-25.58l-97.78-17.08a22.11 22.11 0 0 0-25.58 18l-13.29 76.09a313.41 313.41 0 0 0-93.82 19.9l-43.77-62.29A22.11 22.11 0 0 0 2472 310l-81.22 57.07a22.11 22.11 0 0 0-5.38 30.8l41.93 59.67a314.47 314.47 0 0 0-55.85 82.88l-68.93-12a22.11 22.11 0 0 0-25.58 18l-17.08 97.79a22.11 22.11 0 0 0 18 25.58l64.47 11.21a313.88 313.88 0 0 0 20.28 103.74l-51 35.87a22.11 22.11 0 0 0-5.38 30.8l57.07 81.22a22.11 22.11 0 0 0 30.8 5.38l48.44-34a314.17 314.17 0 0 0 92 59.92l-10 57a22.11 22.11 0 0 0 18 25.58l97.79 17.08a22.11 22.11 0 0 0 25.58-18l9.95-57a314.21 314.21 0 0 0 106.89-25.18l34 48.43a22.11 22.11 0 0 0 30.8 5.38l81.22-57.07a22.11 22.11 0 0 0 5.38-30.8l-35.87-51a313.89 313.89 0 0 0 54.25-90.73l64.47 11.26a22.11 22.11 0 0 0 25.58-18l17.08-97.78a22.11 22.11 0 0 0-17.94-25.64Zm-414 184.27c-98.48-17.2-164.36-111-147.17-209.45s111-164.37 209.45-147.17a181 181 0 0 1-62.28 356.62Z" style="fill:url(#Безымянный_градиент_14-3);mix-blend-mode:multiply"/></g></mask><mask id="mask-15" width="207.87" height="32766" x="2659.62" y="-8971.8" maskUnits="userSpaceOnUse"/><mask id="mask-24" width="111.02" height="32766" x="2655.59" y="-8971.8" maskUnits="userSpaceOnUse"/><mask id="mask-14" width="437.57" height="32766" x="2686.48" y="-8971.8" maskUnits="userSpaceOnUse"/><mask id="mask-30" width="531.96" height="426.19" x="230.72" y="1580.87" maskUnits="userSpaceOnUse"><g style="mask:url(#mask);filter:url(#luminosity-noclip-30)"><path d="M697.47 1855.12a161.72 161.72 0 0 1-14.61-37.91C676.3 1791 665.53 1744.74 660 1703c-8.26-62.61-41.34-106.07-76.09-52.63s-63.84-4.34-80.51-26.22-42.8-35.58-69.36 3.55-48.19 8.55-76.28-19.89-121.42-54.31-126.89 33.29 122.79 102.9 72.95 149.67-21.22 143.74 45.27 117.93 80.38 17.49 68.62 46.88 6.72 73.33 67.26 38.87 277.71-19.23 277.71-19.23Z" style="fill:url(#Безымянный_градиент_14);mix-blend-mode:multiply"/></g></mask><mask id="mask-56" width="102.03" height="111.41" x="2954.75" y="1039.47" maskUnits="userSpaceOnUse"><g style="mask:url(#mask-25);filter:url(#luminosity-noclip-56)"><path d="M2954.75 1150.87s13.08-134.37 79.35-108c63.49 25.33-20.42 90.98-79.35 108Z" style="fill:url(#Безымянный_градиент_2-4);mix-blend-mode:multiply"/></g></mask><mask id="mask-45" width="220.22" height="220.22" x="2548.04" y="563.04" maskUnits="userSpaceOnUse"><g style="mask:url(#mask-13);filter:url(#luminosity-noclip-45)"><circle cx="2658.15" cy="673.15" r="110.09" style="fill:url(#Безымянный_градиент_14-4);mix-blend-mode:multiply" transform="rotate(-79.09 2658.252 673.1)"/></g></mask><mask id="mask-37" width="376.77" height="143.96" x="217.51" y="1029.61" maskUnits="userSpaceOnUse"><g style="mask:url(#mask-4);filter:url(#luminosity-noclip-37)"><path d="m470.26 1173.56-252.75-47.67.82-4.31 250.28 47.2 122.37-139.17 3.3 2.9-124.02 141.05z" style="fill:url(#Безымянный_градиент_5-3);mix-blend-mode:multiply"/></g></mask><mask id="mask-57" width="75.45" height="129.7" x="2850.6" y="1069.38" maskUnits="userSpaceOnUse"><g style="mask:url(#mask-26);filter:url(#luminosity-noclip-57)"><path d="M2914.05 1199.08s-106.76-92.39-43.31-124.12c60.8-30.4 65.13 70.92 43.31 124.12Z" style="fill:url(#Безымянный_градиент_2-5);mix-blend-mode:multiply"/></g></mask><mask id="mask-19" width="153.34" height="32766" x="2941.89" y="-8971.8" maskUnits="userSpaceOnUse"/><mask id="mask-29" width="275.41" height="32766" x="272.18" y="-8971.8" maskUnits="userSpaceOnUse"/><mask id="mask-12" width="800.48" height="32766" x="2259.58" y="-8971.8" maskUnits="userSpaceOnUse"/><mask id="mask-46" width="437.57" height="332.11" x="2686.48" y="1415.23" maskUnits="userSpaceOnUse"><g style="mask:url(#mask-14);filter:url(#luminosity-noclip-46)"><path d="M2797.44 1722.42a148.13 148.13 0 0 1 33.43-3.5c22.13.16 61 1 95 4.92 50.91 5.8 93.62-10.14 61.42-45.64s20.56-45.81 42.07-53.85 39.2-24.53 15.91-51.34 6.33-36.81 36-52c22.26-11.35 53.28-49.79 39.28-77-4.67-9.06-14.34-16.87-31-22-66.66-20.56-113.12 70.22-136.06 25s-106.08-42.68-103.91 10.77-35.25 55.41-54.94 41.26-58.84-9-48.34 41.78-59.82 206.5-59.82 206.5Z" style="fill:url(#Безымянный_градиент_14-5);mix-blend-mode:multiply"/></g></mask><mask id="mask-11" width="177.66" height="32766" x="53.53" y="-8971.8" maskUnits="userSpaceOnUse"/><mask id="mask-23" width="98.95" height="32766" x="2612.81" y="-8971.8" maskUnits="userSpaceOnUse"/><mask id="mask-33" width="431.33" height="559.54" x="162.44" y="717.55" maskUnits="userSpaceOnUse"><g style="mask:url(#mask-28);filter:url(#luminosity-noclip-33)"><path d="M545.86 1277.09s-300.54 1.41-365.11-236.29 55.62-328.3 144.17-323 255 48.38 267.71 313.29c9.82 204.22-46.77 246-46.77 246Z" style="fill:url(#Безымянный_градиент_13-2);mix-blend-mode:multiply"/></g></mask><mask id="mask-58" width="124.4" height="59.2" x="2913.78" y="1162.53" maskUnits="userSpaceOnUse"><g style="mask:url(#mask-27);filter:url(#luminosity-noclip-58)"><path d="M2913.78 1202.8s117.65 48.47 124.1-9.72c6.18-55.75-84.6-24.62-124.1 9.72Z" style="fill:url(#Безымянный_градиент_2-6);mix-blend-mode:multiply"/></g></mask><mask id="mask-10" width="102.12" height="32766" x="195.01" y="-8971.8" maskUnits="userSpaceOnUse"/><mask id="mask-22" width="360.88" height="32766" x="2593.94" y="-8971.8" maskUnits="userSpaceOnUse"/><mask id="mask-9" width="161.95" height="32766" x="0" y="-8971.8" maskUnits="userSpaceOnUse"/><mask id="mask-34" width="275.41" height="554.05" x="272.18" y="724.39" maskUnits="userSpaceOnUse"><g style="mask:url(#mask-29);filter:url(#luminosity-noclip-34)"><path d="M544.13 1278.44a2421.36 2421.36 0 0 1-142.08-207.68c-93-153.29-136.4-269.83-129.08-346.37l4.38.42c-7.13 74.52 37.29 193.36 128.46 343.67a2414.85 2414.85 0 0 0 141.78 207.25Z" style="fill:url(#Безымянный_градиент_5-14);mix-blend-mode:multiply"/></g></mask><mask id="mask-8" width="140.06" height="32766" x="535.81" y="-8971.8" maskUnits="userSpaceOnUse"/><mask id="mask-41" width="161.95" height="132.49" x="0" y="938.29" maskUnits="userSpaceOnUse"><g style="mask:url(#mask-9);filter:url(#luminosity-noclip-41)"><path d="M162 1070.77S112.35 896.5 26.11 947.7C-56.52 996.76 75.8 1062.8 162 1070.77Z" style="fill:url(#Безымянный_градиент_2);mix-blend-mode:multiply"/></g></mask><mask id="mask-7" width="504.17" height="32766" x="249.03" y="-8971.8" maskUnits="userSpaceOnUse"/><mask id="mask-47" width="207.87" height="294.31" x="2659.62" y="937.11" maskUnits="userSpaceOnUse"><g style="mask:url(#mask-15);filter:url(#luminosity-noclip-47)"><path d="M2751.8 1187a94.73 94.73 0 0 1 18.42-11.14c12.93-6 35.82-16.14 56.74-23.26 31.34-10.69 51.5-31.38 22.28-42.54s-1.55-31.44 8.6-41.86 15.57-24.57-5.89-33.28-7.18-22.47 5.63-39.13c9.61-12.49 16.32-42.64.15-54.12-5.39-3.82-13.32-5.57-24.54-3.9-44.86 6.69-45.12 70.55-71.82 51.36s-74.33 5-57.3 34.54-4.17 40.87-19.8 38.3-36.9 11.08-15.81 36.78 26.11 132.7 26.11 132.7Z" style="fill:url(#Безымянный_градиент_14-6);mix-blend-mode:multiply"/></g></mask><mask id="mask-6" width="122.26" height="32766" x="640.49" y="-8971.8" maskUnits="userSpaceOnUse"/><mask id="mask" width="531.96" height="32766" x="230.72" y="-8971.8" maskUnits="userSpaceOnUse"/><mask id="mask-21" width="147.64" height="32766" x="2778.61" y="-8971.8" maskUnits="userSpaceOnUse"/><mask id="mask-2" width="279.97" height="32766" x="167.65" y="-8971.8" maskUnits="userSpaceOnUse"/><mask id="mask-28" width="431.33" height="32766" x="162.44" y="-8971.8" maskUnits="userSpaceOnUse"/><mask id="mask-5" width="676.14" height="32766" x="161.76" y="-8971.8" maskUnits="userSpaceOnUse"/><mask id="mask-20" width="175.11" height="32766" x="2852.25" y="-8971.8" maskUnits="userSpaceOnUse"/><mask id="mask-4" width="376.77" height="32766" x="217.51" y="-8971.8" maskUnits="userSpaceOnUse"/><mask id="mask-38" width="676.14" height="897.83" x="161.76" y="1066.57" maskUnits="userSpaceOnUse"><g style="mask:url(#mask-5);filter:url(#luminosity-noclip-38)"><path d="M836 1964.4c-.69-.36-69.93-36.86-143.91-102.32-68.34-60.47-154.84-158.75-178.85-283.56-45.79-238.09-274.87-452.39-351.5-508.69l2.39-3.26c33.33 24.49 109.92 90.9 185.56 184.51 62.68 77.57 142.62 197.21 167.52 326.67 23.8 123.7 109.69 221.25 177.56 281.3 73.61 65.14 142.42 101.4 143.11 101.76Z" style="mix-blend-mode:multiply;fill:url(#Безымянный_градиент_5-4)"/></g></mask><mask id="mask-42" width="102.12" height="177.71" x="195.01" y="946.72" maskUnits="userSpaceOnUse"><g style="mask:url(#mask-10);filter:url(#luminosity-noclip-42)"><path d="M229.94 1124.43s127.32-148.34 31.43-174.62c-91.86-25.17-74.26 109.71-31.43 174.62Z" style="fill:url(#Безымянный_градиент_2-2);mix-blend-mode:multiply"/></g></mask><mask id="mask-3" width="391.7" height="32766" x="171.65" y="-8971.8" maskUnits="userSpaceOnUse"/><clipPath id="clip-path-4"><path d="M791.07 187c0 58-21.21 88.36-76.07 90.91-62.77 2.93-117-45.74-117.58-108.57a109.81 109.81 0 0 1 109.8-110.88c60.64 0 83.85 67.88 83.85 128.54Z" class="cls-59"/></clipPath><clipPath id="clip-path-3"><path d="M938.88 1965.99 595.75 685.38h1863.8l343.14 1280.61H938.88z" class="cls-59"/></clipPath><clipPath id="clip-path-2"><path d="M2237.43 744.69c5.51 20.59.83 31.37-18.52 32.28-22.13 1-46.12-16.24-52.31-38.55-6-21.7 6.88-39.36 28.66-39.36s36.4 24.1 42.17 45.63Z" class="cls-59"/></clipPath><clipPath id="clip-path"><path d="M1056.38 1055.85c20.07 74.92 1.48 112.53-73.44 112.53S831 1107.65 811 1032.73s24.38-135.64 99.3-135.64 126 83.85 146.08 158.76Z" class="cls-59"/></clipPath><style>.cls-162{mix-blend-mode:multiply}.cls-59{fill:none}.cls-156,.cls-162{fill:#fff}.cls-158{fill:#b3d986}.cls-162{opacity:.26}.cls-173{fill:#ffe0c4}.cls-174{fill:#ffd5af}.cls-175{fill:#81504b}.cls-177{fill:#a4d26e}.cls-182{fill:#b0b0b0}</style></defs><g style="isolation:isolate"><g id="Capa_2" data-name="Capa 2"><g id="Layer_1" data-name="Layer 1"><g style="mask:url(#mask-30)"><path d="M697.47 1855.12a161.72 161.72 0 0 1-14.61-37.91C676.3 1791 665.53 1744.74 660 1703c-8.26-62.61-41.34-106.07-76.09-52.63s-63.84-4.34-80.51-26.22-42.8-35.58-69.36 3.55-48.19 8.55-76.28-19.89-121.42-54.31-126.89 33.29 122.79 102.9 72.95 149.67-21.22 143.74 45.27 117.93 80.38 17.49 68.62 46.88 6.72 73.33 67.26 38.87 277.71-19.23 277.71-19.23Z" style="fill:url(#Безымянный_градиент_24)"/></g><path d="M762.29 1976.09c-3.49-1.58-350.62-160.43-523.47-368l1.47-1.22c172.58 207.24 519.31 365.91 522.79 367.49Z" style="fill:url(#Безымянный_градиент_23)"/><path d="m281.85 1872.84-1-1.61c53.9-34.47 197.92-47.46 211.18-48.59l-21.14-219.56 1.91-.19 21.32 221.5-1 .07c-1.54.13-155.43 12.67-211.27 48.38Z" style="fill:url(#Безымянный_градиент_23-2)"/><path d="m425.9 2000.44-1.47-1.23c36-43 177-96.89 189.24-101.51-21.58-73.78 11.33-266.78 11.63-268.7l1.89.33c-.34 2-33.4 196-11.43 268.7l.26.86-.84.31c-1.52.54-152.18 56.89-189.28 101.24Z" style="fill:url(#Безымянный_градиент_23-3)"/><g style="mask:url(#mask-31)"><path d="M725.9 779.49a144.39 144.39 0 0 1-.61-42.1c3.56-27.34 10.79-75.25 22.05-116.41 16.89-61.71-2.23-118-63.8-86s-70.18-35.46-79.83-63.82-33.39-53.8-79.71-30.86-57.93-15.89-77.7-55.91-114.25-109.83-157.09-31.88 95.4 155.26 19.6 173.73-84.1 121.87 1.7 130.88 83.35 55.72 57.77 77-23.11 70.81 59.6 68.93 321.3 119.16 321.3 119.16Z" style="fill:url(#Безымянный_градиент_24-2)"/></g><path d="M748.44 923c-.82-.79-82.86-80.62-177.18-193.54-87.07-104.24-202.72-258.8-259.2-403.19l2-.78c107.9 275.84 432.6 592.81 435.87 596Z" style="fill:url(#Безымянный_градиент_23-4)"/><path d="m509.23 651-1-.38c-1.8-.65-180.7-65-258.69-59.61l-.14-2.13c75.28-5.14 243.6 54.12 258.47 59.39l68-212.43 2 .65Z" style="fill:url(#Безымянный_градиент_23-5)"/><path d="m615.61 779.69-1.1-.13c-2-.23-195.48-22.59-256-.06l-.75-2c58.57-21.81 240-2 255.85-.19 6.71-78.69 124.45-240 125.65-241.59L741 537c-1.2 1.63-119.69 163.93-125.32 241.6Z" style="fill:url(#Безымянный_градиент_23-6)"/><g style="mask:url(#mask-32)"><path d="M881.51 706.39A116.67 116.67 0 0 1 900 683.53c14-13.59 39.12-37.07 63.28-55.63 36.22-27.83 51.48-64.27 5.43-66.71s-20.37-41.55-12.7-59.9 6.8-39.69-27.32-42.17-22.78-27.09-15.13-55-9.91-95.69-66.76-67.43-20 114.13-67.37 99.83-97.7 38.71-57.49 71 18.13 56.68-4.53 59.94-43.5 30.74 0 56.19 112.52 167 112.52 167Z" style="fill:url(#Безымянный_градиент_24-3)"/></g><path d="M829.19 790.76c-.27-2.76-26.36-277.65 41.12-461l1.3.47c-67.37 183.07-41.32 457.65-41 460.4Z" style="fill:url(#Безымянный_градиент_23-7)"/><path d="m827.18 567.89-.4-.58c-.63-.92-64.16-92.77-106.73-114.83l.63-1.23C761.78 472.55 822 558.05 827.52 566l129.87-92.67.81 1.12Z" style="fill:url(#Безымянный_градиент_23-8)"/><path d="m824.64 671.2-.5-.41c-.9-.75-90.68-74.7-131.9-81.92l.24-1.37c40 7 124.72 75.81 132 81.81 38.39-40.21 171.18-89.44 172.52-89.93l.48 1.3c-1.35.49-134.86 50-172.44 90.05Z" style="fill:url(#Безымянный_градиент_23-9)"/><g style="mask:url(#mask-33)"><path d="M545.86 1277.09s-300.54 1.41-365.11-236.29 55.62-328.3 144.17-323 255 48.38 267.71 313.29c9.82 204.22-46.77 246-46.77 246Z" style="fill:url(#Безымянный_градиент_28)"/></g><g style="mask:url(#mask-34)"><path d="M544.13 1278.44a2421.36 2421.36 0 0 1-142.08-207.68c-93-153.29-136.4-269.83-129.08-346.37l4.38.42c-7.13 74.52 37.29 193.36 128.46 343.67a2414.85 2414.85 0 0 0 141.78 207.25Z" style="fill:url(#Безымянный_градиент_26)"/></g><g style="mask:url(#mask-35)"><path d="M327.5 929.32 167.65 857.7l1.79-4.01 156.48 70.1 118.05-175.33 3.65 2.45L327.5 929.32z" style="fill:url(#Безымянный_градиент_26-2)"/></g><g style="mask:url(#mask-36)"><path d="m409.31 1079.66-237.66-72.06 1.28-4.21 234.77 71.18 152.18-196.24 3.47 2.69-154.04 198.64z" style="fill:url(#Безымянный_градиент_26-3)"/></g><g style="mask:url(#mask-37)"><path d="m470.26 1173.56-252.75-47.67.82-4.31 250.28 47.2 122.37-139.17 3.3 2.9-124.02 141.05z" style="fill:url(#Безымянный_градиент_26-4)"/></g><g style="mask:url(#mask-38)"><path d="M836 1964.4c-.69-.36-69.93-36.86-143.91-102.32-68.34-60.47-154.84-158.75-178.85-283.56-45.79-238.09-274.87-452.39-351.5-508.69l2.39-3.26c33.33 24.49 109.92 90.9 185.56 184.51 62.68 77.57 142.62 197.21 167.52 326.67 23.8 123.7 109.69 221.25 177.56 281.3 73.61 65.14 142.42 101.4 143.11 101.76Z" style="fill:url(#Безымянный_градиент_26-5)"/></g><g style="mask:url(#mask-39)"><path d="M642 1810.5s176.52-94.68 102.7-150.71c-70.7-53.68-112.89 76.62-102.7 150.71Z" style="fill:url(#Безымянный_градиент_26-6)"/></g><g style="mask:url(#mask-40)"><path d="M535.81 1655.77s189.89-69.94 127.46-135.84c-59.81-63.14-124.27 60.72-127.46 135.84Z" style="fill:url(#Безымянный_градиент_26-7)"/></g><path d="M485 1494.81s190.34-78.7 123.19-143.24c-64.32-61.83-123.81 66.71-123.19 143.24Z" style="fill:url(#Безымянный_градиент_20)"/><path d="M430.36 1364.81s150.7-130.53 61.2-169.59c-85.75-37.42-91.94 99.22-61.2 169.59Z" style="fill:url(#Безымянный_градиент_20-2)"/><path d="M345.73 1247.53s94-165.63-6.68-175.13c-96.46-9.1-49.81 119.17 6.68 175.13Z" style="fill:url(#Безымянный_градиент_20-3)"/><g style="mask:url(#mask-41)"><path d="M162 1070.77S112.35 896.5 26.11 947.7C-56.52 996.76 75.8 1062.8 162 1070.77Z" style="fill:url(#Безымянный_градиент_19)"/></g><g style="mask:url(#mask-42)"><path d="M229.94 1124.43s127.32-148.34 31.43-174.62c-91.86-25.17-74.26 109.71-31.43 174.62Z" style="fill:url(#Безымянный_градиент_19-2)"/></g><path d="M647 1811.17s-171.14 102.37-195.45 18.28c-23.3-80.57 125.56-58.54 195.45-18.28Z" style="fill:url(#Безымянный_градиент_20-4)"/><path d="M539.48 1651.71s-152.1 123.9-191.24 44.8c-37.49-75.79 114.55-74.66 191.24-44.8Z" style="fill:url(#Безымянный_градиент_20-5)"/><path d="M497.68 1486.05s-161.09 120.48-196.81 38.13c-34.24-78.9 120.34-71.68 196.81-38.13Z" style="fill:url(#Безымянный_градиент_20-6)"/><path d="M425.67 1363.72s-146.35 100.22-173.89 26.63c-26.4-70.51 108.51-58.78 173.89-26.63Z" style="fill:url(#Безымянный_градиент_20-7)"/><path d="M340.08 1251.53s-188.18 82.93-199.08-5.61c-10.55-84.82 135.36-43.99 199.08 5.61Z" style="fill:url(#Безымянный_градиент_20-8)"/><g style="mask:url(#mask-43)"><path d="M231.19 1129.28s-152.75 93-175.32 17.73c-21.62-72.12 112.22-53.37 175.32-17.73Z" style="fill:url(#Безымянный_градиент_19-3)"/></g><g style="mask:url(#mask-44)"><path d="m3041.75 657.46-68.93-12a314.24 314.24 0 0 0-24.45-96.91l59.63-41.96a22.11 22.11 0 0 0 5.38-30.8l-57.07-81.22a22.11 22.11 0 0 0-30.8-5.38L2863.27 433a314 314 0 0 0-81.52-50.52l13.25-76.14a22.11 22.11 0 0 0-18-25.58l-97.78-17.08a22.11 22.11 0 0 0-25.58 18l-13.29 76.09a313.41 313.41 0 0 0-93.82 19.9l-43.77-62.29A22.11 22.11 0 0 0 2472 310l-81.22 57.07a22.11 22.11 0 0 0-5.38 30.8l41.93 59.67a314.47 314.47 0 0 0-55.85 82.88l-68.93-12a22.11 22.11 0 0 0-25.58 18l-17.08 97.79a22.11 22.11 0 0 0 18 25.58l64.47 11.21a313.88 313.88 0 0 0 20.28 103.74l-51 35.87a22.11 22.11 0 0 0-5.38 30.8l57.07 81.22a22.11 22.11 0 0 0 30.8 5.38l48.44-34a314.17 314.17 0 0 0 92 59.92l-10 57a22.11 22.11 0 0 0 18 25.58l97.79 17.08a22.11 22.11 0 0 0 25.58-18l9.95-57a314.21 314.21 0 0 0 106.89-25.18l34 48.43a22.11 22.11 0 0 0 30.8 5.38l81.22-57.07a22.11 22.11 0 0 0 5.38-30.8l-35.87-51a313.89 313.89 0 0 0 54.25-90.73l64.47 11.26a22.11 22.11 0 0 0 25.58-18l17.08-97.78a22.11 22.11 0 0 0-17.94-25.64Zm-414 184.27c-98.48-17.2-164.36-111-147.17-209.45s111-164.37 209.45-147.17a181 181 0 0 1-62.28 356.62Z" style="fill:url(#Безымянный_градиент_24-4)"/></g><g style="mask:url(#mask-45)"><circle cx="2658.15" cy="673.15" r="110.09" style="fill:url(#Безымянный_градиент_24-5)" transform="rotate(-79.09 2658.252 673.1)"/></g><g style="mask:url(#mask-46)"><path d="M2797.44 1722.42a148.13 148.13 0 0 1 33.43-3.5c22.13.16 61 1 95 4.92 50.91 5.8 93.62-10.14 61.42-45.64s20.56-45.81 42.07-53.85 39.2-24.53 15.91-51.34 6.33-36.81 36-52c22.26-11.35 53.28-49.79 39.28-77-4.67-9.06-14.34-16.87-31-22-66.66-20.56-113.12 70.22-136.06 25s-106.08-42.68-103.91 10.77-35.25 55.41-54.94 41.26-58.84-9-48.34 41.78-59.82 206.5-59.82 206.5Z" style="fill:url(#Безымянный_градиент_24-6)"/></g><path d="m2687.08 1748-1.2-1.21C2897 1535.89 3118 1444.2 3120.23 1443.3l.64 1.57c-2.21.9-222.94 92.48-433.79 303.13Z" style="fill:url(#Безымянный_градиент_23-10)"/><path d="m3055.85 1600.61-155.89-30.72-7.75-154.5 1.7-.08 7.68 153.17 154.59 30.47-.33 1.66z" style="fill:url(#Безымянный_градиент_23-11)"/><path d="m2996.75 1707.75-189.28-68.77-51.85-141.37 1.59-.58 51.58 140.63 188.54 68.5-.58 1.59z" style="fill:url(#Безымянный_градиент_23-12)"/><g style="mask:url(#mask-47)"><path d="M2751.8 1187a94.73 94.73 0 0 1 18.42-11.14c12.93-6 35.82-16.14 56.74-23.26 31.34-10.69 51.5-31.38 22.28-42.54s-1.55-31.44 8.6-41.86 15.57-24.57-5.89-33.28-7.18-22.47 5.63-39.13c9.61-12.49 16.32-42.64.15-54.12-5.39-3.82-13.32-5.57-24.54-3.9-44.86 6.69-45.12 70.55-71.82 51.36s-74.33 5-57.3 34.54-4.17 40.87-19.8 38.3-36.9 11.08-15.81 36.78 26.11 132.7 26.11 132.7Z" style="fill:url(#Безымянный_градиент_24-7)"/></g><path d="m2695.08 1231.6-1-.36c60.66-176.62 162.26-288.85 163.28-290l.8.73c-1.05 1.15-102.5 113.23-163.08 289.63Z" style="fill:url(#Безымянный_градиент_23-13)"/><path d="m2766.47 1072.97-50.09-84.87.94-.56 49.67 84.17 98.98-25.22.27 1.06-99.77 25.42z" style="fill:url(#Безымянный_градиент_23-14)"/><path d="m2733.02 1137.24-.18-.17-71.7-65.23.73-.8 71.52 65.07 129.96-13.1.11 1.08-130.44 13.15z" style="fill:url(#Безымянный_градиент_23-15)"/><g style="mask:url(#mask-48)"><path d="M2740.55 1942.21s-64.82-182.58 90.69-251.13 245.53-6.63 260.58 47.86 19.69 161-166.19 201.4c-143.33 31.13-185.08 1.87-185.08 1.87Z" style="fill:url(#Безымянный_градиент_28-2)"/></g><g style="mask:url(#mask-49)"><path d="m2741.65 1943.21-2.2-2c2-2.21 203.48-221.33 336.81-233.16l.26 3c-132.19 11.7-332.86 229.95-334.87 232.16Z" style="fill:url(#Безымянный_градиент_26-8)"/></g><g style="mask:url(#mask-50)"><path d="m3094.29 1817.79-152.4-51.02 17.07-106.16 2.93.47-16.66 103.67 150 50.22-.94 2.82z" style="fill:url(#Безымянный_градиент_26-9)"/></g><g style="mask:url(#mask-51)"><path d="m3026.26 1904.21-174.01-69.15.01-1.02.83-152.47 2.98.02-.83 151.45 172.12 68.4-1.1 2.77z" style="fill:url(#Безымянный_градиент_26-10)"/></g><g style="mask:url(#mask-52)"><path d="m2925.01 1941.69-126.66-58-.11-.82-19.63-158.79 2.96-.37 19.53 157.97 125.15 57.31-1.24 2.7z" style="fill:url(#Безымянный_градиент_26-11)"/></g><g style="mask:url(#mask-53)"><path d="m2595.79 1894.29-1.85-2.28c.43-.35 43.87-35.94 87.06-93.32 39.81-52.89 87.55-135.64 88.9-229.54 1.42-98.25 42.31-196.44 76.37-261.51 41.1-78.52 86.2-137.21 106.37-159.51l2.18 2c-46.39 51.28-179.38 238.34-182 419.09-1.37 94.72-49.44 178.08-89.54 231.33-43.38 57.61-87.05 93.39-87.49 93.74Z" style="fill:url(#Безымянный_градиент_26-12)"/></g><g style="mask:url(#mask-54)"><path d="M2711.76 1756.2s-134.4-46.62-89.94-97.32c42.6-48.59 87.93 41.61 89.94 97.32Z" style="fill:url(#Безымянный_градиент_26-13)"/></g><g style="mask:url(#mask-55)"><path d="M2766.61 1628.84s-140.65-26.73-105.33-83.2c33.84-54.11 93.9 28.45 105.33 83.2Z" style="fill:url(#Безымянный_градиент_26-14)"/></g><path d="M2782.15 1504.08s-142-33.1-103.26-89.19c37.11-53.74 94.31 32.92 103.26 89.19Z" style="fill:url(#Безымянный_градиент_20-9)"/><path d="M2804.2 1401.55s-120.84-76.29-63.39-116.57c55.04-38.59 76.12 60.92 63.39 116.57Z" style="fill:url(#Безымянный_градиент_20-10)"/><path d="M2848.65 1304.48s-85.72-109.42-16.87-129.45c65.97-19.19 49.28 81.03 16.87 129.45Z" style="fill:url(#Безымянный_градиент_20-11)"/><g style="mask:url(#mask-56)"><path d="M2954.75 1150.87s13.08-134.37 79.35-108c63.49 25.33-20.42 90.98-79.35 108Z" style="fill:url(#Безымянный_градиент_19-4)"/></g><g style="mask:url(#mask-57)"><path d="M2914.05 1199.08s-106.76-92.39-43.31-124.12c60.8-30.4 65.13 70.92 43.31 124.12Z" style="fill:url(#Безымянный_градиент_19-5)"/></g><path d="M2708.37 1757.34s131.59 53 138.17-11.92c6.3-62.17-94.54-26.7-138.17 11.92Z" style="fill:url(#Безымянный_градиент_20-12)"/><path d="M2763.55 1626.33s121 71.24 138.5 8.09c16.77-60.5-88.83-39.95-138.5-8.09Z" style="fill:url(#Безымянный_градиент_20-13)"/><path d="M2772.28 1499.29s126.82 67.56 141.55 2.47c14.17-62.36-92.5-37.02-141.55-2.47Z" style="fill:url(#Безымянный_градиент_20-14)"/><path d="M2807.32 1400.14s114.1 54.6 124.21-3c9.69-55.14-82.68-29.08-124.21 3Z" style="fill:url(#Безымянный_градиент_20-15)"/><path d="M2853.07 1306.67s141 36.49 137.8-29.93c-3.13-63.64-99.58-14.74-137.8 29.93Z" style="fill:url(#Безымянный_градиент_20-16)"/><g style="mask:url(#mask-58)"><path d="M2913.78 1202.8s117.65 48.47 124.1-9.72c6.18-55.75-84.6-24.62-124.1 9.72Z" style="fill:url(#Безымянный_градиент_19-6)"/></g><path d="M3440.32 2050.12h-642.59c35.07-7.67 54.95-36.7 45.64-71.43L2491.09 663.94c-10.88-40.59-57.41-73.48-103.93-73.48H513.76c-46.53 0-107 32.89-96.09 73.48l342 1276.32h-2.37l42.09 157c7 26.07 36.87 47.2 66.75 47.2h2599.48c29.88 0 48.44-21.13 41.46-47.2s-36.87-47.14-66.76-47.14Z" style="fill:url(#Безымянный_градиент_11)"/><path d="M1948.76 2052.17h889.46l-370.58-1383c-11.64-43.45-56.31-78.67-99.76-78.67l-1471.26 6.71a107.4 107.4 0 0 0-30.23-4.47H513.63c-18.59 0-33.63 2.31-45.85 6.11a57.5 57.5 0 0 0-27.17 13.87c-22.06 17.58-24.33 42.1-23.44 53.5l382.08 1426.62c7 26.06 36.88 47.19 66.76 47.19h1078.84c29.89 0 48.45-21.13 41.47-47.19-4.65-17.33-19.41-32.46-37.56-40.67Z" style="fill:url(#Безымянный_градиент_11-2)"/><path d="M2914.82 2052.17H872.94l-370.58-1383c-11.65-43.45 14.14-78.67 57.59-78.67h1884.53c43.45 0 88.11 35.22 99.76 78.67Z" style="fill:url(#Безымянный_градиент_10)"/><path d="M941.46 1974.73 598.11 693.33h1862.9l343.35 1281.4H941.46z" style="fill:url(#Безымянный_градиент_3)"/><path d="M1077.51 1974.73 793.33 914.16a49.8 49.8 0 0 1 48.11-62.69h1513.63a71 71 0 0 1 68.56 52.6l286.88 1070.66Z" style="fill:url(#Безымянный_градиент_8)"/><path d="M2491.87 807.41H628.39l-32.97-123.06h1863.47l32.98 123.06z" style="fill:url(#Безымянный_градиент_8-2)"/><path d="M1743.81 775.12h-1040a29.24 29.24 0 0 1 0-58.48h1040a29.24 29.24 0 0 1 0 58.48Zm384.04-.71h-75.91c-20.25 0-40.11-12.65-44.28-28.19a20.28 20.28 0 0 1 3.37-18c5.31-6.92 14.9-10.89 26.32-10.89h75.91c20.25 0 40.11 12.65 44.27 28.2a20.29 20.29 0 0 1-3.37 18c-5.31 6.91-14.9 10.88-26.31 10.88Zm-90.5-54.41c-10.6 0-19.44 3.6-24.25 9.87a17.54 17.54 0 0 0-2.93 15.73c3.89 14.48 22.62 26.26 41.77 26.26h75.91c10.6 0 19.44-3.59 24.25-9.86a17.51 17.51 0 0 0 2.92-15.73c-3.88-14.49-22.61-26.27-41.76-26.27Z" class="cls-156"/><path d="M2394 773.11h-76c-19.73 0-39-12.19-43-27.23s8.7-27.23 28.43-27.23h75.91c19.73 0 39 12.19 43 27.23s-8.66 27.23-28.34 27.23Z" style="fill:#b6db8b"/><path d="M1937.82 774.41h-75.91c-20.25 0-40.11-12.65-44.28-28.19a20.28 20.28 0 0 1 3.37-18c5.31-6.92 14.9-10.89 26.31-10.89h75.92c20.24 0 40.1 12.65 44.27 28.2a20.29 20.29 0 0 1-3.37 18c-5.31 6.91-14.9 10.88-26.31 10.88ZM1847.31 720c-10.6 0-19.43 3.6-24.25 9.87a17.51 17.51 0 0 0-2.92 15.73c3.88 14.48 22.62 26.26 41.77 26.26h75.91c10.6 0 19.44-3.59 24.25-9.87a17.49 17.49 0 0 0 2.92-15.72c-3.88-14.49-22.62-26.27-41.76-26.27Z" class="cls-156"/><path d="M1720.13 761.56c-11.4 0-22.71-8.85-25.74-20.14-1.55-5.78-.6-11.49 2.6-15.66s8-6.34 13.77-6.34c11.4 0 22.71 8.85 25.74 20.14 1.55 5.78.6 11.49-2.6 15.66s-8.03 6.34-13.77 6.34Zm-9.37-35a9.84 9.84 0 0 0-8.08 3.53c-1.85 2.42-2.33 5.77-1.35 9.43 2.15 8 10.76 14.82 18.8 14.82a9.84 9.84 0 0 0 8.08-3.53c1.85-2.42 2.33-5.77 1.35-9.43-2.15-8-10.76-14.78-18.8-14.78Z" class="cls-158"/><path d="M1750.74 773.25a3.61 3.61 0 0 1-2.21-.76L1728.79 757a3.59 3.59 0 1 1 4.43-5.65l19.74 15.5a3.59 3.59 0 0 1-2.22 6.41Z" class="cls-158"/><path d="M2432.48 937.11h-1633l278.03 1037.62h1633L2432.48 937.11z" style="fill:url(#Безымянный_градиент_8-3)"/><path d="M1262.13 1564.41H928c-22.08 0-45-18.06-50.9-40.14L726.06 960.46c-5.92-22.08 7.31-40.14 29.39-40.14h334.09c22.08 0 45 18.06 50.91 40.14l151.07 563.81c5.91 22.08-7.31 40.14-29.39 40.14Z" style="fill:url(#Безымянный_градиент_8-4)"/><g style="clip-path:url(#clip-path)"><ellipse cx="996.61" cy="1196.36" class="cls-156" rx="77.32" ry="101.5" transform="matrix(.52 -.86 .86 .52 -542.28 1433.7)"/><path d="M976.48 1139c-8.47 0-17.24-6.75-19.73-15.27l-11.37-38.89c-2.53-8.64 2.38-15.82 11-16s17.59 6.63 20.12 15.27l11.37 38.89c2.52 8.64-2.39 15.82-11 16Z" class="cls-156"/><path d="M955.59 1065.94c-7.31.18-11.94 5.41-11.6 12.3l6.91 23.65c2.49 8.51 11.27 15.27 19.73 15.27h.37c7.31-.18 11.94-5.42 11.6-12.3l-6.91-23.65c-2.51-8.65-11.48-15.43-20.1-15.27Z" class="cls-156"/><path d="M993.29 1024.67c9.47 35.36-8.25 75.41-31.73 75.41-17.79 0-62.67-40-72.14-75.41s6.09-64 34.78-64 59.61 28.64 69.09 64Zm-9.41 130.76-23.3-25.26 27.03 2.67-3.73 22.59z" class="cls-156"/><path d="m954.72 1136.18 22.06 46.95h29.88l-8.83-55.96-23.76 6.86-19.35 2.15z" class="cls-156"/><path d="M930.66 1123.19c6 7.71 24.86 32.87 35 32.42 11.95-.54 5.55-17.79 14.53-12.81s13.78 16.9 19.83 12.27c5.79-4.42 14.31-19.73 9.29-37.38a119 119 0 0 0-24.35-5.18c-3.63-.38 4.63 20.5-9.64 19.86-18.48-.83-16.88-19.68-23.47-18.14a69.43 69.43 0 0 0-21.19 8.96Z" class="cls-162"/><path d="M950.12 1109.05a1.56 1.56 0 0 1 2.09.87c2 4.38 8 15.64 19.47 20.55 12.45 5.31 12.38-16.41 12.12-22.55 0-.8.75-1.2 1.58-.82l19 8.72a1.75 1.75 0 0 1 1 1.32c.41 4.42 1.54 24-10.09 32.7a1.44 1.44 0 0 1-1.7-.26L976 1134c-.68-.6-1.6-.58-1.92 0l-8.27 15.86a1.13 1.13 0 0 1-1.69.22c-4.47-2.93-20.53-14.13-29.29-29.11a1.07 1.07 0 0 1 .18-1.47ZM902.9 1057c-1.88-2.56-2.26-4.87.64-3.85 5.09 1.8 14.76 6.14 21.67 4.74 11.7-2.37 6-7.59 29.74-7.59 14.26 0 14.68 5.22 27.83 4.75s13.21-10.91 13.91-4.75-1.08 24.61-3.38 29.88c-5.58 12.81-14.34 22.3-27.7 22.3s-24.83-9.49-35.66-18c-7.74-6.1-21.01-19.25-27.05-27.48Zm-4.9-8.56s5.45 6.16 3.83 1.89-16.31-50.27-2.59-52.17 51.16 3.32 61.65 0 26.29 11.39 34.46 43.64c0 0 4.44 9.48 3.54-1s-6.59-37-13.6-50.75 3.71-18 4-24.19-10.82-1.42-38.12-9.48-69.26-14.23-67.94 26.08c-.04.05-9.14 35.15 14.77 65.98Z" class="cls-156"/><path d="M891.89 1042.46c2.5 6.92 6.41 12.35 8.73 12.12s2.19-6-.32-12.93-6.41-12.34-8.73-12.11-2.19 6.01.32 12.92Zm100.28-1.13c.68 6.85 3.23 12.73 5.69 13.13s3.93-4.83 3.25-11.68-3.22-12.72-5.69-13.12-3.92 4.83-3.25 11.67Z" class="cls-156"/></g><path d="M860.84 1237.71c-12.48 0-24.86-9.73-28.19-22.17-1.7-6.31-.68-12.53 2.78-17s8.65-6.82 14.84-6.82c12.48 0 24.87 9.74 28.2 22.17 1.69 6.32.67 12.53-2.79 17.05s-8.68 6.77-14.84 6.77Zm-10.57-39.46c-4.1 0-7.51 1.51-9.62 4.25-2.24 2.92-2.83 7-1.65 11.34 2.55 9.54 12.35 17.3 21.84 17.3 4.1 0 7.51-1.51 9.62-4.25 2.24-2.93 2.83-7 1.65-11.35-2.55-9.54-12.35-17.29-21.84-17.29Zm43.47 162.25c-12.48 0-24.86-9.74-28.19-22.17-1.7-6.32-.68-12.53 2.79-17s8.64-6.82 14.83-6.82c12.48 0 24.87 9.73 28.2 22.17 1.69 6.32.67 12.53-2.79 17s-8.65 6.82-14.84 6.82Zm-10.57-39.5c-4.1 0-7.51 1.51-9.62 4.26-2.24 2.92-2.83 7-1.65 11.34 2.56 9.53 12.36 17.29 21.84 17.29 4.1 0 7.51-1.51 9.62-4.25 2.24-2.92 2.83-7 1.65-11.34-2.55-9.51-12.35-17.3-21.84-17.3Zm43.47 162.29c-12.48 0-24.86-9.74-28.19-22.17-1.7-6.32-.68-12.53 2.79-17s8.64-6.83 14.83-6.83c12.48 0 24.87 9.74 28.2 22.17 1.69 6.32.67 12.54-2.79 17s-8.65 6.83-14.84 6.83Zm-10.57-39.47c-4.1 0-7.51 1.51-9.62 4.25-2.24 2.93-2.83 7-1.65 11.34 2.56 9.54 12.35 17.3 21.84 17.3 4.1 0 7.52-1.51 9.62-4.25 2.24-2.93 2.83-7 1.65-11.34-2.55-9.54-12.35-17.3-21.84-17.3Zm141.64-232.42H893.26a3.29 3.29 0 1 1 0-6.57h164.45a3.29 3.29 0 1 1 0 6.57Zm110.39 27.41H928a3.29 3.29 0 1 1 0-6.58h240.1a3.29 3.29 0 1 1 0 6.58Zm5.02 18.73H933a3.29 3.29 0 1 1 0-6.58h240.09a3.29 3.29 0 1 1 0 6.58Zm5.02 18.73H938.05a3.29 3.29 0 1 1 0-6.58h240.09a3.29 3.29 0 0 1 0 6.58Zm5.02 18.73H943.07a3.29 3.29 0 0 1 0-6.58h240.09a3.29 3.29 0 0 1 0 6.58Zm-92.63 38.92H926.09a3.29 3.29 0 0 1 0-6.58h164.44a3.29 3.29 0 0 1 0 6.58Zm110.4 27.4H960.84a3.29 3.29 0 1 1 0-6.57h240.09a3.29 3.29 0 1 1 0 6.57Zm5.07 18.73H965.86a3.29 3.29 0 1 1 0-6.57H1206a3.29 3.29 0 1 1 0 6.57Zm5 18.73H970.88a3.29 3.29 0 1 1 0-6.58H1211a3.29 3.29 0 0 1 0 6.58Zm5 18.73H975.89a3.29 3.29 0 0 1 0-6.58H1216a3.29 3.29 0 0 1 0 6.58Zm-94 33.98H957.59a3.29 3.29 0 1 1 0-6.57H1122a3.29 3.29 0 1 1 0 6.57Zm110.44 27.41h-240.1a3.29 3.29 0 0 1 0-6.58h240.1a3.29 3.29 0 0 1 0 6.58Zm5.01 18.73H997.36a3.29 3.29 0 1 1 0-6.58h240.09a3.29 3.29 0 0 1 0 6.58Zm5.02 18.73h-240.09a3.29 3.29 0 1 1 0-6.58h240.09a3.29 3.29 0 0 1 0 6.58Zm5.02 18.73H1007.4a3.29 3.29 0 1 1 0-6.58h240.09a3.29 3.29 0 0 1 0 6.58Z" class="cls-156"/><g style="clip-path:url(#clip-path-2)"><path d="M2247 785.07c-3.59-13.4-18.53-24.26-33.37-24.26s-24 10.86-20.37 24.26 18.53 24.27 33.37 24.27 23.92-10.87 20.37-24.27Z" class="cls-156"/><path d="M2214.3 768.58a6.32 6.32 0 0 1-5.7-4.39l-3.27-11.19c-.73-2.48.7-4.54 3.18-4.6a6.31 6.31 0 0 1 5.81 4.38l3.27 11.18c.72 2.49-.7 4.55-3.18 4.61Z" class="cls-156"/><path d="M2208.29 747.59a3.26 3.26 0 0 0-3.36 3.54l2 6.79a6.32 6.32 0 0 0 5.7 4.39h.11a3.26 3.26 0 0 0 3.36-3.54l-2-6.79a6.3 6.3 0 0 0-5.81-4.39Z" class="cls-156"/><path d="M2219.2 735.73c2.73 10.16-2.41 21.67-9.2 21.67-5.14 0-18.09-11.51-20.82-21.67s1.79-18.4 10.08-18.4 17.22 8.24 19.94 18.4Zm-2.77 37.58-6.73-7.26 7.82.77-1.09 6.49z" class="cls-156"/><path d="m2208.01 767.78 6.35 13.49h8.64l-2.53-16.08-6.87 1.97-5.59.62z" class="cls-156"/><path d="M2201.06 764c1.74 2.22 7.17 9.45 10.09 9.32 3.45-.15 1.61-5.11 4.2-3.68s4 4.86 5.73 3.53 4.14-5.67 2.7-10.75a35.59 35.59 0 0 0-7-1.49c-1-.1 1.33 5.9-2.79 5.71-5.34-.24-4.87-5.65-6.78-5.21a20.33 20.33 0 0 0-6.15 2.57Z" class="cls-162"/><path d="M2206.69 760a.44.44 0 0 1 .6.25 11.71 11.71 0 0 0 5.62 5.91c3.6 1.52 3.59-4.72 3.52-6.48 0-.23.21-.35.45-.24l5.5 2.51a.5.5 0 0 1 .3.38c.11 1.27.43 6.89-2.94 9.39a.41.41 0 0 1-.49-.07l-5.09-4.48c-.2-.17-.47-.17-.56 0l-2.4 4.56a.33.33 0 0 1-.48.06c-1.29-.84-5.93-4.06-8.46-8.36a.33.33 0 0 1 0-.43Zm-13.62-15c-.55-.74-.66-1.4.18-1.11 1.47.52 4.27 1.77 6.26 1.37 3.38-.69 1.75-2.18 8.6-2.18 4.12 0 4.24 1.49 8 1.36s3.82-3.14 4-1.36a28.28 28.28 0 0 1-1 8.58c-1.62 3.68-4.16 6.41-8 6.41s-7.17-2.73-10.3-5.18a53.41 53.41 0 0 1-7.74-7.89Zm-1.42-2.44s1.57 1.77 1.11.55-4.7-14.45-.73-15 14.79 1 17.82 0 7.6 3.27 9.94 12.54c0 0 1.28 2.73 1-.27s-1.89-10.63-3.91-14.59 1.08-5.18 1.15-6.95-3.12-.41-11-2.72-20-4.09-19.65 7.49a23.4 23.4 0 0 0 4.27 18.95Z" class="cls-156"/><path d="M2189.89 740.84c.72 2 1.85 3.55 2.52 3.49s.63-1.73-.09-3.72-1.85-3.55-2.52-3.48-.63 1.73.09 3.71Zm28.99-.32c.19 2 .92 3.66 1.63 3.77s1.14-1.39.95-3.35-.93-3.66-1.64-3.78-1.14 1.39-.94 3.36Z" class="cls-156"/></g><path d="M2243.15 768.44a2.38 2.38 0 0 1-2.3-1.77l-7.65-28.53a2.39 2.39 0 0 1 4.61-1.24l7.64 28.54a2.38 2.38 0 0 1-1.68 2.92 2.25 2.25 0 0 1-.62.08Z" class="cls-156"/><path d="M2253.68 754.17H2225a2.39 2.39 0 1 1 0-4.77h28.7a2.39 2.39 0 0 1 0 4.77Z" class="cls-156"/><g style="clip-path:url(#clip-path-3)"><path d="m1564.4 685.38-193.21 1280.61-249.21 52.23-237.74-52.23L534.55 660.92l1015.1-30.57 14.75 55.03zm124.08-30.57-169.21 1363.41h119.98l149.41-1363.41h-100.18z" style="opacity:.35;fill:#fff"/></g><path d="M1465.64 2113.88h-89.05a17.13 17.13 0 0 1 0-34.25h89.05a17.13 17.13 0 0 1 0 34.25Z" style="fill:url(#Безымянный_градиент_9)"/><path d="M1289.84 2113.88h-89a17.13 17.13 0 1 1 0-34.25h89a17.13 17.13 0 1 1 0 34.25Z" style="fill:url(#Безымянный_градиент_9-2)"/><path d="M1113.26 2113.88H1111a17.13 17.13 0 1 1 0-34.25h2.28a17.13 17.13 0 1 1 0 34.25Z" style="fill:url(#Безымянный_градиент_9-3)"/><path d="M2355.71 918.39c-15 0-30.41-12.16-34.42-27.11-2-7.56-.89-14.64 3.18-19.94 3.88-5.06 10-7.85 17.23-7.85 15 0 30.4 12.16 34.41 27.12 2 7.55.9 14.63-3.17 19.94-3.88 5.06-10 7.84-17.23 7.84Zm-14-52.3c-6.41 0-11.79 2.43-15.17 6.83-3.57 4.65-4.53 10.93-2.72 17.69 3.72 13.88 18 25.18 31.9 25.18 6.4 0 11.79-2.42 15.17-6.83 3.56-4.64 4.53-10.92 2.72-17.68-3.73-13.89-18.04-25.19-31.91-25.19Zm-60.42 52.3c-15 0-30.41-12.16-34.42-27.11-2-7.56-.9-14.64 3.17-19.94 3.88-5.06 10-7.85 17.23-7.85 15 0 30.41 12.16 34.42 27.12 2 7.55.89 14.63-3.17 19.94-3.89 5.06-10.01 7.84-17.23 7.84Zm-14-52.3c-6.4 0-11.79 2.43-15.17 6.83-3.56 4.65-4.53 10.93-2.72 17.69 3.72 13.88 18 25.18 31.91 25.18 6.4 0 11.79-2.42 15.16-6.83 3.57-4.64 4.54-10.92 2.72-17.68-3.74-13.89-18.05-25.19-31.92-25.19Zm-61.46 52.3c-15 0-30.41-12.16-34.41-27.11-2-7.56-.9-14.64 3.17-19.94 3.88-5.06 10-7.85 17.23-7.85 15 0 30.41 12.16 34.41 27.12 2 7.55.9 14.63-3.17 19.94-3.88 5.06-10 7.84-17.23 7.84Zm-14-52.3c-6.4 0-11.79 2.43-15.17 6.83-3.56 4.65-4.53 10.93-2.72 17.69 3.72 13.88 18 25.18 31.9 25.18 6.41 0 11.79-2.42 15.17-6.83 3.57-4.64 4.53-10.92 2.72-17.68-3.73-13.89-18.04-25.19-31.91-25.19Z" class="cls-156"/><path d="M1339.17 42.9h-450a22.93 22.93 0 0 0-3.53.31h-215.3C598.92 43.21 541 106.15 541 183.79c0 77.64 57.9 140.58 129.33 140.58h475.54a142.4 142.4 0 0 0 15.19.79c62.84 0 104.09 23.82 129.26 46.79 11.57 10.56 29.34 1.6 29.52-14.83.12-11.64.66-22.93 1.39-33.4h28.36c68.17 0 113.5-72 113.5-146.08.02-74.11-55.75-134.74-123.92-134.74Z" style="fill:url(#Безымянный_градиент_8-5)"/><g style="clip-path:url(#clip-path-4)"><ellipse cx="712.21" cy="300.73" class="cls-156" rx="75.25" ry="68.34"/><path d="M708.37 254.27a12.66 12.66 0 0 1-12.66-12.36l-.77-31.48a12.67 12.67 0 1 1 25.33-.62l.73 31.49a12.67 12.67 0 0 1-12.36 13Z" class="cls-156"/><path d="M707.29 195.15a12.68 12.68 0 0 0-12 10l.47 19.14a12.66 12.66 0 0 0 12.66 12.36h.31a12.68 12.68 0 0 0 12.06-10l-.47-19.14a12.68 12.68 0 0 0-13.03-12.36Z" class="cls-156"/><path d="M746.77 161.74c0 28.63-23 61-42 61-14.39 0-42-32.42-42-61s18.83-51.83 42-51.83 42 23.21 42 51.83ZM710.79 267.6l-13.39-20.45 21.31 2.16-7.92 18.29z" class="cls-156"/><path d="m691.35 252.01 7.68 38.01h24.19l4.99-45.3-20.72 5.55-16.14 1.74z" class="cls-156"/><path d="M674.7 241.49c3.2 6.25 13 26.61 21.26 26.25 9.79-.43 8.35-14.4 14.54-10.37s7.49 13.68 13.39 9.94c5.64-3.58 15.86-16 15.63-30.26a81.11 81.11 0 0 0-18.59-4.2c-2.86-.3-.7 16.6-12.11 16.08-14.78-.68-9.4-15.93-15.07-14.69a74.29 74.29 0 0 0-19.05 7.25Z" class="cls-162"/><path d="M693.51 230.05a1 1 0 0 1 1.51.7c.64 3.55 3.05 12.67 11.31 16.64 8.92 4.3 13.58-13.28 14.7-18.25a1 1 0 0 1 1.45-.67l13.52 7.07a1 1 0 0 1 .53 1.06c-.62 3.58-3.95 19.42-15.26 26.47a1 1 0 0 1-1.32-.21l-10.91-12.62a1 1 0 0 0-1.56 0l-10.14 12.84a1 1 0 0 1-1.41.18c-3-2.37-13.56-11.44-17.4-23.56a1 1 0 0 1 .46-1.2Zm-26.93-42.11c-1-2.07-.78-3.95 1.35-3.12 3.73 1.46 10.62 5 16.51 3.84 10-1.92 6.53-6.14 25.73-6.14 11.54 0 10.75 4.22 21.5 3.84s13.05-8.83 12.28-3.84-6.21 19.92-9.21 24.19c-7.3 10.37-16.45 18-27.26 18s-18.05-7.67-25-14.59c-4.9-4.9-12.79-15.54-15.9-22.18Zm-2.1-6.94s3.07 5 2.68 1.54-2.3-40.7 9.22-42.23 40.7 2.68 49.91 0 18.81 9.21 18.43 35.32c0 0 1.54 7.68 3.07-.77s2.69-30 0-41.08 6.91-14.59 8.45-19.58-8.45-1.15-28.8-7.68-53-11.52-60.66 21.12c0-.02-14.97 28.36-2.3 53.36Z" class="cls-156"/><path d="M660.82 176.15c.52 5.6 2.51 10 4.44 9.81s3.07-4.87 2.55-10.47-2.51-10-4.44-9.81-3.08 4.87-2.55 10.47Zm81.43-.92c-.94 5.55-.15 10.31 1.76 10.63s4.22-3.91 5.16-9.45.15-10.3-1.76-10.63-4.22 3.91-5.16 9.45Z" class="cls-156"/></g><path d="M1154.41 158h-126.67a12.93 12.93 0 1 1 0-25.85h126.67a12.93 12.93 0 1 1 0 25.85Zm-186.13 0H823.51a12.93 12.93 0 0 1 0-25.85h144.77a12.93 12.93 0 1 1 0 25.85Zm186.13 43.28h-101a6.46 6.46 0 0 1 0-12.92h101a6.46 6.46 0 0 1 0 12.92Z" class="cls-156"/><path d="M1056.89 201.28H956.65a6.46 6.46 0 1 1 0-12.92h100.24a6.46 6.46 0 1 1 0 12.92Zm-141.61 0h-91.77a6.46 6.46 0 0 1 0-12.92h91.77a6.46 6.46 0 1 1 0 12.92ZM1154.41 251h-131.84a6.46 6.46 0 0 1 0-12.92h131.84a6.46 6.46 0 0 1 0 12.92Zm-169.33 0H823.51a6.46 6.46 0 0 1 0-12.92h161.57a6.46 6.46 0 1 1 0 12.92Zm356.28 23.14h-96.91a29.85 29.85 0 0 1-29.81-29.82v-96.9a29.85 29.85 0 0 1 29.81-29.82h96.91a29.85 29.85 0 0 1 29.81 29.82v96.9a29.85 29.85 0 0 1-29.81 29.82Zm-96.91-136.66a10 10 0 0 0-9.94 9.94v96.9a10 10 0 0 0 9.94 9.94h96.91a10 10 0 0 0 9.94-9.94v-96.9a10 10 0 0 0-9.94-9.94Z" class="cls-156"/><path d="M1292 250.71a9.53 9.53 0 0 1-6.74-2.79L1242.29 205a9.54 9.54 0 1 1 13.48-13.49L1289.3 225l38.93-78.69a9.54 9.54 0 0 1 17.1 8.46l-44.83 90.61a9.55 9.55 0 0 1-7 5.18 10.21 10.21 0 0 1-1.5.15Z" class="cls-156"/><rect width="501.93" height="215.77" x="2214.83" y="209.35" rx="25.57" style="fill:url(#Безымянный_градиент_7)"/><path d="M2538.83 278.56h-199.18a4 4 0 1 1 0-8h199.18a4 4 0 1 1 0 8Zm124.83 33.19h-290.82a4 4 0 0 1 0-8h290.82a4 4 0 0 1 0 8Zm0 22.69h-290.82a4 4 0 0 1 0-8h290.82a4 4 0 0 1 0 8Zm0 22.68h-290.82a4 4 0 0 1 0-8h290.82a4 4 0 0 1 0 8Zm0 22.69h-290.82a4 4 0 0 1 0-8h290.82a4 4 0 0 1 0 8Zm-414.73-60.21s31-5.44 33-20.4 11.13-22.31 14.84-7-2.25 20.6-2.25 20.6 23.63-3 29 .75 1.73 10.54 0 14.3 7.83 9 0 14.3c0 0 5.27 11.28-2.29 16.55 0 0 9.59 8.28 0 14.3s-61.81 6.13-72.26-4.08Z" class="cls-156"/><path d="M1956.9 550.32S1842 577.26 1696.62 425s289.06-258.17 289.06-258.17l26.39 266Z" style="fill:#743f39"/><path d="m1738.94 639.11 167.23-1.08-1.43-287.99-167.23 1.08 1.43 287.99z" class="cls-173"/><path d="M1905.32 517.1c-25.77 20.63-54.09 33.22-81.25 33.22-29.83 0-59.75-13.55-86-37.33l-.56-98.88 167.23-.95Z" class="cls-174"/><path d="M1672.57 281.76c7.34 133.5 88.8 232.5 169.54 232.5 67.31 0 142-76.43 166.44-164.59a346.06 346.06 0 0 0 8.13-40.64c3.69-25.26 5.76-53.25 4.62-74-7.34-133.5-72.5-209.27-178.71-204.17s-177.35 117.4-170.02 250.9Z" class="cls-173"/><path d="M1711.64 113.47c30.16-48.41 75.81-80 130.95-82.65 54.73-2.63 98.46 16.37 129.1 53.54q18.29 27 33.81 62.66c8.62 25.58 14 55 15.8 88 1.14 20.79-.93 48.78-4.62 74a346.06 346.06 0 0 1-8.13 40.64A268 268 0 0 1 1944 462.25c-2.58-62.8-23.15-134.69-62.39-188-60.58-82.3-93.56-146.13-93.56-146.13s-42.81-3.63-76.41-14.65Z" class="cls-174"/><path d="M1842.59 30.82s-4.78 147.55-105.08 203.55-48.16 124.07 0 223.26c0 0-73.34-27.3-90.36-159s51.73-345.26 195.44-267.81Z" class="cls-175"/><path d="M1655.24 299.38c2.24 40.89 21.1 73.23 37.32 72.45s27.54-34.56 25.3-75.46-16.14-53.73-32.36-53-32.5 15.11-30.26 56.01Zm-104.45 565.44 59 712.9c9 108.39 103.13 188.9 210.31 179.83 94.52-8 167.58-83.07 177.37-175l76.26-711.22c15.64-145.85-88.6-276.91-232.83-292.72S1567.05 668.19 1551.41 814a285.85 285.85 0 0 0-.62 50.82Z" class="cls-173"/><path d="M1960.61 1439.3a22.69 22.69 0 0 0-19.62 20.41C1925.07 1633 1917.93 1806 1913.75 1979h120.17c-11-173.52-25-347-47.86-520.14a22.68 22.68 0 0 0-25.45-19.56Zm-356.49 7.97a22.59 22.59 0 0 0-19.51 22.72l7.7 509h107.44l-70.19-512.38a22.58 22.58 0 0 0-25.44-19.34Z" class="cls-173"/><path d="M1963.52 694.34s-118.7 243.44-263.41 0 0 707.8 0 707.8 98.82 58.6 283.62 0-20.21-707.8-20.21-707.8Z" style="fill:#ffafe0"/><path d="M2051.91 1401.13c-247.35 35.07-460.45 0-460.45 0-86.22 292.19-65.26 409.87-35.66 577.87h542.43c1.23-28.86 2.15-55.31 2.67-78.23 4.51-200.24-48.99-499.64-48.99-499.64Z" class="cls-177"/><path d="m1977.87 727.67 142.67 473.91 6.59 21.89 17 12.15 173.46 124a61.31 61.31 0 1 0 71.32-99.75l-173.46-124 23.57 34L2126 688.05a76.68 76.68 0 0 0-149.3 35c.3 1.51.75 3.18 1.17 4.62Z" style="fill:url(#Безымянный_градиент_3-2)"/><path d="M1898.37 1891.09s-21.4-231.81-27.95-475a1603.7 1603.7 0 0 0 181.49-14.92s40 224 47.89 414c-88.21 75.83-201.43 75.92-201.43 75.92Z" style="fill:#1e1e1e;opacity:.29;mix-blend-mode:multiply"/><path d="M1604.12 1447.27a22.59 22.59 0 0 0-19.51 22.72l7.7 509h107.44l-70.19-512.38a22.58 22.58 0 0 0-25.44-19.34Zm356.49-7.97a22.71 22.71 0 0 0-19.63 20.41c-15.9 173.31-23 346.32-27.22 519.25h120.16c-11-173.52-25-347-47.86-520.14a22.68 22.68 0 0 0-25.45-19.52Z" class="cls-174"/><path d="M2107.58 905.08c7.58-54.59 29-244.24-35.23-269-75.14-28.9-166.18-59.08-166.18-59.08s-28.45 189.45-58.87 469c-15.76 144.77-19.79 563.21-20 933h292.79c-12.25-277.44-26-585-32.7-726.56-11.39-238.03 46.11-240.21 20.19-347.36Z" style="fill:url(#Безымянный_градиент_3-3)"/><path d="M1738.63 577s-86.91 30.16-162.05 59.09-42.22 288.15-42.22 288.15 58.2 187.84 19.53 378.69c-34.17 168.66-40.44 432.27-36.63 676h348.66c-4.26-369.77-12.47-788.21-28.23-933-30.42-279.46-99.06-468.93-99.06-468.93Z" style="fill:url(#Безымянный_градиент_3-4)"/><path d="M1956.9 1532.88h378.43l135.25-562.21h-378.43l-135.25 562.21z" class="cls-182"/><path d="M1965.92 1541.89h378.42l135.25-562.2h-378.42l-135.25 562.2z" class="cls-177"/><path d="M2179.77 1009.91h189.4l10.69-35.9h-189.39l-10.7 35.9z" class="cls-158" style="opacity:.38;mix-blend-mode:multiply"/><path d="M2216.56 994.3h119.75l3.38-15.94h-119.74l-3.39 15.94z" class="cls-182"/><path d="M2406.24 1284.63s-35.15 25.09-66.55 27.34-33.8 69.54 0 89.16 56.3 21.54 66.55 0 30.1-133.47 0-116.5Zm-900.46 337.71s27.45 96.31 35.87 164 88 136.37 144.85 124.26-61.13-194.25-61.13-194.25l-31.28-85Z" class="cls-173"/><path d="m2012.07 613.73-64.85 191.81L1984 837.1l-141.38 292.42s56.4-448.46 76.88-548.06c18.39 6.23 53.91 18.34 92.57 32.27Z" style="fill:url(#Безымянный_градиент_3-5);opacity:.68;mix-blend-mode:multiply"/><path d="M1720.3 1677.14h-190.28v-31.03h190.28zm0-662.02h-136.75v-28.8h136.75zm370.82 662.02H1941.2v-31.03h149.92z" class="cls-156"/><path d="M1727.09 581.05c11.23 34.24 101 314.49 111.62 548.47l-128.28-280.4 24-46.59-87.28-192.83a6854.99 6854.99 0 0 1 79.94-28.65Z" style="fill:url(#Безымянный_градиент_4);opacity:.68;mix-blend-mode:multiply"/><path d="m1505.78 1622.34 88.3 9.08 31.29 84.95s4.86 7.51 12.08 19.48l-96.8 43c-9.38-67.08-34.87-156.51-34.87-156.51Z" class="cls-174"/><path d="m1650.58 1698.12-186-418.44 193.64-546.21a76.64 76.64 0 1 0-144.48-51.21l-203.84 575a76.66 76.66 0 0 0 2.2 56.73l198.37 446.38Z" style="fill:url(#Безымянный_градиент_3-6)"/><path d="M1906.17 563.6 1996 608l-66.81 197.56 36.74 31.56-123.35 265.37s45.09-495.31 63.59-538.89ZM1738.63 577s92.54 273.91 103.94 525.45L1723.3 849.12l24-46.59-89.14-196.86s45.41-34.56 79.3-42.07Z" class="cls-156"/><path d="M1812.61 126.29s33 63.83 93.56 146.13 76.95 209 50.73 277.9c0 0 162.14-105.69 104-316S1900.69-47.11 1750.39 30.57s62.22 95.72 62.22 95.72Z" class="cls-175"/><path d="M1812.61 126.29s33 63.83 93.56 146.13 76.95 209 50.73 277.9c0 0 162.14-105.69 104-316S1900.69-47.11 1750.39 30.57s62.22 95.72 62.22 95.72Z" class="cls-175"/></g></g></g></svg>