<svg xmlns="http://www.w3.org/2000/svg" viewBox="0 0 790 362.79"><defs><style>.cls-1{fill:#acacac}.cls-2{fill:#5f3e3b}.cls-3{fill:#523533}.cls-4{fill:#724c49}.cls-5{fill:#e36185}.cls-6{fill:#f27997}.cls-7{fill:#f4cebb}.cls-8{fill:#f0a087}.cls-9{fill:#7b7b7b}.cls-10{fill:#f2b49f}.cls-11{fill:#333}.cls-12{fill:#fff}.cls-13{fill:#ad3b42}.cls-14{fill:#ff7882}.cls-15{fill:#de6b71}.cls-16{fill:#923850}</style></defs><g id="Capa_2" data-name="Capa 2"><g id="Health"><g id="Woman"><ellipse cx="122.74" cy="347" class="cls-1" rx="81.93" ry="15.79"/><path d="M227.16 62s3.93 20.42-22.84 21.81a18 18 0 0 1-5.46 3.58 13.79 13.79 0 0 1-13.64-1.43c-10.29-6.93-8.79-25.47-7.29-33.05 1.37-7-1.09-25.12-6.34-27.56a2.7 2.7 0 0 0-1.43-.25l-4.93-5.87S167.37 7.74 175.09 3a13.23 13.23 0 0 1 3.4-1.51c7.37-2.12 13.64-.28 17.78 4a19.55 19.55 0 0 1 5.14 11.37c.06.48.11 1 .16 1.47 1.08 11.11 0 27.93 6.43 32.53 7.52 5.41 16.34-.31 15.69-7.05a21.62 21.62 0 0 1 4.8 7.17A11 11 0 0 1 227.16 62Z" class="cls-2"/><path d="M204.32 83.78s-19.66-5.6-18.41-22.07c0 0 7.12 15.65 23.22 14.82s18-14.57 18-14.57 3.96 20.42-22.81 21.82Z" class="cls-3"/><path d="M227.16 62s-12.16 6.9-20.91-5.43c0 0 17 10.74 22.24-5.6A11 11 0 0 1 227.16 62Zm-28.3 25.35a13.77 13.77 0 0 1-13.63-1.43c-10.3-6.93-8.8-25.47-7.31-33.05 1.38-7-1.08-25.12-6.33-27.56 11.2 5.89 7.71 32.41 9.65 46.24 2.04 14.53 17.62 15.8 17.62 15.8Z" class="cls-3"/><path d="M208 50.85c-9.47-1.63-5.7-27.5-10.37-39.36S175.08 3.31 175.09 3a13.23 13.23 0 0 1 3.4-1.51c7.37-2.12 13.64-.28 17.78 4a19.55 19.55 0 0 1 5.14 11.37c.06.48.11 1 .16 1.47 1.08 11.1.04 27.92 6.43 32.52Z" class="cls-4"/><path d="M171.61 20.32s5.81-.67 8.35-.1 4.55 1.67 4.81 3.19-5.33 10-7.06 9.92-8.05-5.33-9.45-8.41ZM169.94 19s-.64-5.81-1.76-8.16-2.64-4.06-4.17-4-8.56 7.42-8.11 9.09 7 6.66 10.31 7.34Z" class="cls-5"/><path d="m169.826 17.559 2.799 2.232a1.33 1.33 0 0 1 .21 1.869L170 25.217a1.34 1.34 0 0 1-1.884.213l-2.799-2.232a1.34 1.34 0 0 1-.212-1.884l2.83-3.55a1.34 1.34 0 0 1 1.892-.205Z" class="cls-6"/><path d="M13.85 209.88s-8.77 4.84-12.23 12.45-.69 8.54 1.85 7.38c0 0-1.62 11.78 3.45 10.74 0 0 .93 5.11 5.08 2.72 0 0 2.31 2.85 4.62 0s1.38-12.07 3.46-13.69 3.69 10.38 6.69 9.92 1.38-5.71 1.84-8.16 2.77-7.68 1.62-13.6c0 0 23.55-13.3 33.34-36.14 0 0 23.24-14.17 34-32.1 11.2-18.64 7.09-33.55-4.41-33.94S52 128.15 35.3 151.29s-21.45 58.59-21.45 58.59Z" class="cls-7"/><path d="M12 243.61a.44.44 0 0 1-.42-.36c-1.27-7 2.68-14.58 3.86-16a.64.64 0 0 1 .48-.28.43.43 0 0 1 .2.81c-.75.76-5 8.25-3.69 15.31a.43.43 0 0 1-.35.5Zm-5.08-2.73a.43.43 0 0 1-.42-.36c-1.87-11.07 4.16-16.12 4.42-16.33a.43.43 0 0 1 .6.06.42.42 0 0 1-.06.61c-.06 0-5.89 5-4.11 15.52a.43.43 0 0 1-.35.49Zm-3.45-10.73h-.05a.42.42 0 0 1-.38-.48 14.42 14.42 0 0 1 4.33-8.57.43.43 0 1 1 .57.65 13.83 13.83 0 0 0-4 8 .43.43 0 0 1-.47.4Z" class="cls-8"/><path d="M240.85 209.88s8.76 4.84 12.22 12.45.7 8.54-1.84 7.38c0 0 1.62 11.78-3.46 10.74 0 0-.92 5.11-5.08 2.72 0 0-2.3 2.85-4.61 0s-1.38-12.07-3.46-13.69-3.69 10.38-6.69 9.92-1.38-5.71-1.84-8.16-2.77-7.68-1.62-13.6c0 0-23.55-13.3-33.34-36.14 0 0-23.24-14.17-34-32.1-11.19-18.64-7.08-33.55 4.42-33.94s41.2 12.69 57.87 35.83 21.43 58.59 21.43 58.59Z" class="cls-7"/><path d="M242.7 243.61h-.08a.43.43 0 0 1-.35-.5c1.28-7.06-3-14.55-3.69-15.31a.43.43 0 0 1 .2-.81.64.64 0 0 1 .48.28c1.18 1.41 5.13 9 3.86 16a.44.44 0 0 1-.42.34Zm5.07-2.73h-.07a.43.43 0 0 1-.35-.49c1.78-10.58-4-15.47-4.11-15.52a.43.43 0 0 1-.07-.61.44.44 0 0 1 .61-.06c.26.21 6.29 5.26 4.42 16.33a.44.44 0 0 1-.43.35Zm3.46-10.73a.43.43 0 0 1-.43-.38 13.83 13.83 0 0 0-4-8 .44.44 0 0 1 0-.61.43.43 0 0 1 .61 0 14.35 14.35 0 0 1 4.34 8.57.42.42 0 0 1-.38.48Z" class="cls-8"/><path d="M204.41 253.22c-7.54 21.67-9.38 27.62-11.22 37.74-.79 4.3-1.57 11-3.61 18.42-2.74 10-7.76 21.11-18.16 28.95 0 0 4.06 7.26 3.57 9.59s-3.44 2.46-4.8 1.48c0 0-1.59 1.35-5.16 0a5.89 5.89 0 0 1-5.28-.12 6 6 0 0 1-5.17-.49 3.88 3.88 0 0 1-5.16-.62c-2.58-2.58.74-8 2.7-10.45 0 0-11-19-13.47-27.61-.09-.32-.17-.62-.24-.91-1.84-8.12-9.22-32.28-12-32.83h-.06c-2.77.55-10.15 24.71-12 32.83-.07.29-.14.59-.24.91-2.44 8.63-13.47 27.61-13.47 27.61 2 2.46 5.29 7.87 2.7 10.45a3.88 3.88 0 0 1-5.16.62 6 6 0 0 1-5.16.49 5.91 5.91 0 0 1-5.29.12c-3.57 1.35-5.16 0-5.16 0-1.36 1-4.31.86-4.8-1.48s3.57-9.59 3.57-9.59C71 330.49 66 319.35 63.21 309.38c-2-7.38-2.82-14.12-3.6-18.42-1.85-10.12-3.69-16.07-11.23-37.74S43.06 215 43.06 215h166.67s2.27 16.54-5.32 38.22Z" class="cls-7"/><path d="M204.41 253.22c-7.54 21.67-9.38 27.62-11.22 37.74-.79 4.3-1.57 11-3.61 18.42 0 0-20.37 16.37-50.93.73-.09-.32-.17-.62-.24-.91-1.84-8.12-9.22-32.28-12-32.83h-.06c-2.77.55-10.15 24.71-12 32.83-.07.29-.14.59-.24.91-30.55 15.64-50.93-.73-50.93-.73-2-7.38-2.82-14.12-3.6-18.42-1.85-10.12-3.69-16.07-11.23-37.74S43.06 215 43.06 215h166.67s2.27 16.54-5.32 38.22Z" class="cls-9"/><path d="M82.6 349.86a.46.46 0 0 1-.41-.24 4.82 4.82 0 0 1 .36-5.25.46.46 0 1 1 .71.59 3.89 3.89 0 0 0-.26 4.22.46.46 0 0 1-.19.63.5.5 0 0 1-.21.05Zm5.16 0a.46.46 0 0 1-.39-.22 5.2 5.2 0 0 1 .27-5.68.46.46 0 0 1 .64-.09.45.45 0 0 1 .1.64 4.28 4.28 0 0 0-.23 4.65.45.45 0 0 1-.15.63.42.42 0 0 1-.24.07Zm5.29-.12a.47.47 0 0 1-.37-.19c-1.66-2.26-.08-5.39 0-5.52a.45.45 0 0 1 .62-.2.46.46 0 0 1 .2.62s-1.39 2.75-.07 4.55a.47.47 0 0 1-.1.65.46.46 0 0 1-.28.09Zm5.16-.49a.48.48 0 0 1-.39-.21 5 5 0 0 1 0-5 .46.46 0 0 1 .63-.16.47.47 0 0 1 .16.64 4 4 0 0 0 0 4 .46.46 0 0 1-.14.64.46.46 0 0 1-.26.09Zm71.98.61a.54.54 0 0 1-.21-.05.46.46 0 0 1-.19-.63 3.91 3.91 0 0 0-.26-4.22.46.46 0 0 1 .71-.59 4.82 4.82 0 0 1 .36 5.25.46.46 0 0 1-.41.24Zm-5.19 0a.46.46 0 0 1-.39-.7 4.31 4.31 0 0 0-.22-4.65.45.45 0 0 1 .09-.64.46.46 0 0 1 .64.09 5.18 5.18 0 0 1 .27 5.68.44.44 0 0 1-.39.22Zm-5.26-.12a.46.46 0 0 1-.27-.09.47.47 0 0 1-.1-.65c1.32-1.8-.05-4.53-.07-4.55a.47.47 0 0 1 .2-.62.45.45 0 0 1 .62.2c.07.13 1.65 3.26 0 5.52a.47.47 0 0 1-.38.19Zm-5.16-.49a.46.46 0 0 1-.25-.08.48.48 0 0 1-.14-.64 4.07 4.07 0 0 0 0-4 .46.46 0 1 1 .78-.48 5 5 0 0 1 0 5 .48.48 0 0 1-.39.2Z" class="cls-8"/><path d="M127.86 116.05s28-2.44 34.65 0 49.86 22.37 35.66 61.1a66.26 66.26 0 0 1 6.24 9.79c3.9 7.4 7.75 18 5.32 28.1-4.37 18.18-23.13 34-81.87 33.92h-2.92C66.19 249 47.43 233.22 43.06 215c-2.43-10.11 1.42-20.7 5.32-28.1a65.76 65.76 0 0 1 6.25-9.79c-14.2-38.73 28.95-58.64 35.65-61.1s34.66 0 34.66 0Z" class="cls-6"/><path d="M103.36 184.06c-.7.33-31.51 14.37-53.92 3.79l-1.06-.91a65.76 65.76 0 0 1 6.25-9.79s12.1 13.08 48.73 6.91Zm46.07 0c.7.33 31.51 14.37 53.92 3.79l1.06-.91a66.26 66.26 0 0 0-6.24-9.79s-12.11 13.08-48.74 6.91Z" class="cls-5"/><ellipse cx="127.35" cy="118.07" class="cls-10" rx="23.97" ry="10.45"/><path d="M84.71 45.91a66.72 66.72 0 0 0-.39 26l9 4.79 4-24.69Z" class="cls-3"/><path d="M164.17 74.08c1.82-3.72 9.39-9 13.76-2 4.84 7.8-4.13 27-13.66 22.34-2.38-1.14-1.92-16.63-.1-20.34Z" class="cls-7"/><path d="M166.13 77.43c1-2.12 5.36-5.15 7.85-1.13 2.76 4.45-2.35 15.38-7.8 12.75-1.35-.66-1.09-9.5-.05-11.62Z" class="cls-10"/><path d="M92.5 74.08c-1.82-3.72-9.38-9-13.76-2-4.83 7.8 4.13 27 13.67 22.34 2.37-1.14 1.91-16.63.09-20.34Z" class="cls-7"/><path d="M90.54 77.43c-1-2.12-5.35-5.15-7.85-1.13-2.76 4.45 2.36 15.38 7.8 12.75 1.35-.66 1.09-9.5.05-11.62Z" class="cls-10"/><path d="M144.45 118s16.21 3.61 25-10-2.58-26.24-3.45-29c-1.86-6.16 1.25-24.52-5.18-36.82-7-13.46-20-16.08-28.77-16.08s-27.41 2-33.86 16.08c-5.17 11.33-4.85 33.76-6.81 36.76-2.67 4.1-9.49 17.78-2.85 28.52 8 13 23.66 10.59 23.66 10.59s3.62 5 16.93 5c11.14.01 15.33-5.05 15.33-5.05Z" class="cls-7"/><path d="M175.32 69.42a6.19 6.19 0 0 0-5.71-.06 11.35 11.35 0 0 0-4.25 3.46c-8.51-13.57-14.36-31.07-14.25-31.63-11.55 17-30.37 15.51-30.37 15.51a21.18 21.18 0 0 0 12.19-15.39c-16.61 13-49.15 22-58.88 4.55-4.64-8.32-1.46-16.27 2.7-22a43.56 43.56 0 0 1 8.63-8.8c-4.18 6.28.07 11 7.55 10.19A20.2 20.2 0 0 0 98 23.93c5.54-2.16 10-10.57 19.71-15.43a32.46 32.46 0 0 1 8.67-2.88c1.13-.21 2.24-.38 3.32-.5 15.09-1.73 24.79 4.61 30 9.75a29.85 29.85 0 0 1 4.81 6 15.54 15.54 0 0 1 6.49 3.54 20.38 20.38 0 0 1 5.35 9.05 36.39 36.39 0 0 1 1.19 5.22c2.15 13.98-2.22 30.74-2.22 30.74Z" class="cls-2"/><path d="M175.32 69.42a6.19 6.19 0 0 0-5.71-.06 11.35 11.35 0 0 0-4.25 3.46c-8.51-13.7-14.38-31.07-14.25-31.63 0 0 4.95 15.91 17.12 15 7.54-.57 9.15-10.22 9.29-17.49 2.17 13.96-2.2 30.72-2.2 30.72Z" class="cls-3"/><path d="M151.11 41.19c-11.55 17-30.37 15.51-30.37 15.51a21.18 21.18 0 0 0 12.19-15.39s.9 6.2-2 10.9c.07 0 8.79-1.66 20.18-11.02Zm-18.19.12c-16.61 13-49.15 22-58.88 4.55-4.64-8.32-1.46-16.27 2.7-22-2.1 6.26-3.08 20.22 14.67 24.33 19.26 4.45 40.95-6.59 41.51-6.88Z" class="cls-3"/><path d="M159.72 14.87c-11.89-7.24-32-12.7-45.4 0-14.14 13.4-21.4 10.37-21.4 10.37A20.2 20.2 0 0 0 98 23.93c5.54-2.16 10-10.57 19.71-15.43a32.46 32.46 0 0 1 8.67-2.88c1.13-.21 2.24-.38 3.32-.5 15.08-1.73 24.78 4.61 30.02 9.75Z" class="cls-4"/><path d="M156.61 75.17v.84c-.38 5.61-4.63 10-9.8 10s-9.42-4.43-9.81-10v-.84c0-6 4.4-10.88 9.84-10.88s9.77 4.87 9.77 10.88Z" class="cls-11"/><path d="M156.58 76c-.38 5.61-4.63 10-9.8 10s-9.42-4.43-9.81-10a9.81 9.81 0 0 1 19.61 0Z" class="cls-12"/><path d="M153.82 67.81a4.13 4.13 0 0 0 1.65-.29c.95-.4 1.89-1.2 2-1.07a9.37 9.37 0 0 1-.47 3.32 8.43 8.43 0 0 1-1 2.12Z" class="cls-11"/><ellipse cx="146.74" cy="76.56" class="cls-4" rx="7.11" ry="7.99"/><path d="M150.9 76.8a4.18 4.18 0 1 1-4.16-4.67 4.43 4.43 0 0 1 4.16 4.67Z" class="cls-3"/><path d="M148.57 71a1.83 1.83 0 1 1-1.83-1.82 1.83 1.83 0 0 1 1.83 1.82Z" class="cls-12"/><path d="M137.7 52.18s.62 2.49 1.72 3.38c2.1 1.7 12.52 5.51 19.49-4.54 0-.02-8.62 6.52-21.21 1.16Z" class="cls-3"/><path d="M98.56 75.17a7.87 7.87 0 0 0 0 .84c.38 5.61 4.62 10 9.8 10s9.42-4.43 9.8-10v-.84c0-6-4.4-10.88-9.83-10.88s-9.77 4.87-9.77 10.88Z" class="cls-11"/><path d="M98.6 76c.38 5.61 4.62 10 9.8 10s9.42-4.43 9.8-10a9.81 9.81 0 0 0-19.6 0Z" class="cls-12"/><path d="M101.36 67.81a4.13 4.13 0 0 1-1.65-.29c-.95-.4-1.89-1.2-2-1.07a9.13 9.13 0 0 0 .47 3.32 8.63 8.63 0 0 0 1 2.12Z" class="cls-11"/><ellipse cx="108.43" cy="76.56" class="cls-4" rx="7.11" ry="7.99"/><path d="M104.28 76.8a4.18 4.18 0 1 0 4.15-4.67 4.43 4.43 0 0 0-4.15 4.67Z" class="cls-3"/><path d="M106.61 71a1.83 1.83 0 1 0 1.82-1.82 1.82 1.82 0 0 0-1.82 1.82Z" class="cls-12"/><path d="M117.48 52.18s-.62 2.49-1.73 3.38c-2.1 1.7-12.51 5.51-19.49-4.54 0-.02 8.62 6.52 21.22 1.16Z" class="cls-3"/><path d="M117.7 90.92a.57.57 0 0 1-.22 0 .58.58 0 0 1-.3-.75c.12-.28 3-6.76 9.19-6.76a11.51 11.51 0 0 1 10.55 6 .57.57 0 0 1-1 .49 10.37 10.37 0 0 0-9.52-5.35c-5.47 0-8.12 6-8.14 6.07a.59.59 0 0 1-.56.3Z" class="cls-8"/><path d="M126.37 84.51a.54.54 0 0 1-.25-.06.58.58 0 0 1-.27-.76 11.55 11.55 0 0 0-2.56-13.84.56.56 0 0 1-.06-.8.57.57 0 0 1 .77-.05 12.9 12.9 0 0 1 2.85 15.2.56.56 0 0 1-.48.31Zm4.31 4.93c.47 1 .4 2-.15 2.23s-1.38-.3-1.84-1.27-.4-2 .15-2.22 1.38.3 1.84 1.26Zm-8.91 0c-.46 1-.39 2 .16 2.23s1.37-.3 1.84-1.27.39-2-.16-2.22-1.37.3-1.84 1.26Z" class="cls-8"/><path d="M138.74 110.25h-22.1a.09.09 0 0 1 0-.06c.09-.64 1.16-6.2 5.12-9.31a9.79 9.79 0 0 1 6.24-2.07 9.12 9.12 0 0 1 6.28 2.25c3.64 3.1 4.39 8.49 4.45 9.13a.09.09 0 0 1 .01.06Z" class="cls-13"/><path d="M138.74 110.25h-22.1a.09.09 0 0 1 0-.06c.44-.47 3.93-4.24 11-4.24s10.62 3.77 11 4.24a.09.09 0 0 1 .1.06Z" class="cls-14"/><path d="M134.26 101.06a25.4 25.4 0 0 1-12.47-.18 9.79 9.79 0 0 1 6.21-2.07 9.12 9.12 0 0 1 6.26 2.25Z" class="cls-12"/><ellipse cx="364.46" cy="347" class="cls-1" rx="74.77" ry="15.79"/><path d="M349 317.08c-2.39 9.22-8.52 20.34-8.52 20.34 2 1.93 5.07 8 2.95 10.41s-4.51.19-4.51.19a5.8 5.8 0 0 1-5.44.27c-3.14 1.66-4.89-.18-4.89-.18a6.15 6.15 0 0 1-5.72.28c-1.56.92-5.25.46-5.25-1.66s4.7-8.3 4.7-8.3-2.55-8-5.46-21.3l-.06-.25c-2.93-13.44-.38-23.81 0-26.76s-6.27-10.32-7.87-28 2.84-38.57 2.84-38.57 51.71-10.3 103.84 0c0 0 4.44 20.87 2.84 38.57s-8.24 25.07-7.87 28 2.93 13.32 0 26.76l-.06.25c-2.91 13.29-5.46 21.3-5.46 21.3s4.7 6.18 4.7 8.3-3.68 2.58-5.25 1.66a6.15 6.15 0 0 1-5.72-.28s-1.75 1.84-4.88.18a5.8 5.8 0 0 1-5.44-.27s-2.4 2.21-4.52-.19.92-8.48 2.95-10.41c0 0-6.13-11.12-8.51-20.34-.25-1-.46-1.9-.62-2.8-1.66-9.59-2.69-21.21-3.28-23.23s-9.81-19-10.73-26.74h-.12c-.92 7.74-10.14 24.71-10.73 26.74s-1.62 13.64-3.28 23.23c-.16.9-.37 1.84-.61 2.8" class="cls-7"/><path d="M418.4 262.1c-1.6 17.7-8.24 25.07-7.87 28s2.93 13.32 0 26.76l-.06.25a41.78 41.78 0 0 1-32.13-.05c-.25-1-.46-1.9-.62-2.8-1.66-9.59-2.69-21.21-3.28-23.23s-9.81-19-10.73-26.74h-.12c-.92 7.74-10.14 24.71-10.73 26.74s-1.62 13.64-3.28 23.23c-.16.9-.37 1.84-.61 2.8a41.81 41.81 0 0 1-32.14.05l-.06-.25c-2.93-13.44-.38-23.81 0-26.76s-6.27-10.32-7.87-28 2.84-38.57 2.84-38.57 51.71-10.3 103.84 0c-.02 0 4.42 20.87 2.82 38.57Z" class="cls-9"/><path d="M322.83 348.85a.45.45 0 0 1-.37-.2 3.69 3.69 0 0 1 .49-4.9.46.46 0 1 1 .63.67 2.83 2.83 0 0 0-.37 3.7.45.45 0 0 1-.11.64.44.44 0 0 1-.27.09Zm5.72-.28a.47.47 0 0 1-.39-.22 4.17 4.17 0 0 1-.05-4.53.46.46 0 0 1 .64-.11.46.46 0 0 1 .12.64 3.27 3.27 0 0 0 .07 3.52.45.45 0 0 1-.15.63.42.42 0 0 1-.24.07Zm4.89.18a.47.47 0 0 1-.39-.2c-1.48-2.24.22-4.64.29-4.74a.46.46 0 0 1 .64-.1.46.46 0 0 1 .11.64c-.06.08-1.39 2-.27 3.69a.47.47 0 0 1-.13.64.47.47 0 0 1-.25.07Zm5.44-.27a.47.47 0 0 1-.42-.26 5.21 5.21 0 0 1 .47-5 .46.46 0 1 1 .76.52 4.35 4.35 0 0 0-.4 4 .46.46 0 0 1-.21.61.53.53 0 0 1-.2.13Zm65.7.37a.46.46 0 0 1-.27-.09.47.47 0 0 1-.11-.64 2.8 2.8 0 0 0-.37-3.7.47.47 0 0 1 0-.65.46.46 0 0 1 .66 0 3.71 3.71 0 0 1 .49 4.9.47.47 0 0 1-.4.18Zm-5.72-.28a.44.44 0 0 1-.24-.07.47.47 0 0 1-.15-.63 3.28 3.28 0 0 0 .08-3.52.46.46 0 0 1 .11-.64.45.45 0 0 1 .64.11 4.18 4.18 0 0 1 0 4.53.47.47 0 0 1-.44.22Zm-4.86.18a.48.48 0 0 1-.26-.07.47.47 0 0 1-.13-.64c1.13-1.7-.21-3.61-.26-3.69a.46.46 0 0 1 .1-.64.47.47 0 0 1 .65.1c.07.1 1.76 2.5.28 4.74a.46.46 0 0 1-.38.2Zm-5.46-.27a.47.47 0 0 1-.42-.66 4.35 4.35 0 0 0-.39-4 .46.46 0 0 1 .12-.64.47.47 0 0 1 .64.12 5.22 5.22 0 0 1 .46 5 .46.46 0 0 1-.41.18Z" class="cls-8"/><path d="M281.29 218.92s-7.68 5.91-9.89 13.69.57 8.27 2.84 6.8c0 0 .15 11.51 4.86 9.77 0 0 1.63 4.76 5.26 1.88 0 0 2.62 2.39 4.41-.67s-.42-11.76 1.33-13.61 5 9.4 7.84 8.52.5-5.66.58-8.08.53-8.71-1.44-14.21c0 0 19.51-21.22 25.57-44.5 0 0 20.32-12.2 27.29-31.22 6-16.47 2.48-29.47-8.59-28.18s-31.92 17.13-44.51 41.7-15.55 58.11-15.55 58.11Z" class="cls-7"/><path d="M284.36 251.48a.42.42 0 0 1-.4-.29c-2.23-6.52.45-14.34 1.37-15.86a.66.66 0 0 1 .42-.35.43.43 0 0 1 .48.35.41.41 0 0 1-.16.4c-.61.84-3.56 8.62-1.32 15.19a.41.41 0 0 1-.26.53.31.31 0 0 1-.13.03Zm-5.26-1.88a.43.43 0 0 1-.4-.28c-3.39-10.33 1.65-16 1.86-16.28a.42.42 0 0 1 .59 0 .42.42 0 0 1 0 .6c-.05 0-4.92 5.61-1.68 15.44a.42.42 0 0 1-.27.53.3.3 0 0 1-.1-.01Zm-4.86-9.77a.41.41 0 0 1-.42-.41 13.92 13.92 0 0 1 2.9-8.83.42.42 0 0 1 .64.54 13.36 13.36 0 0 0-2.71 8.27.41.41 0 0 1-.4.43Z" class="cls-8"/><path d="M446 218.92s7.69 5.91 9.9 13.69-.58 8.27-2.84 6.8c0 0-.16 11.51-4.87 9.77 0 0-1.63 4.76-5.25 1.88 0 0-2.63 2.39-4.42-.67s.43-11.76-1.33-13.61-5 9.4-7.84 8.52-.49-5.66-.58-8.08-.52-8.71 1.44-14.21c0 0-19.51-21.22-25.57-44.5 0 0-20.32-12.2-27.28-31.22-6-16.47-2.48-29.47 8.58-28.18s31.92 17.13 44.52 41.7S446 218.92 446 218.92Z" class="cls-7"/><path d="M442.93 251.48a.32.32 0 0 1-.14 0 .42.42 0 0 1-.26-.53c2.24-6.57-.71-14.36-1.31-15.19a.43.43 0 0 1-.17-.4.43.43 0 0 1 .48-.35.66.66 0 0 1 .42.35c.92 1.52 3.6 9.34 1.37 15.86a.41.41 0 0 1-.39.26Zm5.25-1.88a.3.3 0 0 1-.13 0 .41.41 0 0 1-.26-.53c3.23-9.83-1.64-15.39-1.69-15.44a.44.44 0 0 1 0-.6.42.42 0 0 1 .59 0c.22.24 5.26 6 1.86 16.28a.42.42 0 0 1-.37.29Zm4.87-9.77a.42.42 0 0 1-.41-.43 13.29 13.29 0 0 0-2.71-8.27.42.42 0 0 1 .05-.59.41.41 0 0 1 .59.05 13.9 13.9 0 0 1 2.91 8.83.43.43 0 0 1-.43.41Z" class="cls-8"/><path d="M371.68 118.07s12.35-.52 18.6 2.43 42 41.07 16.77 61.46a66.36 66.36 0 0 1 4.95 8c5.45 10.23 12.57 29-1.47 39.78-20 15.42-31.72 14.39-45.35 14.68-11.08.23-28.76 1.72-48.43-14.68-13.6-11.35-6.91-29.55-1.47-39.78a66.36 66.36 0 0 1 5-8C295 161.57 330.76 123.45 337 120.5s18.59-2.43 18.59-2.43Z" class="cls-6"/><path d="M349.2 185.5s-9.53 7.64-33.91 4.44a66.36 66.36 0 0 1 5-8s7.03 6.38 28.91 3.56Zm28.88 0s9.53 7.64 33.92 4.44a66.36 66.36 0 0 0-4.95-8s-7.05 6.38-28.97 3.56Z" class="cls-5"/><ellipse cx="364.46" cy="120.53" class="cls-10" rx="21.27" ry="10.45"/><path d="M460.12 66.11s3.94 20.42-22.83 21.81a18 18 0 0 1-5.46 3.58 13.79 13.79 0 0 1-13.64-1.43c-10.29-6.93-8.79-25.48-7.3-33 1.38-7-1.08-25.12-6.33-27.56a2.7 2.7 0 0 0-1.43-.25l-4.94-5.87s2.18-11.44 9.9-16.2a13.56 13.56 0 0 1 3.4-1.5c7.37-2.12 13.64-.28 17.78 4A19.52 19.52 0 0 1 434.38 21c.06.48.11 1 .16 1.47 1.08 11.1 0 27.93 6.43 32.53 7.52 5.41 16.34-.31 15.69-7a21.62 21.62 0 0 1 4.8 7.17 11 11 0 0 1-1.34 10.94Z" class="cls-2"/><path d="M437.29 87.92s-19.66-5.59-18.41-22.06c0 0 7.12 15.65 23.21 14.81s18-14.56 18-14.56 3.97 20.42-22.8 21.81Z" class="cls-3"/><path d="M460.13 66.11s-12.13 6.94-20.91-5.39c0 0 17 10.74 22.24-5.6a11 11 0 0 1-1.33 10.99Zm-28.3 25.38a13.79 13.79 0 0 1-13.64-1.43c-10.29-6.93-8.79-25.48-7.3-33 1.38-7-1.08-25.12-6.33-27.56 11.2 5.89 7.71 32.41 9.65 46.24 2.04 14.48 17.62 15.75 17.62 15.75Z" class="cls-3"/><path d="M441 55c-9.47-1.63-5.7-27.51-10.37-39.36s-22.55-8.18-22.54-8.51a13.56 13.56 0 0 1 3.4-1.5c7.37-2.12 13.64-.28 17.78 4A19.52 19.52 0 0 1 434.38 21c.06.48.11 1 .16 1.47 1.08 11.1.04 27.93 6.46 32.53Z" class="cls-4"/><path d="M404.58 24.47s5.81-.67 8.35-.1 4.55 1.67 4.81 3.18-5.33 10-7.06 9.93-8.05-5.34-9.45-8.42Zm-1.67-1.33s-.64-5.81-1.76-8.16-2.64-4.07-4.17-4-8.56 7.42-8.11 9.08 7 6.67 10.31 7.35Z" class="cls-5"/><rect width="6.25" height="7.22" x="398.81" y="22.04" class="cls-6" rx="1.34" transform="rotate(38.57 401.953 25.651)"/><path d="M329.2 47.73s-4.51 9.92-2.47 28.83l9.1 5.79 5.76-31.5Z" class="cls-3"/><path d="M395.53 78c1.19-3.3 7.09-8.47 11.42-2.93 4.79 6.14-1 23.11-9.5 20.08-2.1-.77-3.12-13.88-1.92-17.15Z" class="cls-7"/><path d="M397.48 80.63c.69-1.88 4-4.83 6.52-1.67 2.73 3.5-.59 13.19-5.42 11.46-1.2-.42-1.78-7.91-1.1-9.79Z" class="cls-10"/><path d="M333.39 78c-1.2-3.3-7.1-8.47-11.43-2.93-4.79 6.14 1 23.11 9.5 20.08 2.11-.77 3.12-13.88 1.93-17.15Z" class="cls-7"/><path d="M331.43 80.63c-.68-1.88-4.05-4.83-6.52-1.67-2.73 3.5.59 13.19 5.42 11.46 1.2-.42 1.78-7.91 1.1-9.79Z" class="cls-10"/><path d="M384.33 42.14c11.25 9.22 11.05 41.91 11.05 41.91a35.16 35.16 0 0 1 4.62 23.82c-2.39 13.36-19.83 13.73-19.83 13.73-21.4 9.22-31.41 0-31.41 0s-17.43-.37-19.83-13.73a35.16 35.16 0 0 1 4.61-23.82c.7-.69 1-35.36 11.05-41.91 4.37-2.86 8-5.35 19.88-5.35a38.71 38.71 0 0 1 19.86 5.35Z" class="cls-7"/><path d="M389.46 76.94v.79c-.33 5.34-4 9.55-8.49 9.55s-8.16-4.21-8.5-9.55v-.79c0-5.72 3.81-10.35 8.52-10.35s8.47 4.63 8.47 10.35Z" class="cls-11"/><path d="M389.43 77.73c-.33 5.34-4 9.55-8.49 9.55s-8.16-4.21-8.5-9.55c.34-5.33 4-9 8.5-9s8.16 3.67 8.49 9Z" class="cls-12"/><path d="M387 69.94a3.3 3.3 0 0 0 1.43-.27c.82-.39 1.64-1.15 1.76-1a9.63 9.63 0 0 1-.41 3.15 8.42 8.42 0 0 1-.84 2Z" class="cls-11"/><path d="M387.19 78.46c0 4.19-2.88 7.59-6.45 7.59s-6.45-3.4-6.45-7.59 2.89-7.6 6.45-7.6 6.45 3.4 6.45 7.6Z" class="cls-4"/><path d="M384.51 78.68c0 2.45-1.69 4.43-3.77 4.43s-3.77-2-3.77-4.43 1.69-4.44 3.77-4.44 3.77 1.98 3.77 4.44Z" class="cls-3"/><path d="M382.4 73.16a1.66 1.66 0 1 1-1.66-1.74 1.7 1.7 0 0 1 1.66 1.74Z" class="cls-12"/><path d="M373.29 55s.58 2.37 1.63 3.22c2 1.63 11.87 5.29 18.54-4.24 0 .02-8.22 6.17-20.17 1.02Z" class="cls-3"/><path d="M337 76.94v.79c.33 5.34 4 9.55 8.49 9.55s8.17-4.21 8.5-9.55v-.79c0-5.72-3.82-10.35-8.53-10.35S337 71.22 337 76.94Z" class="cls-11"/><path d="M337 77.73c.33 5.34 4 9.55 8.49 9.55s8.17-4.21 8.5-9.55c-.33-5.33-4-9-8.5-9s-8.15 3.67-8.49 9Z" class="cls-12"/><path d="M339.4 69.94a3.3 3.3 0 0 1-1.43-.27c-.82-.39-1.64-1.15-1.76-1a9.63 9.63 0 0 0 .41 3.15 8.42 8.42 0 0 0 .84 2Z" class="cls-11"/><path d="M339.25 78.46c0 4.19 2.88 7.59 6.45 7.59s6.45-3.4 6.45-7.59-2.89-7.6-6.45-7.6-6.45 3.4-6.45 7.6Z" class="cls-4"/><path d="M341.93 78.68c0 2.45 1.69 4.43 3.77 4.43s3.77-2 3.77-4.43-1.69-4.44-3.77-4.44-3.77 1.98-3.77 4.44Z" class="cls-3"/><ellipse cx="345.7" cy="73.16" class="cls-12" rx="1.66" ry="1.74"/><path d="M354.07 55s-.58 2.37-1.62 3.22c-2 1.63-11.88 5.29-18.55-4.24 0 .02 8.22 6.17 20.17 1.02Z" class="cls-3"/><path d="M355.6 92.2a.45.45 0 0 1-.16 0 .48.48 0 0 1-.28-.61c.1-.24 2.3-6 7.1-6a9.07 9.07 0 0 1 8.15 5.33.47.47 0 1 1-.87.35 8 8 0 0 0-7.28-4.74c-4.15 0-6.2 5.33-6.22 5.38a.47.47 0 0 1-.44.29Z" class="cls-8"/><path d="M363.28 86.54a.52.52 0 0 1-.21 0 .51.51 0 0 1-.24-.68 10.38 10.38 0 0 0-2.27-12.27.5.5 0 0 1 .65-.77 11.42 11.42 0 0 1 2.53 13.47.5.5 0 0 1-.46.25Zm2.97 4.09c.37.77.32 1.57-.13 1.78s-1.09-.24-1.47-1-.31-1.56.13-1.78 1.1.23 1.47 1Zm-7.13 0c-.37.77-.32 1.57.12 1.78s1.1-.24 1.47-1 .32-1.56-.12-1.78-1.1.23-1.47 1Z" class="cls-8"/><path d="M373.29 105.73a.45.45 0 0 1-.31-.11c-8.78-7.61-16-.34-16.31 0a.48.48 0 1 1-.68-.67c.08-.08 8.16-8.22 17.62 0a.48.48 0 0 1 0 .68.45.45 0 0 1-.32.1Z" class="cls-15"/><path d="M406.22 74.24c-4.93-4-10.7 3.74-10.7 3.74-4.12-9.92-8.35-31-8.48-31.63-11.58 14.16-29 11.59-29 11.59 12-3.57 15.76-15.6 15.76-15.6-.71.67-1.46 1.31-2.24 1.93-13.42 10.63-36.46 14.76-48.88 2-5.32-5.44-4.83-11.71-2.79-16.85a34.63 34.63 0 0 1 6.66-10.24c-2.47 5-.35 9 6.45 9.09a25.3 25.3 0 0 0 6.43-.88c11.77-2.95 13.81-14.28 31.67-16.58 16.89-2.17 25 9.56 27.43 14.08.57 1.07.84 1.73.84 1.73s8 1.15 11.67 10.72a24.22 24.22 0 0 1 1.11 3.81c2.75 13.13-5.93 33.09-5.93 33.09Z" class="cls-2"/><path d="M371.53 44.28c-13.42 10.63-36.46 14.76-48.88 2-5.32-5.44-4.83-11.71-2.79-16.85s-3.6 34.77 51.67 14.85Z" class="cls-3"/><path d="M371.56 44.37a.12.12 0 0 1-.08 0 .11.11 0 0 1 0-.16l2.25-1.94a.12.12 0 0 1 .15.18c-.71.66-1.47 1.31-2.25 1.93a.11.11 0 0 1-.07-.01Z" class="cls-16"/><path d="M367.76 55s13.11-3.92 19.28-8.67c-11.58 14.16-29 11.59-29 11.59 12-3.57 15.76-15.6 15.76-15.6s-1.36 8.87-6.04 12.68Zm38.46 19.24c-4.93-4-10.7 3.74-10.7 3.74-4.12-9.92-8.35-31-8.48-31.63.18.5 5.47 15.16 14.8 13.44 7.64-1.4 10.36-12.79 9.16-22.41a24.22 24.22 0 0 1 1.11 3.81c2.79 13.09-5.89 33.05-5.89 33.05Z" class="cls-3"/><path d="M398.51 24.93a28 28 0 0 0-17.77-11.37C360.26 9.63 346.37 32.24 333 28.31a25.3 25.3 0 0 0 6.43-.88c11.77-2.95 13.81-14.28 31.67-16.58 16.9-2.17 24.95 9.56 27.41 14.08Z" class="cls-4"/><ellipse cx="542.21" cy="347" class="cls-1" rx="60.08" ry="15.79"/><path d="M573.7 292c0 1.21.94 9.19 1.2 17.73.09 2.77.1 5.6 0 8.26a87.73 87.73 0 0 1-3 19.15s4.37 7.37 4.55 9.66-3 2.39-4.14 1.79c0 0-2.49 1.1-4.43-.2 0 0-2.95 1.1-4.42 0a3.81 3.81 0 0 1-3.78-.1s-2.59 1.3-4.15-.1 1.1-9 2.76-11.85c0 0-3.78-13.34-5.07-23.39l-.22-2.05c-1.28-9.64-3-20.68-3.51-22.9-.55-2.39-5-22.9-5.34-28.28s-1.39-12.84-3.14-13.24h-.33c-1.75.4-2.77 7.86-3.14 13.24s-4.79 25.89-5.34 28.28c-.52 2.22-2.23 13.26-3.51 22.9l-.29 2.1c-1.29 10.05-5.07 23.39-5.07 23.39 1.66 2.89 4.33 10.46 2.76 11.85s-4.14.1-4.14.1a3.8 3.8 0 0 1-3.78.1c-1.48 1.1-4.43 0-4.43 0-1.94 1.3-4.42.2-4.42.2-1.11.6-4.34.5-4.15-1.79s4.55-9.66 4.55-9.66a87.73 87.73 0 0 1-3-19.15c-.12-2.67-.11-5.49 0-8.26.26-8.54 1.23-16.52 1.19-17.73-.05-1.59-3.88-10.62-5.35-40.35s5.38-37.7 5.38-37.7 24.29-5.12 65.76 0c0 0 6.84 7.92 5.36 37.66s-5.3 38.79-5.36 40.34Z" class="cls-7"/><path d="M572.33 349a.32.32 0 0 1-.16 0 .36.36 0 0 1-.16-.48 5.48 5.48 0 0 0 .26-3.87.37.37 0 0 1 .23-.46.35.35 0 0 1 .45.23 6.23 6.23 0 0 1-.3 4.43.36.36 0 0 1-.32.15Zm-4.42-.21a.31.31 0 0 1-.21-.07.35.35 0 0 1-.08-.5c.65-.9.38-3 .21-3.66a.36.36 0 0 1 .71-.16c0 .12.63 2.9-.34 4.24a.35.35 0 0 1-.29.15Zm-4.43 0a.28.28 0 0 1-.15 0 .35.35 0 0 1-.17-.48 4.92 4.92 0 0 0 .14-3.65.37.37 0 0 1 .2-.47.36.36 0 0 1 .47.2 5.66 5.66 0 0 1-.16 4.24.36.36 0 0 1-.33.16Zm-3.78-.1a.36.36 0 0 1-.2-.06.36.36 0 0 1-.09-.5c.94-1.38.38-3.74.37-3.76a.36.36 0 1 1 .7-.17c0 .11.64 2.69-.48 4.34a.36.36 0 0 1-.3.15Zm-50.38.31a.36.36 0 0 1-.32-.19 6.17 6.17 0 0 1-.3-4.43.35.35 0 0 1 .45-.23.37.37 0 0 1 .23.46 5.58 5.58 0 0 0 .25 3.87.34.34 0 0 1-.15.48.32.32 0 0 1-.16.04Zm4.42-.21a.35.35 0 0 1-.29-.15c-1-1.34-.36-4.12-.34-4.24a.36.36 0 0 1 .43-.27.35.35 0 0 1 .27.43c-.16.72-.43 2.76.22 3.66a.35.35 0 0 1-.08.5.33.33 0 0 1-.21.07Zm4.43 0a.36.36 0 0 1-.33-.2 5.6 5.6 0 0 1-.16-4.24.35.35 0 0 1 .46-.2.36.36 0 0 1 .21.47 4.93 4.93 0 0 0 .14 3.65.35.35 0 0 1-.17.48.28.28 0 0 1-.15.04Zm3.83-.1a.36.36 0 0 1-.3-.15c-1.12-1.65-.51-4.23-.48-4.34a.36.36 0 1 1 .7.17s-.57 2.39.37 3.76a.36.36 0 0 1-.09.5.36.36 0 0 1-.2.06Z" class="cls-8"/><path d="M573.7 292c0 1.21.94 9.19 1.2 17.73a34.52 34.52 0 0 1-21.9 1.17c-1.28-9.64-3-20.68-3.51-22.9-.55-2.39-5-22.9-5.34-28.28s-1.39-12.84-3.14-13.24h-.33c-1.75.4-2.77 7.86-3.14 13.24s-4.79 25.89-5.34 28.28c-.52 2.22-2.23 13.26-3.51 22.9a34.52 34.52 0 0 1-21.92-1.13c.26-8.54 1.23-16.52 1.19-17.73-.05-1.59-3.88-10.62-5.35-40.35s5.33-37.69 5.33-37.69 24.29-5.12 65.76 0c0 0 6.84 7.92 5.36 37.66s-5.3 38.79-5.36 40.34Z" class="cls-9"/><path d="M480.29 214.32s-5.11 3.8-6.55 9.19c-1.84 6.92-.86 11.64 1.27 9.53 0 0 .46 5.23 1.7 5.49s1.49-1.14 1.49-1.14.25 3.7 2.09 3.68a2.36 2.36 0 0 0 2.21-1.92s.37 2.19 2 1.92 2-3.24 2.21-5.7c.16-1.63.37-6.8 1.36-7.05s2.33 3 2.95 4.72 1.47 2.71 2.7 2.08 1.11-7.44 1.11-9.45.12-7.82-1.11-9.33c0 0 14.24-30 18.89-41.86s19.73-41.85 14.64-49.41-24.56 6-30.7 21.9-8.27 26.88-10.88 38.07c-2.49 10.6-5.38 29.28-5.38 29.28Z" class="cls-7"/><path d="M475 233.46a.42.42 0 0 1-.43-.42 27 27 0 0 1 1.22-8.17.42.42 0 0 1 .54-.26.43.43 0 0 1 .27.54 26.2 26.2 0 0 0-1.18 7.89.42.42 0 0 1-.42.42Zm3.05 4.8a.43.43 0 0 1-.42-.4 45.85 45.85 0 0 1 .93-10.23.42.42 0 0 1 .5-.33.43.43 0 0 1 .33.5 46.22 46.22 0 0 0-.92 10 .42.42 0 0 1-.39.45Zm4.45 1.31a.41.41 0 0 1-.41-.35 35.67 35.67 0 0 1 .06-10.16.43.43 0 0 1 .48-.35.43.43 0 0 1 .36.48 35.78 35.78 0 0 0-.07 9.89.42.42 0 0 1-.34.49Z" class="cls-8"/><path d="M601.36 214.32s5.11 3.8 6.55 9.19c1.84 6.92.85 11.64-1.27 9.53 0 0-.46 5.23-1.7 5.49s-1.49-1.14-1.49-1.14-.25 3.7-2.09 3.68a2.37 2.37 0 0 1-2.22-1.92s-.37 2.19-2 1.92-2-3.24-2.22-5.7c-.15-1.63-.36-6.8-1.35-7.05s-2.33 3-3 4.72-1.47 2.71-2.7 2.08-1.11-7.44-1.11-9.45-.12-7.82 1.11-9.33c0 0-14.24-30-18.89-41.86s-19.73-41.85-14.64-49.41 24.55 6 30.7 21.9S593.4 173.85 596 185c2.47 10.64 5.36 29.32 5.36 29.32Z" class="cls-7"/><path d="M606.64 233.46a.42.42 0 0 1-.42-.42 26.58 26.58 0 0 0-1.18-7.89.43.43 0 0 1 .26-.54.42.42 0 0 1 .54.26 26.83 26.83 0 0 1 1.23 8.17.42.42 0 0 1-.43.42Zm-3.04 4.8a.44.44 0 0 1-.4-.45 46.41 46.41 0 0 0-.91-10 .42.42 0 0 1 .83-.17 45.85 45.85 0 0 1 .93 10.23.43.43 0 0 1-.45.39Zm-4.46 1.31h-.07a.42.42 0 0 1-.34-.49 35.78 35.78 0 0 0-.07-9.89.43.43 0 0 1 .84-.13 35.67 35.67 0 0 1 .06 10.16.41.41 0 0 1-.42.35Z" class="cls-8"/><path d="M548.29 119.17s11.59 1.7 16.2 4.83 4.58 10.14 4.58 10.14 10.36 9.4 11.65 24.15a25.62 25.62 0 0 1 .06 3.89c-.72 11.47-9.65 14.25-9.65 14.25a52.65 52.65 0 0 1 4.14 9.17 51.67 51.67 0 0 1 3.06 17.5c-.17 13.46-5.11 19.21-16.91 20.5a133.25 133.25 0 0 1-19.41.89h-2.36a133.38 133.38 0 0 1-19.42-.89c-11.8-1.29-16.74-7-16.91-20.5a50.82 50.82 0 0 1 2.58-16 54.16 54.16 0 0 1 4.62-10.62 14.88 14.88 0 0 1-9.14-10.77 22.79 22.79 0 0 1-.45-7.37c1.29-14.75 11.65-24.15 11.65-24.15s0-7 4.58-10.14 16.2-4.83 16.2-4.83Z" class="cls-6"/><path d="M571.13 176.43a52.65 52.65 0 0 1 4.14 9.17 70 70 0 0 0-35.21-9.85c-22.89 0-33.93 11.62-33.93 11.62l-.22-.32a54.16 54.16 0 0 1 4.62-10.62 14.88 14.88 0 0 1-9.14-10.77 23.83 23.83 0 0 0 18.3 6.2c11.67-.84 17-4.29 22.1-4.29s14.91 5.38 23 4.29c7.6-1 13.92-5.84 16-9.68-.73 11.47-9.66 14.25-9.66 14.25Z" class="cls-5"/><path d="M542 130.08c-13.43 0-13.75-10-13.75-10v-8l26-.47.38 6.56.13 2.2s.68 9.71-12.76 9.71Z" class="cls-7"/><path d="M554.6 118.23c-3.13 2.06-8 3.37-13.52 3.37a26.47 26.47 0 0 1-12.82-2.94v-6.52l26-.47Z" class="cls-10"/><path d="M636.23 61.58S640.09 81.64 613.8 83a17.69 17.69 0 0 1-5.36 3.52 13.54 13.54 0 0 1-13.39-1.41c-10.11-6.8-8.64-25-7.17-32.46 1.35-6.83-1.07-24.67-6.22-27.06a2.73 2.73 0 0 0-1.4-.25l-4.85-5.77s2.13-11.23 9.72-15.9a13.19 13.19 0 0 1 3.33-1.48c7.24-2.08 13.4-.27 17.47 3.93a19.17 19.17 0 0 1 5 11.17c.06.47.11.95.16 1.44 1.06 10.91 0 27.44 6.32 32 7.38 5.31 16.05-.31 15.4-6.92a21.23 21.23 0 0 1 4.72 7 10.76 10.76 0 0 1-1.3 10.77Z" class="cls-2"/><path d="M613.8 83s-19.3-5.49-18.08-21.67c0 0 7 15.38 22.8 14.56s17.71-14.31 17.71-14.31S640.09 81.63 613.8 83Z" class="cls-3"/><path d="M636.23 61.58s-12 6.82-20.53-5.29c0 0 16.71 10.55 21.84-5.5a10.76 10.76 0 0 1-1.31 10.79Zm-27.79 24.93a13.54 13.54 0 0 1-13.39-1.41c-10.11-6.8-8.64-25-7.17-32.46 1.35-6.83-1.07-24.67-6.22-27.06 11 5.78 7.57 31.83 9.47 45.41 2.01 14.27 17.31 15.52 17.31 15.52Z" class="cls-3"/><path d="M617.42 50.67c-9.31-1.6-5.6-27-10.19-38.66S585.09 4 585.1 3.66a13.19 13.19 0 0 1 3.33-1.48c7.24-2.08 13.4-.27 17.47 3.93a19.17 19.17 0 0 1 5 11.17c.06.47.11.95.16 1.44 1.1 10.91.08 27.44 6.36 31.95Z" class="cls-4"/><path d="M581.68 20.69s5.7-.66 8.2-.1 4.46 1.64 4.72 3.12-5.24 9.82-6.93 9.75-7.91-5.24-9.29-8.26ZM580 19.38s-.62-5.71-1.72-8-2.59-4-4.1-3.91-8.4 7.29-8 8.93 6.87 6.54 10.12 7.21Z" class="cls-5"/><rect width="6.14" height="7.09" x="576.01" y="18.3" class="cls-6" rx="1.31" transform="rotate(38.57 579.105 21.84)"/><path d="M505.89 47.39a65.1 65.1 0 0 0 0 26.32l8 2.74 2.38-27.85Z" class="cls-3"/><path d="M511.76 76c-1.12-3.06-6.59-7.86-10.61-2.71-4.45 5.7 1 21.46 8.82 18.65 1.95-.7 2.9-12.87 1.79-15.94Z" class="cls-7"/><path d="M509.94 78.47c-.64-1.75-3.76-4.49-6.05-1.55-2.54 3.25.55 12.24 5 10.64 1.11-.4 1.68-7.35 1.05-9.09Z" class="cls-10"/><path d="M570.52 76c1.11-3.06 6.58-7.86 10.6-2.71 4.45 5.7-1 21.46-8.82 18.65-1.95-.7-2.9-12.87-1.78-15.94Z" class="cls-7"/><path d="M572.33 78.47c.64-1.75 3.76-4.49 6.06-1.55 2.53 3.25-.55 12.24-5 10.64-1.15-.4-1.69-7.35-1.06-9.09Z" class="cls-10"/><path d="M541.89 29s12.57-.54 20.1 8.33 9 30.37 9 43.84c0 0 6.33 13.2 0 24.79s-28.61 10.69-28.61 10.69h-2.48s-22.28.9-28.61-10.69 0-24.79 0-24.79c0-13.47 2-34.6 9.54-43.48S541.89 29 541.89 29Z" class="cls-7"/><path d="M581.12 73.29c-4.59-4.76-10.22 1.9-10.22 1.9 1.11-16-9-33.63-9.82-35l-.05-.08a28.15 28.15 0 0 1-21.82 14.09c10.49-2.09 11.84-16.49 11.84-16.49v.06c-.15.21-.57.79-1.25 1.61-.2.23-.4.48-.64.75-3.46 4-11.29 11.74-21.49 13.47-14 2.37-29.16-1.14-33.57-15.44a20.37 20.37 0 0 1-.62-9.25c1.56-9.7 9.31-16.78 9.56-17-3.42 8.33.81 14.76 10.95 13.72S531.21 8 553.17 8c17.2 0 23.88 11.7 25.63 15.59.34.78.5 1.25.5 1.25 1.19.36 8.41 4.89 9.31 18.83a1.62 1.62 0 0 1 0 .22c.82 13.87-7.49 29.4-7.49 29.4Z" class="cls-2"/><path d="M527.6 53.66c-14 2.37-29.16-1.14-33.57-15.44a20.37 20.37 0 0 1-.62-9.25s6.14 40.59 55.68 11.22c-3.46 4.01-11.29 11.74-21.49 13.47Z" class="cls-3"/><path d="M549.73 39.54h-.07a.12.12 0 0 1 0-.16l1.25-1.61a.14.14 0 0 1 .16 0 .11.11 0 0 1 0 .16c-.15.21-.57.78-1.25 1.61a.11.11 0 0 1-.09 0Z" class="cls-16"/><path d="M561 40.14a28.15 28.15 0 0 1-21.82 14.09c10.49-2.09 11.84-16.49 11.84-16.49s1.65 7-1 10.76c.22-.14 7.63-4.68 10.98-8.36Zm20.12 33.15c-4.59-4.76-10.22 1.9-10.22 1.9 1.11-16-9-33.63-9.82-35 .74 1.16 9.29 14.22 19.44 12.55 4.24-.7 6.69-4.54 8.1-8.9.81 13.92-7.5 29.45-7.5 29.45Z" class="cls-3"/><path d="M578.8 23.57S570 10.76 556.62 9.85c-20.07-1.36-34.09 18.28-42.7 15.84C524.06 24.65 531.21 8 553.17 8c17.2 0 23.88 11.68 25.63 15.57Z" class="cls-4"/><path d="M565.89 72.21V73c-.32 5.24-3.93 9.37-8.34 9.37s-8-4.13-8.34-9.37v-.79c0-5.61 3.75-10.16 8.37-10.16s8.31 4.55 8.31 10.16Z" class="cls-11"/><path d="M565.86 73c-.32 5.24-3.93 9.37-8.34 9.37s-8-4.13-8.34-9.37c.32-5.25 3.93-8.84 8.34-8.84s8.02 3.59 8.34 8.84Z" class="cls-12"/><path d="M563.51 65.34a3.22 3.22 0 0 0 1.41-.27c.8-.37 1.6-1.12 1.72-1a9.17 9.17 0 0 1-.4 3.09 8.27 8.27 0 0 1-.82 2Z" class="cls-11"/><ellipse cx="557.33" cy="73.71" class="cls-4" rx="6.34" ry="7.46"/><path d="M561 73.92c0 2.41-1.66 4.36-3.7 4.36s-3.7-2-3.7-4.36 1.65-4.36 3.7-4.36 3.7 1.95 3.7 4.36Z" class="cls-3"/><path d="M559 68.5a1.63 1.63 0 1 1-1.63-1.7 1.67 1.67 0 0 1 1.63 1.7Z" class="cls-12"/><path d="M550 54.86s.57-2.32 1.6-3.16c1.95-1.6 11.66-5.19 18.21 4.16.01 0-8.06-6.05-19.81-1Z" class="cls-3"/><path d="M514.35 72.21V73c.32 5.24 3.93 9.37 8.34 9.37s8-4.13 8.34-9.37v-.79c0-5.61-3.75-10.16-8.37-10.16s-8.31 4.55-8.31 10.16Z" class="cls-11"/><path d="M514.38 73c.32 5.24 3.93 9.37 8.34 9.37s8-4.13 8.34-9.37c-.33-5.25-3.94-8.84-8.34-8.84s-8.02 3.59-8.34 8.84Z" class="cls-12"/><path d="M516.73 65.34a3.2 3.2 0 0 1-1.41-.27c-.81-.37-1.61-1.12-1.73-1a9.76 9.76 0 0 0 .4 3.09 8.52 8.52 0 0 0 .83 2Z" class="cls-11"/><ellipse cx="522.91" cy="73.71" class="cls-4" rx="6.34" ry="7.46"/><path d="M519.21 73.92c0 2.41 1.66 4.36 3.7 4.36s3.7-2 3.7-4.36-1.66-4.36-3.7-4.36-3.7 1.95-3.7 4.36Z" class="cls-3"/><path d="M521.28 68.5a1.63 1.63 0 1 0 1.63-1.7 1.67 1.67 0 0 0-1.63 1.7Z" class="cls-12"/><path d="M530.23 54.86s-.57-2.32-1.6-3.16c-2-1.6-11.66-5.19-18.21 4.16 0 0 8.07-6.05 19.81-1Z" class="cls-3"/><path d="M532.64 87.15h-.12a.4.4 0 0 1-.27-.51c.07-.24 1.77-5.87 5.56-5.88 4.64 0 6.36 5.18 6.37 5.23a.41.41 0 1 1-.78.25s-1.55-4.66-5.59-4.66c-3.18 0-4.76 5.24-4.78 5.3a.4.4 0 0 1-.39.27Z" class="cls-8"/><path d="M538.05 81.65a.54.54 0 0 1-.21-.05.49.49 0 0 1-.23-.66 10.22 10.22 0 0 0-2.23-12 .5.5 0 1 1 .64-.76 11.24 11.24 0 0 1 2.48 13.24.5.5 0 0 1-.45.23Z" class="cls-8"/><path d="M540.1 101.47c-8.34 0-9.76-5.71-9.77-5.76a.39.39 0 0 1 .29-.47.38.38 0 0 1 .46.29c0 .21 1.32 5.17 9 5.17 7 0 7.94-4.94 8-5.15a.38.38 0 0 1 .45-.31.37.37 0 0 1 .31.44c-.01.06-1.11 5.79-8.74 5.79Z" class="cls-15"/><ellipse cx="703.78" cy="347" class="cls-1" rx="53.14" ry="15.79"/><path d="M737.9 239.15c-.68 22.4-5.48 36-5.48 38.44s2.59 13.82 2.77 24.7c0 1.45 0 3.11-.15 4.9C734.27 318.83 731 336 731 337c0 1.11 3.13 10.15 3.13 11.53s-2.44 1.47-3.13.47c0 0-2.12 1.11-3.6-.09a2.61 2.61 0 0 1-3.32.18 3.81 3.81 0 0 1-3.87-.18 1.92 1.92 0 0 1-2.06.31c-1.29-.5-1.41-1.48-1-2.77s3.56-9.22 3.63-10.39-2.92-18.29-3.71-28.71c-.07-.8-.11-1.56-.15-2.26-.45-10-.57-26.06-1.3-28.52s-5.9-22.86-6.89-31-2.79-18.07-4.29-18.19h-.09c-1.5.12-3.31 10.08-4.29 18.19s-6.15 28.51-6.89 31-.85 18.56-1.31 28.52c0 .7-.08 1.46-.14 2.26-.79 10.42-3.77 27.63-3.71 28.71s3.2 9.1 3.63 10.39.31 2.27-1 2.77a1.92 1.92 0 0 1-2.06-.31 3.83 3.83 0 0 1-3.88.18 2.62 2.62 0 0 1-3.32-.18c-1.47 1.2-3.59.09-3.59.09-.74.92-3.14.83-3.14-.55s3.14-10.42 3.14-11.53c0-.95-3.32-18.12-4.09-29.76-.12-1.79-.18-3.45-.16-4.9.18-10.88 2.77-22.31 2.77-24.7s-4.79-16-5.47-38.44a189.35 189.35 0 0 1 4-42.69s19.06-4.42 59.07 0a189.35 189.35 0 0 1 3.99 42.72Z" class="cls-7"/><path d="M737.9 239.15c-.68 22.4-5.48 36-5.48 38.44s2.59 13.82 2.77 24.7c0 1.45 0 3.11-.15 4.9a26.71 26.71 0 0 1-18 .19c-.07-.8-.11-1.56-.15-2.26-.45-10-.57-26.06-1.3-28.52s-5.9-22.86-6.89-31-2.79-18.07-4.29-18.19h-.09c-1.5.12-3.31 10.08-4.29 18.19s-6.15 28.51-6.89 31-.85 18.56-1.31 28.52c0 .7-.08 1.46-.14 2.26a26.7 26.7 0 0 1-18-.19c-.12-1.79-.18-3.45-.16-4.9.18-10.88 2.77-22.31 2.77-24.7s-4.79-16-5.47-38.44a189.35 189.35 0 0 1 4-42.69s19.06-4.42 59.07 0a189.35 189.35 0 0 1 4 42.69Z" class="cls-9"/><path d="M731 349.26a.2.2 0 0 1-.11 0 .22.22 0 0 1-.09-.31 4.2 4.2 0 0 0 .17-3.48.24.24 0 0 1 .12-.31.23.23 0 0 1 .3.12 4.57 4.57 0 0 1-.19 3.89.22.22 0 0 1-.2.09Zm-3.65-.09a.17.17 0 0 1-.12 0 .23.23 0 0 1-.07-.32 4.18 4.18 0 0 0 .3-3.39.23.23 0 0 1 .14-.29.22.22 0 0 1 .29.13 4.57 4.57 0 0 1-.35 3.81.23.23 0 0 1-.19.06Zm-3.35.18h-.11a.23.23 0 0 1-.09-.31 5.13 5.13 0 0 0 .17-3.19.22.22 0 0 1 .16-.28.23.23 0 0 1 .28.16 5.5 5.5 0 0 1-.21 3.54.23.23 0 0 1-.2.08Zm-3.84-.18a.22.22 0 0 1-.15-.06.24.24 0 0 1 0-.33c1-1 .33-2.93.32-2.95a.23.23 0 0 1 .15-.29.23.23 0 0 1 .29.14c0 .09.72 2.18-.42 3.42a.26.26 0 0 1-.19.07Zm-42.38.09a.22.22 0 0 1-.2-.12 4.57 4.57 0 0 1-.19-3.89.23.23 0 1 1 .41.19 4.28 4.28 0 0 0 .18 3.48.23.23 0 0 1-.2.34Zm3.59-.09a.26.26 0 0 1-.19-.1 4.55 4.55 0 0 1-.34-3.81.22.22 0 0 1 .29-.13.23.23 0 0 1 .14.29 4.18 4.18 0 0 0 .3 3.39.23.23 0 0 1-.07.32.2.2 0 0 1-.13.04Zm3.32.18a.24.24 0 0 1-.2-.11 5.48 5.48 0 0 1-.2-3.54.22.22 0 0 1 .28-.16.23.23 0 0 1 .16.28 5.18 5.18 0 0 0 .16 3.19.22.22 0 0 1-.08.31Zm3.88-.18a.24.24 0 0 1-.17-.07c-1.14-1.24-.45-3.33-.42-3.42a.23.23 0 0 1 .29-.14.22.22 0 0 1 .14.29s-.63 1.92.33 2.95a.24.24 0 0 1 0 .33.22.22 0 0 1-.17.06Z" class="cls-8"/><path d="M646.93 207.29s-5.58 3.88-7 9.78.76 8.34 2.05 7.3c0 0 .74 5.73 2.95 5.11 0 0 1.48 3.07 4.06 1.51 0 0 1.42 2.3 3.13.76 1.11-1 .14-5.6.23-7.82s.26-4.41 1.56-4.58c2.22-.3 2.82 6.38 4 7.12s2.4.09 2.4-1.84.32-8.49-.14-11a50.16 50.16 0 0 0-1.29-5.11s8.59-16.49 11.17-23.49 2.58-12.66 3.19-13.28 16.47-28.75 18.06-37.17 1-19.06-4.54-21.1S673 126 669.26 135.1c-3.42 8.29-7.83 33.35-7.83 33.35-4.77 8.58-5.29 6.92-10.08 21.76-2.35 7.25-4.42 17.08-4.42 17.08Z" class="cls-7"/><path d="M642 224.72a.34.34 0 0 1-.34-.32 19.82 19.82 0 0 1 .85-7.92.33.33 0 0 1 .44-.2.35.35 0 0 1 .2.45 19.45 19.45 0 0 0-.8 7.61.35.35 0 0 1-.32.37Zm2.9 5.11a.35.35 0 0 1-.34-.28c-1.2-6.34.51-10 .58-10.15a.35.35 0 0 1 .46-.16.35.35 0 0 1 .17.46s-1.69 3.63-.53 9.72a.34.34 0 0 1-.27.4Zm4.1 1.5a.35.35 0 0 1-.33-.23 22.64 22.64 0 0 1-.57-9.76.35.35 0 0 1 .69.12s-.89 5.22.54 9.41a.35.35 0 0 1-.22.44.22.22 0 0 1-.11.02Z" class="cls-8"/><path d="M762.46 207.29s5.58 3.88 7 9.78-.76 8.34-2 7.3c0 0-.73 5.73-3 5.11 0 0-1.47 3.07-4 1.51 0 0-1.42 2.3-3.13.76-1.11-1-.15-5.6-.24-7.82s-.26-4.41-1.55-4.58c-2.23-.3-2.83 6.38-4 7.12s-2.39.09-2.39-1.84-.33-8.49.14-11a50.16 50.16 0 0 1 1.29-5.11s-8.59-16.49-11.17-23.49-2.59-12.66-3.2-13.28-16.52-28.75-18.12-37.17-1-19.06 4.55-21.1 13.77 12.55 17.5 21.62c3.41 8.29 7.82 33.35 7.82 33.35 4.77 8.58 5.29 6.92 10.08 21.76 2.34 7.25 4.42 17.08 4.42 17.08Z" class="cls-7"/><path d="M767.44 224.72a.34.34 0 0 1-.32-.37 19.29 19.29 0 0 0-.81-7.61.35.35 0 1 1 .65-.25 19.82 19.82 0 0 1 .85 7.92.36.36 0 0 1-.37.31Zm-2.95 5.11h-.06a.34.34 0 0 1-.28-.4c1.17-6.12-.5-9.68-.52-9.71a.35.35 0 1 1 .62-.31c.07.16 1.79 3.81.58 10.15a.34.34 0 0 1-.34.27Zm-4.05 1.5a.2.2 0 0 1-.11 0 .34.34 0 0 1-.22-.44 22.17 22.17 0 0 0 .54-9.41.35.35 0 1 1 .68-.12 22.47 22.47 0 0 1-.57 9.76.34.34 0 0 1-.32.21Z" class="cls-8"/><path d="M737.79 144.24a.28.28 0 0 0 0 .09c-.16 5.32-2.5 10.43-9.19 13.6 0 0-.38 2.82-.83 6.32-.6 4.84-1.34 11-1.34 12.67 0 3 8.27 18.31 7.38 19.54s-10.54 5.66-31.14 5.66-27.71-4.43-27.83-5.66 7.37-16.59 7.37-19.54c0-1.71-.73-7.83-1.34-12.67-.44-3.5-.83-6.32-.83-6.32-4.76-2.25-7.32-5.49-8.45-9.09-1.85-5.84 0-12.63 2.33-17.67 3.68-8.13 9.4-16.75 13-18.22s14.49-2.37 14.49-2.37h5.87s10.91.89 14.49 2.37 9.29 10.09 13 18.22a31 31 0 0 1 3.02 13.07Z" class="cls-6"/><path d="M703.94 123.32c-13.72 0-13.62-10.69-13.31-11.37s3.2-.53 4.32-1.38a2.15 2.15 0 0 0 .54-1.26 26.65 26.65 0 0 0 .09-5.47h16.18a29.18 29.18 0 0 0 0 5 2.76 2.76 0 0 0 .61 1.71c1.12.85 4 .7 4.33 1.38s.97 11.39-12.76 11.39Z" class="cls-7"/><path d="M711.78 108.86a21.4 21.4 0 0 1-8.68 1.71 22.42 22.42 0 0 1-7.61-1.26 26.65 26.65 0 0 0 .09-5.47h16.18a29.18 29.18 0 0 0 .02 5.02Z" class="cls-10"/><path d="M788.06 55.16s3.43 18.36-20 19.62a15.9 15.9 0 0 1-4.74 3.22 11.77 11.77 0 0 1-11.93-1.29c-9-6.22-7.69-22.9-6.38-29.71 1.2-6.25-1-22.58-5.53-24.77a2.37 2.37 0 0 0-1.28-.23l-4.32-5.28s1.91-10.28 8.66-14.55a11.82 11.82 0 0 1 3-1.36c6.44-1.9 11.92-.25 15.54 3.6a17.83 17.83 0 0 1 4.5 10.22c.05.43.09.88.14 1.33.94 10 0 25.11 5.62 29.24 6.54 4.8 14.26-.3 13.66-6.36a19.3 19.3 0 0 1 4.2 6.45 10.07 10.07 0 0 1-1.14 9.87Z" class="cls-2"/><path d="M768.09 74.78s-17.18-5-16.09-19.84c0 0 6.22 14.07 20.29 13.32s15.77-13.1 15.77-13.1 3.43 18.36-19.97 19.62Z" class="cls-3"/><path d="M788.06 55.16s-10.64 6.25-18.28-4.84c0 0 14.87 9.66 19.44-5a10.08 10.08 0 0 1-1.16 9.84ZM763.32 78a11.75 11.75 0 0 1-11.92-1.3c-9-6.22-7.7-22.9-6.39-29.71 1.21-6.25-1-22.58-5.54-24.77 9.8 5.29 6.74 29.13 8.44 41.57C749.7 76.85 763.32 78 763.32 78Z" class="cls-3"/><path d="M771.31 45.18c-8.28-1.47-5-24.73-9.07-35.39s-19.71-7.35-19.7-7.64a11.82 11.82 0 0 1 3-1.36c6.44-1.9 11.92-.25 15.54 3.6a17.83 17.83 0 0 1 4.5 10.22c.05.43.09.88.14 1.33.91 9.98 0 25.11 5.59 29.24Z" class="cls-4"/><path d="M739.49 17.74s5.08-.61 7.3-.1 4 1.5 4.21 2.86-4.67 9-6.17 8.93-7-4.8-8.27-7.57Zm-1.49-1.2s-.55-5.23-1.54-7.34-2.3-3.65-3.65-3.58-7.47 6.67-7.08 8.17 6.11 6 9 6.6Z" class="cls-5"/><path d="m736.44 22.33-2.45-2a1.22 1.22 0 0 1-.18-1.68l2.48-3.2a1.15 1.15 0 0 1 1.64-.19l2.44 2a1.21 1.21 0 0 1 .19 1.68l-2.48 3.2a1.15 1.15 0 0 1-1.64.19Z" class="cls-6"/><path d="M672.49 35.77s-4.3 12.67-1.35 31.69l8.86 3.35 6.86-32.51Z" class="cls-3"/><path d="M677.87 69.4c-1-2.81-6-7.21-9.73-2.49-4.08 5.23.88 19.69 8.09 17.11 1.77-.64 2.66-11.81 1.64-14.62Z" class="cls-7"/><path d="M676.21 71.66c-.59-1.6-3.45-4.11-5.56-1.42-2.33 3 .51 11.24 4.62 9.76 1.02-.36 1.52-6.74.94-8.34Z" class="cls-10"/><path d="M729 69.4c1-2.81 6-7.21 9.73-2.49 4.08 5.23-.88 19.69-8.09 17.11-1.77-.64-2.64-11.81-1.64-14.62Z" class="cls-7"/><path d="M730.69 71.66c.59-1.6 3.45-4.11 5.56-1.42 2.33 3-.5 11.24-4.62 9.76-1.02-.36-1.52-6.74-.94-8.34Z" class="cls-10"/><path d="M704.14 26.25s11.53-.49 18.45 7.65 7.5 31.91 7.86 38.57c.27 5.06 3.23 14.31-2.61 23.87-6.08 10-19.61 11.52-25 11.52s-18.06-1.93-23.53-11.27c-4.82-8.24-3.51-19.85-3.11-24.93s1.69-29.29 8.61-37.43 19.33-7.98 19.33-7.98Z" class="cls-7"/><path d="M726.44 67.49v.69c-.29 4.65-3.49 8.32-7.4 8.32s-7.11-3.67-7.4-8.32v-.69c0-5 3.32-9 7.42-9s7.38 4.02 7.38 9Z" class="cls-11"/><path d="M726.42 68.18c-.29 4.65-3.49 8.32-7.4 8.32s-7.11-3.67-7.4-8.32c.29-4.65 3.49-7.83 7.4-7.83s7.11 3.18 7.4 7.83Z" class="cls-12"/><path d="M724.33 61.39a2.81 2.81 0 0 0 1.25-.23c.72-.34 1.43-1 1.53-.89a8.29 8.29 0 0 1-.35 2.75 7.39 7.39 0 0 1-.73 1.76Z" class="cls-11"/><path d="M724.47 68.81c0 3.66-2.51 6.62-5.62 6.62s-5.62-3-5.62-6.62 2.52-6.62 5.62-6.62 5.62 2.97 5.62 6.62Z" class="cls-4"/><ellipse cx="718.85" cy="69" class="cls-3" rx="3.28" ry="3.87"/><path d="M720.3 64.2a1.45 1.45 0 1 1-1.45-1.51 1.48 1.48 0 0 1 1.45 1.51Z" class="cls-12"/><path d="M712.36 52.1a6.61 6.61 0 0 1 1.42-2.81c1.73-1.41 10.34-4.6 16.15 3.7 0 .01-7.16-5.37-17.57-.89Z" class="cls-3"/><path d="M680.74 67.49v.69c.29 4.65 3.49 8.32 7.4 8.32s7.11-3.67 7.4-8.32v-.69c0-5-3.32-9-7.42-9s-7.38 4.02-7.38 9Z" class="cls-11"/><path d="M680.76 68.18c.29 4.65 3.49 8.32 7.4 8.32s7.11-3.67 7.4-8.32c-.29-4.65-3.49-7.83-7.4-7.83s-7.11 3.18-7.4 7.83Z" class="cls-12"/><path d="M682.85 61.39a2.81 2.81 0 0 1-1.25-.23c-.72-.34-1.43-1-1.53-.89a8.29 8.29 0 0 0 .35 2.75 7.39 7.39 0 0 0 .73 1.76Z" class="cls-11"/><path d="M682.71 68.81c0 3.66 2.52 6.62 5.62 6.62s5.62-3 5.62-6.62-2.52-6.62-5.62-6.62-5.62 2.97-5.62 6.62Z" class="cls-4"/><ellipse cx="688.33" cy="69" class="cls-3" rx="3.28" ry="3.87"/><path d="M686.89 64.2a1.44 1.44 0 1 0 1.44-1.51 1.48 1.48 0 0 0-1.44 1.51Z" class="cls-12"/><path d="M694.82 52.1a6.49 6.49 0 0 0-1.42-2.81c-1.73-1.41-10.34-4.6-16.15 3.7 0 .01 7.16-5.37 17.57-.89Z" class="cls-3"/><path d="M698.43 82.11h-.09a.38.38 0 0 1-.28-.46c.05-.19 1.22-4.75 4.71-4.75s5 4 5.05 4.2a.39.39 0 0 1-.22.49.39.39 0 0 1-.49-.22s-1.42-3.72-4.34-3.72-4 4.14-4 4.18a.36.36 0 0 1-.34.28Z" class="cls-8"/><path d="M702.77 77.72a.46.46 0 0 1-.41-.65A11.8 11.8 0 0 0 701 65a.46.46 0 0 1 .7-.59 12.81 12.81 0 0 1 1.45 13.08.46.46 0 0 1-.38.23Z" class="cls-8"/><path d="M711 95.69c-1.4 1.11-3.56 1.87-6.76 1.87a10.43 10.43 0 0 1-6.47-1.79C694 93 695 87.67 695 87.67h18.6s1.16 5.17-2.6 8.02Z" class="cls-13"/><path d="M711 95.69c-1.4 1.11-3.56 1.87-6.76 1.87a10.43 10.43 0 0 1-6.47-1.79 12.93 12.93 0 0 1 6.52-1.9 15 15 0 0 1 6.71 1.82Z" class="cls-14"/><path d="M713.58 87.67s-1.36 2.49-9 2.49-9.58-2.49-9.58-2.49Z" class="cls-12"/><path d="M738.76 66.92c-4.23-4.16-8.31.57-8.31.57a100.83 100.83 0 0 0-1.84-15.77A55.53 55.53 0 0 0 724 38.3a7.27 7.27 0 0 0-.38-.68v-.06c-8 11.37-25.1 10.82-25.1 10.82 13.32-5.65 15.76-15.54 16-16.39v.08c-1.16 1.76-11.68 12.58-24.44 14.4-13 1.84-21.63-1.77-26.43-11a14.74 14.74 0 0 1-1.65-9.2c1.07-7.42 6.87-13.21 6.87-13.21-1.58 5.84-.58 11.19 7.91 10.87h.52c9.43-.84 12-14.44 32.24-17.31 13-1.84 21 5.79 24.57 10.61a24.43 24.43 0 0 1 2.36 3.68s5.21.45 8 10.76a45.67 45.67 0 0 1 1.05 5.22c2.1 15.36-6.76 30.03-6.76 30.03Z" class="cls-2"/><path d="M714.39 32c-.87 1.49-11.51 12.62-24.48 14.47s-21.63-1.77-26.43-11a14.74 14.74 0 0 1-1.48-9.2c.05.94 3.63 30.5 52.39 5.73Zm24.37 34.92c-4.23-4.16-8.31.57-8.31.57a100.83 100.83 0 0 0-1.84-15.77A55.53 55.53 0 0 0 724 38.3c1.62 2.77 7.83 12.13 16.25 9.38 4.87-1.59 5.21-8.8 4.17-16a45.67 45.67 0 0 1 1.05 5.22c2.15 15.35-6.71 30.02-6.71 30.02Z" class="cls-3"/><path d="m734.06 17.19-.29.21s-8.1-7.73-18.2-8.6c-18.49-1.6-33.12 16.67-38.32 15.09 9.43-.84 12-14.44 32.24-17.31 13.03-1.84 20.96 5.79 24.57 10.61Z" class="cls-4"/><path d="M723.53 37.59c-8 11.37-25.1 10.82-25.1 10.82 13.32-5.65 15.76-15.54 16-16.39-.11.76-1.41 9.11-6.91 13.15.29-.11 9.89-2.39 16.01-7.58Z" class="cls-3"/><path d="M737.78 144.33c-.16 5.32-2.5 10.43-9.19 13.6 0 0-.38 2.82-.83 6.32 0 0-16.69-4.67-25.1-4.67s-21.59 4.6-21.8 4.67c-.44-3.5-.83-6.32-.83-6.32-4.76-2.25-7.32-5.49-8.45-9.09a21 21 0 0 0 16.9 7.5c8.2-.41 11.88-2.73 15.46-2.57s16.36 3.47 24.11.34c7.4-3 9.58-8.01 9.73-9.78Z" class="cls-5"/></g></g></g></svg>