<svg xmlns="http://www.w3.org/2000/svg" viewBox="0 0 80.25 77.09"><defs><style>.cls-1{fill:#e8ebec}.cls-2{fill:#fff}.cls-3{fill:#97d3db}.cls-4{fill:#8dc74a}</style></defs><g id="Capa_2" data-name="Capa 2"><g id="layer_1" data-name="layer 1"><circle cx="14" cy="37.34" r="14" class="cls-1"/><circle cx="48.77" cy="65.09" r="12" class="cls-1"/><circle cx="60.25" cy="20" r="20" class="cls-1"/><path d="M68 15.34H54.41a14 14 0 0 0-26.82 0H14a5 5 0 0 0-5 5v44a5 5 0 0 0 5 5h54a5 5 0 0 0 5-5v-44a5 5 0 0 0-5-5Z" class="cls-2"/><path d="M24.55 69.34H68a5 5 0 0 0 5-5v-33h-4a45 45 0 0 0-44.45 38Z" class="cls-3"/><path d="M68 70.09H14a5.76 5.76 0 0 1-5.75-5.75v-44A5.76 5.76 0 0 1 14 14.59h13a14.74 14.74 0 0 1 27.92 0H68a5.76 5.76 0 0 1 5.75 5.75v44A5.76 5.76 0 0 1 68 70.09Zm-54-54a4.26 4.26 0 0 0-4.25 4.25v44A4.26 4.26 0 0 0 14 68.59h54a4.26 4.26 0 0 0 4.25-4.25v-44A4.26 4.26 0 0 0 68 16.09H54.41a.76.76 0 0 1-.72-.54 13.24 13.24 0 0 0-25.38 0 .76.76 0 0 1-.72.54Z" class="cls-4"/><circle cx="41" cy="19.34" r="9" class="cls-2"/><path d="M45.68 11.66A9 9 0 0 1 33.32 24a9 9 0 1 0 12.36-12.34Z" class="cls-3"/><path d="M27.05 20.34H16a2 2 0 0 0-2 2v40a2 2 0 0 0 2 2h20.5a2 2 0 0 0 2-2V33.11a14 14 0 0 1-11.45-12.77Zm38.95 0H55a14 14 0 0 1-11.5 12.77v29.23a2 2 0 0 0 2 2H66a2 2 0 0 0 2-2v-40a2 2 0 0 0-2-2Z" class="cls-2"/><path d="M32.5 30.44v15.9a12 12 0 0 1-12 12H14v4a2 2 0 0 0 2 2h20.5a2 2 0 0 0 2-2V33.11a13.85 13.85 0 0 1-6-2.67ZM66 20.34h-4v26a12 12 0 0 1-12 12h-6.5v4a2 2 0 0 0 2 2H66a2 2 0 0 0 2-2v-40a2 2 0 0 0-2-2Z" class="cls-3"/><path d="M41 29.09a9.75 9.75 0 1 1 9.75-9.75A9.76 9.76 0 0 1 41 29.09Zm0-18a8.25 8.25 0 1 0 8.25 8.25A8.26 8.26 0 0 0 41 11.09Z" class="cls-4"/><path d="M43 19.34a2 2 0 1 1-4 0c0-1.1 2-6 2-6s2 4.9 2 6Z" class="cls-2"/><path d="M41 22.09a2.75 2.75 0 0 1-2.75-2.75c0-1.19 1.71-5.44 2.06-6.28a.77.77 0 0 1 1.38 0c.35.84 2.06 5.09 2.06 6.28A2.75 2.75 0 0 1 41 22.09Zm0-6.7a21.45 21.45 0 0 0-1.25 3.95 1.25 1.25 0 1 0 2.5 0A21.45 21.45 0 0 0 41 15.39Zm-4.5 49.7H16a2.75 2.75 0 0 1-2.75-2.75v-40A2.75 2.75 0 0 1 16 19.59h11.05a.75.75 0 0 1 .75.7 13.21 13.21 0 0 0 10.83 12.08.75.75 0 0 1 .62.74v29.23a2.75 2.75 0 0 1-2.75 2.75Zm-20.5-44a1.25 1.25 0 0 0-1.25 1.25v40A1.25 1.25 0 0 0 16 63.59h20.5a1.25 1.25 0 0 0 1.25-1.25V33.72a14.71 14.71 0 0 1-11.38-12.63Zm50 44H45.5a2.75 2.75 0 0 1-2.75-2.75V33.11a.75.75 0 0 1 .62-.74A13.21 13.21 0 0 0 54.2 20.29a.75.75 0 0 1 .75-.7H66a2.75 2.75 0 0 1 2.75 2.75v40A2.75 2.75 0 0 1 66 65.09ZM44.25 33.72v28.62a1.25 1.25 0 0 0 1.25 1.25H66a1.25 1.25 0 0 0 1.25-1.25v-40A1.25 1.25 0 0 0 66 21.09H55.63a14.71 14.71 0 0 1-11.38 12.63ZM50 20.09h-2a.75.75 0 0 1 0-1.5h2a.75.75 0 0 1 0 1.5Zm-16 0h-2a.75.75 0 0 1 0-1.5h2a.75.75 0 0 1 0 1.5Zm12-4.95a.74.74 0 0 1-.53-.22.75.75 0 0 1 0-1.06l1.41-1.41a.75.75 0 0 1 1.06 1.06l-1.41 1.41a.74.74 0 0 1-.53.22ZM34.64 26.45a.71.71 0 0 1-.53-.22.74.74 0 0 1 0-1.06l1.41-1.41a.75.75 0 0 1 1.06 1.06l-1.41 1.41a.74.74 0 0 1-.53.22Zm12.72 0a.74.74 0 0 1-.53-.22l-1.41-1.41a.75.75 0 0 1 1.06-1.06l1.41 1.41a.74.74 0 0 1 0 1.06.71.71 0 0 1-.53.22ZM36.05 15.14a.74.74 0 0 1-.53-.22l-1.41-1.41a.75.75 0 0 1 1.06-1.06l1.41 1.41a.75.75 0 0 1 0 1.06.74.74 0 0 1-.53.22ZM41 29.09a.76.76 0 0 1-.75-.75v-2a.75.75 0 0 1 1.5 0v2a.76.76 0 0 1-.75.75Z" class="cls-4"/><path d="M18 47.4a.75.75 0 0 1-.75-.75V32.87a.75.75 0 0 1 1.5 0v13.78a.75.75 0 0 1-.75.75Zm0-17.78a.76.76 0 0 1-.75-.75v-2.22a.75.75 0 0 1 1.5 0v2.22a.76.76 0 0 1-.75.75ZM47.5 53.4a.75.75 0 0 1-.75-.75v-9.78a.75.75 0 0 1 1.5 0v9.78a.75.75 0 0 1-.75.75Zm0-13.78a.76.76 0 0 1-.75-.75v-2.22a.75.75 0 0 1 1.5 0v2.22a.76.76 0 0 1-.75.75ZM13 11.09H9a.75.75 0 0 1 0-1.5h4a.75.75 0 0 1 0 1.5Z" class="cls-4"/><path d="M11 13.09a.76.76 0 0 1-.75-.75v-4a.75.75 0 0 1 1.5 0v4a.76.76 0 0 1-.75.75Zm14-5h-4a.75.75 0 0 1 0-1.5h4a.75.75 0 0 1 0 1.5Z" class="cls-4"/><path d="M23 10.09a.76.76 0 0 1-.75-.75v-4a.75.75 0 0 1 1.5 0v4a.75.75 0 0 1-.75.75Zm40-2h-4a.75.75 0 0 1 0-1.5h4a.75.75 0 0 1 0 1.5Z" class="cls-4"/><path d="M61 10.09a.76.76 0 0 1-.75-.75v-4a.75.75 0 0 1 1.5 0v4a.75.75 0 0 1-.75.75Zm12 1h-4a.75.75 0 0 1 0-1.5h4a.75.75 0 0 1 0 1.5Z" class="cls-4"/><path d="M71 13.09a.75.75 0 0 1-.75-.75v-4a.75.75 0 0 1 1.5 0v4a.76.76 0 0 1-.75.75Z" class="cls-4"/></g></g></svg>