<svg xmlns="http://www.w3.org/2000/svg" viewBox="0 0 2881.23 2847.54"><defs><style>.cls-2{fill:#fcaf9a}.cls-3{fill:#e28c79}.cls-5{fill:#ffcdbb}.cls-6{opacity:.39}.cls-7{fill:#f4a790}.cls-8{opacity:.25}.cls-9{fill:#ffc7b6}.cls-10{fill:#ffc9b8}.cls-11{opacity:.4}.cls-12{opacity:.28}.cls-13{fill:#ffeae3}.cls-14{fill:#ffc5b3}.cls-17{fill:#601400}.cls-18{fill:#7f1a06}.cls-19{fill:#330800}.cls-20{fill:#fff}.cls-21{opacity:.47}.cls-22{fill:#ffe7e1}.cls-24{fill:#001a21}.cls-25{opacity:.85}.cls-26{fill:#001014}.cls-27{opacity:.1}.cls-28{opacity:.2}</style></defs><g id="Capa_2" data-name="Capa 2"><g id="Ñëîé_1" data-name="Ñëîé 1"><path d="M2150.21 2099c2.78 3.85 5.81 7.71 9.12 11.67-32.83 7.57-64.59 15.52-98 20.1a313.06 313.06 0 0 1-33.37 2.14 139.23 139.23 0 0 1-26.88-3.55c-3.17 49.23-11.11 98.46-28.17 145.9-3.1 9.33-6.36 18.65-9.69 28a1241.26 1241.26 0 0 0-73.42 261.18q-7.5 44.56-11.8 89.56-2.8 29.49-4.21 59.17c203.92-139.29 337.78-373.62 337.78-639.21a770.34 770.34 0 0 0-82.28-347.52c-21.24 121.78-30.59 258.85 20.92 372.56Zm-1026.58-506.88q26 .84 52 3.44a313.38 313.38 0 0 0 19.44 38.14 599.391 599.391 0 0 0 27.74 41q15.48 21 33.74 41.84c56.85 63.72 134.66 136.77 226.77 109.78 106.4-30.18 172.44-138.64 219.66-234.32 17.31-1.78 33.73.73 51.07.17 114-3.71 227.64 17.62 333.33 61.31-137.89-212.48-377.21-353-649.37-353-272.56 0-512.19 141-650 354 106.36-44.42 220.82-66.1 335.62-62.36Zm-198.89 726.47c-11-30.49-26.19-60.41-34.12-91.79-7.46-29.51-2.62-64.47-13.93-92.71-3.18-7.93-15.88-3.17-23.82 0-39.71 7.94-79.41 9.52-116-7.4-4.23-1.91-8.43-3.72-12.6-5.31 15.88-23.82 23.82-50.82 25.84-78.16a871.6 871.6 0 0 0 3.55-24.82c11.67-91.35 8.61-184.46 1.31-275.88a210.52 210.52 0 0 0-5.52-21.36 770.23 770.23 0 0 0-85 352.8c0 262.62 130.88 494.67 331 634.5 3.95-134.55-24.63-262.55-70.71-389.87Z" style="fill:#067"/><path d="M997.87 759.17c-11.11-20.79-34.35-30.89-56.58-31.9-35.37 0-70.73 21.22-84.88 53.55-31.32 73.76 19.2 162.68 88.92 192 29.3 13.14 69.72 14.15 89.93-13.13 32.33-43.45-9.09-93-19.27-137.35-5.15-18.82-11.1-39.82-18.12-63.17Zm896.64 0c11.11-20.79 34.35-30.89 56.58-31.9 35.36 0 70.73 21.22 84.88 53.55 31.32 73.76-19.2 162.68-88.92 192-29.3 13.14-69.72 14.15-89.93-13.13-32.33-43.45 9.09-93 19.26-137.35 5.16-18.82 11.1-39.82 18.13-63.17Z" class="cls-2"/><path d="M935 879.67c-9.22-3.62-16.45-13.25-20.19-22.17-6.33-15.11-6.48-34.09 3.6-47.84.48-.65 1.16-1.67 2.07-1.56 3 .36 10.46 11.82 12.57 14l16.86 17.9c2.14 2.26 1.22 3.71-.55 5.65-9.66 10.53-12.68 20.35-14.36 34.02Zm1028.79 0c9.22-3.62 16.45-13.25 20.19-22.17 6.33-15.11 6.48-34.09-3.6-47.84-.48-.65-1.16-1.67-2.08-1.56-3 .36-10.45 11.82-12.56 14L1948.9 840c-2.14 2.26-1.22 3.71.55 5.65 9.66 10.53 12.68 20.35 14.34 34.02Z" class="cls-3"/><path d="m1437.5 2804.21 1.27-.52c-46-33.27-102.82-37.47-162.27-32.82 58.44 3.45 113.16 13.13 161 33.34Zm163.27-33.48c-58-4.36-113.36-.11-158.52 31.54 47.32-19.18 101.14-28.27 158.52-31.54Z" style="fill:#2d1511"/><path d="M1024.61 2628.45h781.89c-3.73-112.93 20.61-222.17 77-322.59 61.93-111.16 138.16-219.15 130.22-349.37-120.69 9.53-238.21 46-358.22 61.42-19.32 3-39.54 6.09-60.9 9.36-106.7 16.29-241.75 37.54-412.65 65q-42.43 6.82-87.87 14.12-40.17 6.23-82.79 12.44t-86.79 12.85c-.2 34.4 4.56 67.75 12.5 102.69 28.29 136.17 73.16 261.92 87.61 394.08Z" class="cls-5"/><path d="M2880.63 1874.61c-2.35-13.91-3.76-26.75-11-39.36-5.41-9.41-11.58-17.23-18.07-25.81-5.53-7.31-8.55-14.27-11.34-23.27a213.65 213.65 0 0 1-5.89-28.77c-1.33-9.66-2.09-19.34-2.47-28.83-3-56.93-28.84-107-57.69-155.61-50.09-85.77-98.67-167.74-162.65-240.66q-14.33-16.27-28.25-32.52-9.27-10.83-18.37-21.73c-15.81-16.22-29.47-35-42.53-54.43-4.35-6.48-8.64-13-12.84-19.61-16.2-26.51-17-59.15-38.22-82.68a101.66 101.66 0 0 0-12.69-12 98.81 98.81 0 0 0-14-9.27 51.32 51.32 0 0 0-15-6.85c-23.53-6.84-46.31-7.59-69.84-14.43-20.49-6.83-41-13.66-63.35-15a126 126 0 0 0-19.17 1.47c-5.63.26-11.25.58-16.86.84-12.63.57-25.23.83-37.86-.51-4.21-.45-8.42-1.07-12.64-1.92-41.4-.81-92.25-12.19-124.13 16.65-18.22 15.94-21.26 44.79-36.44 65q-4.55 6.86-9.68 13.53t-10.81 13.32c-6.83 6.83-9.11 15.94-9.65 26a78.11 78.11 0 0 0 2.15 15.85 126 126 0 0 0 8 23.35 150 150 0 0 0 12.27 21.83c2.29 5.54 5 11.23 8 16.93s6.38 11.4 10.06 17a87.81 87.81 0 0 0 34.39 32 83.39 83.39 0 0 0 14.58 6c22.67 6.58 48.48 5.82 69-7.84 11.39-7.59 6.07-23.53 12.91-34.92a4.15 4.15 0 0 1 3.79-2.28c28.09-3.79 60 14.43 84.4-6.46 3.94-2.72 7.83-5.6 12.1-8.16 6.85-4.12 13.8-8.75 21.1-12.07 10.11-4.59 28-7.71 36.66 1.65a32.13 32.13 0 0 1 4.08 6.35c8.84 15.85 23.2 27.05 33.43 41.8a197.72 197.72 0 0 1 24.69 48.8c2.81 8.21 5.18 16.58 7.17 25 6 25.41 8.65 51.74 10.18 77.46.49 9.84 1 19.62 1.46 29.4 2.48 48.68 5.22 97.29 12.18 145.36a206 206 0 0 0 5.12 24.29c2.09 8 4.37 15.94 6.27 24.29 1.51 9.1 3 17.45 2.58 26.11-.13 4.32-.42 8.64-.4 12.74 0 6.06 1.22 18.09-7.17 19.56-4 .7-11.32-5.26-14.55-7.32-4.56-2.91-8.1-6.83-12.49-9.88-2.91-2-6.31-2.68-9.1-4.82-2.51-1.92-4.25-4.88-6.63-7-14.91-13-34.68-19.18-49-33-9-8.68-22-11.53-33.64-14.8-11.2-3.13-23.18-9.06-34.84-9.13-16.51-.09-33 0-49.53 0a99.76 99.76 0 0 0-20.72 2.07c-4.64.91-8.34.55-12.94 2.43-3 1.24-5.91 2.81-8.92 4-7.25 3-14.12 6.14-21.12 9.67-5.4 2.73-12.64 7.06-18.81 7-5.9 0-14-2.64-19.24-5.23-17.34-8.55-35.35-15.32-53.61-21.39-9.13-3-18.33-5.88-27.72-8.59q-12.69-3.15-25.56-5.92t-25.89-5c-11.92-1.87-23.94-3.54-36.1-4.77-4.86 6.45-9.19 13.49-14 20.54-50.09 69.83-45.54 151.81-48.58 232.27-2.27 77.42 6.08 154.08 30.37 228.47 2.3 7.11 4.87 14.31 7.73 21.46 33.26-20.84 62.71-48.61 76.47-85.92 9.16 6.77 18.46 13 28 18.84s19.36 11.14 29.49 16.13c10 4.72 20.21 8.93 30.57 12.73 31.09 11.42 63.68 19.15 97 25.67 16.65 3.26 33.46 6.22 50.33 9.06 112.33 29.09 229.23 4.8 330.33-48.24 10.39-3.51 20.92-6.54 31.37-10 18.62-6.26 37.25-12.52 55.92-19 10-3.43 19.85-6.74 29.9-9.92s20.24-6.22 30.68-9.06a218.87 218.87 0 0 0 60-25c41.75-24.29 56.93-73.63 83.5-111.49 4.35-6.95 5.14-14.36 3.77-22.45Z" class="cls-5"/><g class="cls-6"><path d="M2155.79 1681.51c-5.9 0-14-2.64-19.24-5.23-17.34-8.55-35.35-15.32-53.61-21.39-9.13-3-18.33-5.88-27.72-8.59q-12.69-3.15-25.56-5.92t-25.89-5c-11.92-1.87-23.94-3.54-36.1-4.77-4.86 6.45-9.19 13.49-14 20.54q-2.31 3.22-4.47 6.48a606.19 606.19 0 0 1 142.62 36 323.37 323.37 0 0 1 45.2 21.27 198.27 198.27 0 0 0 17-25.82 62.7 62.7 0 0 0 4.29-7.79 15.64 15.64 0 0 1-2.52.22Z" class="cls-7"/></g><path d="M2880.63 1874.61c-2.35-13.91-3.76-26.75-11-39.36-5.41-9.41-11.58-17.23-18.07-25.81-5.53-7.31-8.55-14.27-11.34-23.27a213.65 213.65 0 0 1-5.89-28.77c-1.33-9.66-2.09-19.34-2.47-28.83-3-56.93-28.84-107-57.69-155.61-50.09-85.77-98.67-167.74-162.65-240.66q-14.33-16.27-28.25-32.52-9.27-10.83-18.37-21.73c-15.81-16.22-29.47-35-42.53-54.43-4.35-6.48-8.64-13-12.84-19.61-16.2-26.51-17-59.15-38.22-82.68a101.66 101.66 0 0 0-12.69-12 98.81 98.81 0 0 0-14-9.27 51.32 51.32 0 0 0-15-6.85c-23.53-6.84-46.31-7.59-69.84-14.43-20.49-6.83-41-13.66-63.35-15a126 126 0 0 0-19.17 1.47c-5.63.26-11.25.58-16.86.84-12.63.57-25.23.83-37.86-.51-4.21-.45-8.42-1.07-12.64-1.92-41.4-.81-92.25-12.19-124.13 16.65-18.22 15.94-21.26 44.79-36.44 65q-4.55 6.86-9.68 13.53t-10.81 13.32c-6.83 6.83-9.11 15.94-9.65 26a78.11 78.11 0 0 0 2.15 15.85 126 126 0 0 0 8 23.35 150 150 0 0 0 12.27 21.83c2.29 5.54 5 11.23 8 16.93s6.38 11.4 10.06 17a87.81 87.81 0 0 0 34.39 32 83.39 83.39 0 0 0 14.58 6c22.67 6.58 48.48 5.82 69-7.84 11.39-7.59 6.07-23.53 12.91-34.92a4.15 4.15 0 0 1 3.79-2.28c28.09-3.79 60 14.43 84.4-6.46 3.94-2.72 7.83-5.6 12.1-8.16 6.85-4.12 13.8-8.75 21.1-12.07 10.11-4.59 28-7.71 36.66 1.65a32.13 32.13 0 0 1 4.08 6.35c8.84 15.85 23.2 27.05 33.43 41.8a197.72 197.72 0 0 1 24.69 48.8c2.81 8.21 5.18 16.58 7.17 25 6 25.41 8.65 51.74 10.18 77.46.49 9.84 1 19.62 1.46 29.4 2.48 48.68 5.22 97.29 12.18 145.36a206 206 0 0 0 5.12 24.29c2.09 8 4.37 15.94 6.27 24.29 1.51 9.1 3 17.45 2.58 26.11-.13 4.32-.42 8.64-.4 12.74 0 6.06 1.22 18.09-7.17 19.56-4 .7-11.32-5.26-14.55-7.32-4.56-2.91-8.1-6.83-12.49-9.88-2.91-2-6.31-2.68-9.1-4.82-2.51-1.92-4.25-4.88-6.63-7-14.91-13-34.68-19.18-49-33-9-8.68-22-11.53-33.64-14.8-11.2-3.13-23.18-9.06-34.84-9.13-16.51-.09-33 0-49.53 0a99.76 99.76 0 0 0-20.72 2.07c-4.64.91-8.34.55-12.94 2.43-3 1.24-5.91 2.81-8.92 4-7.25 3-14.12 6.14-21.12 9.67-4.69 2.37-10.75 5.93-16.29 6.81a62.7 62.7 0 0 1-4.29 7.79c-12.9 22.77-31.12 48.58-56.93 53.13-4.55.76-9.11-3.79-12.9-5.31-43.27-12.9-83.5-28.09-128.28-34.92a215.1 215.1 0 0 0-28.72-1.44c-22 57.66-19.79 120.71-22.14 182.86-2.27 77.42 6.08 154.08 30.37 228.47 2.3 7.11 4.87 14.31 7.73 21.46 33.26-20.84 62.71-48.61 76.47-85.92 9.16 6.77 18.46 13 28 18.84s19.36 11.14 29.49 16.13c10 4.72 20.21 8.93 30.57 12.73 31.09 11.42 63.68 19.15 97 25.67 16.65 3.26 33.46 6.22 50.33 9.06 112.33 29.09 229.23 4.8 330.33-48.24 10.39-3.51 20.92-6.54 31.37-10 18.62-6.26 37.25-12.52 55.92-19 10-3.43 19.85-6.74 29.9-9.92s20.24-6.22 30.68-9.06a218.87 218.87 0 0 0 60-25c41.75-24.29 56.93-73.63 83.5-111.49 4.39-6.96 5.18-14.37 3.81-22.46Z" class="cls-5"/><g class="cls-8"><path d="M2144.91 1312.61c-24.29-10.63-49.34-23.53-63-47.82-6.07-11.38-12.14-22.77-16.7-34.92-10.62-27.32 2.28-53.89 12.91-78.94 5.31-12.14 2.27-25.8 8.35-36.43 15.94-27.33 50.09-26.57 78.18-20.5 32.64 7.6 64.52 13.67 97.92 8.35 32-5.23 61.31-18 92.4-25.11-18.92-6.27-38-12.18-58.6-13.43a126 126 0 0 0-19.17 1.47c-5.63.26-11.25.58-16.86.84-12.63.57-25.23.83-37.86-.51-4.21-.45-8.42-1.07-12.64-1.92-41.4-.81-92.25-12.19-124.13 16.65-18.22 15.94-21.26 44.79-36.44 65q-4.55 6.86-9.68 13.53t-10.81 13.32c-6.83 6.83-9.11 15.94-9.65 26a78.11 78.11 0 0 0 2.15 15.85 126 126 0 0 0 8 23.35 150 150 0 0 0 12.27 21.83c2.29 5.54 5 11.23 8 16.93s6.38 11.4 10.06 17a87.81 87.81 0 0 0 34.39 32 83.39 83.39 0 0 0 14.58 6c22.67 6.58 48.48 5.82 69-7.84 7.42-5 7.75-13.44 9-21.9-11.45 11.91-27.09 18.17-41.67 11.2Z" class="cls-7"/></g><path d="M2880.63 1874.61c-2.35-13.91-3.76-26.75-11-39.36-5.41-9.41-11.58-17.23-18.07-25.81-5.53-7.31-8.55-14.27-11.34-23.27a213.65 213.65 0 0 1-5.89-28.77c-1.33-9.66-2.09-19.34-2.47-28.83-3-56.93-28.84-107-57.69-155.61-50.09-85.77-98.67-167.74-162.65-240.66q-14.33-16.27-28.25-32.52-9.27-10.83-18.37-21.73c-15.81-16.22-29.47-35-42.53-54.43-4.35-6.48-8.64-13-12.84-19.61-16.2-26.51-17-59.15-38.22-82.68a101.66 101.66 0 0 0-12.69-12 98.81 98.81 0 0 0-14-9.27 51.32 51.32 0 0 0-15-6.85c-23.53-6.84-46.31-7.59-69.84-14.43l-4.75-1.58c-31.09 7.07-60.41 19.88-92.4 25.11-33.4 5.32-65.28-.75-97.92-8.35-28.09-6.07-62.24-6.83-78.18 20.5-6.08 10.63-3 24.29-8.35 36.43-10.63 25-23.53 51.62-12.91 78.94 4.56 12.15 10.63 23.54 16.7 34.92 13.66 24.29 38.71 37.19 63 47.82 14.58 7 30.22.71 41.61-11.27.65-4.53 1.56-9 3.94-13a4.15 4.15 0 0 1 3.79-2.28c28.09-3.79 60 14.43 84.4-6.46 3.94-2.72 7.83-5.6 12.1-8.16 6.85-4.12 13.8-8.75 21.1-12.07 10.11-4.59 28-7.71 36.66 1.65a32.13 32.13 0 0 1 4.08 6.35c8.84 15.85 23.2 27.05 33.43 41.8a197.72 197.72 0 0 1 24.69 48.8c2.81 8.21 5.18 16.58 7.17 25 6 25.41 8.65 51.74 10.18 77.46.49 9.84 1 19.62 1.46 29.4 2.48 48.68 5.22 97.29 12.18 145.36a206 206 0 0 0 5.12 24.29c2.09 8 4.37 15.94 6.27 24.29 1.51 9.1 3 17.45 2.58 26.11-.13 4.32-.42 8.64-.4 12.74 0 6.06 1.22 18.09-7.17 19.56-4 .7-11.32-5.26-14.55-7.32-4.56-2.91-8.1-6.83-12.49-9.88-2.91-2-6.31-2.68-9.1-4.82-2.51-1.92-4.25-4.88-6.63-7-14.91-13-34.68-19.18-49-33-9-8.68-22-11.53-33.64-14.8-11.2-3.13-23.18-9.06-34.84-9.13-16.51-.09-33 0-49.53 0a99.76 99.76 0 0 0-20.72 2.07c-4.64.91-8.34.55-12.94 2.43-3 1.24-5.91 2.81-8.92 4-7.25 3-14.12 6.14-21.12 9.67-4.69 2.37-10.75 5.93-16.29 6.81a62.7 62.7 0 0 1-4.29 7.79c-12.9 22.77-31.12 48.58-56.93 53.13-4.55.76-9.11-3.79-12.9-5.31-43.27-12.9-83.5-28.09-128.28-34.92a215.1 215.1 0 0 0-28.72-1.44c-22 57.66-19.79 120.71-22.14 182.86-2.27 77.42 6.08 154.08 30.37 228.47 2.3 7.11 4.87 14.31 7.73 21.46 33.26-20.84 62.71-48.61 76.47-85.92 9.16 6.77 18.46 13 28 18.84s19.36 11.14 29.49 16.13c10 4.72 20.21 8.93 30.57 12.73 31.09 11.42 63.68 19.15 97 25.67 16.65 3.26 33.46 6.22 50.33 9.06 112.33 29.09 229.23 4.8 330.33-48.24 10.39-3.51 20.92-6.54 31.37-10 18.62-6.26 37.25-12.52 55.92-19 10-3.43 19.85-6.74 29.9-9.92s20.24-6.22 30.68-9.06a218.87 218.87 0 0 0 60-25c41.75-24.29 56.93-73.63 83.5-111.49 4.42-6.9 5.21-14.31 3.84-22.4Z" class="cls-5"/><path d="M2880.63 1874.61c-2.35-13.91-3.76-26.75-11-39.36-5.41-9.41-11.58-17.23-18.07-25.81-5.53-7.31-8.55-14.27-11.34-23.27a213.65 213.65 0 0 1-5.89-28.77c-1.33-9.66-2.09-19.34-2.47-28.83-3-56.93-28.84-107-57.69-155.61-50.09-85.77-98.67-167.74-162.65-240.66q-14.33-16.27-28.25-32.52-9.27-10.83-18.37-21.73c-15.81-16.22-29.47-35-42.53-54.43-4.35-6.48-8.64-13-12.84-19.61-16.2-26.51-17-59.15-38.22-82.68a101.66 101.66 0 0 0-12.69-12 98.81 98.81 0 0 0-14-9.27 51.32 51.32 0 0 0-15-6.85c-23.53-6.84-46.31-7.59-69.84-14.43l-4.75-1.58c-31.09 7.07-60.41 19.88-92.4 25.11-33.4 5.32-65.28-.75-97.92-8.35-28.09-6.07-62.24-6.83-78.18 20.5-6.08 10.63-3 24.29-8.35 36.43-10.63 25-23.53 51.62-12.91 78.94 4.56 12.15 10.63 23.54 16.7 34.92 13.66 24.29 38.71 37.19 63 47.82 14.58 7 30.22.71 41.61-11.27.65-4.53 1.56-9 3.94-13a4.15 4.15 0 0 1 3.79-2.28c28.09-3.79 60 14.43 84.4-6.46 3.94-2.72 7.83-5.6 12.1-8.16 6.85-4.12 13.8-8.75 21.1-12.07 10.11-4.59 28-7.71 36.66 1.65a32.13 32.13 0 0 1 4.08 6.35c8.84 15.85 23.2 27.05 33.43 41.8a197.72 197.72 0 0 1 24.69 48.8c2.81 8.21 5.18 16.58 7.17 25 6 25.41 8.65 51.74 10.18 77.46.49 9.84 1 19.62 1.46 29.4 2.48 48.68 5.22 97.29 12.18 145.36a206 206 0 0 0 5.12 24.29c2.09 8 4.37 15.94 6.27 24.29 1.51 9.1 3 17.45 2.58 26.11-.13 4.32-.42 8.64-.4 12.74 0 6.06 1.22 18.09-7.17 19.56-4 .7-11.32-5.26-14.55-7.32-4.56-2.91-8.1-6.83-12.49-9.88-2.91-2-6.31-2.68-9.1-4.82-2.51-1.92-4.25-4.88-6.63-7-14.91-13-34.68-19.18-49-33-9-8.68-22-11.53-33.64-14.8-11.2-3.13-23.18-9.06-34.84-9.13-16.51-.09-33 0-49.53 0a99.76 99.76 0 0 0-20.72 2.07c-4.64.91-8.34.55-12.94 2.43-3 1.24-5.91 2.81-8.92 4-7.25 3-14.12 6.14-21.12 9.67-4.69 2.37-10.75 5.93-16.29 6.81a62.7 62.7 0 0 1-4.29 7.79c-12.9 22.77-31.12 48.58-56.93 53.13-4.55.76-9.11-3.79-12.9-5.31-43.27-12.9-83.5-28.09-128.28-34.92a215.1 215.1 0 0 0-28.72-1.44c-22 57.66-19.79 120.71-22.14 182.86-2.27 77.42 6.08 154.08 30.37 228.47 2.3 7.11 4.87 14.31 7.73 21.46 33.26-20.84 62.71-48.61 76.47-85.92 9.16 6.77 18.46 13 28 18.84s19.36 11.14 29.49 16.13c10 4.72 20.21 8.93 30.57 12.73 31.09 11.42 63.68 19.15 97 25.67 16.65 3.26 33.46 6.22 50.33 9.06 112.33 29.09 229.23 4.8 330.33-48.24 10.39-3.51 20.92-6.54 31.37-10 18.62-6.26 37.25-12.52 55.92-19 10-3.43 19.85-6.74 29.9-9.92s20.24-6.22 30.68-9.06a218.87 218.87 0 0 0 60-25c41.75-24.29 56.93-73.63 83.5-111.49 4.42-6.9 5.21-14.31 3.84-22.4Z" class="cls-5"/><g class="cls-8"><path d="M2427.28 1135c14.42 7.59 28.08 15.94 40.23 27.33 2.28 2.28 3.79 6.07 6.07 9.87 9.87 16.7 15.18 34.15 25.81 50.85 8.22 12.51 19.46 14.92 31.12 12.47q-4.12-5.88-8.15-11.89c-4.35-6.48-8.64-13-12.84-19.61-16.2-26.51-17-59.15-38.22-82.68a101.66 101.66 0 0 0-12.69-12 98.81 98.81 0 0 0-14-9.27 51.32 51.32 0 0 0-15-6.85c-23.53-6.84-46.31-7.59-69.84-14.43l-4.75-1.58c-13.31 3-26.3 7.11-39.31 11.19 33.85 9.85 65.8 23.59 97.2 39 4.5 2.28 9.81 5.32 14.37 7.6Z" class="cls-7"/></g><path d="M2880.63 1874.61c-2.35-13.91-3.76-26.75-11-39.36-5.41-9.41-11.58-17.23-18.07-25.81-5.53-7.31-8.55-14.27-11.34-23.27a213.65 213.65 0 0 1-5.89-28.77c-1.33-9.66-2.09-19.34-2.47-28.83-3-56.93-28.84-107-57.69-155.61-50.09-85.77-98.67-167.74-162.65-240.66q-14.33-16.27-28.25-32.52-9.27-10.83-18.37-21.73c-12.56-12.88-23.76-27.37-34.38-42.54-11.66 2.45-22.9 0-31.12-12.47-10.63-16.7-15.94-34.15-25.81-50.85-2.28-3.8-3.79-7.59-6.07-9.87-12.15-11.39-25.81-19.74-40.23-27.33-4.56-2.27-9.87-5.31-14.42-7.59-31.4-15.38-63.35-29.12-97.2-39-17.38 5.46-34.8 10.93-53.09 13.92-33.4 5.32-65.28-.75-97.92-8.35-28.09-6.07-62.24-6.83-78.18 20.5-6.08 10.63-3 24.29-8.35 36.43-10.63 25-23.53 51.62-12.91 78.94 4.56 12.15 10.63 23.54 16.7 34.92 13.66 24.29 38.71 37.19 63 47.82 14.58 7 30.22.71 41.61-11.27.65-4.53 1.56-9 3.94-13a4.15 4.15 0 0 1 3.79-2.28c28.09-3.79 60 14.43 84.4-6.46 3.94-2.72 7.83-5.6 12.1-8.16 6.85-4.12 13.8-8.75 21.1-12.07 10.11-4.59 28-7.71 36.66 1.65a32.13 32.13 0 0 1 4.08 6.35c8.84 15.85 23.2 27.05 33.43 41.8a197.72 197.72 0 0 1 24.69 48.8c2.81 8.21 5.18 16.58 7.17 25 6 25.41 8.65 51.74 10.18 77.46.49 9.84 1 19.62 1.46 29.4 2.48 48.68 5.22 97.29 12.18 145.36a206 206 0 0 0 5.12 24.29c2.09 8 4.37 15.94 6.27 24.29 1.51 9.1 3 17.45 2.58 26.11-.13 4.32-.42 8.64-.4 12.74 0 6.06 1.22 18.09-7.17 19.56-4 .7-11.32-5.26-14.55-7.32-4.56-2.91-8.1-6.83-12.49-9.88-2.91-2-6.31-2.68-9.1-4.82-2.51-1.92-4.25-4.88-6.63-7-14.91-13-34.68-19.18-49-33-9-8.68-22-11.53-33.64-14.8-11.2-3.13-23.18-9.06-34.84-9.13-16.51-.09-33 0-49.53 0a99.76 99.76 0 0 0-20.72 2.07c-4.64.91-8.34.55-12.94 2.43-3 1.24-5.91 2.81-8.92 4-7.25 3-14.12 6.14-21.12 9.67-4.69 2.37-10.75 5.93-16.29 6.81a62.7 62.7 0 0 1-4.29 7.79c-12.9 22.77-31.12 48.58-56.93 53.13-4.55.76-9.11-3.79-12.9-5.31-43.27-12.9-83.5-28.09-128.28-34.92a215.1 215.1 0 0 0-28.72-1.44c-22 57.66-19.79 120.71-22.14 182.86-2.27 77.42 6.08 154.08 30.37 228.47 2.3 7.11 4.87 14.31 7.73 21.46 33.26-20.84 62.71-48.61 76.47-85.92 9.16 6.77 18.46 13 28 18.84s19.36 11.14 29.49 16.13c10 4.72 20.21 8.93 30.57 12.73 31.09 11.42 63.68 19.15 97 25.67 16.65 3.26 33.46 6.22 50.33 9.06 112.33 29.09 229.23 4.8 330.33-48.24 10.39-3.51 20.92-6.54 31.37-10 18.62-6.26 37.25-12.52 55.92-19 10-3.43 19.85-6.74 29.9-9.92s20.24-6.22 30.68-9.06a218.87 218.87 0 0 0 60-25c41.75-24.29 56.93-73.63 83.5-111.49 4.47-6.91 5.26-14.32 3.89-22.41Z" class="cls-5"/><path d="M2137.32 2017c13.67-12.15 27.33-23.53 44.79-25 60.72-6.83 119.93-7.59 179.89 0 41 4.55 81.22 11.39 123 6.83 9.86-.76 19.73-4.55 29.6-8.35 16.7-7.59 34.92-12.14 52.37-19.73 3.8-2.28 7.59-6.83 11.39-9.11 41-19 75.15-45.55 104-80.46 7.59-8.35 8.35-19 12.14-28.85.76-3-.75-6.07 0-9.1 8.35-27.33 3.8-54.66 3.8-82 .76-6.83-3-13.66-3-20.5-1.51-21.25-3-43.26-9.86-63-9.11-27.32-23.53-53.13-44-75.14-12.14-14.42-22-28.85-34.92-42.51-27.32-30.36-48.57-61.48-75.9-92.6-18.22-21.26-34.92-43.27-39.47-70.59-7.59-40.23-9.87-78.95.76-117.66 3.8-14.35 10.42-31.51 20.24-45-4.67-2-9-5.6-12.65-11.21-10.63-16.7-15.94-34.15-25.81-50.85-2.28-3.8-3.79-7.59-6.07-9.87-12.15-11.39-25.81-19.74-40.23-27.33-4.56-2.27-9.87-5.31-14.42-7.59-31.4-15.38-63.35-29.12-97.2-39-17.38 5.46-34.8 10.93-53.09 13.92-33.4 5.32-65.28-.75-97.92-8.35-28.09-6.07-62.24-6.83-78.18 20.5-6.08 10.63-3 24.29-8.35 36.43-10.63 25-23.53 51.62-12.91 78.94 4.56 12.15 10.63 23.54 16.7 34.92 13.66 24.29 38.71 37.19 63 47.82 14.58 7 30.22.71 41.61-11.27.65-4.53 1.56-9 3.94-13a4.15 4.15 0 0 1 3.79-2.28c28.09-3.79 60 14.43 84.4-6.46 3.94-2.72 7.83-5.6 12.1-8.16 6.85-4.12 13.8-8.75 21.1-12.07 10.11-4.59 28-7.71 36.66 1.65a32.13 32.13 0 0 1 4.08 6.35c8.84 15.85 23.2 27.05 33.43 41.8a197.72 197.72 0 0 1 24.69 48.8c2.81 8.21 5.18 16.58 7.17 25 6 25.41 8.65 51.74 10.18 77.46.49 9.84 1 19.62 1.46 29.4 2.48 48.68 5.22 97.29 12.18 145.36a206 206 0 0 0 5.12 24.29c2.09 8 4.37 15.94 6.27 24.29 1.51 9.1 3 17.45 2.58 26.11-.13 4.32-.42 8.64-.4 12.74 0 6.06 1.22 18.09-7.17 19.56-4 .7-11.32-5.26-14.55-7.32-4.56-2.91-8.1-6.83-12.49-9.88-2.91-2-6.31-2.68-9.1-4.82-2.51-1.92-4.25-4.88-6.63-7-14.91-13-34.68-19.18-49-33-9-8.68-22-11.53-33.64-14.8-11.2-3.13-23.18-9.06-34.84-9.13-16.51-.09-33 0-49.53 0a99.76 99.76 0 0 0-20.72 2.07c-4.64.91-8.34.55-12.94 2.43-3 1.24-5.91 2.81-8.92 4-7.25 3-14.12 6.14-21.12 9.67-4.69 2.37-10.75 5.93-16.29 6.81a62.7 62.7 0 0 1-4.29 7.79c-12.9 22.77-31.12 48.58-56.93 53.13-4.55.76-9.11-3.79-12.9-5.31-43.27-12.9-83.5-28.09-128.28-34.92a215.1 215.1 0 0 0-28.72-1.44c-22 57.66-19.79 120.71-22.14 182.86-2.27 77.42 6.08 154.08 30.37 228.47 2.3 7.11 4.87 14.31 7.73 21.46 33.26-20.84 62.71-48.61 76.47-85.92 9.16 6.77 18.46 13 28 18.84s19.36 11.14 29.49 16.13q7.85 3.7 15.85 7a148.83 148.83 0 0 1 5.64-23c6.71-20.4 22.65-34.82 38.59-49.25Z" class="cls-5"/><path d="M2160.85 1762c47.82 22.77 100.2 12.9 151.05 15.94 25.81 1.52 50.1 12.9 74.39 22a18.81 18.81 0 0 1 11.39 15.18c.76 10.63 2.27 22-.76 31.88-7.59 22-35.68 26.57-47.06 44.79-7.59 13.66 7.59 31.88 23.53 34.15 19.73 2.28 39.47 3 59.2 0 20.5-3.79 39.47-9.87 59.21-17.46 6.07-2.27 9.11-6.83 12.9-11.38 1.52-2.28 1.52-4.56 3-6.83 8.35-9.11 21.25-12.91 23.53-25 12.14-58.45-29.6-103.23-66-142.7-3.19-3.44-6.41-6.8-9.65-10.13-.14 3.49-.32 7-.31 10.27 0 6.06 1.22 18.09-7.17 19.56-4 .7-11.32-5.26-14.55-7.32-4.56-2.91-8.1-6.83-12.49-9.88-2.91-2-6.31-2.68-9.1-4.82-2.51-1.92-4.25-4.88-6.63-7-14.91-13-34.68-19.18-49-33-9-8.68-22-11.53-33.64-14.8-11.2-3.13-23.18-9.06-34.84-9.13-16.51-.09-33 0-49.53 0a99.76 99.76 0 0 0-20.72 2.07c-4.64.91-8.34.55-12.94 2.43-3 1.24-5.91 2.81-8.92 4-7.25 3-14.12 6.14-21.12 9.67-4.69 2.37-10.75 5.93-16.29 6.81a62.7 62.7 0 0 1-4.29 7.79c-5.67 10-12.37 20.6-20.29 29.72a43 43 0 0 0 1.32 8.23c4.53 13.67 11.36 28.1 25.78 34.96Z" class="cls-9"/><path d="M2694.46 1843.19c8.35-27.33 3.8-54.66 3.8-82 .76-6.83-3-13.66-3-20.5-1.51-21.25-3-43.26-9.86-63-9.11-27.32-23.53-53.13-44-75.14-12.14-14.42-22-28.85-34.92-42.51-27.32-30.36-48.57-61.48-75.9-92.6-18.22-21.26-34.92-43.27-39.47-70.59-7.59-40.23-9.87-78.95.76-117.66 3.8-14.35 10.42-31.51 20.24-45-4.67-2-9-5.6-12.65-11.21-10.63-16.7-15.94-34.15-25.81-50.85-2.28-3.8-3.79-7.59-6.07-9.87-12.15-11.39-25.81-19.74-40.23-27.33-4.56-2.27-9.87-5.31-14.42-7.59-31.4-15.38-63.35-29.12-97.2-39-17.38 5.46-34.8 10.93-53.09 13.92-33.4 5.32-65.28-.75-97.92-8.35-28.09-6.07-62.24-6.83-78.18 20.5-6.08 10.63-3 24.29-8.35 36.43-10.63 25-23.53 51.62-12.91 78.94 4.56 12.15 10.63 23.54 16.7 34.92 13.66 24.29 38.71 37.19 63 47.82 14.58 7 30.22.71 41.61-11.27.65-4.53 1.56-9 3.94-13a4.15 4.15 0 0 1 3.79-2.28c28.09-3.79 60 14.43 84.4-6.46 3.94-2.72 7.83-5.6 12.1-8.16 6.85-4.12 13.8-8.75 21.1-12.07 10.11-4.59 28-7.71 36.66 1.65a32.13 32.13 0 0 1 4.08 6.35c8.84 15.85 23.2 27.05 33.43 41.8a197.72 197.72 0 0 1 24.69 48.8c2.81 8.21 5.18 16.58 7.17 25 6 25.41 8.65 51.74 10.18 77.46.49 9.84 1 19.62 1.46 29.4 2.48 48.68 5.22 97.29 12.18 145.36a206 206 0 0 0 5.12 24.29c2.09 8 4.37 15.94 6.27 24.29 1.51 9.1 3 17.45 2.58 26.11l-.09 2.47c3.24 3.33 6.46 6.69 9.65 10.13 36.44 39.47 78.18 84.25 66 142.7-2.28 12.14-15.18 15.94-23.53 25-1.52 2.27-1.52 4.55-3 6.83-3.79 4.55-6.83 9.11-12.9 11.38-19.74 7.59-38.71 13.67-59.21 17.46-19.73 3-39.47 2.28-59.2 0-15.94-2.27-31.12-20.49-23.53-34.15 11.38-18.22 39.47-22.78 47.06-44.79 3-9.87 1.52-21.25.76-31.88a18.81 18.81 0 0 0-11.39-15.18c-24.29-9.11-48.58-20.49-74.39-22-50.85-3-103.23 6.83-151.05-15.94-14.42-6.83-21.25-21.26-25.8-34.92a43 43 0 0 1-1.32-8.23c-10.09 11.63-22.17 20.86-36.64 23.41-4.55.76-9.11-3.79-12.9-5.31-43.27-12.9-83.5-28.09-128.28-34.92a215.1 215.1 0 0 0-28.72-1.44c-22 57.66-19.79 120.71-22.14 182.86-2.27 77.42 6.08 154.08 30.37 228.47 2.3 7.11 4.87 14.31 7.73 21.46 33.26-20.84 62.71-48.61 76.47-85.92 9.16 6.77 18.46 13 28 18.84s19.36 11.14 29.49 16.13q7.85 3.7 15.85 7a148.83 148.83 0 0 1 5.64-23c6.83-20.5 22.77-34.92 38.71-49.34 13.67-12.15 27.33-23.53 44.79-25 60.72-6.83 119.93-7.59 179.89 0 41 4.55 81.22 11.39 123 6.83 9.86-.76 19.73-4.55 29.6-8.35 16.7-7.59 34.92-12.14 52.37-19.73 3.8-2.28 7.59-6.83 11.39-9.11 41-19 75.15-45.55 104-80.46 7.59-8.35 8.35-19 12.14-28.85.66-2.98-.85-6.02-.1-9.05Z" class="cls-5"/><path d="M2160.71 1239.23c-15.67-11.49-24-39.7-6.27-52.24 16.72-12.54 38.66-16.72 56.42-8.36 19.85 9.41 46 14.63 67.91 10.45 30.3-5.22 73.14-2.09 83.59-36.57a80.41 80.41 0 0 0-2.29-48.72c-14.5-5.76-29.26-11-44.41-15.36-17.38 5.46-34.8 10.93-53.09 13.92-33.4 5.32-65.28-.75-97.92-8.35-28.09-6.07-62.24-6.83-78.18 20.5-6.08 10.63-3 24.29-8.35 36.43-10.63 25-23.53 51.62-12.91 78.94 4.56 12.15 10.63 23.54 16.7 34.92 13.66 24.29 38.71 37.19 63 47.82 14.58 7 30.22.71 41.61-11.27.65-4.53 1.56-9 3.94-13a4.15 4.15 0 0 1 3.79-2.28c12.23-1.65 25.18.87 37.92 2.52a27.3 27.3 0 0 0-6.68-10.67c-17.76-18.83-42.84-23.01-64.78-38.68Z" class="cls-10"/><path d="M2694.46 1843.19c8.35-27.33 3.8-54.66 3.8-82 .76-6.83-3-13.66-3-20.5-1.51-21.25-3-43.26-9.86-63-9.11-27.32-23.53-53.13-44-75.14-12.14-14.42-22-28.85-34.92-42.51-27.32-30.36-48.57-61.48-75.9-92.6-18.22-21.26-34.92-43.27-39.47-70.59-7.59-40.23-9.87-78.95.76-117.66 3.8-14.35 10.42-31.51 20.24-45-4.67-2-9-5.6-12.65-11.21-10.63-16.7-15.94-34.15-25.81-50.85-2.28-3.8-3.79-7.59-6.07-9.87-12.15-11.39-25.81-19.74-40.23-27.33-4.56-2.27-9.87-5.31-14.42-7.59-17.35-8.49-34.87-16.49-52.79-23.61a80.41 80.41 0 0 1 2.29 48.72c-10.45 34.48-53.29 31.35-83.59 36.57-21.94 4.18-48.06-1-67.91-10.45-17.76-8.36-39.7-4.18-56.42 8.36-17.76 12.54-9.4 40.75 6.27 52.24 21.94 15.67 47 19.85 64.78 38.66a27.3 27.3 0 0 1 6.68 10.67c16.52 2.14 32.69 2.81 46.48-9 3.94-2.72 7.83-5.6 12.1-8.16 6.85-4.12 13.8-8.75 21.1-12.07 10.11-4.59 28-7.71 36.66 1.65a32.13 32.13 0 0 1 4.08 6.35c8.84 15.85 23.2 27.05 33.43 41.8a197.72 197.72 0 0 1 24.69 48.8c2.81 8.21 5.18 16.58 7.17 25 6 25.41 8.65 51.74 10.18 77.46.49 9.84 1 19.62 1.46 29.4 2.48 48.68 5.22 97.28 12.18 145.36a206 206 0 0 0 5.12 24.29c2.09 8 4.37 15.94 6.27 24.29 1.51 9.1 3 17.45 2.58 26.11l-.09 2.47c3.24 3.33 6.46 6.69 9.65 10.13 36.44 39.47 78.18 84.25 66 142.7-2.28 12.14-15.18 15.94-23.53 25-1.52 2.27-1.52 4.55-3 6.83-3.79 4.55-6.83 9.11-12.9 11.38-19.74 7.59-38.71 13.67-59.21 17.46-19.73 3-39.47 2.28-59.2 0-15.94-2.27-31.12-20.49-23.53-34.15 11.38-18.22 39.47-22.78 47.06-44.79 3-9.87 1.52-21.25.76-31.88a18.81 18.81 0 0 0-11.39-15.18c-24.29-9.11-48.58-20.49-74.39-22-50.85-3-103.23 6.83-151.05-15.94-14.42-6.83-21.25-21.26-25.8-34.92a43 43 0 0 1-1.32-8.23c-10.09 11.63-22.17 20.86-36.64 23.41-4.55.76-9.11-3.79-12.9-5.31-43.27-12.9-83.5-28.09-128.28-34.92a215.1 215.1 0 0 0-28.72-1.44c-22 57.66-19.79 120.71-22.14 182.86-2.27 77.42 6.08 154.08 30.37 228.47 2.3 7.11 4.87 14.31 7.73 21.46 33.26-20.84 62.71-48.61 76.47-85.92 9.16 6.77 18.46 13 28 18.84s19.36 11.14 29.49 16.13q7.85 3.7 15.85 7a148.83 148.83 0 0 1 5.64-23c6.83-20.5 22.77-34.92 38.71-49.34 13.67-12.15 27.33-23.53 44.79-25 60.72-6.83 119.93-7.59 179.89 0 41 4.55 81.22 11.39 123 6.83 9.86-.76 19.73-4.55 29.6-8.35 16.7-7.59 34.92-12.14 52.37-19.73 3.8-2.28 7.59-6.83 11.39-9.11 41-19 75.15-45.55 104-80.46 7.59-8.35 8.35-19 12.14-28.85.66-2.97-.85-6.01-.1-9.04Z" class="cls-5"/><path d="M2880.52 1874.61a82.69 82.69 0 0 0-10.9-39.36c-5.41-9.41-11.58-17.23-18.07-25.81-5.53-7.31-8.55-14.27-11.34-23.27a213.65 213.65 0 0 1-5.89-28.77c-1.33-9.66-2.09-19.34-2.47-28.83-3-56.93-28.84-107-57.69-155.61-50.09-85.77-98.67-167.74-162.65-240.66q-14.33-16.27-28.25-32.52-9.27-10.83-18.37-21.73c-12.56-12.88-23.76-27.37-34.38-42.54-6.43 1.35-12.73 1.22-18.47-1.26-9.82 13.45-16.44 30.61-20.24 45-10.63 38.71-8.35 77.43-.76 117.66 4.55 27.32 21.25 49.33 39.47 70.59 27.33 31.12 48.58 62.24 75.9 92.6 12.91 13.66 22.78 28.09 34.92 42.51 20.5 22 34.92 47.82 44 75.14 6.83 19.74 8.35 41.75 9.86 63 0 6.84 3.8 13.67 3 20.5 0 27.32 4.55 54.65-3.8 82-.75 3 .76 6.07 0 9.1-3.79 9.87-4.55 20.5-12.14 28.85-28.84 34.91-63 61.48-104 80.46-3.8 2.28-7.59 6.83-11.39 9.11-17.45 7.59-35.67 12.14-52.37 19.73-9.87 3.8-19.74 7.59-29.6 8.35-41.75 4.56-82-2.28-123-6.83-60-7.59-119.17-6.83-179.89 0-17.46 1.52-31.12 12.9-44.79 25-15.94 14.42-31.88 28.84-38.71 49.34a148.83 148.83 0 0 0-5.64 23q7.31 3 14.72 5.74c31.09 11.42 63.68 19.15 97 25.67 16.65 3.26 33.46 6.22 50.33 9.06 112.33 29.09 229.23 4.8 330.33-48.24 10.39-3.51 20.92-6.54 31.37-10 18.62-6.26 37.25-12.52 55.92-19 10-3.43 19.85-6.74 29.9-9.92s20.24-6.22 30.68-9.06a218.87 218.87 0 0 0 60-25c20.08-11.68 34.44-29.94 46.62-49.31s27.31-40.86 36.39-61.66a56.62 56.62 0 0 0 4.4-23.03Z" class="cls-10"/><g class="cls-6"><path d="M2311.14 1243.54c-5.31-30.36-28.08-56.17-55.41-66.8-19-6.83-40.23 2.28-53.13 19-11.39 14.42-23.53 25-32.64 38.71-7.59 12.14-4.55 31.88 8.35 42.51 4.56 3.79 12.9 5.31 19 6.07 21.75 3.29 43.51 1.44 64.27 6.37a41.37 41.37 0 0 0 4.69-2c8.94-4.47 16-10.85 24.5-16 6.85-4.12 13.8-8.75 21.1-12.07.59-.27 1.21-.53 1.85-.79 0-4.25-.13-8.5-.28-12.75-.02-.73-2.3-1.49-2.3-2.25Z" class="cls-7"/></g><g class="cls-6"><path d="M2364.28 1238.22c8.35-17.45 15.94-33.39 28.08-50.09.76-1.52.76-3.8.76-6.08-16.4 34.77-61.72 38.92-95.77 28.14a85.27 85.27 0 0 1 13.79 33.35c0 .76 2.28 1.52 2.28 2.27.15 4.25.23 8.5.28 12.75 8.6-3.43 21.37-5.56 30.1-1.09 9.3-3.59 15.78-10.53 20.48-19.25Z" class="cls-7"/></g><g class="cls-6"><path d="M2482.62 1684.6c-4.77-22.29-14.62-44.77-19.33-66.73a553.7 553.7 0 0 1-11.87-94.24c-.92-23.53-.32-47.08-1.47-70.6-1.15-23.28-7.07-41.68-13.56-63.76-8.94-26.11-19.13-51-32.81-74.61-8.71-5.63-17.36-11.38-26.12-17 14.46 18.21 25.93 38.25 33.25 60.31 2.81 8.21 5.18 16.58 7.17 25 6 25.41 8.65 51.74 10.18 77.46.49 9.84 1 19.62 1.46 29.4 2.48 48.68 5.22 97.29 12.18 145.36a206 206 0 0 0 5.12 24.29c2.09 8 4.37 15.94 6.27 24.29 1.51 9.1 3 17.45 2.58 26.11-.1 3.52-.31 7-.37 10.44 0 .66 10.34 8.71 11.53 9.91 5.24 5.24 15.42 41.78 20.92 37.54 8.11-6.27-2-56.43-2.62-65.75a121.13 121.13 0 0 0-2.51-17.42Z" class="cls-7"/></g><g class="cls-11"><path d="M2841 1944.14c-50.86 2.28-97.92 20.49-146.5 35.68-38.71 11.38-72.86 28.84-111.58 41-4.55.76-9.86 0-13.66 2.28-25 12.9-52.37 15.18-77.42 28.84-12.15 6.08-24.29 9.87-36.44 16.7-9.86 5.32-22 6.08-31.88 11.39-1.51.76-3.79 0-6.07 0-1.52.76-3 2.28-4.55 3-102.47 12.14-212.54 8.35-295.27-63-21.26-17.45-34.16-41.74-59.21-53.13-6.83-3-13.66-6.83-20.49-9.87-18.22-6.07-32.64 9.11-45.55 19-26.6 19.66-47.92 46.37-76.37 59.32a598.37 598.37 0 0 0 19.45 76.55c2.3 7.11 4.87 14.31 7.73 21.46 33.26-20.84 62.71-48.61 76.47-85.92 9.16 6.77 18.46 13 28 18.84s19.36 11.14 29.49 16.13c10 4.72 20.21 8.93 30.57 12.73 31.09 11.42 63.68 19.15 97 25.67 16.65 3.26 33.46 6.22 50.33 9.06 112.33 29.09 229.23 4.8 330.33-48.24 10.39-3.51 20.92-6.54 31.37-10 18.62-6.26 37.25-12.52 55.92-19 10-3.43 19.85-6.74 29.9-9.92s20.24-6.22 30.68-9.06a218.87 218.87 0 0 0 60-25c25.69-15 41.32-39.38 55.73-64.79Z" class="cls-7"/></g><g class="cls-11"><path d="M2881 1874.59c-.5-13.65-5.34-28.81-11.39-39.34-5.41-9.41-11.58-17.23-18.07-25.81-5.53-7.31-8.55-14.27-11.34-23.27a213.65 213.65 0 0 1-5.89-28.77c-1.33-9.66-2.09-19.34-2.47-28.83-3-56.93-28.84-107-57.69-155.61-50.09-85.77-98.67-167.74-162.65-240.66q-14.33-16.27-28.25-32.52-9.27-10.83-18.37-21.73c-15.81-16.22-29.47-35-42.53-54.43-4.35-6.48-8.64-13-12.84-19.61-16.2-26.51-17-59.15-38.22-82.68a101.66 101.66 0 0 0-12.69-12 98.81 98.81 0 0 0-14-9.27l-.88-.58c4.55 6.92 8.94 14 13.93 19.53 3.8 5.32 5.31 12.15 6.07 18.22 2.28 13.66 9.87 25 12.15 38.71.76 8.35-.76 16.7.76 25 0 2.28 3 4.56 3 6.83 1.52 11.39 1.52 21.26 9.11 32.64 1.52 2.28.76 7.59 3 10.63 3 3 4.55 6.83 7.59 10.63 13.78 18.37 29.26 35.39 42.8 54 12.74 17.45 24.9 35.31 37 53.62q29.06 44.09 60.52 86.52c9.8 13.22 20.09 25.69 27.86 40.17 8 14.91 15 30.37 23.86 44.82 10.74 17.58 23.14 34.13 33.31 52.06 1.78 3.14 3.4 6.32 4.9 9.55s2.89 6.48 4.2 9.75c21.38 42 29.73 86.77 36.19 132 .86 4 1.79 8 2.82 12 4.11 15.78 9.81 31 18.48 45.33 1.11 2.81 2.18 5.61 3.2 8.42a225.33 225.33 0 0 1 11.52 43.91c3.13 20.63 7.61 44.43-3 63.74-7.41 13.51-16.07 25.26-25.4 36.7 20.7-5.29 41.68-9.16 63.35-10.13l7.91-.27c9.78-17.24 26.56-37 31-56.21a49.88 49.88 0 0 0 1.15-13.06Z" class="cls-7"/></g><path d="M2481.92 1872.07c22.61-12.65 43.45-28.16 64-45.2-4.85-18.36-16.57-36.08-27.86-51.17q-6.14-8-12.94-15.31t-14.33-14.07c-6.43-6.11-13.19-12-20.16-17.59-34.87-28.13-75.2-50.63-113.61-71.23-7.5-3.29-15.07-6.25-22.72-8.79a208.56 208.56 0 0 0-28.5-7.36c-29.58-5.38-60.28-3.66-92.16 9a298.22 298.22 0 0 0-29.07 11.23 290.17 290.17 0 0 0-53.65 31.17c-9.08 6.15-17.91 12.65-26.38 19.44s-16.61 13.86-24.34 21.15c-8.07 6.49-16 13.18-24 19.9q-9 7.56-17.91 15.13t-18 15.12c-12 10.36-24.18 20.23-36.43 30.15-5 3.8-11.3 6.68 13.42.49 10.63-5 20.84-10.55 30.83-16.39s19.78-12 29.4-18.45 19.06-13.15 28.49-19.88c9.45-8.1 19.5-15.9 30-23.29s21.5-14.35 32.61-20.67a265.46 265.46 0 0 1 43.36-21.74q9.95-3.92 20.16-7c.92-.28 1.84-.57 2.77-.84 30.3-9.9 61.13-11.21 91.25-6.27q11.3 1.86 22.42 4.84c30.21 7.09 57.67 20.17 82.8 37.29q7.54 5.14 14.81 10.76c9 8.14 20.19 17.51 31.22 27.73 5.51 5.11 11 10.43 16.1 15.91 19 19.26 41 48.1 25.08 76.18a73 73 0 0 1-16.66 19.76Z" class="cls-5"/><g class="cls-6"><path d="M2545.94 1826.87c-4.85-18.36-16.57-36.08-27.86-51.17q-6.14-8-12.94-15.31t-14.33-14.07c-6.43-6.11-13.19-12-20.16-17.59-34.87-28.13-75.2-50.63-113.61-71.23-7.5-3.29-15.07-6.25-22.72-8.79a208.56 208.56 0 0 0-28.5-7.36c-29.58-5.38-60.28-3.66-92.16 9a298.22 298.22 0 0 0-29.07 11.23 290.17 290.17 0 0 0-53.65 31.17q-6.81 4.61-13.42 9.48c-44.72 40-85 85.55-138.08 115.91 54.65-6.83 95.64-49.34 136.61-82 5.26-3.7 10.64-7.29 16.08-10.75s11-6.77 16.53-9.93a265.46 265.46 0 0 1 43.36-21.74q9.95-3.92 20.16-7c.92-.28 1.84-.57 2.77-.84 30.3-9.9 61.13-11.21 91.25-6.27q11.3 1.86 22.42 4.84c30.21 7.09 57.67 20.17 82.8 37.29q7.54 5.14 14.81 10.76c9 8.14 20.19 17.51 31.22 27.73 5.51 5.11 11 10.43 16.1 15.91 19 19.26 41 48.1 25.08 76.18a73 73 0 0 1-16.71 19.78c-15.74 13.19-36.32 20.56-56.16 26.28-5.78 1.63-11.61 3.06-17.5 4.37-80.42 20.93-162.39 39.9-245.85 25.34q-10.72-1.45-21.32-3.53t-21.05-4.84a146.45 146.45 0 0 1-20.67-9 111 111 0 0 0 14.12 11.45 114.51 114.51 0 0 0 15.56 8.82q10.23 3.79 20.67 6.72t21.13 5.12c77.29 15.71 156.23 11.92 234.17 4.09 6.77-1 13.56-2.33 20.29-3.87 46-11.08 96.85-30.81 118.1-77.11 5.97-12.86 5.96-26.12 2.53-39.07Z" class="cls-7"/></g><g class="cls-12"><path d="M2264.22 1655.8c-59.18 3.87-103.69 31.48-103.69 31.48-29.6 44.41 26.19 39.85 26.19 39.85 27.71-16.42 53.68-24.39 77.3-26.9a49 49 0 0 0 4.62-6.58c6.98-11.42 3.88-26.54-4.42-37.85Z" class="cls-13"/></g><g class="cls-12"><path d="M2433.55 1734.88c-33.77-42-70.93-63.67-106.67-73.22-9.73 11-15 26.72-13.35 41 52.63 11 84.95 44.93 84.95 44.93 48.96 23.94 35.07-12.71 35.07-12.71Z" class="cls-13"/></g><g class="cls-12"><path d="M2546 1303.42c15.64-2.15 42.13 34.69 51.73 45.06 19.28 20.84 35.3 45.08 49.82 69.4 4.55 7.62 9 15.64 9.92 24.47 2.7 26.1-25.89 19.5-40.94 11-16-9-28.15-24.27-38.8-38.78a536.84 536.84 0 0 1-34.56-53.42c-6.33-11.18-21.9-54.28 2.8-57.76Z" class="cls-13"/></g><g class="cls-12"><path d="M2672.5 1476.61a9 9 0 0 0-3.61.7c-4.77 1.85-10.65 8.68-11.47 13.7-.45 2.82-.14 5.78-.14 8.62a46.27 46.27 0 0 0 .07 6.45 24.93 24.93 0 0 0 2.57 7.27c2 4.09 3.88 8.2 6.06 12.18 3.74 6.84 7.18 14.2 11.82 20.5 2.08 2.82 4.35 5.47 6.61 8.12 1.75 2.07 3.06 5 5.65 5.94s5.45.73 8.22.73c3.15 0 5.17.38 7.72-1.48 7.81-5.67 4.51-18.06 2-25.92-3.72-11.81-9.61-22.76-15.89-33.38-3.84-6.55-10.7-23.04-19.61-23.43Z" class="cls-13"/></g><path d="M1889.72 1653.08Zm16.04 207.57-.12 4.52Zm47.87-209.5Zm-56.9 2.35a447.57 447.57 0 0 0-8.6 47.61c13.06.26 26-.46 39.06-.55a217.08 217.08 0 0 1 22.12-43.16l-.15.22q-26.1-3.24-52.43-4.12Zm8.51 224.69c-.06 1.74-.12 3.48-.19 5.23.07-1.75.13-3.49.19-5.23Zm.35-11.5-.12 4.42Zm-7.41-228.26c1-1.58 2-3.17 3.08-4.74a191.03 191.03 0 0 0-3.08 4.74Zm7.26 233.48c0 1.68-.1 3.37-.16 5 .06-1.63.11-3.32.16-5Zm-13.06-223.74q1.13-2 2.29-4-1.17 2.01-2.29 4Zm2.83-4.9c.76-1.28 1.55-2.55 2.34-3.82-.79 1.27-1.55 2.55-2.34 3.82Z" class="cls-5"/><g class="cls-6"><path d="m1892 1649 .42-.78Z" class="cls-7"/></g><g class="cls-6"><path d="M1951.36 1654.38c-.7 1-1.38 2-2 3 .64-.98 1.3-1.99 2-3Z" class="cls-7"/></g><g class="cls-6"><path d="m1894.67 1644.2.54-.93Z" class="cls-7"/></g><g class="cls-6"><path d="m1889.6 1653.31.12-.23Z" class="cls-7"/></g><g class="cls-6"><path d="M1897.55 1639.45c.21-.34.41-.68.63-1-.18.32-.42.66-.63 1Z" class="cls-7"/></g><path d="m1949.16 1657.63.15-.22c.67-1 1.35-2 2-3s1.5-2.16 2.27-3.23c4.85-7.05 9.18-14.09 14-20.54-1.21-.12-2.43-.25-3.65-.36-21.41-1.78-51.26-8.71-61.33 1.68-2 6.18-4 13.35-6 21.57q26.4.83 52.56 4.1Z" class="cls-5"/><g class="cls-6"><path d="m1949.16 1657.63.15-.22c.67-1 1.35-2 2-3s1.5-2.16 2.27-3.23c4.85-7.05 9.18-14.09 14-20.54-1.21-.12-2.43-.25-3.65-.36-21.41-1.78-51.26-8.71-61.33 1.68-2 6.18-4 13.35-6 21.57q26.4.83 52.56 4.1Z" class="cls-7"/></g><path d="M1905.28 1877v1.23c-.03-.45-.01-.86 0-1.23Zm21.91-176.43c-19.29 50.62-20 105.41-21.43 160.08 1.47-54.65 2.14-109.45 21.43-160.08Zm-21.55 164.6c0 .51 0 1-.05 1.52.02-.51.03-1.01.05-1.52Zm-.17 5.94v.8Zm16.46 192.6q.64 2.74 1.32 5.49c-.45-1.83-.88-3.66-1.32-5.49Zm1.86 7.67Zm1.62 6.36q.75 2.9 1.54 5.79-.79-2.9-1.54-5.79Zm-4.88-20.17Zm-4.53-22.21c.31 1.68.63 3.37 1 5.05-.39-1.68-.71-3.41-1-5.05Zm13.24 56.36c.57 2 1.16 4 1.76 6.05-.6-2.02-1.19-4.03-1.76-6.05Zm-10.45-42.13q.56 2.61 1.12 5.21-.57-2.59-1.12-5.21Zm-1.23-6.04c.2 1 .4 2 .61 3-.17-.99-.41-2-.61-3Zm9.79 41.45 1.36 4.86q-.71-2.43-1.36-4.86Zm6.08 20.69Z" class="cls-5"/><path d="M1905.24 1878.19v-1.23c.06-1.68.11-3.37.16-5v-.8l.12-4.42c0-.51 0-1 .05-1.52l.12-4.52c1.47-54.67 2.14-109.46 21.43-160.08-13 .09-26 .81-39.06.55-8.88 69.12-9 177.51 25.71 335.17.71-.31 1.43-.62 2.13-.94-9.29-50-12.42-100.81-10.92-151.92.14-1.81.2-3.55.26-5.29Zm25.98 220.3Z" class="cls-5"/><g class="cls-11"><path d="M1918.17 2046.56c.21 1 .41 2 .62 3-.21-.98-.41-1.99-.62-3Z" class="cls-7"/></g><g class="cls-11"><path d="M1919.91 2054.8c.2.93.41 1.85.62 2.77-.21-.92-.42-1.84-.62-2.77Z" class="cls-7"/></g><g class="cls-11"><path d="M1931 2097.77c.08.24.15.48.22.72-.07-.24-.14-.49-.22-.72Z" class="cls-7"/></g><g class="cls-11"><path d="M1916 2035.34Z" class="cls-7"/></g><g class="cls-11"><path d="M1927 2083.53c.13.49.27 1 .4 1.47-.18-.49-.32-1-.4-1.47Z" class="cls-7"/></g><g class="cls-11"><path d="M1916.94 2040.41c.2 1 .41 2.09.62 3.14-.21-1.05-.42-2.1-.62-3.14Z" class="cls-7"/></g><g class="cls-11"><path d="m1924.84 2075.51.57 2.23Z" class="cls-7"/></g><g class="cls-11"><path d="M1928.71 2089.86c.17.62.35 1.24.53 1.86-.18-.62-.36-1.24-.53-1.86Z" class="cls-7"/></g><g class="cls-11"><path d="m1932.92 2104.05.51 1.64Z" class="cls-7"/></g><g class="cls-11"><path d="M1921.32 2061.05c.2.89.41 1.77.61 2.66-.2-.89-.41-1.77-.61-2.66Z" class="cls-7"/></g><g class="cls-11"><path d="m1923.25 2069.2.54 2.18Z" class="cls-7"/></g><path d="M1938.81 2136c1.46-.87 2.9-1.76 4.34-2.66-2.86-7.15-5.43-14.35-7.73-21.46-.68-2.07-1.34-4.13-2-6.2l-.51-1.64c-.57-1.85-1.14-3.71-1.7-5.56-.07-.24-.14-.48-.22-.72-.6-2-1.19-4-1.76-6.05-.18-.62-.36-1.24-.53-1.86q-.69-2.43-1.36-4.86c-.13-.49-.27-1-.4-1.47q-.79-2.9-1.54-5.79l-.57-2.23c-.36-1.38-.7-2.75-1-4.13l-.54-2.18q-.68-2.74-1.32-5.49c-.2-.89-.41-1.77-.61-2.66-.27-1.16-.53-2.32-.79-3.48-.21-.92-.42-1.84-.62-2.77q-.57-2.6-1.12-5.21c-.21-1-.41-2-.62-3s-.41-2-.61-3-.42-2.1-.62-3.14c-.33-1.68-.65-3.37-1-5.05-.7.32-1.42.63-2.13.94q10.31 46.87 24.96 99.67Z" class="cls-5"/><g class="cls-11"><path d="M1938.81 2136c1.46-.87 2.9-1.76 4.34-2.66-2.86-7.15-5.43-14.35-7.73-21.46-.68-2.07-1.34-4.13-2-6.2l-.51-1.64c-.57-1.85-1.14-3.71-1.7-5.56-.07-.24-.14-.48-.22-.72-.6-2-1.19-4-1.76-6.05-.18-.62-.36-1.24-.53-1.86q-.69-2.43-1.36-4.86c-.13-.49-.27-1-.4-1.47q-.79-2.9-1.54-5.79l-.57-2.23c-.36-1.38-.7-2.75-1-4.13l-.54-2.18q-.68-2.74-1.32-5.49c-.2-.89-.41-1.77-.61-2.66-.27-1.16-.53-2.32-.79-3.48-.21-.92-.42-1.84-.62-2.77q-.57-2.6-1.12-5.21c-.21-1-.41-2-.62-3s-.41-2-.61-3-.42-2.1-.62-3.14c-.33-1.68-.65-3.37-1-5.05-.7.32-1.42.63-2.13.94q10.31 46.87 24.96 99.67Z" class="cls-7"/></g><g class="cls-11"><path d="M1913.84 2036.28q10.32 46.92 25 99.73" class="cls-7"/></g><g class="cls-12"><path d="M2123.74 2062.2c132.75 45.89 287.6 64.11 415.12-6.48-135.11 104-293.68 72.47-362.71 27.12-15.95-10.48-35.51-13-52.41-20.64Z" class="cls-13"/></g><g class="cls-12"><path d="M2453.13 1430c-4.36-.45-6.42 1.66-8.05 5.7-1.42 3.51-3.65 7.6-4.28 11.27-1.91 11.2-1.33 22.78-1.33 34.12v38.79c0 14.84-.86 29.88.86 44.61.75 6.47.81 13 1.62 19.49.54 4.35 2.22 8.37 3.28 12.58.92 3.69 1 7.5 2.18 11.13 3.62 11.28 5.62 22.86 10.28 33.83 2.26 5.3 4.37 10.77 6.82 16 1.47 3.11 3.47 5.79 4.37 9.16a19.13 19.13 0 0 0 1.86 4.8c1.91 3.55 4.78 7.57 6.1 11.33 1.15 3.26 1.81 6 3.62 9.06 2.36 4.05 5.75 14.15 12 12.43 7.38-2 6.17-12.35 6.17-17.87 0-3 .2-6.07.06-9.05-.18-3.68-1.56-7.26-2.33-10.84-1.7-7.85-3.54-15.42-4.84-23.38-.72-4.39-1.33-8.81-2.31-13.15s-.33-8.29-1.05-12.52-2.66-8.26-3.1-12.62c-.51-5 0-9.8-.92-14.84-1.58-8.73-2.59-17.55-3.69-26.3-.51-4-1.81-7.87-2.31-11.93-.68-5.58-1.7-11.12-2.18-16.73-.79-9.33-.09-19.07-.1-28.44 0-5.44.32-10.78-.86-16.11-.83-3.78-1.08-7.39-1.64-11.19-.83-5.72-2.39-11.52-3.47-17.22-1-5.07-1.89-9.71-4.31-14.26-3.96-7.57-5.64-17.85-12.45-17.85Z" class="cls-13"/></g><g class="cls-12"><path d="M2270.77 1171.38c2.55 23.72 26.37 37.21 49.4 39.32a68.41 68.41 0 0 0 8.56.26c20.37-1.58 50.73-9.93 52.25-35-17.46 9.11-37.2 9.87-56.3 6.68-2.94-.52-5.79-1.18-8.62-2-14.1-3.9-27.71-10.81-40.19-19.5a4.62 4.62 0 0 0-2.31.56 9.32 9.32 0 0 0-2.48 7.32c-.08.76-.17 1.53-.31 2.36Z" class="cls-13"/></g><path d="M.61 1879.38c2.34-13.91 3.75-26.75 11-39.36 5.41-9.41 11.58-17.23 18.07-25.8 5.54-7.32 8.55-14.28 11.35-23.28a213.48 213.48 0 0 0 5.88-28.76c1.33-9.67 2.09-19.35 2.47-28.84 3-56.93 28.84-107 57.69-155.6 50.09-85.74 98.67-167.74 162.65-240.67Q284 1320.8 298 1304.56q9.27-10.85 18.37-21.73c15.81-16.22 29.47-35 42.53-54.43 4.35-6.49 8.64-13.05 12.85-19.62 16.2-26.51 16.95-59.15 38.21-82.68a101.66 101.66 0 0 1 12.69-12 99.68 99.68 0 0 1 14-9.27 51.51 51.51 0 0 1 15-6.85c23.53-6.83 46.3-7.59 69.83-14.42 20.49-6.84 41-13.67 63.35-15a125.87 125.87 0 0 1 19.17 1.47c5.63.27 11.25.58 16.86.84 12.63.57 25.23.83 37.86-.51 4.21-.45 8.43-1.07 12.64-1.92 41.4-.8 92.25-12.19 124.13 16.65 18.22 15.94 21.26 44.79 36.44 65q4.56 6.86 9.68 13.53t10.84 13.38c6.84 6.83 9.11 15.94 9.65 26a78.21 78.21 0 0 1-2.15 15.86 126.11 126.11 0 0 1-8 23.34 149.62 149.62 0 0 1-12.3 21.8c-2.29 5.54-5 11.22-8 16.92s-6.38 11.41-10.06 17a87.74 87.74 0 0 1-34.39 32 83.65 83.65 0 0 1-14.57 6c-22.68 6.57-48.49 5.81-69-7.85-11.39-7.59-6.07-23.53-12.9-34.92a4.19 4.19 0 0 0-3.8-2.27c-28.08-3.8-60 14.42-84.4-6.47-3.94-2.72-7.83-5.59-12.1-8.16-6.85-4.12-13.8-8.75-21.1-12.07-10.11-4.59-28-7.71-36.66 1.65a31.93 31.93 0 0 0-4.07 6.35c-8.85 15.85-23.21 27.06-33.44 41.8a198.07 198.07 0 0 0-24.69 48.8c-2.81 8.21-5.18 16.58-7.17 25-6 25.4-8.65 51.73-10.18 77.46q-.74 14.74-1.46 29.39c-2.48 48.69-5.22 97.29-12.17 145.37a208.29 208.29 0 0 1-5.13 24.28c-2.09 8-4.37 15.94-6.26 24.29-1.52 9.11-3 17.46-2.59 26.11.13 4.32.42 8.65.4 12.74 0 6.06-1.21 18.09 7.18 19.56 4 .71 11.31-5.26 14.54-7.32 4.56-2.91 8.1-6.82 12.49-9.87 2.92-2 6.32-2.68 9.1-4.82 2.51-1.92 4.25-4.89 6.63-7 14.91-13 34.68-19.18 49-33 9-8.68 22-11.53 33.64-14.8 11.2-3.13 23.18-9.06 34.84-9.12 16.51-.1 33 0 49.53 0a99.62 99.62 0 0 1 20.72 2.06c4.64.91 8.34.56 12.94 2.44 3 1.23 5.91 2.8 8.92 4 7.26 3 14.12 6.14 21.13 9.68 5.4 2.72 12.63 7 18.8 7 5.9 0 14-2.64 19.24-5.23 17.35-8.54 35.35-15.32 53.61-21.38 9.13-3 18.34-5.89 27.72-8.6q12.69-3.15 25.56-5.92t25.89-5c11.92-1.87 23.94-3.54 36.1-4.78 4.86 6.45 9.2 13.49 14 20.54 50.1 69.83 45.54 151.81 48.58 232.27 2.28 77.42-6.07 154.09-30.36 228.47-2.31 7.12-4.88 14.31-7.74 21.46-33.26-20.84-62.71-48.61-76.47-85.91-9.16 6.76-18.45 13-28 18.83s-19.36 11.14-29.49 16.13c-10 4.72-20.2 8.93-30.57 12.74-31.09 11.41-63.68 19.14-97 25.66-16.64 3.27-33.46 6.22-50.32 9.07-112.34 29.08-229.24 4.79-330.33-48.24-10.4-3.52-20.93-6.55-31.38-10-18.61-6.26-37.25-12.52-55.92-19-9.94-3.42-19.85-6.74-29.9-9.92s-20.24-6.21-30.67-9.06a218.19 218.19 0 0 1-60-25C46.34 1989.14 31.16 1939.8 4.59 1902c-4.59-7.11-5.35-14.53-3.98-22.62Z" class="cls-5"/><g class="cls-6"><path d="M725.44 1686.28c5.9 0 14-2.64 19.24-5.23 17.35-8.54 35.35-15.32 53.61-21.38 9.13-3 18.34-5.89 27.72-8.6q12.69-3.15 25.56-5.92t25.89-5c11.92-1.87 23.94-3.54 36.1-4.78 4.86 6.45 9.2 13.49 14 20.54q2.31 3.22 4.47 6.48a606.21 606.21 0 0 0-142.62 36 322.2 322.2 0 0 0-45.2 21.26 198.27 198.27 0 0 1-17-25.82 60 60 0 0 1-4.28-7.79 15.43 15.43 0 0 0 2.51.24Z" class="cls-7"/></g><path d="M.61 1879.38c2.34-13.91 3.75-26.75 11-39.36 5.41-9.41 11.58-17.23 18.07-25.8 5.54-7.32 8.55-14.28 11.35-23.28a213.48 213.48 0 0 0 5.88-28.76c1.33-9.67 2.09-19.35 2.47-28.84 3-56.93 28.84-107 57.69-155.6 50.09-85.74 98.67-167.74 162.65-240.67Q284 1320.8 298 1304.56q9.27-10.85 18.37-21.73c15.81-16.22 29.47-35 42.53-54.43 4.35-6.49 8.64-13.05 12.85-19.62 16.2-26.51 16.95-59.15 38.21-82.68a101.66 101.66 0 0 1 12.69-12 99.68 99.68 0 0 1 14-9.27 51.51 51.51 0 0 1 15-6.85c23.53-6.83 46.3-7.59 69.83-14.42 20.49-6.84 41-13.67 63.35-15a125.87 125.87 0 0 1 19.17 1.47c5.63.27 11.25.58 16.86.84 12.63.57 25.23.83 37.86-.51 4.21-.45 8.43-1.07 12.64-1.92 41.4-.8 92.25-12.19 124.13 16.65 18.22 15.94 21.26 44.79 36.44 65q4.56 6.86 9.68 13.53t10.84 13.38c6.84 6.83 9.11 15.94 9.65 26a78.21 78.21 0 0 1-2.15 15.86 126.11 126.11 0 0 1-8 23.34 149.62 149.62 0 0 1-12.3 21.8c-2.29 5.54-5 11.22-8 16.92s-6.38 11.41-10.06 17a87.74 87.74 0 0 1-34.39 32 83.65 83.65 0 0 1-14.57 6c-22.68 6.57-48.49 5.81-69-7.85-11.39-7.59-6.07-23.53-12.9-34.92a4.19 4.19 0 0 0-3.8-2.27c-28.08-3.8-60 14.42-84.4-6.47-3.94-2.72-7.83-5.59-12.1-8.16-6.85-4.12-13.8-8.75-21.1-12.07-10.11-4.59-28-7.71-36.66 1.65a31.93 31.93 0 0 0-4.07 6.35c-8.85 15.85-23.21 27.06-33.44 41.8a198.07 198.07 0 0 0-24.69 48.8c-2.81 8.21-5.18 16.58-7.17 25-6 25.4-8.65 51.73-10.18 77.46q-.74 14.74-1.46 29.39c-2.48 48.69-5.22 97.29-12.17 145.37a208.29 208.29 0 0 1-5.13 24.28c-2.09 8-4.37 15.94-6.26 24.29-1.52 9.11-3 17.46-2.59 26.11.13 4.32.42 8.65.4 12.74 0 6.06-1.21 18.09 7.18 19.56 4 .71 11.31-5.26 14.54-7.32 4.56-2.91 8.1-6.82 12.49-9.87 2.92-2 6.32-2.68 9.1-4.82 2.51-1.92 4.25-4.89 6.63-7 14.91-13 34.68-19.18 49-33 9-8.68 22-11.53 33.64-14.8 11.2-3.13 23.18-9.06 34.84-9.12 16.51-.1 33 0 49.53 0a99.62 99.62 0 0 1 20.72 2.06c4.64.91 8.34.56 12.94 2.44 3 1.23 5.91 2.8 8.92 4 7.26 3 14.12 6.14 21.13 9.68 4.68 2.36 10.74 5.92 16.29 6.8a60 60 0 0 0 4.28 7.79c12.9 22.77 31.12 48.58 56.93 53.14 4.55.75 9.11-3.8 12.9-5.32 43.27-12.9 83.5-28.08 128.28-34.91a211.81 211.81 0 0 1 28.72-1.44c22 57.66 19.79 120.7 22.14 182.85 2.28 77.42-6.07 154.09-30.36 228.47-2.31 7.12-4.88 14.31-7.74 21.46-33.26-20.84-62.71-48.61-76.47-85.91-9.16 6.76-18.45 13-28 18.83s-19.36 11.14-29.49 16.13c-10 4.72-20.2 8.93-30.57 12.74-31.09 11.41-63.68 19.14-97 25.66-16.64 3.27-33.46 6.22-50.32 9.07-112.34 29.08-229.24 4.79-330.33-48.24-10.4-3.52-20.93-6.55-31.38-10-18.61-6.26-37.25-12.52-55.92-19-9.94-3.42-19.85-6.74-29.9-9.92s-20.24-6.21-30.67-9.06a218.19 218.19 0 0 1-60-25c-41.62-24.23-56.8-73.57-83.37-111.37-4.59-7.11-5.35-14.53-3.98-22.62Z" class="cls-5"/><g class="cls-8"><path d="M736.32 1317.38c24.29-10.62 49.34-23.53 63-47.82 6.07-11.38 12.15-22.77 16.7-34.91 10.63-27.33-2.28-53.9-12.9-78.94-5.32-12.15-2.28-25.81-8.35-36.44-15.94-27.32-50.1-26.56-78.19-20.49-32.64 7.59-64.52 13.66-97.91 8.35-32-5.24-61.32-18.05-92.41-25.11 18.92-6.28 38-12.19 58.6-13.44a125.87 125.87 0 0 1 19.17 1.47c5.63.27 11.25.58 16.86.84 12.63.57 25.23.83 37.86-.51 4.21-.45 8.43-1.07 12.64-1.92 41.4-.8 92.25-12.19 124.13 16.65 18.22 15.94 21.26 44.79 36.44 65q4.56 6.86 9.68 13.53t10.81 13.36c6.84 6.83 9.11 15.94 9.65 26a78.21 78.21 0 0 1-2.15 15.86 126.11 126.11 0 0 1-8 23.34 149.62 149.62 0 0 1-12.3 21.8c-2.29 5.54-5 11.22-8 16.92s-6.38 11.41-10.06 17a87.74 87.74 0 0 1-34.39 32 83.65 83.65 0 0 1-14.57 6c-22.68 6.57-48.49 5.81-69-7.85-7.42-5-7.75-13.43-9-21.9 11.48 11.92 27.11 18.19 41.69 11.21Z" class="cls-7"/></g><path d="M.61 1879.38c2.34-13.91 3.75-26.75 11-39.36 5.41-9.41 11.58-17.23 18.07-25.8 5.54-7.32 8.55-14.28 11.35-23.28a213.48 213.48 0 0 0 5.88-28.76c1.33-9.67 2.09-19.35 2.47-28.84 3-56.93 28.84-107 57.69-155.6 50.09-85.74 98.67-167.74 162.65-240.67Q284 1320.8 298 1304.56q9.27-10.85 18.37-21.73c15.81-16.22 29.47-35 42.53-54.43 4.35-6.49 8.64-13.05 12.85-19.62 16.2-26.51 16.95-59.15 38.21-82.68a101.66 101.66 0 0 1 12.69-12 99.68 99.68 0 0 1 14-9.27 51.51 51.51 0 0 1 15-6.85c23.53-6.83 46.3-7.59 69.83-14.42l4.75-1.58c31.09 7.06 60.41 19.87 92.41 25.11 33.39 5.31 65.27-.76 97.91-8.35 28.09-6.07 62.25-6.83 78.19 20.49 6.07 10.63 3 24.29 8.35 36.44 10.62 25 23.53 51.61 12.9 78.94-4.55 12.14-10.63 23.53-16.7 34.91-13.66 24.29-38.71 37.2-63 47.82-14.58 7-30.21.71-41.61-11.27-.65-4.53-1.55-9-3.93-13a4.19 4.19 0 0 0-3.8-2.27c-28.08-3.8-60 14.42-84.4-6.47-3.94-2.72-7.83-5.59-12.1-8.16-6.85-4.12-13.8-8.75-21.1-12.07-10.11-4.59-28-7.71-36.66 1.65a31.93 31.93 0 0 0-4.07 6.35c-8.85 15.85-23.21 27.06-33.44 41.8a198.07 198.07 0 0 0-24.69 48.8c-2.81 8.21-5.18 16.58-7.17 25-6 25.4-8.65 51.73-10.18 77.46q-.74 14.74-1.46 29.39c-2.48 48.69-5.22 97.29-12.17 145.37a208.29 208.29 0 0 1-5.13 24.28c-2.09 8-4.37 15.94-6.26 24.29-1.52 9.11-3 17.46-2.59 26.11.13 4.32.42 8.65.4 12.74 0 6.06-1.21 18.09 7.18 19.56 4 .71 11.31-5.26 14.54-7.32 4.56-2.91 8.1-6.82 12.49-9.87 2.92-2 6.32-2.68 9.1-4.82 2.51-1.92 4.25-4.89 6.63-7 14.91-13 34.68-19.18 49-33 9-8.68 22-11.53 33.64-14.8 11.2-3.13 23.18-9.06 34.84-9.12 16.51-.1 33 0 49.53 0a99.62 99.62 0 0 1 20.72 2.06c4.64.91 8.34.56 12.94 2.44 3 1.23 5.91 2.8 8.92 4 7.26 3 14.12 6.14 21.13 9.68 4.68 2.36 10.74 5.92 16.29 6.8a60 60 0 0 0 4.28 7.79c12.9 22.77 31.12 48.58 56.93 53.14 4.55.75 9.11-3.8 12.9-5.32 43.27-12.9 83.5-28.08 128.28-34.91a211.81 211.81 0 0 1 28.72-1.44c22 57.66 19.79 120.7 22.14 182.85 2.28 77.42-6.07 154.09-30.36 228.47-2.31 7.12-4.88 14.31-7.74 21.46-33.26-20.84-62.71-48.61-76.47-85.91-9.16 6.76-18.45 13-28 18.83s-19.36 11.14-29.49 16.13c-10 4.72-20.2 8.93-30.57 12.74-31.09 11.41-63.68 19.14-97 25.66-16.64 3.27-33.46 6.22-50.32 9.07-112.34 29.08-229.24 4.79-330.33-48.24-10.4-3.52-20.93-6.55-31.38-10-18.61-6.26-37.25-12.52-55.92-19-9.94-3.42-19.85-6.74-29.9-9.92s-20.24-6.21-30.67-9.06a218.19 218.19 0 0 1-60-25C46.34 1989.14 31.16 1939.8 4.59 1902c-4.59-7.11-5.35-14.53-3.98-22.62Z" class="cls-5"/><path d="M.61 1879.38c2.34-13.91 3.75-26.75 11-39.36 5.41-9.41 11.58-17.23 18.07-25.8 5.54-7.32 8.55-14.28 11.35-23.28a213.48 213.48 0 0 0 5.88-28.76c1.33-9.67 2.09-19.35 2.47-28.84 3-56.93 28.84-107 57.69-155.6 50.09-85.74 98.67-167.74 162.65-240.67Q284 1320.8 298 1304.56q9.27-10.85 18.37-21.73c15.81-16.22 29.47-35 42.53-54.43 4.35-6.49 8.64-13.05 12.85-19.62 16.2-26.51 16.95-59.15 38.21-82.68a101.66 101.66 0 0 1 12.69-12 99.68 99.68 0 0 1 14-9.27 51.51 51.51 0 0 1 15-6.85c23.53-6.83 46.3-7.59 69.83-14.42l4.75-1.58c31.09 7.06 60.41 19.87 92.41 25.11 33.39 5.31 65.27-.76 97.91-8.35 28.09-6.07 62.25-6.83 78.19 20.49 6.07 10.63 3 24.29 8.35 36.44 10.62 25 23.53 51.61 12.9 78.94-4.55 12.14-10.63 23.53-16.7 34.91-13.66 24.29-38.71 37.2-63 47.82-14.58 7-30.21.71-41.61-11.27-.65-4.53-1.55-9-3.93-13a4.19 4.19 0 0 0-3.8-2.27c-28.08-3.8-60 14.42-84.4-6.47-3.94-2.72-7.83-5.59-12.1-8.16-6.85-4.12-13.8-8.75-21.1-12.07-10.11-4.59-28-7.71-36.66 1.65a31.93 31.93 0 0 0-4.07 6.35c-8.85 15.85-23.21 27.06-33.44 41.8a198.07 198.07 0 0 0-24.69 48.8c-2.81 8.21-5.18 16.58-7.17 25-6 25.4-8.65 51.73-10.18 77.46q-.74 14.74-1.46 29.39c-2.48 48.69-5.22 97.29-12.17 145.37a208.29 208.29 0 0 1-5.13 24.28c-2.09 8-4.37 15.94-6.26 24.29-1.52 9.11-3 17.46-2.59 26.11.13 4.32.42 8.65.4 12.74 0 6.06-1.21 18.09 7.18 19.56 4 .71 11.31-5.26 14.54-7.32 4.56-2.91 8.1-6.82 12.49-9.87 2.92-2 6.32-2.68 9.1-4.82 2.51-1.92 4.25-4.89 6.63-7 14.91-13 34.68-19.18 49-33 9-8.68 22-11.53 33.64-14.8 11.2-3.13 23.18-9.06 34.84-9.12 16.51-.1 33 0 49.53 0a99.62 99.62 0 0 1 20.72 2.06c4.64.91 8.34.56 12.94 2.44 3 1.23 5.91 2.8 8.92 4 7.26 3 14.12 6.14 21.13 9.68 4.68 2.36 10.74 5.92 16.29 6.8a60 60 0 0 0 4.28 7.79c12.9 22.77 31.12 48.58 56.93 53.14 4.55.75 9.11-3.8 12.9-5.32 43.27-12.9 83.5-28.08 128.28-34.91a211.81 211.81 0 0 1 28.72-1.44c22 57.66 19.79 120.7 22.14 182.85 2.28 77.42-6.07 154.09-30.36 228.47-2.31 7.12-4.88 14.31-7.74 21.46-33.26-20.84-62.71-48.61-76.47-85.91-9.16 6.76-18.45 13-28 18.83s-19.36 11.14-29.49 16.13c-10 4.72-20.2 8.93-30.57 12.74-31.09 11.41-63.68 19.14-97 25.66-16.64 3.27-33.46 6.22-50.32 9.07-112.34 29.08-229.24 4.79-330.33-48.24-10.4-3.52-20.93-6.55-31.38-10-18.61-6.26-37.25-12.52-55.92-19-9.94-3.42-19.85-6.74-29.9-9.92s-20.24-6.21-30.67-9.06a218.19 218.19 0 0 1-60-25C46.34 1989.14 31.16 1939.8 4.59 1902c-4.59-7.11-5.35-14.53-3.98-22.62Z" class="cls-5"/><g class="cls-8"><path d="M454 1139.77c-14.42 7.59-28.08 15.94-40.23 27.32-2.27 2.28-3.79 6.07-6.07 9.87-9.87 16.7-15.18 34.16-25.81 50.86-8.21 12.5-19.46 14.91-31.12 12.46q4.13-5.88 8.15-11.88c4.35-6.49 8.64-13.05 12.85-19.62 16.2-26.51 16.95-59.15 38.21-82.68a101.66 101.66 0 0 1 12.69-12 99.68 99.68 0 0 1 14-9.27 51.51 51.51 0 0 1 15-6.85c23.53-6.83 46.3-7.59 69.83-14.42l4.75-1.58c13.31 3 26.3 7.1 39.31 11.19-33.85 9.85-65.8 23.59-97.2 39-4.54 2.28-9.85 5.32-14.36 7.6Z" class="cls-7"/></g><path d="M.61 1879.38c2.34-13.91 3.75-26.75 11-39.36 5.41-9.41 11.58-17.23 18.07-25.8 5.54-7.32 8.55-14.28 11.35-23.28a213.48 213.48 0 0 0 5.88-28.76c1.33-9.67 2.09-19.35 2.47-28.84 3-56.93 28.84-107 57.69-155.6 50.09-85.74 98.67-167.74 162.65-240.67Q284 1320.8 298 1304.56q9.27-10.85 18.37-21.73c12.56-12.89 23.76-27.38 34.38-42.55 11.66 2.45 22.91 0 31.12-12.46 10.63-16.7 15.94-34.16 25.81-50.86 2.28-3.8 3.8-7.59 6.07-9.87 12.15-11.38 25.81-19.73 40.23-27.32 4.56-2.28 9.87-5.32 14.42-7.59 31.4-15.38 63.35-29.12 97.2-39 17.38 5.45 34.8 10.92 53.1 13.92 33.39 5.31 65.27-.76 97.91-8.35 28.09-6.07 62.25-6.83 78.19 20.49 6.07 10.63 3 24.29 8.35 36.44 10.62 25 23.53 51.61 12.9 78.94-4.55 12.14-10.63 23.53-16.7 34.91-13.66 24.29-38.71 37.2-63 47.82-14.58 7-30.21.71-41.61-11.27-.65-4.53-1.55-9-3.93-13a4.19 4.19 0 0 0-3.8-2.27c-28.08-3.8-60 14.42-84.4-6.47-3.94-2.72-7.83-5.59-12.1-8.16-6.85-4.12-13.8-8.75-21.1-12.07-10.11-4.59-28-7.71-36.66 1.65a31.93 31.93 0 0 0-4.07 6.35c-8.85 15.85-23.21 27.06-33.44 41.8a198.07 198.07 0 0 0-24.69 48.8c-2.81 8.21-5.18 16.58-7.17 25-6 25.4-8.65 51.73-10.18 77.46q-.74 14.74-1.46 29.39c-2.48 48.69-5.22 97.29-12.17 145.37a208.29 208.29 0 0 1-5.13 24.28c-2.09 8-4.37 15.94-6.26 24.29-1.52 9.11-3 17.46-2.59 26.11.13 4.32.42 8.65.4 12.74 0 6.06-1.21 18.09 7.18 19.56 4 .71 11.31-5.26 14.54-7.32 4.56-2.91 8.1-6.82 12.49-9.87 2.92-2 6.32-2.68 9.1-4.82 2.51-1.92 4.25-4.89 6.63-7 14.91-13 34.68-19.18 49-33 9-8.68 22-11.53 33.64-14.8 11.2-3.13 23.18-9.06 34.84-9.12 16.51-.1 33 0 49.53 0a99.62 99.62 0 0 1 20.72 2.06c4.64.91 8.34.56 12.94 2.44 3 1.23 5.91 2.8 8.92 4 7.26 3 14.12 6.14 21.13 9.68 4.68 2.36 10.74 5.92 16.29 6.8a60 60 0 0 0 4.28 7.79c12.9 22.77 31.12 48.58 56.93 53.14 4.55.75 9.11-3.8 12.9-5.32 43.27-12.9 83.5-28.08 128.28-34.91a211.81 211.81 0 0 1 28.72-1.44c22 57.66 19.79 120.7 22.14 182.85 2.28 77.42-6.07 154.09-30.36 228.47-2.31 7.12-4.88 14.31-7.74 21.46-33.26-20.84-62.71-48.61-76.47-85.91-9.16 6.76-18.45 13-28 18.83s-19.36 11.14-29.49 16.13c-10 4.72-20.2 8.93-30.57 12.74-31.09 11.41-63.68 19.14-97 25.66-16.64 3.27-33.46 6.22-50.32 9.07-112.34 29.08-229.24 4.79-330.33-48.24-10.4-3.52-20.93-6.55-31.38-10-18.61-6.26-37.25-12.52-55.92-19-9.94-3.42-19.85-6.74-29.9-9.92s-20.24-6.21-30.67-9.06a218.19 218.19 0 0 1-60-25c-41.7-24.16-56.88-73.5-83.45-111.3-4.59-7.11-5.35-14.53-3.98-22.62Z" class="cls-5"/><path d="M743.91 2021.78c-13.66-12.14-27.33-23.53-44.78-25-60.73-6.83-119.93-7.59-179.9 0-41 4.56-81.22 11.39-123 6.83-9.87-.76-19.74-4.55-29.61-8.35-16.7-7.59-34.91-12.14-52.37-19.73-3.8-2.28-7.59-6.83-11.39-9.11-41-19-75.14-45.54-104-80.46-7.59-8.35-8.35-19-12.14-28.84-.76-3 .76-6.08 0-9.11-8.35-27.33-3.8-54.65-3.8-82-.76-6.83 3-13.66 3-20.49 1.52-21.26 3-43.27 9.87-63 9.1-27.33 23.53-53.14 44-75.15 12.15-14.42 22-28.84 34.92-42.51 27.32-30.36 48.58-61.48 75.9-92.6 18.22-21.25 34.92-43.27 39.47-70.59 7.59-40.23 9.87-78.94-.76-117.65-3.79-14.35-10.41-31.51-20.24-45 4.67-2 9-5.6 12.65-11.2 10.63-16.7 15.94-34.16 25.81-50.86 2.28-3.8 3.8-7.59 6.07-9.87 12.15-11.38 25.81-19.73 40.23-27.32 4.56-2.28 9.87-5.32 14.42-7.59 31.4-15.38 63.35-29.12 97.2-39 17.38 5.45 34.8 10.92 53.1 13.92 33.39 5.31 65.27-.76 97.91-8.35 28.09-6.07 62.25-6.83 78.19 20.49 6.07 10.63 3 24.29 8.35 36.44 10.62 25 23.53 51.61 12.9 78.94-4.55 12.14-10.63 23.53-16.7 34.91-13.66 24.29-38.71 37.2-63 47.82-14.58 7-30.21.71-41.61-11.27-.65-4.53-1.55-9-3.93-13a4.19 4.19 0 0 0-3.8-2.27c-28.08-3.8-60 14.42-84.4-6.47-3.94-2.72-7.83-5.59-12.1-8.16-6.85-4.12-13.8-8.75-21.1-12.07-10.11-4.59-28-7.71-36.66 1.65a31.93 31.93 0 0 0-4.07 6.35c-8.85 15.85-23.21 27.06-33.44 41.8a198.07 198.07 0 0 0-24.69 48.8c-2.81 8.21-5.18 16.58-7.17 25-6 25.4-8.65 51.73-10.18 77.46q-.74 14.74-1.46 29.39c-2.48 48.69-5.22 97.29-12.17 145.37a208.29 208.29 0 0 1-5.13 24.28c-2.09 8-4.37 15.94-6.26 24.29-1.52 9.11-3 17.46-2.59 26.11.13 4.32.42 8.65.4 12.74 0 6.06-1.21 18.09 7.18 19.56 4 .71 11.31-5.26 14.54-7.32 4.56-2.91 8.1-6.82 12.49-9.87 2.92-2 6.32-2.68 9.1-4.82 2.51-1.92 4.25-4.89 6.63-7 14.91-13 34.68-19.18 49-33 9-8.68 22-11.53 33.64-14.8 11.2-3.13 23.18-9.06 34.84-9.12 16.51-.1 33 0 49.53 0a99.62 99.62 0 0 1 20.72 2.06c4.64.91 8.34.56 12.94 2.44 3 1.23 5.91 2.8 8.92 4 7.26 3 14.12 6.14 21.13 9.68 4.68 2.36 10.74 5.92 16.29 6.8a60 60 0 0 0 4.28 7.79c12.9 22.77 31.12 48.58 56.93 53.14 4.55.75 9.11-3.8 12.9-5.32 43.27-12.9 83.5-28.08 128.28-34.91a211.81 211.81 0 0 1 28.72-1.44c22 57.66 19.79 120.7 22.14 182.85 2.28 77.42-6.07 154.09-30.36 228.47-2.31 7.12-4.88 14.31-7.74 21.46-33.26-20.84-62.71-48.61-76.47-85.91-9.16 6.76-18.45 13-28 18.83s-19.36 11.14-29.49 16.13c-5.23 2.47-10.51 4.79-15.85 7a148.67 148.67 0 0 0-5.64-23.05c-6.71-20.38-22.65-34.8-38.59-49.22Z" class="cls-5"/><path d="M720.38 1766.74c-47.82 22.77-100.2 12.9-151 15.94-25.81 1.52-50.1 12.9-74.39 22a18.78 18.78 0 0 0-11.38 15.18c-.76 10.63-2.28 22 .75 31.88 7.6 22 35.68 26.57 47.07 44.79 7.59 13.66-7.59 31.88-23.53 34.16-19.74 2.27-39.48 3-59.21 0-20.49-3.8-39.47-9.87-59.21-17.46-6.07-2.28-9.1-6.83-12.9-11.39-1.52-2.28-1.52-4.55-3-6.83-8.35-9.11-21.25-12.9-23.53-25-12.14-58.45 29.61-103.23 66-142.7 3.19-3.44 6.41-6.8 9.65-10.12.14 3.49.32 6.95.31 10.26 0 6.06-1.21 18.09 7.18 19.56 4 .71 11.31-5.26 14.54-7.32 4.56-2.91 8.1-6.82 12.49-9.87 2.92-2 6.32-2.68 9.1-4.82 2.51-1.92 4.25-4.89 6.63-7 14.91-13 34.68-19.18 49-33 9-8.68 22-11.53 33.64-14.8 11.2-3.13 23.18-9.06 34.84-9.12 16.51-.1 33 0 49.53 0a99.62 99.62 0 0 1 20.72 2.06c4.64.91 8.34.56 12.94 2.44 3 1.23 5.91 2.8 8.92 4 7.26 3 14.12 6.14 21.13 9.68 4.68 2.36 10.74 5.92 16.29 6.8a60 60 0 0 0 4.28 7.79c5.67 10 12.37 20.6 20.29 29.72a43.8 43.8 0 0 1-1.31 8.23c-4.59 13.69-11.42 28.11-25.84 34.94Z" class="cls-9"/><path d="M186.77 1848c-8.35-27.33-3.8-54.65-3.8-82-.76-6.83 3-13.66 3-20.49 1.52-21.26 3-43.27 9.87-63 9.1-27.33 23.53-53.14 44-75.15 12.15-14.42 22-28.84 34.92-42.51 27.32-30.36 48.58-61.48 75.9-92.6 18.22-21.25 34.92-43.27 39.47-70.59 7.59-40.23 9.87-78.94-.76-117.65-3.79-14.35-10.41-31.51-20.24-45 4.67-2 9-5.6 12.65-11.2 10.63-16.7 15.94-34.16 25.81-50.86 2.28-3.8 3.8-7.59 6.07-9.87 12.15-11.38 25.81-19.73 40.23-27.32 4.56-2.28 9.87-5.32 14.42-7.59 31.4-15.38 63.35-29.12 97.2-39 17.38 5.45 34.8 10.92 53.1 13.92 33.39 5.31 65.27-.76 97.91-8.35 28.09-6.07 62.25-6.83 78.19 20.49 6.07 10.63 3 24.29 8.35 36.44 10.62 25 23.53 51.61 12.9 78.94-4.55 12.14-10.63 23.53-16.7 34.91-13.66 24.29-38.71 37.2-63 47.82-14.58 7-30.21.71-41.61-11.27-.65-4.53-1.55-9-3.93-13a4.19 4.19 0 0 0-3.8-2.27c-28.08-3.8-60 14.42-84.4-6.47-3.94-2.72-7.83-5.59-12.1-8.16-6.85-4.12-13.8-8.75-21.1-12.07-10.11-4.59-28-7.71-36.66 1.65a31.93 31.93 0 0 0-4.07 6.35c-8.85 15.85-23.21 27.06-33.44 41.8a198.07 198.07 0 0 0-24.69 48.8c-2.81 8.21-5.18 16.58-7.17 25-6 25.4-8.65 51.73-10.18 77.46q-.74 14.74-1.46 29.39c-2.48 48.69-5.22 97.29-12.17 145.37a208.29 208.29 0 0 1-5.13 24.28c-2.09 8-4.37 15.94-6.26 24.29-1.52 9.11-3 17.46-2.59 26.11l.09 2.48a547.75 547.75 0 0 0-9.65 10.12c-36.43 39.47-78.18 84.25-66 142.7 2.28 12.15 15.18 15.94 23.53 25 1.52 2.28 1.52 4.55 3 6.83 3.8 4.56 6.83 9.11 12.9 11.39 19.74 7.59 38.72 13.66 59.21 17.46 19.73 3 39.47 2.27 59.21 0 15.94-2.28 31.12-20.5 23.53-34.16-11.39-18.22-39.47-22.77-47.07-44.79-3-9.86-1.51-21.25-.75-31.88a18.78 18.78 0 0 1 11.38-15.18c24.29-9.11 48.58-20.49 74.39-22 50.85-3 103.23 6.83 151-15.94 14.42-6.83 21.25-21.25 25.81-34.92a43.8 43.8 0 0 0 1.31-8.23c10.1 11.63 22.17 20.86 36.64 23.42 4.55.75 9.11-3.8 12.9-5.32 43.27-12.9 83.5-28.08 128.28-34.91a211.81 211.81 0 0 1 28.72-1.44c22 57.66 19.79 120.7 22.14 182.85 2.28 77.42-6.07 154.09-30.36 228.47-2.31 7.12-4.88 14.31-7.74 21.46-33.26-20.84-62.71-48.61-76.47-85.91-9.16 6.76-18.45 13-28 18.83s-19.36 11.14-29.49 16.13c-5.23 2.47-10.51 4.79-15.85 7a148.67 148.67 0 0 0-5.64-23.05c-6.83-20.5-22.77-34.92-38.71-49.34-13.66-12.14-27.33-23.53-44.78-25-60.73-6.83-119.93-7.59-179.9 0-41 4.56-81.22 11.39-123 6.83-9.87-.76-19.74-4.55-29.61-8.35-16.7-7.59-34.91-12.14-52.37-19.73-3.8-2.28-7.59-6.83-11.39-9.11-41-19-75.14-45.54-104-80.46-7.59-8.35-8.35-19-12.14-28.84-.62-3.01.91-6.01.15-9.01Z" class="cls-5"/><path d="M720.52 1244c15.67-11.49 24-39.7 6.27-52.24-16.72-12.53-38.66-16.71-56.42-8.36-19.85 9.41-46 14.63-67.91 10.45-30.3-5.22-73.14-2.09-83.59-36.57a80.46 80.46 0 0 1 2.29-48.71c14.5-5.77 29.27-11 44.41-15.36 17.38 5.45 34.8 10.92 53.1 13.92 33.39 5.31 65.27-.76 97.91-8.35 28.09-6.07 62.25-6.83 78.19 20.49 6.07 10.63 3 24.29 8.35 36.44 10.62 25 23.53 51.61 12.9 78.94-4.55 12.14-10.63 23.53-16.7 34.91-13.66 24.29-38.71 37.2-63 47.82-14.58 7-30.21.71-41.61-11.27-.65-4.53-1.55-9-3.93-13a4.19 4.19 0 0 0-3.8-2.27c-12.23-1.66-25.18.86-37.92 2.51a27.37 27.37 0 0 1 6.68-10.67c17.77-18.83 42.84-23 64.78-38.68Z" class="cls-10"/><path d="M186.77 1848c-8.35-27.33-3.8-54.65-3.8-82-.76-6.83 3-13.66 3-20.49 1.52-21.26 3-43.27 9.87-63 9.1-27.33 23.53-53.14 44-75.15 12.15-14.42 22-28.84 34.92-42.51 27.32-30.36 48.58-61.48 75.9-92.6 18.22-21.25 34.92-43.27 39.47-70.59 7.59-40.23 9.87-78.94-.76-117.65-3.79-14.35-10.41-31.51-20.24-45 4.67-2 9-5.6 12.65-11.2 10.63-16.7 15.94-34.16 25.81-50.86 2.28-3.8 3.8-7.59 6.07-9.87 12.15-11.38 25.81-19.73 40.23-27.32 4.56-2.28 9.87-5.32 14.42-7.59 17.36-8.5 34.88-16.5 52.79-23.61a80.46 80.46 0 0 0-2.29 48.71c10.45 34.48 53.29 31.35 83.59 36.57 21.94 4.18 48.06-1 67.91-10.45 17.76-8.35 39.7-4.17 56.42 8.36 17.76 12.54 9.4 40.75-6.27 52.24-21.94 15.68-47 19.85-64.78 38.66a27.37 27.37 0 0 0-6.68 10.67c-16.52 2.14-32.68 2.82-46.48-9-3.94-2.72-7.83-5.59-12.1-8.16-6.85-4.12-13.8-8.75-21.1-12.07-10.11-4.59-28-7.71-36.66 1.65a31.93 31.93 0 0 0-4.07 6.35c-8.85 15.85-23.21 27.06-33.44 41.8a197.89 197.89 0 0 0-24.69 48.8c-2.81 8.21-5.18 16.58-7.17 25-6 25.4-8.65 51.73-10.18 77.46q-.74 14.74-1.46 29.39c-2.48 48.69-5.22 97.29-12.17 145.37a208.29 208.29 0 0 1-5.13 24.28c-2.09 8-4.37 15.94-6.26 24.29-1.52 9.11-3 17.46-2.59 26.11l.09 2.48a547.75 547.75 0 0 0-9.65 10.12c-36.43 39.47-78.18 84.25-66 142.7 2.28 12.15 15.18 15.94 23.53 25 1.52 2.28 1.52 4.55 3 6.83 3.8 4.56 6.83 9.11 12.9 11.39 19.74 7.59 38.72 13.66 59.21 17.46 19.73 3 39.47 2.27 59.21 0 15.94-2.28 31.12-20.5 23.53-34.16-11.39-18.22-39.47-22.77-47.07-44.79-3-9.86-1.51-21.25-.75-31.88a18.78 18.78 0 0 1 11.38-15.18c24.29-9.11 48.58-20.49 74.39-22 50.85-3 103.23 6.83 151-15.94 14.42-6.83 21.25-21.25 25.81-34.92a43.8 43.8 0 0 0 1.31-8.23c10.1 11.63 22.17 20.86 36.64 23.42 4.55.75 9.11-3.8 12.9-5.32 43.27-12.9 83.5-28.08 128.28-34.91a211.81 211.81 0 0 1 28.72-1.44c22 57.66 19.79 120.7 22.14 182.85 2.28 77.42-6.07 154.09-30.36 228.47-2.31 7.12-4.88 14.31-7.74 21.46-33.26-20.84-62.71-48.61-76.47-85.91-9.16 6.76-18.45 13-28 18.83s-19.36 11.14-29.49 16.13c-5.23 2.47-10.51 4.79-15.85 7a148.67 148.67 0 0 0-5.64-23.05c-6.83-20.5-22.77-34.92-38.71-49.34-13.66-12.14-27.33-23.53-44.78-25-60.73-6.83-119.93-7.59-179.9 0-41 4.56-81.22 11.39-123 6.83-9.87-.76-19.74-4.55-29.61-8.35-16.7-7.59-34.91-12.14-52.37-19.73-3.8-2.28-7.59-6.83-11.39-9.11-41-19-75.14-45.54-104-80.46-7.59-8.35-8.35-19-12.14-28.84-.62-3 .91-6 .15-9Z" class="cls-5"/><path d="M.61 1879.38c2.34-13.91 3.75-26.75 11-39.36 5.41-9.41 11.58-17.23 18.07-25.8 5.54-7.32 8.55-14.28 11.35-23.28a213.48 213.48 0 0 0 5.88-28.76c1.33-9.67 2.09-19.35 2.47-28.84 3-56.93 28.84-107 57.69-155.6 50.09-85.74 98.67-167.74 162.65-240.67Q284 1320.8 298 1304.56q9.27-10.85 18.37-21.73c12.56-12.89 23.76-27.38 34.38-42.55 6.43 1.35 12.74 1.22 18.47-1.26 9.83 13.46 16.45 30.62 20.24 45 10.63 38.71 8.35 77.42.76 117.65-4.55 27.32-21.25 49.34-39.47 70.59-27.32 31.12-48.58 62.24-75.9 92.6-12.91 13.67-22.77 28.09-34.92 42.51-20.49 22-34.92 47.82-44 75.15-6.84 19.73-8.35 41.74-9.87 63 0 6.83-3.8 13.66-3 20.49 0 27.33-4.55 54.65 3.8 82 .76 3-.76 6.07 0 9.11 3.79 9.87 4.55 20.49 12.14 28.84 28.85 34.92 63 61.48 104 80.46 3.8 2.28 7.59 6.83 11.39 9.11 17.46 7.59 35.67 12.14 52.37 19.73 9.87 3.8 19.74 7.59 29.61 8.35 41.74 4.56 82-2.27 123-6.83 60-7.59 119.17-6.83 179.9 0 17.45 1.52 31.12 12.91 44.78 25 15.94 14.42 31.88 28.84 38.71 49.34a148.67 148.67 0 0 1 5.64 23.05q-7.29 3-14.72 5.74c-31.09 11.41-63.68 19.14-97 25.66-16.64 3.27-33.46 6.22-50.32 9.07-112.34 29.08-229.24 4.79-330.33-48.24-10.4-3.52-20.93-6.55-31.38-10-18.61-6.26-37.25-12.52-55.92-19-9.94-3.42-19.85-6.74-29.9-9.92s-20.24-6.21-30.67-9.06a218.19 218.19 0 0 1-60-25c-41.82-24.28-57-73.62-83.57-111.42-4.59-7.11-5.35-14.53-3.98-22.62Z" class="cls-10"/><g class="cls-6"><path d="M570.09 1248.31c5.31-30.36 28.08-56.17 55.41-66.8 19-6.83 40.23 2.28 53.13 19 11.39 14.42 23.53 25 32.64 38.71 7.59 12.15 4.55 31.88-8.35 42.51-4.55 3.79-12.9 5.31-19 6.07-21.75 3.3-43.51 1.44-64.27 6.37a39.55 39.55 0 0 1-4.69-2c-8.94-4.48-16-10.85-24.5-16-6.85-4.12-13.8-8.75-21.1-12.07-.59-.26-1.21-.53-1.85-.78.05-4.25.13-8.5.28-12.75.02-.74 2.3-1.5 2.3-2.26Z" class="cls-7"/></g><g class="cls-6"><path d="M517 1243c-8.35-17.46-15.94-33.4-28.08-50.1-.76-1.52-.76-3.8-.76-6.07 16.4 34.77 61.72 38.92 95.77 28.13a85.33 85.33 0 0 0-13.79 33.35c0 .76-2.28 1.52-2.28 2.28-.15 4.25-.23 8.5-.28 12.75-8.6-3.44-21.37-5.57-30.1-1.09-9.35-3.6-15.83-10.53-20.48-19.25Z" class="cls-7"/></g><g class="cls-6"><path d="M398.62 1689.38c4.76-22.3 14.61-44.78 19.32-66.74a552.57 552.57 0 0 0 11.87-94.24c.92-23.52.32-47.08 1.48-70.6 1.14-23.28 7.06-41.68 13.55-63.75 8.94-26.12 19.13-51 32.81-74.62 8.71-5.62 17.36-11.38 26.12-17-14.46 18.2-25.93 38.25-33.25 60.3-2.81 8.21-5.18 16.58-7.17 25-6 25.4-8.65 51.73-10.18 77.46q-.74 14.74-1.46 29.39c-2.48 48.69-5.22 97.29-12.17 145.37a208.29 208.29 0 0 1-5.13 24.28c-2.09 8-4.37 15.94-6.26 24.29-1.52 9.11-3 17.46-2.59 26.11.11 3.52.31 7 .37 10.44 0 .66-10.34 8.71-11.53 9.91-5.24 5.24-15.42 41.79-20.92 37.54-8.11-6.27 2-56.43 2.62-65.74a119.58 119.58 0 0 1 2.52-17.4Z" class="cls-7"/></g><g class="cls-11"><path d="M40.27 1948.91c50.86 2.28 97.92 20.5 146.5 35.68 38.71 11.38 72.87 28.84 111.58 41 4.55.76 9.87 0 13.66 2.27 25.05 12.91 52.38 15.18 77.42 28.85 12.15 6.07 24.29 9.86 36.44 16.7 9.87 5.31 22 6.07 31.88 11.38 1.52.76 3.79 0 6.07 0 1.52.76 3 2.28 4.55 3 102.48 12.14 212.54 8.35 295.27-63 21.26-17.46 34.16-41.75 59.21-53.14 6.83-3 13.66-6.83 20.5-9.86 18.21-6.08 32.63 9.1 45.54 19 26.6 19.67 47.92 46.38 76.37 59.32a598.32 598.32 0 0 1-19.44 76.55c-2.31 7.12-4.88 14.31-7.74 21.46-33.26-20.84-62.71-48.61-76.47-85.91-9.16 6.76-18.45 13-28 18.83s-19.36 11.14-29.49 16.13c-10 4.72-20.2 8.93-30.57 12.74-31.09 11.41-63.68 19.14-97 25.66-16.64 3.27-33.46 6.22-50.32 9.07-112.34 29.08-229.24 4.79-330.33-48.24-10.4-3.52-20.93-6.55-31.38-10-18.61-6.26-37.25-12.52-55.92-19-9.94-3.42-19.85-6.74-29.9-9.92s-20.24-6.21-30.67-9.06a218.19 218.19 0 0 1-60-25c-25.69-15-41.32-39.38-55.73-64.78q4.02.16 7.97.27Z" class="cls-7"/></g><g class="cls-11"><path d="M.23 1879.34c.05-13.73 4.77-27.85 11.38-39.34 5.41-9.41 11.58-17.23 18.07-25.8 5.54-7.32 8.55-14.28 11.35-23.28a213.48 213.48 0 0 0 5.88-28.76c1.33-9.67 2.09-19.35 2.47-28.84 3-56.93 28.84-107 57.69-155.6 50.09-85.72 98.67-167.72 162.65-240.65Q284 1320.8 298 1304.56q9.27-10.85 18.37-21.73c15.81-16.22 29.47-35 42.53-54.43 4.35-6.49 8.64-13.05 12.85-19.62 16.2-26.51 16.95-59.15 38.21-82.68a101.66 101.66 0 0 1 12.69-12 99.68 99.68 0 0 1 14-9.27l.88-.58c-4.55 6.92-8.94 14-13.93 19.54-3.79 5.31-5.31 12.14-6.07 18.21-2.28 13.67-9.87 25-12.15 38.71-.76 8.35.76 16.7-.76 25 0 2.28-3 4.56-3 6.83-1.52 11.39-1.52 21.26-9.11 32.64-1.52 2.28-.76 7.59-3 10.63-3 3-4.55 6.83-7.59 10.63-13.78 18.37-29.26 35.39-42.8 54-12.74 17.45-24.9 35.31-37 53.62q-29.06 44.09-60.52 86.53c-9.8 13.22-20.08 25.68-27.86 40.16-8 14.91-15 30.37-23.86 44.82-10.74 17.58-23.13 34.13-33.31 52.06-1.78 3.14-3.4 6.33-4.9 9.55s-2.89 6.49-4.2 9.76c-21.38 42-29.73 86.76-36.19 132q-1.28 6-2.81 12c-4.12 15.78-9.81 31-18.49 45.33-1.11 2.81-2.17 5.61-3.2 8.42a226.23 226.23 0 0 0-11.52 43.91c-3.13 20.63-7.61 44.43 3 63.75 7.41 13.5 16.07 25.25 25.4 36.69-20.7-5.29-41.68-9.16-63.35-10.13-7.6-.34-8.24-.77-11.78-7.13-8-14.28-18.73-28.14-24.81-43.31a50.39 50.39 0 0 1-3.49-19.13Z" class="cls-7"/></g><path d="M399.32 1876.84c-22.62-12.65-43.45-28.15-64-45.2 4.86-18.35 16.57-36.08 27.86-51.17q6.14-8 13-15.31c4.54-4.89 9.33-9.58 14.32-14.06 6.44-6.12 13.19-12 20.16-17.6 34.87-28.12 75.2-50.63 113.62-71.23 7.49-3.29 15.06-6.24 22.71-8.79a208.56 208.56 0 0 1 28.5-7.36c29.58-5.38 60.28-3.66 92.16 9a302 302 0 0 1 29.08 11.23 290.65 290.65 0 0 1 53.64 31.17c9.09 6.15 17.91 12.66 26.38 19.44s16.61 13.86 24.34 21.15c8.07 6.5 16 13.18 24 19.9q9 7.56 17.91 15.13t18 15.12c12 10.36 24.18 20.23 36.43 30.16 5 3.79 11.3 6.67-13.42.49-10.63-5.05-20.84-10.55-30.83-16.4s-19.78-12-29.4-18.45-19.06-13.14-28.49-19.88c-9.45-8.09-19.5-15.89-30-23.29s-21.5-14.35-32.6-20.67a266 266 0 0 0-43.37-21.74c-6.62-2.61-13.36-4.93-20.16-7-.92-.28-1.84-.58-2.76-.85-30.3-9.89-61.14-11.21-91.26-6.27-7.52 1.24-15 2.87-22.42 4.84-30.21 7.09-57.66 20.17-82.8 37.29q-7.55 5.14-14.81 10.77c-9 8.13-20.19 17.5-31.22 27.72-5.51 5.11-11 10.43-16.1 15.91-19 19.26-41 48.1-25.08 76.19a72.8 72.8 0 0 0 16.61 19.76Z" class="cls-5"/><g class="cls-6"><path d="M335.29 1831.64c4.86-18.35 16.57-36.08 27.86-51.17q6.14-8 13-15.31c4.54-4.89 9.33-9.58 14.32-14.06 6.44-6.12 13.19-12 20.16-17.6 34.87-28.12 75.2-50.63 113.62-71.23 7.49-3.29 15.06-6.24 22.71-8.79a208.56 208.56 0 0 1 28.5-7.36c29.58-5.38 60.28-3.66 92.16 9a302 302 0 0 1 29.08 11.23 290.65 290.65 0 0 1 53.64 31.17q6.81 4.62 13.42 9.48c44.72 40 84.95 85.55 138.08 115.91-54.65-6.83-95.64-49.34-136.61-82q-7.89-5.55-16.08-10.74t-16.52-9.94a266 266 0 0 0-43.37-21.74c-6.62-2.61-13.36-4.93-20.16-7-.92-.28-1.84-.58-2.76-.85-30.3-9.89-61.14-11.21-91.26-6.27-7.52 1.24-15 2.87-22.42 4.84-30.21 7.09-57.66 20.17-82.8 37.29q-7.55 5.14-14.81 10.77c-9 8.13-20.19 17.5-31.22 27.72-5.51 5.11-11 10.43-16.1 15.91-19 19.26-41 48.1-25.08 76.19a72.8 72.8 0 0 0 16.72 19.77c15.73 13.19 36.32 20.56 56.15 26.28 5.78 1.63 11.61 3.07 17.5 4.38 80.42 20.92 162.4 39.89 245.86 25.33q10.71-1.45 21.31-3.53t21.05-4.83a146.51 146.51 0 0 0 20.67-9 111 111 0 0 1-14.17 11.51 113.45 113.45 0 0 1-15.56 8.82q-10.23 3.79-20.67 6.73c-7 2-14 3.65-21.12 5.12-77.3 15.7-156.24 11.91-234.17 4.08-6.78-1-13.57-2.33-20.3-3.87-46-11.07-96.85-30.81-118.1-77.11-5.97-12.91-5.95-26.18-2.53-39.13Z" class="cls-7"/></g><g class="cls-12"><path d="M617 1660.57c59.18 3.87 103.69 31.49 103.69 31.49 29.6 44.4-26.19 39.84-26.19 39.84-27.71-16.42-53.68-24.39-77.29-26.9a49 49 0 0 1-4.63-6.57c-6.96-11.43-3.86-26.55 4.42-37.86Z" class="cls-13"/></g><g class="cls-12"><path d="M447.68 1739.65c33.77-42 70.93-63.67 106.68-73.21 9.72 11 15 26.71 13.34 41-52.63 11-85 44.93-85 44.93-48.91 23.94-35.02-12.72-35.02-12.72Z" class="cls-13"/></g><g class="cls-12"><path d="M335.26 1308.19c-15.64-2.14-42.13 34.69-51.73 45.07-19.28 20.83-35.3 45.07-49.82 69.39-4.54 7.62-9 15.64-9.92 24.47-2.69 26.1 25.9 19.5 41 11.05 15.95-9 28.14-24.28 38.79-38.78a538.14 538.14 0 0 0 34.51-53.39c6.33-11.18 21.9-54.28-2.8-57.76Z" class="cls-13"/></g><g class="cls-12"><path d="M208.74 1481.38a8.93 8.93 0 0 1 3.6.7c4.77 1.85 10.65 8.68 11.47 13.7.46 2.82.14 5.78.15 8.62a47.86 47.86 0 0 1-.08 6.45 24.64 24.64 0 0 1-2.57 7.27c-2 4.09-3.88 8.2-6.06 12.19-3.74 6.83-7.18 14.19-11.82 20.49-2.07 2.83-4.35 5.47-6.61 8.13-1.75 2.06-3.06 5-5.65 5.94s-5.45.72-8.22.72c-3.15 0-5.16.39-7.72-1.47-7.81-5.68-4.51-18.07-2-25.92 3.72-11.82 9.61-22.76 15.89-33.39 3.88-6.55 10.7-23.06 19.62-23.43Z" class="cls-13"/></g><path d="M991.51 1657.85q-1.1-2.07-2.23-4.13 1.14 2.06 2.23 4.13Zm-16.04 207.58.12 4.51Zm-47.87-209.51Zm56.9 2.35a445.51 445.51 0 0 1 8.6 47.61c-13.05.26-26-.45-39.06-.54a217.08 217.08 0 0 0-22.12-43.16l.15.22q26.1-3.25 52.43-4.13ZM976 1883c.06 1.74.12 3.49.19 5.23-.08-1.78-.14-3.53-.19-5.23Zm-.36-11.54c0 1.48.08 3 .13 4.42-.05-1.47-.09-2.94-.13-4.42Zm7.42-228.26c-1-1.58-2-3.16-3.09-4.74 1.03 1.54 2.08 3.16 3.09 4.74Zm-7.27 233.48c.05 1.69.11 3.37.16 5.06-.05-1.69-.11-3.37-.16-5.06Zm13.06-223.74q-1.12-2-2.29-4 1.17 2.06 2.29 4ZM986 1648q-1.14-1.92-2.34-3.82c.82 1.31 1.6 2.59 2.34 3.82Z" class="cls-5"/><g class="cls-6"><path d="M989.28 1653.72c-.15-.26-.29-.52-.43-.78.15.26.28.52.43.78Z" class="cls-7"/></g><g class="cls-6"><path d="M929.87 1659.15c.7 1 1.38 2 2 3-.62-.98-1.3-1.99-2-3Z" class="cls-7"/></g><g class="cls-6"><path d="m986.56 1649-.56-1Z" class="cls-7"/></g><g class="cls-6"><path d="m991.63 1658.08-.12-.23Z" class="cls-7"/></g><g class="cls-6"><path d="m983.68 1644.22-.62-1Z" class="cls-7"/></g><path d="m932.07 1662.4-.15-.22c-.67-1-1.35-2-2-3s-1.5-2.16-2.27-3.23c-4.84-7.05-9.18-14.09-14-20.54 1.22-.12 2.43-.25 3.65-.36 21.42-1.78 51.26-8.71 61.34 1.68 2 6.18 4 13.35 6 21.57q-26.43.83-52.57 4.1Z" class="cls-5"/><g class="cls-6"><path d="m932.07 1662.4-.15-.22c-.67-1-1.35-2-2-3s-1.5-2.16-2.27-3.23c-4.84-7.05-9.18-14.09-14-20.54 1.22-.12 2.43-.25 3.65-.36 21.42-1.78 51.26-8.71 61.34 1.68 2 6.18 4 13.35 6 21.57q-26.43.83-52.57 4.1Z" class="cls-7"/></g><path d="M976 1881.74v1.22-1.22Zm-22-176.4c19.29 50.63 20 105.41 21.43 160.09-1.43-54.68-2.1-109.43-21.43-160.09Zm21.59 164.6v1.52c.03-.46.02-1.01 0-1.52Zm.18 5.94v.8c.01-.27 0-.53 0-.8Zm-16.47 192.6q-.64 2.74-1.32 5.49.68-2.74 1.32-5.49Zm-1.86 7.67c-.34 1.38-.69 2.75-1 4.13.31-1.38.66-2.75 1-4.13Zm-1.62 6.36q-.75 2.89-1.54 5.79.8-2.9 1.54-5.79Zm4.88-20.17c-.26 1.16-.52 2.33-.79 3.49.27-1.16.53-2.33.79-3.49Zm4.55-22.21q-.46 2.53-1 5 .54-2.47 1-5ZM952 2096.49q-.87 3-1.77 6.05.9-3.01 1.77-6.05Zm10.44-42.13-1.12 5.22q.57-2.58 1.12-5.22Zm1.23-6.04c-.2 1-.4 2-.61 3 .21-.99.41-1.99.61-3Zm-9.79 41.45-1.36 4.86q.69-2.43 1.36-4.86Zm-6.08 20.69q-1 3.11-2 6.2 1.03-3.09 2-6.2Z" class="cls-5"/><path d="M976 1883v-1.22c-.05-1.69-.11-3.37-.16-5.06v-.8c0-1.47-.09-2.94-.13-4.42v-1.52l-.12-4.51C974 1810.75 973.33 1756 954 1705.34c13 .09 26 .8 39.06.54 8.88 69.12 9 177.51-25.7 335.17-.72-.3-1.43-.61-2.14-.94 9.29-50 12.42-100.8 10.92-151.92-.03-1.74-.09-3.49-.14-5.19Zm-26 220.26c-.56 1.86-1.12 3.71-1.7 5.57.59-1.83 1.15-3.71 1.7-5.57Z" class="cls-5"/><g class="cls-11"><path d="M963.06 2051.34Z" class="cls-7"/></g><g class="cls-11"><path d="M961.32 2059.58c-.2.92-.41 1.84-.62 2.76.21-.92.42-1.84.62-2.76Z" class="cls-7"/></g><g class="cls-11"><path d="M950.23 2102.54c-.07.24-.15.48-.22.72.07-.26.15-.48.22-.72Z" class="cls-7"/></g><g class="cls-11"><path d="M965.26 2040.11Z" class="cls-7"/></g><g class="cls-11"><path d="M954.28 2088.3c-.13.49-.27 1-.4 1.47.12-.49.27-.98.4-1.47Z" class="cls-7"/></g><g class="cls-11"><path d="M964.29 2045.18c-.2 1-.41 2.09-.62 3.14.21-1.05.42-2.09.62-3.14Z" class="cls-7"/></g><g class="cls-11"><path d="M956.4 2080.28c-.19.74-.38 1.49-.58 2.23.18-.74.39-1.51.58-2.23Z" class="cls-7"/></g><g class="cls-11"><path d="M952.52 2094.63c-.17.62-.35 1.24-.52 1.86.17-.62.35-1.24.52-1.86Z" class="cls-7"/></g><g class="cls-11"><path d="m948.31 2108.83-.51 1.63Z" class="cls-7"/></g><g class="cls-11"><path d="M959.91 2065.83c-.2.88-.41 1.77-.61 2.65.2-.88.41-1.77.61-2.65Z" class="cls-7"/></g><g class="cls-11"><path d="m958 2074-.54 2.18Z" class="cls-7"/></g><path d="M942.42 2140.79q-2.17-1.32-4.34-2.67c2.86-7.15 5.43-14.34 7.74-21.46q1-3.09 2-6.2l.51-1.63c.58-1.86 1.14-3.71 1.7-5.57.07-.24.15-.48.22-.72q.9-3 1.77-6.05c.17-.62.35-1.24.52-1.86q.69-2.43 1.36-4.86c.13-.49.27-1 .4-1.47q.79-2.9 1.54-5.79c.2-.74.39-1.49.58-2.23.35-1.38.7-2.75 1-4.13l.58-2.15q.67-2.74 1.32-5.49c.2-.88.41-1.77.61-2.65.27-1.16.53-2.33.79-3.49.21-.92.42-1.84.62-2.76q.57-2.61 1.12-5.22c.21-1 .42-2 .62-3s.41-2 .61-3 .42-2.09.62-3.14q.5-2.52 1-5c.71.33 1.42.64 2.14.94q-10.38 46.81-25.03 99.6Z" class="cls-5"/><g class="cls-11"><path d="M942.42 2140.79q-2.17-1.32-4.34-2.67c2.86-7.15 5.43-14.34 7.74-21.46q1-3.09 2-6.2l.51-1.63c.58-1.86 1.14-3.71 1.7-5.57.07-.24.15-.48.22-.72q.9-3 1.77-6.05c.17-.62.35-1.24.52-1.86q.69-2.43 1.36-4.86c.13-.49.27-1 .4-1.47q.79-2.9 1.54-5.79c.2-.74.39-1.49.58-2.23.35-1.38.7-2.75 1-4.13l.58-2.15q.67-2.74 1.32-5.49c.2-.88.41-1.77.61-2.65.27-1.16.53-2.33.79-3.49.21-.92.42-1.84.62-2.76q.57-2.61 1.12-5.22c.21-1 .42-2 .62-3s.41-2 .61-3 .42-2.09.62-3.14q.5-2.52 1-5c.71.33 1.42.64 2.14.94q-10.38 46.81-25.03 99.6Z" class="cls-7"/></g><g class="cls-11"><path d="M967.4 2041.05q-10.33 46.92-25 99.74" class="cls-7"/></g><g class="cls-12"><path d="M757.49 2067c-132.75 45.9-287.6 64.11-415.12-6.48 135.11 104 293.69 72.48 362.72 27.12 15.91-10.5 35.5-13.03 52.4-20.64Z" class="cls-13"/></g><g class="cls-12"><path d="M428.1 1434.75c4.36-.44 6.42 1.67 8 5.7 1.42 3.51 3.65 7.6 4.28 11.27 1.92 11.2 1.33 22.79 1.33 34.12v38.8c0 14.83.86 29.87-.86 44.6-.75 6.47-.81 13-1.61 19.5-.54 4.34-2.23 8.36-3.28 12.57-.93 3.69-1 7.5-2.19 11.14-3.62 11.27-5.62 22.86-10.28 33.82-2.25 5.31-4.37 10.78-6.82 16-1.47 3.11-3.46 5.79-4.37 9.16a19.19 19.19 0 0 1-1.85 4.8c-1.92 3.55-4.79 7.57-6.11 11.34-1.15 3.25-1.81 6-3.62 9-2.36 4.05-5.74 14.16-12 12.43-7.37-2-6.17-12.35-6.17-17.87 0-3-.2-6.06-.06-9.05.18-3.68 1.56-7.26 2.34-10.84 1.69-7.85 3.53-15.42 4.83-23.38.72-4.38 1.33-8.81 2.31-13.14s.33-8.29 1-12.53 2.66-8.26 3.1-12.62c.52-5 0-9.8.92-14.84 1.58-8.72 2.59-17.54 3.7-26.3.5-4 1.8-7.87 2.3-11.93.68-5.58 1.7-11.11 2.18-16.73.8-9.33.1-19.06.1-28.44 0-5.43-.32-10.78.86-16.1.83-3.79 1.09-7.4 1.64-11.2.83-5.72 2.4-11.52 3.47-17.21 1-5.07 1.89-9.72 4.31-14.26 4.06-7.5 5.75-17.83 12.55-17.81Z" class="cls-13"/></g><g class="cls-12"><path d="M610.46 1176.15c-2.54 23.72-26.37 37.21-49.4 39.33a68.38 68.38 0 0 1-8.56.25c-20.37-1.58-50.73-9.93-52.25-35 17.46 9.11 37.2 9.87 56.3 6.68 3-.52 5.8-1.18 8.62-2 14.1-3.9 27.71-10.82 40.19-19.51a4.63 4.63 0 0 1 2.31.57 9.31 9.31 0 0 1 2.48 7.32c.07.76.17 1.53.31 2.36Z" class="cls-13"/></g><path d="M2061.42 1820q-4.55-24.66-11.35-48.93c-17.26-51.16-25.2-121-85.55-135.33-98.63-21.54-194-32.56-289.06-48.15-4.61-58.57 15.9-114 12.73-172.6-1.58-28.58-7.94-79.4-47.64-61.93-52.4 22.23-84.17 74.64-139.6 90.32-14.44 2.58-27.94 3.38-41.24 3.77s-26.4.4-39.9 1.19c-11.12-1-22.28-2.42-33.47-3.91-55.95-7.43-112.64-17.81-168.23-7.36-11.07 2.88-21.15 6-30.6 9.42a233 233 0 0 1 3.89 26.88c.81 9 1.13 18 1.13 27a862.72 862.72 0 0 1-4.73 92.34c-70.09 14.2-140.17 29.8-211.47 38.85q-5.8 27.72-11.2 53.26c-5.86 28.74-12.21 57.33-20 84.13q-4.62 17.67-9.11 35.41c-11.94 47.29-23.08 94.78-33.2 142a524.79 524.79 0 0 0-7.75 61.36c-3.67 60.81 7.05 118.77 51.51 163.24 129.7 131 320 91.09 494.3 77.2 34.85-2.77 69.05-4.51 102-3.63 102.46-.52 205.68 7.42 307.32-16.4 33.74-7.94 64.61-23.52 91.83-44.53s50.79-47.42 69.94-77a303.39 303.39 0 0 0 24.91-42.12c35.12-77.48 39.67-162.3 24.54-244.48Z" class="cls-14"/><path d="M1218.12 1618.86c44.47 95.29 122.29 196.93 239.8 184.22 9.53-1.59 17.47-7.94 25.41-11.12 30.18-9.52 61.94-15.88 81-38.11 38.12-47.64 58.76-100 92.11-150.87a95.73 95.73 0 0 1 18.71-20.27c-3.17-56.79 16.13-110.78 13-167.76-1.58-28.58-7.94-79.4-47.64-61.93-52.4 22.23-84.17 74.64-139.6 90.32-14.44 2.58-27.94 3.38-41.24 3.77s-26.4.4-39.9 1.19c-11.12-1-22.28-2.42-33.47-3.91-55.95-7.43-112.64-17.81-168.23-7.36-11.07 2.88-21.15 6-30.6 9.42a233 233 0 0 1 3.89 26.88c.81 9 1.13 18 1.13 27 .08 25-1 49.45-3 73.73 14.63 7.94 22.16 30.57 28.63 44.8Z" class="cls-14"/><g class="cls-6"><path d="M2061.42 1820q-4.55-24.66-11.35-48.93c-17.26-51.16-25.2-121-85.55-135.33-98.63-21.54-194-32.56-289.06-48.15-.13-1.62-.23-3.23-.32-4.84a95.54 95.54 0 0 0-18.71 20.28c-52.66 77.44-71 167.09-174.49 191.89-125.49 30.08-216.75-72.47-263.82-176-6.47-14.23-14-36.9-28.6-44.81q-.76 9.32-1.72 18.61c-70.09 14.2-140.17 29.8-211.47 38.85q-5.8 27.72-11.2 53.26c-5.86 28.74-12.21 57.33-20 84.13q-4.62 17.67-9.11 35.41c-11.94 47.29-23.08 94.78-33.2 142a524.79 524.79 0 0 0-7.75 61.36c-3.67 60.81 7.05 118.77 51.51 163.24 129.7 131 320 91.09 494.3 77.2 34.85-2.77 69.05-4.51 102-3.63 102.46-.52 205.68 7.42 307.32-16.4 33.74-7.94 64.61-23.52 91.83-44.53s50.79-47.42 69.94-77a303.39 303.39 0 0 0 24.91-42.12c35.12-77.49 39.67-162.31 24.54-244.49Z" class="cls-7"/></g><path d="M1675.71 1547.05c3.42-44.07 14.91-87.15 12.48-132.09-1.58-28.59-7.94-79.41-47.64-61.94-52.4 22.23-84.17 74.64-139.6 90.32-14.44 2.58-27.94 3.38-41.24 3.77s-26.4.4-39.9 1.19c-11.12-1-22.28-2.42-33.47-3.91-55.95-7.43-112.64-17.81-168.23-7.36-11.07 2.88-21.15 6-30.6 9.42a233 233 0 0 1 3.89 26.88c.81 9 1.13 18 1.13 27 0 11.3-.16 22.46-.57 33.55 160.37 19.75 322.04 16.18 483.75 13.17Z" class="cls-7" style="opacity:.73"/><path d="M1053.58 830.16c-14.5 58.37-25.93 117.21-34.72 176.35-19.86 171.84-96.11 489.49 145.27 502.16 187.4 11.12 374.79 14.29 562.18 12.7 75.7-3.17 122.11-37.93 149.35-89.06 54.48-102.25 32.29-270 14.42-381.38-3.2-29.4-6-58.91-8.14-88.56-4.76-65.11-31.76-128.63-81-174.69-33.35-34.93-84.17-22.23-125.27-8.29-17.16 4.82-33.93 10.68-49.42 16.24-39.7 14.29-77.81 31.76-117.53 41.29-17.45 4-34.52 7.94-51.83 11.06a359.51 359.51 0 0 1-53.25 6c-31.67.67-63.19-1.53-94.61-4.89-62.33-7.39-124.26-16.92-188.42-21.16-22-.34-44.35.49-67.03 2.23Z" class="cls-14"/><g class="cls-12"><path d="M1890.08 1050.93c-3-27.61-5.65-55.32-7.72-83.14 2.81 145.55-5.47 294.39-57.81 429.75-12 22.5-28.18 41.39-49.71 55s-48.37 22-81.67 23.35c-164.84 1.4-329.69-1.39-494.53-11.17-35.39-1.87-63-11.18-84.41-26.11a126.3 126.3 0 0 1-27.62-26.35c-60.64-117.37-54.29-255.53-57.59-384.54q-.24-22.17 0-44.34t1-44.3q-6.19 33.63-11.22 67.42c-1.42 12.28-3.13 25.29-5 38.89s-3.87 27.78-5.9 42.39c-10.59 76.89-21.7 153.11-14.47 229.51a392 392 0 0 0 5.85 42.5c16.22 82 61.33 143.43 164.78 148.87 187.4 11.12 374.79 14.29 562.18 12.7 75.7-3.17 122.11-37.93 149.35-89.06 54.55-102.24 32.41-269.95 14.49-381.37ZM1737.42 775.6a90.09 90.09 0 0 1 38.46-4.85c-30.83-12.16-68.42-2.14-100.2 8.64-17.16 4.82-33.93 10.68-49.42 16.24-39.7 14.29-77.81 31.76-117.53 41.29-17.45 4-34.52 7.94-51.83 11.06a359.51 359.51 0 0 1-53.25 6c-20.48.44-40.89-.34-61.26-1.85 135.25 26.37 267.14-34.38 395.03-76.53Z" class="cls-7"/></g><path d="M1102.21 1009.81c-22.44-61.26-53.77-118.85-81.05-179.48-53.55-122.26-70.73-278.88 11.12-391.18a173.62 173.62 0 0 1 27.3-25.56c29.79-22.29 66.67-34.41 105.06-29.87 57.6 6.06 108.12 32.34 163.69 48.5 92 28.29 185.92 5.06 268.44-37.31 15.33-6.36 30.74-12.28 46.19-17.12 46.35-14.53 93.08-19.33 139.06 2.9 147.52 71.74 153.58 271.81 112.69 412.86q-7.79 26.81-18.17 52.87a609.47 609.47 0 0 1-118.77 188c-66.69 1-131.36-22.23-197.74-27a244.48 244.48 0 0 0-58.56 3.45c-57.25 9.95-111.25 36.47-168.08 53.9a227.67 227.67 0 0 1-82.41 7.3 245.21 245.21 0 0 1-79.76-21.71q-16.26-8.08-33.51-18.29t-35.5-22.26Z" class="cls-14"/><path d="M1813.14 859.64c-10.1-36.38 13.14-70.73 26.27-106.1 25.26-60.63 7.08-129.33 4-194-2-26.27-13.14-46.48-28.3-67.7-8.08-13.14-25.26-14.15-38.39-10.11-38.4 13.14-72.75 30.32-109.13 50.53-5.05 3-12.12 5-16.17 8.08-43.45 26.27-86.89 39.41-134.38 45.47-31.33 4-61.64 9.09-91.95 12.12-72.75 6.07-144.5 7.08-218.26-4-23.24-4-48.5-8.08-71.74-16.16-2-1-3-4.05-4-4.05-4-2-9.09-4-10.1-6.06-8.09-13.13-20.21-26.27-34.36-17.18-15.15 9.1-17.18 29.31-28.29 45.47-5 8.09-6.06 16.17-8.08 24.25-8.09 45.47-6.07 87.91 7.07 131.36 1 2 2 6.06 3 8.08a47.76 47.76 0 0 1 6.06 15.16c13.14 34.35 12.13 73.76-12.12 102-2 2.61-6 2.69-10.26 2.43 20.77 43.3 41.82 86 58.16 130.57q18.26 12 35.5 22.24t33.51 18.29a245.21 245.21 0 0 0 79.76 21.71 227.67 227.67 0 0 0 82.41-7.3c56.83-17.43 110.83-44 168.08-53.9a244.48 244.48 0 0 1 58.56-3.45c66.38 4.81 131 28.05 197.74 27A610.18 610.18 0 0 0 1864 875.63c-20.41 2.72-45.08 3.82-50.86-15.99Z" class="cls-14"/><path d="M1894.71 793.55c40.89-141 34.83-341.12-112.69-412.86-46-22.23-92.71-17.43-139.06-2.9-15.45 4.84-30.86 10.76-46.19 17.12-82.52 42.37-176.49 65.6-268.44 37.31-55.57-16.16-106.09-42.44-163.69-48.5-38.39-4.54-75.27 7.58-105.06 29.87a173.62 173.62 0 0 0-27.3 25.56c-81.85 112.3-64.67 268.92-11.12 391.18 7.42 16.48 15.13 32.74 22.89 48.91 4.25.26 8.31.18 10.26-2.43a82.59 82.59 0 0 0 14-23 91.4 91.4 0 0 0 6.11-25.7c2.4-30.23-11.9-58.82-19.84-85.81-17.47-63.53-22.23-162 44.47-195.34 63.52 52.41 154 54 233.51 56.29 8.77 0 17.68 0 26.6-.24 136.66-3.24 270.06-41.58 388.88-108.83 14.66-8.3 30.9-17.35 47.39-13.85 43.65 9.26 54.17 92.48 58 127.67 5.35 48.67 3.14 99.4-14 145.59-13.13 35.37-36.37 69.72-26.27 106.1 5.78 19.81 30.45 18.71 50.85 16q6.66-14.43 12.55-29.21 10.35-26.08 18.15-52.93Z" class="cls-2" style="opacity:.57"/><path d="M1062.49 849.68c5.11 21.19 5.6 41.15-8 50.22-54 36-138.82-206.64-148.48-240-24.61-85-28.89-178.38 15.22-258 46.48-83.87 147.53-125.29 243.52-113.17 28.29 4 47.49 38.4 36.37 65.68-18.45 42.45-66.87 60.2-102.17 86.05-71.21 52.13-89.07 139.19-82 223.33 3.54 41.83 12.48 83.16 24.29 123.39 3.9 13.17 15.5 38.62 21.25 62.5Zm767.39 0c-5.1 21.19-5.59 41.15 8 50.22 54 36 138.82-206.64 148.48-240 24.61-85 28.89-178.38-15.23-258-46.48-83.87-147.52-125.29-243.51-113.17-28.29 4-47.49 38.4-36.38 65.68 18.46 42.45 66.87 60.2 102.18 86.05 71.21 52.13 89.07 139.19 82 223.33-3.54 41.83-12.48 83.16-24.29 123.39-3.89 13.17-15.5 38.62-21.25 62.5Z" class="cls-17"/><path d="M1091.39 118c-95.11 60.93-158.56 171.8-76.31 277.89 67 86.33 177 127.28 283.53 132.83 161.1 8.39 356.43-40 483.43-142.7 47-38 95.66-102 118.32-169.31a259.93 259.93 0 0 0 10.26-40.62c12.61-64.88-14.38-131.58-62-176 20.65 57.17-4.76 130.22-61.67 156.55a65.53 65.53 0 0 1-32.21 3.87 207 207 0 0 0 14.14-23.61c14.63-28.82 19.4-60.58 11.46-92.34-4.77 34.93-42.88 52.4-71.23 65.9a222.58 222.58 0 0 1-44.11 11.2 262.23 262.23 0 0 1-45.4 3c-144.31-3.22-272.93-76.49-419.7-50.29-36.74 6.51-74.63 21.88-108.51 43.63Z" class="cls-17"/><path d="M1834 225.31c-44.06 26.05-102.66 34.13-151.16 19 5-32.33 11.11-50.52 25.26-78.81-76.8 53.55-153.59 49.51-234.42 9.09 31.32 47.49 90.94 57.6 143.48 65.68-15.16 35.37-59.62 35.37-89.93 49.51 62.65 16.17 128.33 20.21 193 17.18-61.63 41.43-126.3 75.78-194 106.09 130.35 13.14 228.36-94 307.81-181.79Zm-642.51-104.5c-68.47 16.37-145.27 43.65-173.56 114.38-19.2 50.52-6.06 106.09 28.29 147.52 33.35 40.42 79.83 65.68 130.35 68.71-53.55-16.17-88.92-64.67-108.12-115.19 19.2 26.27 46.48 48.5 79.83 53.55-40.42-27.28-70.73-71.74-72.75-121.25 17.17 19.2 37.38 36.38 60.62 48.5-21.22-31.32-45.47-65.67-39.4-107.1 7.07-42.44 45.47-71.74 84.42-82.16 4.75-1.97 9.15-4.77 10.32-6.96Z" class="cls-18"/><ellipse cx="1283.68" cy="881.87" class="cls-19" rx="34.35" ry="45.47"/><ellipse cx="1559.51" cy="881.87" class="cls-19" rx="34.35" ry="45.47"/><ellipse cx="1292.01" cy="875.04" class="cls-20" rx="6.3" ry="8.34"/><path d="M1551.59 875.05c0 4.6-2.82 8.33-6.3 8.33s-6.29-3.73-6.29-8.33 2.82-8.34 6.29-8.34 6.3 3.73 6.3 8.34Z" class="cls-20"/><path d="M1224.84 810.35c31.79-18.74 70.08-18.57 105.28-11.58 12.75 2.53 16.76-17.28 4-19.81-40.69-8.08-83.9-7-120.45 14.57-11.23 6.62 0 23.41 11.19 16.82Z" class="cls-17"/><g class="cls-21"><path d="M1763.86 497.86c57.37 80.88 76.56 187 47.26 281.95 35.37 1 34.36-51.53 38.4-76.79 8.08-53.55 12.12-108.12-10.11-158.64a105.68 105.68 0 0 0-10.1-18.19c-14.15-22.23-25.26-55.57-55.13-52.4-5.31-.03-11.3-1.41-10.32 24.07Z" class="cls-22"/></g><g class="cls-21"><path d="M1081.55 524.85c-63.52 68.12-58.76 177.7-14.29 255.51-17.47-84.17-6.36-169.92 28.92-247.31.36-2.19 2.24-7.5-14.63-8.2Z" class="cls-22"/></g><path d="M942.48 709.41c-18.48-57.92-46.81-116.53-33.67-178.16 0 28.29 21.21 49.51 27.28 75.78-1-16.17 3-31.33 9.09-45.47 9.1 19.2 5.05 43.45 20.21 58.6 5.05-31.32 12.13-63.65 31.32-88.91-16.16 74.75-11.11 154.59 16.17 226.33-16.17-27.28-32.33-54.56-43.45-83.86-1 16.16 7.07 31.32 5.05 47.49-13.13-22.23-23.24-45.47-34.35-68.71 3 22.23 4 45.47 11.83 67 .7 2.04 1.88 7.2-9.48-10.09ZM1875.64 507c20.36 62.64 31.47 132.36 8.23 196 20.21-21.22 21.22-52.54 31.33-78.81 10.1 32.33-1 66.68-12.13 97 36.38-23.24 33.35-70.73 47.49-107.11 5 35.37 3 71.74-12.12 104.08 52.54-71.75 59.61-172.79 21.22-252.61-5.06 39.4 7.07 77.8 6.06 117.21-9.1-9.1-12.13-21.22-21.22-30.32-5 25.27-7.07 50.53-13.14 74.78-5-25.26-8.08-51.54-17.17-75.79-4 10.11-2 20.21-4 30.32 2-55.58-22.23-110.14-61.63-148.54 2 10.11 6.06 19.2 9.38 29.78 4.06 10.69 9.8 25.01 17.7 44.01Z" class="cls-18"/><path d="M1610.68 807.86c-12.09 1.8-28.5-2.56-41.62-2.65-12.68-.09-25.65.74-37.34 5.63-37.72 15.77-49 54.78-48.32 92.55.32 19.46 3.29 38.81 7.11 57.86 3.54 17.64 10.49 35 15.53 52.31 3.83 13.17 6.3 27.28 2.77 40.53-13.22 49.64-86.2 26.57-110.55 1.06 5.61 5.88 52.29-3.45 58-8.9 18-17-1.66-58-4.33-78.5-7.87-60.31-.07-115.2 36-165.84 7.64-10.73 17.49-21.51 30.55-23.22 8.48-1.11 16.91 1.84 25 4.75 22.34 8.06 45.27 15.29 67.2 24.42Z" class="cls-3"/><path d="M1629.39 806.09c-31.42-28.52-73.51-38.36-115-38.7-13-.11-13.14 20.1-.12 20.21 35.89.3 73.42 7.89 100.75 32.69 9.6 8.72 24-5.44 14.37-14.2Z" class="cls-17"/><path d="M1302.3 1214.88a329.12 329.12 0 0 0 223.91 23.82c22.24-4.77 63.53-9.53 60.35-30.18-1.46-7.29-4.85-14.73-8.81-22.36a282.58 282.58 0 0 1-93.73 23.6c-26.49 2-53.1-1.15-79.31-5-24.46-3.59-48.8-8.59-72.3-16.33q-9.95-3.27-19.62-7.25c-6.33 12.68-15.1 30.62-10.49 33.7Z" class="cls-20"/><path d="M1637 1151.1a296.8 296.8 0 0 1-59.21 35.06c4 7.63 7.35 15.07 8.81 22.36 3.18 20.65-38.11 25.41-60.35 30.18a329.12 329.12 0 0 1-223.91-23.82c-4.61-3.08 4.16-21 10.49-33.69a231.68 231.68 0 0 1-55.79-32.27 3.93 3.93 0 0 0-6.11.8 3.19 3.19 0 0 0 .5 4.81c5.54 5.34 6.75 14.89 9.31 21.87 3.51 9.6 7.87 19 12.32 28.21a249.52 249.52 0 0 0 27.34 44.25c20.64 26.59 47.15 49.09 78 62.85 67.43 30 145.5 12.46 196.45-40.21 16.29-16.83 29.22-36.62 40-57.36 5.49-10.61 9.91-21.61 14.8-32.49 3.46-7.67 5.92-18.52 12.18-24.31 3.17-3-1.23-9-4.83-6.24Z" class="cls-17"/><path d="M1443.63 1289.52c-25.05-30.62-72.05-23.43-99.32 2.33a187.08 187.08 0 0 0 34.08 19.86c58.68 26.14 125.4 16.21 175.31-21.51-31.32-25.63-79.7-32.28-110.07-.68Z" style="fill:#b70000"/><path d="M1637 1151.1a296.8 296.8 0 0 1-59.21 35.06c4 7.63 7.35 15.07 8.81 22.36 3.18 20.65-38.11 25.41-60.35 30.18a329.12 329.12 0 0 1-223.91-23.82c-4.61-3.08 4.16-21 10.49-33.69a231.68 231.68 0 0 1-55.79-32.27 3.93 3.93 0 0 0-6.11.8 3.19 3.19 0 0 0 .5 4.81c5.54 5.34 6.75 14.89 9.31 21.87 3.51 9.6 7.87 19 12.32 28.21a249.52 249.52 0 0 0 27.34 44.25 220.5 220.5 0 0 0 44 43c27.27-25.76 74.27-32.95 99.32-2.33 30.34-31.6 78.75-25 110.07.68a181.79 181.79 0 0 0 21.14-18.7c16.29-16.83 29.22-36.62 40-57.36 5.49-10.61 9.91-21.61 14.8-32.49 3.46-7.67 5.92-18.52 12.18-24.31 3.09-3.01-1.31-9.01-4.91-6.25Z" class="cls-17"/><path d="M769.86 1662.19a395.68 395.68 0 0 0-40.51 16.39 169 169 0 0 1 16 31.15c1.48 3.78 2.81 7.6 4 11.44q17.67-34.43 38.63-66.79-9.07 3.8-18.12 7.81Zm1362.46 47.54a168.34 168.34 0 0 1 16-31.15 395.85 395.85 0 0 0-40.52-16.39q-10.16-4.51-20.43-8.76a772.75 772.75 0 0 1 41.92 73q1.49-8.43 3.03-16.7Z" class="cls-24"/><path d="M1873.81 2713.18q1.44-29.66 4.21-59.17 4.29-45 11.74-89.63a1241.26 1241.26 0 0 1 73.42-261.18c3.33-9.32 6.59-18.64 9.69-28 17.06-47.44 25-96.67 28.17-145.9a139.23 139.23 0 0 0 26.88 3.55 313.06 313.06 0 0 0 33.37-2.14c33.45-4.58 65.21-12.53 98-20.1-3.31-4-6.34-7.82-9.12-11.67-51.51-113.68-42.16-250.75-20.9-372.52a772.75 772.75 0 0 0-41.92-73c-105.69-43.69-219.35-65-333.33-61.31-17.34.56-33.76-1.95-51.07-.17-47.22 95.68-113.26 204.14-219.66 234.32-92.11 27-169.92-46.06-226.77-109.78q-18.29-20.76-33.74-41.84a575.768 575.768 0 0 1-27.74-41 313.38 313.38 0 0 1-19.44-38.14q-26-2.6-52-3.44c-114.8-3.74-229.26 17.94-335.59 62.26q-20.91 32.32-38.63 66.79a210.52 210.52 0 0 1 5.52 21.36c7.3 91.42 10.36 184.53-1.31 275.88a871.6 871.6 0 0 1-3.55 24.82c-2 27.34-10 54.34-25.84 78.16 4.17 1.59 8.37 3.4 12.6 5.31 36.63 16.92 76.33 15.34 116 7.4 7.94-3.18 20.64-7.94 23.82 0 11.31 28.24 6.47 63.2 13.93 92.71 7.93 31.38 23.09 61.3 34.12 91.79 46.08 127.32 74.66 255.32 70.67 389.88a773.89 773.89 0 0 0 878.4 4.71Z" class="cls-24"/><g class="cls-25"><path d="M1817 2488.18c-4 7-4 16-7 24-15 38-25 75-34 117-2 12-9 22-10 33-6 40-10 77-15 117-.1.85-.18 1.69-.27 2.54a771.88 771.88 0 0 0 123.09-68.54q1.44-29.66 4.21-59.17 4.29-45 11.74-89.63a1241.26 1241.26 0 0 1 73.42-261.18c3.33-9.32 6.59-18.64 9.69-28 10.8-30 17.93-60.77 22.53-91.77-.76 1.57-1.55 3.15-2.41 4.72-64 102.03-118 197.03-176 300.03Z" class="cls-26"/></g><path d="M2150.21 2099c-51.51-113.68-42.16-250.75-20.9-372.52a772.75 772.75 0 0 0-41.92-73c-105.69-43.69-219.35-65-333.33-61.31-17.34.56-33.76-1.95-51.07-.17-47.22 95.68-113.26 204.14-219.66 234.32-92.11 27-169.92-46.06-226.77-109.78q-18.29-20.76-33.74-41.84a575.768 575.768 0 0 1-27.74-41 313.38 313.38 0 0 1-19.44-38.14q-26-2.6-52-3.44c-114.8-3.74-229.26 17.94-335.59 62.26q-20.91 32.32-38.63 66.79a210.52 210.52 0 0 1 5.52 21.36c7.3 91.41 10.36 184.53-1.31 275.88a871.6 871.6 0 0 1-3.55 24.82c-2 27.34-10 54.34-25.84 78.16 4.17 1.59 8.37 3.4 12.6 5.31 36.63 16.92 76.33 15.34 116 7.4 7.94-3.18 20.64-7.94 23.82 0a111.32 111.32 0 0 1 6.49 26.23c.93 1.29 1.85 2.59 2.81 3.86 6 8 9 17 15 24 26 27 43 56 65 88 13 20 24 39 36 60 25 47 48 92 63 143 4 12 3 25 8 36 32.7 84.69 44.3 173.59 44.84 263.17a775.58 775.58 0 0 0 632.89 3.37c.09-.85.17-1.69.27-2.54 5-40 9-77 15-117 1-11 8-21 10-33 9-42 19-79 34-117 3-8 3-17 7-24 58-103 112-198 176-300 .86-1.57 1.65-3.15 2.41-4.72 2.66-18 4.48-36.06 5.64-54.13a139.23 139.23 0 0 0 26.88 3.55 313.06 313.06 0 0 0 33.37-2.14c33.45-4.59 65.21-12.53 98-20.1a259.81 259.81 0 0 1-9.05-11.65Z" class="cls-24"/><g class="cls-25"><path d="M1065 2479.18c-15-51-38-96-63-143-12-21-23-40-36-60-22-32-39-61-65-88-6-7-9-16-15-24-1-1.27-1.88-2.57-2.81-3.86 3 22 2.16 45.61 7.44 66.48 7.93 31.38 23.09 61.3 34.12 91.79 46.08 127.32 74.66 255.32 70.67 389.88a772.72 772.72 0 0 0 122.42 69.88c-.54-89.58-12.14-178.48-44.84-263.17-5-11-4-24-8-36Z" class="cls-26"/></g><g class="cls-27"><path d="M855.22 1675.15c59.58-43.58 148.51-65.81 220-49.93 17.47 4.76-20.65 33.35-38.12 38.11A1126.52 1126.52 0 0 1 874 1697.7c-12-1.5-21.32-10.49-18.78-22.55Z" class="cls-20"/></g><g class="cls-11"><path d="M1257.74 1516.53c3.26 51.52-6.27 105.51-31.68 150 30.18-31.76 41.29-74.64 39.64-117.28a180.14 180.14 0 0 0-7.96-32.72Z" class="cls-7"/></g><g class="cls-11"><path d="M1611.22 1516.53c-3.26 51.52 6.27 105.51 31.68 150-30.17-31.76-41.29-74.64-39.64-117.28a181.82 181.82 0 0 1 7.96-32.72Z" class="cls-7"/></g><g class="cls-28"><path d="M1031.51 997.62c-19.84 55.89-11.9 114.65-7.13 171.82 19.06-55.58 23.82-114.34 8.64-171.69a2.44 2.44 0 0 0-1.51-.13Z" class="cls-20"/></g><g class="cls-28"><path d="M1021.93 1199.61c-7.08 34.94-29.31 82.58 7.21 108 12.71-34.94 6.36-73-6.32-108.18a1.28 1.28 0 0 0-.89.18Z" class="cls-20"/></g><g class="cls-27"><path d="M1759.13 1624.72c0-1.67 1.4-3.5 5.1-5.36a26.21 26.21 0 0 1 8.9-2.14c61.39-7 126.9 2.77 186.33 18.61 9.23 2.46 18.5 5 27.15 9.12 1.88.89 3.88 2 4.62 4a5.7 5.7 0 0 1-1.57 5.79 14.28 14.28 0 0 1-5.45 3.11c-16 6-33 4.6-49.66 2.93-20.26-2-40.06-7.08-60.14-10.28-35.05-5.57-69.88-12.33-104.76-18.89-4.82-.96-10.48-3.61-10.52-6.89Z" class="cls-20"/></g><g class="cls-12"><path d="M54 1953.59c-.12-2.86-2.3-5.07-3.83-7.37-1.25-1.87-2.48-3.73-3.62-5.66-2.47-4.21-4.57-8.62-7-12.86-2.25-3.92-4.87-7.61-7.11-11.54a26.42 26.42 0 0 0-3-4.49c-1.79-2.08-3.24-4.35-4.95-6.48-1-1.22-1.51-2.63-2.42-3.88a13.92 13.92 0 0 1-1.84-3.5 35.58 35.58 0 0 0-1.91-3.55 23.49 23.49 0 0 1-.67-2.72c-.9-2.52-1.6-5.13-2.27-7.73-.59-2.28-.35-4.71-.35-7.06 0-2.19-.47-4.9.34-7 1.72-4.38 5.05-7.76 7.64-11.63 1.73-2.6 3.16-5.4 4.69-8.11a34.42 34.42 0 0 0 1.76-3.35 8.77 8.77 0 0 1 .87-2.18c1.06-.93 1.54.52 1.69 1.41.4 2.4.81 4.81 1.21 7.21a80.9 80.9 0 0 1 .73 8.66c.09 1.64.36 3.26.38 4.91v8.49a24.63 24.63 0 0 0 .27 5.63c.3 1.29.55 2.61.76 3.93.29 1.84.66 3.65 1 5.5a142.69 142.69 0 0 0 4.3 18.11c1.85 6 3.14 12.06 5.13 18 .76 2.24 1.41 4.54 2.1 6.8.61 2 .79 4.12 1.31 6.15a22 22 0 0 0 1.49 4.26c.27.54.45 1.19.75 1.72s.75.74 2.55 8.33Z" class="cls-13"/></g><g class="cls-12"><path d="M2763.88 1707.26c.12-2.74 2.22-4.87 3.69-7.08 1.2-1.8 2.38-3.58 3.47-5.44 2.38-4 4.4-8.28 6.74-12.36 2.16-3.77 4.68-7.32 6.82-11.09a26.46 26.46 0 0 1 2.89-4.32c1.72-2 3.11-4.18 4.75-6.22 1-1.17 1.45-2.53 2.33-3.73a13.49 13.49 0 0 0 1.77-3.36 35 35 0 0 1 1.84-3.42 23.69 23.69 0 0 0 .64-2.61c.87-2.43 1.54-4.93 2.18-7.43.57-2.19.34-4.53.34-6.79 0-2.1.45-4.7-.33-6.7-1.65-4.21-4.85-7.45-7.34-11.17-1.66-2.5-3-5.19-4.51-7.8a33.78 33.78 0 0 1-1.69-3.21 8 8 0 0 0-.84-2.1c-1-.89-1.47.5-1.62 1.36-.39 2.3-.78 4.62-1.17 6.93a76.92 76.92 0 0 0-.69 8.32c-.09 1.58-.35 3.13-.37 4.71v8.17a23.17 23.17 0 0 1-.26 5.4 54.75 54.75 0 0 0-.73 3.78c-.28 1.77-.63 3.51-.93 5.29a137.6 137.6 0 0 1-4.13 17.41c-1.79 5.73-3 11.59-4.94 17.29-.72 2.15-1.35 4.36-2 6.53-.59 1.93-.76 4-1.26 5.91a20.87 20.87 0 0 1-1.43 4.09c-.26.53-.43 1.15-.73 1.66s-.72.72-2.49 7.98Z" class="cls-13"/></g></g></g></svg>