<svg xmlns="http://www.w3.org/2000/svg" viewBox="0 0 73.26 75.59"><defs><style>.cls-1{fill:#e8ebec}.cls-2{fill:#fff}.cls-3{fill:#97d3db}.cls-4{fill:#8dc74a}</style></defs><g id="Capa_2" data-name="Capa 2"><g id="layer_1" data-name="layer 1"><circle cx="59.26" cy="36.75" r="14" class="cls-1"/><circle cx="23.75" cy="12" r="12" class="cls-1"/><circle cx="20" cy="55.59" r="20" class="cls-1"/><path d="M58 69H18L8 59V14a3 3 0 0 1 3-3h44a3 3 0 0 1 3 3Z" class="cls-2"/><path d="M58 69H24V55a34 34 0 0 1 34-34Z" class="cls-3"/><path d="M58 69.75H18a.79.79 0 0 1-.53-.22l-10-10a.79.79 0 0 1-.22-.53V14A3.76 3.76 0 0 1 11 10.25h44A3.75 3.75 0 0 1 58.75 14v55a.75.75 0 0 1-.75.75Zm-39.68-1.5h38.93V14A2.24 2.24 0 0 0 55 11.75H11A2.25 2.25 0 0 0 8.75 14v44.68Z" class="cls-4"/><path d="M15 13.75a.75.75 0 0 1-.75-.75V9a.75.75 0 0 1 1.5 0v4a.76.76 0 0 1-.75.75Zm6 0a.75.75 0 0 1-.75-.75V9a.75.75 0 0 1 1.5 0v4a.76.76 0 0 1-.75.75Zm6 0a.75.75 0 0 1-.75-.75V9a.75.75 0 0 1 1.5 0v4a.76.76 0 0 1-.75.75Zm6 0a.75.75 0 0 1-.75-.75V9a.75.75 0 0 1 1.5 0v4a.76.76 0 0 1-.75.75Zm6 0a.75.75 0 0 1-.75-.75V9a.75.75 0 0 1 1.5 0v4a.76.76 0 0 1-.75.75Zm6 0a.75.75 0 0 1-.75-.75V9a.75.75 0 0 1 1.5 0v4a.76.76 0 0 1-.75.75Zm6 0a.75.75 0 0 1-.75-.75V9a.75.75 0 0 1 1.5 0v4a.76.76 0 0 1-.75.75Z" class="cls-4"/><path d="M18 69 8 58.99h10V69z" class="cls-2"/><path d="m18 69-4.2-4.21 4.2-5.8V69z" class="cls-3"/><path d="M18 69.75a.77.77 0 0 1-.53-.22l-10-10a.76.76 0 0 1-.16-.82.74.74 0 0 1 .69-.46h10a.75.75 0 0 1 .75.75v10a.75.75 0 0 1-.46.69.72.72 0 0 1-.29.06Zm-8.19-10 7.44 7.43v-7.43ZM39 21.74H25a.75.75 0 0 1 0-1.5h14a.75.75 0 0 1 0 1.5Zm12 6H40.72a.75.75 0 0 1 0-1.5H51a.75.75 0 0 1 0 1.5Zm-14.28 0H27a.75.75 0 0 1 0-1.5h9.72a.75.75 0 0 1 0 1.5Zm-13.72 0h-8a.75.75 0 1 1 0-1.5h8a.75.75 0 0 1 0 1.5Zm18 6H30a.75.75 0 0 1 0-1.5h11a.75.75 0 0 1 0 1.5Zm-15 0H15a.75.75 0 0 1 0-1.5h11a.75.75 0 0 1 0 1.5Zm10 6H25a.75.75 0 0 1 0-1.5h11a.75.75 0 0 1 0 1.5Zm-15 0h-6a.75.75 0 0 1 0-1.5h6a.75.75 0 0 1 0 1.5Zm9 6H15a.75.75 0 0 1 0-1.5h15a.75.75 0 0 1 0 1.5Zm-2 6.01H15a.75.75 0 0 1 0-1.5h13a.75.75 0 0 1 0 1.5Zm24-7.97h-.08a.75.75 0 0 1-.67-.83c.78-7.13-4.47-9.23-4.52-9.25a.75.75 0 0 1 .53-1.4c.07 0 6.38 2.55 5.48 10.82a.75.75 0 0 1-.74.66Z" class="cls-4"/><path d="M52 43c14-6 20.41 2.34 20 10.79-.57 11-10 23.72-20 17.58-10 6.14-19.42-6.6-20-17.58-.41-8.42 6-16.73 20-10.79Z" class="cls-2"/><path d="M57 41.42c5.69 1.5 8.29 6.92 8 12.4-.4 7.61-5 16.06-11.18 18.49C63.1 76 71.45 64.13 72 53.82c.37-7.37-4.46-14.64-15-12.4Z" class="cls-3"/><path d="M46.7 73.75a10.55 10.55 0 0 1-4.93-1.27c-5.58-2.94-10.1-10.94-10.49-18.62-.25-4.86 1.63-9.18 5-11.55 2.72-1.9 7.64-3.44 15.71-.1 8.06-3.34 13-1.8 15.7.1 3.4 2.37 5.28 6.69 5 11.55-.39 7.68-4.9 15.68-10.49 18.62a10.2 10.2 0 0 1-10.2-.21 10.65 10.65 0 0 1-5.3 1.48Zm-3.38-32a10.48 10.48 0 0 0-6.16 1.79c-3 2.07-4.61 5.9-4.38 10.25.37 7.19 4.54 14.65 9.69 17.36a8.71 8.71 0 0 0 9.14-.39.75.75 0 0 1 .79 0 8.72 8.72 0 0 0 9.14.39c5.16-2.71 9.33-10.17 9.7-17.36.22-4.35-1.42-8.18-4.39-10.25-3.5-2.45-8.53-2.39-14.55.18a.76.76 0 0 1-.59 0 21.62 21.62 0 0 0-8.39-1.97ZM65 35.65h-4a.75.75 0 0 1 0-1.5h4a.75.75 0 0 1 0 1.5Z" class="cls-4"/><path d="M63 37.65a.74.74 0 0 1-.75-.75v-4a.75.75 0 0 1 1.5 0v4a.75.75 0 0 1-.75.75Z" class="cls-4"/><circle cx="63.01" cy="28.9" r=".75" class="cls-4"/><circle cx="63.01" cy="25.9" r=".75" class="cls-4"/><circle cx="63.01" cy="20.9" r=".75" class="cls-4"/><circle cx="63.01" cy="14.9" r=".75" class="cls-4"/><path d="M71 11.75h-4a.75.75 0 0 1 0-1.5h4a.75.75 0 0 1 0 1.5Z" class="cls-4"/><path d="M69 13.75a.75.75 0 0 1-.75-.75V9a.75.75 0 0 1 1.5 0v4a.76.76 0 0 1-.75.75Z" class="cls-4"/><circle cx="69.01" cy="17" r=".75" class="cls-4"/><circle cx="69.01" cy="20" r=".75" class="cls-4"/><circle cx="69.01" cy="25" r=".75" class="cls-4"/><circle cx="69.01" cy="31" r=".75" class="cls-4"/></g></g></svg>