<svg xmlns="http://www.w3.org/2000/svg" viewBox="0 0 80 81.25"><defs><style>.cls-1{fill:#e8ebec}.cls-2{fill:#fff}.cls-3{fill:#97d3db}.cls-4{fill:#8dc74a}</style></defs><g id="Capa_2" data-name="Capa 2"><g id="layer_1" data-name="layer 1"><circle cx="62.8" cy="67.25" r="14" class="cls-1"/><circle cx="12" cy="30.05" r="12" class="cls-1"/><circle cx="60" cy="20" r="20" class="cls-1"/><circle cx="39.31" cy="41.02" r="32" class="cls-2"/><path d="M47.47 10.08a32 32 0 0 1-28.56 46.43 32.24 32.24 0 0 1-8.16-1 32 32 0 1 0 36.72-45.43Z" class="cls-3"/><path d="M39.31 73.77A32.75 32.75 0 1 1 72.06 41a32.79 32.79 0 0 1-32.75 32.77Zm0-64A31.25 31.25 0 1 0 70.56 41 31.28 31.28 0 0 0 39.31 9.77Z" class="cls-4"/><path d="M13.31 65h34v8h-40v-2a6 6 0 0 1 6-6Z" class="cls-3"/><path d="M39.31 65h-27a5 5 0 0 0-5 5h30a2 2 0 0 0 2-2Z" class="cls-2"/><path d="M61.31 59h-10a4 4 0 0 0-4 4v10h20a4 4 0 0 0 4-4 10 10 0 0 0-10-10Z" class="cls-3"/><path d="M58.31 59h-7a4 4 0 0 0-4 4v5h18a1 1 0 0 0 1-1 8 8 0 0 0-8-8Z" class="cls-2"/><path d="M66.31 19.02h-6l-8 40h6l8-40z" class="cls-3"/><path d="M63.51 19h-3.2l-7.2 36h1.56a2 2 0 0 0 2-1.61Z" class="cls-2"/><path d="m71.31 9-24 6v2a2 2 0 0 0 2 2h18a4 4 0 0 0 4-4Z" class="cls-3"/><path d="m68.31 9.77-21 5.23v1h19a2 2 0 0 0 2-2Z" class="cls-2"/><path d="M47.31 73.77h-40a.74.74 0 0 1-.75-.77v-2a6.75 6.75 0 0 1 6.75-6.75h34a.76.76 0 0 1 .75.75v8a.75.75 0 0 1-.75.77Zm-39.25-1.5h38.5v-6.5H13.31A5.26 5.26 0 0 0 8.06 71Z" class="cls-4"/><path d="M67.31 73.77h-20a.74.74 0 0 1-.75-.75V63a4.75 4.75 0 0 1 4.75-4.75h10A10.76 10.76 0 0 1 72.06 69a4.75 4.75 0 0 1-4.75 4.77Zm-19.25-1.5h19.25A3.26 3.26 0 0 0 70.56 69a9.26 9.26 0 0 0-9.25-9.25h-10A3.26 3.26 0 0 0 48.06 63Z" class="cls-4"/><path d="M58.31 59.77h-6a.75.75 0 0 1-.58-.27.76.76 0 0 1-.16-.63l8-40a.75.75 0 0 1 .74-.6h6a.76.76 0 0 1 .58.27.73.73 0 0 1 .15.62l-8 40a.74.74 0 0 1-.73.61Zm-5.09-1.5h4.47l7.7-38.5h-4.47Z" class="cls-4"/><path d="M67.31 19.77h-18A2.75 2.75 0 0 1 46.56 17v-2a.74.74 0 0 1 .57-.73l24-6a.74.74 0 0 1 .64.13.77.77 0 0 1 .29.6v6a4.76 4.76 0 0 1-4.75 4.77ZM48.06 15.6V17a1.25 1.25 0 0 0 1.25 1.25h18A3.26 3.26 0 0 0 70.56 15v-5Zm11.05 10.17h-26.8a3.75 3.75 0 0 1 0-7.5h10a.75.75 0 0 1 0 1.5h-10a2.25 2.25 0 0 0 0 4.5h26.8a.75.75 0 0 1 0 1.5Zm-21.42 33h-1.38a.75.75 0 0 1 0-1.5h1.38a.75.75 0 0 1 0 1.5Zm4.62 0h-1.39a.75.75 0 0 1 0-1.5h1.39a.75.75 0 0 1 0 1.5Zm-3 3a.74.74 0 0 1-.75-.75v-1.38a.75.75 0 0 1 1.5 0V61a.75.75 0 0 1-.75.77Zm0-4.61a.75.75 0 0 1-.75-.75V55a.75.75 0 0 1 1.5 0v1.39a.76.76 0 0 1-.75.77ZM15.69 45.77h-1.38a.75.75 0 0 1 0-1.5h1.38a.75.75 0 1 1 0 1.5Zm4.62 0h-1.39a.75.75 0 0 1 0-1.5h1.39a.75.75 0 0 1 0 1.5Zm-3 3a.75.75 0 0 1-.75-.75v-1.39a.75.75 0 0 1 1.5 0V48a.76.76 0 0 1-.75.77Zm0-4.62a.74.74 0 0 1-.75-.75V42a.75.75 0 0 1 1.5 0v1.4a.75.75 0 0 1-.75.75Zm12.38-8.38h-1.38a.75.75 0 1 1 0-1.5h1.38a.75.75 0 1 1 0 1.5Zm4.62 0h-1.39a.75.75 0 0 1 0-1.5h1.39a.75.75 0 0 1 0 1.5Zm-3 3a.75.75 0 0 1-.75-.75v-1.39a.75.75 0 0 1 1.5 0V38a.76.76 0 0 1-.75.77Zm0-4.62a.74.74 0 0 1-.75-.75V32a.75.75 0 0 1 1.5 0v1.4a.75.75 0 0 1-.75.75Z" class="cls-4"/></g></g></svg>