<svg xmlns="http://www.w3.org/2000/svg" xmlns:xlink="http://www.w3.org/1999/xlink" viewBox="0 0 907.09 551.76"><defs><radialGradient xlink:href="#Áåçûìÿííûé_ãðàäèåíò_4" id="Áåçûìÿííûé_ãðàäèåíò_4-2" cx="-1012.02" cy="-343.74" r="28.84"/><radialGradient id="Áåçûìÿííûé_ãðàäèåíò_17" cx="-1102.71" cy="-353.72" r="28.84" gradientTransform="matrix(-.24 .02 .02 .24 535.43 228.43)" gradientUnits="userSpaceOnUse"><stop offset="0" stop-color="#ff7b84"/><stop offset=".14" stop-color="#ff828b"/><stop offset=".34" stop-color="#ff969d"/><stop offset=".58" stop-color="#ffb7bc"/><stop offset=".86" stop-color="#ffe4e6"/><stop offset="1" stop-color="#fff"/></radialGradient><radialGradient id="Áåçûìÿííûé_ãðàäèåíò_4" cx="-1102.71" cy="-353.72" r="28.84" gradientTransform="matrix(-.24 .02 .02 .24 535.43 228.43)" gradientUnits="userSpaceOnUse"><stop offset="0" stop-color="#fff"/><stop offset=".09" stop-color="#f8f8f8"/><stop offset=".22" stop-color="#e4e4e4"/><stop offset=".37" stop-color="#c3c3c3"/><stop offset=".55" stop-color="#959595"/><stop offset=".74" stop-color="#5b5b5b"/><stop offset=".94" stop-color="#141414"/><stop offset="1"/></radialGradient><radialGradient xlink:href="#Áåçûìÿííûé_ãðàäèåíò_17" id="Áåçûìÿííûé_ãðàäèåíò_17-2" cx="-1012.02" cy="-343.74" r="28.84"/><filter id="luminosity-noclip-2" width="13.85" height="32766" x="762.27" y="-8447.69" color-interpolation-filters="sRGB" filterUnits="userSpaceOnUse"><feFlood flood-color="#fff" result="bg"/><feBlend in="SourceGraphic" in2="bg"/></filter><filter id="luminosity-noclip" width="13.85" height="32766" x="783.7" y="-8447.69" color-interpolation-filters="sRGB" filterUnits="userSpaceOnUse"><feFlood flood-color="#fff" result="bg"/><feBlend in="SourceGraphic" in2="bg"/></filter><filter id="luminosity-noclip-3" width="13.85" height="13.85" x="783.7" y="111.31" color-interpolation-filters="sRGB" filterUnits="userSpaceOnUse"><feFlood flood-color="#fff" result="bg"/><feBlend in="SourceGraphic" in2="bg"/></filter><filter id="luminosity-noclip-4" width="13.85" height="13.85" x="762.27" y="115.8" color-interpolation-filters="sRGB" filterUnits="userSpaceOnUse"><feFlood flood-color="#fff" result="bg"/><feBlend in="SourceGraphic" in2="bg"/></filter><mask id="mask-2" width="13.85" height="32766" x="762.27" y="-8447.69" maskUnits="userSpaceOnUse"/><mask id="mask-3" width="13.85" height="13.85" x="783.7" y="111.31" maskUnits="userSpaceOnUse"><g style="mask:url(#mask);filter:url(#luminosity-noclip-3)"><path d="M783.74 118.9a6.92 6.92 0 1 0 6.21-7.56 6.92 6.92 0 0 0-6.21 7.56Z" style="fill:url(#Áåçûìÿííûé_ãðàäèåíò_4);mix-blend-mode:multiply"/></g></mask><mask id="mask" width="13.85" height="32766" x="783.7" y="-8447.69" maskUnits="userSpaceOnUse"/><mask id="mask-4" width="13.85" height="13.85" x="762.27" y="115.8" maskUnits="userSpaceOnUse"><g style="mask:url(#mask-2);filter:url(#luminosity-noclip-4)"><path d="M762.31 123.4a6.92 6.92 0 1 0 6.21-7.56 6.92 6.92 0 0 0-6.21 7.56Z" style="fill:url(#Áåçûìÿííûé_ãðàäèåíò_4-2);mix-blend-mode:multiply"/></g></mask><style>.cls-18,.cls-19,.cls-22,.cls-26,.cls-36,.cls-49{mix-blend-mode:multiply}.cls-22,.cls-26,.cls-32,.cls-36{opacity:.2}.cls-7{fill:#5f6f9b}.cls-9{fill:#dfe5f7}.cls-10{fill:#c4d2f2}.cls-12{fill:#333232;opacity:.07}.cls-13{fill:#ffa285}.cls-14{fill:#ece3ea}.cls-15{fill:#424866}.cls-16{fill:#6a787e}.cls-17{fill:#505a5f}.cls-18,.cls-19{fill:#e1e1df}.cls-18,.cls-49{opacity:.3}.cls-20{fill:#ebebea}.cls-21{fill:#b22534}.cls-22{fill:#917e85}.cls-23{fill:#606376}.cls-24{fill:#383c54}.cls-25{fill:#888a98}.cls-26{fill:#ba937f}.cls-27{fill:#802a10}.cls-29{fill:#c7785c}.cls-30{fill:#701c25}.cls-32{mix-blend-mode:screen}.cls-33{fill:#796b80}.cls-36,.cls-39{fill:#626b94}.cls-37{fill:#402a22}.cls-40{fill:#f4eef2}.cls-41{fill:#d6ccd5}.cls-42{fill:#2d2f3f}.cls-46{fill:#25b6ed}.cls-47,.cls-49{fill:#7cd3f4}.cls-48{fill:#edf9fd}</style></defs><g style="isolation:isolate"><g id="Capa_2" data-name="Capa 2"><g id="Layer_1" data-name="Layer 1"><path d="M365.73 452.49c-64 .29-127.43 1.42-186.49 3.37-89.05 2.93-177.12 7.57-9.37 11.33 267.56 6 506.86 1.63 615-1.29 102.81-2.78 68.81-15.63-419.14-13.41Z" style="opacity:.2;fill:#778f97;mix-blend-mode:multiply"/><rect width="677.48" height="461.21" x="118.41" class="cls-7" rx="24.21"/><rect width="632.18" height="412.41" x="141.06" y="24.4" rx="6.19" style="fill:#fff"/><path d="M202.35 69.64h3.71V334.9h-3.71zm94.94 0H301V334.9h-3.71zm94.93 0h3.71V334.9h-3.71zm94.94 0h3.71V334.9h-3.71zm94.93 0h3.71V334.9h-3.71zm94.93 0h3.71V334.9h-3.71z" class="cls-9"/><path d="M179.64 99.59h548.37v2.42H179.64zm0 58.22h548.37v2.42H179.64zm0 58.23h548.37v2.42H179.64zm0 58.22h548.37v2.42H179.64zm0 58.22h548.37v2.42H179.64zM315.51 375.46v16.88h-70.13v-16.88z" class="cls-9"/><path d="M214.73 375.46h17.33v16.88h-17.33z" class="cls-7"/><path d="M464.62 375.45v16.88h-70.13v-16.88z" class="cls-9"/><path d="M363.85 375.46h17.33v16.88h-17.33z" class="cls-10"/><ellipse cx="704.35" cy="383.9" class="cls-7" rx="30.31" ry="29.53"/><path d="m676.83 371.53 27.52 12.37v-29.53a30.36 30.36 0 0 0-27.52 17.16Z" class="cls-10"/><path d="M676.81 371.58A28.78 28.78 0 0 0 674 383.9a28.49 28.49 0 0 0 .48 5.17l29.83-5.17Z" class="cls-9"/><path d="M613.73 383.9h-19.6c0-10.48 8.84-19.1 19.6-19.1s19.6 8.62 19.6 19.1-8.85 19.1-19.6 19.1a20.1 20.1 0 0 1-6.58-1.1Z" class="cls-10"/><path d="m613.73 383.9-6.52 18a19.17 19.17 0 0 1-13.08-18v-.14Z" class="cls-7"/><path d="M709.74 95.67a4.29 4.29 0 0 0-5.34 2.91c-16.88 57.33-50.22 117.86-70.69 156.25-8.2 15.39-17.8 5.89-35.57-12.35-30.71-31.55-62.68-33.91-87.68-4.08-21.86 26.09-24.55 31-39.23-36.4-5.55-25.49-19.55-42.94-34.06-42.4-15 .44-28.16 18.34-32.11 43.53-8.79 56.19-27.7 83.34-41.55 84.78-23.73 2.45-34.59-14.65-45.09-31.2-7-11.06-19.22-29.15-33.13-29.15-8.79 0-19.18 7.58-27.79 20.28-10.51 15.5-31.12 77.42-58.82 80.23a4.32 4.32 0 0 0 .43 8.61h.43c33.85-3.42 54.07-67.73 65.07-84 4.85-7.15 13.79-16.5 20.74-16.5 5.7.05 14.78 8.14 22.59 20.12 12.33 18.93 24.81 43.48 56.46 40.18 21.47-2.23 40.76-38.36 49.17-92 3.51-22.47 14.45-36.25 24.09-36.25 8.6 0 20.28 13.22 25.16 35.62 27.14 124.71 39.78 20.83 89.82 20.94 34.39 0 68.17 72.58 88.66 34.12 11.33-21.29 52.63-94.27 71.35-157.88a4.3 4.3 0 0 0-2.91-5.36Z" style="fill:#69a534"/><path d="M100.34 489.77c-5.31.58-103.82 5.1-59.16 36.06s186.07 7.65 186.76-13.14-38.41-32.69-127.6-22.92Z" class="cls-12"/><path d="M103 478.84a52.4 52.4 0 0 0 2.48 10.16c1.39 4 2.3 5.09 2 6.5-.56 2.36-4.46 5-19.92 5.62a47 47 0 0 0 2.25-6.71 49.71 49.71 0 0 0 0-23.65Z" class="cls-13"/><path d="M118.39 508.32a13.19 13.19 0 0 1 1.47 5.85c0 3.14-13.71 7.54-20.14 3.18 0 0-13 12.45-34.76 6a6.16 6.16 0 0 1-4.44-5.35 2.94 2.94 0 0 1 .61-2.31c1.79-1.87 57.26-7.37 57.26-7.37Z" class="cls-14"/><path d="M65 523.35c19.21 5.7 31.63-3.38 34.24-5.55a1 1 0 0 1 1.1-.09c6.24 3.52 18 0 19.41-3a11.37 11.37 0 0 1 .06 1.18c0 3.14-13.47 7.5-19.82 3.12 0 0-12.79 12.4-34.19 5.9a6.22 6.22 0 0 1-4-3.83 6.24 6.24 0 0 0 3.2 2.27Z" class="cls-15"/><path d="M118.07 511.37c-.64 1.5-2.28 2.19-4 2.73a39.54 39.54 0 0 1-13.34 1.61s-.58.21-6.74 4-26.3 4.58-31.56-1.11a4.49 4.49 0 0 1-.38-3.31 5 5 0 0 1 2.25-2.64c6.32-4 13.67-4.23 16.1-8.76a33.58 33.58 0 0 0 2.79-6 3.42 3.42 0 0 1 1.35-2.25 2.88 2.88 0 0 1 2-.21c3.58.68 5.7 3.14 9 3.66 1.84.29 3.28-.15 6.16-1a19.17 19.17 0 0 0 5.76-2.61c1.41-1 1.5-1.37 2.2-1.43 2.37-.21 4.54 4.08 5.68 6.33a35.82 35.82 0 0 1 2.2 6.35c.84 2.95.88 3.82.53 4.64Z" class="cls-16"/><path d="M73.75 515.51c1.46 3.87 12.63-.79 15.78-4.1s3.91-9.85 3.91-9.85l19-5.9a25 25 0 0 1 2.91 4.75 35.82 35.82 0 0 1 2.2 6.35c.86 2.92.9 3.79.55 4.61-.64 1.5-2.28 2.19-4 2.73a39.54 39.54 0 0 1-13.34 1.61s-.58.21-6.74 4-26.3 4.58-31.56-1.11a4.49 4.49 0 0 1-.38-3.31 5 5 0 0 1 2.25-2.64 26.83 26.83 0 0 1 3.78-2s4.18.98 5.64 4.86Z" class="cls-17"/><path d="M62.44 518.62a4.49 4.49 0 0 1-.38-3.31 5 5 0 0 1 2.25-2.64s-4.53 5.65 5.36 6.55 23.74-1.58 28.59-7.71c0 0 12.24 5.93 19.43-4.17.69 2.46.71 3.26.38 4-.64 1.5-2.28 2.19-4 2.73a39.54 39.54 0 0 1-13.34 1.61s-.58.21-6.74 4-26.29 4.63-31.55-1.06Z" class="cls-18"/><path d="M91.37 497.52s-1.74 4.57-11 6.39c.04 0 7.56 3.02 11-6.39Z" class="cls-19"/><path d="m79.47 503.32 4.07 3.23-.86 1.3-4.08-3.47a.69.69 0 0 1 .87-1.06Zm-2.78 2.09 4.07 3.22-.86 1.31-4.08-3.48a.67.67 0 0 1-.15-.84.68.68 0 0 1 1.02-.21Zm13.61-5.54a14.79 14.79 0 0 0 .94-2.42 12.94 12.94 0 0 0 4.28 1.71c1.84.29 3.28-.15 6.16-1a19.17 19.17 0 0 0 5.76-2.61c1.41-1 1.5-1.37 2.2-1.43 1.37-.12 2.67 1.26 3.75 2.89-3.03 2.21-13.9 9.35-23.09 2.86Z" class="cls-20"/><path d="M176.24 478.74a53 53 0 0 0 2.33 10.2c1.34 4 2.25 5.12 1.89 6.53-.59 2.35-4.52 4.92-20 5.39a48.54 48.54 0 0 0 2.33-6.68 49.75 49.75 0 0 0 .29-23.65Z" class="cls-13"/><path d="M191.27 508.4a13.18 13.18 0 0 1 1.39 5.87c-.07 3.13-13.78 7.38-20.17 2.94 0 0-13.18 12.31-34.83 5.62a6.17 6.17 0 0 1-4.37-5.4 2.89 2.89 0 0 1 .64-2.3c1.8-1.85 57.34-6.73 57.34-6.73Z" class="cls-14"/><path d="M137.66 522.83c19.16 5.92 31.68-3 34.31-5.17a1 1 0 0 1 1.1-.08c6.2 3.59 18 .19 19.44-2.75a11.59 11.59 0 0 1 .05 1.19c-.07 3.13-13.55 7.34-19.85 2.89 0 0-12.94 12.26-34.26 5.51a6.22 6.22 0 0 1-4-3.87 6.33 6.33 0 0 0 3.21 2.28Z" class="cls-15"/><path d="M190.91 511.45c-.65 1.49-2.31 2.16-4 2.68a39.67 39.67 0 0 1-13.36 1.46s-.58.21-6.78 3.94-26.35 4.29-31.54-1.46a4.48 4.48 0 0 1-.35-3.32 5 5 0 0 1 2.28-2.61c6.36-4 13.72-4.07 16.2-8.58a35.26 35.26 0 0 0 2.86-5.91 3.35 3.35 0 0 1 1.37-2.24 2.85 2.85 0 0 1 2-.19c3.57.73 5.67 3.21 8.94 3.76 1.85.31 3.29-.11 6.18-1a19.25 19.25 0 0 0 5.79-2.54c1.42-1 1.52-1.35 2.21-1.41 2.37-.18 4.5 4.13 5.61 6.39a35.7 35.7 0 0 1 2.13 6.38c.78 2.96.82 3.82.46 4.65Z" class="cls-16"/><path d="M146.55 515.08c1.42 3.89 12.63-.64 15.83-3.92s4-9.8 4-9.8l19-5.69a24.74 24.74 0 0 1 2.85 4.78 35.7 35.7 0 0 1 2.13 6.38c.82 2.93.86 3.79.5 4.62-.65 1.49-2.31 2.16-4 2.68a39.67 39.67 0 0 1-13.36 1.46s-.58.21-6.78 3.94-26.35 4.29-31.54-1.46a4.48 4.48 0 0 1-.35-3.32 5 5 0 0 1 2.28-2.61 27.81 27.81 0 0 1 3.8-1.94s4.22.99 5.64 4.88Z" class="cls-17"/><path d="M135.21 518.07a4.48 4.48 0 0 1-.35-3.32 5 5 0 0 1 2.28-2.61s-4.59 5.59 5.28 6.61 23.76-1.31 28.68-7.39c0 0 12.17 6.07 19.47-3.95.67 2.47.67 3.27.34 4-.65 1.49-2.31 2.16-4 2.68a39.67 39.67 0 0 1-13.36 1.46s-.58.21-6.78 3.94-26.37 4.33-31.56-1.42Z" class="cls-18"/><path d="M164.37 497.3s-1.8 4.54-11 6.26c-.03 0 7.45 3.11 11-6.26Z" class="cls-19"/><path d="m152.4 503 4 3.27-.88 1.29-4-3.51a.68.68 0 0 1 .87-1.05Zm-2.8 2 4 3.27-.88 1.29-4-3.52a.69.69 0 0 1-.14-.85.68.68 0 0 1 1.02-.19Zm13.67-5.37a14.7 14.7 0 0 0 1-2.41 13.11 13.11 0 0 0 4.26 1.76c1.85.31 3.29-.11 6.18-1a19.25 19.25 0 0 0 5.79-2.54c1.42-1 1.52-1.35 2.21-1.41 1.37-.1 2.66 1.29 3.72 2.93-3.09 2.25-14.04 9.26-23.16 2.67Z" class="cls-20"/><path d="M107.27 132.31c.52 1.86-2.2 4.31-2 7.25.1 1.45 3.21 8-2.84 14.88a73.79 73.79 0 0 1-19.13 15.49c-34.07 17.63-44.6 16.27-49 15.12a8 8 0 0 1-4.66-2.8c-4.73-6.35 4.1-20.19 6.14-23.38a39.84 39.84 0 0 1 5.53-7A30.52 30.52 0 0 1 52 144.48a24.57 24.57 0 0 1 12.17-1.84 23.47 23.47 0 0 1 9.54 3.36c1.15-2.91 4.48-10.11 12.17-14 9.12-4.7 20.55-2.73 21.39.31Z" class="cls-13"/><path d="M100.27 127.52s-18.6-.89-29.51 10.51c0 0-12.91 1.72-22.17 8.05 0 0 8.57 14.38 9.29 35.34l21.34-7.3s23-27.06 24.12-27.06-3.07-19.54-3.07-19.54Z" class="cls-21"/><path d="m79.22 174.12 3.35-3.92-6.52-14.26-4.92 15-8.48-18.26c3.69 9.3 0 21.31 0 21.31-3.65-24.34-14.06-27.91-14.06-27.91s8.57 14.38 9.29 35.34Z" class="cls-22"/><path d="M52.16 176.05A337.17 337.17 0 0 1 24.8 99.21l-11.65 2s6.77 49.21 8.63 59.14c1.27 6.81 4.4 14.38 6.24 18.48a11.84 11.84 0 0 0 4 4.83l2.36 1.64Z" class="cls-13"/><path d="m45.43 93.84.09-11.19a5 5 0 0 0-2.46-4.34l-9.65-5.67a5 5 0 0 0-5 0l-9.74 5.52a5 5 0 0 0-2.53 4.29l-.09 11.2a5 5 0 0 0 2.46 4.33l9.65 5.68a5 5 0 0 0 5 0l9.74-5.52a5 5 0 0 0 2.53-4.3Z" class="cls-23"/><path d="m44.27 94.48.09-11.19A5 5 0 0 0 41.91 79l-9.65-5.68a5 5 0 0 0-5 0l-9.74 5.52A5 5 0 0 0 15 83.05l-.09 11.2a5 5 0 0 0 2.46 4.33l9.63 5.68a5 5 0 0 0 5 0l9.74-5.52a5 5 0 0 0 2.53-4.26Z" class="cls-24"/><path d="M17.18 106.84c-1-1.94-3.59-7.63-1.82-14.2C17.31 85.4 24.12 78.77 28 80.06s5.21 11 2.31 18a18.17 18.17 0 0 1-3.44 5.33Z" class="cls-13"/><path d="M28.1 85.75a3.3 3.3 0 1 0 4.52-1.17 3.3 3.3 0 0 0-4.52 1.17Z" class="cls-25"/><path d="M30.21 84.29 13.38 89.5l1.7 6.41 16.15-5.18-1.02-6.44z" class="cls-25"/><path d="M28 80.06s7.9 4.39 8.7 6.24-3.58 9-4.23 9-2.28.68-1.85-1.52 2.12-5 2-5.41-5.27-3.46-5.62-4 1-4.31 1-4.31Z" class="cls-13"/><path d="M28 80.06s7.9 4.39 8.7 6.24-3.58 9-4.23 9-2.28.68-1.85-1.52 2.12-5 2-5.41-5.27-3.46-5.62-4 1-4.31 1-4.31Z" class="cls-13"/><path d="M35 87.08c.93 1.23-.36 4.23-1.85 6.53-.94 1.44-.72 1.64-.43 1.59-.1.08-.17.13-.23.13a4.66 4.66 0 0 1-1.41 0l1.71-3.21-.9-1.83a6.7 6.7 0 0 0 .76-1.93 14.51 14.51 0 0 0-2.66-1.92L28 82.61s6 3.25 7 4.47Z" class="cls-26"/><path d="M25.88 81.37s7.9 4.39 8.7 6.23-3.59 9.05-4.23 9-1.81.37-1.85-1.52c-.06-2.25 2.12-5 2-5.41s-5.27-3.46-5.63-4 1.01-4.3 1.01-4.3Z" class="cls-13"/><path d="m25.44 86.2.56-2.37s3.87 1.22 5.71 3.36-1.1 5.64-2.21 7.69c-.81 1.49 0 1.74.51 1.77-.64 0-1.48 0-1.51-1.54-.06-2.25 2.12-5 2-5.41s-3.64-2.49-5.06-3.5Z" class="cls-26"/><path d="M22.57 81.83s7.89 4.41 8.75 6.16-3.09 8.21-3.72 8.16-2.2.54-1.87-1.49 1.84-4.52 1.72-4.91-5.29-3.44-5.66-3.91.78-4.01.78-4.01Z" class="cls-13"/><path d="m31.55 98 .09-11.44a5.09 5.09 0 0 0-2.51-4.43l-9.86-5.8a5.11 5.11 0 0 0-5.09 0L4.23 81.9a5.09 5.09 0 0 0-2.58 4.39l-.09 11.44a5.1 5.1 0 0 0 2.5 4.43l9.87 5.8A5.09 5.09 0 0 0 19 108l10-5.64A5.11 5.11 0 0 0 31.55 98Z" class="cls-25"/><path d="m30 98.87.09-11.44A5.08 5.08 0 0 0 27.58 83l-9.87-5.8a5.07 5.07 0 0 0-5.08 0l-10 5.64a5.11 5.11 0 0 0-2.54 4.35L0 98.63a5.08 5.08 0 0 0 2.51 4.42l9.86 5.8a5.09 5.09 0 0 0 5.09.05l10-5.64A5.09 5.09 0 0 0 30 98.87Zm50.27 158.24s-.47 6.47-1.07 15.11c-1.55 22.25 24.92 33.53 31.86 37.13 6.34 3.28 31.51 17.14 34.73 5.84 13.12-46.16-10.23-60.85-10.23-60.85Z" class="cls-24"/><path d="M119.14 131.45c2.44.84 8.91 1.86 14.55 3.72s6.91 3.68 8.91 6.25c3.18 4.09 4.26 7.45 4.16 9.88-1.45 34.5-11.83 78.25-11.2 103a107 107 0 0 1-32.17 5c-9 0-16.87-.4-23.12-1.78-3.75-30.16-11.74-54.34-12.49-74.14-.55-14.32-3.09-27.79 5.93-37.49 6.6-7.09 29-16.71 30.3-15.15 0 .05 0 .08.13.29a10.41 10.41 0 0 0 2.55 3.61c1.44 1.42 4.38 2.69 12.45-3.19Z" class="cls-21"/><path d="M137 162.85s-.79 75.76-6.57 83.79-50.16 10.56-50.16 10.56a1.27 1.27 0 0 0 0 .39c6.25 1.38 14.09 1.79 23.12 1.78a107 107 0 0 0 32.17-5c-.45-17.94 4.85-45.81 8.37-72.92Z" class="cls-22"/><circle cx="105.25" cy="83.87" r="23.52" class="cls-13" transform="rotate(-69.98 105.254 83.868)"/><path d="M121.76 106a38 38 0 0 0-2.6 10.89c-.59 6.94 2.16 12.51 3.3 15.8-1.67 1.91-8.76 7-16.37 7 0 0-5.21-2.87-6.4-3.87l-.27-13.79s-3.23-49.4 22.34-16.03Z" class="cls-13"/><path d="m120.25 109.74-11.71-5.56-9.09 7.42a92.08 92.08 0 0 0 0 10.49l.15 7.56c11.81 1.64 20.65-19.91 20.65-19.91Z" class="cls-26"/><path d="M128.19 89.35s-6.3 31.68-27.34 36.18a14.08 14.08 0 0 1-15.18-6.77C82 112.33 79.11 100.31 82.38 78c0 0 25.62-13.49 45.81 11.35Z" class="cls-13"/><path d="M128.19 89.35s-6.3 31.68-27.34 36.18a14.08 14.08 0 0 1-15.18-6.77C82 112.33 79.11 100.31 82.38 78c0 0 25.62-13.49 45.81 11.35Z" class="cls-13"/><path d="M100.85 125.53c21-4.5 27.34-36.18 27.34-36.18a1.46 1.46 0 0 1-.16-.19c-2.51 2.35-5.11 6.55-7.69 13.41-12.41 33.05-34.67 16.19-34.67 16.19a14.08 14.08 0 0 0 15.18 6.77Z" class="cls-26"/><path d="M83.74 74.33s4.16-3.23 6.07-1.92 8.11 1.47 13.53-.31c1-.32 15.09 3.33 17 11.77 1.07 4.73-2.17 9 .2 11.33a5.07 5.07 0 0 0 3.93 1q-2.11 6.75-4.22 13.49s10.24-15.88 12.34-20.58S123 52.09 98.06 61.47a18.41 18.41 0 0 0-14.32 12.86Z" class="cls-27"/><path d="M120.34 100.32c1-4.91 4.19-7.72 6.45-7.34s4.19 4.19 3.52 7.31c-.61 2.84-3.53 5.93-6.36 5.17-1.89-.46-3.33-2.63-3.61-5.14Z" class="cls-13"/><path d="M124 98.11s.6-2.65 3.52-1.31-6.61 11.43-3.52 1.31Z" class="cls-26"/><path d="M91.61 93.27c-.29 1.79-1.56 3.07-2.84 2.86s-2.08-1.82-1.77-3.61 1.56-3.08 2.84-2.87 2.06 1.82 1.77 3.62Zm18.5.22c-.13 1.81-1.29 3.2-2.58 3.11-3.08-.23-2.62-6.78.48-6.55 1.29.09 2.23 1.63 2.1 3.44Z" style="fill:#380e13"/><path d="M98 89.23c1.41 2.48 2.49 8.14-1.07 11.69-.61.61-2.07 1.71-2 2.6 0 1.43 5.3 2 6.79 2.2-6.22.75-10.29-1.17-6.41-4.9C96.54 99.53 99.83 97 98 89.23Z" class="cls-29"/><path d="M107.48 82.38c1.19-.14 4.25-.06 8.31 3.42.58.49.71 1.19.29 1.52l-.24.17a1.23 1.23 0 0 1-1.38-.13 20.16 20.16 0 0 0-6.31-2.92 1.58 1.58 0 0 1-1.29-1.51.67.67 0 0 1 .62-.55Zm-23.31.45c1-.7 3.68-2.1 8.91-1.15.74.13 1.19.65 1 1.12l-.12.26a1.28 1.28 0 0 1-1.27.56 20.91 20.91 0 0 0-6.93.6 1.57 1.57 0 0 1-1.85-.64.62.62 0 0 1 .26-.75Z" class="cls-30"/><path d="M94.62 109.81a9 9 0 0 0 9.55-.78 1 1 0 0 1 1.51 1.26c-1.33 3.1-3.67 6.85-7 6.06a7.82 7.82 0 0 1-5.48-5.26 1 1 0 0 1 1.42-1.28Z" style="fill:#f0f1f2"/><path d="M121.22 103.12a4.63 4.63 0 0 0 2.73 2.34c2.83.76 5.75-2.33 6.36-5.17a7.41 7.41 0 0 0-.58-4.53c-.41 10.82-6.26 8.62-8.51 7.36Z" class="cls-26"/><path d="M134.58 141.53a4.41 4.41 0 0 1 7.32-1.53c9.41 9.76 26.09 27.54 36.65 41.84 2.59 3.51 6.67 9.32 4.79 14.56-1.37 3.8-5.61 6.58-9.65 6.86-3.67.25-6.71-1.54-17.07-12.14-9.11-9.31-14.4-15.46-22.89-24.25-2.57-2.65-4.7-4.81-6.11-6.21 2.73-6.44 4.64-12.76 6.96-19.13Z" class="cls-13"/><path d="M123 132.48s16.77-.32 24.85 12.39c0 0 30.91 19.4 35.2 44.54L163 195s-16.83-11.25-23.57-26.63S123 132.48 123 132.48Zm26.17 107.3a46.37 46.37 0 0 1-9.28 10l-12.89-.65s-5.69-.49-6.94.44a56.43 56.43 0 0 0-6.25 6c-.31.62.56 3.17 4.64 0l2.69-2s4.18-1.33 4.88-.4-10.92 5.72-11.24 7.1.61 2.23 2.16 2.22 10.62-6.54 12.09-6.2-9.84 6.73-10.54 7.35-.29 3.72 2.18 2.62 10.12-6.16 10.12-6.16.93.46.39 1.16-8 6.08-7.29 7.47 6.7-2.29 9.63-4.7c7.25.65 9.74-.14 11.76-2.65a5.66 5.66 0 0 0 .5-.74s.11-.18.48-.71a29.38 29.38 0 0 1 3.61-4c1.26-1.13 4-4.12 10.33-11.68Z" class="cls-13"/><path d="M183.64 195.32s4 20.9-38.33 66.06a59.1 59.1 0 0 1-3-13.69s13.07-14.63 20.61-49.73c6.67-31.02 20.72-2.64 20.72-2.64Z" class="cls-13"/><path d="M106 296.51c5.12 15.6 7.77 53.6 36.15 100.4 0 0 17.34 11.46 17.44.91.32-33.44 2.26-48.87-9.31-98-1.42-6 1-17.78-3.19-16.49Z" class="cls-24"/><path d="M79.2 272.22s-9.75 80.6 3.63 120.12c0 0 6.06 12 19.62.46 0 0 17.89-45.95 8.61-89.22-4.83-22.58-31.86-31.36-31.86-31.36Z" class="cls-24"/><g class="cls-32"><path d="M120.09 249.57a56.43 56.43 0 0 0-6.25 6c-.31.62.56 3.17 4.64 0l2.69-2s4.18-1.33 4.88-.4-10.92 5.72-11.24 7.1.61 2.23 2.16 2.22 10.62-6.54 12.09-6.2-9.84 6.73-10.54 7.35-.29 3.72 2.18 2.62 10.12-6.16 10.12-6.16.93.46.39 1.16-8 6.08-7.29 7.47 6.7-2.29 9.63-4.7l3.46-3.6c.14-2.8-1.53-3.46-1.53-3.46-.12-2.93-1.88-3.62-1.88-3.62-.32-2.42-1.92-2.43-1.92-2.43a2.62 2.62 0 0 0-.55-1.59l-4.1-.2s-5.69-.49-6.94.44Z" class="cls-33"/></g><path d="M122.46 133c-5.57 4.76-12.72 11.27-18.1 18.42a3.21 3.21 0 0 1-5.77-1.76v-.68a58.4 58.4 0 0 1 1.61-14.79c1.16-1.29 2.86-.9 5.27-2 3.53-1.58 9.69-2.39 16.99.81Z" class="cls-13"/><path d="M89.81 72.41c0 .08.35.2.51.07 1-.72-6.21-7.83-4.65-12.71 1.35-4.18 8.69-6.11 13.92-6.91a34 34 0 0 1 15.89 1.31 30 30 0 0 1 10.65 6.46c10.73 10.08 7.87 26.78 5.87 29.7a.73.73 0 0 1-.43.35c-2.71.67-9.83-20.47-9.83-20.47C97.9 71.35 89.8 72 89.81 72.41Z" class="cls-27"/><path d="M120.54 95.2a3.59 3.59 0 0 0 1.5.85 8.83 8.83 0 0 1 .86-1.15c-.49-1.8.44-5.47.46-12.07 0-9.41-11.79-14.69-16.21-14.69-3.9 0-3.9 0-11.58 1.68s-9.9-10-9.9-10c-.75 2.34.51 5.18 1.91 7.6a18.84 18.84 0 0 0-3.84 7s4.16-3.23 6.07-1.92c0 0 .08.08.17.11 2.09 1.21 8.09 1.31 13.36-.42 1-.32 15.09 3.33 17 11.77 1.07 4.64-2.17 8.91.2 11.24Z" class="cls-26"/><path d="M86 61.67a13.43 13.43 0 0 0-5.77 6.64c-.43 1.15-2.06 5.49.18 8.21a5.07 5.07 0 0 0 2 1.44s2.23-5.65 5.46-5.75a.75.75 0 0 0 .57-.18c1.27-.88-.44-5.68-2.44-10.36Z" class="cls-27"/><path d="M93.67 264.59A1.7 1.7 0 1 1 92 262.9a1.7 1.7 0 0 1 1.67 1.69Zm13.73 0a1.7 1.7 0 1 1-1.7-1.69 1.7 1.7 0 0 1 1.7 1.69Z" style="fill:#767275"/><path d="M92 303a.7.7 0 0 1-.44-.16 1.11 1.11 0 0 1-.23-1.36s2.4-4.95-.12-19.92c-2.59-15.41-.2-17.58.59-17.88a.79.79 0 0 1 1 .65 1.07 1.07 0 0 1-.42 1.18c-.16.18-1.82 2.42.4 15.66 2.69 15.95 0 21.17-.11 21.39a.79.79 0 0 1-.67.44Zm13.7-6.91a.78.78 0 0 1-.69-.63c-.06-.21-1.49-5.3 0-13.61 1.38-7.82 0-17 0-17.06a1 1 0 0 1 .58-1.16c.4-.11.79.23.87.77s1.44 9.67 0 17.9c-1.35 7.67 0 12.41 0 12.45A1.1 1.1 0 0 1 106 296a.54.54 0 0 1-.3.09Z" style="fill:#c8c7c8"/><path d="M147.81 144.14c-12.78-16.64-23.2-14.75-27.07-15.44.38 1 1.24 2.69 1.53 3.5l.69.28c-1.13 1-2.36 2-3.66 3.18l4.55 25.91L153 187.66c2.49-5.93 3.73-8.74 5.19-12.57 3.18-8.35 5.22-15 5.9-17.45-4.97-4.32-7.17-6.58-16.28-13.5Z" class="cls-21"/><path d="M153.42 379.21s1 .9 2.59 2.44c4.85 4.78 13 16.27 13.64 25.86.88 12.87 9.24 59.71 10.79 83.14a13.58 13.58 0 0 1-7.6 6.69 13.8 13.8 0 0 1-11.12-1.17c-2.3-12.21-4.89-24.62-7.56-37.26-5.42-25.75-17.24-70.43-17.24-70.43Zm-54.13-.54s.86 1.06 2.15 2.83c4 5.51 10.15 18.18 9.23 27.75-1.23 12.83-.63 60.41-2.93 83.78a13.58 13.58 0 0 1-8.59 5.36 13.79 13.79 0 0 1-10.78-3c-.27-12.42-.81-25.08-1.37-38-1.14-26.3-5.5-72.3-5.5-72.3Z" class="cls-24"/><path d="M169.81 486.27c-.66-10.32-20.41-83.65-27.5-102.69s-31.25-80-31.25-80a31.35 31.35 0 0 1-9.7.68c2.92 1.7 5.6 3 7.62 4 3.88 17.72 9.47 46.23 28.21 80l-.27.15s11.82 44.68 17.24 70.43c2.67 12.64 5.26 25 7.56 37.26a13.8 13.8 0 0 0 11.12 1.17 13.58 13.58 0 0 0 7.6-6.69s-9.97 6.02-10.63-4.31Zm-87.92-96.89c1.1 12 4.18 46.58 5.11 68.05.56 12.91 1.1 25.57 1.37 38a13.79 13.79 0 0 0 10.78 3 13.58 13.58 0 0 0 8.59-5.36q.18-1.78.33-3.75c-1.38 1.13-4.35 5.4-9.52-1.47-5.69-7.55 2-84.46-7.81-106-11.44-25.26-10.09-83.67-10.47-124.26v-.39c-.06.83-.51 7-1.07 15 0 .03-9.28 76.74 2.69 117.18Z" class="cls-36"/><path d="M182.52 187.53s6.91 5.27.81 11.54-.81-11.54-.81-11.54Z" class="cls-13"/><path d="M826.52 480.89c4.68.63 67.79 16.07 29.62 36.57s-56.69 15.16-89 29.41-72.27-5.28-75.14-24.51 59-51.76 134.52-41.47Z" class="cls-12"/><path d="M762 75.69S750.72 57 736.34 71.42s-13.87 80.94 0 108.79l10.59-3.14s-14.23-24.41-10.62-77.36 44.84 10 44.84 10Z" class="cls-37"/><path d="M774.4 148.07c-3.58.65-4-4.52-6-.67a14.28 14.28 0 0 0-1.12 10.86 70.46 70.46 0 0 0 11.35 22.88c9.26 12.73 25.21 29.76 35.43 38.51.56.48 4.7-.34 7.14-3.22 3.26-3.85.31-11.27-9.53-31.11-9.61-19.32-24.75-39.51-37.27-37.25Z" class="cls-13"/><path d="M808.15 178.66c-4.33 3.58-8.66 3.27-13 6.85l-34.89-24.83.93-18.75h6.91c3.49-.75 10.83-1.75 17.79 2 2 1.08 5.22 3.25 11.12 12.43a116.91 116.91 0 0 1 11.14 22.3Z" style="fill:#23aade"/><path d="M804 199.1c28-10.19 60-27 75-37 2.41 3.2 3.78 4.35 6.19 7.55-45.38 37.55-51.85 42.91-65.32 48.42a12 12 0 0 1-6.35.77Z" class="cls-13"/><path d="m870.17 143.82 4.75-8a4.12 4.12 0 0 1 3.6-2l9.28.12a4.1 4.1 0 0 1 3.55 2.11l4.54 8.1a4.14 4.14 0 0 1 0 4.13l-4.75 8a4.16 4.16 0 0 1-3.6 2l-9.29-.12a4.15 4.15 0 0 1-3.55-2.12l-4.53-8.1a4.1 4.1 0 0 1 0-4.12Z" class="cls-23"/><path d="m870.71 144.78 4.75-8a4.13 4.13 0 0 1 3.6-2l9.29.12a4.11 4.11 0 0 1 3.54 2.11l4.54 8.1a4.14 4.14 0 0 1 0 4.13l-4.75 8a4.11 4.11 0 0 1-3.6 2l-9.28-.12a4.14 4.14 0 0 1-3.6-2.12l-4.54-8.11a4.12 4.12 0 0 1 .05-4.11Z" class="cls-24"/><path d="M885.18 169.61a19.16 19.16 0 0 0 8.48-10.67c2-6.86-.29-15.62-4.06-16.46s-9.68 6.41-10.77 13.54a17.49 17.49 0 0 0 .16 6Z" class="cls-13"/><path d="M886.69 147.05a3.15 3.15 0 1 1-3.1-3.19 3.15 3.15 0 0 1 3.1 3.19Z" class="cls-25"/><path d="m885.69 144.82 11.14 12.55-4.55 4.38-10.6-12.19 4.01-4.74z" class="cls-25"/><path d="M889.6 142.48s-8.61-.32-10.17.79-1.54 9.13-1 9.44 1.52 1.68 2.26-.33.74-5.11 1-5.4 6-.22 6.54-.45 1.37-4.05 1.37-4.05Z" class="cls-13"/><path d="M889.6 142.48s-8.61-.32-10.17.79-1.54 9.13-1 9.44 1.52 1.68 2.26-.33.74-5.11 1-5.4 6-.22 6.54-.45 1.37-4.05 1.37-4.05Z" class="cls-13"/><path d="M880.44 144.75c-1.35.55-1.79 3.62-1.7 6.24 0 1.63-.22 1.69-.44 1.5a.47.47 0 0 0 .12.22c.28.16.7.63 1.14.73l.18-3.46 1.64-1a7.13 7.13 0 0 1 .33-2 14.38 14.38 0 0 1 3.12-.24l3.47-2.21s-6.5-.32-7.86.22Z" class="cls-26"/><path d="M890.66 144.57s-8.6-.32-10.16.79-1.55 9.14-1 9.44 1.3 1.2 2.27-.32c1.15-1.81.73-5.11 1-5.4s6-.22 6.54-.45 1.35-4.06 1.35-4.06Z" class="cls-13"/><path d="m888.63 148.72.71-2.2s-3.75-.91-6.31-.08-1.88 5.13-2 7.35c-.08 1.61-.86 1.42-1.29 1.19.51.35 1.18.78 2-.5 1.15-1.81.73-5.11 1-5.4s4.26-.24 5.89-.36Z" class="cls-26"/><path d="M893.12 146.59s-8.6-.3-10.16.69-1.53 8.22-1 8.49 1.53 1.52 2.26-.29.73-4.59 1-4.85 6-.19 6.54-.4 1.36-3.64 1.36-3.64Z" class="cls-13"/><path d="m880.14 155.8 4.74-8a4.14 4.14 0 0 1 3.61-2l9.28.12a4.14 4.14 0 0 1 3.55 2.11l4.54 8.1a4.12 4.12 0 0 1-.06 4.13l-4.74 8a4.13 4.13 0 0 1-3.6 2l-9.29-.12a4.13 4.13 0 0 1-3.55-2.11l-4.54-8.1a4.12 4.12 0 0 1 .06-4.13Z" class="cls-25"/><path d="m880.84 157.08 4.74-8a4.14 4.14 0 0 1 3.61-2l9.28.12a4.12 4.12 0 0 1 3.55 2.11l4.54 8.1a4.14 4.14 0 0 1 0 4.13l-4.75 8a4.12 4.12 0 0 1-3.6 2l-9.29-.12a4.13 4.13 0 0 1-3.55-2.11l-4.53-8.1a4.1 4.1 0 0 1 0-4.13Z" class="cls-24"/><path d="M802.25 277a271.4 271.4 0 0 1 .17 48.94c-2.15 21.74-4.32 15.86-6.3 36.52-1.07 11.21-1.21 21.12-8.12 25.35-.91.55-6.8 4.16-11 2a5.51 5.51 0 0 1-2.18-2c-1.81-22.2-8.71-44.45-8.55-69.37q.12-18.11 1-35.21c9.87-1.61 25.16-4.7 34.98-6.23Z" class="cls-39"/><path d="m796.14 243.1-44.35.44a28.81 28.81 0 0 1-2.78 8.34 28.41 28.41 0 0 1-4 5.83v-.15s-14.87 9-10 38.91c.18 1.06.37 2.13.58 3.21a51 51 0 0 1 .24 13.87c-.5 3.73 3.54 6.2 8.31 7.81 3 3.13 6 3.21 8.68 2.06 3.08.5 5.33.68 5.33.68l-.9-3.84a26.52 26.52 0 0 0 3.6-4.48l-3.54-13a222.54 222.54 0 0 0 36.16-15.29 48 48 0 0 0 6.77-4.35c1.67-1.31 2.07-1.36 2.44-1.73-.56-14.78-6.54-38.31-6.54-38.31Z" class="cls-39"/><path d="M777.59 475.12a52.9 52.9 0 0 1-1.31 10.45c-.95 4.15-1.74 5.35-1.24 6.73.83 2.29 5 4.47 20.55 3.4a46.89 46.89 0 0 1-3-6.46 50.17 50.17 0 0 1-2.66-23.66Z" class="cls-13"/><path d="M765.5 506.32a13.33 13.33 0 0 0-.81 6c.39 3.13 14.55 6 20.5.94 0 0 14.42 11 35.44 2.15a6.19 6.19 0 0 0 3.84-5.84 2.9 2.9 0 0 0-.86-2.24c-2-1.66-58.11-1.01-58.11-1.01Z" class="cls-40"/><path d="M785.75 513.67a1 1 0 0 0-1.11 0c-5.85 4.21-18 2-19.74-.82a9.61 9.61 0 0 0 .07 1.19c.38 3.13 14.31 6 20.17.92 0 0 14.18 11 34.86 2.1a6.23 6.23 0 0 0 3.62-4.27c-3.17 5.38-24.11 9.97-37.87.88Z" class="cls-15"/><path d="M766.16 509.34c2.05 3.63 13.55 3 17.82 2.42 0 0 .6.15 7.19 3.27 8.11 3.85 35.13.53 31.46-8a5 5 0 0 0-2.54-2.4c-6.77-3.33-14.14-2.71-17.08-7a34.22 34.22 0 0 1-3.45-5.64A3.39 3.39 0 0 0 798 490a2.88 2.88 0 0 0-2 0c-3.51 1.08-5.36 3.78-8.59 4.66-1.81.5-3.3.21-6.28-.35a19.54 19.54 0 0 1-6.05-2c-1.52-.82-1.66-1.21-2.36-1.19-2.39.05-4.09 4.58-5 7a36.15 36.15 0 0 0-1.5 6.6c-.55 2.97-.5 3.83-.06 4.62Z" class="cls-41"/><path d="M791.08 503.23a16.34 16.34 0 0 1-9.11 2.2c-4.84-.47-7.21-2.91-9.89-2.34s-6.25 4.81-6.25 4.81c-.2 1.23-.09 1.7.28 2.14a6 6 0 0 0 3.46 1.51 6.37 6.37 0 0 1 3.83-4.22c16.19 3.75 18.46-.79 18.46-.79 11.71 1.39 22.21 8.51 22.21 8.51l3.15-.63c-6.92-6.71-26.14-11.19-26.14-11.19Z" class="cls-42"/><path d="M822.63 507.07a5 5 0 0 0-2.54-2.4c9 8.95-25.24 11.57-34.1 2.61 0 0-11.57 7.29-19.89-2-.42 2.54-.35 3.34.06 4.07 2.05 3.63 13.55 3 17.82 2.42 0 0 .6.15 7.19 3.27 8.11 3.84 35.13.52 31.46-7.97Z" class="cls-18"/><path d="M792.68 492.52s-.07 4.91 7.88 10c0 .04-8.16.08-7.88-10Z" class="cls-19"/><path d="m803.89 497-3.72 3.68 1 1.21 3.69-3.93a.69.69 0 0 0-1-1Zm3.01 1.78-3.72 3.68 1 1.21 3.69-3.93a.67.67 0 0 0 .06-.86.68.68 0 0 0-1.03-.1Zm4.17 1.68-3.71 3.68 1 1.2 3.69-3.92a.69.69 0 0 0-1-1Zm-18.4-5.71a14.77 14.77 0 0 1-1.21-2.32 12.9 12.9 0 0 1-4.09 2.19c-1.81.5-3.3.21-6.28-.35a19.54 19.54 0 0 1-6.05-2c-1.52-.82-1.66-1.21-2.36-1.19-1.38 0-2.53 1.56-3.43 3.3 3.28 1.95 14.95 7.88 23.42.37Z" class="cls-20"/><path d="M776.22 366.59c-6.7 10.09-9.19 22.14-9.69 34.29-1.16 28.35 11.75 55.27 8.49 87.81a11.79 11.79 0 0 0 8.09 2.85 15.28 15.28 0 0 0 9.51-3.33c-.18-11.89-1.21-23.94-1.16-36.15.1-27.52 2.24-54.27 3.46-80.21Z" class="cls-39"/><path d="M788 488.46c-2.33-1.17-2.79-4.59-3-5.9-7-53.29-15.86-65.28-11.61-89.53a52.39 52.39 0 0 1 5.82-16.64 5.78 5.78 0 0 0 .58-4.29c-1.38-5.37-4.55-18.84-4.55-28.53 0-10.07-1.33-25.77.71-43.95 2.8-.2 9.92-1.11 12.61-5.09 0 0-10.15 3.23-13 2.48a.43.43 0 0 0-.53.33c-.82 3.51-5.59 24.85-8.18 34.62 1.19 14 4 27.28 6 40.29-2.25 4.58-5.79 13.86-6.4 28.63-1.16 28.35 11.75 55.27 8.49 87.81a11.79 11.79 0 0 0 8.09 2.85 15.28 15.28 0 0 0 9.51-3.33s-2.37 1.33-4.54.25Z" class="cls-36"/><path d="M775.32 291.83a265.13 265.13 0 0 1-6.75 48.35c-5 21.26-6.39 15.15-11.09 35.35-2.55 11-4 20.78-11.42 24.05-1 .43-7.29 3.23-11.11.52a5.55 5.55 0 0 1-1.9-2.26c1.16-22.24-2.73-45.21.74-69.89 1.68-12 3.11-24 5.18-35.25 9.95-.25 26.41-.62 36.35-.87Z" class="cls-39"/><path d="M720.73 510.88a26.41 26.41 0 0 0 3.28-6.61c1.74-5.31 11.38-4.66 18.78 2.64 1.88 3.83 3.72 7.79 5.6 11.84 2.84 6.09 5.77 12.54 6.1 14 4.16 9.12-8.8 16.21-22.31 6.46-4.7-3.39-4.29-6.78-10.94-21.86-.76-1.76-.51-6.47-.51-6.47Z" class="cls-41"/><path d="M720.73 510.88s5-5.72 6.25-4.68-.38 9.61 4.44 12.8c0 0 2.68 11 2.53 18.46l-1.7-1.26s-1.78-14.79-3.25-17.2c-1.21-2-3.24-4.63-3.24-8.95a.87.87 0 0 0-1.51-.57l-3.56 4Z" class="cls-42"/><path d="M739 497.61a16.72 16.72 0 0 1 3.25 1.56 39.38 39.38 0 0 0 .18 5.33 76 76 0 0 0 4.57 17c.26.93.67 2.43.92 3.36.8 5.9-2.69 6.57-8 2-6-5.07-6.6-24-6.6-24Z" class="cls-19"/><path d="M730.37 534.15c3.6 5 10.71 6.6 16 6.22 4.15-.3 7.2-2.81 8.82-3.79a7.12 7.12 0 0 1 .37 3.32c-.83 3.49-8.07 5.26-13.63 4.44a20.27 20.27 0 0 1-10.25-5.08c-6.31-5.36-5.6-8.34-8.15-12.84-2-3.6-6.22-5.79-2.76-15.54a16.55 16.55 0 0 0 1.5 8.41c1 2 1.86 2.7 3.32 4.75 3.56 5.05 2.46 6.96 4.78 10.11Z" class="cls-40"/><path d="m720.73 510.88-.05.11v.43c.03-.19.03-.37.05-.54Z" style="fill:#262222"/><path d="M755.52 538.33c-.83 3.49-8.07 5.26-13.63 4.43a20.19 20.19 0 0 1-10.25-5.08c-6.31-5.35-5.6-8.34-8.15-12.83-1.48-2.62-2.23-3-3-4.44a9.19 9.19 0 0 1-1-3.79c-.31 5.27 2.11 6.4 4 9.8 2.53 4.46 1.83 7.47 8.15 12.84a20.27 20.27 0 0 0 10.25 5.08c5.56.82 12.8-1 13.63-4.44a5.26 5.26 0 0 0 0-1.65Z" class="cls-15"/><path d="M727.17 500.05 726 483.62l15.07-1.06-.69 18.56c-2.51 1.82-7.19 3.64-13.21-1.07Z" style="fill:#ffa78a"/><path d="M740.25 497.54a5.53 5.53 0 0 1 .13 1.77c-.1 1-.46 1.45-.23 1.71a39.71 39.71 0 0 1 2.37 4.32l-.1-.84s1.81-7.08-2.17-6.96Zm-13.25-.36s-2.06 2.46-1.9 4.64 3.49 4.65 8.89 3.52-.66-2.39-.66-2.39-6.86-1.88-6.33-5.77Z" class="cls-20"/><path d="M744.8 516a41.63 41.63 0 0 1-.2-10.4c.29-2.66-.28-5.86-4.94-5.27-2.73.35-4.31 1.07-5.18 2.07-1.22 1.39-1.47 3.09-.33 8 0 0 2.67 11.44 8.4 16.65 1.85 1.68 2.91 1.62 3.27 1.56h.17a1.73 1.73 0 0 0 1.21-2.09Z" class="cls-41"/><path d="M733.94 514h.12l10.37-1.57a.64.64 0 0 0 .49-.71.56.56 0 0 0-.62-.53l-10.37 1.57a.63.63 0 0 0-.49.71.57.57 0 0 0 .5.53Zm.99 3.82h.12l10.84-1.72a.63.63 0 0 0 .48-.71.56.56 0 0 0-.62-.53l-10.84 1.72a.62.62 0 0 0-.48.7.57.57 0 0 0 .5.54Zm1.41 4.38a.34.34 0 0 0 .14 0l10.25-2a.63.63 0 0 0 .47-.72.55.55 0 0 0-.63-.51l-10.26 2a.63.63 0 0 0-.47.72.57.57 0 0 0 .5.51Z" style="fill:#e8eff3"/><path d="M737.18 377.23s-1 1.1-2.45 3c-4.56 5.8-10.81 19.3-10.86 29.81-.07 14.1 4.39 62.27.2 85.86a11.83 11.83 0 0 0 5.29 3.76 12.93 12.93 0 0 0 7.61 0 16.89 16.89 0 0 0 5.08-2.22c-.16-23.39 2.46-42.9 3.63-56.35a389.38 389.38 0 0 1 8.66-55.79Z" class="cls-39"/><path d="M745 257.56s-14.87 9-10 38.91c.18 1.06.37 2.13.58 3.21a51 51 0 0 1 .24 13.87c-.65 4.78-1.29 9.6-2 14.4-2.67 19-1 37-.59 54.4-4.32 6.55-9.28 18.29-9.33 27.66-.07 14.1 4.39 62.27.2 85.86 8.48-33.87 3.64-64.61 3.27-81S738.24 382 738.24 382s-5.92-29.26-.73-53.52 3.94-26.4 3.94-26.4c-7-26.4 3.76-44.55 3.76-44.55a.65.65 0 0 0-.2.15Z" class="cls-36"/><path d="M772 138.26c6.88 6.74 12.67 12.06 16.76 15.72 6.63 6 8.59 7.4 11.17 11.18 2 3 7 10.19 6.55 19.26-.22 4.76-1.69 5.15-4.24 15 0 0-1.45 5.66-2.69 13.87-2.69 17.76-.64 39.91-.26 43.78a54.17 54.17 0 0 1-54 .46q6.82-35.15 2.35-52.64c-5.5-21.77-15.63-33.21-10.79-46.41 2.54-6.91 6.2-14.2 22.47-19.5Z" class="cls-46"/><path d="M780.88 180.92c13.17-2.82 17.34-10.12 6.21-28.41-3.7-3.36-8.51-7.8-14.07-13.22l-7.77-.63-1.91.11a43 43 0 0 0-10.63 3c3.01 9.14 14.84 42 28.17 39.15Z" class="cls-47"/><path d="M758.07 121.73s-2 15.35-3.67 21.12c0 0 10.79 7.69 20 5.22 0 0-.43-15.36-.4-18.88s-15.93-7.46-15.93-7.46Z" class="cls-13"/><path d="M754.4 142.85s16.19 30.73 26.23 23.8-8.63-28.77-8.63-28.77Z" class="cls-13"/><path d="M758.07 121.73a28 28 0 0 0 16.19 21.14c-.07-2.65-.14-5.88-.2-8.6-7.22-6.12-16-12.53-16-12.54Z" class="cls-26"/><path d="M796.48 98.07C795.31 86 784.35 77.23 772 78.44a22.18 22.18 0 0 0-20.21 24c.13 5.76 1.29 17.2 9.22 27 2.29 2.82 5.42 6.58 10.94 8.47 1.13.38 10.12 3.3 17.73-2a19.3 19.3 0 0 0 6.89-9.35 26.62 26.62 0 0 0 1.11-12.56c-.42-4-1.38-6.17-1.41-11.43 0-1.9.11-3.46.21-4.5Z" class="cls-13"/><path d="M796.59 126.51a26.62 26.62 0 0 0 1.09-12.51c.37 8.57-3.35 16.2-9.71 19.59-7 3.71-14.41.88-16 .25-13.38-5.1-19.1-22.14-18.85-21.06a40.72 40.72 0 0 0 7.88 16.63c2.29 2.82 5.42 6.58 10.94 8.47 1.13.38 10.12 3.3 17.73-2a19.3 19.3 0 0 0 6.92-9.37Z" class="cls-26"/><path d="M792.4 80.36a22.6 22.6 0 0 0-7.66-7.36 24.63 24.63 0 0 0-11.87-3.18 29.43 29.43 0 0 0-29.45 21.09c-.66 2-4.83 15.25 3.12 27.85 1.77 2.81 6.17 7.3 10.36 11.13.51-3.31.91-6.2 1.08-7.48.06-.45.09-.7.09-.7l.4.11a26.1 26.1 0 0 1-1.2-7.41c0-.94.05-2 .07-2.32.16-3.25.43-8.76 2.69-13.84 1.45-3.27 3-7 6.89-8.94a14.89 14.89 0 0 1 6.65-1.44c4.15-.07 4.71 1.42 7.89 1.15 4.39-.38 5.49-3.58 8.11-3 3.33.7 5.35 5.18 6.4 8.76a23.7 23.7 0 0 0-3.57-14.42Z" class="cls-37"/><path d="M796.05 94.74s-18.32-12.09-38.78 19.69l-6.44-6.49c.9-3.24 4.67-15.21 16.32-21.77 1.75-1 10.71-5.82 20.42-3.47 2.41.58 5.86 1.47 7.71 4.62a10 10 0 0 1 .77 7.42Z" class="cls-48"/><path d="M796.35 90.51S770.82 77 755.26 111c-.15.33-.3.66-.44 1l2.45 2.47c20.46-31.78 38.78-19.69 38.78-19.69a11.49 11.49 0 0 0 .3-4.27Z" class="cls-49"/><path d="M756.65 131.5c.82-5.13 1.42-9.77 1.42-9.77s2.78-17.88-7.24-13.79a33.36 33.36 0 0 0-1 13.68c.52 3.56 1.43 5 1.9 5.61a20.13 20.13 0 0 0 4.94 4.27Z" class="cls-48"/><path d="M752.28 127.93a21.8 21.8 0 0 0 4.37 3.57c.82-5.13 1.42-9.77 1.42-9.77s1.5-9.63-1.67-13.14c-.38.77-.77 1.56-1.14 2.38a31.62 31.62 0 0 0-2.98 16.96Z" class="cls-49"/><path d="M760.17 112.67s-6.6-6.69-8.83-1.28 4.31 12.71 8 11.73.83-10.45.83-10.45Z" class="cls-13"/><path d="M757.27 114.43s-3.89-4.4-4.19-1.67 1.46 6.22 3 5.9 1.19-4.23 1.19-4.23Z" class="cls-26"/><path d="M735.32 253a75.1 75.1 0 0 0 7.76 9.28l12.33 2.14s5.49.76 6.48 1.9a54.75 54.75 0 0 1 4.65 7c.16.65-1.21 2.88-4.39-1l-2.15-2.45s-3.68-2.15-4.54-1.43 9.13 7.77 9.13 9.15-1.05 2-2.52 1.64-8.66-8.48-10.13-8.47 7.89 8.49 8.41 9.23-.52 3.58-2.63 2-8.27-8-8.27-8-1 .23-.62 1 6.24 7.48 5.31 8.64-5.86-3.6-8.12-6.52c-7-.93-9.21-2.22-10.58-5-.26-.53-.18-.52-.62-1.58-1.89-4.47-4.26-6.62-6.13-9.15a26 26 0 0 1-4.07-8.46c3.87-.01 6.84.08 10.7.08Z" class="cls-13"/><g class="cls-32"><path d="M761.89 266.3a54.75 54.75 0 0 1 4.65 7c.16.65-1.21 2.88-4.39-1l-2.15-2.43s-3.68-2.15-4.54-1.43 9.13 7.77 9.13 9.15-1.05 2-2.52 1.64-8.66-8.48-10.13-8.47 7.89 8.49 8.41 9.23-.52 3.58-2.63 2-8.27-8-8.27-8-1 .23-.62 1 6.24 7.48 5.31 8.64-5.86-3.6-8.12-6.52l-2.5-4.11c.47-2.68 2.19-3 2.19-3 .75-2.75 2.56-3 2.56-3 .82-2.22 2.35-1.88 2.35-1.88a2.49 2.49 0 0 1 .86-1.39l3.93.68s5.49.75 6.48 1.89Z" class="cls-33"/></g><path d="M755 158.57c-.82-3.55-1.71-4.78-5.65-6.56-2.94-1.33-5.32-.44-9.8 1a70.73 70.73 0 0 0-22.32 12.43c-12.27 9.86-29.62 25-37.88 35.6-.45.59.57 4.68 3.56 7 4 3.08 11.27-.23 30.62-11 18.93-10.53 44.36-26.04 41.47-38.47Z" class="cls-13"/><path d="M701.28 188.71c11.51 27.53 29.82 58.68 40.57 73.19-3.08 2.55-4.17 4-7.25 6.53-42.75-46.25-44.63-48.27-51.47-62.94a12 12 0 0 1-1.07-6.3Z" class="cls-13"/><path d="M746.84 144.82C740.65 148 722 160.06 707.36 171l17 21.71 30.92-17.18s11.13-10.63-3.58-27.54c-2.35-2.76-1.7-4.83-4.86-3.17Z" class="cls-46"/><g style="mask:url(#mask-3)"><path d="M783.74 118.9a6.92 6.92 0 1 0 6.21-7.56 6.92 6.92 0 0 0-6.21 7.56Z" style="fill:url(#Áåçûìÿííûé_ãðàäèåíò_17);opacity:.3;mix-blend-mode:multiply"/></g><path d="M785.46 108.57c.16 1.77 1.38 3.08 2.72 2.92s2.28-1.71 2.12-3.47c-.4-4.23-5.24-3.69-4.84.55Z" class="cls-37"/><path d="M787.17 105.84a2.67 2.67 0 0 0 1.73-1.69v-.11a.14.14 0 0 0 0-.06 5.25 5.25 0 0 0 .12-2.16c.71 2 .55 3.89-1.13 5.11l-.25.16a6.51 6.51 0 0 1-.47-1.25Z" class="cls-37"/><path d="M786.73 106.12a4.38 4.38 0 0 0-.33-4.72 5 5 0 0 1 1.57 5.19Z" class="cls-37"/><path d="M785.86 106.77a4.41 4.41 0 0 0-1.72-4.42 5 5 0 0 1 .75.4 5.07 5.07 0 0 1 2.29 4.09Zm-18.55 5.35c.17 1.77 1.39 3.08 2.72 2.92s2.29-1.71 2.12-3.48c-.4-4.22-5.24-3.69-4.84.56Z" class="cls-37"/><path d="M769 109.39c1-.07 2.2-1.46 1.94-4.07.94 2.63 0 4.6-1.45 5.3 0 .01-.49-1.23-.49-1.23Z" class="cls-37"/><path d="M768.58 109.67a4.42 4.42 0 0 0-.32-4.73 5 5 0 0 1 1.56 5.2Z" class="cls-37"/><path d="M767.71 110.31a4.39 4.39 0 0 0-1.71-4.41 5.06 5.06 0 0 1 3 4.49Z" class="cls-37"/><g style="mask:url(#mask-4)"><path d="M762.31 123.4a6.92 6.92 0 1 0 6.21-7.56 6.92 6.92 0 0 0-6.21 7.56Z" style="fill:url(#Áåçûìÿííûé_ãðàäèåíò_17-2);opacity:.3;mix-blend-mode:multiply"/></g><path d="M779.07 106.71c-.48.11-.16 2.52-.07 3 .5 2.91 1.86 6.34 4.35 8l.21.16c1.43 1.24-1.88 2.65-3.65 3.45l-.2.09h.21c3.05-.49 6.49-2.16 4.31-4.26a8.49 8.49 0 0 1-2.78-3.21c-.58-1.1-3.08-6.83-2.38-7.23Z" class="cls-29"/><path d="M771.86 101.71a16 16 0 0 0-9 5.85c-.29.36-.94.15-.85-.28a12.12 12.12 0 0 1 .86-2.45c1.2-2.57 9.96-4.78 8.99-3.12Zm10.38-2.15s3.67-1.54 9 .94a.37.37 0 0 0 .41-.61 13.27 13.27 0 0 0-1.84-1.71c-2.14-1.65-9.09.39-7.57 1.38Z" class="cls-37"/><path d="M788.29 123.58c-.86 4.45-8.6 6.15-11 1.68 4.2 2.12 7.85 1.4 11-1.68Z" class="cls-30"/><path d="M799.9 165.16c4.75 13.79 3.1 17.6-1.88 27.5s-33.62 12.18-33.62 12.18c32.76-1.47 33.62-6.46 33.62-6.46s-2.87 41.46-6.46 54.53-46.35 4.65-46.35 4.65a54.17 54.17 0 0 0 54-.46c-.38-3.87-2.43-26 .26-43.78 1.24-8.21 2.69-13.87 2.69-13.87 2.55-9.88 4-10.27 4.24-15 .48-9.1-4.48-16.33-6.5-19.29Z" class="cls-49"/><path d="M751.14 171.16a3.8 3.8 0 0 0 .57-.9s-.22.33-.57.9Zm-5.55 19.33c-2.87-5 3.55-16.09 5.55-19.33-4.13 5.24-26.77 21.5-26.77 21.5l16.07-8.53a160.31 160.31 0 0 1 7.12 20.79q4.43 17.49-2.35 52.64c13.36-11.1 3.79-61.21.38-67.07Z" class="cls-47" style="opacity:.3;mix-blend-mode:multiply"/></g></g></g></svg>