<svg xmlns="http://www.w3.org/2000/svg" viewBox="0 0 77.26 75.25"><defs><style>.cls-1{fill:#e8ebec}.cls-2{fill:#fff}.cls-3{fill:#97d3db}.cls-4{fill:#8dc74a}</style></defs><g id="Capa_2" data-name="Capa 2"><g id="layer_1" data-name="layer 1"><circle class="cls-1" cx="14" cy="14" r="14"/><circle class="cls-1" cx="15.5" cy="60" r="12"/><circle class="cls-1" cx="57.26" cy="55.25" r="20"/><path class="cls-2" d="M71.25 37.25a32 32 0 1 0-60.09 15.34c9.61 3.95 25.29 7.65 50.32 7.66a31.89 31.89 0 0 0 9.77-23Z"/><path class="cls-3" d="M71.25 37.25a32 32 0 0 0-55.83-21.36A32 32 0 0 1 58 60.22h3.51a31.89 31.89 0 0 0 9.74-22.97Z"/><path class="cls-4" d="M61.48 61c-21.13 0-38.16-2.6-50.6-7.72a.76.76 0 0 1-.38-.28A32.76 32.76 0 1 1 62 60.79a.74.74 0 0 1-.52.21Zm-49.79-9c12.18 5 28.83 7.47 49.49 7.5A31.25 31.25 0 1 0 8 37.25 31.37 31.37 0 0 0 11.69 52Z"/><path class="cls-2" d="M39.25 69.25a31.85 31.85 0 0 0 22.23-9c-25 0-40.71-3.71-50.32-7.66a32 32 0 0 0 28.09 16.66Z"/><path class="cls-3" d="M61.48 60.25c-6.62 0-12.58-.27-17.95-.72a35.41 35.41 0 0 1-17.75 6.74 31.95 31.95 0 0 0 35.7-6Z"/><path class="cls-4" d="M39.25 70A32.76 32.76 0 0 1 10.5 53a.75.75 0 0 1 .95-1.05c12.26 5 29.09 7.6 50 7.6a.75.75 0 0 1 .55 1.24A32.6 32.6 0 0 1 39.25 70ZM12.92 54.09A31.26 31.26 0 0 0 59.56 61c-19.13-.16-34.8-2.48-46.64-6.91Z"/><path class="cls-2" d="M43.49 19.3a4.14 4.14 0 1 0-4.37-3.91 4.14 4.14 0 0 0 4.37 3.91Z"/><path class="cls-3" d="M45 11.43a4.2 4.2 0 0 1 .38 1.51 4.12 4.12 0 0 1-5.9 4A4.14 4.14 0 1 0 45 11.43Z"/><path class="cls-4" d="M43.26 20.06a4.89 4.89 0 0 1-3.64-8.16 4.89 4.89 0 0 1 8.53 3 4.9 4.9 0 0 1-4.62 5.15Zm.23-.76Zm-.22-7.53h-.19a3.33 3.33 0 0 0-2.35 1.12 3.4 3.4 0 0 0 .27 4.8 3.33 3.33 0 0 0 2.46.86 3.39 3.39 0 0 0 2.08-5.91 3.35 3.35 0 0 0-2.27-.87ZM23.24 38h-8a.75.75 0 0 1 0-1.5h8a.75.75 0 0 1 0 1.5Zm0 6h-11a.75.75 0 0 1 0-1.5h11a.75.75 0 0 1 0 1.5Zm2-12h-13a.75.75 0 0 1 0-1.5h13a.75.75 0 0 1 0 1.5Zm2-6h-6a.75.75 0 0 1 0-1.5h6a.75.75 0 0 1 0 1.5Zm-5.87-6h-3.12a.75.75 0 0 1 0-1.5h3.12a.75.75 0 1 1 0 1.5Zm13.88 0h-9.88a.75.75 0 0 1 0-1.5h9.88a.75.75 0 0 1 0 1.5Z"/><path class="cls-2" d="M64.29 23.71a2.44 2.44 0 0 0-3.18-.71l-5.7 3.1a2.43 2.43 0 0 1-2.24.05l-4.7-2.3a11.27 11.27 0 0 0-10.16-.26c-1.34.7-4.46 2.73-6.07 3.79a4.06 4.06 0 0 0-1.47 1.78l-2.64 6.22a2.43 2.43 0 0 0 1 3 2.4 2.4 0 0 0 1.26.29 2.33 2.33 0 0 0 2.07-1.53l2.25-5.32a2 2 0 0 1 .81-.94l3.4-2.05.62 11.17 9.38-.52-.56-10.42 4.35 2a4 4 0 0 0 3.61-.06l7.15-3.89a2.35 2.35 0 0 0 .82-3.4Z"/><path class="cls-2" d="M39.6 41a3 3 0 0 1-.68 2.06l-3.4 4.17-7.83-.9a2.75 2.75 0 0 0-3 3 2.81 2.81 0 0 0 2.52 2.5l8.27.94a4 4 0 0 0 3.48-1.36l5.6-6.49 6.1 6-2.83 8.38a2.75 2.75 0 0 0 2.71 3.7A2.74 2.74 0 0 0 53 61.14l3.07-9.39a4 4 0 0 0-1-4.08l-5.24-5.24a3 3 0 0 1-.88-2v-1l-9.41.57Z"/><path class="cls-3" d="m55.09 47.67-5.24-5.24a3 3 0 0 1-.88-2v-1l-2.62.14.09 1.48a3 3 0 0 0 .88 2l6.1 6.11a2 2 0 0 1 .49 2l-3.5 10.6a2.72 2.72 0 0 1-.74 1.15 2.89 2.89 0 0 0 .87.11A2.74 2.74 0 0 0 53 61.14l3.07-9.39a4 4 0 0 0-.98-4.08Z"/><path class="cls-3" d="m64.53 24.16-8.28 4.5a3 3 0 0 1-2.69.09l-4.88-2.26a2.53 2.53 0 0 0-3.6 2.44l.58 10.73 3.26-.18-.56-10.42 4.35 2a4 4 0 0 0 3.61-.06l7.15-3.89a2.35 2.35 0 0 0 1.06-2.95Z"/><path class="cls-4" d="M39.54 40.75a.74.74 0 0 1-.5-.2.72.72 0 0 1-.25-.51l-.53-9.89-2.33 1.41a1.2 1.2 0 0 0-.51.58l-2.24 5.32a3.1 3.1 0 0 1-4.39 1.61 3.19 3.19 0 0 1-1.37-3.91l2.66-6.26a4.72 4.72 0 0 1 1.75-2.1c1.7-1.13 4.77-3.12 6.17-3.8a12.06 12.06 0 0 1 10.84.25l4.7 2.3a1.64 1.64 0 0 0 1.55 0l5.7-3.1a3.21 3.21 0 0 1 4.16.9 3.12 3.12 0 0 1-1.08 4.48l-7.15 3.89a4.81 4.81 0 0 1-4.28.13l-3.23-1.51.5 9.17a.76.76 0 0 1-.71.79l-9.38.52Zm-.6-12.64a.73.73 0 0 1 .35.09.77.77 0 0 1 .4.62l.56 10.39 7.88-.44-.52-9.67a.75.75 0 0 1 1.06-.72l4.36 2a3.28 3.28 0 0 0 2.97-.05l7.15-3.89a1.61 1.61 0 0 0 .56-2.31 1.68 1.68 0 0 0-2.2-.43l-5.7 3.1a3.19 3.19 0 0 1-2.93.06l-4.7-2.3a10.56 10.56 0 0 0-9.48-.27c-1.36.71-4.65 2.87-6 3.76a3.25 3.25 0 0 0-1.2 1.44l-2.64 6.22a1.66 1.66 0 0 0 .69 2 1.56 1.56 0 0 0 .86.2 1.59 1.59 0 0 0 1.41-1L34 31.56a2.74 2.74 0 0 1 1.11-1.29l3.4-2.05a.77.77 0 0 1 .43-.11Z"/><path class="cls-4" d="M50.39 63.77a3.57 3.57 0 0 1-1.65-.41 3.61 3.61 0 0 1-1.63-4.29l2.65-8-5.2-5.07-5.08 5.89a4.72 4.72 0 0 1-4.13 1.61l-8.26-.93a3.56 3.56 0 0 1-3.19-3.19 3.49 3.49 0 0 1 3.87-3.76l7.43.84 3.14-3.84a2.25 2.25 0 0 0 .51-1.62l-.06-1a.75.75 0 0 1 .71-.79l9.38-.52a.7.7 0 0 1 .54.19.74.74 0 0 1 .25.52v1a2.25 2.25 0 0 0 .66 1.47l5.24 5.24A4.77 4.77 0 0 1 56.78 52l-3.07 9.39a3.49 3.49 0 0 1-3.13 2.4Zm-5.87-19.65a.73.73 0 0 1 .52.21l6.1 6a.74.74 0 0 1 .19.77l-2.79 8.49a2.08 2.08 0 0 0 .9 2.49 2 2 0 0 0 2.84-1.13l3.07-9.39a3.23 3.23 0 0 0-.79-3.3L49.32 43a3.7 3.7 0 0 1-1.09-2.45v-.24l-7.88.43V41a3.67 3.67 0 0 1-.84 2.58l-3.4 4.16a.73.73 0 0 1-.66.27l-7.84-.89a2 2 0 0 0-1.61.55 2 2 0 0 0-.6 1.61A2.09 2.09 0 0 0 27.26 51l8.26.93a3.26 3.26 0 0 0 2.83-1.1L44 44.38a.75.75 0 0 1 .54-.26Z"/><circle class="cls-2" cx="66.25" cy="10.25" r="2"/><path class="cls-4" d="M66.25 13A2.75 2.75 0 1 1 69 10.25 2.75 2.75 0 0 1 66.25 13Zm0-4a1.25 1.25 0 1 0 1.25 1.25A1.25 1.25 0 0 0 66.25 9Z"/><circle class="cls-2" cx="15.25" cy="7.25" r="2"/><path class="cls-4" d="M15.25 10A2.75 2.75 0 1 1 18 7.25 2.75 2.75 0 0 1 15.25 10Zm0-4a1.25 1.25 0 1 0 1.25 1.25A1.25 1.25 0 0 0 15.25 6Z"/><circle class="cls-2" cx="9.25" cy="14.25" r="2"/><path class="cls-4" d="M9.25 17A2.75 2.75 0 1 1 12 14.25 2.75 2.75 0 0 1 9.25 17Zm0-4a1.25 1.25 0 1 0 1.25 1.25A1.25 1.25 0 0 0 9.25 13Z"/><circle class="cls-2" cx="69.25" cy="61.25" r="2"/><path class="cls-4" d="M69.25 64A2.75 2.75 0 1 1 72 61.25 2.75 2.75 0 0 1 69.25 64Zm0-4a1.25 1.25 0 1 0 1.25 1.25A1.25 1.25 0 0 0 69.25 60Z"/><circle class="cls-2" cx="61.25" cy="67.25" r="2"/><path class="cls-4" d="M61.25 70A2.75 2.75 0 1 1 64 67.25 2.75 2.75 0 0 1 61.25 70Zm0-4a1.25 1.25 0 1 0 1.25 1.25A1.25 1.25 0 0 0 61.25 66Z"/><circle class="cls-2" cx="10.25" cy="62.25" r="2"/><path class="cls-4" d="M10.25 65A2.75 2.75 0 1 1 13 62.25 2.75 2.75 0 0 1 10.25 65Zm0-4a1.25 1.25 0 1 0 1.25 1.25A1.25 1.25 0 0 0 10.25 61Z"/></g></g></svg>