<svg xmlns="http://www.w3.org/2000/svg" viewBox="0 0 203.34 195.46"><defs><style>.cls-3,.cls-6{fill:gray}.cls-19,.cls-6{opacity:.7}.cls-5{fill:#fff}.cls-17,.cls-19,.cls-27,.cls-6{mix-blend-mode:multiply}.cls-7{fill:#f95a37}.cls-9{fill:#eec49d}.cls-10{fill:#f2f2f2}.cls-12{fill:#2fabeb}.cls-14{fill:#999}.cls-16{fill:#b3b3b3}.cls-17{opacity:.19}.cls-20{fill:#b0d08c}.cls-21{fill:#f8ed35}.cls-22{fill:#007cbd}.cls-25,.cls-27{fill:#cdcfd0}.cls-27,.cls-33{opacity:.75}.cls-28{fill:#a1d126}.cls-31{fill:#656e78}.cls-33{mix-blend-mode:color-dodge}</style></defs><g style="isolation:isolate"><g id="Capa_2" data-name="Capa 2"><g id="layer"><g style="opacity:.27;mix-blend-mode:color-burn"><circle class="cls-3" cx="98.08" cy="94.06" r="45.3" transform="rotate(-82.71 98.07 94.057)"/><path class="cls-3" d="M179.64 116.78c-13.87-10.08-13.87-28.48 0-38.56a21.44 21.44 0 0 0-21.29-36.94c-15.71 6.65-35.09-4.86-36.7-21.87A21.44 21.44 0 0 0 79 18.86C76.91 35.8 53.87 48.61 38.34 41.53A21.44 21.44 0 0 0 17.68 79c14.37 9.23 15.47 27.67 2.28 38.55A21.44 21.44 0 0 0 43.81 153c15.07-7.88 32.35.58 35.37 17.32a21.44 21.44 0 0 0 42.26 0c3-16.75 20.3-25.21 35.36-17.33a21.44 21.44 0 0 0 22.84-36.18Zm-69.09 31.06a21.46 21.46 0 0 0-20.48 0c-15.07 7.87-32.34-.58-35.37-17.33A21.44 21.44 0 0 0 45 116c-14.38-9.23-15.48-27.67-2.29-38.55a21.46 21.46 0 0 0 7.67-14c2.11-16.94 25.15-29.75 40.68-22.67A21.5 21.5 0 0 0 109 41c15.7-6.65 35.08 4.86 36.69 21.87a21.4 21.4 0 0 0 8.74 15.32c13.88 10.08 13.88 28.48 0 38.56a21.43 21.43 0 0 0-8.53 13.73c-3.01 16.78-20.29 25.23-35.35 17.36Z"/></g><path class="cls-5" d="M98.48 167.45h-2.26a.56.56 0 0 1 0-1.12l2.23.05a.55.55 0 0 1 .55.56.56.56 0 0 1-.52.51Zm3.37 0a.57.57 0 0 1 0-1.13c.75 0 1.49-.06 2.23-.1a.54.54 0 0 1 .59.52.56.56 0 0 1-.52.6c-.75 0-1.51.08-2.26.1Zm-9-.2q-1.12-.09-2.25-.21a.56.56 0 0 1-.5-.62.56.56 0 0 1 .62-.49l2.22.2a.56.56 0 0 1 0 1.12Zm14.57-.19a.56.56 0 0 1-.06-1.11l2.21-.26a.55.55 0 0 1 .63.48.56.56 0 0 1-.48.63c-.74.1-1.49.18-2.24.26Zm-20.15-.44h-.08c-.75-.11-1.5-.23-2.24-.36a.57.57 0 0 1-.45-.65.56.56 0 0 1 .65-.46c.73.13 1.46.25 2.2.36a.56.56 0 0 1-.08 1.12Zm25.71-.33a.56.56 0 0 1-.1-1.11q1.09-.19 2.19-.42a.57.57 0 0 1 .66.44.56.56 0 0 1-.43.66c-.74.15-1.48.29-2.23.42Zm-31.23-.69h-.12c-.74-.16-1.47-.34-2.2-.52a.56.56 0 1 1 .27-1.09c.72.19 1.44.36 2.17.52a.56.56 0 0 1-.12 1.11Zm36.72-.47a.56.56 0 0 1-.14-1.11q1.08-.27 2.16-.57a.57.57 0 0 1 .69.39.56.56 0 0 1-.39.69c-.72.2-1.45.4-2.19.58Zm-42.15-1a.44.44 0 0 1-.16 0c-.72-.22-1.44-.44-2.16-.68a.55.55 0 0 1-.35-.7.54.54 0 0 1 .7-.36l2.13.67a.56.56 0 0 1-.16 1.09Zm47.54-.61a.56.56 0 0 1-.17-1.09c.7-.23 1.41-.47 2.11-.72a.56.56 0 1 1 .37 1.05c-.7.26-1.42.5-2.14.74a.47.47 0 0 1-.14.03ZM71 162.35a.51.51 0 0 1-.2 0c-.7-.27-1.4-.54-2.1-.83a.55.55 0 0 1-.3-.73.56.56 0 0 1 .73-.31c.68.29 1.37.56 2.07.82a.56.56 0 0 1 .33.72.57.57 0 0 1-.53.33Zm58.13-.75a.56.56 0 0 1-.21-1.08c.68-.28 1.37-.57 2.05-.88a.56.56 0 1 1 .45 1l-2.08.89a.78.78 0 0 1-.18.07Zm-63.3-1.43a.69.69 0 0 1-.24 0l-2-1a.56.56 0 1 1 .5-1l2 1a.57.57 0 0 1 .27.75.57.57 0 0 1-.5.25Zm68.42-.89a.56.56 0 0 1-.5-.31.55.55 0 0 1 .25-.75c.67-.33 1.33-.67 2-1a.55.55 0 0 1 .76.23.57.57 0 0 1-.23.76c-.67.35-1.34.7-2 1a.54.54 0 0 1-.25.07Zm-73.42-1.65a.68.68 0 0 1-.28-.07l-1.95-1.13a.56.56 0 0 1-.2-.77.57.57 0 0 1 .77-.19c.64.38 1.28.75 1.93 1.11a.56.56 0 0 1 .22.76.59.59 0 0 1-.46.29Zm78.37-1a.56.56 0 0 1-.29-1c.64-.38 1.28-.76 1.91-1.16a.55.55 0 0 1 .77.17.57.57 0 0 1-.17.78c-.64.4-1.29.79-1.94 1.18a.6.6 0 0 1-.25 0Zm-83.17-1.87a.55.55 0 0 1-.3-.09c-.63-.41-1.26-.83-1.87-1.26a.56.56 0 0 1-.14-.78.55.55 0 0 1 .78-.14c.61.42 1.22.84 1.84 1.24a.56.56 0 0 1 .16.78.55.55 0 0 1-.44.22Zm87.9-1.17a.57.57 0 0 1-.46-.24.56.56 0 0 1 .14-.78c.61-.43 1.22-.86 1.82-1.3a.55.55 0 0 1 .78.11.57.57 0 0 1-.12.79c-.6.45-1.22.89-1.84 1.32a.55.55 0 0 1-.25.07Zm-92.43-2.1a.6.6 0 0 1-.34-.11c-.6-.46-1.19-.93-1.77-1.4a.57.57 0 0 1-.09-.79.56.56 0 0 1 .79-.08c.58.47 1.16.93 1.75 1.38a.56.56 0 0 1 .1.78.53.53 0 0 1-.44.22Zm97-1.31a.55.55 0 0 1-.5-.18.56.56 0 0 1 .08-.79c.58-.46 1.15-.94 1.71-1.43a.58.58 0 0 1 .8.06.57.57 0 0 1-.06.79c-.57.49-1.15 1-1.74 1.45a.53.53 0 0 1-.33.1Zm-101.32-2.26a.54.54 0 0 1-.38-.14c-.56-.5-1.11-1-1.66-1.52a.58.58 0 0 1 0-.8.56.56 0 0 1 .79 0c.54.51 1.09 1 1.64 1.51a.57.57 0 0 1 .05.79.59.59 0 0 1-.44.16Zm105.51-1.44a.55.55 0 0 1-.41-.18.56.56 0 0 1 0-.79c.54-.51 1.08-1 1.6-1.56a.57.57 0 0 1 .79 0 .57.57 0 0 1 0 .8c-.53.53-1.07 1.06-1.62 1.58a.57.57 0 0 1-.36.15ZM43.14 144a.54.54 0 0 1-.41-.17c-.52-.54-1-1.09-1.54-1.65a.56.56 0 1 1 .83-.75c.5.55 1 1.09 1.52 1.62a.57.57 0 0 1 0 .8.58.58 0 0 1-.4.15Zm113.48-1.57a.56.56 0 0 1-.41-.94c.5-.55 1-1.1 1.48-1.67a.56.56 0 0 1 .85.73c-.49.57-1 1.14-1.5 1.7a.56.56 0 0 1-.42.22ZM39.4 139.86a.53.53 0 0 1-.43-.2c-.49-.58-1-1.17-1.42-1.76a.56.56 0 1 1 .89-.69c.45.59.92 1.17 1.39 1.74a.57.57 0 0 1-.07.79.62.62 0 0 1-.36.12Zm120.85-1.68a.55.55 0 0 1-.35-.12.57.57 0 0 1-.1-.79c.46-.58.91-1.18 1.35-1.78a.56.56 0 0 1 .78-.12.57.57 0 0 1 .12.79c-.44.6-.9 1.21-1.36 1.8a.57.57 0 0 1-.44.22ZM36 135.41a.55.55 0 0 1-.46-.24c-.43-.61-.86-1.23-1.28-1.86a.56.56 0 0 1 .94-.62c.41.62.83 1.23 1.26 1.84a.57.57 0 0 1-.14.78.55.55 0 0 1-.32.1Zm127.53-1.79a.61.61 0 0 1-.31-.09.57.57 0 0 1-.15-.78c.41-.62.81-1.24 1.2-1.87a.56.56 0 0 1 .77-.19.58.58 0 0 1 .18.78c-.4.64-.8 1.27-1.22 1.9a.56.56 0 0 1-.48.25Zm-130.6-2.91a.55.55 0 0 1-.48-.28c-.39-.65-.76-1.3-1.13-2a.56.56 0 0 1 .22-.76.55.55 0 0 1 .76.22c.36.65.73 1.29 1.11 1.93a.57.57 0 0 1-.19.77.6.6 0 0 1-.29.12Zm133.5-1.88a.68.68 0 0 1-.27-.07.57.57 0 0 1-.22-.77c.36-.64.71-1.3 1.05-2a.57.57 0 0 1 .76-.24.56.56 0 0 1 .24.75c-.34.67-.7 1.34-1.07 2a.56.56 0 0 1-.49.33Zm-136.18-3.06a.56.56 0 0 1-.5-.31c-.33-.68-.65-1.36-1-2a.57.57 0 0 1 .28-.74.55.55 0 0 1 .74.28c.31.67.63 1.35 1 2a.56.56 0 0 1-.26.75.54.54 0 0 1-.26.02Zm138.71-2a.69.69 0 0 1-.24 0 .56.56 0 0 1-.27-.74c.3-.68.6-1.36.89-2a.55.55 0 0 1 .73-.3.56.56 0 0 1 .3.73q-.44 1-.9 2.07a.56.56 0 0 1-.47.29ZM28 120.64a.55.55 0 0 1-.52-.36c-.28-.7-.55-1.41-.81-2.12a.57.57 0 0 1 .34-.72.56.56 0 0 1 .72.34c.25.7.51 1.4.79 2.09a.57.57 0 0 1-.32.73.65.65 0 0 1-.2.04Zm143.09-2a.63.63 0 0 1-.19 0 .57.57 0 0 1-.34-.72q.38-1 .72-2.1a.56.56 0 0 1 1.07.35c-.24.71-.48 1.43-.73 2.13a.57.57 0 0 1-.55.33Zm-144.95-3.3a.58.58 0 0 1-.54-.4c-.22-.72-.43-1.45-.62-2.18a.56.56 0 0 1 .39-.69.57.57 0 0 1 .69.4c.19.72.4 1.43.62 2.15a.55.55 0 0 1-.38.69.45.45 0 0 1-.18.02Zm146.64-2h-.15a.57.57 0 0 1-.4-.69c.2-.71.38-1.43.55-2.16a.56.56 0 0 1 .68-.41.55.55 0 0 1 .41.67c-.17.74-.36 1.47-.55 2.2a.58.58 0 0 1-.56.34ZM24.7 109.89a.57.57 0 0 1-.55-.44c-.16-.73-.31-1.47-.44-2.22a.56.56 0 1 1 1.1-.2c.14.73.28 1.46.44 2.18a.57.57 0 0 1-.43.67Zm149.3-2.07h-.11a.56.56 0 0 1-.44-.66c.13-.72.25-1.45.37-2.19a.56.56 0 1 1 1.1.17c-.11.75-.24 1.49-.37 2.23a.57.57 0 0 1-.55.45Zm-150.27-3.45a.57.57 0 0 1-.56-.49c-.09-.74-.18-1.49-.26-2.25a.55.55 0 0 1 .5-.61.57.57 0 0 1 .62.5c.07.74.16 1.48.26 2.21a.56.56 0 0 1-.49.63Zm151.08-2.11h-.06a.56.56 0 0 1-.5-.61c.07-.74.14-1.48.19-2.22a.57.57 0 0 1 .6-.52.56.56 0 0 1 .52.6c-.06.75-.12 1.5-.2 2.25a.55.55 0 0 1-.55.5Zm-151.6-3.48a.57.57 0 0 1-.56-.53c0-.75-.06-1.51-.08-2.26a.56.56 0 0 1 1.12 0c0 .75 0 1.49.08 2.23a.56.56 0 0 1-.53.59Zm151.94-2.12a.56.56 0 0 1-.55-.57v-2.23a.54.54 0 0 1 .55-.56.56.56 0 0 1 .56.55v2.27a.55.55 0 0 1-.56.54Zm-152-3.49a.57.57 0 0 1-.55-.58c0-.76.06-1.51.11-2.26a.53.53 0 0 1 .59-.52.56.56 0 0 1 .53.59c0 .74-.08 1.48-.1 2.23a.56.56 0 0 1-.58.54Zm151.9-2.12a.56.56 0 0 1-.56-.52c0-.75-.1-1.49-.17-2.22a.56.56 0 0 1 1.12-.11c.07.75.13 1.5.17 2.26a.56.56 0 0 1-.53.59ZM23.53 87.57h-.06A.57.57 0 0 1 23 87c.09-.75.18-1.5.29-2.25a.56.56 0 0 1 1.11.16c-.11.73-.2 1.47-.28 2.21a.56.56 0 0 1-.59.45Zm151-2.1a.56.56 0 0 1-.55-.48c-.1-.74-.22-1.47-.35-2.2a.56.56 0 0 1 .46-.65.58.58 0 0 1 .65.45c.13.75.24 1.49.35 2.24a.56.56 0 0 1-.48.63ZM24.37 82h-.11a.56.56 0 0 1-.44-.65c.14-.75.3-1.49.46-2.22a.56.56 0 0 1 .67-.42.57.57 0 0 1 .43.67c-.17.72-.32 1.45-.46 2.18a.56.56 0 0 1-.55.44Zm149.12-2a.57.57 0 0 1-.55-.44c-.16-.72-.34-1.44-.52-2.16a.56.56 0 1 1 1.08-.28c.19.73.37 1.46.53 2.2a.56.56 0 0 1-.42.67ZM25.65 76.56h-.15a.57.57 0 0 1-.39-.69c.21-.73.42-1.45.65-2.17a.56.56 0 0 1 .7-.37.57.57 0 0 1 .37.71c-.23.7-.44 1.41-.64 2.13a.55.55 0 0 1-.54.39Zm146.38-2a.55.55 0 0 1-.53-.39c-.23-.71-.46-1.42-.7-2.12a.55.55 0 0 1 .34-.71.56.56 0 0 1 .72.34c.24.71.48 1.43.71 2.15a.58.58 0 0 1-.37.71ZM27.38 71.23a.48.48 0 0 1-.2 0 .56.56 0 0 1-.33-.72c.26-.7.53-1.4.82-2.1a.54.54 0 0 1 .72-.31.56.56 0 0 1 .31.73c-.27.69-.54 1.38-.8 2.07a.56.56 0 0 1-.52.33Zm142.76-2a.56.56 0 0 1-.52-.35 74.7 74.7 0 0 0-.87-2.06.56.56 0 1 1 1-.45c.31.69.6 1.39.89 2.09a.57.57 0 0 1-.31.73.52.52 0 0 1-.19.04ZM29.52 66.06a.46.46 0 0 1-.23-.06.57.57 0 0 1-.28-.74q.48-1 1-2a.56.56 0 1 1 1 .51c-.33.66-.66 1.33-1 2a.57.57 0 0 1-.49.29Zm138.31-2a.56.56 0 0 1-.5-.31c-.34-.67-.68-1.33-1-2a.56.56 0 1 1 1-.53q.54 1 1.05 2a.57.57 0 0 1-.25.75.57.57 0 0 1-.3.14Zm-135.75-3a.57.57 0 0 1-.28-.06.56.56 0 0 1-.21-.76q.56-1 1.14-1.95a.56.56 0 0 1 .77-.19.56.56 0 0 1 .19.77c-.39.63-.76 1.27-1.12 1.92a.59.59 0 0 1-.49.28Zm133-1.88a.56.56 0 0 1-.48-.27c-.39-.64-.78-1.27-1.18-1.89a.55.55 0 0 1 .16-.77.56.56 0 0 1 .78.16q.61 1 1.2 1.92a.56.56 0 0 1-.19.77.53.53 0 0 1-.25.09ZM35 56.29a.56.56 0 0 1-.47-.87q.63-.95 1.29-1.86a.57.57 0 0 1 .79-.13.56.56 0 0 1 .13.78c-.44.6-.86 1.21-1.28 1.83a.54.54 0 0 1-.46.25Zm127-1.78a.57.57 0 0 1-.45-.24c-.44-.6-.88-1.2-1.33-1.79a.56.56 0 1 1 .89-.68c.46.6.91 1.21 1.35 1.82a.56.56 0 0 1-.13.78.57.57 0 0 1-.33.11ZM38.33 51.75a.5.5 0 0 1-.35-.12.55.55 0 0 1-.09-.78c.46-.6.94-1.18 1.43-1.76a.56.56 0 0 1 .79-.07.58.58 0 0 1 .07.79c-.48.57-1 1.15-1.41 1.73a.56.56 0 0 1-.44.21Zm120.26-1.68a.53.53 0 0 1-.43-.2c-.47-.56-1-1.13-1.45-1.68a.56.56 0 0 1 .83-.75c.5.57 1 1.14 1.48 1.71a.56.56 0 0 1-.07.79.53.53 0 0 1-.36.13ZM42 47.48a.62.62 0 0 1-.38-.14.58.58 0 0 1 0-.8c.51-.55 1-1.1 1.56-1.64a.56.56 0 0 1 .79 0 .56.56 0 0 1 0 .8c-.52.53-1 1.07-1.53 1.61a.58.58 0 0 1-.44.17Zm112.86-1.56a.56.56 0 0 1-.4-.17c-.52-.53-1.05-1-1.58-1.57a.56.56 0 1 1 .77-.8c.55.52 1.08 1 1.61 1.59a.56.56 0 0 1 0 .79.54.54 0 0 1-.43.16ZM45.94 43.5a.56.56 0 0 1-.38-1c.55-.51 1.11-1 1.68-1.52a.56.56 0 1 1 .74.84c-.56.49-1.12 1-1.66 1.5a.57.57 0 0 1-.38.18Zm104.82-1.44a.54.54 0 0 1-.37-.14c-.55-.49-1.12-1-1.69-1.44a.56.56 0 1 1 .72-.86c.58.48 1.15 1 1.71 1.46a.56.56 0 0 1 .05.79.54.54 0 0 1-.42.19ZM50.19 39.83a.6.6 0 0 1-.44-.21.57.57 0 0 1 .09-.79c.59-.47 1.19-.94 1.79-1.39a.56.56 0 1 1 .67.89l-1.76 1.37a.58.58 0 0 1-.35.13Zm96.23-1.31a.6.6 0 0 1-.34-.11c-.59-.45-1.18-.89-1.79-1.32a.56.56 0 0 1 .65-.91c.61.43 1.22.88 1.82 1.33a.56.56 0 0 1 .11.79.58.58 0 0 1-.45.22Zm-91.71-2.05a.56.56 0 0 1-.32-1c.62-.43 1.25-.84 1.89-1.25a.55.55 0 0 1 .77.16.57.57 0 0 1-.17.78c-.62.4-1.24.81-1.86 1.24a.56.56 0 0 1-.31.07Zm87.12-1.16a.55.55 0 0 1-.3-.09c-.62-.4-1.25-.79-1.88-1.18a.56.56 0 0 1-.19-.77.57.57 0 0 1 .77-.19c.64.39 1.28.79 1.91 1.2a.56.56 0 0 1-.31 1Zm-82.37-1.85a.56.56 0 0 1-.28-1c.65-.38 1.31-.75 2-1.11a.56.56 0 0 1 .54 1c-.66.36-1.3.72-1.95 1.1a.55.55 0 0 1-.31.01Zm77.57-1a.6.6 0 0 1-.27-.06c-.66-.36-1.31-.71-2-1.05a.56.56 0 0 1-.24-.75.55.55 0 0 1 .75-.24c.68.34 1.34.69 2 1.05a.56.56 0 0 1-.26 1Zm-72.61-1.65a.56.56 0 0 1-.24-1.07c.67-.33 1.36-.65 2-1a.55.55 0 0 1 .74.28.56.56 0 0 1-.28.74c-.68.31-1.35.62-2 .95a.57.57 0 0 1-.22.1Zm67.58-.88a.69.69 0 0 1-.24-.05q-1-.46-2-.9a.56.56 0 0 1-.3-.73.57.57 0 0 1 .74-.3c.7.29 1.39.6 2.07.91a.56.56 0 0 1-.23 1.07Zm-62.44-1.41a.54.54 0 0 1-.52-.35.56.56 0 0 1 .31-.73c.69-.28 1.4-.55 2.11-.81a.56.56 0 0 1 .72.33.57.57 0 0 1-.34.72l-2.08.8a.45.45 0 0 1-.2.04Zm57.26-.74a.63.63 0 0 1-.19 0q-1-.39-2.1-.75a.56.56 0 0 1-.36-.71.56.56 0 0 1 .71-.35c.72.24 1.43.5 2.14.76a.57.57 0 0 1 .33.72.56.56 0 0 1-.53.33Zm-52-1.16a.55.55 0 0 1-.53-.39.56.56 0 0 1 .36-.71c.72-.23 1.44-.45 2.17-.66a.57.57 0 0 1 .69.39.56.56 0 0 1-.38.69l-2.13.65a.47.47 0 0 1-.17.03Zm46.66-.6h-.15c-.72-.21-1.43-.41-2.15-.6a.56.56 0 1 1 .28-1.08c.73.19 1.46.39 2.18.6a.56.56 0 0 1-.16 1.1Zm-41.24-.92a.56.56 0 0 1-.55-.43.56.56 0 0 1 .41-.67c.74-.18 1.47-.34 2.21-.5a.57.57 0 0 1 .67.43.56.56 0 0 1-.44.66l-2.17.5Zm35.81-.46h-.11c-.73-.16-1.46-.31-2.19-.44a.56.56 0 0 1 .21-1.11c.74.14 1.48.29 2.21.45a.56.56 0 0 1-.12 1.11ZM85.73 24a.56.56 0 0 1-.09-1.11c.74-.12 1.49-.24 2.24-.34a.56.56 0 0 1 .63.47.57.57 0 0 1-.48.64c-.74.1-1.47.21-2.2.34Zm24.8-.31h-.08c-.73-.1-1.47-.2-2.21-.28a.56.56 0 1 1 .13-1.11c.75.08 1.5.18 2.24.28a.56.56 0 0 1-.08 1.12Zm-19.23-.47a.56.56 0 0 1-.06-1.11c.75-.08 1.5-.14 2.26-.19a.57.57 0 0 1 .59.52.56.56 0 0 1-.52.6l-2.22.18Zm13.7-.17c-.74-.05-1.48-.1-2.23-.13a.55.55 0 0 1-.53-.58.55.55 0 0 1 .58-.54c.76 0 1.51.08 2.26.13a.56.56 0 0 1 0 1.12Zm-8-.18a.56.56 0 0 1 0-1.12h2.46a.56.56 0 1 1 0 1.12h-2.43Z" style="opacity:.7"/><path class="cls-6" d="M180.37 44.79a12.88 12.88 0 0 0-2.75-.31c-7.63 0-9.92 8.87-9.92 8.87-.16.61-.42.61-.58 0 0 0-.13-.46-.41-1.17a.88.88 0 0 0-.21-.47c-1.11-2.5-3.81-6.87-9.2-6.87a13.72 13.72 0 0 0-2.83.32c-4.09.87-7.07 6.33-6.37 11.7a16.86 16.86 0 0 0 2.19 5.83 1.07 1.07 0 0 0-.71 1 1.12 1.12 0 0 0 1.17 1.06h.76c5.37 8.24 15.05 16.7 15.05 16.7a1.35 1.35 0 0 0 1.73 0s9.88-8.64 15.21-17h.33a1.12 1.12 0 0 0 1.18-1 1 1 0 0 0-.4-.79 16.87 16.87 0 0 0 2.14-5.75c.7-5.53-2.34-11.26-6.38-12.12Z"/><path class="cls-7" d="M179.91 44.33a12.88 12.88 0 0 0-2.75-.31c-7.63 0-9.92 8.87-9.92 8.87-.15.62-.42.62-.58 0 0 0-2.3-8.55-9.83-8.55a13.51 13.51 0 0 0-2.82.31c-4.1.87-7.07 6.34-6.38 11.7 1.25 9.52 18.46 24.56 18.46 24.56a1.35 1.35 0 0 0 1.73 0s17.22-15 18.46-24.56c.72-5.43-2.28-11.16-6.37-12.02Z"/><path d="M168.49 76.11a1.13 1.13 0 0 1-1.12-.92l-2.54-16.77-2.36 9.58a1.16 1.16 0 0 1-1.13.86 1.22 1.22 0 0 1-1.17-.82l-1.26-4.83-.19.4a1.2 1.2 0 0 1-1.08.63h-7.35a1.06 1.06 0 1 1 0-2.11h6.58l1.31-2.67a1.19 1.19 0 0 1 1.07-.63h.12a1.13 1.13 0 0 1 1 .81l.82 3.14 2.7-11.14a1.2 1.2 0 0 1 2.32.07l2.57 16.93 2.22-9.78a1.15 1.15 0 0 1 1.1-.86h.1a1.14 1.14 0 0 1 1.09.68l1.33 3.14h8.75a1.06 1.06 0 1 1 0 2.11h-9.56a1.18 1.18 0 0 1-1.1-.68l-.18-.43-2.84 12.43a1.15 1.15 0 0 1-1.15.84Z" style="fill:#f97b5f"/><path class="cls-5" d="M168.54 75.59a.57.57 0 0 1-.56-.47l-3-20-3.06 12.76a.57.57 0 0 1-.56.43.64.64 0 0 1-.59-.41l-1.65-6.37-.91 1.85a.61.61 0 0 1-.54.31h-7.35a.53.53 0 1 1 0-1h7l1.46-3a.61.61 0 0 1 1.11.09l1.44 5.53 3.23-13.55a.6.6 0 0 1 1.16 0l3 20.09 3-12.87a.57.57 0 0 1 .53-.42.59.59 0 0 1 .59.33l1.48 3.49h9.15a.53.53 0 1 1 0 1.06h-9.56a.61.61 0 0 1-.55-.34l-.9-2.13-3.25 14.2a.58.58 0 0 1-.67.42Z"/><path class="cls-6" d="M139.82 127.47v-2.85h-7.57V99.68a12.47 12.47 0 0 0-12.47-12.47h-17c-.13-.17-.25-.34-.38-.5-.62-.69-1.51-1.12-1.83-2 0 0 .06 0 .08-.08a1.76 1.76 0 0 1-.26-1.81c.38-1.08.65-1.2.36-2.09 1.71-1 3.47-1.8 5.23-2.71s4-1.87 2.94-4.09a15.78 15.78 0 0 0-3.58-4.59c-1.22-1.15-2.27-2.59-3.51-3.76a4.21 4.21 0 0 0-.5-2C100.19 61.55 98 60 97 58a5.37 5.37 0 0 1-1.33-2.61c.94-.81 2-1.4 2.5-2.57a6.14 6.14 0 0 0 .25-4.09c2-.06 2 1.92 2.51 3.67s2.1 3 1.32 5a8.3 8.3 0 0 0 1.5-7.85c-.89-2.32-3.77-4-5.77-2A5.79 5.79 0 0 0 95.84 45a7.22 7.22 0 0 0-8.27.6 2.46 2.46 0 0 1 .54 0c-1.86 1.8-2.51 5.29-2.28 7.74.12 1.08.36 3.42 1.44 4 .69.38 1.84 0 2.85-.47a7.16 7.16 0 0 1 1.34 4 27.76 27.76 0 0 0-2.31 2.6c-1 1.24-2.36 2.31-2.79 4a8.37 8.37 0 0 0-.17 3.11 17.58 17.58 0 0 0 1.34 3.61 12.24 12.24 0 0 1 .76 3.18A9.93 9.93 0 0 1 83.73 75c-.4-.56-.57-1.22-1.3-1.59A5 5 0 0 0 79.3 73c-.61.15-1.29.47-1.9.69s-1.08.32-1.15.86a6.16 6.16 0 0 0 1.25 2.93 2.28 2.28 0 0 0 2.44 1.22c1 0 2-.3 3-.33 2.12.33 3.69 1.7 5.55 2.74 0 .17.08.35.11.53-.9.61-2.75 1.29-2 2.58a4.71 4.71 0 0 0 1.26 1.51 2.4 2.4 0 0 0 1.2.17c0 .45 0 .89.05 1.33a2.7 2.7 0 0 0 .8-.14.66.66 0 0 0 0 .14H80.5a12.32 12.32 0 0 0-5.61 1.35l.21-.22L61.51 75.1l-3.2 3.28L62 82v42.6h-1.54v2.85a6.25 6.25 0 1 0 0 12.49v2.84h79.36V140a6.25 6.25 0 0 0 0-12.49ZM100.43 71c1 .89 2.49 1.47 3.2 2.63a25.7 25.7 0 0 0-3.76 3.76 17.32 17.32 0 0 1 .56-6.39Zm-29 20.2a12.32 12.32 0 0 0-1.08 1.31v-2.4Zm.91 33.46V99.68a8.18 8.18 0 0 1 8.17-8.17H90c0 .16 0 .33-.06.48s0 .05 0 .08a12.76 12.76 0 0 1-1 2.81l-.08.17a20.25 20.25 0 0 1-1.55 2.63l-.23.34c-.3.42-.61.85-.95 1.29a6.27 6.27 0 0 0 .87.69c-.63 1.51-1.45 4.4-1.91 5.6-.76 2.37-1.83 4.41-1.83 7 0 1.93.64 3.76.75 5.7.09 2.18 0 4.23.07 6.3Zm18.18 0a22.64 22.64 0 0 0-.43-8c-1-4.12 2-7 4.29-10.26 1.31 3.67 2.09 7.74 4.31 10.79 1.51 2.05 4 2.58 6 4a13.66 13.66 0 0 1 3.52 3.51Zm25.37 0a23.08 23.08 0 0 0-10-10.07c-3.34-1.62-2.22-7.7-2.82-11.59l.15-.07h.12c1.22-.65.58-.94.29-2.08-.51-2.15.07-4.59.5-6.67a8.37 8.37 0 0 0 .32-2.58h15.33a8.19 8.19 0 0 1 8.22 8.08v24.94Z"/><path class="cls-9" d="M95.89 56.83A46.6 46.6 0 0 0 91.27 59a9.38 9.38 0 0 0-.91.73 7.15 7.15 0 0 0-1.34-4c-1 .51-2.16.85-2.85.47-1.08-.6-1.32-2.94-1.44-4-.24-2.45.42-5.94 2.28-7.74a4.74 4.74 0 0 1 2.45 1.81c.9 1 .9 2.1 1.5 3.24.78-.48 1.62-.66 2.1.36s-.23 1.34-.75 1.92a3.75 3.75 0 0 0 2.08 1.48 7.06 7.06 0 0 0 .17 1 5.46 5.46 0 0 0 1.33 2.56Zm-.64 25.91c-1.13.43-3-.64-4-1.07s-2.09-.86-3.17-1.35c-.24-.11-.46-.23-.69-.35-1.86-1-3.43-2.41-5.55-2.74-1 0-2.06.33-3 .33a2.28 2.28 0 0 1-2.44-1.22 6.16 6.16 0 0 1-1.25-2.93c.07-.54.64-.69 1.15-.87s1.28-.53 1.9-.68a4.94 4.94 0 0 1 3.11.43c.74.37.91 1 1.31 1.59a9.93 9.93 0 0 0 4.58 2.36 19.64 19.64 0 0 0 4.29.57 24.38 24.38 0 0 1-1.11-7c.54.22 1.56-.38 2.15-.43s1.24-.06 1.83-.11a3.18 3.18 0 0 0 1.1-.19 44 44 0 0 1 .65 6.92c.11 1.9 1.72 5.77-.86 6.74Z"/><path class="cls-5" d="m95.58 69-.09.08a3.18 3.18 0 0 1-1.1.19c-.59 0-1.24 0-1.83.11s-1.61.65-2.15.43c-.71-.33-.66-2.41-.76-3.15-.31-1.81-.77-5.59 1.76-6.09 2.14-1.51 3.88 2.58 4.15 4.15a15.68 15.68 0 0 1-.06 2.74c-.04.33.29 1.3.08 1.54Z"/><path class="cls-10" d="M99.31 69.84a17.32 17.32 0 0 0-.56 6.39 11 11 0 0 0 .75 2.91 4 4 0 0 1 .14.41c.29.89 0 1-.36 2.09a1.77 1.77 0 0 0 .26 1.82l-.08.08c-1.39 1.18-4.34 1.12-6 1.33-.94.15-1.94.21-2.87.43-.54.15-1.18.46-1.79.65a2.58 2.58 0 0 1-.79.14v-1.33a33.63 33.63 0 0 0-.46-4.26c0-.18-.07-.36-.11-.53.23.12.45.24.69.35 1.08.49 2.1 1 3.17 1.35s2.85 1.5 4 1.07c2.58-1 1-4.84.86-6.72a44 44 0 0 0-.62-6.91l.09-.08c.21-.27-.12-1.24-.12-1.56a15.68 15.68 0 0 0 .06-2.74c-.27-1.57-2-5.66-4.15-4.15-2.53.5-2.07 4.28-1.76 6.09.1.74 0 2.82.76 3.15a24.38 24.38 0 0 0 1.11 7 19.64 19.64 0 0 1-4.29-.57 12.66 12.66 0 0 0-.76-3.18 17.22 17.22 0 0 1-1.34-3.61 8.64 8.64 0 0 1 .16-3.12c.43-1.66 1.83-2.74 2.8-4a27.86 27.86 0 0 1 2.31-2.61 9.38 9.38 0 0 1 .91-.73 46.6 46.6 0 0 1 4.62-2.2c1 2 3.18 3.6 4.33 5.61a4.21 4.21 0 0 1 .5 2 7.4 7.4 0 0 1-.5 2.61 25.79 25.79 0 0 0-.96 2.82Z"/><path d="M101.15 56.2c.78-2-.84-3.17-1.32-5s-.48-3.73-2.51-3.67a6.14 6.14 0 0 1-.25 4.09c-.52 1.17-1.56 1.76-2.51 2.57a7.06 7.06 0 0 1-.17-1 3.75 3.75 0 0 1-2.08-1.48c.52-.58 1.17-1 .75-1.92s-1.32-.79-2.06-.3c-.6-1.14-.6-2.28-1.5-3.24a4.74 4.74 0 0 0-2.5-1.81 2 2 0 0 0-.54 0 7.22 7.22 0 0 1 8.27-.6 5.79 5.79 0 0 1 2.14 2.55c2-2 4.88-.32 5.76 2a8.27 8.27 0 0 1-1.48 7.81Z" style="fill:#91735a"/><path class="cls-9" d="M104.87 76.85c-1.76.91-3.52 1.7-5.23 2.7a4 4 0 0 0-.14-.41 11 11 0 0 1-.75-2.91 25.7 25.7 0 0 1 3.76-3.76c-.71-1.16-2.18-1.74-3.2-2.63a25.79 25.79 0 0 1 .91-2.82 7.4 7.4 0 0 0 .5-2.61c1.24 1.16 2.29 2.6 3.51 3.76a15.78 15.78 0 0 1 3.58 4.59c1.07 2.24-1.22 3.29-2.94 4.09Z"/><path class="cls-12" d="M103 93c-.43 2.08-1 4.52-.5 6.67.29 1.14.93 1.43-.29 2.07a.67.67 0 0 1-.12.06l-.15.06a9.22 9.22 0 0 1-2.31.53 41.4 41.4 0 0 1-5 .72 8.47 8.47 0 0 1-2.29-.11 1 1 0 0 1-.23-.11c-.64-.36-.71-1.36-.93-2 0-.16-.09-.32-.13-.48a10.14 10.14 0 0 1-5.12-1.46 6.19 6.19 0 0 1-.85-.7c3.09-4 4.64-7.36 3.76-12.24.61-.19 1.25-.5 1.79-.65.93-.22 1.93-.28 2.87-.43 1.64-.21 4.59-.15 6-1.33.32.93 1.21 1.36 1.83 2a10.14 10.14 0 0 1 1.57 2.72A6.9 6.9 0 0 1 103 93Z"/><path class="cls-9" d="M114.76 123.5h-7.66a13.66 13.66 0 0 0-3.52-3.51c-2-1.4-4.51-1.94-6-4-2.23-3.05-3-7.12-4.31-10.79a23.49 23.49 0 0 0-.91-2.25 8.47 8.47 0 0 0 2.29.11 41.4 41.4 0 0 0 5-.72 9.22 9.22 0 0 0 2.31-.53c.6 3.9-.52 10 2.81 11.6a23 23 0 0 1 9.99 10.09Z"/><path class="cls-9" d="M89 115.47a22.7 22.7 0 0 1 .43 8H83c-.1-2.07 0-4.12-.07-6.31-.11-1.93-.75-3.76-.75-5.69 0-2.58 1.07-4.63 1.83-7 .46-1.2 1.28-4.09 1.91-5.6a10.14 10.14 0 0 0 5.12 1.46c0 .16.09.32.13.48.22.65.29 1.65.93 2a1 1 0 0 0 .23.11 23.49 23.49 0 0 1 .91 2.25C91 108.48 88 111.35 89 115.47Zm-1-30.71a2.4 2.4 0 0 1-1.2-.17 4.59 4.59 0 0 1-1.26-1.51c-.75-1.29 1.1-2 2-2.58a33.63 33.63 0 0 1 .46 4.26Z"/><path style="fill:#ccc" d="M69.22 88.99v34.51h-8.3V80.89l8.3 8.1z"/><path class="cls-14" d="m73.97 87.22-3.2 3.28-1.55-1.51-8.3-8.1-3.73-3.63 3.2-3.28 13.58 13.24z"/><path class="cls-10" d="M131.13 98.56v24.94h-4.31V98.56a8.18 8.18 0 0 0-8.17-8.17H79.38a8.18 8.18 0 0 0-8.17 8.17v24.94h-4.3V98.56a12.47 12.47 0 0 1 12.47-12.47h39.27a12.47 12.47 0 0 1 12.48 12.47Z"/><path d="M144.94 132.59a6.24 6.24 0 0 1-6.24 6.25v-12.49a6.24 6.24 0 0 1 6.24 6.24Zm-85.6-6.24v12.49a6.25 6.25 0 1 1 0-12.49Z" style="fill:#919191"/><path class="cls-16" d="M59.34 128.13v8.93a4.47 4.47 0 1 1 0-8.93Z"/><path class="cls-10" d="M59.34 123.5h79.36v18.18H59.34z"/><path class="cls-16" d="M143.16 132.59a4.47 4.47 0 0 1-4.46 4.47v-8.93a4.46 4.46 0 0 1 4.46 4.46Z"/><g class="cls-17"><path class="cls-14" d="M104.87 76.85c-1.76.91-3.52 1.7-5.23 2.7a4 4 0 0 0-.14-.41 11 11 0 0 1-.75-2.91 25.7 25.7 0 0 1 3.76-3.76c-.71-1.16-2.18-1.74-3.2-2.63a25.79 25.79 0 0 1 .91-2.82 7.4 7.4 0 0 0 .5-2.61c1.24 1.16 2.29 2.6 3.51 3.76a15.78 15.78 0 0 1 3.58 4.59c1.07 2.24-1.22 3.29-2.94 4.09Z"/></g><path class="cls-14" d="M91.05 100.37a10.19 10.19 0 0 1-5.12-1.46 6.27 6.27 0 0 1-.85-.71c2-2.67 3.41-5 3.86-7.71 0 1.96 1.15 6.64 2.11 9.88Z" style="opacity:.36;mix-blend-mode:multiply"/><g class="cls-17"><path class="cls-14" d="M89 115.47a22.7 22.7 0 0 1 .43 8H83c-.1-2.07 0-4.12-.07-6.31-.11-1.93-.75-3.76-.75-5.69 0-2.58 1.07-4.63 1.83-7 .46-1.2 1.28-4.09 1.91-5.6a10.14 10.14 0 0 0 5.12 1.46c0 .16.09.32.13.48.22.65.29 1.65.93 2a1 1 0 0 0 .23.11 23.49 23.49 0 0 1 .91 2.25C91 108.48 88 111.35 89 115.47Z"/></g><g class="cls-19"><path class="cls-3" d="M93.66 173.2c5.72-.52 7.18-1.43 10.57-2.8 2.61-1.06 3.6.11 7.72.2a17.45 17.45 0 0 0 7.73-1.68v-2.85a43.63 43.63 0 0 0-.38-7s0-.06 0-.1c-.35-2.65-1.36-3-2.27-1.94-.55.61-.76 4.22-4.15 3.21a6.79 6.79 0 0 1-3.2-2.47c-.23-.29-.43-.52-.62-.73a1.14 1.14 0 0 0 .64-1.43c-.69-1.88-2-4-5.12-1.77l-.78.54a1.37 1.37 0 0 0-1 .59h.06c-.6.39-1.22.77-1.85 1.14a1.48 1.48 0 0 0-1 .6l-1.58.86a1.39 1.39 0 0 0-1.19.61c-.56.29-1.13.57-1.68.84a1.31 1.31 0 0 0-1.1.52l-2.06.93-.19.06c-1.5.56-2 .89-4.11 1.7a37.33 37.33 0 0 1-4.56 1.15 4.08 4.08 0 0 0-.88.37 2.69 2.69 0 0 0-1.24 2.25l-.24 2.25A17.74 17.74 0 0 0 85 171.6c1.48 1.04 4.25 2 8.66 1.6Zm28.42 10.54a44.67 44.67 0 0 0-1.47-6.82v-.09c-.76-2.57-1.81-2.72-2.54-1.57-.45.69-.09 4.29-3.6 3.82a6.8 6.8 0 0 1-3.55-1.94c-.27-.25-.5-.45-.72-.62a1.16 1.16 0 0 0 .41-1.52c-1-1.75-2.62-3.6-5.34-.94l-.68.65a1.37 1.37 0 0 0-.89.74h.07c-.54.48-1.09 1-1.66 1.42a1.44 1.44 0 0 0-.94.75l-1.42 1.1a1.4 1.4 0 0 0-1.09.78l-1.54 1.08a1.35 1.35 0 0 0-1 .69c-.65.43-1.28.85-1.89 1.24l-.17.09c-1.4.79-1.88 1.2-3.8 2.32a37.85 37.85 0 0 1-4.32 1.85 4.2 4.2 0 0 0-.82.51 2.67 2.67 0 0 0-.83 2.33l.12 2.25a17.39 17.39 0 0 0 4.32 2.72c1.62.81 4.5 1.32 8.79.23 5.57-1.4 6.87-2.53 10-4.42 2.42-1.45 3.58-.45 7.66-1a17.5 17.5 0 0 0 7.37-2.86Z"/></g><path class="cls-12" d="M83.21 162.55s12-3.92 20.22-9.77c3.1-2.2 4.43-.11 5.12 1.76.56 1.53-2.16 2-2.16 2s-20.1 8.21-21.93 8.49-1.25-2.48-1.25-2.48Z"/><path class="cls-5" d="M114.4 160.07a8.33 8.33 0 0 0 3.74-2.16c-.35-2.65-1.35-3-2.26-1.94-.55.61-.76 4.22-4.15 3.21a6.79 6.79 0 0 1-3.2-2.47c-1.14-1.43-1.65-1.8-2.66-1.45.85.92 1.86 2.1 2.92 3.29a5.83 5.83 0 0 0 5.61 1.52Zm-5.69 8.17a11.35 11.35 0 0 0-.48-5.29 12.47 12.47 0 0 0-3-4.08 25.66 25.66 0 0 1-1.87-1.82C101 158.26 96 160.89 93 160.83a2.6 2.6 0 0 1-2-1.34c-1.5.56-2 .89-4.11 1.7a39.79 39.79 0 0 1-4.56 1.15 38.56 38.56 0 0 0 3.2 3 8.15 8.15 0 0 0 5.8 1.66c1.53-.24 5.13-.89 6.65 1a4.53 4.53 0 0 1 1.09 2.34l.41-.18c5.41-2.58 6.88-1.49 10.45-1.68 4.54-.25 7.48-.26 8.34-2.16a78.75 78.75 0 0 1-9.56 1.92Z"/><path class="cls-20" d="M118.16 158v-.1a8.33 8.33 0 0 1-3.74 2.16 5.83 5.83 0 0 1-5.61-1.52c-1.06-1.19-2.07-2.37-2.92-3.29a5.07 5.07 0 0 0-.64.26l-2.31 1.11c-5 2.4-6.33 3-7.94 3.44-2.47.73-3.21-.84-3.21-.84l-.73.26a2.6 2.6 0 0 0 2 1.34c3 .06 8-2.57 10.32-3.78a25.66 25.66 0 0 0 1.87 1.82 12.47 12.47 0 0 1 3 4.08 11.35 11.35 0 0 1 .48 5.29 78.75 78.75 0 0 0 9.56-2 3.36 3.36 0 0 0 .24-.83 39.64 39.64 0 0 0-.37-7.4Zm-26.83 9a8.15 8.15 0 0 1-5.76-1.61 38.56 38.56 0 0 1-3.2-3 3.88 3.88 0 0 0-.88.37 3 3 0 0 0-1.23 2.46c-.25 1.84.78 3.23 3.37 4.55 4.48 2.28 12 1.92 15.44.54a4.53 4.53 0 0 0-1.07-2.39c-1.54-1.85-5.14-1.2-6.67-.92Z"/><path class="cls-21" d="M80.28 164.87s1.63 1.41 2.57 2.09c1.59 1.14 1.53 3 6.24 3 4.33 0 5.5-.18 7.81-1 4.28-1.52 5.73-3.1 10.09-2.56 9.09 1.12 11.57-1.41 11.57-1.41v2.85a17.61 17.61 0 0 1-7.73 1.68c-4.12-.09-5.11-1.26-7.72-.2-3.39 1.37-4.85 2.28-10.57 2.8-4.41.4-7.18-.56-8.65-1.6a18 18 0 0 1-3.89-3.4Z"/><path class="cls-22" d="M93.17 158.61a6.12 6.12 0 0 1 2.06 2.09c1 1.56 1.56.55 1.38 0s-1.69-4.18-3.44-2.09Zm2.89-1.47a7.2 7.2 0 0 1 2.4 2.29c1 1.55 1.56.55 1.37 0s-2.02-4.43-3.77-2.29Zm2.76-1.47a8 8 0 0 1 2.88 2.46c1 1.55 1.55.55 1.37 0s-2.5-4.56-4.25-2.46Zm2.84-1.76a6.84 6.84 0 0 1 3.41 2.8c1.05 1.52 1.55.55 1.37 0s-3.1-4.99-4.78-2.8Z"/><path class="cls-12" d="M85.67 185.77S96.88 180 104.11 173c2.72-2.66 4.36-.81 5.34.94.79 1.42-1.83 2.32-1.83 2.32S89.05 187.47 87.29 188s-1.62-2.23-1.62-2.23Z"/><path class="cls-5" d="M116.08 178.44a8.48 8.48 0 0 0 3.37-2.71c-.76-2.57-1.81-2.72-2.55-1.57-.44.69-.08 4.29-3.59 3.82a6.8 6.8 0 0 1-3.55-1.94c-1.34-1.23-1.91-1.51-2.85-1 1 .78 2.16 1.79 3.4 2.8a5.8 5.8 0 0 0 5.77.6Zm-4.34 8.96a11.31 11.31 0 0 0-1.3-5.15 12.43 12.43 0 0 0-3.64-3.55c-.54-.32-1.44-1-2.13-1.5-2.12 1.55-6.62 4.93-9.6 5.34a2.6 2.6 0 0 1-2.14-1c-1.4.79-1.88 1.2-3.8 2.32a38.63 38.63 0 0 1-4.32 1.85 38.63 38.63 0 0 0 3.63 2.48 8.22 8.22 0 0 0 5.94.68c1.47-.48 4.93-1.67 6.72-.09a4.48 4.48 0 0 1 1.44 2.14l.38-.24c4.93-3.4 6.56-2.55 10.06-3.29 4.44-1 7.34-1.42 7.89-3.44a78.14 78.14 0 0 1-9.13 3.45Z"/><path class="cls-20" d="M119.48 175.82v-.09a8.48 8.48 0 0 1-3.37 2.71 5.8 5.8 0 0 1-5.77-.62c-1.24-1-2.42-2-3.4-2.8-.18.1-.37.21-.59.36l-2.11 1.46c-4.55 3.15-5.79 3.92-7.31 4.64-2.32 1.11-3.29-.33-3.29-.33l-.68.37a2.6 2.6 0 0 0 2.14 1c3-.41 7.48-3.79 9.6-5.34.69.52 1.59 1.18 2.13 1.5a12.43 12.43 0 0 1 3.64 3.55 11.31 11.31 0 0 1 1.3 5.15 78.14 78.14 0 0 0 9.13-3.47 2.89 2.89 0 0 0 .11-.86 39.74 39.74 0 0 0-1.53-7.23Zm-25.1 13.03a8.22 8.22 0 0 1-5.94-.68 38.63 38.63 0 0 1-3.63-2.48 4.2 4.2 0 0 0-.82.51 2.92 2.92 0 0 0-.82 2.62c0 1.85 1.27 3.06 4 4 4.78 1.56 12.18 0 15.34-1.88a4.48 4.48 0 0 0-1.44-2.14c-1.76-1.62-5.22-.43-6.69.05Z"/><path class="cls-21" d="M83.14 188.52s1.86 1.14 2.86 1.66c1.75.87 2 2.68 6.63 1.95 4.27-.68 5.4-1 7.56-2.21 4-2.18 5.17-4 9.56-4.11 9.15-.31 11.21-3.19 11.21-3.19l.44 2.8a17.44 17.44 0 0 1-7.37 2.87c-4.08.56-5.24-.44-7.66 1-3.13 1.89-4.43 3-10 4.42-4.29 1.09-7.17.57-8.79-.23a17.39 17.39 0 0 1-4.32-2.72Z"/><path class="cls-22" d="M94.89 180.32a6.09 6.09 0 0 1 2.37 1.74c1.23 1.38 1.62.3 1.35-.21s-2.31-3.85-3.72-1.53Zm2.62-1.91a7.18 7.18 0 0 1 2.73 1.89c1.24 1.38 1.63.3 1.36-.21s-2.68-4.02-4.09-1.68Zm2.49-1.88a8.06 8.06 0 0 1 3.23 2c1.24 1.38 1.62.3 1.35-.21s-3.17-4.13-4.58-1.79Zm2.54-2.18a6.81 6.81 0 0 1 3.8 2.23c1.28 1.34 1.63.3 1.36-.21s-3.84-4.45-5.16-2.02Z"/><g class="cls-19"><path class="cls-3" d="M121.39 13.58h-1.32v.72h-2.79v.57h-.73V14h-2.44v9.23h.53v10a2.92 2.92 0 0 1-2.92 2.92H85.87A2.92 2.92 0 0 1 83 33.23V7.52a2.93 2.93 0 0 1 2.92-2.93H104a2.93 2.93 0 0 1 2.92 2.93v18.2a2.92 2.92 0 0 1-2.92 2.92h-2.49V28h2.09V13.55h.4V7.1H86v6.45h.44V28h11.83v1.21H104a3.45 3.45 0 0 0 3.44-3.45V7.52A3.44 3.44 0 0 0 104 4.07H85.87a3.44 3.44 0 0 0-3.44 3.45v25.71a3.45 3.45 0 0 0 3.44 3.45h25.85a3.46 3.46 0 0 0 3.45-3.45v-10h1.38v-4.6h.73v2.93h2.79v.72h1.32a2.24 2.24 0 0 0 2.24-2.28v-4.18a2.24 2.24 0 0 0-2.24-2.24Z"/><path class="cls-3" d="M109.83 30.59a2.92 2.92 0 0 1-2.92 2.92H83.15V34h23.76a3.45 3.45 0 0 0 3.45-3.45v-17h1.23V8.94h.72v2.93h2.8v.72h1.32a2.24 2.24 0 0 0 2.24-2.24V6.14a2.24 2.24 0 0 0-2.24-2.24h-1.32v.72h-2.8v.57h-.72v-.86h-2.44v9.22h.68v17Z"/></g><path style="fill:#98a6b7" d="M97.15 26.07h3.19v1.98h-3.19z"/><path class="cls-12" d="M85.3 6.25h17.13v20.58H85.3z"/><path class="cls-21" d="M93.87 13.42a5.75 5.75 0 1 0 5.75 5.75 5.75 5.75 0 0 0-5.75-5.75Zm0 9a3.29 3.29 0 1 1 3.29-3.29 3.29 3.29 0 0 1-3.29 3.33Z"/><path class="cls-20" d="M84.86 5.98h17.98v6.46H84.86z"/><path class="cls-12" d="M84.86 5.98h17.98v2.31H84.86z"/><path class="cls-5" d="M93.94 17.12V20s-.89-1.58-1.74-.69.22 2.17 2.24 1.65v-2.87s1.64 0 1.25 1.21c0 0 1.46-1.66-1.75-2.18ZM86.42 9.8v1.61l1.31-.8-1.31-.81zm7.8 0h.46v1.61h-.46zm-2.95 0v1.61l-1.31-.8 1.31-.81zm1.61 0v1.61l-1.32-.8 1.32-.81zm-4.05 0h.46v1.61h-.46zm9.93 0v1.61l1.31-.8-1.31-.81zm-1.61 0v1.61l1.32-.8-1.32-.81zm3.59 0h.46v1.61h-.46zm-5.54 0h.46v1.61h-.46z"/><path class="cls-5" d="M110.6 35.56H84.75a3.46 3.46 0 0 1-3.45-3.45V6.39A3.45 3.45 0 0 1 84.75 3h18.07a3.44 3.44 0 0 1 3.45 3.44V24.6a3.45 3.45 0 0 1-3.45 3.45h-4.06v-.53h4.06a2.93 2.93 0 0 0 2.93-2.92V6.39a2.93 2.93 0 0 0-2.93-2.92H84.75a2.92 2.92 0 0 0-2.92 2.92v25.72A2.92 2.92 0 0 0 84.75 35h25.85a2.92 2.92 0 0 0 2.92-2.92V21.85h.53v10.26a3.46 3.46 0 0 1-3.45 3.45Z"/><path class="cls-20" d="M112.99 12.89h2.44v9.22h-2.44z"/><path class="cls-20" d="M114.84 13.75h1.48v3.76h-1.48z"/><path class="cls-20" d="M116.15 13.18h3.49v7.26h-3.49z"/><path class="cls-5" d="M120.27 21.16H119v-8.7h1.32a2.24 2.24 0 0 1 2.24 2.24v4.22a2.24 2.24 0 0 1-2.29 2.24Z"/><path class="cls-20" d="M108.03 3.21h2.44v9.22h-2.44z"/><path class="cls-20" d="M109.87 4.07h1.48v3.76h-1.48z"/><path class="cls-20" d="M111.19 3.5h3.49v7.26h-3.49z"/><path class="cls-5" d="M115.31 11.47H114V2.78h1.32A2.24 2.24 0 0 1 117.55 5v4.23a2.24 2.24 0 0 1-2.24 2.24Zm-9.52 21.45H82v-.53h23.76a2.92 2.92 0 0 0 2.92-2.92v-17h.53v17a3.46 3.46 0 0 1-3.42 3.45Z"/><path class="cls-25" d="M100.34 26.84h2.09V19.7H85.3v7.14h11.85v1.21h5.32v-.53h-2.13v-.68z" style="opacity:.55;mix-blend-mode:multiply"/><path class="cls-25" d="M113 16.5v5.62h.53v2.55h.53v-2.55h1.38v-4.61h.72v2.93H119v.72h1.32a2.24 2.24 0 0 0 2.24-2.24V16.5Zm-5-9.71v5.64h.68v2.31h.53v-2.31h1.23V7.82h.72v2.93H114v.72h1.32a2.24 2.24 0 0 0 2.24-2.24V6.79Z" style="opacity:.62;mix-blend-mode:multiply"/><path class="cls-6" d="M176.45 124.44a.36.36 0 0 0-.07-.1.53.53 0 0 0-.3-.17 4.24 4.24 0 0 1-1.62-2.4 2.45 2.45 0 0 1 0-.9q0-.18.09-.33a1.47 1.47 0 0 1 .12-.28.39.39 0 0 0 .11-.06l.15-.1a.76.76 0 0 0 .09-.09l.11-.16v-.09a.81.81 0 0 0 .06-.31v-3.05a.45.45 0 0 0-.19-.4l-4-2v-2.2a.6.6 0 0 0-.6-.6h-3.92a.6.6 0 0 0-.6.6v2.2l-4.13 2a.46.46 0 0 0-.26.41v1.69h-3.17a.93.93 0 0 0-.9 1v8.25a.93.93 0 0 0 .9 1h1.93v24.56a1.46 1.46 0 0 0 1.46 1.47H175a1.46 1.46 0 0 0 1.46-1.47v-28.28a.58.58 0 0 0-.01-.19Zm-16.61 2.38a1.11 1.11 0 0 1-1.07-1.14v-4.84a1.11 1.11 0 0 1 1.07-1.14h1.7a.86.86 0 0 0 .46.46c.33.63.76 2.18-1.4 4a.53.53 0 0 0-.33.27.46.46 0 0 0 0 .21v2.19Z"/><path class="cls-5" d="M156.27 117.93v8.24a.94.94 0 0 0 .9 1h5.1a.94.94 0 0 0 .9-1v-8.24a.93.93 0 0 0-.9-1h-5.1a.93.93 0 0 0-.9 1Zm4.57 7.77h-2.12a1.12 1.12 0 0 1-1.08-1.14v-4.84a1.12 1.12 0 0 1 1.08-1.14h2.12a1.11 1.11 0 0 1 1.07 1.14v4.84a1.11 1.11 0 0 1-1.07 1.14Z"/><path class="cls-5" d="M173.74 118.73h-13.06s1.76 2.09-1.54 4.56v1.58h16.14v-1.58c-3.28-2.47-1.54-4.56-1.54-4.56Z"/><path class="cls-12" d="M173.9 153.17h-13.34a1.47 1.47 0 0 1-1.47-1.47v-28.2a.52.52 0 0 1 .52-.51h15.23a.51.51 0 0 1 .52.51v28.2a1.46 1.46 0 0 1-1.46 1.47Zm-13.56-37.56v2.62a.87.87 0 0 0 .87.87h12a.87.87 0 0 0 .87-.87v-2.62Zm9.51-2.53h-5.12v-2.4a.6.6 0 0 1 .6-.6h3.92a.6.6 0 0 1 .6.6Z"/><circle class="cls-20" cx="167.19" cy="136.9" r="6.56"/><path class="cls-5" d="M169.54 138.11a2.26 2.26 0 0 1-4.51 0c0-1.25 2.26-5.08 2.26-5.08s2.25 3.83 2.25 5.08Z"/><path class="cls-21" d="M169.85 112.9h-5.12l-4.13 2a.46.46 0 0 0-.26.41v.44h13.77v-.44a.46.46 0 0 0-.25-.41Z"/><path class="cls-27" d="M174.93 123c-2.13-1.77-1.72-3.31-1.39-4a.87.87 0 0 0 .57-.82v-3a.46.46 0 0 0-.25-.41l-4-2v-2.22a.6.6 0 0 0-.6-.6h-2v43.09h6.62a1.46 1.46 0 0 0 1.46-1.47V123.5a.52.52 0 0 0-.41-.5Z"/><path class="cls-6" d="m37.78 153.49.45-.14h.06A6.63 6.63 0 0 0 39 153l.37-.23a1.72 1.72 0 0 0 .18-.13l.11-.08c14.65-17.39 8.7-25.17 8.7-25.17-.24-.32-.48-.62-.71-.9-.08-.09-.16-.17-.23-.26l-.48-.53-.27-.27c-.15-.14-.29-.29-.44-.42l-.28-.24c-.14-.13-.28-.24-.42-.35l-.29-.21c-.14-.11-.28-.2-.42-.29l-.27-.17a4.17 4.17 0 0 0-.46-.26l-.22-.12c-.2-.1-.39-.18-.59-.26h-.09l-.67-.21h-.17l-.49-.11h-1.52a2.69 2.69 0 0 0-.4 0h-.22l-.41.07h-.18a3.89 3.89 0 0 0-.49.12h-.09l-.57.19h-.06l-.48.2-.15.07-.37.18-.17.09-.34.19-.16.1-.32.2-.15.1-.31.22-.13.09c-.12.08-.23.17-.34.26h-.07c-.28.22-.53.44-.76.65l-.08.07-.25.23-.09.1-.2.2-.1.09-.17.19-.08.08-.16.18-.06.06-.14.17a15.44 15.44 0 0 0-1-5c1.54-.25 7.06-1.66 4.5-8.84 0 0-5.4.11-5 7.75a17.32 17.32 0 0 0-5.82-6.66l-.27.61c.07 0 6.57 4.46 7 12.11-1.57-1.86-8.52-9-15.57.42 0 0-6 7.78 8.7 25.17 0 0 3.91 3.34 7.2-2 .11.17.21.31.32.46s.2.31.3.43.18.2.27.31.24.29.36.41l.2.17a4.72 4.72 0 0 0 .43.37 1.74 1.74 0 0 0 .18.11 3.79 3.79 0 0 0 .45.29l.13.05a3.44 3.44 0 0 0 .49.21h.12l.47.12h.62a4 4 0 0 0 1-.12Z"/><path class="cls-28" d="M31.66 127H31c.24-8.36-6.92-13.22-7-13.25l.27-.61c.09.05 7.66 4.72 7.39 13.86Z"/><path class="cls-28" d="M35.09 112.06s-6 .1-4.9 8.89c0 .05 7.81-.59 4.9-8.89Z"/><path d="m35.09 112.06-4.9 8.94s7.81-.64 4.9-8.94Z" style="fill:#a8aaab;opacity:.75;mix-blend-mode:multiply"/><path class="cls-7" d="M47.22 126.28c-8-10.75-15.91 0-15.91 0s-7.89-10.75-15.9 0c0 0-5.95 7.78 8.7 25.18 0 0 3.91 3.34 7.2-2 3.29 5.32 7.21 2 7.21 2 14.65-17.4 8.7-25.18 8.7-25.18Z"/><path class="cls-27" d="M47.22 126.28c-7-9.45-14-2.28-15.57-.41l-.33.41v23.21c3.29 5.31 7.2 2 7.2 2 14.65-17.43 8.7-25.21 8.7-25.21Z"/><path class="cls-5" d="M42.91 129.19c-5.62-7.54-11.15-.59-11.57 0v17c2.39 3.81 5.23 1.4 5.23 1.4 10.67-12.73 6.34-18.4 6.34-18.4Z"/><path d="M36.75 130.73a1.48 1.48 0 1 1-1.48-1.48 1.48 1.48 0 0 1 1.48 1.48Zm0 11.27a1.48 1.48 0 1 1-1.48-1.48 1.48 1.48 0 0 1 1.48 1.48Zm2.96-5.86a1.48 1.48 0 1 1-1.48-1.48 1.48 1.48 0 0 1 1.48 1.48Z" style="fill:#4c5c69"/><path class="cls-6" d="M45.72 48.59A4.27 4.27 0 0 0 41.46 44h-25a4.26 4.26 0 0 0-4.26 4.59l2.16 28.73a4.26 4.26 0 0 0 4.26 4H39.3a4.26 4.26 0 0 0 4.26-4l.12-1.63Z"/><path class="cls-21" d="M38.18 80.15H17.51a4.26 4.26 0 0 1-4.26-4l-2.16-28.68a4.26 4.26 0 0 1 4.26-4.59h25a4.26 4.26 0 0 1 4.26 4.59L42.44 76.2a4.27 4.27 0 0 1-4.26 3.95Z"/><path class="cls-20" d="M36.59 77.39H19A3.64 3.64 0 0 1 15.34 74L13.5 49.54a3.64 3.64 0 0 1 3.63-3.92h21.3a3.65 3.65 0 0 1 3.64 3.92L40.23 74a3.65 3.65 0 0 1-3.64 3.39Z"/><path class="cls-12" d="M33.87 54.39a6.09 6.09 0 1 1-6.09-6.09 6.09 6.09 0 0 1 6.09 6.09Z"/><path class="cls-5" d="M32.16 54.39A4.38 4.38 0 1 1 27.78 50a4.38 4.38 0 0 1 4.38 4.39Zm-4.94 7.12h1.13v13.96h-1.13z"/><path class="cls-31" d="M28.72 54.39a.94.94 0 1 1-.94-.94.94.94 0 0 1 .94.94Z"/><path class="cls-31" d="M27.55 50.9h.46v2.97h-.46z"/><path class="cls-31" d="M27.22 51.51h1.13l-.57-1.06-.56 1.06z"/><path d="M40.34 42.88H27.67v37.27h10.51a4.28 4.28 0 0 0 4.26-4l2.16-28.68a4.26 4.26 0 0 0-4.26-4.59Z" style="opacity:.62;fill:#cdcfd0;mix-blend-mode:multiply"/><g class="cls-33"><path class="cls-3" d="M12.85 108a1.11 1.11 0 0 1-.89.5 1.14 1.14 0 0 1-.89-.44c-.48-.63-1.22-1.65-1.76-2.39l-.2-.27-.46-.63a1.13 1.13 0 0 1 .18-1.58 1.18 1.18 0 0 1 .7-.24 1.11 1.11 0 0 1 .88.43c.06.07.26.35.57.78l.93 1.27 3.39-5.1a5.65 5.65 0 0 0-3.57-1.24 4.85 4.85 0 1 0 0 9.64 5.11 5.11 0 0 0 5.35-4.82 4.29 4.29 0 0 0-.34-1.69Z"/><path class="cls-3" d="M18.5 108.46V97.25c0-3.33-3.86-4.55-3.86-4.55H3.94s-3.31 1-3.8 3.86v11.89a10 10 0 0 1 0 1v1.63a2.11 2.11 0 0 0 .87 1.64 10.44 10.44 0 0 0 4 1.3c.13 0 .66.05 1.3.1 1.32.08 3.15.18 3.15.12s4-.17 4.44-.22a10.44 10.44 0 0 0 4-1.3c1.15-.83.58-3.01.6-4.26Zm-1.18 3.72a9.47 9.47 0 0 1-3.69 1.19c-.27 0-2.62.19-3.74.23h-.82c-.5 0-1.85-.07-2.88-.14l-1.25-.1a9.47 9.47 0 0 1-3.69-1.19 1.37 1.37 0 0 1-.55-1.07v-1.39l.07.06V108a31.08 31.08 0 0 0 3.64.22h2l-1-1.35H4.24a25.54 25.54 0 0 1-3.47-.25v-2a24.75 24.75 0 0 0 3.55.22h1v-1.41H4.24a22.12 22.12 0 0 1-3.46-.28v-2.32a19.65 19.65 0 0 0 3.84.33h.89l1.08-1.38H5.54a31.58 31.58 0 0 1-4.73-.38v-2.84c.4-2.07 2.72-3 3.22-3.23h10.48c.56.2 3.28 1.31 3.28 3.85v11.2a8.92 8.92 0 0 0 .05 1c.16 1.36.16 2.38-.52 2.8Zm-7.93 1.43zm-.46-22.22H3.94v.86h10.98v-.86H8.93zm.19-.39h6.17s.71-4.66-.47-4.55H4.07C2.89 86.33 3.6 91 3.6 91Zm-4.91-3.86h10.47a9.87 9.87 0 0 1 0 3.15H4.21a9.58 9.58 0 0 1 0-3.15Z"/></g><path d="M195.69 101.33c-.58 2.66-2.14 2.78-3.16 5.25a3 3 0 0 0-.23 1.37 2.16 2.16 0 0 0 .26.87h.05c.21 0 .52-.08.87-.12l1.44-.2c2.07-.51 3.28-1.1 5.19-1.72-1.84-1.8-3.4-2.69-4.23-5.27l-.19-.19Zm-9.59 12a13.54 13.54 0 0 1-.31-3.61 6.22 6.22 0 0 0 1 2.9c-.48-1.46-.28-2.56-.6-3.66-.56-1.92-1.28-3.63-1-4.6.11-.51.31-1.06.73-2.74a3 3 0 0 0 1-.14c-1 1.81-.72 4.49-.4 7.52.05.46.08.9.12 1.32.46-.32.43-.58.09-.84a10.89 10.89 0 0 1-.19-1.52 3.38 3.38 0 0 0 2-.41c-.56.13-1.51.31-2-.09-.12-.11.06-1.41-.06-2.4a2.72 2.72 0 0 0 1.79 0c-1.16-.07-1.68-.14-1.76-.69a5.7 5.7 0 0 1 0-.8 10.34 10.34 0 0 1 .56-2.12h.14c2.09 1.68 1.95 1.53 4.79 2a7.38 7.38 0 0 1 1.17 1.18 4 4 0 0 0-.23.34c-.78 1.22-1.29 2.3-.69 3.82l-.84-.12c-.38-.06-.74-.11-1.16-.15a1 1 0 0 0-.46 0 8.25 8.25 0 0 0-1.3 1.23l-.07.08a.55.55 0 0 0-.15.17 1 1 0 0 0-.06.26v.06l-.21 1.48a.3.3 0 0 0 .24.25.35.35 0 0 0 0 .18.4.4 0 0 0 .23.17l-.1.58c.24 0 .46.18.7-.08v.23c.65.09.78-.29.95-.81.06-.1.1-.2.15-.3a6.47 6.47 0 0 1 .37-.67 3.84 3.84 0 0 0 3-.6 12.84 12.84 0 0 1 2 2.65 20.07 20.07 0 0 1-9.45-.09Zm10.12.2a20.3 20.3 0 0 1-10.42 0 16.47 16.47 0 0 1-.16-4.74l-.48-2a4.15 4.15 0 0 1 0-3.83 7.56 7.56 0 0 0 .32-1.42c-1.87-.33-2-2.5-1.05-3.62.12-.15.56-.52 1.06-1h.06a11.81 11.81 0 0 0-.49-2.18 21.6 21.6 0 0 1-2.91-3.46 33.67 33.67 0 0 1-1.75-3.77 4.18 4.18 0 0 1-.39-2.65c0-.89.38-.71 1.29-.74 3.11-.26 5.33.37 8.31.93a2.7 2.7 0 0 1 .67-.28.25.25 0 0 1 0-.11 3.43 3.43 0 0 1 4-1.28 4.92 4.92 0 0 1 1.29.56c1.47.49 2.23 2.09 2.37 3.71a7.53 7.53 0 0 0-.64-1.64c.63 1.88 1 3 .48 4.8v-.73A6.57 6.57 0 0 1 195 94.7a8.36 8.36 0 0 1 2.29 2.84c1.55.71 2 1.77 2.7 3.62 2.65 3.25 2.68 4.71 3.36 6.85.12.77 0 .83-1.13 1-2.86 1.13-4.69 1.12-7.53 1.39h-.15c-.18 0-.36.08-.55.13a14.07 14.07 0 0 1 2.35 2.92Zm-1.51-18.37-.49 1h.34a4.57 4.57 0 0 1 2.1.92c-.94-1.15-.73-1.57-1.95-2Zm-.59 1.23.43.09a5.34 5.34 0 0 1 2.34 1.11V98c1.35-.36 3.35 3 2.16 3.84l.39-.11h.63c1.35 2.8 1.92 2.86 2.7 5.92.07.48.21.59.16.78s-.33.22-.93.49c-1.86.53-6.12 1-8.43 1.52-.74.16-.86.56-1.74.77a10.91 10.91 0 0 1-1.4 0c-.27.13-.43.57-.56.83-.05.1-.12.22-.16.32s-.14.53-.39.61a3.8 3.8 0 0 1 .13-1l.43-1.25a3.37 3.37 0 0 0-.74 1.2c-.08.26-.21 1-.54 1l.13-.66a4.86 4.86 0 0 1 .36-1.19c.16-.32.29-.53.56-1a4.26 4.26 0 0 0-.68.87 8.93 8.93 0 0 0-.43 1.33c0 .11-.16 0-.17-.08a7.46 7.46 0 0 1 .45-1.57c.13-.25.29-.44.5-.77a5.16 5.16 0 0 0-.62.72 6.84 6.84 0 0 0-.4 1.38.13.13 0 0 1-.16-.16c0-.18.31-1.55.35-1.55a13.22 13.22 0 0 1 1.43-1.32l.86.06.58.09 1.09.15.3.07.61-.17h.12a18.34 18.34 0 0 0 2.84-.51 10.05 10.05 0 0 0 3.9-1.32l1.29-.08a3.11 3.11 0 0 0-1.07-.41c-1.27-1.71-3.62-3-4.2-5h2.11c-2.65-.42-2.92-.72-3.42-2.86a2 2 0 0 1-1.5 2.13 8.37 8.37 0 0 0-.59-2.69 5.93 5.93 0 0 0 1.25-1.86Zm-.69 4.88 1.7-.51.2.2a9.28 9.28 0 0 1-2 3.51 5.56 5.56 0 0 0-1.11-1.16 3.15 3.15 0 0 0 1.22-2ZM187 101h.32a1.83 1.83 0 0 1 0-.5 2 2 0 0 1-.36.5Zm7-4.66a7.83 7.83 0 0 1-1.27-.39c.57.1 1 .16 1.37.2.18-.35.35-.71.51-1.05l-.31-.1-.26.11a9 9 0 0 0 .44-1 6.54 6.54 0 0 1-.09-1l-.45.46a.85.85 0 0 1-.36.23 1.43 1.43 0 0 1-.38 0 1.82 1.82 0 0 1-.41 0 .86.86 0 0 1-.38-.23l-.41-.42a4.09 4.09 0 0 1-.31.91c.31.31.65.63 1 1a4.49 4.49 0 0 1-1.29-.46l-.15.25c-.29-.49-1.44-.73-2.13-.75a1.85 1.85 0 0 0-.27.19c-.05.17-.06.4-.17.4s0-.18 0-.27c-.39.29-.77.6-1.14.85a4.22 4.22 0 0 0-1.72 2.45 3.8 3.8 0 0 0 .6 2.77 4.19 4.19 0 0 0 1.5-2.39 9.82 9.82 0 0 1-.23 1.45 3.52 3.52 0 0 1 1.86-1.55 5.68 5.68 0 0 0-1.41 2.09c1.18-.93 2.61-.77 4.54-1.87a6.58 6.58 0 0 0 1.3-1.82Zm.39-3.63a6.59 6.59 0 0 0 .83-1 1.9 1.9 0 0 0 .19-.35 5.66 5.66 0 0 0 .19-.58l.18-.65.1.66a.46.46 0 0 0 0 .09s0 0 .06-.08a4.84 4.84 0 0 0-.07-1.09v.07-.14c-.19-.82-.76-1.59-2.39-2.58a5.78 5.78 0 0 1 1.87 1.8 14.81 14.81 0 0 0-2-1l1.36 1.1a5.57 5.57 0 0 1-2.35-1.49c.41.57.89.94 1.35 1.47a9.83 9.83 0 0 1-2.6-2.45c-.82.65-.89 2-.7 3.37l.18.66c.1.36.18.6.25.79a2.64 2.64 0 0 0 .23.42c.2.28.41.55.64.82s.51.57.78.84a.52.52 0 0 0 .25.15 1.62 1.62 0 0 0 .33 0 1.3 1.3 0 0 0 .31 0 .6.6 0 0 0 .23-.15c.15-.16.31-.31.47-.47s.14-.15.22-.22Zm.31.08.06.38c0-.2.09-.39.14-.58-.07.07-.13.14-.2.2Zm-5.37-7.6a60.29 60.29 0 0 0-7.87-.7c-.78-.1-.9-.28-1.05 0a1.49 1.49 0 0 0 0 .77 4.08 4.08 0 0 0 1.69 3.93 1.68 1.68 0 0 1-.84-.36c.42 1.4 2.74 4.64 4 5.35a7.18 7.18 0 0 1 .5 1.38v-1.72c-.22-.39-.74-.78-1.09-1.27-1.1-1.51-2.57-3.35-1.54-5.3-.71-.63-1.4-1.2-1.84-1.67 1.57 1 2.75.63 4.29.54 1.16-.07 2.05-.11 2.92-.09a2.62 2.62 0 0 1 .75-.9Zm-.91 1.27a37.29 37.29 0 0 0-5.16.25c.92 1.1 2.54 3.11 3.22 4.14a5.46 5.46 0 0 1 2.52 2.71 5.71 5.71 0 0 1 1.43.43 7.31 7.31 0 0 1-2-3.61l.12.7a6.08 6.08 0 0 1 .07-4.58h-.08a3.23 3.23 0 0 0-.34 1.15 3.86 3.86 0 0 1 .23-1.16Zm3.06 7.54a3.28 3.28 0 0 0 .23-1l-.15-.17-.21-.26a4.72 4.72 0 0 1 .12 1.43Zm-1.18-3.08a.31.31 0 0 0 0-.15v-.06a.17.17 0 0 1 0-.07 9.18 9.18 0 0 1-.41-1.48 10.67 10.67 0 0 0 .24 1.35 1.16 1.16 0 0 1 0 .18l.06.23Zm-4.21 5.5a17.75 17.75 0 0 1 1.39-1.23c.44-.27.79-.55 1.15-.82-.2-1.91-1.23-2.27-2.23-2.92l-.24.43c.11-1.46-1.31-3-2.71-4.25-.73 1.53.1 2.92 1.44 4.83a4.45 4.45 0 0 1 .93 1.5v-2.44c.18 1.62.18 3.23.27 4.85Z" style="fill-rule:evenodd;mix-blend-mode:color-dodge;opacity:.75;fill:gray"/><g class="cls-33"><path class="cls-3" d="m154.09 171.31-8 2.78a1.38 1.38 0 0 0-.82-.53l-.35-8.57-.3 8.59a1.41 1.41 0 1 0 1.76 1.36 1.15 1.15 0 0 0 0-.26Zm-9.09 4.34a.7.7 0 0 1-.69-.71.7.7 0 1 1 1.39 0 .7.7 0 0 1-.7.71Z"/><path class="cls-3" d="m152.44 166.85.5-.58.24.21.67-.78c.4.2.73.24.86.08s-.16-1-.87-1.62-1.48-.92-1.71-.66 0 .49.19.85l-.67.78.24.21-.52.6a10.63 10.63 0 0 0-5.22-2.07 3.23 3.23 0 1 0-2.42 0 10.77 10.77 0 0 0-5.17 2l-.48-.56.24-.21-.67-.78c.24-.36.33-.69.19-.85s-1 0-1.71.66-1.1 1.35-.87 1.62.46.12.86-.08l.67.78.24-.21.46.53a10.83 10.83 0 1 0 14.95 0Zm-10.36-6a2.86 2.86 0 1 1 3.56 2.8v-.45h.36v-1h.54c.28 0 .51-.16.51-.37V161c0-.2-.23-.36-.51-.36h-3.11c-.29 0-.52.16-.52.36v.85c0 .21.23.37.52.37h.54v1h.31v.45a2.89 2.89 0 0 1-2.2-2.82Zm11 18.76-.9-.48-.24.45.87.47a9.62 9.62 0 0 1-3.17 3l-.53-.86-.43.27.51.83a9.14 9.14 0 0 1-4 1v-1h-.51v1a9.3 9.3 0 0 1-4.07-1l.47-1-.46-.22-.46 1a9.69 9.69 0 0 1-3.09-2.92l1-.68-.3-.42-.93.67a9.75 9.75 0 0 1-1.31-4.11l1.24-.13-.05-.51-1.22.13v-.29a9.55 9.55 0 0 1 .85-4l1.21.52.2-.48-1.18-.5a9.51 9.51 0 0 1 3.17-3.55l.79 1.1.41-.29-.77-1.08a9.35 9.35 0 0 1 4.56-1.31v1.44h.5v-1.45a9.4 9.4 0 0 1 4.34 1.21l-.56 1.15.46.22.54-1.11a9.53 9.53 0 0 1 3.23 3.47l-1 .63.27.43 1-.61a9.61 9.61 0 0 1 .94 4l-1.09.08v.51l1-.08a9.42 9.42 0 0 1-1.29 4.5Z"/></g><g class="cls-33"><path class="cls-3" d="M145.81 14.92ZM162.53 26c-.7-.71-4.62-2.25-4.62-2.25-5.91-5.04-7.45-12.75-9.57-13.5s-3.66 3.44-4.44 3.44-1-.35-1.54-2.31-1.59-1.76-2.28-1.89a3.23 3.23 0 0 0-2.32 1.22 11.93 11.93 0 0 1-2.58 3.18 7.09 7.09 0 0 0-1.33 1.91 7.62 7.62 0 0 0 2.06 3.2c1.29.93 3.84 2 4.63 2.72s3.87 4.28 5.33 4.93 3.89 2.39 7.27 2.56 6.27 1.62 6.84 1.65c1 .07 3.2-.3 3.79-1.79v.37s-.08.33-.12.44a1.5 1.5 0 0 1-.14.19 4.37 4.37 0 0 1-3.79 1.62c-.58 0-3.46-1.49-6.84-1.65s-5.81-1.91-7.27-2.56-4.54-4.25-5.33-4.93-3.34-1.79-4.64-2.72a7.7 7.7 0 0 1-2-3.23.11.11 0 0 1-.11 0c-.81 1.64-1.45 3.37-1.45 3.37-.2.51.27 1.22 1 1.93h.28v.31c.35.32.73.63 1.1.92l1.16-.1v.92c.37.26.67.45.8.53 1 .57 1.37 1.25 2.89.77 2.27-.71 2.93 2.17 2.93 2.17A12.7 12.7 0 0 0 145.4 30l.2-.2.19.42a17.66 17.66 0 0 0 3.49 1.36l.44-.32.18.48c6.18 1.48 12.83.05 13.66-1.27 1.21-1.95-.33-3.73-1.03-4.47ZM142 15.29a2.43 2.43 0 0 1-3-1.67 30.17 30.17 0 0 1 .38-3.17c.14-.66 1.56-.36 1.56-.36-1.19.07-1 .28-1.16.39a17.22 17.22 0 0 0-.32 3c-.09.85.68 1.06 1.26 1.63s3.77-.63 3.77-.63a10.44 10.44 0 0 1-2.49.81Zm13.15 6.35a.42.42 0 0 1 .33 0 1.66 1.66 0 0 1 .24.11c.1 0 .12.08.1.16s0 .05 0 .09c-.07.22-.33.26-.53.24a1.81 1.81 0 0 1-.42-.16l-.63-.21a.07.07 0 0 1 .06-.07 2.43 2.43 0 0 1 .27 0h.12a3.52 3.52 0 0 0 .49-.16Zm-1.61-1.1a1.36 1.36 0 0 1 .7-.34c.24 0 .34.16.45.35s-.17.43-.33.4-.31-.14-.47-.19l-.18-.06h-.12a.1.1 0 0 1-.07-.05.08.08 0 0 1 .05-.11Zm-1.64-2.43a1.69 1.69 0 0 0 .25-.2 2.5 2.5 0 0 1 .09-.25c0-.08.08-.16.19-.15a.6.6 0 0 1 .46.54.62.62 0 0 1-.22.35.5.5 0 0 1-.24.19c-.09 0-.11-.12-.19-.14s-.26-.09-.38-.15a.05.05 0 0 1 0-.05s.04-.14.07-.14Zm-1.27-1.92a.73.73 0 0 1 .26-.19c.08 0 .21-.11.3-.08a.92.92 0 0 1 .25.19c.1.08.09.17.13.28s-.08.32-.28.26-.27-.12-.4-.17a2.28 2.28 0 0 1-.36-.15.16.16 0 0 1 .13-.14ZM149 14.25a1 1 0 0 1 1.08-.17c.21.13.61.46.43.77a.07.07 0 0 1-.12 0c-.09-.18-.56-.32-.75-.34l-.47-.12a.28.28 0 0 1-.13 0 .08.08 0 0 1-.04-.14Zm-3.26.83c-.05 0 0-.09 0-.14.29-.71 1.37-.41 2-.44a4.14 4.14 0 0 1 2.28.27h.06a.29.29 0 0 1 .21.14.09.09 0 0 1 0 .05 3 3 0 0 1 .22.26.07.07 0 0 1 0 .11c-.17.08-.44-.07-.59-.11a5.89 5.89 0 0 0-2.12-.26c-.55 0-1.1 0-1.65.08-.15.04-.21.16-.37.04Zm3.48.22a1.26 1.26 0 0 1-.31.25c-.12.07-.21.23-.36.26a1.17 1.17 0 0 1-.37 0 1.68 1.68 0 0 0-.45.05.07.07 0 0 1-.09-.06.22.22 0 0 1 .1-.19.84.84 0 0 1 .28-.31l.1-.11a.39.39 0 0 1 .1-.08h.22a1.33 1.33 0 0 1 .28 0 1.4 1.4 0 0 1 .45.1s.13.05.09.09Zm0 1.46c-.46 0-.92-.1-1.39-.13a4 4 0 0 1-.77 0 .09.09 0 0 1-.05-.11.54.54 0 0 1 .16-.25c.48-.73 1.82-.18 2.53-.06s1.87.38 2.23 1.15c0 .09-.05.15-.13.11a5.83 5.83 0 0 0-2.58-.71Zm1.53.48a1.87 1.87 0 0 1-.3.26 1.09 1.09 0 0 1-.27.21s-.08 0-.11 0a1.86 1.86 0 0 0-.33 0 1.45 1.45 0 0 0-.36 0h-.1a.11.11 0 0 1 0-.18 3.58 3.58 0 0 1 .28-.26A1.83 1.83 0 0 1 150 17a1.36 1.36 0 0 1 .44.08.51.51 0 0 1 .3.1.08.08 0 0 1 .01.06Zm-1.67 1.31h-.06a.4.4 0 0 1 0-.28c0-.67 1.46-.46 1.89-.25a8.38 8.38 0 0 1 1.72.86c.38.32 1 .67 1 1.21a.1.1 0 0 1-.12.08 14.25 14.25 0 0 1-1.77-.93 3.92 3.92 0 0 0-2.66-.69Zm2 1c0-.1 0-.34.15-.39s0-.06 0 0c.15 0 .23.18.37.24s.06.09 0 .15a2.84 2.84 0 0 0-.06.51c0 .09 0 .19-.09.24a.06.06 0 0 1-.08 0c-.05 0-.09-.12-.15-.15a.38.38 0 0 1-.16-.12.58.58 0 0 1 .04-.48Zm.43 1.86c-.45.05-.83-.31-.57-.61 0-.41 1.16-.32 1.33-.3.56.05 1.05.33 1.59.43a2.34 2.34 0 0 1 1 .52.09.09 0 0 1 0 .11.36.36 0 0 1 0 .09.1.1 0 0 1-.09.07c-.52-.06-1-.23-1.54-.3a6.83 6.83 0 0 0-1.7-.01Zm1.24.1a.19.19 0 0 1 .13 0 .65.65 0 0 0 .2 0h.21c.12 0 .3 0 .26.15s-.18.14-.29.13a1.68 1.68 0 0 0-.74.09c-.05 0-.11 0-.07-.08a.61.61 0 0 1 .12-.15.2.2 0 0 1 .09-.09h.05Zm-.51 1a.09.09 0 0 1 0-.08.53.53 0 0 1 0-.12.23.23 0 0 1 .05-.21.34.34 0 0 1 .35-.18 2.38 2.38 0 0 1 .56-.08 6.75 6.75 0 0 1 2.62.65.09.09 0 0 1 0 .11c-.13.3-.74.16-1 .14a5.8 5.8 0 0 0-1.94-.11c-.32.12-.53.04-.62-.09Zm4.47.81c-.26.22-1.2.06-1.49.1a13.51 13.51 0 0 1-1.54.3c-.37 0-.46-.14-.45-.3a.56.56 0 0 1 0-.12c.19-.63 2-.39 2.46-.46.25 0 .63-.31.81 0 .13.16.41.36.23.51Z"/><path class="cls-3" d="M145.79 14.94a.09.09 0 0 0 0 .1.56.56 0 0 1 0-.12Z"/></g><g class="cls-33"><path class="cls-3" d="M56.51 171.76h-13a1 1 0 0 0-1 1.14l.51 8.59a1 1 0 0 0 1 1H56a1 1 0 0 0 1-1l.51-8.59a1 1 0 0 0-1-1.14Zm-8.31 10a2 2 0 0 1-2-.74c-.43-.6-.12-1.39-.46-2.16s-1.44-1.62-1.64-2.78.13-3.29 1.12-3.68 2 1.18 2.37 1.66c.61 1.09-.17 3.26.08 4.08s.7.74.94 1.34.21 2.04-.41 2.28Zm7.87-5.68c-.21 1.16-1.3 2-1.64 2.78s0 1.56-.47 2.16a2 2 0 0 1-2 .74c-.61-.24-.65-1.68-.41-2.28s.69-.53.94-1.34-.53-3 .08-4.08c.34-.48 1.38-2.05 2.37-1.66s1.33 2.51 1.13 3.68Zm-1.01-6.75h.26v-5.72H44.84v5.72h10.22Zm-10-5.45h10v5.19h-4.37l-.22-2.83-.22 2.83h-5.14Z"/><path class="cls-3" d="M45.28 164.32h.23v1.46h-.23zm.44 0h.23v1.46h-.23zm.44 0h.23v1.46h-.23zm.89 0h.23v1.46h-.23zm.44 0h.23v1.46h-.23zm.44 0h.23v1.46h-.23zm.44 0h.23v1.46h-.23zm.44 0h.23v1.46h-.23zm.89 0h.23v1.46h-.23zm.44 0h.23v1.46h-.23zm.44 0h.23v1.46h-.23zm.44 0h.23v1.46h-.23zm.88 0h.23v1.46h-.23zm.44 0h.23v1.46h-.23zm.45 0h.23v1.46h-.23zm.44 0h.23v1.46h-.23zm.44 0h.23v1.46h-.23zm.88 0h.23v1.46h-.23zm-.21 1.46v-1.46h-.23v3.84h.23v-2.38zm-2.88-1.46h.23v3.84h-.23zm-2.21 0h.23v3.84h-.23zm-2.65 0h.23v3.84h-.23z"/><path class="cls-3" d="M59.16 160.49H41a2.25 2.25 0 0 0-2.24 2.42l1.59 20.18a2.24 2.24 0 0 0 2.23 2.07h15a2.25 2.25 0 0 0 2.24-2.07l1.58-20.18a2.25 2.25 0 0 0-2.24-2.42Zm-.4 21.51a2 2 0 0 1-2 1.85H43.4a2 2 0 0 1-2-1.85L40 164a2 2 0 0 1 2-2.16h16.18a2 2 0 0 1 2 2.16Z"/></g><g class="cls-33"><path class="cls-3" d="M62.84 18.19a6 6 0 0 0-.07-.73A6.77 6.77 0 0 0 60 12.88a10.42 10.42 0 0 0-.13 1.1 5.88 5.88 0 0 1 1.94 3.61c0 .21 0 .43.06.64v.19a7.48 7.48 0 0 1-1.4 4c-.18.28-.38.57-.59.85-2.84 3.72-7.83 6.89-9 7.58-1.13-.69-6.14-3.84-9-7.58-.21-.28-.41-.57-.59-.85a7.5 7.5 0 0 1-1.38-4A5.91 5.91 0 0 1 50.6 14.8a.46.46 0 0 0 .73 0 6 6 0 0 1 4.14-2.27h.69a5.8 5.8 0 0 1 2.75.75 5.52 5.52 0 0 1 .25-.93 6.81 6.81 0 0 0-3-.75h-.77A6.88 6.88 0 0 0 51 13.79a6.77 6.77 0 0 0-5-2.21 6.85 6.85 0 0 0-6.84 6.84 8 8 0 0 0 1.22 4c.17.28.35.57.54.85 3.16 4.61 9.53 8.32 9.88 8.53a.49.49 0 0 0 .23.06.5.5 0 0 0 .24-.06c.35-.21 6.69-4 9.86-8.53.2-.28.38-.57.55-.85a8 8 0 0 0 1.23-4Z"/><path class="cls-3" d="M63.54 10.54c-.37 0-.66.29-.66 1.61s.29 1.64.66 1.64.66-.34.66-1.64-.28-1.61-.66-1.61Zm0 0c-.37 0-.66.29-.66 1.61s.29 1.64.66 1.64.66-.34.66-1.64-.28-1.61-.66-1.61Zm-2-3.8a5.42 5.42 0 0 0-5.4 4.85 3.69 3.69 0 0 0 0 .58v.35a5.42 5.42 0 0 0 5.42 5.08h.27a5.51 5.51 0 0 0 .92-.13 5.43 5.43 0 0 0-1.17-10.73Zm-1.7 7.83h-1.07a9.59 9.59 0 0 1 .14-1.3 5.52 5.52 0 0 1 .25-.93 6.15 6.15 0 0 1 .89-1.63H57.9v-.94h3.33v.68A4.89 4.89 0 0 0 60 12.88a10.42 10.42 0 0 0-.13 1.1c.03.19.02.38.01.59Zm3.66.08c-1 0-1.71-.87-1.71-2.5s.69-2.47 1.71-2.47 1.71.84 1.71 2.47-.64 2.5-1.67 2.5Zm0-4.11c-.37 0-.66.29-.66 1.61s.29 1.64.66 1.64.66-.34.66-1.64-.24-1.61-.62-1.61Zm0 0c-.37 0-.66.29-.66 1.61s.29 1.64.66 1.64.66-.34.66-1.64-.24-1.61-.62-1.61Zm0 0c-.37 0-.66.29-.66 1.61s.29 1.64.66 1.64.66-.34.66-1.64-.24-1.61-.62-1.61ZM48.41 26.5a.42.42 0 0 1-.41-.34l-1.75-8.61-1.6 5.39a.43.43 0 0 1-.41.31h-5.69v-.85h5.38l2-6.71a.44.44 0 0 1 .43-.3.42.42 0 0 1 .39.34l1.7 8.35 1.25-5.52a.45.45 0 0 1 .41-.33.42.42 0 0 1 .4.32l1 3.85h11.84v.85h-12.2a.43.43 0 0 1-.41-.32l-.62-2.46-1.3 5.7a.42.42 0 0 1-.41.33Z"/></g></g></g></g></svg>