<svg xmlns="http://www.w3.org/2000/svg" viewBox="0 0 199.49 167.8"><defs><style>.cls-34,.cls-5{fill:gray}.cls-5{opacity:.7}.cls-4{fill:#fff}.cls-24,.cls-31,.cls-32,.cls-43,.cls-5{mix-blend-mode:multiply}.cls-7{fill:#f95a37}.cls-9{fill:#383200}.cls-12{fill:#2fabeb}.cls-13{fill:#0092de}.cls-14{fill:#8cc74a}.cls-15{fill:#b0d08c}.cls-17{fill:#bce6fb}.cls-19{fill:#20739e}.cls-22{fill:#f8ed35}.cls-24{fill:#997676;opacity:.36}.cls-26{fill:#019141}.cls-27{fill:#00a843}.cls-30{fill:#689437}.cls-31,.cls-32{fill:#cdcfd0}.cls-31{opacity:.55}.cls-32{opacity:.75}.cls-35{fill:#3b2f24}.cls-36{fill:#e5e5e5}.cls-37{fill:#48c0ff}.cls-38{fill:#eec49d}.cls-40{fill:#d6d6d6}.cls-44{fill:#999}.cls-43{opacity:.25}.cls-45{fill:#1a1a1a}.cls-48{fill:#8c8c8c}.cls-49{opacity:.61;mix-blend-mode:color-dodge}</style></defs><g style="isolation:isolate"><g id="Capa_2" data-name="Capa 2"><g id="layer"><path d="M165.12 106.87a69.44 69.44 0 1 0-126.65 39.36h114.42a69 69 0 0 0 12.23-39.36Z" style="opacity:.43;mix-blend-mode:color-burn;fill:gray"/><path class="cls-4" d="M35.16 150.89h-1a.5.5 0 0 1-.42-.22l-.59-.87a.52.52 0 1 1 .86-.57c.14.21.28.42.43.62h.76a.52.52 0 0 1 .52.52.52.52 0 0 1-.56.52Zm117.97 0h-2a.52.52 0 0 1-.52-.52.53.53 0 0 1 .52-.52h2a.52.52 0 0 1 .52.52.52.52 0 0 1-.52.52Zm-5.13 0h-2a.52.52 0 0 1-.52-.52.53.53 0 0 1 .52-.52h2a.52.52 0 0 1 .52.52.52.52 0 0 1-.52.52Zm-5.13 0h-2.05a.51.51 0 0 1-.51-.52.52.52 0 0 1 .51-.52h2.05a.52.52 0 0 1 .52.52.52.52 0 0 1-.52.52Zm-5.12 0h-2.06a.51.51 0 0 1-.51-.52.52.52 0 0 1 .51-.52h2.06a.52.52 0 0 1 .51.52.51.51 0 0 1-.51.52Zm-5.13 0h-2.06a.51.51 0 0 1-.51-.52.52.52 0 0 1 .51-.52h2.06a.52.52 0 0 1 .51.52.51.51 0 0 1-.51.52Zm-5.13 0h-2a.52.52 0 0 1-.52-.52.52.52 0 0 1 .52-.52h2a.52.52 0 0 1 .51.52.51.51 0 0 1-.51.52Zm-5.13 0h-2a.52.52 0 0 1-.52-.52.52.52 0 0 1 .52-.52h2a.53.53 0 0 1 .52.52.52.52 0 0 1-.52.52Zm-5.13 0h-2a.52.52 0 0 1-.52-.52.52.52 0 0 1 .52-.52h2a.53.53 0 0 1 .52.52.52.52 0 0 1-.52.52Zm-5.13 0h-2a.52.52 0 0 1-.52-.52.52.52 0 0 1 .52-.52h2a.52.52 0 0 1 .52.52.52.52 0 0 1-.52.52Zm-5.13 0h-2a.52.52 0 0 1-.52-.52.52.52 0 0 1 .52-.52h2a.52.52 0 0 1 .52.52.52.52 0 0 1-.49.52Zm-5.13 0h-2a.52.52 0 0 1-.52-.52.52.52 0 0 1 .52-.52h2a.52.52 0 0 1 .52.52.52.52 0 0 1-.52.52Zm-5.13 0h-2a.52.52 0 0 1-.52-.52.52.52 0 0 1 .52-.52h2a.52.52 0 0 1 .52.52.52.52 0 0 1-.52.52Zm-5.13 0h-2a.52.52 0 0 1-.52-.52.52.52 0 0 1 .52-.52h2a.52.52 0 0 1 .52.52.52.52 0 0 1-.52.52Zm-5.13 0h-2a.52.52 0 0 1-.52-.52.52.52 0 0 1 .52-.52h2a.52.52 0 0 1 .52.52.52.52 0 0 1-.52.52Zm-5.13 0h-2a.52.52 0 0 1-.52-.52.52.52 0 0 1 .52-.52h2a.52.52 0 0 1 .52.52.52.52 0 0 1-.52.52Zm-5.13 0h-2a.52.52 0 0 1-.52-.52.53.53 0 0 1 .52-.52h2a.52.52 0 0 1 .52.52.52.52 0 0 1-.52.52Zm-5.13 0H69a.52.52 0 0 1-.52-.52.53.53 0 0 1 .52-.52h2a.52.52 0 0 1 .52.52.52.52 0 0 1-.46.52Zm-5.13 0h-2.05a.51.51 0 0 1-.51-.52.52.52 0 0 1 .51-.52h2.05a.52.52 0 0 1 .52.52.52.52 0 0 1-.52.52Zm-5.12 0h-2.06a.51.51 0 0 1-.51-.52.52.52 0 0 1 .51-.52h2.06a.52.52 0 0 1 .51.52.51.51 0 0 1-.51.52Zm-5.13 0h-2.06a.51.51 0 0 1-.51-.52.52.52 0 0 1 .51-.52h2.06a.52.52 0 0 1 .51.52.51.51 0 0 1-.51.52Zm-5.13 0h-2a.52.52 0 0 1-.52-.52.52.52 0 0 1 .52-.52h2a.52.52 0 0 1 .51.52.51.51 0 0 1-.51.52Zm-5.13 0h-2.05a.52.52 0 0 1-.52-.52.52.52 0 0 1 .52-.52h2.05a.53.53 0 0 1 .52.52.52.52 0 0 1-.52.52Zm-5.13 0h-2a.52.52 0 0 1-.52-.52.52.52 0 0 1 .52-.52h2a.53.53 0 0 1 .52.52.52.52 0 0 1-.52.52Zm116.96 0h-1a.52.52 0 0 1-.52-.52.52.52 0 0 1 .52-.52h.75c.15-.2.29-.41.43-.62a.52.52 0 1 1 .86.57l-.59.87a.5.5 0 0 1-.45.22Zm2.24-3.46a.56.56 0 0 1-.27-.08.52.52 0 0 1-.17-.71c.36-.58.71-1.17 1-1.76a.51.51 0 0 1 .7-.19.5.5 0 0 1 .19.7c-.34.61-.69 1.2-1.05 1.79a.53.53 0 0 1-.4.25Zm-127.67-.08a.52.52 0 0 1-.44-.25c-.36-.59-.71-1.19-1.05-1.79a.52.52 0 1 1 .89-.52q.51.9 1.05 1.77a.51.51 0 0 1-.18.71.5.5 0 0 1-.27.08ZM162 142.94a.53.53 0 0 1-.24-.06.52.52 0 0 1-.22-.7c.31-.6.62-1.21.92-1.83a.52.52 0 1 1 .93.46c-.3.62-.61 1.24-.93 1.85a.52.52 0 0 1-.46.28Zm-132.7-.09a.51.51 0 0 1-.46-.28c-.32-.61-.63-1.23-.93-1.85a.52.52 0 0 1 .24-.7.53.53 0 0 1 .69.24c.3.62.6 1.23.92 1.84a.51.51 0 0 1-.22.69.53.53 0 0 1-.24.06Zm135-4.56a.78.78 0 0 1-.21 0 .53.53 0 0 1-.27-.69c.27-.62.53-1.25.79-1.88a.52.52 0 1 1 1 .38c-.26.64-.53 1.28-.8 1.92a.51.51 0 0 1-.56.27Zm-137.22-.09a.51.51 0 0 1-.47-.31c-.28-.64-.54-1.28-.8-1.92a.52.52 0 0 1 .29-.68.52.52 0 0 1 .67.29c.26.64.52 1.27.79 1.89a.52.52 0 0 1-.27.68.54.54 0 0 1-.21.05Zm139.05-4.71a.36.36 0 0 1-.17 0 .51.51 0 0 1-.31-.66c.22-.64.44-1.28.65-1.93a.52.52 0 1 1 1 .31c-.21.66-.44 1.32-.67 2a.51.51 0 0 1-.5.28ZM25.2 133.4a.54.54 0 0 1-.49-.35c-.23-.65-.45-1.31-.66-2a.52.52 0 0 1 .33-.65.51.51 0 0 1 .65.34c.22.65.43 1.29.66 1.94a.52.52 0 0 1-.32.66.47.47 0 0 1-.17.06Zm142.49-4.82a.32.32 0 0 1-.14 0 .51.51 0 0 1-.36-.64c.18-.65.35-1.31.52-2a.51.51 0 1 1 1 .24c-.16.68-.34 1.35-.53 2a.51.51 0 0 1-.49.4Zm-144-.1a.51.51 0 0 1-.49-.38c-.19-.67-.36-1.34-.53-2a.52.52 0 0 1 1-.25c.16.66.33 1.33.51 2a.51.51 0 0 1-.36.64Zm145.24-4.91h-.1a.53.53 0 0 1-.41-.61q.21-1 .39-2a.51.51 0 0 1 .6-.42.52.52 0 0 1 .42.6q-.18 1-.39 2a.52.52 0 0 1-.55.43Zm-146.43-.11a.52.52 0 0 1-.51-.41q-.21-1-.39-2a.52.52 0 1 1 1-.18c.12.67.25 1.34.38 2a.51.51 0 0 1-.4.61Zm147.29-5h-.07a.53.53 0 0 1-.45-.58c.09-.68.17-1.36.25-2a.52.52 0 0 1 .57-.46.52.52 0 0 1 .46.57c-.08.69-.16 1.38-.25 2.06a.52.52 0 0 1-.55.44Zm-148.14-.11a.53.53 0 0 1-.52-.45q-.14-1-.24-2.07a.52.52 0 1 1 1-.1c.07.68.15 1.35.24 2a.52.52 0 0 1-.44.58Zm148.64-5a.52.52 0 0 1-.49-.55c.05-.68.08-1.36.11-2a.5.5 0 0 1 .53-.5.52.52 0 0 1 .5.54c0 .69-.06 1.38-.1 2.07a.52.52 0 0 1-.59.45Zm-149.14-.12a.52.52 0 0 1-.52-.48c0-.69-.07-1.38-.1-2.08a.52.52 0 0 1 1 0c0 .68 0 1.36.1 2a.52.52 0 0 1-.49.55Zm149.29-5a.51.51 0 0 1-.51-.51v-2a.51.51 0 0 1 .5-.53.52.52 0 0 1 .52.5v2.07a.51.51 0 0 1-.51.52ZM21 108.09a.51.51 0 0 1-.51-.52v-2.08a.52.52 0 1 1 1 0v2a.51.51 0 0 1-.49.6Zm149.25-5a.52.52 0 0 1-.52-.48c-.05-.68-.11-1.36-.17-2a.51.51 0 0 1 .44-.61.52.52 0 0 1 .57.46q.1 1 .18 2.07a.52.52 0 0 1-.48.55Zm-149-.12a.52.52 0 0 1-.48-.56c.05-.69.11-1.38.18-2.06a.54.54 0 0 1 .57-.47.52.52 0 0 1 .46.57c-.06.68-.12 1.36-.17 2a.53.53 0 0 1-.64.49Zm148.49-5a.52.52 0 0 1-.51-.44c-.1-.68-.2-1.36-.32-2a.52.52 0 0 1 .43-.59.5.5 0 0 1 .59.42c.12.68.23 1.36.32 2a.52.52 0 0 1-.44.59Zm-148.01-.15h-.08a.52.52 0 0 1-.44-.58c.1-.69.21-1.37.32-2a.51.51 0 0 1 .6-.43.53.53 0 0 1 .43.6c-.12.67-.23 1.35-.32 2a.52.52 0 0 1-.51.41Zm147-4.95a.51.51 0 0 1-.5-.41c-.15-.67-.3-1.34-.46-2a.5.5 0 0 1 .38-.62.52.52 0 0 1 .63.38c.16.67.31 1.34.46 2a.52.52 0 0 1-.4.62Zm-146.09-.12h-.12a.51.51 0 0 1-.39-.61c.14-.68.3-1.35.46-2a.52.52 0 0 1 .63-.38.5.5 0 0 1 .38.62c-.16.66-.32 1.33-.46 2a.52.52 0 0 1-.5.37Zm144.87-4.88a.51.51 0 0 1-.49-.38c-.19-.65-.39-1.31-.6-2a.52.52 0 1 1 1-.31c.21.66.41 1.32.6 2a.52.52 0 0 1-.35.64Zm-143.62-.12h-.14a.52.52 0 0 1-.36-.64c.19-.67.4-1.33.61-2a.52.52 0 1 1 1 .32c-.2.64-.4 1.3-.59 2a.53.53 0 0 1-.52.32Zm142-4.79a.52.52 0 0 1-.49-.34c-.24-.65-.48-1.29-.73-1.92a.52.52 0 0 1 1-.38c.26.64.5 1.29.74 1.94a.52.52 0 0 1-.31.67Zm-140.4-.11a.57.57 0 0 1-.18 0 .52.52 0 0 1-.3-.67c.23-.65.48-1.29.74-1.94a.52.52 0 0 1 .67-.29.54.54 0 0 1 .29.68c-.25.63-.5 1.27-.73 1.91a.53.53 0 0 1-.49.31ZM164 78.17a.51.51 0 0 1-.47-.31c-.28-.62-.57-1.24-.86-1.86a.51.51 0 0 1 .24-.69.52.52 0 0 1 .69.24q.45.95.87 1.89a.51.51 0 0 1-.26.68.54.54 0 0 1-.21.05Zm-136.57-.09a.57.57 0 0 1-.22 0 .53.53 0 0 1-.26-.69l.87-1.87a.52.52 0 1 1 .94.44c-.3.62-.58 1.23-.86 1.86a.52.52 0 0 1-.47.26Zm134.29-4.55a.51.51 0 0 1-.46-.28q-.48-.9-1-1.8a.51.51 0 0 1 .2-.7.5.5 0 0 1 .7.19c.34.61.68 1.21 1 1.83a.52.52 0 0 1-.21.7.53.53 0 0 1-.23.06Zm-132-.06a.45.45 0 0 1-.25-.07.51.51 0 0 1-.21-.7c.32-.61.65-1.21 1-1.81a.51.51 0 0 1 .7-.2.53.53 0 0 1 .2.71c-.34.59-.67 1.19-1 1.79a.52.52 0 0 1-.47.28Zm129.45-4.41a.52.52 0 0 1-.44-.25c-.36-.58-.73-1.15-1.11-1.72a.52.52 0 1 1 .87-.57c.38.57.75 1.15 1.12 1.74a.52.52 0 0 1-.17.72.53.53 0 0 1-.3.08ZM32.26 69a.57.57 0 0 1-.28-.08.52.52 0 0 1-.16-.71c.36-.59.74-1.17 1.12-1.75a.53.53 0 0 1 .72-.14.52.52 0 0 1 .14.72c-.37.56-.74 1.14-1.1 1.72a.54.54 0 0 1-.44.24Zm124-4.24a.51.51 0 0 1-.42-.21c-.4-.55-.81-1.1-1.22-1.64a.52.52 0 1 1 .82-.63c.42.55.83 1.1 1.24 1.66a.52.52 0 0 1-.12.73.53.53 0 0 1-.3.1Zm-121.13 0a.49.49 0 0 1-.3-.1.52.52 0 0 1-.12-.72c.41-.56.82-1.12 1.24-1.66a.52.52 0 0 1 .73-.1.51.51 0 0 1 .09.73c-.41.54-.82 1.08-1.22 1.64a.51.51 0 0 1-.42.19Zm118-4a.52.52 0 0 1-.4-.18c-.44-.53-.88-1.05-1.33-1.56a.52.52 0 0 1 0-.73.51.51 0 0 1 .73.05c.46.52.91 1 1.35 1.57a.51.51 0 0 1-.06.73.54.54 0 0 1-.32.06Zm-114.8 0a.54.54 0 0 1-.34-.12.52.52 0 0 1-.06-.73c.44-.53.89-1.06 1.35-1.58a.52.52 0 0 1 .78.69c-.46.51-.9 1-1.34 1.55a.52.52 0 0 1-.42.11Zm111.36-3.82a.5.5 0 0 1-.37-.16c-.48-.49-.95-1-1.44-1.46a.52.52 0 0 1 .73-.74c.49.49 1 1 1.46 1.48a.53.53 0 0 1 0 .74.54.54 0 0 1-.41.06Zm-107.93 0a.52.52 0 0 1-.37-.88c.47-.5 1-1 1.45-1.48a.52.52 0 0 1 .73.74c-.49.48-1 1-1.44 1.46a.52.52 0 0 1-.4.06ZM146 53.26a.53.53 0 0 1-.35-.13c-.5-.46-1-.91-1.53-1.36a.52.52 0 0 1 .68-.79l1.55 1.38a.52.52 0 0 1-.35.9Zm-100.55 0a.52.52 0 0 1-.35-.9q.76-.71 1.56-1.38a.52.52 0 0 1 .67.79c-.51.44-1 .9-1.53 1.36a.51.51 0 0 1-.38.11Zm96.63-3.31a.52.52 0 0 1-.32-.11c-.54-.43-1.08-.84-1.63-1.25a.53.53 0 0 1-.1-.73.52.52 0 0 1 .73-.1c.55.41 1.1.84 1.64 1.26a.52.52 0 0 1 .08.73.51.51 0 0 1-.43.18Zm-92.7 0a.54.54 0 0 1-.41-.2A.52.52 0 0 1 49 49c.54-.43 1.09-.85 1.65-1.27a.52.52 0 0 1 .62.83c-.55.41-1.09.83-1.63 1.25a.49.49 0 0 1-.29.1Zm88.55-3a.52.52 0 0 1-.29-.09c-.56-.39-1.13-.76-1.7-1.13a.53.53 0 0 1-.16-.72.52.52 0 0 1 .72-.15c.58.37 1.16.75 1.73 1.15a.52.52 0 0 1-.3.94Zm-84.4 0a.53.53 0 0 1-.43-.22.52.52 0 0 1 .14-.72c.57-.39 1.15-.78 1.73-1.15a.52.52 0 0 1 .72.15.53.53 0 0 1-.16.72l-1.7 1.13a.55.55 0 0 1-.33-.02Zm80.06-2.73a.5.5 0 0 1-.26-.08l-1.77-1a.51.51 0 0 1-.21-.7.54.54 0 0 1 .71-.21l1.8 1a.53.53 0 0 1 .18.71.52.52 0 0 1-.48.17Zm-75.7 0a.52.52 0 0 1-.45-.26.52.52 0 0 1 .18-.71l1.81-1a.52.52 0 0 1 .5.91c-.6.33-1.19.67-1.78 1a.48.48 0 0 1-.29-.08ZM129 41.65a.68.68 0 0 1-.23 0c-.6-.31-1.22-.6-1.84-.89a.53.53 0 0 1-.25-.69.52.52 0 0 1 .69-.25c.63.29 1.25.59 1.87.9a.52.52 0 0 1-.24 1Zm-66.65 0a.52.52 0 0 1-.46-.29.53.53 0 0 1 .23-.7c.62-.3 1.25-.61 1.88-.9a.52.52 0 1 1 .43.94l-1.84.89a.53.53 0 0 1-.2.03Zm62-2.11a.48.48 0 0 1-.2 0l-1.89-.76a.51.51 0 0 1-.3-.66.52.52 0 0 1 .67-.3c.64.25 1.28.5 1.92.77a.51.51 0 0 1-.2 1Zm-57.28 0a.53.53 0 0 1-.48-.32.52.52 0 0 1 .28-.67c.64-.27 1.29-.52 1.94-.77a.52.52 0 0 1 .67.3.51.51 0 0 1-.3.66c-.64.25-1.28.5-1.91.77a.64.64 0 0 1-.18-.04Zm52.46-1.77a.45.45 0 0 1-.16 0l-2-.62a.52.52 0 0 1-.35-.65.52.52 0 0 1 .65-.34q1 .3 2 .63a.51.51 0 0 1 .32.66.5.5 0 0 1-.44.25Zm-47.62 0a.52.52 0 0 1-.16-1l2-.63a.52.52 0 1 1 .3 1l-2 .63Zm42.68-1.43h-.13l-2-.49a.51.51 0 0 1-.39-.62.52.52 0 0 1 .62-.39c.67.16 1.35.32 2 .5a.52.52 0 0 1 .37.63.53.53 0 0 1-.45.26Zm-37.73 0a.51.51 0 0 1-.13-1c.67-.18 1.34-.34 2-.5a.52.52 0 1 1 .23 1c-.67.15-1.33.32-2 .49Zm32.71-1.09h-.1c-.67-.13-1.34-.24-2-.35a.52.52 0 1 1 .17-1l2 .35a.52.52 0 0 1 .41.61.5.5 0 0 1-.46.24Zm-27.68 0a.53.53 0 0 1-.51-.43.51.51 0 0 1 .42-.6c.67-.13 1.36-.25 2-.35a.52.52 0 1 1 .16 1c-.67.11-1.35.22-2 .35Zm22.58-.76h-.06c-.67-.08-1.35-.15-2-.21a.52.52 0 0 1-.47-.57.5.5 0 0 1 .56-.46c.69.06 1.38.13 2.06.21a.52.52 0 0 1-.06 1ZM87 34.31a.53.53 0 0 1-.52-.46.52.52 0 0 1 .46-.57l2.06-.22a.53.53 0 0 1 .56.48.52.52 0 0 1-.47.56c-.68.06-1.36.13-2 .21Zm12.35-.41c-.68 0-1.36-.06-2-.07a.52.52 0 0 1 0-1c.69 0 1.38 0 2.07.07a.52.52 0 0 1 0 1Zm-7.22 0a.51.51 0 0 1-.51-.49.5.5 0 0 1 .49-.54c.69 0 1.38-.06 2.07-.07a.49.49 0 0 1 .53.5.51.51 0 0 1-.51.53l-2 .07Z" style="opacity:.7"/><path class="cls-5" d="M120.59 27.84a14.11 14.11 0 0 1-5.23-.59v-.61a14.25 14.25 0 0 0-.25-5.08c0-.13-.06-.26-.09-.37 0-.12-.06-.24-.09-.34a9.48 9.48 0 0 0-.31-.9c-.28-1-.59-1.88-.9-2.69-1.37-3.59-4.59-5.57-7.83-6.66l-.34-.11a28.16 28.16 0 0 0-7.94-1.21A9.51 9.51 0 0 1 98 8.13a9.69 9.69 0 0 1 3.27-4.35.5.5 0 0 0-.48-.62C99 3.58 98 5.37 97.32 7.37l-.79-.5c0-.54.2-4.22-4.75-5.85-3.7-1.22-6.31.78-10.22.51 1.72 2 2.27 4.4 4.76 5.62 3.33 1.63 6.65 1 10-.12l.94.86c-.12.45-.22.9-.31 1.35A27.41 27.41 0 0 0 88 10.78c-3 1.13-5.88 3.07-7.16 6.42a23.68 23.68 0 0 0-1.65 7.16s0 .51 0 1.3v.82c0 .41 0 .85.11 1.31V28a17 17 0 0 0 .3 1.68c-.78.73-5.88 6-2.62 16a33.73 33.73 0 0 1 5.42-3.19s-2.1-2.21-.21-6.5v.07q.32.65.63 1.2v.07c.09.14.17.29.25.42v.08c.08.13.16.26.23.39a19.23 19.23 0 0 0 1.88 2.67c.4.56.8 1.09 1.19 1.57a9 9 0 0 0 2.57 2.43c2.1.94 3.82.44 4.68.75a11.06 11.06 0 0 0 3.49.57 10.49 10.49 0 0 0 3.61-.57c.86-.31 2.58.19 4.68-.75 1.56-.7 4.31-4.54 6.29-7.89a26.8 26.8 0 0 0 2-3.71 1.19 1.19 0 0 1 .06-.14v-.06l-.08.21a6.38 6.38 0 0 0 5.1.52 8.67 8.67 0 0 0 1.82-5.98Z"/><path d="M113.17 16.6c-1.37-3.6-4.6-5.57-7.83-6.66a10.52 10.52 0 0 1-5.59 3.22c-6.82 5-16.18 14.59-13.85 28.71a9.11 9.11 0 0 0 2.58 2.43c2.1.94 3.82.44 4.68.75a11.35 11.35 0 0 0 3.49.57 10.75 10.75 0 0 0 3.61-.57c.86-.31 2.58.19 4.68-.75s6.83-8.33 8.23-11.59a20.2 20.2 0 0 0 0-16.11Z" style="fill:#e65333"/><path class="cls-7" d="M99.75 13.16c-5.21 1.23-11.12-.75-12.34-3-3 1.13-5.88 3.07-7.16 6.42a20.2 20.2 0 0 0 0 16.11 48.87 48.87 0 0 0 5.65 9.16c-2.33-14.1 7.03-23.7 13.85-28.69Z"/><path d="M105 9.83a28.13 28.13 0 0 0-8.29-1.21 27.58 27.58 0 0 0-9.3 1.56c1.22 2.23 7.13 4.21 12.34 3a10.52 10.52 0 0 0 5.59-3.22Z" style="fill:#d64d2f"/><path class="cls-9" d="m95.42 5.94 1.59 1.02-.19.54-1.5-1.38.1-.18z"/><path class="cls-9" d="M95.79 13.53s-.14-9.9 4.41-11a.5.5 0 0 1 .48.62 9.69 9.69 0 0 0-3.27 4.35c-.42 1.06-1.37 4.64-.63 6Z"/><path d="M89.38 3.33A22.52 22.52 0 0 1 81 .91c1.72 2 2.27 4.4 4.76 5.62 3.42 1.68 6.84.91 10.24-.22a.15.15 0 0 0 0-.06c-.51-1.25-3.57-2.66-6.62-2.92Z" style="fill:#00f28d"/><path d="M91.18.4c-3.7-1.22-6.31.78-10.22.51a22.52 22.52 0 0 0 8.42 2.42c3.05.26 6.11 1.71 6.55 2.92.07-.54.2-4.25-4.75-5.85Z" style="fill:#00d67c"/><path class="cls-12" d="M79.11 29s-6.24 5.3-2.72 16.06a32.93 32.93 0 0 1 5.42-3.19s-2.1-2.22-.21-6.51Z"/><path class="cls-13" d="M81.6 35.36s19.4-2.09 32.47-16.07a13.86 13.86 0 0 1 .75 6.73s-7.51 12.21-30.1 14.28a23.77 23.77 0 0 1-3.12-4.94Z"/><path class="cls-12" d="M78.56 23.74a19.24 19.24 0 0 0 .85 6.67 42.15 42.15 0 0 0 31.82 6 22 22 0 0 0 2.84-6.22 47.32 47.32 0 0 1-35.51-6.45Z"/><path class="cls-13" d="M114.73 26.64a14.27 14.27 0 0 0 5.26.6 8.73 8.73 0 0 1-1.66 6 6.4 6.4 0 0 1-5.11-.52 22.51 22.51 0 0 0 1.51-6.08Z"/><path class="cls-4" d="m82.86 37.56-.24-1.76a.09.09 0 0 0-.1-.07h-.28a.08.08 0 0 0-.07.1l.1.78q.3.54.57 1a.08.08 0 0 0 .02-.05Zm.82-2h-.28a.08.08 0 0 0-.07.1l.26 1.76a.08.08 0 0 0 .1.07h.29a.08.08 0 0 0 .07-.1l-.28-1.76a.07.07 0 0 0-.09-.07Zm1.12-.19-.28.05a.08.08 0 0 0-.07.1l.3 1.75a.1.1 0 0 0 .1.08l.29-.06a.08.08 0 0 0 .07-.1l-.31-1.75a.09.09 0 0 0-.1-.07Zm1.36-.26-.49.1a.08.08 0 0 0-.06.1l.48 2.53a.08.08 0 0 0 .1.07l.51-.1a.09.09 0 0 0 .07-.11l-.51-2.52a.08.08 0 0 0-.1-.07Zm1.15-.24-.28.06A.09.09 0 0 0 87 35l.38 1.73a.08.08 0 0 0 .1.07l.29-.06a.09.09 0 0 0 .06-.11l-.38-1.73a.09.09 0 0 0-.14-.03Zm1.19 1.64a.09.09 0 0 0 .1.07l.29-.07a.09.09 0 0 0 .11-.11l-.35-1.46-.5-.17Zm1.28-.22.28-.07s.08-.06.06-.11l-.19-.74-.52-.16.26 1a.09.09 0 0 0 .11.08Zm1.13-.29.29-.08a.09.09 0 0 0 .06-.11l-.52-.15.09.33a.09.09 0 0 0 .08.01Zm1.39.42.5-.15a.09.09 0 0 0 .06-.11l-.78-.16.11.39a.09.09 0 0 0 .11.03Zm7.45-5.79-.25.12a.09.09 0 0 0 0 .12l.07.14h.52l-.18-.39a.09.09 0 0 0-.16.01Zm1.05-.52-.25.13a.1.1 0 0 0 0 .12l.38.76h.54l-.52-1a.08.08 0 0 0-.15-.01Zm1.12-.48a.09.09 0 0 0-.12 0l-.25.13a.09.09 0 0 0 0 .12l.72 1.35h.53Zm1.2-.63a.1.1 0 0 0-.12 0l-.43.25a.09.09 0 0 0 0 .12l1.1 1.95h.78a.15.15 0 0 0 0-.07Zm1.53 1.11a.09.09 0 0 0 .12 0L105 30a.09.09 0 0 0 0-.12l-.93-1.51a.09.09 0 0 0-.12 0l-.24.15a.09.09 0 0 0 0 .12Zm1.01-.63a.11.11 0 0 0 .13 0l.25-.16a.08.08 0 0 0 0-.12l-1-1.49a.09.09 0 0 0-.12 0l-.24.15a.08.08 0 0 0 0 .12Zm1.01-.67a.09.09 0 0 0 .13 0l.24-.16a.08.08 0 0 0 0-.12l-1-1.46a.09.09 0 0 0-.12 0l-.23.16a.08.08 0 0 0 0 .12Zm.98-.67a.08.08 0 0 0 .12 0L108 28a.09.09 0 0 0 0-.13l-1-1.43a.08.08 0 0 0-.12 0l-.23.17a.09.09 0 0 0 0 .12Zm1.45-.09a.08.08 0 0 0 .12 0l.43-.32a.09.09 0 0 0 0-.12l-1.59-2a.08.08 0 0 0-.12 0l-.4.29a.09.09 0 0 0 0 .12Zm.64-1.52a.08.08 0 0 0 .12 0l.23-.19a.08.08 0 0 0 0-.12L109 24.87a.08.08 0 0 0-.12 0l-.22.18a.08.08 0 0 0 0 .12Zm.92-.77a.08.08 0 0 0 .12 0l.22-.2a.09.09 0 0 0 0-.13l-1.18-1.33a.09.09 0 0 0-.12 0l-.21.19a.09.09 0 0 0 0 .12Zm.9-.76a.08.08 0 0 0 .12 0l.22-.2a.08.08 0 0 0 0-.12l-1.22-1.29a.09.09 0 0 0-.13 0l-.2.19a.08.08 0 0 0 0 .12Zm.85-.86a.09.09 0 0 0 .13 0l.21-.21a.08.08 0 0 0 0-.12l-1.25-1.26a.09.09 0 0 0-.12 0l-.2.2a.09.09 0 0 0 0 .12Zm1.44-.31a.08.08 0 0 0 .12 0l.19-.19.17-.2a.09.09 0 0 0 0-.12l-1.9-1.75a.09.09 0 0 0-.12 0l-.16.18a1.66 1.66 0 0 1-.17.18.08.08 0 0 0 0 .12Zm.39-1.61a.09.09 0 0 0 .12 0l.2-.23a.08.08 0 0 0 0-.12l-1.34-1.16a.09.09 0 0 0-.12 0l-.19.21a.08.08 0 0 0 0 .12Zm-.43-2.38-.17.22a.08.08 0 0 0 0 .12l.91.76c-.06-.28-.13-.54-.19-.75l-.44-.36a.09.09 0 0 0-.11.01ZM79.25 24.6l-.25-.15a.07.07 0 0 0-.11 0l-.35.56v.85l.7-1.18a.07.07 0 0 0 .01-.08Zm-.01 3.06 1.24-2.25a.08.08 0 0 0 0-.12L80 25a.1.1 0 0 0-.12 0l-1.2 2.2a2.51 2.51 0 0 1 0 .27l.4.22a.09.09 0 0 0 .16-.03Zm1.5-.93L81 27l.51-1a.08.08 0 0 0 0-.12l-.25-.13a.08.08 0 0 0-.12 0l-.58 1.08.08-.09a.08.08 0 0 1 .1-.01Zm-.16.85a.1.1 0 0 0 .12 0l.1-.19-.34-.27-.16.29a.09.09 0 0 0 0 .12Zm1.98-1.09a.08.08 0 0 0 0-.11l-.26-.13a.1.1 0 0 0-.12 0l-.56 1.13.37.3Zm-1.21 1.39a.1.1 0 0 0 0 .12l.27.13h.1l-.37-.29Zm1.14.65.27.13a.09.09 0 0 0 .12-.05l.75-1.61a.08.08 0 0 0 0-.11l-.26-.12a.1.1 0 0 0-.12 0l-.76 1.6a.09.09 0 0 0 0 .16Zm1.09.47.27.12a.08.08 0 0 0 .11 0l.71-1.62a.09.09 0 0 0 0-.12l-.26-.12a.08.08 0 0 0-.11.05l-.73 1.62a.09.09 0 0 0 .01.07Zm.82 1.25.48.2a.09.09 0 0 0 .12-.05l1-2.4a.09.09 0 0 0 0-.12l-.47-.19a.08.08 0 0 0-.11.05l-1 2.37a.09.09 0 0 0-.02.14Zm1.65-.2.28.11a.1.1 0 0 0 .11-.05l.62-1.67a.08.08 0 0 0 0-.11l-.27-.11a.1.1 0 0 0-.11.06L86 29.93a.09.09 0 0 0 .05.12Zm1.13.42.28.1a.08.08 0 0 0 .11-.06l.59-1.67a.1.1 0 0 0 0-.12l-.27-.09a.09.09 0 0 0-.11.06l-.6 1.67a.09.09 0 0 0 0 .11Zm1.16.4.28.09a.08.08 0 0 0 .11-.06l.55-1.69a.1.1 0 0 0 0-.11L89 29a.09.09 0 0 0-.11.05l-.56 1.69a.09.09 0 0 0 .01.13Zm1.13.36.29.09a.11.11 0 0 0 .11-.06l.5-1.7a.08.08 0 0 0-.05-.11l-.27-.09a.09.09 0 0 0-.11.06l-.52 1.7a.08.08 0 0 0 .05.11Zm.97 1.11.51.15a.09.09 0 0 0 .1-.07l.67-2.48a.09.09 0 0 0-.06-.11l-.48-.14a.1.1 0 0 0-.11.06l-.7 2.48a.09.09 0 0 0 .07.11Zm1.61-.4.29.08a.09.09 0 0 0 .11-.07l.41-1.73a.07.07 0 0 0-.06-.1l-.28-.07a.09.09 0 0 0-.1.06L92 31.84a.08.08 0 0 0 .05.1Zm1.18.29.29.06a.08.08 0 0 0 .1-.07l.38-1.74a.08.08 0 0 0-.06-.1l-.28-.06a.1.1 0 0 0-.11.07l-.39 1.73a.09.09 0 0 0 .07.11Zm1.86-1.61-.28-.06a.08.08 0 0 0-.1.07L94.43 32l.51-.2.21-1.1a.09.09 0 0 0-.06-.08Zm-.73 1.75a.09.09 0 0 0 .07.11l.29.06a.09.09 0 0 0 .1-.07l.12-.65-.51.2Zm1.93-1.45a.1.1 0 0 0-.07-.1l-.28-.05a.08.08 0 0 0-.1.07l-.12.67.5-.2Z"/><path class="cls-4" d="m96.06 32.26.16-.95-.5.2-.19 1.08a.08.08 0 0 0 .07.1l.29.06a.1.1 0 0 0 .1-.08l.07-.39Zm0 .02Zm1.13-.5.41-.17.07-.48a.1.1 0 0 0-.08-.1L97.1 31a.1.1 0 0 0-.1 0l-.27 1.76.38.94h.1a.09.09 0 0 0 .1-.08l.15-1-.32-.76a.08.08 0 0 1 .05-.08Zm-.58 1.81a.11.11 0 0 0 .08.1l.42.05-.38-.94Z"/><path class="cls-4" d="M97.19 31.78a.08.08 0 0 0 0 .11l.32.76.14-1Zm1.26-.55.15-.06h-.12a.1.1 0 0 0-.1.08l-.18 1.45.19.43h.15a.1.1 0 0 0 .1-.08l.1-1-.33-.74a.09.09 0 0 1 .04-.08Z"/><path class="cls-4" d="M98.17 33a.08.08 0 0 0 .07.1h.15l-.19-.43Zm.59-1.81h-.16l-.15.06a.09.09 0 0 0 0 .12l.33.74.1-.81a.08.08 0 0 0-.12-.11Zm.87.08a.09.09 0 0 0-.09.08l-.11 1.14.13.29a.08.08 0 0 1 0 .11l-.14.07v.16a.09.09 0 0 0 .07.1h.3a.1.1 0 0 0 .1-.08l.11-1.24-.3-.62Z"/><path class="cls-4" d="m99.56 32.78-.13-.29-.05.47.14-.07a.08.08 0 0 0 .04-.11Zm.36-1.48h-.27l.3.62v-.5a.09.09 0 0 0-.03-.12Zm.89.08a.08.08 0 0 0-.09.08l-.14 1.77a.11.11 0 0 0 .08.1h.3a.09.09 0 0 0 .1-.08l.1-1.6-.13-.27Z"/><path class="cls-4" d="M101.09 31.39H101l.13.27v-.17a.09.09 0 0 0-.04-.1Zm1.15.07h-.29s-.08 0-.09.09l-.09 1.77a.11.11 0 0 0 .08.1h.3a.08.08 0 0 0 .09-.08l.08-1.77a.1.1 0 0 0-.08-.11Zm1.39.04h-.5a.08.08 0 0 0-.09.08l-.04 2.57a.09.09 0 0 0 .09.09h.53a.09.09 0 0 0 .09-.09v-2.57a.08.08 0 0 0-.08-.08Zm1.18 0h-.29a.09.09 0 0 0-.08.09v1.78a.08.08 0 0 0 .09.08h.3a.08.08 0 0 0 .08-.09v-1.78a.08.08 0 0 0-.1-.08Zm1.19-.02h-.28a.1.1 0 0 0-.09.09l.05 1.78a.09.09 0 0 0 .09.09h.3a.09.09 0 0 0 .08-.09l-.06-1.77a.09.09 0 0 0-.09-.1Zm.87 1.83a.08.08 0 0 0 .09.08h.3a.08.08 0 0 0 .08-.09V33l-.46.29Zm.28-1.89h-.29a.1.1 0 0 0-.08.1l.09 1.76.46-.29-.09-1.5a.11.11 0 0 0-.09-.07Zm.91 1.81a.09.09 0 0 0 .09.09h.3a.09.09 0 0 0 .08-.09l-.08-1-.44.31Zm.23-1.88h-.28a.08.08 0 0 0-.08.09l.08 1.08.44-.31-.07-.8a.09.09 0 0 0-.09-.06Zm1.06 2.58a.1.1 0 0 0 .1.08L110 34a.08.08 0 0 0 .08-.1l-.28-2.56-.61.48Zm.33-2.72-.5.06a.08.08 0 0 0-.07.1v.36l.61-.48a.08.08 0 0 0-.04-.04Zm1.17-.13h-.28a.08.08 0 0 0-.07.1l.21 1.76a.09.09 0 0 0 .1.08h.3a.09.09 0 0 0 .07-.1l-.18-1.76a.1.1 0 0 0-.15-.08Zm1.15-.17h-.29a.09.09 0 0 0-.07.1l.26 1.76a.1.1 0 0 0 .1.08h.29a.08.08 0 0 0 .07-.1L112.1 31s-.05-.1-.1-.09Zm1.23 1.79.08-.18a1.42 1.42 0 0 0-.08.18Zm.26-.7-.22-1.24a.1.1 0 0 0-.1-.08l-.28.06a.08.08 0 0 0-.07.1l.3 1.75a.08.08 0 0 0 .1.08 1.42 1.42 0 0 1 .08-.18c.05-.09.11-.24.19-.49Zm-.18.52.18-.47c-.08.2-.14.35-.18.47Zm.69-1.85v-.08a.08.08 0 0 0 0 .08ZM78.09 43.23l-1.72.43a.08.08 0 0 0-.07.1l.07.28a.09.09 0 0 0 .11.06l1.71-.47a.09.09 0 0 0 .07-.1l-.06-.25a.09.09 0 0 0-.11-.05Zm.53-1.37-2.53.42a.1.1 0 0 0-.08.1l.09.5a.09.09 0 0 0 .1.07l2.53-.52s.08 0 .07-.09l-.07-.42a.09.09 0 0 0-.11-.06Zm-.8-.6V41a.1.1 0 0 0-.1-.07l-1.77.18a.08.08 0 0 0-.08.09v.29a.07.07 0 0 0 .09.07l1.77-.22a.08.08 0 0 0 .09-.08Zm-.18-.97s.09 0 .08-.08a2.26 2.26 0 0 1 0-.26.08.08 0 0 0-.09-.07l-1.77.06a.09.09 0 0 0-.09.09 2.81 2.81 0 0 0 0 .29.1.1 0 0 0 .1.08Zm-1.79-1.08h1.78a.11.11 0 0 0 .09-.08v-.26s0-.07-.09-.08l-1.78-.06a.09.09 0 0 0-.09.09v.29a.09.09 0 0 0 .09.1Zm.04-1.15 1.77.13a.1.1 0 0 0 .1-.07v-.26s0-.07-.08-.08l-1.77-.18a.1.1 0 0 0-.1.08v.29a.08.08 0 0 0 .08.09Zm.11-1.18 2.55.36a.07.07 0 0 0 .09-.06v-.42a.08.08 0 0 0-.07-.09l-2.53-.46a.11.11 0 0 0-.11.07v.5a.09.09 0 0 0 .07.1Zm.28-1.38 1.73.39a.09.09 0 0 0 .11 0v-.26a.08.08 0 0 0-.07-.09l-1.72-.43a.07.07 0 0 0-.1.06l-.07.28a.08.08 0 0 0 .12.05Zm.28-1.13 1.7.5a.09.09 0 0 0 .11 0l.09-.25a.1.1 0 0 0-.06-.1l-1.7-.53a.08.08 0 0 0-.11.05l-.09.27c-.02 0 .01.04.06.06Zm2.18-.91-1.65-.64a.08.08 0 0 0-.11 0l-.1.27a.09.09 0 0 0 .06.11l1.67.6a.08.08 0 0 0 .11 0l.08-.24a.1.1 0 0 0-.06-.1Zm.42-.95-1.61-.74a.09.09 0 0 0-.12 0l-.12.26a.08.08 0 0 0 0 .11l1.63.7a.09.09 0 0 0 .12 0l.11-.23a.08.08 0 0 0-.01-.1ZM78 30.55l-.22.46a.08.08 0 0 0 0 .11l2.19 1.1-.32-.84-1.59-.86a.08.08 0 0 0-.06.03Zm1.2-.75-.45-.28a.09.09 0 0 0-.12 0l-.15.24a.09.09 0 0 0 0 .12l.9.5a6.26 6.26 0 0 1-.18-.58Zm1.24-2.8a.09.09 0 0 0 0 .07l.1-.2Z"/><path class="cls-4" d="M80.8 27.35 81 27l-.27-.22a.08.08 0 0 0-.12 0l-.08.09-.1.2Zm.96.75.18-.37-.37-.3-.2.39Zm33.08-1.25-.11-.07c0 .19 0 .39-.08.58l.2-.41a.09.09 0 0 0-.01-.1Zm.56.24s-.07 0-.09.07l-.62 1.66a.08.08 0 0 0 0 .11l.31.07a.09.09 0 0 0 .11-.06l.54-1.69a.09.09 0 0 0 0-.11Zm1.1.3h-.23s-.07 0-.09.07l-.42 1.72a.09.09 0 0 0 0 .11l.27.05a.1.1 0 0 0 .1-.07l.37-1.74a.08.08 0 0 0 0-.14Zm.95.18-.23-.05s-.07 0-.08.08l-.29 1.75a.08.08 0 0 0 .06.1l.27.05a.08.08 0 0 0 .09-.07l.24-1.76c0-.05-.02-.1-.06-.1Zm.97.09h-.24s-.08 0-.09.08l-.18 1.77a.07.07 0 0 0 .06.09h.27a.11.11 0 0 0 .09-.09l.15-1.77a.07.07 0 0 0-.06-.08Zm1.19.08h-.44s-.07 0-.07.08l-.1 2.56a.11.11 0 0 0 .08.1h.48a.09.09 0 0 0 .08-.09l.09-2.57a.08.08 0 0 0-.12-.08Z"/><path class="cls-5" d="M156 47c-4.7 0-22.94 1.37-19.13 10.25 0 0 6.86 25.83 7.53 26.34 0 0 2.3 2.56 11.6 2.2 9.62 0 11.61-2.2 11.61-2.2.66-.51 7.52-26.34 7.52-26.34C178.93 48.39 160.79 47 156 47Z"/><path class="cls-14" d="M155.45 48.38c-5.91 0-15.21 1.46-17.35 4.7a2.85 2.85 0 0 0 0 2.92l.06.13v.13c2.35 8.85 6.27 23.2 7.21 25.62.58.38 2.81 1.55 8.33 1.55h2.01c6.71 0 9.23-1.16 9.88-1.55 1-2.49 4.85-16.77 7.2-25.59v-.26a2.82 2.82 0 0 0 0-2.93c-2.12-3.27-11.41-4.72-17.34-4.72Z"/><path class="cls-15" d="M155.45 46.49c-4.7 0-22.94 1.37-19.13 10.25 0 0 6.86 25.83 7.53 26.34 0 0 2.3 2.57 11.6 2.2 9.62 0 11.61-2.2 11.61-2.2.66-.51 7.52-26.34 7.52-26.34 3.82-8.88-14.32-10.25-19.13-10.25Zm17.4 9.51v.26c-2.35 8.82-6.25 23.1-7.2 25.59-.65.39-3.17 1.55-9.88 1.55h-2.01c-5.52 0-7.75-1.17-8.33-1.55-.94-2.42-4.86-16.77-7.21-25.62v-.13l-.06-.13a2.85 2.85 0 0 1 0-2.92c2.14-3.24 11.44-4.7 17.35-4.7s15.22 1.45 17.36 4.69a2.82 2.82 0 0 1-.02 2.96Z"/><path class="cls-4" d="M142.13 62.26s13.78-5.59 26.65 0l1.49-9.1s-13.1-6.17-29.63 0Z"/><path class="cls-7" d="m154 59.84 1-5.3c.13-.71.35-.71.48 0l1 5.24Z"/><path class="cls-12" d="M151.23 70.28c.66-1 1.79-1.8 1.94-2.76a2.46 2.46 0 0 0-1.48-2.52 3.76 3.76 0 0 0-4.27 1.49 5.08 5.08 0 0 0-.26 2.76 13.81 13.81 0 0 0 .74 2.91c.19.54.37 1.07.53 1.61.52 1.79.24 3.22 1 4.93a1.68 1.68 0 0 0 2.08 1 2.44 2.44 0 0 0 1.35-2.29c.09-1.49-.74-2.4-1.57-3.51a2.8 2.8 0 0 1-.71-2.38 4.46 4.46 0 0 1 .65-1.24Zm1.48-6.89a1 1 0 1 1-2 0 1 1 0 1 1 2 0Zm-2.38 0c0 .36-.21.65-.46.65s-.46-.29-.46-.65.2-.66.46-.66.46.27.46.66Zm-1.23.48a.45.45 0 0 1-.39.49.45.45 0 0 1-.39-.49.44.44 0 0 1 .39-.48.44.44 0 0 1 .39.48Zm-.95.81a.4.4 0 1 1-.79 0 .4.4 0 1 1 .79 0Zm-.69 1.14a.44.44 0 0 1-.39.48.44.44 0 0 1-.39-.48.45.45 0 0 1 .39-.49.45.45 0 0 1 .39.49Zm12.47 4.46c-.65-1-1.79-1.8-1.93-2.76a2.45 2.45 0 0 1 1.47-2.52 3.77 3.77 0 0 1 4.28 1.49 5.07 5.07 0 0 1 .25 2.71 12.69 12.69 0 0 1-.74 2.91c-.18.54-.36 1.07-.52 1.61-.52 1.79-.25 3.22-1 4.93a1.69 1.69 0 0 1-2.09 1 2.42 2.42 0 0 1-1.34-2.29c-.1-1.49.74-2.4 1.57-3.51a2.8 2.8 0 0 0 .71-2.38 4.49 4.49 0 0 0-.66-1.19Zm-1.47-6.89a1 1 0 1 0 1-1.13 1.08 1.08 0 0 0-1 1.13Zm2.38 0c0 .36.21.65.46.65s.46-.29.46-.65-.21-.66-.46-.66-.46.27-.46.66Zm1.23.48a.4.4 0 1 0 .78 0 .4.4 0 1 0-.78 0Zm.93.81a.45.45 0 0 0 .39.49.45.45 0 0 0 .39-.49.44.44 0 0 0-.39-.48.44.44 0 0 0-.39.48Zm.7 1.14a.44.44 0 0 0 .39.48.44.44 0 0 0 .39-.48.45.45 0 0 0-.39-.49.45.45 0 0 0-.39.49Z"/><path class="cls-15" d="M142.8 56.34a.1.1 0 0 1-.05.13l-.56.21a.11.11 0 0 1-.14-.07l-1.15-2.93a.11.11 0 0 1 .07-.14l.6-.22a.11.11 0 0 1 .14.06Zm1.02-1.4a.1.1 0 0 1-.06.14l-.33.11a.11.11 0 0 1-.13-.07l-.71-2a.11.11 0 0 1 .06-.14l.36-.12a.11.11 0 0 1 .13.07Zm1.36-.42a.1.1 0 0 1-.06.13l-.34.1a.11.11 0 0 1-.13-.07L144 52.6a.11.11 0 0 1 .07-.14l.36-.1a.11.11 0 0 1 .13.08Zm1.39-.38a.1.1 0 0 1-.07.13h-.34a.1.1 0 0 1-.13-.08l-.56-2.1a.11.11 0 0 1 .08-.13h.36a.11.11 0 0 1 .09.04Zm1.36-.32a.11.11 0 0 1-.07.13l-.34.08a.11.11 0 0 1-.13-.08l-.48-2.12a.1.1 0 0 1 .08-.13l.36-.09a.11.11 0 0 1 .13.09Zm1.84.64a.13.13 0 0 1-.08.13l-.59.11a.11.11 0 0 1-.12-.09l-.58-3.09a.11.11 0 0 1 .08-.13l.64-.12a.11.11 0 0 1 .13.09ZM151 53.3a.1.1 0 0 1-.09.12h-.35a.1.1 0 0 1-.11-.09l-.31-2.15a.13.13 0 0 1 .1-.13l.37-.05a.11.11 0 0 1 .12.09Zm1.44-.15c0 .06 0 .12-.09.12H152a.1.1 0 0 1-.11-.1l-.22-2.17a.11.11 0 0 1 .09-.12h.38a.1.1 0 0 1 .11.1Zm1.43-.09a.1.1 0 0 1-.09.11h-.35a.11.11 0 0 1-.11-.11l-.13-2.16a.11.11 0 0 1 .1-.12h.37a.11.11 0 0 1 .12.1Zm1.4-.06a.11.11 0 0 1-.1.11h-.35a.1.1 0 0 1-.11-.1v-2.17a.12.12 0 0 1 .11-.12h.37a.11.11 0 0 1 .11.11Zm1.65 1a.11.11 0 0 1-.1.11 1.73 1.73 0 0 0-.3 0h-.29a.1.1 0 0 1-.1-.11l.07-3.15a.11.11 0 0 1 .11-.1h.69a.12.12 0 0 1 .1.12Zm1.48-.84a.12.12 0 0 1-.11.1h-.35a.1.1 0 0 1-.09-.12L158 51a.1.1 0 0 1 .11-.1h.38a.11.11 0 0 1 .1.12Zm1.41.16a.11.11 0 0 1-.12.1h-.34a.11.11 0 0 1-.09-.13l.25-2.15a.12.12 0 0 1 .12-.1h.37a.12.12 0 0 1 .1.12Zm1.41.23a.1.1 0 0 1-.12.09l-.34-.07a.11.11 0 0 1-.08-.12l.32-2.15a.1.1 0 0 1 .12-.09l.37.07a.11.11 0 0 1 .09.13Zm1.38.26a.12.12 0 0 1-.13.09l-.34-.07a.11.11 0 0 1-.08-.13l.44-2.12a.11.11 0 0 1 .13-.09l.37.07a.13.13 0 0 1 .08.13Zm1.4 1.36a.11.11 0 0 1-.12.08l-.58-.14a.13.13 0 0 1-.07-.14l.77-3a.11.11 0 0 1 .13-.08l.64.16a.11.11 0 0 1 .07.13Zm1.62-.52a.1.1 0 0 1-.13.07l-.34-.1a.11.11 0 0 1-.06-.14l.63-2.07a.12.12 0 0 1 .14-.08l.35.12a.1.1 0 0 1 .07.13Zm1.38.46a.11.11 0 0 1-.14.07l-.32-.13a.1.1 0 0 1-.06-.14l.72-2a.11.11 0 0 1 .14-.06l.34.13a.11.11 0 0 1 .07.14Zm1.3.52a.12.12 0 0 1-.14.06l-.33-.12a.11.11 0 0 1-.05-.14l.8-2a.11.11 0 0 1 .14-.06l.35.13a.1.1 0 0 1 .06.14Zm1.27.57a.11.11 0 0 1-.14.06l-.32-.15a.1.1 0 0 1 0-.14l.88-2a.11.11 0 0 1 .14-.06l-.2 1.59Z"/><path d="M142.13 62.26s11.75-8.26 18.71-11.5a41.25 41.25 0 0 0-20.2 2.4Z" style="fill:#858585;opacity:.23;mix-blend-mode:multiply"/><path class="cls-5" d="M47.85 108.63v-2.53a.87.87 0 0 0-.88-.88H32.72a.87.87 0 0 0-.88.88v2.53l-3.38 9.59v29.24h22.77v-29.24Z"/><path class="cls-4" d="M27.46 117.22h16.01v29.24H27.46z"/><path class="cls-17" d="M43.47 117.22h6.76v29.24h-6.76zm6.76 0-3.38-.88v-8.71l3.38 9.59z"/><path style="fill:#7ed3f7" d="M46.85 107.63v8.71l-3.38.88 2.76-7.81.62-1.78z"/><path class="cls-4" d="M50.23 117.22h-6.76l3.38-.88 3.38.88z"/><path class="cls-17" d="M46.85 107.35v.28l-.62 1.78-2.76 7.81H27.46l3.38-9.59v-.28h16.01z"/><path class="cls-4" d="M46.85 105.1v2.53h-16v-2.53a.87.87 0 0 1 .88-.88H46a.87.87 0 0 1 .85.88Z"/><path class="cls-19" d="M43.47 136.57v9.89h-16v-2.67c2.26 1.24 5 1.46 7-.55 1.4-1.4 2.06-3 3.75-4.26a12.57 12.57 0 0 1 5.25-2.41Z"/><path class="cls-12" d="M43.47 135.23v1.34a12.57 12.57 0 0 0-5.22 2.43c-1.69 1.25-2.35 2.86-3.75 4.26-2 2-4.78 1.79-7 .55v-4.38a1.73 1.73 0 0 0 1.39.31c1.76-.37 4-1.62 5.65-2.29 1.48-.58 3-1.32 4.41-1.76a14 14 0 0 1 4.52-.46Z"/><path d="M43.47 134.05v1.18a14 14 0 0 0-4.56.44c-1.46.44-2.93 1.18-4.41 1.76-1.68.67-3.89 1.92-5.65 2.29a1.73 1.73 0 0 1-1.39-.31v-5.48a8.93 8.93 0 0 0 1.83 1.3c1.25.59 2.13.08 3.38-.14a41.67 41.67 0 0 1 10.8-1.04Z" style="fill:#a5e3eb"/><path class="cls-12" d="M44.8 118.54h4.56v14.4H44.8z"/><path d="M44.93 139.98h.43v4.92h-.43zm.65 0h.59v4.38h-.59zm.86 0h.29v4.38h-.29zm.54 0h.43v4.38h-.43zm.64 0h.22v4.38h-.22zm.39 0h.22v4.38h-.22zm.35 0h.31v4.38h-.31zm.4 0h.43v4.92h-.43z" style="fill:#49818e"/><path class="cls-19" d="M34.24 127.88a.14.14 0 0 1 0 .07h-.08L34 128h-.67a.14.14 0 0 1 0-.07v-1.95a1.39 1.39 0 0 0 0-.3.58.58 0 0 0-.1-.24.46.46 0 0 0-.16-.15.41.41 0 0 0-.23 0 .56.56 0 0 0-.34.12 2.7 2.7 0 0 0-.37.38v2.19a.14.14 0 0 1 0 .07L32 128h-.81a.14.14 0 0 1 0-.07v-1.95a1.39 1.39 0 0 0 0-.3.75.75 0 0 0-.09-.24.46.46 0 0 0-.4-.2.59.59 0 0 0-.34.12 2.7 2.7 0 0 0-.36.38v2.19a.09.09 0 0 1 0 .07s0 0-.07 0H29a.14.14 0 0 1 0-.07v-3.29a.14.14 0 0 1 0-.07h.07a.35.35 0 0 1 .12 0h.39a.35.35 0 0 1 .12 0 .09.09 0 0 1 .06 0 .14.14 0 0 1 0 .07v.36a2.15 2.15 0 0 1 .54-.45 1.3 1.3 0 0 1 .57-.14 1.4 1.4 0 0 1 .37 0 1.26 1.26 0 0 1 .29.12 1 1 0 0 1 .22.19 1 1 0 0 1 .15.25 2.32 2.32 0 0 1 .29-.27 2 2 0 0 1 .28-.19 1.62 1.62 0 0 1 .28-.11 1.33 1.33 0 0 1 .28 0 1.19 1.19 0 0 1 .56.11.88.88 0 0 1 .36.3 1.19 1.19 0 0 1 .2.44 2.35 2.35 0 0 1 .06.54Zm1.91-4.41a.51.51 0 0 1-.11.39.65.65 0 0 1-.43.11.6.6 0 0 1-.42-.11.51.51 0 0 1-.11-.37.55.55 0 0 1 .11-.39.65.65 0 0 1 .43-.11.6.6 0 0 1 .42.11c.08.06.11.19.11.37Zm-.07 4.41a.08.08 0 0 1 0 .07s0 0-.08 0h-.81a.14.14 0 0 1 0-.07v-3.29a.14.14 0 0 1 0-.06.16.16 0 0 1 .08 0H36a.12.12 0 0 1 .08 0 .07.07 0 0 1 0 .06Zm1.86 0a.14.14 0 0 1 0 .07s0 0-.08 0h-.73L37 128a.14.14 0 0 1 0-.07V123a.14.14 0 0 1 0-.06.16.16 0 0 1 .08 0 .39.39 0 0 1 .14 0h.45a.39.39 0 0 1 .14 0 .12.12 0 0 1 .08 0 .14.14 0 0 1 0 .06Zm3.99.01a.07.07 0 0 1 0 .06s0 0-.07 0h-.79a.13.13 0 0 1-.09 0 .22.22 0 0 1-.06-.07l-1.1-1.74v1.74a.14.14 0 0 1 0 .07h-.67L39 128h-.08a.14.14 0 0 1 0-.07V123a.14.14 0 0 1 0-.06.16.16 0 0 1 .08 0 .39.39 0 0 1 .14 0h.45a.39.39 0 0 1 .14 0 .16.16 0 0 1 .08 0 .14.14 0 0 1 0 .06v2.9l1-1.32.06-.07a.31.31 0 0 1 .1 0 .57.57 0 0 1 .15 0h.46a.57.57 0 0 1 .16 0 .15.15 0 0 1 .08 0 .14.14 0 0 1 0 .07.27.27 0 0 1 0 .12l-.08.13-1 1.1 1.12 1.72a.49.49 0 0 1 .06.13.18.18 0 0 1 .01.11Z"/><path class="cls-5" d="m58 139.36-1.44-1.45-.9.23-.54.13a4 4 0 0 0-2.27-.05c-1.77.43-14.87 10.68-29.44-.81a4.13 4.13 0 0 0-2.64-.83l.13-.06c-1.23-1-1.27-2.72-1.38-4.15-.11-1.06 0-2.29.66-2.41.36-1.77-.71-1.73-2.39-2.42a20 20 0 0 0-4.74-1.77c-2.3.37-2.37.45-2.52 1.1v.18a2 2 0 0 0 .33 1.67c.34.39 2 .47 2 .91s-.78 4.58-.17 6.59c-.66 2.71 0 7.49 3 12.23.16.25.32.5.49.75a26.21 26.21 0 0 0 3 3.64c.48.46 1 .92 1.51 1.37a28.22 28.22 0 0 0 4.54 3.17 28.18 28.18 0 0 0 12.28 3.87h2.24a20.37 20.37 0 0 0 3.85-.52l.56-.14a20.28 20.28 0 0 0 2.83-1l.89-.44.71-.41a5.76 5.76 0 0 0 1-.73 7 7 0 0 0 1-1.63l.58-.54.36-.35-.93-1.93-.94-.26-.57-.16a5.51 5.51 0 0 0-2.2-1.19 3 3 0 0 0-.59-.08 20.44 20.44 0 0 0 4.7-2.22 15.68 15.68 0 0 0 6.18-6.71 9.94 9.94 0 0 0 .34-2.17l.31-.86Zm-41.48-4.83a3.35 3.35 0 0 0-.37-.2Zm-.52-.26a3.39 3.39 0 0 0-.41-.15Zm3 2.84h.09l-.05.05a.22.22 0 0 0-.04-.05Zm-3.42-3a4.37 4.37 0 0 0-.49-.12 4.37 4.37 0 0 1 .49.12Zm34.72 20.57Zm-.53-1.27Zm6.88-14.15Z"/><path class="cls-22" d="M18.17 136c.17-.05.36-.08.53-.14a9 9 0 0 0 1-.36 2.86 2.86 0 0 0-1.11.23s-.06 0-.09.05a.22.22 0 0 0-.13.06.92.92 0 0 0-.2.16Z"/><path class="cls-22" d="M18.43 142a.25.25 0 0 0 .05.08l.29.53a19.62 19.62 0 0 0 12.08 8.6 24.18 24.18 0 0 0 4.92.72 26.2 26.2 0 0 0 9.49-1.19 20.66 20.66 0 0 0 4.62-2.17 15.87 15.87 0 0 0 6.19-6.72 10.35 10.35 0 0 0 .33-2.17l.32-.85a1.21 1.21 0 0 1-.66 0 .76.76 0 0 1-.21-.2 1.56 1.56 0 0 1-.13-.19 2 2 0 0 0-.17-.23c-.17-.23-.2-.4-.41-.58a2.59 2.59 0 0 1-.46-.41l-.09-.13-.54.13a4 4 0 0 0-2.27-.05c-1.77.43-14.87 10.68-29.43-.81a4.24 4.24 0 0 0-2.65-.83 2.86 2.86 0 0 0-1.11.23h-.1a.22.22 0 0 0-.13.06.92.92 0 0 0-.21.13.38.38 0 0 0-.15.13s0 0-.07 0c-1.01 1.11-.83 3.39.5 5.92Z"/><path d="m54.61 137.06.09.13a2.59 2.59 0 0 0 .46.41c.21.18.24.35.41.58a2 2 0 0 0 .52.64 1.21 1.21 0 0 0 .66 0l.2-.56-1.44-1.45Zm-5.96 15.13a1.31 1.31 0 0 1 .05.15c.06.2-.14.49 0 .7s.46.28.56.56 0 1 .16 1.19a.64.64 0 0 0 .77 0l.38-.36-.94-1.93Z" style="fill:#604129"/><path class="cls-22" d="M9.48 125.78a2.2 2.2 0 0 0 .31 1.84c.35.39 2 .47 2 .92s-.78 4.58-.17 6.58a4.12 4.12 0 0 1 .46-1.2 2.38 2.38 0 0 1 .6-.71l.27-.16a1 1 0 0 1 .5-.14 1.64 1.64 0 0 1 .54 0 5.47 5.47 0 0 1 3.48 2.41l.44.7h.21a.52.52 0 0 1 .21-.13.22.22 0 0 1 .13-.06s.06 0 .09-.05a2.86 2.86 0 0 1 1.11-.23l.13-.05c-1.23-1-1.26-2.73-1.37-4.16-.12-1.06 0-2.29.66-2.41.35-1.77-.72-1.73-2.39-2.41a19.67 19.67 0 0 0-4.69-1.83c-2.3.36-2.37.44-2.52 1.09Z"/><path class="cls-24" d="M9.48 125.77a2.2 2.2 0 0 0 .31 1.84c.35.39 2 .47 2 .92s-.78 4.57-.17 6.58a4.42 4.42 0 0 1 .46-1.2l.41-.54a10.12 10.12 0 0 1 .07-3.19c0-.43.36-1.53.16-2s-.63-.25-.82-.73a.21.21 0 0 0 0-.06 15.39 15.39 0 0 1 .13-2.76c-2.33.37-2.39.49-2.55 1.14Zm5.03 7.23c.3-.09.64.11 1 .45a5.57 5.57 0 0 1 2 1.85l.43.69h.12H18l-.06.06c-1 1-.82 3.31.51 5.84l.05.05.29.53a19.67 19.67 0 0 0 12 8.57 24 24 0 0 0 5 .74 25.88 25.88 0 0 0 9.45-1.17 20.44 20.44 0 0 0 4.67-2.17 15.87 15.87 0 0 0 6.19-6.72 10.35 10.35 0 0 0 .33-2.17l.32-.85a1.09 1.09 0 0 1-.65 0s0 0-.06 0a.8.8 0 0 1-.16-.16 2.14 2.14 0 0 1-.13-.19 2 2 0 0 0-.17-.23c-3 3.63-8.86 5.68-13.06 6.6a24.42 24.42 0 0 1-14.13-.87 18.2 18.2 0 0 1-9.7-8.07l-.06-.12c-.17-.74-2.21-2.75-2.38-3.49-.2-1 .19-3.25-.86-3.18a13.43 13.43 0 0 0-.88 4.01Z"/><path class="cls-22" d="M11.61 135.12c-.66 2.71 0 7.5 3 12.23.15.25.32.5.48.75a25.64 25.64 0 0 0 3 3.64c.49.46 1 .92 1.51 1.38a28.64 28.64 0 0 0 4.54 3.16 28 28 0 0 0 12.28 3.87h2.24a21.17 21.17 0 0 0 3.85-.53l.56-.14a18.67 18.67 0 0 0 2.83-1c.32-.15.63-.3.89-.44s.51-.28.71-.41a6.54 6.54 0 0 0 1-.72 6.82 6.82 0 0 0 1-1.63l.58-.55a1.55 1.55 0 0 1-.62-.35.93.93 0 0 1-.1-.2.63.63 0 0 1-.07-.22 1.81 1.81 0 0 1-.09-.29 3.06 3.06 0 0 0-.2-.69 3.07 3.07 0 0 1-.33-.58.8.8 0 0 1 0-.15l-.57-.16a5.53 5.53 0 0 0-2.2-1.18 2.46 2.46 0 0 0-.6-.09c-3.53-.26-17.59.17-27.25-14.63l-.05-.07-.44-.7a5.57 5.57 0 0 0-2-1.85 3.68 3.68 0 0 0-1-.45 3.22 3.22 0 0 0-.5-.11 2.45 2.45 0 0 0-.54 0h-.23a1.69 1.69 0 0 0-.27.1l-.27.16a2.38 2.38 0 0 0-.6.71 4.12 4.12 0 0 0-.54 1.14Z"/><path class="cls-24" d="M11.61 135.12c-.66 2.71 0 7.5 3 12.23.15.25.32.5.48.75a25.64 25.64 0 0 0 3 3.64c.49.46 1 .92 1.51 1.38a28.64 28.64 0 0 0 4.54 3.16 28 28 0 0 0 12.28 3.87h2.24a21.17 21.17 0 0 0 3.85-.53l.56-.14a18.67 18.67 0 0 0 2.83-1c.32-.15.63-.3.89-.44s.51-.28.71-.41a6.54 6.54 0 0 0 1-.72 6.82 6.82 0 0 0 1-1.63l.58-.55a1.51 1.51 0 0 1-.64-.35.93.93 0 0 1-.1-.2.63.63 0 0 1-.07-.22 2.65 2.65 0 0 1-.08-.29c-4.11 1.51-10.47.26-14.85-1.09-1.22-.39-2.37-.82-3.5-1.29a.15.15 0 0 1-.07 0 32 32 0 0 1-9.87-6.52 24.92 24.92 0 0 1-2.41-2.61l-.05-.05a23.23 23.23 0 0 1-3.33-5.48 17.64 17.64 0 0 1-1.09-3.6 1.64 1.64 0 0 0-.54 0 1 1 0 0 0-.5.14l-.27.16a2.38 2.38 0 0 0-.6.71 4.12 4.12 0 0 0-.5 1.08Z"/><path d="M9.61 126.61c-.06.72.62.21 1.07.25s.7.23.85-.13a8.57 8.57 0 0 0 .11-1.44s-.37-.12-.43-.11a3.29 3.29 0 0 0-1.42.3c-.34.22-.15.77-.18 1.13Z" style="fill:#98746e"/><path class="cls-5" d="M32.93 159.48a1 1 0 0 0 .15-.24 1.06 1.06 0 0 0-.08-1.89 67.14 67.14 0 0 1-8.24-4.5 58.63 58.63 0 0 1-5.76-4.42 1.55 1.55 0 0 0 .06-.55 2 2 0 0 0 .47-1.73 4.47 4.47 0 0 0-.09-.45 1.31 1.31 0 0 0 0-1.68 2.09 2.09 0 0 0-2.17-.67 1.84 1.84 0 0 0-.56.28h-.61a2 2 0 0 0-1.31.5 1.88 1.88 0 0 0-.33 0 1.32 1.32 0 0 0-1.72-.5q-.26.13-.51.3a1.78 1.78 0 0 0-.57-.07 1.31 1.31 0 0 0-1.32.89 2.7 2.7 0 0 0-.85.42 1.8 1.8 0 0 0-.62 1 2.33 2.33 0 0 0-.08.38l-.51.29a2.31 2.31 0 0 0-.45.34l-.09.08a2.55 2.55 0 0 0-.29.38.3.3 0 0 0 0 .08 1.88 1.88 0 0 0-.16.39.14.14 0 0 0 0 .06 2.44 2.44 0 0 0-.07.46s0 0 0 .05a3 3 0 0 0 0 .52 2.2 2.2 0 0 0-2.52 1.43 1 1 0 0 0 0 .17 1.8 1.8 0 0 0-.47 1.2 3.7 3.7 0 0 0-.47.65 2.28 2.28 0 0 0-1 1.09 1.82 1.82 0 0 0 .59 2 2.9 2.9 0 0 0 .26.53 1.16 1.16 0 0 0 .59 1.06 2.58 2.58 0 0 0 1.93.45 5.86 5.86 0 0 0 .57.26l-.13.39a2.06 2.06 0 0 0 0 1.32 3.8 3.8 0 0 0-.41.49 1.28 1.28 0 0 0 .62 1.93 1.91 1.91 0 0 0 .84 1.73 2.73 2.73 0 0 0 1.2.38 1.65 1.65 0 0 0 1.77.57l.29-.1a1.58 1.58 0 0 0 .26.13 2.25 2.25 0 0 0 .42.13 1.43 1.43 0 0 0 .43.55 1.88 1.88 0 0 0 .55.27 1.78 1.78 0 0 0 1.16-.07 1.62 1.62 0 0 0 .87-1 2 2 0 0 0 .08-.55v-.29a4.64 4.64 0 0 0 .4-.31 3.09 3.09 0 0 0 1.13-2.19 23.23 23.23 0 0 1 5.22-.51 31.87 31.87 0 0 1 9 1.07 1 1 0 0 0 1.26-.83l.25.08a1 1 0 0 0 1.02-1.75Zm-12.48-5.1c1.05.5 2.11 1 3.16 1.5L20 154.74c0-.07.07-.14.11-.2a2.54 2.54 0 0 0 .34-.16Zm1.15 4.55a21.44 21.44 0 0 0-4 .23 2 2 0 0 0 .38-.78H18a27.4 27.4 0 0 1 4.31.59Z"/><path d="m19.91 151 .78.37a1.55 1.55 0 0 1 0 .21Zm-1.16 4.23-.06.12-.66-.21c.25.03.49.05.72.09Z"/><path class="cls-26" d="M18.63 142.67a1.33 1.33 0 0 1 0 1.68c0 .16.08.31.1.45a2.06 2.06 0 0 1-.48 1.73 1.33 1.33 0 0 1-.05.55.17.17 0 0 0 0 .07 3.77 3.77 0 0 1 .59.88 4.08 4.08 0 0 1 .95.61 1.27 1.27 0 0 1 .3 1 1.82 1.82 0 0 1 .64 1.64l-.78-.37.74.58a2.25 2.25 0 0 1-.67 1.27 1.6 1.6 0 0 1-.31.22 1.8 1.8 0 0 1-.38.16l-.12.2a4.44 4.44 0 0 1-.27.38c0 .24.05.52.05.6a2.45 2.45 0 0 1-.2.82c-.23 0-.47-.06-.72-.09l.66.21a.71.71 0 0 1-.11.17 3.58 3.58 0 0 1-1.34 1.12v.14a1.35 1.35 0 0 1 0 .29 1.82 1.82 0 0 1-.37.78 4.7 4.7 0 0 1-1 1 2.84 2.84 0 0 1-.56.33 1.93 1.93 0 0 1 .24 1 3 3 0 0 1-1.12 2.19l-.4.31v.3a1.73 1.73 0 0 1-.07.55 1.57 1.57 0 0 1-.87 1 1.78 1.78 0 0 1-1.72-.2 1.26 1.26 0 0 1-.47-.6 2.13 2.13 0 0 1-.43-.13 2.1 2.1 0 0 1-.26-.13 1.24 1.24 0 0 1-.29.1 1.61 1.61 0 0 1-1.76-.57 3 3 0 0 1-1.2-.38 2 2 0 0 1-.95-1.7 1.27 1.27 0 0 1-.61-1.92 3.89 3.89 0 0 1 .41-.5 2 2 0 0 1 0-1.32l.2-.39a4.8 4.8 0 0 1-.57-.26 2.52 2.52 0 0 1-1.97-.44 1.15 1.15 0 0 1-.59-1.06 2.53 2.53 0 0 1-.26-.52 1.81 1.81 0 0 1-.59-2 2.23 2.23 0 0 1 1-1.09 4.11 4.11 0 0 1 .47-.65 1.8 1.8 0 0 1 .34-1.17.76.76 0 0 1 0-.16 2.23 2.23 0 0 1 2.53-1.44 2.23 2.23 0 0 1 1.1-2.36l.52-.28a2 2 0 0 1 .7-1.36 2.43 2.43 0 0 1 .84-.41 1.34 1.34 0 0 1 1.33-.9 2.22 2.22 0 0 1 .57.07c.16-.1.33-.21.51-.3a1.32 1.32 0 0 1 1.72.51 1.26 1.26 0 0 1 .33-.05 2 2 0 0 1 1.3-.51h.62a1.82 1.82 0 0 1 .56-.27 2.06 2.06 0 0 1 2.17.62Z"/><path class="cls-27" d="M30.37 158.8a.87.87 0 0 1 .52.4 1 1 0 0 1 .11.64 1 1 0 0 1-1.27.83 32.52 32.52 0 0 0-9-1.07 23.35 23.35 0 0 0-5.22.51 1.93 1.93 0 0 0-.24-1 2.84 2.84 0 0 0 .56-.33 4.7 4.7 0 0 0 1-1 21.28 21.28 0 0 1 4-.22h.75a50.14 50.14 0 0 1 6.11.49 17.67 17.67 0 0 1 2.68.75Z"/><path class="cls-26" d="m31.88 158.05.18.08.08.05a1 1 0 0 1-.9 1.74l-.24-.08a75.54 75.54 0 0 0-9.07-2.11l-.37-.07a27.69 27.69 0 0 0-4.32-.59 1.35 1.35 0 0 0 0-.29v-.14a3.58 3.58 0 0 0 1.34-1.12.71.71 0 0 0 .11-.17l-.66-.21c.25 0 .49.05.72.09 1.33.16 2.64.41 3.95.65 1.57.29 3.15.59 4.7 1s3.01.69 4.48 1.17Z"/><path class="cls-27" d="M31.41 157.3a.89.89 0 0 1 .64.7 1.7 1.7 0 0 1 0 .26 1 1 0 0 1-1.17.94h-.11c-1-.35-2.07-.68-3.11-1-3-1-6-1.86-9-2.8l-.66-.21c.25 0 .49.05.72.09a2.45 2.45 0 0 0 .2-.82c0-.08 0-.36-.05-.6a4.44 4.44 0 0 0 .27-.38l3.66 1.14 5.22 1.63c1.17.31 2.28.67 3.39 1.05Z"/><path d="m19.91 151 .78.37c1.16.55 2.33 1.09 3.48 1.67a71.37 71.37 0 0 0 7.59 3.51 1 1 0 0 1 .54 1.38.89.89 0 0 1-.16.25l-.08.08a.89.89 0 0 1-.93.17 37.36 37.36 0 0 1-3.73-1.6c-1.5-.73-3-1.51-4.49-2.23h-.07c-1-.51-2.11-1-3.16-1.5a1.6 1.6 0 0 0 .31-.22 2.25 2.25 0 0 0 .67-1.27Z" style="fill:#019444"/><path class="cls-27" d="M18.22 147.12a57.47 57.47 0 0 0 5.78 4.42 67.83 67.83 0 0 0 8.24 4.51 1.06 1.06 0 0 1 .08 1.88.59.59 0 0 1-.25.07 1 1 0 0 1-.46-.08c-1.2-.52-2.37-1.1-3.52-1.71-1.57-.83-3.09-1.74-4.61-2.67a32.48 32.48 0 0 1-2.8-1.95l-.74-.58.78.37a1.82 1.82 0 0 0-.64-1.64 1.27 1.27 0 0 0-.3-1 4.08 4.08 0 0 0-.95-.61 3.77 3.77 0 0 0-.59-.88.17.17 0 0 1-.02-.13Z"/><path d="M18.63 142.67a1.33 1.33 0 0 1 0 1.68c0 .16.08.31.1.45a2.06 2.06 0 0 1-.48 1.73 1.33 1.33 0 0 1-.05.55.17.17 0 0 0 0 .07 3.77 3.77 0 0 1 .59.88 4.08 4.08 0 0 1 .95.61 1.27 1.27 0 0 1 .3 1 1.84 1.84 0 0 1 .64 1.64l-.78-.37.74.58a2.21 2.21 0 0 1-.68 1.27 1.29 1.29 0 0 1-.3.22 1.8 1.8 0 0 1-.38.16l-.12.2a4.44 4.44 0 0 1-.27.38c0 .24.05.52.05.6a2.45 2.45 0 0 1-.2.82c-.23 0-.47-.06-.72-.09l.66.21a.71.71 0 0 1-.11.17 3.58 3.58 0 0 1-1.34 1.12v.14a1.35 1.35 0 0 1 0 .29 1.82 1.82 0 0 1-.37.78 4.7 4.7 0 0 1-1 1 2.84 2.84 0 0 1-.56.33 1.93 1.93 0 0 1 .24 1 3 3 0 0 1-1.12 2.19 4.24 4.24 0 0 1-.4.31v.3a1.73 1.73 0 0 1-.07.55 1.57 1.57 0 0 1-.87 1 1.78 1.78 0 0 1-1.72-.2 8.59 8.59 0 0 0 .55-1.36 1 1 0 0 1 .15-.26 2 2 0 0 1-.2-.88 2.4 2.4 0 0 1 1.09-1.63l.37-.21a1.23 1.23 0 0 1 .58-.51l.23-.1a.38.38 0 0 0-.1-.2 2.48 2.48 0 0 1-.73-1.63c0-.88.56-1.18 0-1.9a2.51 2.51 0 0 1-.7-1.56 5.55 5.55 0 0 1 .45-1.28c-.22-.2-.44-.41-.63-.57a2.42 2.42 0 0 1-.69-2.61 1.33 1.33 0 0 1-.29-.72h-.08a2.3 2.3 0 0 1-1.42-.64 3.5 3.5 0 0 1-.73-1.21 3.24 3.24 0 0 1-.84-.56l-.28.25a1.26 1.26 0 0 1-.83.32 1.3 1.3 0 0 1-.93.44 2.14 2.14 0 0 1 1.12-1.84l.52-.28a2 2 0 0 1 .7-1.36 2.43 2.43 0 0 1 .84-.41 1.34 1.34 0 0 1 1.33-.9 2.22 2.22 0 0 1 .57.07c.16-.1.33-.21.51-.3a1.32 1.32 0 0 1 1.72.51 1.26 1.26 0 0 1 .33-.05 2 2 0 0 1 1.3-.51h.62a1.82 1.82 0 0 1 .56-.27 2.06 2.06 0 0 1 2.18.59Z" style="fill:#4a3a24;opacity:.13;mix-blend-mode:multiply"/><path class="cls-5" d="M49.52 71.46V51a2.08 2.08 0 0 0-2.08-2h-4.13v-1.05a1.9 1.9 0 0 0-1.9-1.95H39.9a1.9 1.9 0 0 1-1.9-1.9V44a1.91 1.91 0 0 0-1.9-2h-2.84a1.91 1.91 0 0 0-1.9 2v.18A1.91 1.91 0 0 1 29.45 46h-1.51a1.9 1.9 0 0 0-1.9 1.9v1h-4.12a2.08 2.08 0 0 0-2.08 2.1v30.7a2.08 2.08 0 0 0 2.08 2.08h19.72a8.68 8.68 0 0 0 16.17-1 8.55 8.55 0 0 0 .39-2.59 8.68 8.68 0 0 0-8.68-8.73Z"/><rect class="cls-30" x="18.76" y="47.88" width="29.68" height="34.82" rx="2.08"/><rect class="cls-12" x="22.92" y="52.76" width="21.35" height="25.05" rx="2.08"/><path class="cls-4" d="M26.34 58.25h14.53v2.46H26.34zm0 6.3h14.53v2.46H26.34zm0 6.3h14.53v2.46H26.34z"/><path class="cls-15" d="M36.92 43.05v-.18A1.9 1.9 0 0 0 35 41h-2.82a1.9 1.9 0 0 0-1.9 1.9v.18a1.9 1.9 0 0 1-1.9 1.9h-1.52A1.91 1.91 0 0 0 25 46.86v1a1.9 1.9 0 0 0 1.9 1.9h13.44a1.9 1.9 0 0 0 1.9-1.9v-1a1.91 1.91 0 0 0-1.9-1.86h-1.51a1.9 1.9 0 0 1-1.91-1.95Z"/><path class="cls-31" d="M46.36 47.88h-4.12v-1a1.91 1.91 0 0 0-1.9-1.88h-1.51a1.9 1.9 0 0 1-1.91-1.9v-.18A1.9 1.9 0 0 0 35 41h-1.47v41.7h12.83a2.08 2.08 0 0 0 2.08-2.08V50a2.08 2.08 0 0 0-2.08-2.12Z"/><path class="cls-15" d="M57.13 79.07a8.69 8.69 0 1 1-8.69-8.69 8.69 8.69 0 0 1 8.69 8.69Z"/><path class="cls-4" d="M48.44 86.18a7.11 7.11 0 1 1 7.11-7.11 7.12 7.12 0 0 1-7.11 7.11Zm0-13.68A6.57 6.57 0 1 0 55 79.07a6.57 6.57 0 0 0-6.56-6.57Z"/><path class="cls-4" d="M47.49 83.46a13.17 13.17 0 0 0-2.55-4.79.49.49 0 0 1 0-.7l.05-.06a.51.51 0 0 1 .74 0 10.85 10.85 0 0 1 1.89 3.13A9 9 0 0 1 52.28 76a.5.5 0 0 1 .59.15.51.51 0 0 1-.13.76c-3.09 1.87-5.25 6.55-5.25 6.55Z"/><path class="cls-31" d="M48.44 70.38v17.37a8.69 8.69 0 1 0 0-17.37Z"/><path class="cls-5" d="m181 162.26.33-.44a2.23 2.23 0 0 0 .2-.3c.1-.15.2-.3.29-.46a3.24 3.24 0 0 0 .17-.32c.09-.16.17-.33.25-.5s.1-.21.14-.32.15-.39.22-.59l.1-.28a9.32 9.32 0 0 0 .23-.91 9.74 9.74 0 0 0-6.64-11.23l-.3-.08a9.27 9.27 0 0 0-.39-2.48c-.06 0-.1.08-.16.11a3 3 0 0 1-.48.22 7.9 7.9 0 0 1 .3 2 9.74 9.74 0 0 0-4.84.28l.87-15.56.89-16.08h-11.25a11.17 11.17 0 0 0-9-11c-.34-.07-.69-.12-1-.16a11.18 11.18 0 0 0-3.42 22.08 11.48 11.48 0 0 0 2.85.2l2 36.33h13.84a9.72 9.72 0 0 0 5.22 3 9.43 9.43 0 0 0 2 .19c.31 0 .61 0 .91-.05h.29c.2 0 .4 0 .6-.09l.34-.08.53-.13.35-.11.5-.18.33-.14.49-.23.31-.15.5-.3.25-.16a8.58 8.58 0 0 0 .71-.52c.22-.18.43-.37.64-.56l.2-.22c.14-.14.27-.28.4-.43Zm-11.36-44.54-.64 13.65h-16l-.27-5.3h.1l.63-.2.32-.12a5.89 5.89 0 0 0 .58-.24l.34-.16.54-.28.35-.21.49-.31.36-.26c.14-.11.29-.21.43-.33s.48-.41.71-.63l.29-.3.4-.44c.1-.11.19-.23.28-.34s.24-.31.35-.47.17-.24.25-.37.21-.33.31-.51l.21-.38c.1-.18.19-.37.28-.56s.11-.25.16-.38.17-.44.25-.66.08-.22.11-.33c.08-.28.15-.55.21-.84h9Z"/><path class="cls-22" d="M159.63 116.44a11.18 11.18 0 1 1-8.74-13.19 11.18 11.18 0 0 1 8.74 13.19Z"/><path class="cls-4" d="M157.53 116a9 9 0 1 1-7.06-10.66 9 9 0 0 1 7.06 10.66Z"/><path class="cls-22" d="m149.43 114.15 5.79 2.23a6.66 6.66 0 0 0 .33-1.1 6.22 6.22 0 0 0-.41-3.76l-5.7 2.52Zm5.48-3.07a6.27 6.27 0 0 0-4-3.47l-1.67 6Zm-6.31 3.17-.08.03.1.04.01-.02-.03-.05zm.06-.03-.05.02.03.06.02-.08zm-.22-.81 1.67-6-.43-.11a6.24 6.24 0 0 0-3.81.43l2.52 5.69Zm.2.92.01.01-.01-.03v.02zm6.36 2.97-5.78-2.23 2.49 5.61a6.23 6.23 0 0 0 3.29-3.38Zm-6.34-2.18L147 121l.43.11a6.22 6.22 0 0 0 3.71-.39l-2.48-5.61Zm-.86-.24-5.57 2.47a6.24 6.24 0 0 0 4 3.47l1.65-5.9Zm-5.8-2.65a6.66 6.66 0 0 0-.26.9 6.22 6.22 0 0 0 .41 3.76l5.56-2.46Zm6 1.57-2.52-5.69a6.28 6.28 0 0 0-3.27 3.53l5.71 2.2Z"/><path class="cls-32" d="M150.89 103.25a11.78 11.78 0 0 0-2-.22v22.36a11.18 11.18 0 0 0 2-22.14Z"/><path class="cls-12" d="m149.56 130.29 1.75 31.41h17.15l1.74-31.41h-20.64z"/><path class="cls-30" d="m148.67 114.21 2.64 47.49h17.15l2.63-47.49Zm17.85 43.23h-13.27l-2-40.79h17.35Z"/><path class="cls-4" d="M156.49 137.43a1.4 1.4 0 0 1-2.79 0 1.4 1.4 0 1 1 2.79 0Z"/><circle class="cls-4" cx="157.08" cy="152.65" r="1.39"/><path class="cls-4" d="M164.81 134.34a.88.88 0 1 1-.88-.88.87.87 0 0 1 .88.88Zm-1.04 9.23a1.75 1.75 0 1 1-1.75-1.76 1.75 1.75 0 0 1 1.75 1.76Z"/><path class="cls-32" d="M171.09 114.21H159.9v2.44h8.66l-.69 13.64h-7.97v31.41h8.56l1.74-31.41.89-16.08z"/><path class="cls-7" d="M174.24 145.58a9.73 9.73 0 1 0 7.6 11.48 9.74 9.74 0 0 0-7.6-11.48Z"/><path class="cls-32" d="M174.24 145.58a9.62 9.62 0 0 0-1.92-.19v19.47a9.74 9.74 0 0 0 1.92-19.28Z"/><path class="cls-9" d="M174.35 143.38a2.62 2.62 0 0 1-.48.22 8.88 8.88 0 0 1-.26 5.5l.69.24a9.52 9.52 0 0 0 .21-6.07.91.91 0 0 1-.16.11Z"/><g style="mix-blend-mode:multiply;opacity:.7"><path class="cls-34" d="M132.88 112.35a3.14 3.14 0 0 0-.83-2.16 2.81 2.81 0 0 0-2-.89h-1.34a8.41 8.41 0 0 0 .75-2.59 5.72 5.72 0 0 0 .85-2.59 6.88 6.88 0 0 0-.49-3 10.59 10.59 0 0 0-3.53-4.69l.32-.18a25.16 25.16 0 0 1-2-2c-2.87-3.18-8.4-14.46-9.85-15.83a7.8 7.8 0 0 0-4.7-2.37c-1.67-2.24-1.49-5.53-.62-8.1 1-.63 1.66-2.41 1.84-3.59a8.41 8.41 0 0 0-.78-5.15 7.16 7.16 0 0 0-.75-1.24c4 .28 5.13 1.89 6.32 4.56a21.71 21.71 0 0 1 .82 4.81c.08 1-.22 2-.08 2.93a14.59 14.59 0 0 0 2.56-3.46c1.5-3.22 2.7-9.16-.3-12.09-3-2.73-9.41-2.48-11.18 1.47a12.77 12.77 0 0 0-7.07-1.61 9.19 9.19 0 0 0-8.61 5.33 8.69 8.69 0 0 0-.57 6 5.84 5.84 0 0 0 .92-.29c.32.86 1.2 1.54 1.28 2.56a10.39 10.39 0 0 0-.08 1.57 9 9 0 0 0 2 3.91c.91 1.43 2.41 3.23 4.29 3.23.75 0 1.5-.53 2.18-.07A2 2 0 0 1 103 78a2.65 2.65 0 0 1 .09.77 7 7 0 0 0-1.09 1.95c-1.1 1.24-2.23 2.38-3 3.2-2 2.41-3.53 4.82-6.21 6.57-2 1.25-4.17 2.32-6.22 3.57-2.59 1.54-4.38 4-7.35 5a11.52 11.52 0 0 1-5.16-.19 3.29 3.29 0 0 0-2.55.64 1.38 1.38 0 0 0-.78-.23 1.43 1.43 0 0 0-1.43 1.43 1.45 1.45 0 0 0 .75 1.26 2.63 2.63 0 0 0 2 3.15v.12l.95 5.26 4.32 26a7.81 7.81 0 0 0-1.91 13.28l-8.29 14.36h-4.3v3.67h59.93v-3.67h-5.69l-3.49-6a11.32 11.32 0 0 0 1.23-1.68l11.42-1.62-.19-1.32h-.12a.08.08 0 0 1 0-.06 9.81 9.81 0 0 1-.53-2.9c0-.12 0-.24-.06-.36a2.5 2.5 0 0 0-.38-1.09c-.22-.31-.75-.19-1.07.17a1 1 0 0 0-.21.32v-.12c.36-2.42 1-6.4 1.33-8.71a39 39 0 0 0 .88-6.86 19.76 19.76 0 0 0-1-5.77 2.58 2.58 0 0 0-.08-.26h.12c.71-4.23 2-8.13 2.34-12.4H130a3 3 0 0 0 2.85-3ZM97.41 138Zm3.39.34-.66-1.72.66 1.72a.7.7 0 0 1 0 .14.7.7 0 0 0 0-.11Zm17.73 8.8a4.87 4.87 0 0 1-.54 3.29 7 7 0 0 0-.62-.59c-.23-.18-.58-.12-1 0a11.35 11.35 0 0 0-2.17-6.08l3.35-9.47c.57 4.28.78 8.71.98 12.88Zm-8.88-7.28-.45.06.46-.07Zm5.78-26.86a2.92 2.92 0 0 0 2.41 2.37 1.23 1.23 0 0 0 .19 0h-.15a2.47 2.47 0 0 1-.39 0v2.48l-1.53 4.32-6.25 17.64a10.27 10.27 0 0 1-.53-2.91v-.37a2.4 2.4 0 0 0-.37-1.08c-.27-.4-1-.12-1.28.47a2.07 2.07 0 0 1-.3.5c0-.56-.08-1.13-.1-1.7-.16-3.87.17-7.88 0-11.74v-.26a36.41 36.41 0 0 0-1-7.69c0-.1-.05-.2-.07-.31l.18.28c1.28-.36 2.73-.6 4-.83s2.61-.53 3.85-.84Zm-1.38-14.3a9.1 9.1 0 0 1 1.53 1c.62.46.4 1.14.71 1.38a51.76 51.76 0 0 0-10.38 4.35c-2.36 1.18-4.58 2.55-6.9 3.76l.41.17c-4 1.85-1.78 8.2-1.09 12.53.8 4.91 4.32 12.61 3.44 15a5.05 5.05 0 0 0-.63-.59c-.25-.21-.66-.11-1.12.07l-.15-.38a.56.56 0 0 0-.61-.36h-.12a.58.58 0 0 0-.33.74l.14.36.27.68-.27-.68-.81.3-.15-.39a.51.51 0 0 0-.55-.33h-.12a.52.52 0 0 0-.3.67l.15.4c-.36.15-.71.31-1.06.48L83 136.21l-4.71-28.36a2.14 2.14 0 0 0 2-2.13 2 2 0 0 0-.14-.73 4.23 4.23 0 0 0 .6-.12c1.21-.29 2.41-.77 3.62-1.15 2.69-1 5.24-2.26 7.81-3.36 2.22-1 4.91-2 6.86-3s2.9-2.77 4.12-4.44l.54-.58.2-.22.18-.19-.18.2.29-.3v.12a2.72 2.72 0 0 0 .11.34l.11.22.12.16a3.06 3.06 0 0 0 .47.33 4.24 4.24 0 0 0 .74.42 15.1 15.1 0 0 1 5.43 3 21.11 21.11 0 0 0 2.88 2.26Zm-39.83 65.43 6.72-11.63 18.53 8a11 11 0 0 0 2 .89 11.12 11.12 0 0 0 3.53.61 11.61 11.61 0 0 0 3.4-.51l1.54 2.67Z"/><path class="cls-34" d="m120.34 155.97-5.34.8.28 1.88 3.03-.45 2.32-.35-.08-.54h-.01l-.2-1.34z"/></g><path class="cls-35" d="M110.19 63.28c-.18 1.18-.81 3-1.84 3.59a1.46 1.46 0 0 1-1 .22c.75-.45 2.1-3 .3-2.93-.52 0-1.35 1.28-2.1 1.43a6.42 6.42 0 0 1-2.7-.15 10.9 10.9 0 0 1-4.73-1.95c-1.36-1.06-2-2.56-3.08-3.68-.63 2.31-1.61 3.94-3.61 4.72a5 5 0 0 1-.92.29 8.69 8.69 0 0 1 .57-6 9.22 9.22 0 0 1 8.61-5.33 12.75 12.75 0 0 1 7.07 1.62 7 7 0 0 1 1.87 1.77 8.33 8.33 0 0 1 .75 1.24 8.48 8.48 0 0 1 .81 5.16Z"/><path class="cls-36" d="m82 135.13-1.11-.13a8.2 8.2 0 0 0-1.66-.17 7.91 7.91 0 0 0-3 .6l-5.41-32.61 5.63-.93Z"/><path class="cls-4" transform="rotate(-8.06 116.085 154.245)" d="M107.08 153.64h18.07v1.33h-18.07z"/><path class="cls-12" d="M124.24 149.07a4.23 4.23 0 0 0-1.72 2.36c0 .1-.06.21-.08.31s-.1.38-.13.56 0 .31 0 .47l-7.8 1.1-2.93.42h-.09l-.48.07-3.62.51a3.24 3.24 0 0 1 1.48-3l.49-.34a19.2 19.2 0 0 1 3-1.57l.7 1.82a.42.42 0 0 0 .09.14.55.55 0 0 0 .11.1.61.61 0 0 0 .14.07h.34a.52.52 0 0 0 .3-.68l-.72-1.83.81-.29.23.56.57 1.48v.08a.6.6 0 0 0 .33.26.53.53 0 0 0 .25 0h.12a.47.47 0 0 0 .12-.07l.1-.08.07-.09a1.18 1.18 0 0 0 .07-.2.6.6 0 0 0 0-.19v-.1l-.33-.85-.09-.24-.2-.51-.17-.42.14-.05c.4-.14.75-.2 1 0a7 7 0 0 1 .62.59 2.43 2.43 0 0 0 1 .7h.2c1.29.21 3.24 0 4.13-1.15a2 2 0 0 0 .31-.5.92.92 0 0 1 .2-.31c.32-.37.85-.48 1.08-.17a2.57 2.57 0 0 1 .36 1.04Z"/><path class="cls-4" d="M115.62 151.62h-.12a.59.59 0 0 1-.61-.36l-.79-2.05-.14-.36a.58.58 0 0 1 .32-.74h.13a.56.56 0 0 1 .61.36l.14.38.79 2a.56.56 0 0 1-.33.77Zm-1.92.44a.27.27 0 0 1-.12 0 .52.52 0 0 1-.56-.33l-.7-1.82-.15-.4a.51.51 0 0 1 .3-.67h.11a.52.52 0 0 1 .56.34l.15.38.71 1.84a.52.52 0 0 1-.3.66Z"/><path class="cls-37" d="m124.84 152.4-2.53.36c0-.15 0-.3.06-.46a5.59 5.59 0 0 1 .12-.56 2.81 2.81 0 0 1 .08-.31c0-.18.12-.36.18-.53a3.49 3.49 0 0 1 1.53-1.84c0 .13 0 .26.06.38a9.93 9.93 0 0 0 .53 2.9.14.14 0 0 0-.03.06Z"/><path class="cls-36" d="m125.52 107.76-.3.84v.11l-2 5.57-4.26 12-2.45 6.93-3.36 9.47-.52 1.46-2.21-.78-3.06-1.09.3-.85.44-1.25.43-1.21.07-.21v-.06l6.25-17.64 1.53-4.33.88-2.45 1.2-3.39.77-2.18v-.14l1-2.71Z"/><path class="cls-38" d="M109 75a10.23 10.23 0 0 0-2.67.13l-.56.14-.27.09-.28.1-.27.11c-.29.12-.58.27-.86.42l-.31.19-.17.11c-.06 0-.13.09-.18.14a.09.09 0 0 0-.06 0c-.1.08-.2.15-.3.24a2.09 2.09 0 0 0-.28.24 3.44 3.44 0 0 0-.27.27l-.25.27-.23.28a3.49 3.49 0 0 0-.09-.76 2 2 0 0 0-.75-1.24c-.68-.46-1.43.07-2.18.07-1.88 0-3.38-1.8-4.28-3.23a8.81 8.81 0 0 1-2-3.91 11.88 11.88 0 0 1 .08-1.57c-.08-1-1-1.7-1.28-2.56 2-.78 3-2.41 3.61-4.72 1.12 1.12 1.72 2.62 3.08 3.68a10.9 10.9 0 0 0 4.73 1.95 6.42 6.42 0 0 0 2.7.15c.75-.15 1.58-1.43 2.1-1.43 1.8-.07.45 2.48-.3 2.93a1.46 1.46 0 0 0 1-.22c-.99 2.57-1.17 5.87.54 8.13Z"/><path d="M131.81 111.27a3 3 0 0 1-2.86 3h-11.81a2.47 2.47 0 0 1-.39 0 2.93 2.93 0 0 1-2.4-2.37.13.13 0 0 1 0-.06 2.78 2.78 0 0 1-.06-.58 3 3 0 0 1 2.86-3H129a2.78 2.78 0 0 1 2 .88 3.16 3.16 0 0 1 .81 2.13Z" style="fill:#36545b"/><path class="cls-40" transform="rotate(-30.02 108.601 156.443)" d="M105.54 146.8h6.16v19.33h-6.16z"/><path class="cls-40" transform="rotate(-59.98 73.4 156.468)" d="M63.73 153.38h19.33v6.16H63.73z"/><path class="cls-30" d="M115.33 149.48a11.41 11.41 0 0 1-11.41 11.41 11.05 11.05 0 0 1-3.47-.54l-2-.88-22.2-9.64-.12-.06a7.81 7.81 0 0 1 .16-14.35 7.91 7.91 0 0 1 3-.6 8.2 8.2 0 0 1 1.66.17l1.08.14 23.12 3 .63.07a11.42 11.42 0 0 1 9.55 11.28Z"/><path d="M112.89 149.57a8.86 8.86 0 1 1-8.86-8.86 8.86 8.86 0 0 1 8.86 8.86Z" style="opacity:.27;fill:#999;mix-blend-mode:multiply"/><path d="M100.43 160.35a11.21 11.21 0 0 1-2-.88Z" style="fill:#4fa0ca"/><path class="cls-35" d="M118.28 65.74a14.74 14.74 0 0 1-2.56 3.45c-.14-1 .16-2 .08-2.93a21.53 21.53 0 0 0-.82-4.8c-1.18-2.67-2.32-4.28-6.31-4.57a7 7 0 0 0-1.87-1.77c1.77-4 8.23-4.21 11.18-1.48 3.02 2.94 1.81 8.87.3 12.1Z"/><path class="cls-4" d="m125.52 95.18-.33.18c-1.25.66-3.45 1.43-4.68 2.17-1.05.6-3.65 2.35-4.86 2.5a.54.54 0 0 1-.43-.08c-.31-.24-.09-.93-.71-1.39a9.79 9.79 0 0 0-1.53-1 20.86 20.86 0 0 1-2.88-2.24c-3.68-3.36-6.5-2.36-7-4.68a2.81 2.81 0 0 1-.29.31c1.47-1.61 2.88-3.34 4.19-5 .22-.3.45-.58.66-.87 1.33-1.82 3-4.83 1.64-7a6.52 6.52 0 0 0-1.18-.8 3.2 3.2 0 0 0-3.23.19c-.85.84-1.38 1.19-2 1.87l-.55.65c-.28.33-.56.68-.83 1s-.54.68-.8 1a4.06 4.06 0 0 1 .28-2.47 6.91 6.91 0 0 1 1.01-1.79l.23-.28.25-.27a3.44 3.44 0 0 1 .27-.27 2.09 2.09 0 0 1 .28-.24c.1-.09.2-.16.3-.24h.06c0-.05.12-.09.18-.14l.17-.11.31-.19c.28-.15.57-.3.86-.42l.27-.11.28-.1.27-.09.56-.14A10.23 10.23 0 0 1 109 75a7.83 7.83 0 0 1 4.7 2.37c1.45 1.37 7 12.65 9.85 15.84a27.07 27.07 0 0 0 1.97 1.97Z"/><path class="cls-38" d="M107.69 85.11c-.21.29-.44.57-.66.87-1.31 1.67-2.72 3.4-4.19 5a2.09 2.09 0 0 1-.2.22c-.17.19-.35.39-.54.58-1.22 1.68-2.23 3.42-4.12 4.44s-4.63 2.09-6.86 3c-2.57 1.11-5.12 2.4-7.81 3.36-1.21.38-2.41.86-3.61 1.16a2.63 2.63 0 0 1-1.67 0c-.63-.25-1.45-1-2-.44-1.12 1.1.78 2.22.82 3 .09 1.45-1.95 1.3-2.87 1A5.09 5.09 0 0 1 71 104a3.66 3.66 0 0 1 .08-2.22c1-2.9 4.64-2.61 6.78-2.12 1.47.38 2-.58 3.42-1.55 1-.77 2.14-1.35 3.15-2 2.51-1.55 4.8-3.28 7.3-4.73a16.56 16.56 0 0 0 5.49-4.54c1.15-1.55 2.27-3.15 3.44-4.69.26-.35.53-.7.8-1s.55-.69.83-1l.55-.65c.66-.68 1.19-1 2-1.87a3.2 3.2 0 0 1 3.23-.19 6.52 6.52 0 0 1 1.18.8c1.48 2.04-.25 5.05-1.56 6.87Z"/><path class="cls-38" d="M100.65 82.11c-1.17 1.54-2.29 3.14-3.44 4.69a16.56 16.56 0 0 1-5.49 4.54c-2.5 1.45-4.79 3.18-7.3 4.73-1 .68-2.13 1.26-3.15 2-1.39 1-2 1.93-3.42 1.55-2.14-.49-5.76-.78-6.78 2.12A3.66 3.66 0 0 0 71 104a2.63 2.63 0 0 1-2-3.15 3.47 3.47 0 0 1 .26-1 3.82 3.82 0 0 1 1.21-1.5 3.34 3.34 0 0 1 2.53-.61 11.55 11.55 0 0 0 5.17.19c3-1 4.75-3.41 7.35-5 2-1.25 4.17-2.32 6.21-3.57 2.7-1.69 4.27-4.11 6.27-6.52.74-.82 1.87-2 3-3.2a4.06 4.06 0 0 0-.35 2.47Z"/><g class="cls-43"><path class="cls-44" d="M100.65 82.11c-1.17 1.54-2.29 3.14-3.44 4.69a16.56 16.56 0 0 1-5.49 4.54c-2.5 1.45-4.79 3.18-7.3 4.73-1 .68-2.13 1.26-3.15 2-1.39 1-2 1.93-3.42 1.55-2.14-.49-5.76-.78-6.78 2.12A3.66 3.66 0 0 0 71 104a2.63 2.63 0 0 1-2-3.15 3.47 3.47 0 0 1 .26-1 3.82 3.82 0 0 1 1.21-1.5 3.34 3.34 0 0 1 2.53-.61 11.55 11.55 0 0 0 5.17.19c3-1 4.75-3.41 7.35-5 2-1.25 4.17-2.32 6.21-3.57 2.7-1.69 4.27-4.11 6.27-6.52.74-.82 1.87-2 3-3.2a4.06 4.06 0 0 0-.35 2.47Z"/></g><path class="cls-38" d="m103.74 76.15-.17.11a1.24 1.24 0 0 0-.18.14h-.06c.13-.23.25-.46.35-.68a3 3 0 0 1 .06.43Z"/><path class="cls-14" d="M129.21 103a5.72 5.72 0 0 1-.85 2.59 9.27 9.27 0 0 1-2.55 2.6c-.2.14-.39.27-.6.4l-.17.11q-.39.24-.78.45a20.61 20.61 0 0 1-5.81 1.73l-.59.13c-1.18.26-2.34.56-3.51.86l-1.41.35c-1.24.31-2.5.6-3.85.84s-2.77.48-4 .83l-.18-.27a15.16 15.16 0 0 0-6.51-5.43l-.4-.18c2.32-1.21 4.53-2.58 6.9-3.76a50.82 50.82 0 0 1 10.31-4.25.54.54 0 0 0 .43.08c1.21-.15 3.81-1.9 4.86-2.5 1.23-.74 3.43-1.51 4.68-2.17a10.49 10.49 0 0 1 3.53 4.68 6.88 6.88 0 0 1 .5 2.91Z"/><path class="cls-38" d="M106.06 135.36c-.89 1.14-2.84 1.35-4.14 1.15a2.14 2.14 0 0 1-1.23-.73c.88-2.42-2.63-10.11-3.43-15-.69-4.34-2.94-10.68 1.08-12.53a15.16 15.16 0 0 1 6.51 5.43c0 .1 0 .2.07.3a36 36 0 0 1 1 7.7v.25c.19 3.86-.14 7.87 0 11.75.08.55.08 1.11.14 1.68Z"/><path class="cls-4" transform="rotate(-8.03 99.935 140.738)" d="M90.86 140.04h18.07v1.33H90.86z"/><path class="cls-12" d="M108 135.46a3.49 3.49 0 0 0-1.53 1.84 4.72 4.72 0 0 0-.18.53c0 .1-.06.21-.09.31s-.09.38-.12.56l-.06.46-14.91 2.12a3.22 3.22 0 0 1 1.47-3 18 18 0 0 1 3.51-1.91l.7 1.83a.51.51 0 0 0 .56.32.2.2 0 0 0 .11 0 .51.51 0 0 0 .3-.67l-.7-1.85.82-.29.79 2a.57.57 0 0 0 .61.36h.12a.58.58 0 0 0 .33-.73l-.79-2c.46-.17.87-.28 1.13-.07a7 7 0 0 1 .62.59 2.14 2.14 0 0 0 1.23.73c1.3.2 3.25 0 4.14-1.15a2 2 0 0 0 .3-.5c.26-.6 1-.87 1.28-.48a2.33 2.33 0 0 1 .36 1Z"/><path class="cls-4" d="M99.4 138h-.13a.57.57 0 0 1-.6-.36l-.79-2-.14-.36a.57.57 0 0 1 .32-.74h.13a.56.56 0 0 1 .6.36l.15.38.78 2a.56.56 0 0 1-.32.72Zm-1.93.46a.2.2 0 0 1-.11 0 .51.51 0 0 1-.56-.33l-.7-1.82-.16-.4a.52.52 0 0 1 .3-.67.27.27 0 0 1 .12 0 .51.51 0 0 1 .56.33l.15.38.71 1.84a.51.51 0 0 1-.31.67Z"/><path class="cls-37" d="M108.62 138.8h-.05l-2.54.36.06-.46c0-.18.08-.37.12-.56s.05-.21.09-.31a4.72 4.72 0 0 1 .18-.53 3.49 3.49 0 0 1 1.53-1.84l.06.38a10.26 10.26 0 0 0 .52 2.9s.01.04.03.06Z"/><path class="cls-14" d="M79.23 104.65a2.14 2.14 0 1 1-2.14-2.15 2.13 2.13 0 0 1 2.14 2.15Zm-8.75-6.27a3.82 3.82 0 0 0-1.21 1.5 3.47 3.47 0 0 0-.26 1 1.43 1.43 0 1 1 1.47-2.46Z"/><path class="cls-15" d="m97.49 143.73-2.32.35-3.03.45-.28-1.88 5.35-.8.2 1.34.08.54zm22.06 13.04-2.32.35-3.03.45-.28-1.88 5.35-.8.2 1.34.08.54z"/><path class="cls-36" d="M105.41 150.54a1.68 1.68 0 0 1-2.35.41l-7.89-6.87 2.32-.35-.08-.54 7.58 5a1.68 1.68 0 0 1 .42 2.35Z"/><path class="cls-4" d="M61.73 163.05h59.93v3.67H61.73z"/><path class="cls-14" d="M126.18 114.31c-.36 4.28-1.64 8.18-2.35 12.41h-.12a21.31 21.31 0 0 1-4.77-.4l4.26-12Z"/><path class="cls-45" d="m117.25 114.31-.88 2.45v-2.48a2.56 2.56 0 0 0 .39 0Z"/><path class="cls-38" d="M124.84 132.77a38.89 38.89 0 0 1-.88 6.86c-.31 2.32-1 6.29-1.33 8.71-.08.09 0 0 0 .12a2 2 0 0 1-.31.5c-.89 1.14-2.84 1.36-4.13 1.15h-.2a2.43 2.43 0 0 1-1-.7 4.91 4.91 0 0 0 .55-3.29c-.2-4.14-.41-8.6-1-12.83l2.45-6.93a21.31 21.31 0 0 0 4.77.4 2.58 2.58 0 0 1 .08.26 19.82 19.82 0 0 1 1 5.75Z"/><path class="cls-45" d="M128.36 105.63a8.2 8.2 0 0 1-.75 2.6h-1.8a9.27 9.27 0 0 0 2.55-2.6Z"/><path d="M78.28 113a12.13 12.13 0 0 1-6.37-3.53l-.91-5.32a5 5 0 0 0 3 3.14c.81.3 2.49.45 2.82-.51h.49Z" style="fill:#999;opacity:.36;mix-blend-mode:multiply"/><path d="m125 152.38.19 1.32-11.42 1.62a10.35 10.35 0 0 0 .73-1.45 11.76 11.76 0 0 0 .68-2.28h.1a.27.27 0 0 1-.1-.06 11.16 11.16 0 0 0 .19-2.1v-.65c.4-.14.75-.2 1 0a7 7 0 0 1 .62.59 4.91 4.91 0 0 0 .55-3.29c-.2-4.14-.41-8.6-1-12.83l2.45-6.93 4.26-12h3c-.36 4.28-1.64 8.18-2.35 12.41h-.12a2.58 2.58 0 0 1 .08.26 19.82 19.82 0 0 1 1 5.77 38.89 38.89 0 0 1-.88 6.86c-.31 2.32-1 6.29-1.33 8.71-.08.09 0 0 0 .12a.92.92 0 0 1 .2-.31c.32-.37.85-.48 1.08-.17a2.57 2.57 0 0 1 .37 1.09 2.35 2.35 0 0 1 0 .37 10.63 10.63 0 0 0 .53 2.9v.06Z" style="opacity:.54;fill:#999;mix-blend-mode:multiply"/><path class="cls-48" d="M115.24 151.64h-.1a.27.27 0 0 0 .1 0Z"/><path class="cls-48" d="M115.24 151.64h-.1a.27.27 0 0 0 .1 0Z"/><path class="cls-15" d="M131.81 111.29a3 3 0 0 1-2.86 3h-5.75l-2.61 7.35a26.43 26.43 0 0 0-7.44 4.2l1.69-4.76 1.53-4.34v-2.47a2.47 2.47 0 0 0 .39 0h.34a2.43 2.43 0 0 1-.38 0 2.93 2.93 0 0 1-2.4-2.38c1.17-.3 2.33-.6 3.51-.85l.58-.13a20.68 20.68 0 0 0 5.82-1.73l.78-.45.17-.11c.2-.13.4-.26.6-.41H129a2.77 2.77 0 0 1 2 .89 3.14 3.14 0 0 1 .81 2.19Z"/><g class="cls-43"><path class="cls-44" d="M107.33 88.77a34.3 34.3 0 0 1-2.67 3.58 2.14 2.14 0 0 1-1.53-1.65l-.29.31c1.47-1.61 2.88-3.34 4.19-5l.66-.86c.15-.21.31-.43.46-.67s.16-.23.23-.35.32-.53.47-.81.26-.51.38-.77.12-.27.17-.4c.74 2.18-1.05 4.78-2.07 6.62Z"/></g><g class="cls-49"><path class="cls-34" d="M193.79 100.85s-3.61 2.39-4.16 4.36a7.7 7.7 0 0 0-.8-2.62c-.41-.25-.43.28-.8.38a6.3 6.3 0 0 1 1.54 2.55 1.45 1.45 0 0 0 .92 1.49 2 2 0 0 0 .91.26c2.41 0 2.39-6.42 2.39-6.42Zm-.24.45c0 1.16-.25 4.28-1.34 5.38a1.14 1.14 0 0 1-.81.36 1.68 1.68 0 0 1-.73-.2l.71-.8 1.82-4-2.32 3.73-.27 1a1.3 1.3 0 0 1-.81-1.07c-.07-1.38 2.42-3.45 3.75-4.4Zm-15.88-11.07a1.65 1.65 0 0 1 1.65-1.65h2.77a1.65 1.65 0 0 1 1.65 1.65v1.12h-6.07Zm2.25-4.33a.78.78 0 0 1 .78-.78.78.78 0 0 1 .78.78v2.24h-1.57Zm-3.27 8.67h8a1.69 1.69 0 0 1 1.69 1.69v2.11H175v-2.11a1.69 1.69 0 0 1 1.65-1.69Zm9.67 4.27H175v5.28h11.36Zm-1.13 2.66a2.09 2.09 0 0 1-2.09 2.09h-2.32a2.1 2.1 0 0 1-2.09-2.09 2.1 2.1 0 0 1 2.09-2.09h2.32a2.09 2.09 0 0 1 2.09 2.09Zm-.66-8.83a.4.4 0 0 0-.4-.4.41.41 0 0 0-.41.4v1.48h-.55v-1.48a.4.4 0 0 0-.4-.4.4.4 0 0 0-.4.4v1.48h-.55v-1.48a.4.4 0 0 0-.41-.4.4.4 0 0 0-.4.4v1.48h-.55v-1.48a.4.4 0 0 0-.4-.4.4.4 0 0 0-.41.4v1.48h-.55v-1.48a.4.4 0 0 0-.4-.4.4.4 0 0 0-.4.4v1.48h-.56v-1.48a.4.4 0 0 0-.4-.4.4.4 0 0 0-.4.4v1.48h-.23v-2.3h8.11v2.3h-.23Zm1.79 12.04H175v13.09a1.94 1.94 0 0 0 1.93 1.94h7.49a2 2 0 0 0 1.58-.82c-3-2.4-5.79-7.46-.87-12.41a2.25 2.25 0 0 1 1.23-.57Zm-8.57 12.62a.68.68 0 1 1-1.36 0v-9.85a.68.68 0 0 1 1.36 0Z"/><path class="cls-34" d="M186.63 118.92a5.11 5.11 0 0 0 3.14 1.42 12.59 12.59 0 0 0 1.35-.37c.34 0 .5.17 1.72.25 2.49.15 10.73-7 4.15-13.71a3.42 3.42 0 0 0-3.92-.54c-.45 1.21-1.34 2.07-2.6 1.39a1.56 1.56 0 0 1-.82-.86 4.87 4.87 0 0 0-2.65-.56 2.22 2.22 0 0 0-1.23.57c-4.92 4.95-2.09 10.01.86 12.41Zm-1.47-9.18c-.28-.17-.23-.79.11-1.37s.87-.92 1.15-.75.24.78-.11 1.36-.86.93-1.15.76Z"/></g><g class="cls-49"><path class="cls-34" d="m159.47 27.05-13.89.64 10.06-6.76h.14v-6.07h-24v6.07h12.94l-.32.22-1.48 1-.69.47-1.39.93-.35.24-2 1.32-.34.23-2 1.32-.35.23-1.5 1-.69.47-1.28.85 3.39 5 23.95-1.13Zm-27.22-6.56V15.3h1.1v3.79h.83V15.3H136v1.94h.42V15.3h2.37v1.94h.42V15.3h2.37v1.94h.42V15.3h1.67v3.79h.83V15.3h1.79v1.94h.41V15.3h2.17v1.94h.41V15.3h2.17v1.94h.41V15.3h1.79v3.79h.83V15.3h.88v5.19Zm.79 8.84.91-.61 2.11 3.14.69-.46-2.11-3.14 1.5-1 1.08 1.61.34-.24-1.08-1.63 2-1.32 1.08 1.61.35-.23-1.09-1.61 2-1.33 1.08 1.62.35-.24-1.08-1.61 1.38-.94 2.12 3.15.69-.46-2.11-3.15 1.47-1 1.09 1.62.35-.23-1.16-1.61.5-.34h1.92l.46.75.35-.23-.32-.52h6.94l-18.92 12.71Zm3.54 4.4 6-4v.52h.42v-.77l1.94-1.3h.37l.1 2h.41l-.09-2 1.67-.07.18 3.82h.83L148.2 28l1.78-.08.1 2h.41l-.09-2 2.16-.1.09 1.95h.42l-.07-1.99 2.16-.09.09 1.94h.42l-.1-1.94 1.79-.08.17 3.78h.84l-.18-3.78h.88l.25 5.19Zm-8.68-19.69h3.17v7.61h-3.17z"/></g><g class="cls-49"><path class="cls-34" d="M0 94.44v20h16.37v-20ZM15.94 114H.43V94.87h15.51Z"/><path class="cls-34" d="m7 104.38-.1.1-.71.77-.11.12-1 1-.32.34H8l.33-.36.11-.12 1.64-1.76.1-.11Zm1.28 1.76-.12.12-.16.24-.06.07H5.23l.06-.07 1-1 .11-.12.66-.71.1-.1H9.8Z"/><path class="cls-34" d="M6.87 106.57a1.79 1.79 0 0 0-.52-1.21l-.12-.11a1.84 1.84 0 0 0-3 1.4 1.84 1.84 0 0 0 3.67.08.32.32 0 0 0 0-.16ZM5 108.33A1.68 1.68 0 1 1 5 105a1.64 1.64 0 0 1 1.08.39l.12.11a1.6 1.6 0 0 1 .47 1.09.32.32 0 0 1 0 .16A1.67 1.67 0 0 1 5 108.33Zm6.27-3.52a1.76 1.76 0 0 0-.76.17l-.15.07a1.84 1.84 0 1 0 .91-.24Zm0 3.52a1.68 1.68 0 0 1-1.67-1.68 1.66 1.66 0 0 1 .84-1.45l.14-.08a1.74 1.74 0 0 1 .69-.14 1.68 1.68 0 1 1 0 3.35Zm-2.84-2.08a.57.57 0 0 0-.11-.11A.61.61 0 0 0 8 106a.51.51 0 0 0-.17 0 .47.47 0 0 0-.15.06.62.62 0 0 0-.3.46.33.33 0 0 0 0 .16.63.63 0 0 0 .62.55.63.63 0 0 0 .63-.63.59.59 0 0 0-.2-.35Zm-.48.87a.47.47 0 0 1-.46-.39s0 0 0-.08v-.08a.45.45 0 0 1 .21-.31.39.39 0 0 1 .15-.06H8a.46.46 0 0 1 .37.18.48.48 0 0 1 .1.28.47.47 0 0 1-.47.46Z"/><path class="cls-34" transform="rotate(-22.96 7.325 105.182)" d="M7.25 103.62h.16v3.16h-.16z"/><path class="cls-34" d="M11.57 103a6.85 6.85 0 0 0-2.19-.12h-.13l.77 1.52.05.11.29.56.08.15.63 1.25.12.24.15-.07-.12-.25-.64-1.25-.07-.14-1-2a6.81 6.81 0 0 1 2 .08.2.2 0 0 1 0 .16.79.79 0 0 0-.63.25.22.22 0 0 0 0 .27.28.28 0 0 0 .27.1.82.82 0 0 0 .47-.55.35.35 0 0 0-.05-.31Zm-.47.74a.13.13 0 0 1-.1 0v-.09c0-.01.26-.16.41-.16a.58.58 0 0 1-.31.23Zm-4.94-.22 1.27.13a.09.09 0 0 1 .09.1.09.09 0 0 1-.09.09l-1.27.16a.22.22 0 0 1-.24-.21.22.22 0 0 1 .2-.24Z"/><path class="cls-34" d="M11.56 106.65a.29.29 0 1 1-.29-.29.29.29 0 0 1 .29.29Zm-6.23 0a.29.29 0 1 1-.29-.29.29.29 0 0 1 .29.29ZM4.61 100v-2.31h-.37a1.85 1.85 0 0 1-.63.22v.31h.51V100H3.5v.4h1.65v-.4Zm2.12 0h-.45c.54-.57 1-1.07 1-1.55a.8.8 0 0 0-.86-.84 1.11 1.11 0 0 0-.88.42l.28.27a.74.74 0 0 1 .53-.3.42.42 0 0 1 .45.47c0 .42-.48.9-1.24 1.64v.28H7.4V100Zm1.46-1.67a.34.34 0 0 0 0 .68.34.34 0 0 0 0-.68Zm0 1.48a.33.33 0 0 0 0 .66.33.33 0 0 0 0-.66ZM10.2 99a.68.68 0 0 0 .48-.63c0-.47-.36-.72-.89-.72A1.22 1.22 0 0 0 9 98l.26.3a.78.78 0 0 1 .51-.3c.26 0 .41.14.41.36s-.18.44-.72.44v.36c.63 0 .81.18.81.47s-.21.41-.51.41a.87.87 0 0 1-.64-.3l-.24.32a1.16 1.16 0 0 0 .93.38c.52 0 1-.29 1-.79a.68.68 0 0 0-.61-.65Zm.97-1.31v.42h1.29a3.88 3.88 0 0 0-.76 2.31h.51A3.46 3.46 0 0 1 13 98v-.3ZM3.9 111.1a.46.46 0 0 0 .33-.44c0-.34-.28-.53-.68-.53a.9.9 0 0 0-.61.25l.23.27a.55.55 0 0 1 .36-.17c.16 0 .24.08.24.22s-.11.26-.46.26v.32c.43 0 .53.1.53.28s-.13.23-.32.23a.6.6 0 0 1-.43-.2l-.2.28a.83.83 0 0 0 .67.28c.39 0 .73-.21.73-.57a.48.48 0 0 0-.39-.48Zm1 .47a.27.27 0 0 0-.27.29.27.27 0 0 0 .27.28.27.27 0 0 0 .27-.28.28.28 0 0 0-.27-.29Zm1.55.17v-1.58h-.33a1.74 1.74 0 0 1-.49.18v.27H6v1.13h-.42v.36h1.23v-.36Zm.66-1.58v.38H8a2.61 2.61 0 0 0-.52 1.56h.45a2.35 2.35 0 0 1 .55-1.67v-.27Zm3.22 1.05.53-.63h-.49l-.48.61V110h-.45v2.15h.44v-.37l.19-.22.35.59h.48Zm2.56-.67a.64.64 0 0 0-.47.26.44.44 0 0 0-.43-.26.64.64 0 0 0-.46.24v-.2h-.37v1.52h.45v-1a.42.42 0 0 1 .26-.15c.13 0 .19.07.19.29v.88h.45v-1a.4.4 0 0 1 .26-.15c.13 0 .19.07.19.29v.88h.45v-.94c-.04-.42-.19-.66-.52-.66Zm-8.54 6.05v.46H12v-.46ZM0 114.39l1.56 2.12a1.12 1.12 0 0 0 .9.54H4v-.46h-.3a1 1 0 0 1-.46-.11.71.71 0 0 1-.14-.1 1.06 1.06 0 0 1-.17-.2.83.83 0 0 1-.12-.44c0-.48.4-.56.92-.56h8.9c.51 0 .92.08.92.56a.87.87 0 0 1-.13.45.77.77 0 0 1-.17.19.61.61 0 0 1-.16.12 1 1 0 0 1-.46.11h-.31v.46h1.59a1.1 1.1 0 0 0 .89-.54l1.56-2.12Z"/><path class="cls-34" d="M3.27 115.72h.77v5.48h-.77zm1.08 0h7.67v5.48H4.35zm7.98 0h.77v5.48h-.77zM4.35 91.77v.47H12v-.47Zm10.46.55a1.11 1.11 0 0 0-.89-.55h-1.59v.47h.31a1 1 0 0 1 .46.11l.17.12a1 1 0 0 1 .16.2.81.81 0 0 1 .13.44c0 .48-.41.56-.92.56h-8.9c-.52 0-.92-.08-.92-.56a.83.83 0 0 1 .12-.44 1.06 1.06 0 0 1 .17-.2l.17-.12a1 1 0 0 1 .46-.11H4v-.47H2.46a1.13 1.13 0 0 0-.9.55L0 94.44h16.37Z"/><path class="cls-34" d="M3.28 87.62h.76v5.49h-.76zm1.07 0h7.67v5.49H4.35zm7.98 0h.76v5.49h-.76z"/></g><g class="cls-49"><path class="cls-34" d="M54.32 26.38a12.59 12.59 0 0 1-3 3.63c.32-1.62 1.36-3.15 1.16-4.83-.23-1.9-1.85-2.35-2.39-4-.15 3.34-3.38 4-1.94 7.08a3.25 3.25 0 0 0 2.56 1.69 15.52 15.52 0 0 1-3.05-.47c-2.22-.87-4.19-3.26-2.64-6.36a11.48 11.48 0 0 1 1.78-2.26 2.2 2.2 0 0 0 1.42 2.65 5.52 5.52 0 0 1 .42-4.41 11.2 11.2 0 0 0 1.7-4.22 15.07 15.07 0 0 0 2.93 7.21c.93 1.18 1.73 2.81 1.05 4.29Z"/><path class="cls-34" d="M51.58 27.69a12.08 12.08 0 0 0-.23 2.31c-.43-.21-1.94-1.13-1.67-2.32s.86-1.52 1-2.33a3.39 3.39 0 0 1 .9 2.34Zm8-16.21a14.44 14.44 0 0 1-.18 22.06L57.46 31a11.28 11.28 0 0 0 .13-17l2-2.48Zm-.07-.71L56.89 14a10.77 10.77 0 0 1-.13 17l2.56 3.31a14.94 14.94 0 0 0 .19-23.49Z"/><path class="cls-34" d="M41 34.26a14.94 14.94 0 0 1 9.17-26.77 15 15 0 0 1 9.34 3.28L56.89 14a10.64 10.64 0 0 0-6.72-2.35 10.77 10.77 0 0 0-10.76 10.79A10.66 10.66 0 0 0 43.59 31Zm15.53-1.05L55.34 33l-.53-1-.53 1-1.19.17.86.84-.21 1.19 1.07-.56 1.06.56-.2-1.19Zm-1.72 1.18-.73.38.14-.81-.59-.57.81-.12.37-.74.36.74.82.12-.59.61.14.81Zm-4.64-2.43.53 1.08 1.19.17-.86.84.2 1.18-1.06-.56-1.07.56.21-1.18-.86-.84 1.19-.17.53-1.08zm-4.64 0 .53 1.08 1.19.17-.86.84.2 1.18-1.06-.56-1.06.56.2-1.18-.86-.84 1.19-.17.53-1.08z"/></g></g></g></g></svg>