<svg xmlns="http://www.w3.org/2000/svg" viewBox="0 0 79.79 85.8"><defs><style>.cls-1{fill:#e8ebec}.cls-2{fill:#fff}.cls-3{fill:#97d3db}.cls-4{fill:#8dc74a}</style></defs><g id="Capa_2" data-name="Capa 2"><g id="layer_1" data-name="layer 1"><circle class="cls-1" cx="14" cy="63.44" r="14"/><circle class="cls-1" cx="67.79" cy="55.31" r="12"/><circle class="cls-1" cx="35.3" cy="20" r="20"/><path class="cls-2" d="M74.23 42.05a12 12 0 0 0-12-12h-44v-16h44a12 12 0 0 1 12 12Z"/><path class="cls-3" d="M62.23 25.05h-44v5h44a12 12 0 0 1 12 12v-5a12 12 0 0 0-12-12Z"/><path class="cls-4" d="M74.23 42.8a.75.75 0 0 1-.75-.75A11.26 11.26 0 0 0 62.23 30.8h-44a.76.76 0 0 1-.75-.75v-16a.76.76 0 0 1 .75-.75h44A12.76 12.76 0 0 1 75 26.05v16a.74.74 0 0 1-.77.75ZM62.29 29.3a12.76 12.76 0 0 1 11.19 6.76v-10A11.26 11.26 0 0 0 62.23 14.8H19v14.5h43.29Z"/><path class="cls-4" d="M24.23 22.8a.76.76 0 0 1-.75-.75v-8a.75.75 0 0 1 1.5 0v8a.75.75 0 0 1-.75.75Zm6.01-3a.75.75 0 0 1-.75-.75v-5a.75.75 0 0 1 1.5 0v5a.76.76 0 0 1-.75.75Zm6 0a.75.75 0 0 1-.75-.75v-5a.75.75 0 0 1 1.5 0v5a.76.76 0 0 1-.75.75Zm6 3a.75.75 0 0 1-.75-.75v-8a.75.75 0 0 1 1.5 0v8a.76.76 0 0 1-.75.75Zm6-3a.75.75 0 0 1-.75-.75v-5a.75.75 0 0 1 1.5 0v5a.76.76 0 0 1-.75.75Zm6 0a.75.75 0 0 1-.75-.75v-5a.75.75 0 0 1 1.5 0v5a.76.76 0 0 1-.75.75Zm6 3a.75.75 0 0 1-.75-.75v-8a.75.75 0 0 1 1.5 0v8a.76.76 0 0 1-.75.75Zm6-2a.75.75 0 0 1-.75-.75v-5.31a.75.75 0 1 1 1.5 0v5.31a.76.76 0 0 1-.75.75Z"/><path class="cls-2" d="M62.23 38.07h-40a12 12 0 0 0-12 12v16a12 12 0 0 1 12-12h40a12 12 0 0 0 12-12v-16a12 12 0 0 1-12 12Z"/><path class="cls-3" d="M69.23 35.8v2.27a12 12 0 0 1-12 12h-35a12 12 0 0 0-12 12v4a12 12 0 0 1 12-12h40a12 12 0 0 0 12-12v-16a11.94 11.94 0 0 1-5 9.73Z"/><path class="cls-4" d="M10.23 66.82a.76.76 0 0 1-.75-.75v-16a12.76 12.76 0 0 1 12.75-12.75h40a11.26 11.26 0 0 0 11.25-11.25.75.75 0 0 1 1.5 0v16a12.76 12.76 0 0 1-12.75 12.75h-40A11.26 11.26 0 0 0 11 66.07a.75.75 0 0 1-.77.75Zm12-28A11.25 11.25 0 0 0 11 50.07v10a12.78 12.78 0 0 1 11.25-6.75h40a11.26 11.26 0 0 0 11.23-11.25v-10a12.78 12.78 0 0 1-11.19 6.76H22.23Z"/><path class="cls-4" d="M63.24 54.8a.74.74 0 0 1-.75-.75v-8a.75.75 0 0 1 1.5 0v8a.75.75 0 0 1-.75.75Zm-6 0a.74.74 0 0 1-.75-.75v-5a.75.75 0 0 1 1.5 0v5a.75.75 0 0 1-.75.75Zm12-2.24a.75.75 0 0 1-.75-.75v-4.75a.75.75 0 0 1 1.5 0v4.75a.75.75 0 0 1-.75.75Zm-18 2.24a.74.74 0 0 1-.75-.75v-5a.75.75 0 0 1 1.5 0v5a.75.75 0 0 1-.75.75Zm-6 0a.74.74 0 0 1-.75-.75v-8a.75.75 0 0 1 1.5 0v8a.75.75 0 0 1-.75.75Zm-6 0a.74.74 0 0 1-.75-.75v-5a.75.75 0 0 1 1.5 0v5a.75.75 0 0 1-.75.75Zm-6 0a.74.74 0 0 1-.75-.75v-5a.75.75 0 0 1 1.5 0v5a.75.75 0 0 1-.75.75Zm-6.01 0a.75.75 0 0 1-.75-.75v-8a.75.75 0 0 1 1.5 0v8a.74.74 0 0 1-.75.75Zm-6 0a.75.75 0 0 1-.75-.75v-6a.75.75 0 0 1 1.5 0v6a.74.74 0 0 1-.75.75Zm-6 2.27a.76.76 0 0 1-.75-.75v-6.26a.75.75 0 0 1 1.5 0v6.26a.75.75 0 0 1-.75.75Z"/><path class="cls-2" d="M66.23 62.05h8v16h-8z"/><path class="cls-3" d="M71.23 62.05v10a3 3 0 0 1-3 3h-2v3h8v-16Z"/><path class="cls-4" d="M74.23 78.8h-8a.76.76 0 0 1-.75-.75v-16a.76.76 0 0 1 .75-.75h8a.75.75 0 0 1 .75.75v16a.75.75 0 0 1-.75.75ZM67 77.3h6.5V62.8H67Z"/><path class="cls-2" d="M10.23 14.05h8v16h-8z"/><path class="cls-3" d="M15.23 14.05v10a3 3 0 0 1-3 3h-2v3h8v-16Z"/><path class="cls-4" d="M18.23 30.8h-8a.76.76 0 0 1-.75-.75v-16a.76.76 0 0 1 .75-.75h8a.75.75 0 0 1 .75.75v16a.75.75 0 0 1-.75.75ZM11 29.3h6.5V14.8H11Z"/><path class="cls-2" d="M10.23 50.05a12 12 0 0 0 12 12h44v16h-44a12 12 0 0 1-12-12Z"/><path class="cls-3" d="M57.23 62.05v4a8 8 0 0 1-8 8h-27a12 12 0 0 1-12-12v4a12 12 0 0 0 12 12h44v-16Z"/><path class="cls-4" d="M66.23 78.8h-44A12.76 12.76 0 0 1 9.48 66.05v-16a.75.75 0 0 1 1.5 0A11.27 11.27 0 0 0 22.23 61.3h44a.75.75 0 0 1 .75.75v16a.75.75 0 0 1-.75.75ZM11 56v10a11.27 11.27 0 0 0 11.23 11.3h43.25V62.8h-43.3A12.76 12.76 0 0 1 11 56Z"/><path class="cls-4" d="M60.24 70.81a.75.75 0 0 1-.75-.75v-8a.75.75 0 0 1 1.5 0v8a.76.76 0 0 1-.75.75Zm-6-3a.75.75 0 0 1-.75-.75v-5a.75.75 0 0 1 1.5 0v5a.76.76 0 0 1-.75.75Zm-6 0a.75.75 0 0 1-.75-.75v-5a.75.75 0 0 1 1.5 0v5a.76.76 0 0 1-.75.75Zm-6 3a.75.75 0 0 1-.75-.75v-8a.75.75 0 0 1 1.5 0v8a.76.76 0 0 1-.75.75Zm-6-3a.75.75 0 0 1-.75-.75v-5a.75.75 0 0 1 1.5 0v5a.76.76 0 0 1-.75.75Zm-6 0a.75.75 0 0 1-.75-.75v-5a.75.75 0 0 1 1.5 0v5a.76.76 0 0 1-.75.75Zm-6.01 3a.76.76 0 0 1-.75-.75v-8a.75.75 0 0 1 1.5 0v8a.75.75 0 0 1-.75.75Zm-6-4a.76.76 0 0 1-.75-.75v-4.69a.75.75 0 0 1 1.5 0v4.69a.75.75 0 0 1-.75.75ZM43.25 41.8h-2.5a.75.75 0 0 1 0-1.5h2.5a.75.75 0 0 1 0 1.5Zm-6.5 0H23a.75.75 0 0 1 0-1.5h13.75a.75.75 0 0 1 0 1.5Zm25.64 44a.76.76 0 0 1-.75-.75v-4a.75.75 0 0 1 1.5 0v4a.75.75 0 0 1-.75.75Z"/><path class="cls-4" d="M64.39 83.8h-4a.75.75 0 0 1 0-1.5h4a.75.75 0 0 1 0 1.5Z"/><circle class="cls-4" cx="56.39" cy="83.05" r=".75"/><circle class="cls-4" cx="53.39" cy="83.05" r=".75"/><circle class="cls-4" cx="48.39" cy="83.05" r=".75"/><circle class="cls-4" cx="42.39" cy="83.05" r=".75"/><path class="cls-4" d="M26.76 11.8a.76.76 0 0 1-.75-.75v-4a.75.75 0 0 1 1.5 0v4a.75.75 0 0 1-.75.75Z"/><path class="cls-4" d="M28.76 9.8h-4a.75.75 0 0 1 0-1.5h4a.75.75 0 0 1 0 1.5Z"/><circle class="cls-4" cx="32.76" cy="9.05" r=".75"/><circle class="cls-4" cx="35.76" cy="9.05" r=".75"/><circle class="cls-4" cx="40.77" cy="9.05" r=".75"/><circle class="cls-4" cx="46.77" cy="9.05" r=".75"/></g></g></svg>