<svg xmlns="http://www.w3.org/2000/svg" viewBox="0 0 221.87 404.27"><defs><style>.cls-2{fill:#cc8e76}.cls-4{fill:#fff}.cls-6{fill:#01747b}</style></defs><g id="Capa_2" data-name="Capa 2"><g id="plastic_surgery" data-name="plastic surgery"><path d="M221.46 248.2c-3.17-35.52-28.55-99.6-40-134.49-10-30.6 12.17-93.38 17.78-108.39.79-2.11-88.45-2.62-88.45-2.62S21.92 3.46 22.87 6c6 16.13 27.4 77.56 17.53 107.72C29 148.6 3.6 212.68.43 248.2c-4.52 50.65 28.23 124 32.35 156.07h74.86s-1.34-91.22-3.17-102.78c-1.9-12.05-6.34-30.45-15.86-45-9-13.72 18-11.17 21.83-10.82h.38c3.88-.35 31.41-2.91 22.46 10.82-9.52 14.59-14 33-15.86 45-1.83 11.56-3.18 102.78-3.18 102.78h74.87c1.96-30.77 36.89-105.42 32.35-156.07Z" style="fill:#d39b82"/><path d="M107.65 404.27s-1.35-91.22-3.18-102.78c-1.9-12.05-6.34-30.45-15.86-45-4.79-7.36.88-10 7.78-10.88C75.6 233.2 34.64 215.51 39.9 222c8.88 10.86 39.62 57.93 45.68 77.85 9.2 30.24-3.65 104.47-3.65 104.47ZM182 222c5.26-6.44-35.7 11.25-56.49 23.62 6.9.85 12.57 3.52 7.78 10.88-9.52 14.59-14 33-15.86 45-1.83 11.56-3.18 102.78-3.18 102.78H140S127.11 330 136.31 299.8c6.06-19.92 36.8-66.99 45.69-77.8ZM109.15 6.81s.7 156.87 2.53 67.24c.92-45.21 2.39-67.24 2.39-67.24Zm14.36 211.89a98.39 98.39 0 0 0-26.7-16.49c-11.57-4.7-25.55-27.9-29-49.28-2.54-15.86 5.08-31.06 4.55-44.82-.26-6.82 11.85-.82 12.21-2.12.5-1.86-11.68-3.19-11.2-5 1.73-6.53 3.23-12.8 4.13-18.2.34-2 .6-4 .74-5.74.13-1.58 7.55-2.72 7.49-4S78 72.16 78 71.12c.42-15.12-6.2-24.56-6.2-24.56s4.73 23.27 3.25 26.23-1.35 17.55-2 21.57-17.5 98.46-19.48 100.55c-5.22 5.5-35.59-6.87-27.83 2.65 4.4 5.44 109.19 28.33 97.77 21.14Z" class="cls-2"/><path d="M168.3 194.91c-2-2.09-18.91-96.54-19.54-100.55s-1.14-20.52-2.62-23.48S150 46.56 150 46.56s-6.62 9.44-6.21 24.56c0 1-7.65.56-7.72 1.88s7.37 2.45 7.49 4c.15 1.77.4 3.7.74 5.74.9 5.4 2.41 11.67 4.13 18.2.49 1.83-11.7 3.16-11.19 5 .35 1.3 12.47-4.7 12.21 2.12-.53 13.76 7.08 29 4.54 44.82-3.42 21.38-17.39 44.58-29 49.28a98.23 98.23 0 0 0-26.63 16.54c-11.42 7.19 93.37-15.75 97.77-21.14 7.75-9.56-22.62 2.85-27.83-2.65Z" class="cls-2"/><ellipse cx="110.93" cy="125.05" class="cls-2" rx="4.19" ry="7.22"/><path d="M110.62 121.18a4.67 4.67 0 0 1 2.15 3.45c.21 1.56.12 3.24-.59 3.38s-.31-2.25-1.72-2.24c-.59 0-1.38 0-1.64 1.87-.45 3.19 3.7 3.47 4.52 1s.49-6.4-2.72-7.46Z" style="fill:#a06048"/><path d="M9.15 236.21a.82.82 0 0 0-.92.71c-.34 2.47-.61 5-.82 7.61a.82.82 0 0 0 .75.89h.07a.82.82 0 0 0 .82-.75c.21-2.56.48-5.09.81-7.53a.83.83 0 0 0-.71-.93ZM10.8 290c-.35-2.52-.67-5-1-7.53a.82.82 0 1 0-1.64.18c.28 2.49.6 5 1 7.58a.83.83 0 0 0 .84.77h.12a.82.82 0 0 0 .68-1Zm-2.2-37.77a.82.82 0 1 0-1.6-.06c-.08 2.15-.12 4.37-.12 6.59v1.05a.82.82 0 0 0 .83.82.82.82 0 0 0 .82-.83v-1c-.04-2.24 0-4.44.07-6.57Zm3.61-30.92a.82.82 0 0 0-1 .58c-.64 2.38-1.22 4.89-1.73 7.47a.82.82 0 0 0 .65 1h.16a.83.83 0 0 0 .81-.67c.5-2.54 1.07-5 1.7-7.36a.82.82 0 0 0-.59-1.02Zm5.65-14.09a.83.83 0 0 0-1.14.26 42.52 42.52 0 0 0-3.2 7.09.83.83 0 0 0 .49 1.06.92.92 0 0 0 .28.05.84.84 0 0 0 .78-.54 42 42 0 0 1 3.05-6.79.82.82 0 0 0-.26-1.13Zm-9.18 60.16a.83.83 0 1 0-1.65.07c.11 2.5.26 5.06.47 7.63a.82.82 0 0 0 .82.76h.06a.82.82 0 0 0 .76-.89c-.2-2.55-.35-5.09-.46-7.57Zm20.55 93.95q-.93-2.58-1.8-5.11a.83.83 0 0 0-1.06-.51.82.82 0 0 0-.5 1.05q.89 2.53 1.81 5.13a.83.83 0 0 0 .78.54.92.92 0 0 0 .28-.05.81.81 0 0 0 .49-1.05ZM25 349a431.7 431.7 0 0 1-2.31-7.24.83.83 0 0 0-1.58.49c.75 2.4 1.53 4.85 2.32 7.27a.85.85 0 0 0 .79.57.74.74 0 0 0 .25-.05A.82.82 0 0 0 25 349Zm-4.49-14.49c-.71-2.45-1.39-4.91-2-7.32a.84.84 0 0 0-1-.59.82.82 0 0 0-.58 1c.65 2.43 1.33 4.9 2 7.35a.82.82 0 0 0 .79.6.85.85 0 0 0 .23 0 .84.84 0 0 0 .56-1.04ZM13.32 305c-.49-2.5-.94-5-1.36-7.47a.82.82 0 0 0-1.62.28c.41 2.46.87 5 1.36 7.51a.83.83 0 0 0 .81.66h.16a.82.82 0 0 0 .65-.98Zm3.27 14.83c-.6-2.48-1.18-5-1.72-7.4a.82.82 0 1 0-1.61.36c.54 2.44 1.12 4.94 1.73 7.43a.82.82 0 0 0 .8.63h.19a.83.83 0 0 0 .61-1.02ZM94 89.84a.82.82 0 0 0-1-.67 70.15 70.15 0 0 0-7.53 1.67.83.83 0 0 0-.55 1 .82.82 0 0 0 .79.59.67.67 0 0 0 .24 0 69.21 69.21 0 0 1 7.33-1.63.83.83 0 0 0 .72-.96Zm14.35-2.17c-2.54.06-5.12.22-7.66.47a.83.83 0 0 0 .08 1.65h.08c2.5-.24 5-.4 7.54-.46a.83.83 0 0 0 0-1.65Zm22.88 1.87a.83.83 0 0 0-.33 1.62 42.5 42.5 0 0 1 4.91 1.25.93.93 0 0 0 .29 0 .83.83 0 0 0 .82-.83c0-.58 0-.86-5.69-2.04Zm-7.59-1.2c-2.47-.28-5-.49-7.64-.6a.83.83 0 1 0-.07 1.65c2.56.11 5.09.31 7.53.59h.09a.83.83 0 0 0 .82-.73.82.82 0 0 0-.73-.91ZM66.76 134a61.27 61.27 0 0 0-3-7.08.82.82 0 1 0-1.47.74 62.49 62.49 0 0 1 2.95 6.9.83.83 0 0 0 .78.55 1 1 0 0 0 .28 0 .83.83 0 0 0 .46-1.11Zm3.95 52.2a.84.84 0 0 0-.84.81c-.06 2.74-.16 5.29-.3 7.57a.83.83 0 0 0 .77.87.82.82 0 0 0 .83-.77c.13-2.3.24-4.87.3-7.64a.83.83 0 0 0-.76-.84Zm-21.32-77.33a33.41 33.41 0 0 0-6.54-4.29.7.7 0 0 0-.47 0c-.07.52-.14 1-.22 1.54a33.13 33.13 0 0 1 6.19 4.07.8.8 0 0 0 .52.19.82.82 0 0 0 .64-.31.82.82 0 0 0-.12-1.2Zm10.43 11.36a57 57 0 0 0-4.82-6.06.82.82 0 0 0-1.22 1.11 53.66 53.66 0 0 1 4.65 5.88.82.82 0 0 0 .68.36.86.86 0 0 0 .46-.14.83.83 0 0 0 .25-1.15Zm11.69 51.56a.83.83 0 1 0-1.65 0c0 2.64.08 5.19.08 7.6a.83.83 0 0 0 .83.82.83.83 0 0 0 .82-.83c0-2.38-.03-4.95-.08-7.59Zm-1.72 29.59a.82.82 0 0 0-.94.69 16.88 16.88 0 0 1-.47 2.38.83.83 0 0 0 .51 1.05.84.84 0 0 0 .27 0 .83.83 0 0 0 .78-.55 18.22 18.22 0 0 0 .54-2.67.82.82 0 0 0-.69-.9Zm.55-52.48c-.35-2.58-.82-5.12-1.39-7.56a.83.83 0 0 0-1.61.38 75.06 75.06 0 0 1 1.37 7.4.82.82 0 0 0 .81.72h.11a.82.82 0 0 0 .71-.94Zm.66 7.99v-.34a.82.82 0 1 0-1.64.07v.38q.17 3.82.27 7.26a.83.83 0 0 0 .83.8.83.83 0 0 0 .8-.85q-.06-3.49-.26-7.32ZM93.49 293.5c-.5-2.41-1.08-4.92-1.74-7.46a.81.81 0 0 0-1-.59.83.83 0 0 0-.6 1c.65 2.52 1.23 5 1.73 7.39a.81.81 0 0 0 .8.65h.17a.82.82 0 0 0 .64-.99Zm-3.81-14.83c-1.34-4.42-2.39-7.27-2.4-7.3a.83.83 0 1 0-1.55.57s1 2.84 2.37 7.21a.83.83 0 0 0 .79.58 1 1 0 0 0 .24 0 .82.82 0 0 0 .55-1.06Zm5.16 22.38a.83.83 0 0 0-1.64.24c.39 2.63.66 5.15.81 7.51a.82.82 0 0 0 .82.77.83.83 0 0 0 .77-.88c-.1-2.4-.37-4.97-.76-7.64Zm.94 15.43v-.12a.83.83 0 1 0-1.65 0v.12c0 2.27 0 4.79.08 7.52a.83.83 0 0 0 .83.8.82.82 0 0 0 .81-.84c-.05-2.71-.07-5.23-.07-7.48Zm2.53 60.76a.83.83 0 0 0-1.65.07l.33 7.6a.83.83 0 0 0 .83.79.82.82 0 0 0 .79-.86Zm.69 15.21a.83.83 0 0 0-1.65.07l.33 7.61a.82.82 0 0 0 .82.78.82.82 0 0 0 .79-.86Zm-2.93-60.88a.81.81 0 0 0-.85-.8.83.83 0 0 0-.8.85c.09 2.57.19 5.13.3 7.63a.83.83 0 0 0 .82.79.83.83 0 0 0 .79-.86c-.07-2.49-.17-5.05-.26-7.61Zm1.62 31.66v-.08l-.07-1.15a.83.83 0 0 0-.88-.77.82.82 0 0 0-.77.88l.36 7.59a.82.82 0 0 0 .82.79.83.83 0 0 0 .79-.86Zm-.96-16.45a.82.82 0 0 0-.86-.78.84.84 0 0 0-.79.87c.15 2.79.29 5.37.42 7.62a.83.83 0 0 0 .82.77h.05a.82.82 0 0 0 .78-.87c-.15-2.25-.28-4.82-.42-7.61Zm-6.38-160.01-10.27-7.48a.8.8 0 0 0-.94 1.29l10.27 7.47a.75.75 0 0 0 .47.15.78.78 0 0 0 .64-.32.8.8 0 0 0-.17-1.11Z" class="cls-4"/><path d="m85.94 180.41-8.36-1.95 4.43 7.35-.09-4.2 4.02-1.2zm.39 118.93a.78.78 0 0 0-1.1-.18L75 306.64a.79.79 0 0 0-.18 1.11.8.8 0 0 0 .64.32.82.82 0 0 0 .47-.15l10.27-7.48a.78.78 0 0 0 .13-1.1Z" class="cls-4"/><path d="m87.72 298.32-8.36 1.96 4.03 1.2-.1 4.2 4.43-7.36zm3.55 79.74a.8.8 0 0 0-1.11-.17l-10.27 7.47a.81.81 0 0 0-.18 1.11.82.82 0 0 0 .65.33.79.79 0 0 0 .46-.15l10.27-7.48a.79.79 0 0 0 .18-1.11Z" class="cls-4"/><path d="M92.66 377.05 84.3 379l4.02 1.21-.09 4.19 4.43-7.35zm-46.9-220.29H33.05a.79.79 0 0 0-.79.79.8.8 0 0 0 .79.8h12.7a.79.79 0 0 0 0-1.58Z" class="cls-4"/><path d="m48.27 157.55-7.9-3.35 2.53 3.34-2.55 3.34 7.92-3.33zm25.37-56.69a.81.81 0 0 0-1.11-.18l-10.27 7.48a.8.8 0 0 0-.17 1.11.79.79 0 0 0 .64.33.74.74 0 0 0 .46-.16L73.46 102a.79.79 0 0 0 .18-1.14Z" class="cls-4"/><path d="m65.03 107.12.1-4.19-4.44 7.35 8.37-1.95-4.03-1.21zm130.28 248.59a.83.83 0 0 0-1.05.51c-.58 1.69-1.19 3.39-1.8 5.11a.81.81 0 0 0 .49 1.05.92.92 0 0 0 .28.05.83.83 0 0 0 .78-.54q.93-2.59 1.81-5.13a.83.83 0 0 0-.51-1.05Zm18.15-118.79a.82.82 0 0 0-1.63.22c.33 2.44.6 5 .81 7.53a.82.82 0 0 0 .82.75h.07a.82.82 0 0 0 .75-.89c-.21-2.53-.49-5.14-.82-7.61Zm-9.23 89.68a.83.83 0 0 0-1 .59c-.65 2.42-1.33 4.89-2 7.32a.84.84 0 0 0 .57 1 .85.85 0 0 0 .23 0 .84.84 0 0 0 .79-.6c.7-2.44 1.39-4.91 2-7.35a.82.82 0 0 0-.59-.96Zm7.99-97.24c-.51-2.58-1.09-5.09-1.73-7.47a.82.82 0 0 0-1.59.43c.63 2.34 1.2 4.82 1.7 7.36a.83.83 0 0 0 .81.67h.16a.83.83 0 0 0 .65-.99Zm-4.05-14.79a42.52 42.52 0 0 0-3.2-7.09.83.83 0 0 0-1.14-.26.82.82 0 0 0-.26 1.13 43.1 43.1 0 0 1 3.05 6.79.83.83 0 0 0 .77.54.93.93 0 0 0 .29-.05.83.83 0 0 0 .49-1.06ZM200 341.24a.82.82 0 0 0-1 .54 431.7 431.7 0 0 1-2.31 7.24.82.82 0 0 0 .53 1 .73.73 0 0 0 .25 0 .84.84 0 0 0 .79-.56c.79-2.42 1.57-4.87 2.31-7.27a.81.81 0 0 0-.57-.95Zm13.87-74.65a.83.83 0 0 0-.86.79c-.11 2.47-.26 5-.46 7.57a.82.82 0 0 0 .76.89h.06a.82.82 0 0 0 .82-.76c.2-2.57.36-5.14.47-7.63a.83.83 0 0 0-.79-.86Zm.86-14.42a.82.82 0 1 0-1.64.06c.07 2.14.11 4.34.11 6.53v1a.82.82 0 0 0 .82.83.82.82 0 0 0 .83-.82v-1.05c0-2.17-.04-4.39-.12-6.55Zm-4.05 44.69a.81.81 0 0 0-1 .67c-.42 2.46-.88 5-1.36 7.47a.82.82 0 0 0 .65 1h.15a.82.82 0 0 0 .81-.66c.49-2.52 1-5.05 1.37-7.51a.81.81 0 0 0-.62-.97Zm-2.88 14.94a.83.83 0 0 0-1 .63c-.54 2.44-1.12 4.93-1.72 7.4a.83.83 0 0 0 .6 1h.2a.82.82 0 0 0 .8-.63c.61-2.48 1.19-5 1.73-7.43a.83.83 0 0 0-.61-.97Zm4.94-30.03a.83.83 0 0 0-.91.73c-.27 2.48-.59 5-.94 7.53a.82.82 0 0 0 .7.93h.12a.83.83 0 0 0 .81-.71c.36-2.53.68-5.08.95-7.58a.82.82 0 0 0-.73-.9Zm-53.67-155.26a.83.83 0 0 0-1.11.37 61.27 61.27 0 0 0-3 7.08.83.83 0 0 0 .49 1.06 1 1 0 0 0 .28 0 .83.83 0 0 0 .78-.55 62.49 62.49 0 0 1 3-6.9.83.83 0 0 0-.44-1.06Zm8.76-12.39a.82.82 0 0 0-1.17 0 55.72 55.72 0 0 0-4.79 6.06.83.83 0 0 0 .22 1.15.86.86 0 0 0 .46.14.82.82 0 0 0 .68-.36 53.66 53.66 0 0 1 4.65-5.88.82.82 0 0 0-.05-1.11Zm11.69-9.53a.79.79 0 0 0-.69 0 34.11 34.11 0 0 0-6.54 4.29.83.83 0 0 0 .52 1.47.8.8 0 0 0 .52-.19 33.13 33.13 0 0 1 6.19-4.07 1.33 1.33 0 0 0 .19-.14c-.07-.46-.13-.95-.19-1.36ZM151 171a.83.83 0 0 0-.82.81c-.05 2.65-.08 5.21-.08 7.62a.83.83 0 0 0 .82.83.83.83 0 0 0 .83-.82c0-2.41 0-5 .08-7.6a.82.82 0 0 0-.83-.84Zm2.74-30.27a.83.83 0 0 0-1 .61c-.58 2.44-1 5-1.39 7.56a.82.82 0 0 0 .7.93h.12a.82.82 0 0 0 .81-.72 75.06 75.06 0 0 1 1.37-7.4.83.83 0 0 0-.61-.98Zm-.43 63.73a17.88 17.88 0 0 1-.47-2.39.82.82 0 0 0-1.63.25 17.66 17.66 0 0 0 .54 2.66.82.82 0 0 0 .78.56.78.78 0 0 0 .26 0 .82.82 0 0 0 .52-1.08Zm-1.79-48.7a.83.83 0 0 0-.86.79v.34q-.17 3.83-.27 7.28a.82.82 0 0 0 .79.85.84.84 0 0 0 .83-.8q.1-3.43.27-7.26v-.34a.83.83 0 0 0-.76-.86Zm.3 31.24a.85.85 0 0 0-.84-.81.83.83 0 0 0-.81.84c.06 2.78.17 5.35.3 7.64a.82.82 0 0 0 .83.77.83.83 0 0 0 .77-.87c-.07-2.26-.19-4.81-.25-7.57ZM125 361.23a.83.83 0 0 0-.88.77l-.36 7.63a.83.83 0 0 0 .79.86.82.82 0 0 0 .82-.79l.28-6.42.08-1.17a.82.82 0 0 0-.73-.88Zm-1.43 30.43a.84.84 0 0 0-.86.79l-.33 7.6a.82.82 0 0 0 .79.86.82.82 0 0 0 .82-.78l.33-7.61a.83.83 0 0 0-.75-.86Zm.67-15.21a.83.83 0 0 0-.86.79l-.33 7.6a.82.82 0 0 0 .78.86.81.81 0 0 0 .82-.79l.34-7.6a.82.82 0 0 0-.75-.86Zm1.58-30.45a.82.82 0 0 0-.86.78c-.14 2.79-.29 5.36-.42 7.61a.82.82 0 0 0 .78.87h.05a.82.82 0 0 0 .82-.77c.13-2.25.27-4.83.41-7.62a.82.82 0 0 0-.78-.87Zm.92-30.47a.83.83 0 0 0-.83.83v.11c0 2.25 0 4.77-.08 7.49a.82.82 0 0 0 .81.84.83.83 0 0 0 .83-.81c0-2.73.08-5.26.08-7.52v-.11a.83.83 0 0 0-.81-.83Zm4.2-30.08a.81.81 0 0 0-1 .59c-.66 2.54-1.24 5-1.74 7.46a.82.82 0 0 0 .64 1h.16a.82.82 0 0 0 .81-.65c.5-2.39 1.08-4.87 1.72-7.39a.81.81 0 0 0-.59-1.01Zm-4.47 45.32a.83.83 0 0 0-.85.8c-.09 2.56-.19 5.12-.3 7.61a.83.83 0 0 0 .79.86.83.83 0 0 0 .83-.79c.11-2.5.21-5.06.3-7.63a.84.84 0 0 0-.77-.85Zm9-59.89a.82.82 0 0 0-1.06.49s-1.06 2.88-2.4 7.3a.81.81 0 0 0 .55 1 1 1 0 0 0 .24 0 .83.83 0 0 0 .79-.58c1.32-4.37 2.35-7.18 2.37-7.21a.84.84 0 0 0-.49-1Zm-7.68 29.47a.84.84 0 0 0-.94.7c-.39 2.68-.66 5.25-.81 7.64a.82.82 0 0 0 .77.88.82.82 0 0 0 .82-.77c.15-2.35.42-4.88.8-7.51a.82.82 0 0 0-.64-.94Zm14.93-120.88a.8.8 0 0 0-1.11-.18l-10.27 7.48a.8.8 0 0 0-.17 1.11.8.8 0 0 0 1.11.17l10.26-7.47a.79.79 0 0 0 .18-1.11Z" class="cls-4"/><path d="m144.11 178.46-8.36 1.95 4.02 1.2-.09 4.2 4.43-7.35zm2.62 128.18-10.27-7.48a.79.79 0 0 0-.93 1.28l10.27 7.48a.79.79 0 1 0 .93-1.28Z" class="cls-4"/><path d="m142.32 300.28-8.36-1.96 4.44 7.36-.1-4.2 4.02-1.2zm-.52 85.08-10.27-7.47a.79.79 0 1 0-.93 1.28l10.27 7.48a.78.78 0 0 0 1.1-.18.8.8 0 0 0-.17-1.11Z" class="cls-4"/><path d="m137.39 379-8.36-1.95 4.43 7.35-.09-4.19 4.02-1.21zm51.25-222.27h-12.7a.79.79 0 1 0 0 1.58h12.71a.8.8 0 0 0 .79-.8.79.79 0 0 0-.8-.78Z" class="cls-4"/><path d="m178.78 157.54 2.54-3.34-7.9 3.35 7.92 3.33-2.56-3.34zm-19.35-49.38-10.27-7.48a.81.81 0 0 0-1.11.18.79.79 0 0 0 .18 1.11l10.27 7.47a.74.74 0 0 0 .46.16.79.79 0 0 0 .64-.33.8.8 0 0 0-.17-1.11Z" class="cls-4"/><path d="m161 110.28-4.44-7.35.1 4.19-4.03 1.21 8.37 1.95z" class="cls-4"/><path d="M143 0H78.65L23.53 5.91c2.55 7 6.93 21.49 10.88 36.09 37.43 4.56 47.46-5 63.08-7.91A62.37 62.37 0 0 1 111 32.8a59.33 59.33 0 0 1 13 1.29c15.72 3 26.05 12.47 63.52 7.83 3.95-14.57 8.32-29.07 10.86-36Z" style="fill:#119ba5"/><path d="M18.71 0c-2.86 11.84 8 32.24 19 36.09 13.15 4.57 36.76 4.85 52.47-5.37C102 23 107 10.16 109.29 0Zm184.44 0h-90.57c2.34 10.16 7.27 23 19.07 30.72 15.72 10.22 39.33 9.94 52.47 5.37C195.19 32.24 206 11.84 203.15 0Z" class="cls-6"/><path d="M18.71 0c-1.11 4.59-.15 10.48 2.08 16.19a27.19 27.19 0 0 0 11.07 7.21C47.2 28 74.76 28.25 93.09 18a42.59 42.59 0 0 0 15.28-14.41c.35-1.22.65-2.43.92-3.59Zm184.44 0h-90.57c.26 1.16.57 2.36.91 3.59A42.75 42.75 0 0 0 128.77 18c18.34 10.25 45.89 10 61.23 5.4a27.26 27.26 0 0 0 11.07-7.21c2.24-5.71 3.19-11.6 2.08-16.19Zm-1.49 172c-1.55 4.65-4.35 12.8-12.49 18.79-10.2 7.51-26.49 12.36-35.52 14a349 349 0 0 1-42.72 4.38 348.72 348.72 0 0 1-42.71-4.38c-9-1.6-25.33-6.45-35.53-14-8.14-6-10.88-14.24-12.43-18.89 0 0-6.88 18.54-6.88 21.08s11.7 18.11 24.39 28.26c6 4.82 21.89 14.17 35.21 26.33a238 238 0 0 1 25.38 28 9 9 0 0 0 5.39 3.32c1.15.22 2.5.44 3.91.59a29.79 29.79 0 0 0 3 .16 40 40 0 0 0 7.51-.8 8.91 8.91 0 0 0 5.37-3.3 238.11 238.11 0 0 1 25.36-27.93c13.31-12.16 29.18-21.51 35.21-26.33 12.69-10.15 24.53-25.38 24.53-27.91S201.66 172 201.66 172Z" style="fill:#008c9d"/><path d="M184.57 207.65c-1.3-4.76-6.79-7.31-11.67-5.47a112.89 112.89 0 0 1-20.33 5.57 363.06 363.06 0 0 1-41.64 4 362.75 362.75 0 0 1-41.63-4A114.3 114.3 0 0 1 48.39 202c-4.69-1.81-10 .66-11.26 5.27a48.42 48.42 0 0 1-3.58 9.94c2 1.75 4 4.06 6.06 5.61 5.88 4.39 21.35 12.91 34.32 24 11 9.41 20.8 24.54 24.75 29.29a8.87 8.87 0 0 0 5.26 3c1.12.2 2.43.41 3.8.54 1 .09 2 .15 2.92.15a41.86 41.86 0 0 0 7.32-.73 8.8 8.8 0 0 0 5.23-3c4-4.77 13.71-19.88 24.72-29.27 13-11.08 28.45-19.6 34.32-24 2-1.49 4-3.74 5.87-5.41a46.22 46.22 0 0 1-3.55-9.74Z" class="cls-6"/></g></g></svg>