<svg xmlns="http://www.w3.org/2000/svg" viewBox="0 0 79.76 71.5"><defs><style>.cls-1{fill:#e8ebec}.cls-2{fill:#fff}.cls-3{fill:#97d3db}.cls-4{fill:#8dc74a}</style></defs><g id="Capa_2" data-name="Capa 2"><g id="layer_1" data-name="layer 1"><circle cx="14" cy="51.06" r="14" class="cls-1"/><circle cx="67.76" cy="47.37" r="12" class="cls-1"/><circle cx="45.75" cy="20" r="20" class="cls-1"/><path d="M33 60.75v-44a10 10 0 0 1 10-10H23a10 10 0 0 0-10 10v44a10 10 0 0 0 10 10h20a10 10 0 0 1-10-10Z" class="cls-2"/><path d="M33 60.75v-44a10 10 0 0 1 10-10h-8a10 10 0 0 0-10 10v44a10 10 0 0 0 10 10h8a10 10 0 0 1-10-10Z" class="cls-3"/><path d="M43 71.5H23a10.76 10.76 0 0 1-10.75-10.75v-44A10.76 10.76 0 0 1 23 6h20a.75.75 0 0 1 0 1.5 9.26 9.26 0 0 0-9.25 9.25v44A9.26 9.26 0 0 0 43 70a.75.75 0 0 1 0 1.5Zm-20-64a9.26 9.26 0 0 0-9.25 9.25v44A9.26 9.26 0 0 0 23 70h14.53a10.76 10.76 0 0 1-5.28-9.25v-44a10.75 10.75 0 0 1 5.28-9.25Z" class="cls-4"/><path d="M62 56.75a9 9 0 0 1-9-9v13a10 10 0 0 1-10 10h18a10 10 0 0 0 10-10v-13a9 9 0 0 1-9 9Z" class="cls-2"/><path d="M67 55.23a9 9 0 0 1-4 1.46v4.06a10 10 0 0 1-10 10h8a10 10 0 0 0 10-10v-13a9 9 0 0 1-4 7.48Z" class="cls-3"/><path d="M61 71.5H43a.75.75 0 0 1 0-1.5 9.26 9.26 0 0 0 9.25-9.25v-13a.75.75 0 0 1 1.5 0 8.25 8.25 0 0 0 16.5 0 .75.75 0 0 1 1.5 0v13A10.76 10.76 0 0 1 61 71.5ZM48.47 70H61a9.26 9.26 0 0 0 9.25-9.25v-7.81a9.74 9.74 0 0 1-16.5 0v7.81A10.76 10.76 0 0 1 48.47 70Z" class="cls-4"/><path d="M61 6.75H43a10 10 0 0 1 10 10v31a9 9 0 0 0 18 0v-31a10 10 0 0 0-10-10Z" class="cls-2"/><path d="M71 16.75a10 10 0 0 0-10-10h-.35a10 10 0 0 1 1.35 5v31a9 9 0 0 0 8.08 9 9 9 0 0 0 .92-4Z" class="cls-3"/><path d="M62 57.5a9.76 9.76 0 0 1-9.75-9.75v-31A9.26 9.26 0 0 0 43 7.5.75.75 0 0 1 43 6h18a10.76 10.76 0 0 1 10.75 10.75v31A9.76 9.76 0 0 1 62 57.5Zm-13.53-50a10.75 10.75 0 0 1 5.28 9.25v31a8.25 8.25 0 0 0 16.5 0v-31A9.26 9.26 0 0 0 61 7.5ZM50 62.87h-4a.75.75 0 0 1 0-1.5h4a.75.75 0 0 1 0 1.5Z" class="cls-4"/><path d="M48 64.87a.75.75 0 0 1-.75-.75v-4a.75.75 0 0 1 1.5 0v4a.75.75 0 0 1-.75.75Z" class="cls-4"/><circle cx="48" cy="56.12" r=".75" class="cls-4"/><circle cx="48" cy="53.12" r=".75" class="cls-4"/><circle cx="48" cy="48.12" r=".75" class="cls-4"/><circle cx="48" cy="42.12" r=".75" class="cls-4"/><rect width="32" height="38" x="7" y="19.75" class="cls-2" rx="6"/><path d="M33 57.75H13v-4a26 26 0 0 1 26-26v24a6 6 0 0 1-6 6Z" class="cls-3"/><path d="M33 58.5H13a6.76 6.76 0 0 1-6.75-6.75v-26A6.76 6.76 0 0 1 13 19h20a6.76 6.76 0 0 1 6.75 6.75v26A6.76 6.76 0 0 1 33 58.5Zm-20-38a5.25 5.25 0 0 0-5.25 5.25v26A5.26 5.26 0 0 0 13 57h20a5.26 5.26 0 0 0 5.25-5.25v-26A5.26 5.26 0 0 0 33 20.5Z" class="cls-4"/><path d="M39 31.75h3a2 2 0 0 1 2 2v10a2 2 0 0 1-2 2h-3v-14Z" class="cls-2"/><path d="M42 45.75h-.5v-7.5a2.5 2.5 0 0 1 2.5-2.5v8a2 2 0 0 1-2 2Z" class="cls-3"/><path d="M42 46.5h-3a.76.76 0 0 1-.75-.75v-14A.75.75 0 0 1 39 31h3a2.75 2.75 0 0 1 2.75 2.75v10A2.75 2.75 0 0 1 42 46.5ZM39.75 45H42a1.25 1.25 0 0 0 1.25-1.25v-10A1.25 1.25 0 0 0 42 32.5h-2.25Z" class="cls-4"/><circle cx="62" cy="47.75" r="3" class="cls-2"/><path d="M65 47.75a3 3 0 0 0-.14-.86 3 3 0 0 0-.86-.14 3 3 0 0 0-3 3 3.09 3.09 0 0 0 .14.86 3 3 0 0 0 .86.14 3 3 0 0 0 3-3Z" class="cls-3"/><path d="M62 51.5a3.75 3.75 0 1 1 3.75-3.75A3.75 3.75 0 0 1 62 51.5Zm0-6a2.25 2.25 0 1 0 2.25 2.25A2.25 2.25 0 0 0 62 45.5Z" class="cls-4"/><circle cx="62" cy="36.75" r="3" class="cls-2"/><path d="M65 36.75a3 3 0 0 0-.14-.86 2.72 2.72 0 0 0-.86-.14 3 3 0 0 0-3 3 3.09 3.09 0 0 0 .14.86 3 3 0 0 0 .86.14 3 3 0 0 0 3-3Z" class="cls-3"/><path d="M62 40.5a3.75 3.75 0 1 1 3.75-3.75A3.76 3.76 0 0 1 62 40.5Zm0-6a2.25 2.25 0 1 0 2.25 2.25A2.25 2.25 0 0 0 62 34.5Z" class="cls-4"/><circle cx="62" cy="25.75" r="3" class="cls-2"/><path d="M61 27.75a3.09 3.09 0 0 0 .14.86 3 3 0 0 0 .86.14 3 3 0 0 0 2.86-3.86 2.72 2.72 0 0 0-.86-.14 3 3 0 0 0-3 3Z" class="cls-3"/><path d="M62 29.5a3.75 3.75 0 1 1 3.75-3.75A3.76 3.76 0 0 1 62 29.5Zm0-6a2.25 2.25 0 1 0 2.25 2.25A2.25 2.25 0 0 0 62 23.5ZM23.44 54.86h-.06a.74.74 0 0 1-.61-.42l-3.71-7.6-1.77 3.68a.75.75 0 0 1-.67.43H11a.75.75 0 0 1 0-1.5h5.14l2.24-4.66a.73.73 0 0 1 .67-.43.76.76 0 0 1 .68.43l3.82 7.85 4.12-5.93a.72.72 0 0 1 .6-.32.71.71 0 0 1 .61.3L31 49.45h4A.75.75 0 0 1 35 51h-4.43a.77.77 0 0 1-.6-.3l-1.66-2.23-4.25 6.12a.73.73 0 0 1-.62.27Z" class="cls-4"/><path d="M33.37 30.18a5.49 5.49 0 0 0-10.2-2.75A5.49 5.49 0 0 0 13 30.18c0 6.4 10.2 12.57 10.2 12.57s10.17-6.17 10.17-12.57Z" class="cls-2"/><path d="M27.89 24.75a5.52 5.52 0 0 0-1.23.15 5.35 5.35 0 0 1 1.91 4.1c0 4.79-5.73 9.46-8.6 11.5a34.71 34.71 0 0 0 3.2 2.27s10.2-6.17 10.2-12.57a5.46 5.46 0 0 0-5.48-5.45Z" class="cls-3"/><path d="M23.17 43.5a.77.77 0 0 1-.39-.11c-.43-.26-10.56-6.47-10.56-13.21A6.21 6.21 0 0 1 18.45 24a6.28 6.28 0 0 1 4.72 2.15 6.24 6.24 0 0 1 10.95 4c0 6.74-10.13 13-10.56 13.21a.79.79 0 0 1-.39.14Zm-4.72-18a4.71 4.71 0 0 0-4.73 4.68c0 5.23 7.62 10.49 9.45 11.68 1.82-1.19 9.45-6.46 9.45-11.68a4.71 4.71 0 0 0-4.73-4.68 4.78 4.78 0 0 0-4.08 2.31.79.79 0 0 1-1.29 0 4.77 4.77 0 0 0-4.07-2.31ZM42 15.45h-4A.75.75 0 0 1 38 14h4a.75.75 0 0 1 0 1.5Z" class="cls-4"/><path d="M40 17.45a.75.75 0 0 1-.75-.75v-4a.75.75 0 0 1 1.5 0v4a.76.76 0 0 1-.75.75Zm7 7h-4A.75.75 0 0 1 43 23h4a.75.75 0 0 1 0 1.5Z" class="cls-4"/><path d="M45 26.45a.76.76 0 0 1-.75-.75v-4a.75.75 0 0 1 1.5 0v4a.76.76 0 0 1-.75.75Z" class="cls-4"/></g></g></svg>